%TF.GenerationSoftware,KiCad,Pcbnew,5.0.2-bee76a0~70~ubuntu18.04.1*%
%TF.CreationDate,2020-06-09T17:58:42+02:00*%
%TF.ProjectId,DemoNixie,44656d6f-4e69-4786-9965-2e6b69636164,rev?*%
%TF.SameCoordinates,Original*%
%TF.FileFunction,Paste,Bot*%
%TF.FilePolarity,Positive*%
%FSLAX46Y46*%
G04 Gerber Fmt 4.6, Leading zero omitted, Abs format (unit mm)*
G04 Created by KiCad (PCBNEW 5.0.2-bee76a0~70~ubuntu18.04.1) date mar. 09 juin 2020 17:58:42 CEST*
%MOMM*%
%LPD*%
G01*
G04 APERTURE LIST*
%ADD10R,0.400000X0.400000*%
G04 APERTURE END LIST*
D10*
X150282800Y-110032000D03*
X150282800Y-110832000D03*
X149482800Y-110832000D03*
X149482800Y-110032000D03*
X149482800Y-111532000D03*
X149482800Y-112332000D03*
X150282800Y-112332000D03*
X150282800Y-111532000D03*
X199520800Y-116032000D03*
X199520800Y-116832000D03*
X200320800Y-116832000D03*
X200320800Y-116032000D03*
X150282800Y-104032000D03*
X150282800Y-104832000D03*
X149482800Y-104832000D03*
X149482800Y-104032000D03*
X200320800Y-108532000D03*
X200320800Y-109332000D03*
X199520800Y-109332000D03*
X199520800Y-108532000D03*
X200320800Y-105532000D03*
X200320800Y-106332000D03*
X199520800Y-106332000D03*
X199520800Y-105532000D03*
X150282800Y-113032000D03*
X150282800Y-113832000D03*
X149482800Y-113832000D03*
X149482800Y-113032000D03*
X149482800Y-117532000D03*
X149482800Y-118332000D03*
X150282800Y-118332000D03*
X150282800Y-117532000D03*
X200320800Y-114532000D03*
X200320800Y-115332000D03*
X199520800Y-115332000D03*
X199520800Y-114532000D03*
X150282800Y-116032000D03*
X150282800Y-116832000D03*
X149482800Y-116832000D03*
X149482800Y-116032000D03*
X150282800Y-107032000D03*
X150282800Y-107832000D03*
X149482800Y-107832000D03*
X149482800Y-107032000D03*
X149482800Y-108532000D03*
X149482800Y-109332000D03*
X150282800Y-109332000D03*
X150282800Y-108532000D03*
X199520800Y-113032000D03*
X199520800Y-113832000D03*
X200320800Y-113832000D03*
X200320800Y-113032000D03*
X200320800Y-117532000D03*
X200320800Y-118332000D03*
X199520800Y-118332000D03*
X199520800Y-117532000D03*
X200320800Y-111532000D03*
X200320800Y-112332000D03*
X199520800Y-112332000D03*
X199520800Y-111532000D03*
X199520800Y-107032000D03*
X199520800Y-107832000D03*
X200320800Y-107832000D03*
X200320800Y-107032000D03*
X149482800Y-114532000D03*
X149482800Y-115332000D03*
X150282800Y-115332000D03*
X150282800Y-114532000D03*
X149482800Y-105532000D03*
X149482800Y-106332000D03*
X150282800Y-106332000D03*
X150282800Y-105532000D03*
X199520800Y-104032000D03*
X199520800Y-104832000D03*
X200320800Y-104832000D03*
X200320800Y-104032000D03*
X199520800Y-110032000D03*
X199520800Y-110832000D03*
X200320800Y-110832000D03*
X200320800Y-110032000D03*
X274323800Y-116032000D03*
X274323800Y-116832000D03*
X275123800Y-116832000D03*
X275123800Y-116032000D03*
X275123800Y-108532000D03*
X275123800Y-109332000D03*
X274323800Y-109332000D03*
X274323800Y-108532000D03*
X275123800Y-105532000D03*
X275123800Y-106332000D03*
X274323800Y-106332000D03*
X274323800Y-105532000D03*
X275123800Y-114532000D03*
X275123800Y-115332000D03*
X274323800Y-115332000D03*
X274323800Y-114532000D03*
X274323800Y-113032000D03*
X274323800Y-113832000D03*
X275123800Y-113832000D03*
X275123800Y-113032000D03*
X275123800Y-117532000D03*
X275123800Y-118332000D03*
X274323800Y-118332000D03*
X274323800Y-117532000D03*
X275123800Y-111532000D03*
X275123800Y-112332000D03*
X274323800Y-112332000D03*
X274323800Y-111532000D03*
X274323800Y-107032000D03*
X274323800Y-107832000D03*
X275123800Y-107832000D03*
X275123800Y-107032000D03*
X274323800Y-104032000D03*
X274323800Y-104832000D03*
X275123800Y-104832000D03*
X275123800Y-104032000D03*
X274323800Y-110032000D03*
X274323800Y-110832000D03*
X275123800Y-110832000D03*
X275123800Y-110032000D03*
X324361800Y-117532000D03*
X324361800Y-118332000D03*
X325161800Y-118332000D03*
X325161800Y-117532000D03*
X325161800Y-116032000D03*
X325161800Y-116832000D03*
X324361800Y-116832000D03*
X324361800Y-116032000D03*
X324361800Y-114532000D03*
X324361800Y-115332000D03*
X325161800Y-115332000D03*
X325161800Y-114532000D03*
X325161800Y-113032000D03*
X325161800Y-113832000D03*
X324361800Y-113832000D03*
X324361800Y-113032000D03*
X324361800Y-111532000D03*
X324361800Y-112332000D03*
X325161800Y-112332000D03*
X325161800Y-111532000D03*
X325161800Y-110032000D03*
X325161800Y-110832000D03*
X324361800Y-110832000D03*
X324361800Y-110032000D03*
X324361800Y-108532000D03*
X324361800Y-109332000D03*
X325161800Y-109332000D03*
X325161800Y-108532000D03*
X325161800Y-107032000D03*
X325161800Y-107832000D03*
X324361800Y-107832000D03*
X324361800Y-107032000D03*
X324361800Y-105532000D03*
X324361800Y-106332000D03*
X325161800Y-106332000D03*
X325161800Y-105532000D03*
X325161800Y-104032000D03*
X325161800Y-104832000D03*
X324361800Y-104832000D03*
X324361800Y-104032000D03*
M02*
