%FSLAX45Y45*%
G04 Gerber Fmt 4.5, Leading zero omitted, Abs format (unit mm)*
G04 Created by KiCad (PCBNEW 5.0.2-bee76a0~70~ubuntu18.04.1) date mar. 09 juin 2020 18:01:08 CEST*
%MOMM*%
%LPD*%
G01*
G04 APERTURE LIST*
%ADD10C,0.150000*%
%ADD11C,0.200000*%
%ADD12C,0.300000*%
G04 APERTURE END LIST*
D10*
X37516180Y-7809200D02*
X37516180Y-14413200D01*
X9957180Y-7809200D02*
X37516180Y-7809200D01*
X9957180Y-14413200D02*
X9957180Y-7809200D01*
X37516180Y-14413200D02*
X9957180Y-14413200D01*
D11*
X14031200Y-12780905D02*
X14061200Y-12810905D01*
X14061200Y-12780905D02*
X14031200Y-12810905D01*
X14036380Y-9904700D02*
X14066380Y-9934700D01*
X14066380Y-9904700D02*
X14036380Y-9934700D01*
X14112580Y-9980900D02*
X14142580Y-10010900D01*
X14142580Y-9980900D02*
X14112580Y-10010900D01*
X14112580Y-12712000D02*
X14142580Y-12742000D01*
X14142580Y-12712000D02*
X14112580Y-12742000D01*
X14188780Y-10057100D02*
X14218780Y-10087100D01*
X14218780Y-10057100D02*
X14188780Y-10087100D01*
X14188780Y-12635800D02*
X14218780Y-12665800D01*
X14218780Y-12635800D02*
X14188780Y-12665800D01*
X14488400Y-12075400D02*
X14518400Y-12105400D01*
X14518400Y-12075400D02*
X14488400Y-12105400D01*
X14491699Y-11818438D02*
X14521699Y-11848438D01*
X14521699Y-11818438D02*
X14491699Y-11848438D01*
X14516340Y-10617440D02*
X14546340Y-10647440D01*
X14546340Y-10617440D02*
X14516340Y-10647440D01*
X14521420Y-10270730D02*
X14551420Y-10300730D01*
X14551420Y-10270730D02*
X14521420Y-10300730D01*
X14539200Y-12024600D02*
X14569200Y-12054600D01*
X14569200Y-12024600D02*
X14539200Y-12054600D01*
X14578500Y-10875250D02*
X14608500Y-10905250D01*
X14608500Y-10875250D02*
X14578500Y-10905250D01*
X14581110Y-10443450D02*
X14611110Y-10473450D01*
X14611110Y-10443450D02*
X14581110Y-10473450D01*
X14581160Y-11669180D02*
X14611160Y-11699180D01*
X14611160Y-11669180D02*
X14581160Y-11699180D01*
X14590000Y-11973800D02*
X14620000Y-12003800D01*
X14620000Y-11973800D02*
X14590000Y-12003800D01*
X14631910Y-10934940D02*
X14661910Y-10964940D01*
X14661910Y-10934940D02*
X14631910Y-10964940D01*
X14635720Y-11519140D02*
X14665720Y-11549140D01*
X14665720Y-11519140D02*
X14635720Y-11549140D01*
X14653499Y-11935700D02*
X14683499Y-11965700D01*
X14683499Y-11935700D02*
X14653499Y-11965700D01*
X14653500Y-10489170D02*
X14683500Y-10519170D01*
X14683500Y-10489170D02*
X14653500Y-10519170D01*
X14687790Y-11368010D02*
X14717790Y-11398010D01*
X14717790Y-11368010D02*
X14687790Y-11398010D01*
X14691600Y-11210530D02*
X14721600Y-11240530D01*
X14721600Y-11210530D02*
X14691600Y-11240530D01*
X14695410Y-10592040D02*
X14725410Y-10622040D01*
X14725410Y-10592040D02*
X14695410Y-10622040D01*
X14716999Y-11884900D02*
X14746999Y-11914900D01*
X14746999Y-11884900D02*
X14716999Y-11914900D01*
X14743399Y-10742338D02*
X14773399Y-10772338D01*
X14773399Y-10742338D02*
X14743399Y-10772338D01*
X14743399Y-11067020D02*
X14773399Y-11097020D01*
X14773399Y-11067020D02*
X14743399Y-11097020D01*
X14743399Y-11258030D02*
X14773399Y-11288030D01*
X14773399Y-11258030D02*
X14743399Y-11288030D01*
X14805900Y-10386930D02*
X14835900Y-10416930D01*
X14835900Y-10386930D02*
X14805900Y-10416930D01*
X14805900Y-10537430D02*
X14835900Y-10567430D01*
X14835900Y-10537430D02*
X14805900Y-10567430D01*
X14805900Y-10689830D02*
X14835900Y-10719830D01*
X14835900Y-10689830D02*
X14805900Y-10719830D01*
X14805900Y-10842230D02*
X14835900Y-10872230D01*
X14835900Y-10842230D02*
X14805900Y-10872230D01*
X14805900Y-10986930D02*
X14835900Y-11016930D01*
X14835900Y-10986930D02*
X14805900Y-11016930D01*
X14805900Y-11136930D02*
X14835900Y-11166930D01*
X14835900Y-11136930D02*
X14805900Y-11166930D01*
X14805900Y-11286930D02*
X14835900Y-11316930D01*
X14835900Y-11286930D02*
X14805900Y-11316930D01*
X14805900Y-11439130D02*
X14835900Y-11469130D01*
X14835900Y-11439130D02*
X14805900Y-11469130D01*
X14805900Y-11591530D02*
X14835900Y-11621530D01*
X14835900Y-11591530D02*
X14805900Y-11621530D01*
X14805900Y-11736930D02*
X14835900Y-11766930D01*
X14835900Y-11736930D02*
X14805900Y-11766930D01*
X14805900Y-12164300D02*
X14835900Y-12194300D01*
X14835900Y-12164300D02*
X14805900Y-12194300D01*
X14869400Y-10202150D02*
X14899400Y-10232150D01*
X14899400Y-10202150D02*
X14869400Y-10232150D01*
X14891900Y-10468200D02*
X14921900Y-10498200D01*
X14921900Y-10468200D02*
X14891900Y-10498200D01*
X14891900Y-10764500D02*
X14921900Y-10794500D01*
X14921900Y-10764500D02*
X14891900Y-10794500D01*
X14891900Y-11368200D02*
X14921900Y-11398200D01*
X14921900Y-11368200D02*
X14891900Y-11398200D01*
X14934170Y-10306290D02*
X14964170Y-10336290D01*
X14964170Y-10306290D02*
X14934170Y-10336290D01*
X15058630Y-10617440D02*
X15088630Y-10647440D01*
X15088630Y-10617440D02*
X15058630Y-10647440D01*
X15058630Y-10988280D02*
X15088630Y-11018280D01*
X15088630Y-10988280D02*
X15058630Y-11018280D01*
X15058680Y-10838600D02*
X15088680Y-10868600D01*
X15088680Y-10838600D02*
X15058680Y-10868600D01*
X15061220Y-10917340D02*
X15091220Y-10947340D01*
X15091220Y-10917340D02*
X15061220Y-10947340D01*
X15061300Y-10373600D02*
X15091300Y-10403600D01*
X15091300Y-10373600D02*
X15061300Y-10403600D01*
X15062440Y-11064480D02*
X15092440Y-11094480D01*
X15092440Y-11064480D02*
X15062440Y-11094480D01*
X15086570Y-10468601D02*
X15116570Y-10498601D01*
X15116570Y-10468601D02*
X15086570Y-10498601D01*
X15100540Y-10087850D02*
X15130540Y-10117850D01*
X15130540Y-10087850D02*
X15100540Y-10117850D01*
X15133200Y-10768300D02*
X15163200Y-10798300D01*
X15163200Y-10768300D02*
X15133200Y-10798300D01*
X15136100Y-12869805D02*
X15166100Y-12899805D01*
X15166100Y-12869805D02*
X15136100Y-12899805D01*
X15157690Y-10143220D02*
X15187690Y-10173220D01*
X15187690Y-10143220D02*
X15157690Y-10173220D01*
X15192080Y-13365981D02*
X15222080Y-13395981D01*
X15222080Y-13365981D02*
X15192080Y-13395981D01*
X15222100Y-10006300D02*
X15252100Y-10036300D01*
X15252100Y-10006300D02*
X15222100Y-10036300D01*
X15222100Y-10768300D02*
X15252100Y-10798300D01*
X15252100Y-10768300D02*
X15222100Y-10798300D01*
X15255580Y-13283501D02*
X15285580Y-13313501D01*
X15285580Y-13283501D02*
X15255580Y-13313501D01*
X15273792Y-11077733D02*
X15303792Y-11107733D01*
X15303792Y-11077733D02*
X15273792Y-11107733D01*
X15311000Y-9930100D02*
X15341000Y-9960100D01*
X15341000Y-9930100D02*
X15311000Y-9960100D01*
X15311000Y-10768300D02*
X15341000Y-10798300D01*
X15341000Y-10768300D02*
X15311000Y-10798300D01*
X15364700Y-11345805D02*
X15394700Y-11375805D01*
X15394700Y-11345805D02*
X15364700Y-11375805D01*
X15371001Y-10850918D02*
X15401001Y-10880918D01*
X15401001Y-10850918D02*
X15371001Y-10880918D01*
X15399900Y-9853900D02*
X15429900Y-9883900D01*
X15429900Y-9853900D02*
X15399900Y-9883900D01*
X15399900Y-10768300D02*
X15429900Y-10798300D01*
X15429900Y-10768300D02*
X15399900Y-10798300D01*
X15415500Y-13225405D02*
X15445500Y-13255405D01*
X15445500Y-13225405D02*
X15415500Y-13255405D01*
X15467620Y-10584600D02*
X15497620Y-10614600D01*
X15497620Y-10584600D02*
X15467620Y-10614600D01*
X15477780Y-11501540D02*
X15507780Y-11531540D01*
X15507780Y-11501540D02*
X15477780Y-11531540D01*
X15488401Y-10802655D02*
X15518401Y-10832655D01*
X15518401Y-10802655D02*
X15488401Y-10832655D01*
X15518370Y-11362930D02*
X15548370Y-11392930D01*
X15548370Y-11362930D02*
X15518370Y-11392930D01*
X15539637Y-10570636D02*
X15569637Y-10600636D01*
X15569637Y-10570636D02*
X15539637Y-10600636D01*
X15552300Y-10751800D02*
X15582300Y-10781800D01*
X15582300Y-10751800D02*
X15552300Y-10781800D01*
X15553924Y-11443843D02*
X15583924Y-11473843D01*
X15583924Y-11443843D02*
X15553924Y-11473843D01*
X15553924Y-11443843D02*
X15583924Y-11473843D01*
X15583924Y-11443843D02*
X15553924Y-11473843D01*
X15594570Y-11881338D02*
X15624570Y-11911338D01*
X15624570Y-11881338D02*
X15594570Y-11911338D01*
X15599700Y-10526180D02*
X15629700Y-10556180D01*
X15629700Y-10526180D02*
X15599700Y-10556180D01*
X15646629Y-11538113D02*
X15676629Y-11568113D01*
X15676629Y-11538113D02*
X15646629Y-11568113D01*
X15712330Y-11543136D02*
X15742330Y-11573136D01*
X15742330Y-11543136D02*
X15712330Y-11573136D01*
X15727920Y-10613630D02*
X15757920Y-10643630D01*
X15757920Y-10613630D02*
X15727920Y-10643630D01*
X15758400Y-10674590D02*
X15788400Y-10704590D01*
X15788400Y-10674590D02*
X15758400Y-10704590D01*
X15759670Y-11928839D02*
X15789670Y-11958839D01*
X15789670Y-11928839D02*
X15759670Y-11958839D01*
X15809877Y-11566898D02*
X15839877Y-11596898D01*
X15839877Y-11566898D02*
X15809877Y-11596898D01*
X15819360Y-11641060D02*
X15849360Y-11671060D01*
X15849360Y-11641060D02*
X15819360Y-11671060D01*
X15868890Y-10345660D02*
X15898890Y-10375660D01*
X15898890Y-10345660D02*
X15868890Y-10375660D01*
X15873078Y-11971260D02*
X15903078Y-12001260D01*
X15903078Y-11971260D02*
X15873078Y-12001260D01*
X15884130Y-10258030D02*
X15914130Y-10288030D01*
X15914130Y-10258030D02*
X15884130Y-10288030D01*
X15908439Y-10551445D02*
X15938439Y-10581445D01*
X15938439Y-10551445D02*
X15908439Y-10581445D01*
X15924820Y-11643780D02*
X15954820Y-11673780D01*
X15954820Y-11643780D02*
X15924820Y-11673780D01*
X15947119Y-11713119D02*
X15977119Y-11743119D01*
X15977119Y-11713119D02*
X15947119Y-11743119D01*
X15948439Y-10490620D02*
X15978439Y-10520620D01*
X15978439Y-10490620D02*
X15948439Y-10520620D01*
X15993400Y-12024780D02*
X16023400Y-12054780D01*
X16023400Y-12024780D02*
X15993400Y-12054780D01*
X16044200Y-11755540D02*
X16074200Y-11785540D01*
X16074200Y-11755540D02*
X16044200Y-11785540D01*
X16045981Y-10644110D02*
X16075981Y-10674110D01*
X16075981Y-10644110D02*
X16045981Y-10674110D01*
X16064520Y-11834280D02*
X16094520Y-11864280D01*
X16094520Y-11834280D02*
X16064520Y-11864280D01*
X16072090Y-10440910D02*
X16102090Y-10470910D01*
X16102090Y-10440910D02*
X16072090Y-10470910D01*
X16120598Y-10212736D02*
X16150598Y-10242736D01*
X16150598Y-10212736D02*
X16120598Y-10242736D01*
X16126700Y-12078720D02*
X16156700Y-12108720D01*
X16156700Y-12078720D02*
X16126700Y-12108720D01*
X16152100Y-10150080D02*
X16182100Y-10180080D01*
X16182100Y-10150080D02*
X16152100Y-10180080D01*
X16189855Y-10096419D02*
X16219855Y-10126419D01*
X16219855Y-10096419D02*
X16189855Y-10126419D01*
X16202900Y-12946004D02*
X16232900Y-12976004D01*
X16232900Y-12946004D02*
X16202900Y-12976004D01*
X16276200Y-10400000D02*
X16306200Y-10430000D01*
X16306200Y-10400000D02*
X16276200Y-10430000D01*
X16403200Y-11835100D02*
X16433200Y-11865100D01*
X16433200Y-11835100D02*
X16403200Y-11865100D01*
X16431500Y-11440400D02*
X16461500Y-11470400D01*
X16461500Y-11440400D02*
X16431500Y-11470400D01*
X16492100Y-9917400D02*
X16522100Y-9947400D01*
X16522100Y-9917400D02*
X16492100Y-9947400D01*
X16504389Y-10968108D02*
X16534389Y-10998108D01*
X16534389Y-10968108D02*
X16504389Y-10998108D01*
X16622000Y-10376920D02*
X16652000Y-10406920D01*
X16652000Y-10376920D02*
X16622000Y-10406920D01*
X16672800Y-10961120D02*
X16702800Y-10991120D01*
X16702800Y-10961120D02*
X16672800Y-10991120D01*
X16672800Y-11376900D02*
X16702800Y-11406900D01*
X16702800Y-11376900D02*
X16672800Y-11406900D01*
X16698200Y-11037320D02*
X16728200Y-11067320D01*
X16728200Y-11037320D02*
X16698200Y-11067320D01*
X16812500Y-11440400D02*
X16842500Y-11470400D01*
X16842500Y-11440400D02*
X16812500Y-11470400D01*
X16812500Y-11745200D02*
X16842500Y-11775200D01*
X16842500Y-11745200D02*
X16812500Y-11775200D01*
X16812500Y-11999200D02*
X16842500Y-12029200D01*
X16842500Y-11999200D02*
X16812500Y-12029200D01*
X16812500Y-12164300D02*
X16842500Y-12194300D01*
X16842500Y-12164300D02*
X16812500Y-12194300D01*
X16898500Y-11111200D02*
X16928500Y-11141200D01*
X16928500Y-11111200D02*
X16898500Y-11141200D01*
X16952200Y-10376920D02*
X16982200Y-10406920D01*
X16982200Y-10376920D02*
X16952200Y-10406920D01*
X16977600Y-10834120D02*
X17007600Y-10864120D01*
X17007600Y-10834120D02*
X16977600Y-10864120D01*
X17015700Y-10288020D02*
X17045700Y-10318020D01*
X17045700Y-10288020D02*
X17015700Y-10318020D01*
X17025500Y-11047700D02*
X17055500Y-11077700D01*
X17055500Y-11047700D02*
X17025500Y-11077700D01*
X17025500Y-11581100D02*
X17055500Y-11611100D01*
X17055500Y-11581100D02*
X17025500Y-11611100D01*
X17206200Y-10834120D02*
X17236200Y-10864120D01*
X17236200Y-10834120D02*
X17206200Y-10864120D01*
X17393800Y-11581100D02*
X17423800Y-11611100D01*
X17423800Y-11581100D02*
X17393800Y-11611100D01*
X17396700Y-10288020D02*
X17426700Y-10318020D01*
X17426700Y-10288020D02*
X17396700Y-10318020D01*
X17472900Y-9921120D02*
X17502900Y-9951120D01*
X17502900Y-9921120D02*
X17472900Y-9951120D01*
X17549100Y-10378320D02*
X17579100Y-10408320D01*
X17579100Y-10378320D02*
X17549100Y-10408320D01*
X17775692Y-10125233D02*
X17805692Y-10155233D01*
X17805692Y-10125233D02*
X17775692Y-10155233D01*
X18117700Y-10869900D02*
X18147700Y-10899900D01*
X18147700Y-10869900D02*
X18117700Y-10899900D01*
X18146000Y-11999200D02*
X18176000Y-12029200D01*
X18176000Y-11999200D02*
X18146000Y-12029200D01*
X18349200Y-10881600D02*
X18379200Y-10911600D01*
X18379200Y-10881600D02*
X18349200Y-10911600D01*
X18453718Y-10273000D02*
X18483718Y-10303000D01*
X18483718Y-10273000D02*
X18453718Y-10303000D01*
X18664692Y-10125233D02*
X18694692Y-10155233D01*
X18694692Y-10125233D02*
X18664692Y-10155233D01*
X18664692Y-12285605D02*
X18694692Y-12315605D01*
X18694692Y-12285605D02*
X18664692Y-12315605D01*
X18667079Y-14207700D02*
X18697079Y-14237700D01*
X18697079Y-14207700D02*
X18667079Y-14237700D01*
X19111200Y-12526905D02*
X19141200Y-12556905D01*
X19141200Y-12526905D02*
X19111200Y-12556905D01*
X19116380Y-9904700D02*
X19146380Y-9934700D01*
X19146380Y-9904700D02*
X19116380Y-9934700D01*
X19192580Y-9980900D02*
X19222580Y-10010900D01*
X19222580Y-9980900D02*
X19192580Y-10010900D01*
X19192580Y-12458000D02*
X19222580Y-12488000D01*
X19222580Y-12458000D02*
X19192580Y-12488000D01*
X19263600Y-12387205D02*
X19293600Y-12417205D01*
X19293600Y-12387205D02*
X19263600Y-12417205D01*
X19268780Y-10057100D02*
X19298780Y-10087100D01*
X19298780Y-10057100D02*
X19268780Y-10087100D01*
X19492200Y-12075400D02*
X19522200Y-12105400D01*
X19522200Y-12075400D02*
X19492200Y-12105400D01*
X19495499Y-11818438D02*
X19525499Y-11848438D01*
X19525499Y-11818438D02*
X19495499Y-11848438D01*
X19520140Y-10617440D02*
X19550140Y-10647440D01*
X19550140Y-10617440D02*
X19520140Y-10647440D01*
X19525220Y-10270730D02*
X19555220Y-10300730D01*
X19555220Y-10270730D02*
X19525220Y-10300730D01*
X19543000Y-12024600D02*
X19573000Y-12054600D01*
X19573000Y-12024600D02*
X19543000Y-12054600D01*
X19582300Y-10875250D02*
X19612300Y-10905250D01*
X19612300Y-10875250D02*
X19582300Y-10905250D01*
X19584910Y-10443450D02*
X19614910Y-10473450D01*
X19614910Y-10443450D02*
X19584910Y-10473450D01*
X19584960Y-11669180D02*
X19614960Y-11699180D01*
X19614960Y-11669180D02*
X19584960Y-11699180D01*
X19593800Y-11973800D02*
X19623800Y-12003800D01*
X19623800Y-11973800D02*
X19593800Y-12003800D01*
X19635710Y-10934940D02*
X19665710Y-10964940D01*
X19665710Y-10934940D02*
X19635710Y-10964940D01*
X19639520Y-11519140D02*
X19669520Y-11549140D01*
X19669520Y-11519140D02*
X19639520Y-11549140D01*
X19657299Y-11935700D02*
X19687299Y-11965700D01*
X19687299Y-11935700D02*
X19657299Y-11965700D01*
X19657300Y-10489170D02*
X19687300Y-10519170D01*
X19687300Y-10489170D02*
X19657300Y-10519170D01*
X19691590Y-11368010D02*
X19721590Y-11398010D01*
X19721590Y-11368010D02*
X19691590Y-11398010D01*
X19695400Y-11210530D02*
X19725400Y-11240530D01*
X19725400Y-11210530D02*
X19695400Y-11240530D01*
X19699210Y-10592040D02*
X19729210Y-10622040D01*
X19729210Y-10592040D02*
X19699210Y-10622040D01*
X19720799Y-11884900D02*
X19750799Y-11914900D01*
X19750799Y-11884900D02*
X19720799Y-11914900D01*
X19747199Y-10742338D02*
X19777199Y-10772338D01*
X19777199Y-10742338D02*
X19747199Y-10772338D01*
X19747199Y-11067020D02*
X19777199Y-11097020D01*
X19777199Y-11067020D02*
X19747199Y-11097020D01*
X19747199Y-11258030D02*
X19777199Y-11288030D01*
X19777199Y-11258030D02*
X19747199Y-11288030D01*
X19809700Y-10386930D02*
X19839700Y-10416930D01*
X19839700Y-10386930D02*
X19809700Y-10416930D01*
X19809700Y-10537430D02*
X19839700Y-10567430D01*
X19839700Y-10537430D02*
X19809700Y-10567430D01*
X19809700Y-10689830D02*
X19839700Y-10719830D01*
X19839700Y-10689830D02*
X19809700Y-10719830D01*
X19809700Y-10842230D02*
X19839700Y-10872230D01*
X19839700Y-10842230D02*
X19809700Y-10872230D01*
X19809700Y-10986930D02*
X19839700Y-11016930D01*
X19839700Y-10986930D02*
X19809700Y-11016930D01*
X19809700Y-11136930D02*
X19839700Y-11166930D01*
X19839700Y-11136930D02*
X19809700Y-11166930D01*
X19809700Y-11286930D02*
X19839700Y-11316930D01*
X19839700Y-11286930D02*
X19809700Y-11316930D01*
X19809700Y-11439130D02*
X19839700Y-11469130D01*
X19839700Y-11439130D02*
X19809700Y-11469130D01*
X19809700Y-11591530D02*
X19839700Y-11621530D01*
X19839700Y-11591530D02*
X19809700Y-11621530D01*
X19809700Y-11736930D02*
X19839700Y-11766930D01*
X19839700Y-11736930D02*
X19809700Y-11766930D01*
X19809700Y-12164300D02*
X19839700Y-12194300D01*
X19839700Y-12164300D02*
X19809700Y-12194300D01*
X19873200Y-10202150D02*
X19903200Y-10232150D01*
X19903200Y-10202150D02*
X19873200Y-10232150D01*
X19895700Y-10468200D02*
X19925700Y-10498200D01*
X19925700Y-10468200D02*
X19895700Y-10498200D01*
X19895700Y-10764500D02*
X19925700Y-10794500D01*
X19925700Y-10764500D02*
X19895700Y-10794500D01*
X19895700Y-11368200D02*
X19925700Y-11398200D01*
X19925700Y-11368200D02*
X19895700Y-11398200D01*
X19937970Y-10306290D02*
X19967970Y-10336290D01*
X19967970Y-10306290D02*
X19937970Y-10336290D01*
X20062430Y-10617440D02*
X20092430Y-10647440D01*
X20092430Y-10617440D02*
X20062430Y-10647440D01*
X20062430Y-10988280D02*
X20092430Y-11018280D01*
X20092430Y-10988280D02*
X20062430Y-11018280D01*
X20062480Y-10838600D02*
X20092480Y-10868600D01*
X20092480Y-10838600D02*
X20062480Y-10868600D01*
X20065020Y-10917340D02*
X20095020Y-10947340D01*
X20095020Y-10917340D02*
X20065020Y-10947340D01*
X20065100Y-10373600D02*
X20095100Y-10403600D01*
X20095100Y-10373600D02*
X20065100Y-10403600D01*
X20066240Y-11064480D02*
X20096240Y-11094480D01*
X20096240Y-11064480D02*
X20066240Y-11094480D01*
X20090370Y-10468601D02*
X20120370Y-10498601D01*
X20120370Y-10468601D02*
X20090370Y-10498601D01*
X20104340Y-10087850D02*
X20134340Y-10117850D01*
X20134340Y-10087850D02*
X20104340Y-10117850D01*
X20127200Y-12869805D02*
X20157200Y-12899805D01*
X20157200Y-12869805D02*
X20127200Y-12899805D01*
X20137000Y-10768300D02*
X20167000Y-10798300D01*
X20167000Y-10768300D02*
X20137000Y-10798300D01*
X20161490Y-10143220D02*
X20191490Y-10173220D01*
X20191490Y-10143220D02*
X20161490Y-10173220D01*
X20195880Y-12648500D02*
X20225880Y-12678500D01*
X20225880Y-12648500D02*
X20195880Y-12678500D01*
X20225900Y-10006300D02*
X20255900Y-10036300D01*
X20255900Y-10006300D02*
X20225900Y-10036300D01*
X20225900Y-10768300D02*
X20255900Y-10798300D01*
X20255900Y-10768300D02*
X20225900Y-10798300D01*
X20259380Y-12724700D02*
X20289380Y-12754700D01*
X20289380Y-12724700D02*
X20259380Y-12754700D01*
X20277592Y-11077733D02*
X20307592Y-11107733D01*
X20307592Y-11077733D02*
X20277592Y-11107733D01*
X20314800Y-9930100D02*
X20344800Y-9960100D01*
X20344800Y-9930100D02*
X20314800Y-9960100D01*
X20314800Y-10768300D02*
X20344800Y-10798300D01*
X20344800Y-10768300D02*
X20314800Y-10798300D01*
X20368500Y-11345805D02*
X20398500Y-11375805D01*
X20398500Y-11345805D02*
X20368500Y-11375805D01*
X20374801Y-10850918D02*
X20404801Y-10880918D01*
X20404801Y-10850918D02*
X20374801Y-10880918D01*
X20403700Y-9853900D02*
X20433700Y-9883900D01*
X20433700Y-9853900D02*
X20403700Y-9883900D01*
X20403700Y-10768300D02*
X20433700Y-10798300D01*
X20433700Y-10768300D02*
X20403700Y-10798300D01*
X20406600Y-12793605D02*
X20436600Y-12823605D01*
X20436600Y-12793605D02*
X20406600Y-12823605D01*
X20471420Y-10584600D02*
X20501420Y-10614600D01*
X20501420Y-10584600D02*
X20471420Y-10614600D01*
X20481580Y-11501540D02*
X20511580Y-11531540D01*
X20511580Y-11501540D02*
X20481580Y-11531540D01*
X20492201Y-10802655D02*
X20522201Y-10832655D01*
X20522201Y-10802655D02*
X20492201Y-10832655D01*
X20522170Y-11362930D02*
X20552170Y-11392930D01*
X20552170Y-11362930D02*
X20522170Y-11392930D01*
X20543437Y-10570636D02*
X20573437Y-10600636D01*
X20573437Y-10570636D02*
X20543437Y-10600636D01*
X20556100Y-10751800D02*
X20586100Y-10781800D01*
X20586100Y-10751800D02*
X20556100Y-10781800D01*
X20557724Y-11443843D02*
X20587724Y-11473843D01*
X20587724Y-11443843D02*
X20557724Y-11473843D01*
X20557724Y-11443843D02*
X20587724Y-11473843D01*
X20587724Y-11443843D02*
X20557724Y-11473843D01*
X20598370Y-11881338D02*
X20628370Y-11911338D01*
X20628370Y-11881338D02*
X20598370Y-11911338D01*
X20603500Y-10526180D02*
X20633500Y-10556180D01*
X20633500Y-10526180D02*
X20603500Y-10556180D01*
X20650429Y-11538113D02*
X20680429Y-11568113D01*
X20680429Y-11538113D02*
X20650429Y-11568113D01*
X20716130Y-11543136D02*
X20746130Y-11573136D01*
X20746130Y-11543136D02*
X20716130Y-11573136D01*
X20731720Y-10613630D02*
X20761720Y-10643630D01*
X20761720Y-10613630D02*
X20731720Y-10643630D01*
X20762200Y-10674590D02*
X20792200Y-10704590D01*
X20792200Y-10674590D02*
X20762200Y-10704590D01*
X20763470Y-11928839D02*
X20793470Y-11958839D01*
X20793470Y-11928839D02*
X20763470Y-11958839D01*
X20813677Y-11566898D02*
X20843677Y-11596898D01*
X20843677Y-11566898D02*
X20813677Y-11596898D01*
X20823160Y-11641060D02*
X20853160Y-11671060D01*
X20853160Y-11641060D02*
X20823160Y-11671060D01*
X20872690Y-10345660D02*
X20902690Y-10375660D01*
X20902690Y-10345660D02*
X20872690Y-10375660D01*
X20876878Y-11971260D02*
X20906878Y-12001260D01*
X20906878Y-11971260D02*
X20876878Y-12001260D01*
X20887930Y-10258030D02*
X20917930Y-10288030D01*
X20917930Y-10258030D02*
X20887930Y-10288030D01*
X20912239Y-10551445D02*
X20942239Y-10581445D01*
X20942239Y-10551445D02*
X20912239Y-10581445D01*
X20928620Y-11643780D02*
X20958620Y-11673780D01*
X20958620Y-11643780D02*
X20928620Y-11673780D01*
X20950919Y-11713119D02*
X20980919Y-11743119D01*
X20980919Y-11713119D02*
X20950919Y-11743119D01*
X20952239Y-10490620D02*
X20982239Y-10520620D01*
X20982239Y-10490620D02*
X20952239Y-10520620D01*
X20997200Y-12024780D02*
X21027200Y-12054780D01*
X21027200Y-12024780D02*
X20997200Y-12054780D01*
X21048000Y-11755540D02*
X21078000Y-11785540D01*
X21078000Y-11755540D02*
X21048000Y-11785540D01*
X21049781Y-10644110D02*
X21079781Y-10674110D01*
X21079781Y-10644110D02*
X21049781Y-10674110D01*
X21068320Y-11834280D02*
X21098320Y-11864280D01*
X21098320Y-11834280D02*
X21068320Y-11864280D01*
X21075890Y-10440910D02*
X21105890Y-10470910D01*
X21105890Y-10440910D02*
X21075890Y-10470910D01*
X21124398Y-10212736D02*
X21154398Y-10242736D01*
X21154398Y-10212736D02*
X21124398Y-10242736D01*
X21130500Y-12078720D02*
X21160500Y-12108720D01*
X21160500Y-12078720D02*
X21130500Y-12108720D01*
X21155900Y-10150080D02*
X21185900Y-10180080D01*
X21185900Y-10150080D02*
X21155900Y-10180080D01*
X21193655Y-10096419D02*
X21223655Y-10126419D01*
X21223655Y-10096419D02*
X21193655Y-10126419D01*
X21206700Y-12946005D02*
X21236700Y-12976005D01*
X21236700Y-12946005D02*
X21206700Y-12976005D01*
X21280000Y-10400000D02*
X21310000Y-10430000D01*
X21310000Y-10400000D02*
X21280000Y-10430000D01*
X21407000Y-11835100D02*
X21437000Y-11865100D01*
X21437000Y-11835100D02*
X21407000Y-11865100D01*
X21435300Y-11440400D02*
X21465300Y-11470400D01*
X21465300Y-11440400D02*
X21435300Y-11470400D01*
X21495900Y-9917400D02*
X21525900Y-9947400D01*
X21525900Y-9917400D02*
X21495900Y-9947400D01*
X21508189Y-10968108D02*
X21538189Y-10998108D01*
X21538189Y-10968108D02*
X21508189Y-10998108D01*
X21625800Y-10376920D02*
X21655800Y-10406920D01*
X21655800Y-10376920D02*
X21625800Y-10406920D01*
X21676600Y-10961120D02*
X21706600Y-10991120D01*
X21706600Y-10961120D02*
X21676600Y-10991120D01*
X21676600Y-11376900D02*
X21706600Y-11406900D01*
X21706600Y-11376900D02*
X21676600Y-11406900D01*
X21702000Y-11037320D02*
X21732000Y-11067320D01*
X21732000Y-11037320D02*
X21702000Y-11067320D01*
X21816300Y-11440400D02*
X21846300Y-11470400D01*
X21846300Y-11440400D02*
X21816300Y-11470400D01*
X21816300Y-11745200D02*
X21846300Y-11775200D01*
X21846300Y-11745200D02*
X21816300Y-11775200D01*
X21816300Y-11999200D02*
X21846300Y-12029200D01*
X21846300Y-11999200D02*
X21816300Y-12029200D01*
X21816300Y-12164300D02*
X21846300Y-12194300D01*
X21846300Y-12164300D02*
X21816300Y-12194300D01*
X21902300Y-11111200D02*
X21932300Y-11141200D01*
X21932300Y-11111200D02*
X21902300Y-11141200D01*
X21956000Y-10376920D02*
X21986000Y-10406920D01*
X21986000Y-10376920D02*
X21956000Y-10406920D01*
X21981400Y-10834120D02*
X22011400Y-10864120D01*
X22011400Y-10834120D02*
X21981400Y-10864120D01*
X22019500Y-10288020D02*
X22049500Y-10318020D01*
X22049500Y-10288020D02*
X22019500Y-10318020D01*
X22029300Y-11047700D02*
X22059300Y-11077700D01*
X22059300Y-11047700D02*
X22029300Y-11077700D01*
X22029300Y-11581100D02*
X22059300Y-11611100D01*
X22059300Y-11581100D02*
X22029300Y-11611100D01*
X22210000Y-10834120D02*
X22240000Y-10864120D01*
X22240000Y-10834120D02*
X22210000Y-10864120D01*
X22397600Y-11581100D02*
X22427600Y-11611100D01*
X22427600Y-11581100D02*
X22397600Y-11611100D01*
X22400500Y-10288020D02*
X22430500Y-10318020D01*
X22430500Y-10288020D02*
X22400500Y-10318020D01*
X22476700Y-9921120D02*
X22506700Y-9951120D01*
X22506700Y-9921120D02*
X22476700Y-9951120D01*
X22552900Y-10378320D02*
X22582900Y-10408320D01*
X22582900Y-10378320D02*
X22552900Y-10408320D01*
X22779492Y-10125233D02*
X22809492Y-10155233D01*
X22809492Y-10125233D02*
X22779492Y-10155233D01*
X23121500Y-10869900D02*
X23151500Y-10899900D01*
X23151500Y-10869900D02*
X23121500Y-10899900D01*
X23149800Y-11999200D02*
X23179800Y-12029200D01*
X23179800Y-11999200D02*
X23149800Y-12029200D01*
X23353000Y-10881600D02*
X23383000Y-10911600D01*
X23383000Y-10881600D02*
X23353000Y-10911600D01*
X23457518Y-10273000D02*
X23487518Y-10303000D01*
X23487518Y-10273000D02*
X23457518Y-10303000D01*
X23668492Y-10125233D02*
X23698492Y-10155233D01*
X23698492Y-10125233D02*
X23668492Y-10155233D01*
X23668492Y-12209405D02*
X23698492Y-12239405D01*
X23698492Y-12209405D02*
X23668492Y-12239405D01*
X23670880Y-14233100D02*
X23700880Y-14263100D01*
X23700880Y-14233100D02*
X23670880Y-14263100D01*
X26629980Y-12747200D02*
X26659980Y-12777200D01*
X26659980Y-12747200D02*
X26629980Y-12777200D01*
X26629980Y-9889700D02*
X26659980Y-9919700D01*
X26659980Y-9889700D02*
X26629980Y-9919700D01*
X26693480Y-9978600D02*
X26723480Y-10008600D01*
X26723480Y-9978600D02*
X26693480Y-10008600D01*
X26731580Y-12671000D02*
X26761580Y-12701000D01*
X26761580Y-12671000D02*
X26731580Y-12701000D01*
X26769680Y-10054800D02*
X26799680Y-10084800D01*
X26799680Y-10054800D02*
X26769680Y-10084800D01*
X26795080Y-12607500D02*
X26825080Y-12637500D01*
X26825080Y-12607500D02*
X26795080Y-12637500D01*
X26972500Y-12075400D02*
X27002500Y-12105400D01*
X27002500Y-12075400D02*
X26972500Y-12105400D01*
X26975799Y-11818438D02*
X27005799Y-11848438D01*
X27005799Y-11818438D02*
X26975799Y-11848438D01*
X27000440Y-10617440D02*
X27030440Y-10647440D01*
X27030440Y-10617440D02*
X27000440Y-10647440D01*
X27005520Y-10270730D02*
X27035520Y-10300730D01*
X27035520Y-10270730D02*
X27005520Y-10300730D01*
X27023300Y-12024600D02*
X27053300Y-12054600D01*
X27053300Y-12024600D02*
X27023300Y-12054600D01*
X27062600Y-10875250D02*
X27092600Y-10905250D01*
X27092600Y-10875250D02*
X27062600Y-10905250D01*
X27065210Y-10443450D02*
X27095210Y-10473450D01*
X27095210Y-10443450D02*
X27065210Y-10473450D01*
X27065260Y-11669180D02*
X27095260Y-11699180D01*
X27095260Y-11669180D02*
X27065260Y-11699180D01*
X27074100Y-11973800D02*
X27104100Y-12003800D01*
X27104100Y-11973800D02*
X27074100Y-12003800D01*
X27116010Y-10934940D02*
X27146010Y-10964940D01*
X27146010Y-10934940D02*
X27116010Y-10964940D01*
X27119820Y-11519140D02*
X27149820Y-11549140D01*
X27149820Y-11519140D02*
X27119820Y-11549140D01*
X27137599Y-11935700D02*
X27167599Y-11965700D01*
X27167599Y-11935700D02*
X27137599Y-11965700D01*
X27137600Y-10489170D02*
X27167600Y-10519170D01*
X27167600Y-10489170D02*
X27137600Y-10519170D01*
X27171890Y-11368010D02*
X27201890Y-11398010D01*
X27201890Y-11368010D02*
X27171890Y-11398010D01*
X27175700Y-11210530D02*
X27205700Y-11240530D01*
X27205700Y-11210530D02*
X27175700Y-11240530D01*
X27179510Y-10592040D02*
X27209510Y-10622040D01*
X27209510Y-10592040D02*
X27179510Y-10622040D01*
X27201099Y-11884900D02*
X27231099Y-11914900D01*
X27231099Y-11884900D02*
X27201099Y-11914900D01*
X27227499Y-10742338D02*
X27257499Y-10772338D01*
X27257499Y-10742338D02*
X27227499Y-10772338D01*
X27227499Y-11067020D02*
X27257499Y-11097020D01*
X27257499Y-11067020D02*
X27227499Y-11097020D01*
X27227499Y-11258030D02*
X27257499Y-11288030D01*
X27257499Y-11258030D02*
X27227499Y-11288030D01*
X27290000Y-10386930D02*
X27320000Y-10416930D01*
X27320000Y-10386930D02*
X27290000Y-10416930D01*
X27290000Y-10537430D02*
X27320000Y-10567430D01*
X27320000Y-10537430D02*
X27290000Y-10567430D01*
X27290000Y-10689830D02*
X27320000Y-10719830D01*
X27320000Y-10689830D02*
X27290000Y-10719830D01*
X27290000Y-10842230D02*
X27320000Y-10872230D01*
X27320000Y-10842230D02*
X27290000Y-10872230D01*
X27290000Y-10986930D02*
X27320000Y-11016930D01*
X27320000Y-10986930D02*
X27290000Y-11016930D01*
X27290000Y-11136930D02*
X27320000Y-11166930D01*
X27320000Y-11136930D02*
X27290000Y-11166930D01*
X27290000Y-11286930D02*
X27320000Y-11316930D01*
X27320000Y-11286930D02*
X27290000Y-11316930D01*
X27290000Y-11439130D02*
X27320000Y-11469130D01*
X27320000Y-11439130D02*
X27290000Y-11469130D01*
X27290000Y-11591530D02*
X27320000Y-11621530D01*
X27320000Y-11591530D02*
X27290000Y-11621530D01*
X27290000Y-11736930D02*
X27320000Y-11766930D01*
X27320000Y-11736930D02*
X27290000Y-11766930D01*
X27290000Y-12164300D02*
X27320000Y-12194300D01*
X27320000Y-12164300D02*
X27290000Y-12194300D01*
X27353500Y-10202150D02*
X27383500Y-10232150D01*
X27383500Y-10202150D02*
X27353500Y-10232150D01*
X27376000Y-10468200D02*
X27406000Y-10498200D01*
X27406000Y-10468200D02*
X27376000Y-10498200D01*
X27376000Y-10764500D02*
X27406000Y-10794500D01*
X27406000Y-10764500D02*
X27376000Y-10794500D01*
X27376000Y-11368200D02*
X27406000Y-11398200D01*
X27406000Y-11368200D02*
X27376000Y-11398200D01*
X27418270Y-10306290D02*
X27448270Y-10336290D01*
X27448270Y-10306290D02*
X27418270Y-10336290D01*
X27542730Y-10617440D02*
X27572730Y-10647440D01*
X27572730Y-10617440D02*
X27542730Y-10647440D01*
X27542730Y-10988280D02*
X27572730Y-11018280D01*
X27572730Y-10988280D02*
X27542730Y-11018280D01*
X27542780Y-10838600D02*
X27572780Y-10868600D01*
X27572780Y-10838600D02*
X27542780Y-10868600D01*
X27544380Y-10372300D02*
X27574380Y-10402300D01*
X27574380Y-10372300D02*
X27544380Y-10402300D01*
X27545320Y-10917340D02*
X27575320Y-10947340D01*
X27575320Y-10917340D02*
X27545320Y-10947340D01*
X27546540Y-11064480D02*
X27576540Y-11094480D01*
X27576540Y-11064480D02*
X27546540Y-11094480D01*
X27570670Y-10468601D02*
X27600670Y-10498601D01*
X27600670Y-10468601D02*
X27570670Y-10498601D01*
X27584640Y-10087850D02*
X27614640Y-10117850D01*
X27614640Y-10087850D02*
X27584640Y-10117850D01*
X27617300Y-10768300D02*
X27647300Y-10798300D01*
X27647300Y-10768300D02*
X27617300Y-10798300D01*
X27620200Y-12869805D02*
X27650200Y-12899805D01*
X27650200Y-12869805D02*
X27620200Y-12899805D01*
X27641790Y-10143220D02*
X27671790Y-10173220D01*
X27671790Y-10143220D02*
X27641790Y-10173220D01*
X27676180Y-12381800D02*
X27706180Y-12411800D01*
X27706180Y-12381800D02*
X27676180Y-12411800D01*
X27706200Y-10006300D02*
X27736200Y-10036300D01*
X27736200Y-10006300D02*
X27706200Y-10036300D01*
X27706200Y-10768300D02*
X27736200Y-10798300D01*
X27736200Y-10768300D02*
X27706200Y-10798300D01*
X27739680Y-12445300D02*
X27769680Y-12475300D01*
X27769680Y-12445300D02*
X27739680Y-12475300D01*
X27757892Y-11077733D02*
X27787892Y-11107733D01*
X27787892Y-11077733D02*
X27757892Y-11107733D01*
X27795100Y-9930100D02*
X27825100Y-9960100D01*
X27825100Y-9930100D02*
X27795100Y-9960100D01*
X27795100Y-10768300D02*
X27825100Y-10798300D01*
X27825100Y-10768300D02*
X27795100Y-10798300D01*
X27848800Y-11345804D02*
X27878800Y-11375804D01*
X27878800Y-11345804D02*
X27848800Y-11375804D01*
X27855101Y-10850918D02*
X27885101Y-10880918D01*
X27885101Y-10850918D02*
X27855101Y-10880918D01*
X27884000Y-9853900D02*
X27914000Y-9883900D01*
X27914000Y-9853900D02*
X27884000Y-9883900D01*
X27884000Y-10768300D02*
X27914000Y-10798300D01*
X27914000Y-10768300D02*
X27884000Y-10798300D01*
X27886900Y-12526905D02*
X27916900Y-12556905D01*
X27916900Y-12526905D02*
X27886900Y-12556905D01*
X27951720Y-10584600D02*
X27981720Y-10614600D01*
X27981720Y-10584600D02*
X27951720Y-10614600D01*
X27961880Y-11501540D02*
X27991880Y-11531540D01*
X27991880Y-11501540D02*
X27961880Y-11531540D01*
X27972501Y-10802655D02*
X28002501Y-10832655D01*
X28002501Y-10802655D02*
X27972501Y-10832655D01*
X28002470Y-11362930D02*
X28032470Y-11392930D01*
X28032470Y-11362930D02*
X28002470Y-11392930D01*
X28023737Y-10570636D02*
X28053737Y-10600636D01*
X28053737Y-10570636D02*
X28023737Y-10600636D01*
X28036400Y-10751800D02*
X28066400Y-10781800D01*
X28066400Y-10751800D02*
X28036400Y-10781800D01*
X28038024Y-11443843D02*
X28068024Y-11473843D01*
X28068024Y-11443843D02*
X28038024Y-11473843D01*
X28038024Y-11443843D02*
X28068024Y-11473843D01*
X28068024Y-11443843D02*
X28038024Y-11473843D01*
X28078670Y-11881338D02*
X28108670Y-11911338D01*
X28108670Y-11881338D02*
X28078670Y-11911338D01*
X28083800Y-10526180D02*
X28113800Y-10556180D01*
X28113800Y-10526180D02*
X28083800Y-10556180D01*
X28130729Y-11538113D02*
X28160729Y-11568113D01*
X28160729Y-11538113D02*
X28130729Y-11568113D01*
X28196430Y-11543136D02*
X28226430Y-11573136D01*
X28226430Y-11543136D02*
X28196430Y-11573136D01*
X28212020Y-10613630D02*
X28242020Y-10643630D01*
X28242020Y-10613630D02*
X28212020Y-10643630D01*
X28242500Y-10674590D02*
X28272500Y-10704590D01*
X28272500Y-10674590D02*
X28242500Y-10704590D01*
X28243770Y-11928839D02*
X28273770Y-11958839D01*
X28273770Y-11928839D02*
X28243770Y-11958839D01*
X28293977Y-11566898D02*
X28323977Y-11596898D01*
X28323977Y-11566898D02*
X28293977Y-11596898D01*
X28303460Y-11641060D02*
X28333460Y-11671060D01*
X28333460Y-11641060D02*
X28303460Y-11671060D01*
X28352990Y-10345660D02*
X28382990Y-10375660D01*
X28382990Y-10345660D02*
X28352990Y-10375660D01*
X28357178Y-11971260D02*
X28387178Y-12001260D01*
X28387178Y-11971260D02*
X28357178Y-12001260D01*
X28368230Y-10258030D02*
X28398230Y-10288030D01*
X28398230Y-10258030D02*
X28368230Y-10288030D01*
X28392539Y-10551445D02*
X28422539Y-10581445D01*
X28422539Y-10551445D02*
X28392539Y-10581445D01*
X28408920Y-11643780D02*
X28438920Y-11673780D01*
X28438920Y-11643780D02*
X28408920Y-11673780D01*
X28431219Y-11713119D02*
X28461219Y-11743119D01*
X28461219Y-11713119D02*
X28431219Y-11743119D01*
X28432539Y-10490620D02*
X28462539Y-10520620D01*
X28462539Y-10490620D02*
X28432539Y-10520620D01*
X28477500Y-12024780D02*
X28507500Y-12054780D01*
X28507500Y-12024780D02*
X28477500Y-12054780D01*
X28528300Y-11755540D02*
X28558300Y-11785540D01*
X28558300Y-11755540D02*
X28528300Y-11785540D01*
X28530081Y-10644110D02*
X28560081Y-10674110D01*
X28560081Y-10644110D02*
X28530081Y-10674110D01*
X28548620Y-11834280D02*
X28578620Y-11864280D01*
X28578620Y-11834280D02*
X28548620Y-11864280D01*
X28556190Y-10440910D02*
X28586190Y-10470910D01*
X28586190Y-10440910D02*
X28556190Y-10470910D01*
X28604698Y-10212736D02*
X28634698Y-10242736D01*
X28634698Y-10212736D02*
X28604698Y-10242736D01*
X28610800Y-12078720D02*
X28640800Y-12108720D01*
X28640800Y-12078720D02*
X28610800Y-12108720D01*
X28636200Y-10150080D02*
X28666200Y-10180080D01*
X28666200Y-10150080D02*
X28636200Y-10180080D01*
X28673955Y-10096419D02*
X28703955Y-10126419D01*
X28703955Y-10096419D02*
X28673955Y-10126419D01*
X28687000Y-12946005D02*
X28717000Y-12976005D01*
X28717000Y-12946005D02*
X28687000Y-12976005D01*
X28760300Y-10400000D02*
X28790300Y-10430000D01*
X28790300Y-10400000D02*
X28760300Y-10430000D01*
X28887300Y-11835100D02*
X28917300Y-11865100D01*
X28917300Y-11835100D02*
X28887300Y-11865100D01*
X28915600Y-11440400D02*
X28945600Y-11470400D01*
X28945600Y-11440400D02*
X28915600Y-11470400D01*
X28976200Y-9917400D02*
X29006200Y-9947400D01*
X29006200Y-9917400D02*
X28976200Y-9947400D01*
X28988489Y-10968108D02*
X29018489Y-10998108D01*
X29018489Y-10968108D02*
X28988489Y-10998108D01*
X29106100Y-10376920D02*
X29136100Y-10406920D01*
X29136100Y-10376920D02*
X29106100Y-10406920D01*
X29156900Y-10961120D02*
X29186900Y-10991120D01*
X29186900Y-10961120D02*
X29156900Y-10991120D01*
X29156900Y-11376900D02*
X29186900Y-11406900D01*
X29186900Y-11376900D02*
X29156900Y-11406900D01*
X29182300Y-11037320D02*
X29212300Y-11067320D01*
X29212300Y-11037320D02*
X29182300Y-11067320D01*
X29296600Y-11440400D02*
X29326600Y-11470400D01*
X29326600Y-11440400D02*
X29296600Y-11470400D01*
X29296600Y-11745200D02*
X29326600Y-11775200D01*
X29326600Y-11745200D02*
X29296600Y-11775200D01*
X29296600Y-11999200D02*
X29326600Y-12029200D01*
X29326600Y-11999200D02*
X29296600Y-12029200D01*
X29296600Y-12164300D02*
X29326600Y-12194300D01*
X29326600Y-12164300D02*
X29296600Y-12194300D01*
X29382600Y-11111200D02*
X29412600Y-11141200D01*
X29412600Y-11111200D02*
X29382600Y-11141200D01*
X29436300Y-10376920D02*
X29466300Y-10406920D01*
X29466300Y-10376920D02*
X29436300Y-10406920D01*
X29461700Y-10834120D02*
X29491700Y-10864120D01*
X29491700Y-10834120D02*
X29461700Y-10864120D01*
X29499800Y-10288020D02*
X29529800Y-10318020D01*
X29529800Y-10288020D02*
X29499800Y-10318020D01*
X29509600Y-11047700D02*
X29539600Y-11077700D01*
X29539600Y-11047700D02*
X29509600Y-11077700D01*
X29509600Y-11581100D02*
X29539600Y-11611100D01*
X29539600Y-11581100D02*
X29509600Y-11611100D01*
X29690300Y-10834120D02*
X29720300Y-10864120D01*
X29720300Y-10834120D02*
X29690300Y-10864120D01*
X29877900Y-11581100D02*
X29907900Y-11611100D01*
X29907900Y-11581100D02*
X29877900Y-11611100D01*
X29880800Y-10288020D02*
X29910800Y-10318020D01*
X29910800Y-10288020D02*
X29880800Y-10318020D01*
X29957000Y-9921120D02*
X29987000Y-9951120D01*
X29987000Y-9921120D02*
X29957000Y-9951120D01*
X30033200Y-10378320D02*
X30063200Y-10408320D01*
X30063200Y-10378320D02*
X30033200Y-10408320D01*
X30259792Y-10125233D02*
X30289792Y-10155233D01*
X30289792Y-10125233D02*
X30259792Y-10155233D01*
X30406680Y-12331001D02*
X30436680Y-12361001D01*
X30436680Y-12331001D02*
X30406680Y-12361001D01*
X30406680Y-13238105D02*
X30436680Y-13268105D01*
X30436680Y-13238105D02*
X30406680Y-13268105D01*
X30520980Y-12445301D02*
X30550980Y-12475301D01*
X30550980Y-12445301D02*
X30520980Y-12475301D01*
X30520980Y-13308900D02*
X30550980Y-13338900D01*
X30550980Y-13308900D02*
X30520980Y-13338900D01*
X30601800Y-10869900D02*
X30631800Y-10899900D01*
X30631800Y-10869900D02*
X30601800Y-10899900D01*
X30630100Y-11999200D02*
X30660100Y-12029200D01*
X30660100Y-11999200D02*
X30630100Y-12029200D01*
X30653384Y-12539605D02*
X30683384Y-12569605D01*
X30683384Y-12539605D02*
X30653384Y-12569605D01*
X30653384Y-13377805D02*
X30683384Y-13407805D01*
X30683384Y-13377805D02*
X30653384Y-13407805D01*
X30833300Y-10881600D02*
X30863300Y-10911600D01*
X30863300Y-10881600D02*
X30833300Y-10911600D01*
X30909880Y-14207700D02*
X30939880Y-14237700D01*
X30939880Y-14207700D02*
X30909880Y-14237700D01*
X30937818Y-10273000D02*
X30967818Y-10303000D01*
X30967818Y-10273000D02*
X30937818Y-10303000D01*
X31136092Y-13379812D02*
X31166092Y-13409812D01*
X31166092Y-13379812D02*
X31136092Y-13409812D01*
X31148684Y-12184005D02*
X31178684Y-12214005D01*
X31178684Y-12184005D02*
X31148684Y-12214005D01*
X31148792Y-10125233D02*
X31178792Y-10155233D01*
X31178792Y-10125233D02*
X31148792Y-10155233D01*
X31468300Y-9948804D02*
X31498300Y-9978804D01*
X31498300Y-9948804D02*
X31468300Y-9978804D01*
X31557580Y-10011925D02*
X31587580Y-10041925D01*
X31587580Y-10011925D02*
X31557580Y-10041925D01*
X31646100Y-10075805D02*
X31676100Y-10105805D01*
X31676100Y-10075805D02*
X31646100Y-10105805D01*
X31976300Y-12075400D02*
X32006300Y-12105400D01*
X32006300Y-12075400D02*
X31976300Y-12105400D01*
X31979599Y-11818438D02*
X32009599Y-11848438D01*
X32009599Y-11818438D02*
X31979599Y-11848438D01*
X32004240Y-10617440D02*
X32034240Y-10647440D01*
X32034240Y-10617440D02*
X32004240Y-10647440D01*
X32009320Y-10270730D02*
X32039320Y-10300730D01*
X32039320Y-10270730D02*
X32009320Y-10300730D01*
X32027100Y-12024600D02*
X32057100Y-12054600D01*
X32057100Y-12024600D02*
X32027100Y-12054600D01*
X32037684Y-12412605D02*
X32067684Y-12442605D01*
X32067684Y-12412605D02*
X32037684Y-12442605D01*
X32066400Y-10875250D02*
X32096400Y-10905250D01*
X32096400Y-10875250D02*
X32066400Y-10905250D01*
X32069010Y-10443450D02*
X32099010Y-10473450D01*
X32099010Y-10443450D02*
X32069010Y-10473450D01*
X32069060Y-11669180D02*
X32099060Y-11699180D01*
X32099060Y-11669180D02*
X32069060Y-11699180D01*
X32077900Y-11973800D02*
X32107900Y-12003800D01*
X32107900Y-11973800D02*
X32077900Y-12003800D01*
X32119810Y-10934940D02*
X32149810Y-10964940D01*
X32149810Y-10934940D02*
X32119810Y-10964940D01*
X32123620Y-11519140D02*
X32153620Y-11549140D01*
X32153620Y-11519140D02*
X32123620Y-11549140D01*
X32141399Y-11935700D02*
X32171399Y-11965700D01*
X32171399Y-11935700D02*
X32141399Y-11965700D01*
X32141400Y-10489170D02*
X32171400Y-10519170D01*
X32171400Y-10489170D02*
X32141400Y-10519170D01*
X32175690Y-11368010D02*
X32205690Y-11398010D01*
X32205690Y-11368010D02*
X32175690Y-11398010D01*
X32179500Y-11210530D02*
X32209500Y-11240530D01*
X32209500Y-11210530D02*
X32179500Y-11240530D01*
X32183310Y-10592040D02*
X32213310Y-10622040D01*
X32213310Y-10592040D02*
X32183310Y-10622040D01*
X32204899Y-11884900D02*
X32234899Y-11914900D01*
X32234899Y-11884900D02*
X32204899Y-11914900D01*
X32231299Y-10742338D02*
X32261299Y-10772338D01*
X32261299Y-10742338D02*
X32231299Y-10772338D01*
X32231299Y-11067020D02*
X32261299Y-11097020D01*
X32261299Y-11067020D02*
X32231299Y-11097020D01*
X32231299Y-11258030D02*
X32261299Y-11288030D01*
X32261299Y-11258030D02*
X32231299Y-11288030D01*
X32253584Y-12311005D02*
X32283584Y-12341005D01*
X32283584Y-12311005D02*
X32253584Y-12341005D01*
X32293800Y-10386930D02*
X32323800Y-10416930D01*
X32323800Y-10386930D02*
X32293800Y-10416930D01*
X32293800Y-10537430D02*
X32323800Y-10567430D01*
X32323800Y-10537430D02*
X32293800Y-10567430D01*
X32293800Y-10689830D02*
X32323800Y-10719830D01*
X32323800Y-10689830D02*
X32293800Y-10719830D01*
X32293800Y-10842230D02*
X32323800Y-10872230D01*
X32323800Y-10842230D02*
X32293800Y-10872230D01*
X32293800Y-10986930D02*
X32323800Y-11016930D01*
X32323800Y-10986930D02*
X32293800Y-11016930D01*
X32293800Y-11136930D02*
X32323800Y-11166930D01*
X32323800Y-11136930D02*
X32293800Y-11166930D01*
X32293800Y-11286930D02*
X32323800Y-11316930D01*
X32323800Y-11286930D02*
X32293800Y-11316930D01*
X32293800Y-11439130D02*
X32323800Y-11469130D01*
X32323800Y-11439130D02*
X32293800Y-11469130D01*
X32293800Y-11591530D02*
X32323800Y-11621530D01*
X32323800Y-11591530D02*
X32293800Y-11621530D01*
X32293800Y-11736930D02*
X32323800Y-11766930D01*
X32323800Y-11736930D02*
X32293800Y-11766930D01*
X32293800Y-12164300D02*
X32323800Y-12194300D01*
X32323800Y-12164300D02*
X32293800Y-12194300D01*
X32357300Y-10202150D02*
X32387300Y-10232150D01*
X32387300Y-10202150D02*
X32357300Y-10232150D01*
X32379800Y-10468200D02*
X32409800Y-10498200D01*
X32409800Y-10468200D02*
X32379800Y-10498200D01*
X32379800Y-10764500D02*
X32409800Y-10794500D01*
X32409800Y-10764500D02*
X32379800Y-10794500D01*
X32379800Y-11368200D02*
X32409800Y-11398200D01*
X32409800Y-11368200D02*
X32379800Y-11398200D01*
X32422070Y-10306290D02*
X32452070Y-10336290D01*
X32452070Y-10306290D02*
X32422070Y-10336290D01*
X32469484Y-12514205D02*
X32499484Y-12544205D01*
X32499484Y-12514205D02*
X32469484Y-12544205D01*
X32546530Y-10617440D02*
X32576530Y-10647440D01*
X32576530Y-10617440D02*
X32546530Y-10647440D01*
X32546530Y-10988280D02*
X32576530Y-11018280D01*
X32576530Y-10988280D02*
X32546530Y-11018280D01*
X32546580Y-10838600D02*
X32576580Y-10868600D01*
X32576580Y-10838600D02*
X32546580Y-10868600D01*
X32549120Y-10917340D02*
X32579120Y-10947340D01*
X32579120Y-10917340D02*
X32549120Y-10947340D01*
X32549200Y-10373600D02*
X32579200Y-10403600D01*
X32579200Y-10373600D02*
X32549200Y-10403600D01*
X32550340Y-11064480D02*
X32580340Y-11094480D01*
X32580340Y-11064480D02*
X32550340Y-11094480D01*
X32574470Y-10468601D02*
X32604470Y-10498601D01*
X32604470Y-10468601D02*
X32574470Y-10498601D01*
X32588440Y-10087850D02*
X32618440Y-10117850D01*
X32618440Y-10087850D02*
X32588440Y-10117850D01*
X32611300Y-12869804D02*
X32641300Y-12899804D01*
X32641300Y-12869804D02*
X32611300Y-12899804D01*
X32621100Y-10768300D02*
X32651100Y-10798300D01*
X32651100Y-10768300D02*
X32621100Y-10798300D01*
X32645590Y-10143220D02*
X32675590Y-10173220D01*
X32675590Y-10143220D02*
X32645590Y-10173220D01*
X32662101Y-10012305D02*
X32692101Y-10042305D01*
X32692101Y-10012305D02*
X32662101Y-10042305D01*
X32679980Y-12597700D02*
X32709980Y-12627700D01*
X32709980Y-12597700D02*
X32679980Y-12627700D01*
X32710000Y-10768300D02*
X32740000Y-10798300D01*
X32740000Y-10768300D02*
X32710000Y-10798300D01*
X32743480Y-12673900D02*
X32773480Y-12703900D01*
X32773480Y-12673900D02*
X32743480Y-12703900D01*
X32760801Y-9882405D02*
X32790801Y-9912405D01*
X32790801Y-9882405D02*
X32760801Y-9912405D01*
X32761692Y-11077733D02*
X32791692Y-11107733D01*
X32791692Y-11077733D02*
X32761692Y-11107733D01*
X32798900Y-10768300D02*
X32828900Y-10798300D01*
X32828900Y-10768300D02*
X32798900Y-10798300D01*
X32827200Y-12869804D02*
X32857200Y-12899804D01*
X32857200Y-12869804D02*
X32827200Y-12899804D01*
X32852600Y-11345805D02*
X32882600Y-11375805D01*
X32882600Y-11345805D02*
X32852600Y-11375805D01*
X32858901Y-10850918D02*
X32888901Y-10880918D01*
X32888901Y-10850918D02*
X32858901Y-10880918D01*
X32865299Y-9948805D02*
X32895299Y-9978805D01*
X32895299Y-9948805D02*
X32865299Y-9978805D01*
X32878000Y-12750100D02*
X32908000Y-12780100D01*
X32908000Y-12750100D02*
X32878000Y-12780100D01*
X32887800Y-10768300D02*
X32917800Y-10798300D01*
X32917800Y-10768300D02*
X32887800Y-10798300D01*
X32955520Y-10584600D02*
X32985520Y-10614600D01*
X32985520Y-10584600D02*
X32955520Y-10614600D01*
X32965680Y-11501540D02*
X32995680Y-11531540D01*
X32995680Y-11501540D02*
X32965680Y-11531540D01*
X32976301Y-10802655D02*
X33006301Y-10832655D01*
X33006301Y-10802655D02*
X32976301Y-10832655D01*
X33006270Y-11362930D02*
X33036270Y-11392930D01*
X33036270Y-11362930D02*
X33006270Y-11392930D01*
X33027537Y-10570636D02*
X33057537Y-10600636D01*
X33057537Y-10570636D02*
X33027537Y-10600636D01*
X33040200Y-10751800D02*
X33070200Y-10781800D01*
X33070200Y-10751800D02*
X33040200Y-10781800D01*
X33041824Y-11443843D02*
X33071824Y-11473843D01*
X33071824Y-11443843D02*
X33041824Y-11473843D01*
X33041824Y-11443843D02*
X33071824Y-11473843D01*
X33071824Y-11443843D02*
X33041824Y-11473843D01*
X33081200Y-12946005D02*
X33111200Y-12976005D01*
X33111200Y-12946005D02*
X33081200Y-12976005D01*
X33082470Y-11881338D02*
X33112470Y-11911338D01*
X33112470Y-11881338D02*
X33082470Y-11911338D01*
X33087600Y-10526180D02*
X33117600Y-10556180D01*
X33117600Y-10526180D02*
X33087600Y-10556180D01*
X33134529Y-11538113D02*
X33164529Y-11568113D01*
X33164529Y-11538113D02*
X33134529Y-11568113D01*
X33200230Y-11543136D02*
X33230230Y-11573136D01*
X33230230Y-11543136D02*
X33200230Y-11573136D01*
X33215820Y-10613630D02*
X33245820Y-10643630D01*
X33245820Y-10613630D02*
X33215820Y-10643630D01*
X33246300Y-10674590D02*
X33276300Y-10704590D01*
X33276300Y-10674590D02*
X33246300Y-10704590D01*
X33247570Y-11928839D02*
X33277570Y-11958839D01*
X33277570Y-11928839D02*
X33247570Y-11958839D01*
X33297777Y-11566898D02*
X33327777Y-11596898D01*
X33327777Y-11566898D02*
X33297777Y-11596898D01*
X33307260Y-11641060D02*
X33337260Y-11671060D01*
X33337260Y-11641060D02*
X33307260Y-11671060D01*
X33335200Y-12806305D02*
X33365200Y-12836305D01*
X33365200Y-12806305D02*
X33335200Y-12836305D01*
X33356790Y-10345660D02*
X33386790Y-10375660D01*
X33386790Y-10345660D02*
X33356790Y-10375660D01*
X33360978Y-11971260D02*
X33390978Y-12001260D01*
X33390978Y-11971260D02*
X33360978Y-12001260D01*
X33372030Y-10258030D02*
X33402030Y-10288030D01*
X33402030Y-10258030D02*
X33372030Y-10288030D01*
X33396339Y-10551445D02*
X33426339Y-10581445D01*
X33426339Y-10551445D02*
X33396339Y-10581445D01*
X33412720Y-11643780D02*
X33442720Y-11673780D01*
X33442720Y-11643780D02*
X33412720Y-11673780D01*
X33435019Y-11713119D02*
X33465019Y-11743119D01*
X33465019Y-11713119D02*
X33435019Y-11743119D01*
X33436339Y-10490620D02*
X33466339Y-10520620D01*
X33466339Y-10490620D02*
X33436339Y-10520620D01*
X33481300Y-12024780D02*
X33511300Y-12054780D01*
X33511300Y-12024780D02*
X33481300Y-12054780D01*
X33532100Y-11755540D02*
X33562100Y-11785540D01*
X33562100Y-11755540D02*
X33532100Y-11785540D01*
X33533881Y-10644110D02*
X33563881Y-10674110D01*
X33563881Y-10644110D02*
X33533881Y-10674110D01*
X33552420Y-11834280D02*
X33582420Y-11864280D01*
X33582420Y-11834280D02*
X33552420Y-11864280D01*
X33559990Y-10440910D02*
X33589990Y-10470910D01*
X33589990Y-10440910D02*
X33559990Y-10470910D01*
X33608498Y-10212736D02*
X33638498Y-10242736D01*
X33638498Y-10212736D02*
X33608498Y-10242736D01*
X33614600Y-12078720D02*
X33644600Y-12108720D01*
X33644600Y-12078720D02*
X33614600Y-12108720D01*
X33640000Y-10150080D02*
X33670000Y-10180080D01*
X33670000Y-10150080D02*
X33640000Y-10180080D01*
X33677755Y-10096419D02*
X33707755Y-10126419D01*
X33707755Y-10096419D02*
X33677755Y-10126419D01*
X33690797Y-12946005D02*
X33720797Y-12976005D01*
X33720797Y-12946005D02*
X33690797Y-12976005D01*
X33764100Y-10400000D02*
X33794100Y-10430000D01*
X33794100Y-10400000D02*
X33764100Y-10430000D01*
X33798897Y-13314305D02*
X33828897Y-13344305D01*
X33828897Y-13314305D02*
X33798897Y-13344305D01*
X33891100Y-11835100D02*
X33921100Y-11865100D01*
X33921100Y-11835100D02*
X33891100Y-11865100D01*
X33919400Y-11440400D02*
X33949400Y-11470400D01*
X33949400Y-11440400D02*
X33919400Y-11470400D01*
X33980000Y-9917400D02*
X34010000Y-9947400D01*
X34010000Y-9917400D02*
X33980000Y-9947400D01*
X33992289Y-10968108D02*
X34022289Y-10998108D01*
X34022289Y-10968108D02*
X33992289Y-10998108D01*
X34109900Y-10376920D02*
X34139900Y-10406920D01*
X34139900Y-10376920D02*
X34109900Y-10406920D01*
X34160700Y-10961120D02*
X34190700Y-10991120D01*
X34190700Y-10961120D02*
X34160700Y-10991120D01*
X34160700Y-11376900D02*
X34190700Y-11406900D01*
X34190700Y-11376900D02*
X34160700Y-11406900D01*
X34186100Y-11037320D02*
X34216100Y-11067320D01*
X34216100Y-11037320D02*
X34186100Y-11067320D01*
X34224200Y-13314305D02*
X34254200Y-13344305D01*
X34254200Y-13314305D02*
X34224200Y-13344305D01*
X34300400Y-11440400D02*
X34330400Y-11470400D01*
X34330400Y-11440400D02*
X34300400Y-11470400D01*
X34300400Y-11745200D02*
X34330400Y-11775200D01*
X34330400Y-11745200D02*
X34300400Y-11775200D01*
X34300400Y-12164300D02*
X34330400Y-12194300D01*
X34330400Y-12164300D02*
X34300400Y-12194300D01*
X34300780Y-11999200D02*
X34330780Y-12029200D01*
X34330780Y-11999200D02*
X34300780Y-12029200D01*
X34386400Y-11111200D02*
X34416400Y-11141200D01*
X34416400Y-11111200D02*
X34386400Y-11141200D01*
X34440100Y-10376920D02*
X34470100Y-10406920D01*
X34470100Y-10376920D02*
X34440100Y-10406920D01*
X34465500Y-10834120D02*
X34495500Y-10864120D01*
X34495500Y-10834120D02*
X34465500Y-10864120D01*
X34503600Y-10288020D02*
X34533600Y-10318020D01*
X34533600Y-10288020D02*
X34503600Y-10318020D01*
X34513400Y-11047700D02*
X34543400Y-11077700D01*
X34543400Y-11047700D02*
X34513400Y-11077700D01*
X34513400Y-11581100D02*
X34543400Y-11611100D01*
X34543400Y-11581100D02*
X34513400Y-11611100D01*
X34694100Y-10834120D02*
X34724100Y-10864120D01*
X34724100Y-10834120D02*
X34694100Y-10864120D01*
X34881700Y-11581100D02*
X34911700Y-11611100D01*
X34911700Y-11581100D02*
X34881700Y-11611100D01*
X34884600Y-10288020D02*
X34914600Y-10318020D01*
X34914600Y-10288020D02*
X34884600Y-10318020D01*
X34960800Y-9921120D02*
X34990800Y-9951120D01*
X34990800Y-9921120D02*
X34960800Y-9951120D01*
X35011600Y-13187305D02*
X35041600Y-13217305D01*
X35041600Y-13187305D02*
X35011600Y-13217305D01*
X35037000Y-10378320D02*
X35067000Y-10408320D01*
X35067000Y-10378320D02*
X35037000Y-10408320D01*
X35263592Y-10125233D02*
X35293592Y-10155233D01*
X35293592Y-10125233D02*
X35263592Y-10155233D01*
X35605600Y-10869900D02*
X35635600Y-10899900D01*
X35635600Y-10869900D02*
X35605600Y-10899900D01*
X35633900Y-11999200D02*
X35663900Y-12029200D01*
X35663900Y-11999200D02*
X35633900Y-12029200D01*
X35837100Y-10881600D02*
X35867100Y-10911600D01*
X35867100Y-10881600D02*
X35837100Y-10911600D01*
X35941618Y-10273000D02*
X35971618Y-10303000D01*
X35971618Y-10273000D02*
X35941618Y-10303000D01*
X36152592Y-10125233D02*
X36182592Y-10155233D01*
X36182592Y-10125233D02*
X36152592Y-10155233D01*
X36154600Y-12806305D02*
X36184600Y-12836305D01*
X36184600Y-12806305D02*
X36154600Y-12836305D01*
X10408980Y-11073100D02*
G75*
G03X10408980Y-11073100I-20000J0D01*
G01*
X11272580Y-8802700D02*
G75*
G03X11272580Y-8802700I-20000J0D01*
G01*
X11285280Y-14070300D02*
G75*
G03X11285280Y-14070300I-20000J0D01*
G01*
X15742980Y-12292300D02*
G75*
G03X15742980Y-12292300I-20000J0D01*
G01*
X16949480Y-13625800D02*
G75*
G03X16949480Y-13625800I-20000J0D01*
G01*
X16962180Y-12393900D02*
G75*
G03X16962180Y-12393900I-20000J0D01*
G01*
X16962180Y-13117800D02*
G75*
G03X16962180Y-13117800I-20000J0D01*
G01*
X17622580Y-10641300D02*
G75*
G03X17622580Y-10641300I-20000J0D01*
G01*
X17731096Y-8802700D02*
G75*
G03X17731096Y-8802700I-20000J0D01*
G01*
X17736880Y-14070300D02*
G75*
G03X17736880Y-14070300I-20000J0D01*
G01*
X19565680Y-13117800D02*
G75*
G03X19565680Y-13117800I-20000J0D01*
G01*
X19578380Y-13625800D02*
G75*
G03X19578380Y-13625800I-20000J0D01*
G01*
X20695980Y-12698700D02*
G75*
G03X20695980Y-12698700I-20000J0D01*
G01*
X20911880Y-12292300D02*
G75*
G03X20911880Y-12292300I-20000J0D01*
G01*
X22423180Y-8802700D02*
G75*
G03X22423180Y-8802700I-20000J0D01*
G01*
X22626380Y-10654000D02*
G75*
G03X22626380Y-10654000I-20000J0D01*
G01*
X23870980Y-13117800D02*
G75*
G03X23870980Y-13117800I-20000J0D01*
G01*
X23870980Y-13625800D02*
G75*
G03X23870980Y-13625800I-20000J0D01*
G01*
X23909080Y-12711400D02*
G75*
G03X23909080Y-12711400I-20000J0D01*
G01*
X25318780Y-8802700D02*
G75*
G03X25318780Y-8802700I-20000J0D01*
G01*
X25318780Y-13625800D02*
G75*
G03X25318780Y-13625800I-20000J0D01*
G01*
X26525280Y-12698700D02*
G75*
G03X26525280Y-12698700I-20000J0D01*
G01*
X27490480Y-13117800D02*
G75*
G03X27490480Y-13117800I-20000J0D01*
G01*
X27490480Y-13625800D02*
G75*
G03X27490480Y-13625800I-20000J0D01*
G01*
X28379480Y-12292300D02*
G75*
G03X28379480Y-12292300I-20000J0D01*
G01*
X29636780Y-12444700D02*
G75*
G03X29636780Y-12444700I-20000J0D01*
G01*
X29636780Y-13117800D02*
G75*
G03X29636780Y-13117800I-20000J0D01*
G01*
X29636780Y-13625800D02*
G75*
G03X29636780Y-13625800I-20000J0D01*
G01*
X29643695Y-8802700D02*
G75*
G03X29643695Y-8802700I-20000J0D01*
G01*
X30119380Y-10641300D02*
G75*
G03X30119380Y-10641300I-20000J0D01*
G01*
X31833880Y-12000200D02*
G75*
G03X31833880Y-12000200I-20000J0D01*
G01*
X33332480Y-12292300D02*
G75*
G03X33332480Y-12292300I-20000J0D01*
G01*
X33383280Y-14171900D02*
G75*
G03X33383280Y-14171900I-20000J0D01*
G01*
X34063296Y-8802700D02*
G75*
G03X34063296Y-8802700I-20000J0D01*
G01*
X34069080Y-12444700D02*
G75*
G03X34069080Y-12444700I-20000J0D01*
G01*
X34069080Y-14070300D02*
G75*
G03X34069080Y-14070300I-20000J0D01*
G01*
X35110480Y-10628600D02*
G75*
G03X35110480Y-10628600I-20000J0D01*
G01*
X37142480Y-11149300D02*
G75*
G03X37142480Y-11149300I-20000J0D01*
G01*
X31318580Y-13093200D02*
X31318580Y-13193200D01*
X31268580Y-13143200D02*
X31368580Y-13143200D01*
X31318580Y-13347200D02*
X31318580Y-13447200D01*
X31268580Y-13397200D02*
X31368580Y-13397200D01*
X31572580Y-13093200D02*
X31572580Y-13193200D01*
X31522580Y-13143200D02*
X31622580Y-13143200D01*
X31572580Y-13347200D02*
X31572580Y-13447200D01*
X31522580Y-13397200D02*
X31622580Y-13397200D01*
X31826580Y-13093200D02*
X31826580Y-13193200D01*
X31776580Y-13143200D02*
X31876580Y-13143200D01*
X31826580Y-13347200D02*
X31826580Y-13447200D01*
X31776580Y-13397200D02*
X31876580Y-13397200D01*
X32080580Y-13093200D02*
X32080580Y-13193200D01*
X32030580Y-13143200D02*
X32130580Y-13143200D01*
X32080580Y-13347200D02*
X32080580Y-13447200D01*
X32030580Y-13397200D02*
X32130580Y-13397200D01*
X32334580Y-13093200D02*
X32334580Y-13193200D01*
X32284580Y-13143200D02*
X32384580Y-13143200D01*
X32334580Y-13347200D02*
X32334580Y-13447200D01*
X32284580Y-13397200D02*
X32384580Y-13397200D01*
X32588580Y-13093200D02*
X32588580Y-13193200D01*
X32538580Y-13143200D02*
X32638580Y-13143200D01*
X32588580Y-13347200D02*
X32588580Y-13447200D01*
X32538580Y-13397200D02*
X32638580Y-13397200D01*
X32842580Y-13093200D02*
X32842580Y-13193200D01*
X32792580Y-13143200D02*
X32892580Y-13143200D01*
X32842580Y-13347200D02*
X32842580Y-13447200D01*
X32792580Y-13397200D02*
X32892580Y-13397200D01*
X33096580Y-13093200D02*
X33096580Y-13193200D01*
X33046580Y-13143200D02*
X33146580Y-13143200D01*
X33096580Y-13347200D02*
X33096580Y-13447200D01*
X33046580Y-13397200D02*
X33146580Y-13397200D01*
X33350580Y-13093200D02*
X33350580Y-13193200D01*
X33300580Y-13143200D02*
X33400580Y-13143200D01*
X33350580Y-13347200D02*
X33350580Y-13447200D01*
X33300580Y-13397200D02*
X33400580Y-13397200D01*
X33604580Y-13093200D02*
X33604580Y-13193200D01*
X33554580Y-13143200D02*
X33654580Y-13143200D01*
X33604580Y-13347200D02*
X33604580Y-13447200D01*
X33554580Y-13397200D02*
X33654580Y-13397200D01*
X37117783Y-8426803D02*
X37117783Y-8207597D01*
X36898577Y-8207597D01*
X36898577Y-8426803D01*
X37117783Y-8426803D01*
X10574783Y-8426803D02*
X10574783Y-8207597D01*
X10355577Y-8207597D01*
X10355577Y-8426803D01*
X10574783Y-8426803D01*
X10574783Y-14014803D02*
X10574783Y-13795597D01*
X10355577Y-13795597D01*
X10355577Y-14014803D01*
X10574783Y-14014803D01*
X37117783Y-14014803D02*
X37117783Y-13795597D01*
X36898577Y-13795597D01*
X36898577Y-14014803D01*
X37117783Y-14014803D01*
D12*
X10236108Y-14886414D02*
X10236108Y-14586414D01*
X10307537Y-14586414D01*
X10350394Y-14600700D01*
X10378966Y-14629271D01*
X10393251Y-14657843D01*
X10407537Y-14714986D01*
X10407537Y-14757843D01*
X10393251Y-14814986D01*
X10378966Y-14843557D01*
X10350394Y-14872129D01*
X10307537Y-14886414D01*
X10236108Y-14886414D01*
X10536108Y-14886414D02*
X10536108Y-14686414D01*
X10536108Y-14743557D02*
X10550394Y-14714986D01*
X10564680Y-14700700D01*
X10593251Y-14686414D01*
X10621823Y-14686414D01*
X10721823Y-14886414D02*
X10721823Y-14686414D01*
X10721823Y-14586414D02*
X10707537Y-14600700D01*
X10721823Y-14614986D01*
X10736108Y-14600700D01*
X10721823Y-14586414D01*
X10721823Y-14614986D01*
X10907537Y-14886414D02*
X10878966Y-14872129D01*
X10864680Y-14843557D01*
X10864680Y-14586414D01*
X11064680Y-14886414D02*
X11036108Y-14872129D01*
X11021823Y-14843557D01*
X11021823Y-14586414D01*
X11407537Y-14886414D02*
X11407537Y-14586414D01*
X11507537Y-14800700D01*
X11607537Y-14586414D01*
X11607537Y-14886414D01*
X11878966Y-14886414D02*
X11878966Y-14729271D01*
X11864680Y-14700700D01*
X11836108Y-14686414D01*
X11778966Y-14686414D01*
X11750394Y-14700700D01*
X11878966Y-14872129D02*
X11850394Y-14886414D01*
X11778966Y-14886414D01*
X11750394Y-14872129D01*
X11736108Y-14843557D01*
X11736108Y-14814986D01*
X11750394Y-14786414D01*
X11778966Y-14772129D01*
X11850394Y-14772129D01*
X11878966Y-14757843D01*
X12021823Y-14686414D02*
X12021823Y-14986414D01*
X12021823Y-14700700D02*
X12050394Y-14686414D01*
X12107537Y-14686414D01*
X12136108Y-14700700D01*
X12150394Y-14714986D01*
X12164680Y-14743557D01*
X12164680Y-14829271D01*
X12150394Y-14857843D01*
X12136108Y-14872129D01*
X12107537Y-14886414D01*
X12050394Y-14886414D01*
X12021823Y-14872129D01*
X12293251Y-14857843D02*
X12307537Y-14872129D01*
X12293251Y-14886414D01*
X12278966Y-14872129D01*
X12293251Y-14857843D01*
X12293251Y-14886414D01*
X12293251Y-14700700D02*
X12307537Y-14714986D01*
X12293251Y-14729271D01*
X12278966Y-14714986D01*
X12293251Y-14700700D01*
X12293251Y-14729271D01*
X9919680Y-15365700D02*
X9949680Y-15395700D01*
X9949680Y-15365700D02*
X9919680Y-15395700D01*
X10293251Y-15216414D02*
X10321823Y-15216414D01*
X10350394Y-15230700D01*
X10364680Y-15244986D01*
X10378966Y-15273557D01*
X10393251Y-15330700D01*
X10393251Y-15402129D01*
X10378966Y-15459271D01*
X10364680Y-15487843D01*
X10350394Y-15502129D01*
X10321823Y-15516414D01*
X10293251Y-15516414D01*
X10264680Y-15502129D01*
X10250394Y-15487843D01*
X10236108Y-15459271D01*
X10221823Y-15402129D01*
X10221823Y-15330700D01*
X10236108Y-15273557D01*
X10250394Y-15244986D01*
X10264680Y-15230700D01*
X10293251Y-15216414D01*
X10521823Y-15487843D02*
X10536108Y-15502129D01*
X10521823Y-15516414D01*
X10507537Y-15502129D01*
X10521823Y-15487843D01*
X10521823Y-15516414D01*
X10636108Y-15216414D02*
X10821823Y-15216414D01*
X10721823Y-15330700D01*
X10764680Y-15330700D01*
X10793251Y-15344986D01*
X10807537Y-15359271D01*
X10821823Y-15387843D01*
X10821823Y-15459271D01*
X10807537Y-15487843D01*
X10793251Y-15502129D01*
X10764680Y-15516414D01*
X10678966Y-15516414D01*
X10650394Y-15502129D01*
X10636108Y-15487843D01*
X11007537Y-15216414D02*
X11036108Y-15216414D01*
X11064680Y-15230700D01*
X11078966Y-15244986D01*
X11093251Y-15273557D01*
X11107537Y-15330700D01*
X11107537Y-15402129D01*
X11093251Y-15459271D01*
X11078966Y-15487843D01*
X11064680Y-15502129D01*
X11036108Y-15516414D01*
X11007537Y-15516414D01*
X10978966Y-15502129D01*
X10964680Y-15487843D01*
X10950394Y-15459271D01*
X10936108Y-15402129D01*
X10936108Y-15330700D01*
X10950394Y-15273557D01*
X10964680Y-15244986D01*
X10978966Y-15230700D01*
X11007537Y-15216414D01*
X11236108Y-15516414D02*
X11236108Y-15316414D01*
X11236108Y-15344986D02*
X11250394Y-15330700D01*
X11278966Y-15316414D01*
X11321823Y-15316414D01*
X11350394Y-15330700D01*
X11364680Y-15359271D01*
X11364680Y-15516414D01*
X11364680Y-15359271D02*
X11378966Y-15330700D01*
X11407537Y-15316414D01*
X11450394Y-15316414D01*
X11478966Y-15330700D01*
X11493251Y-15359271D01*
X11493251Y-15516414D01*
X11636108Y-15516414D02*
X11636108Y-15316414D01*
X11636108Y-15344986D02*
X11650394Y-15330700D01*
X11678966Y-15316414D01*
X11721823Y-15316414D01*
X11750394Y-15330700D01*
X11764680Y-15359271D01*
X11764680Y-15516414D01*
X11764680Y-15359271D02*
X11778966Y-15330700D01*
X11807537Y-15316414D01*
X11850394Y-15316414D01*
X11878966Y-15330700D01*
X11893251Y-15359271D01*
X11893251Y-15516414D01*
X12478966Y-15202129D02*
X12221823Y-15587843D01*
X12864680Y-15216414D02*
X12893251Y-15216414D01*
X12921823Y-15230700D01*
X12936108Y-15244986D01*
X12950394Y-15273557D01*
X12964680Y-15330700D01*
X12964680Y-15402129D01*
X12950394Y-15459271D01*
X12936108Y-15487843D01*
X12921823Y-15502129D01*
X12893251Y-15516414D01*
X12864680Y-15516414D01*
X12836108Y-15502129D01*
X12821823Y-15487843D01*
X12807537Y-15459271D01*
X12793251Y-15402129D01*
X12793251Y-15330700D01*
X12807537Y-15273557D01*
X12821823Y-15244986D01*
X12836108Y-15230700D01*
X12864680Y-15216414D01*
X13093251Y-15487843D02*
X13107537Y-15502129D01*
X13093251Y-15516414D01*
X13078966Y-15502129D01*
X13093251Y-15487843D01*
X13093251Y-15516414D01*
X13293251Y-15216414D02*
X13321823Y-15216414D01*
X13350394Y-15230700D01*
X13364680Y-15244986D01*
X13378966Y-15273557D01*
X13393251Y-15330700D01*
X13393251Y-15402129D01*
X13378966Y-15459271D01*
X13364680Y-15487843D01*
X13350394Y-15502129D01*
X13321823Y-15516414D01*
X13293251Y-15516414D01*
X13264680Y-15502129D01*
X13250394Y-15487843D01*
X13236108Y-15459271D01*
X13221823Y-15402129D01*
X13221823Y-15330700D01*
X13236108Y-15273557D01*
X13250394Y-15244986D01*
X13264680Y-15230700D01*
X13293251Y-15216414D01*
X13678966Y-15516414D02*
X13507537Y-15516414D01*
X13593251Y-15516414D02*
X13593251Y-15216414D01*
X13564680Y-15259271D01*
X13536108Y-15287843D01*
X13507537Y-15302129D01*
X13793251Y-15244986D02*
X13807537Y-15230700D01*
X13836108Y-15216414D01*
X13907537Y-15216414D01*
X13936108Y-15230700D01*
X13950394Y-15244986D01*
X13964680Y-15273557D01*
X13964680Y-15302129D01*
X13950394Y-15344986D01*
X13778966Y-15516414D01*
X13964680Y-15516414D01*
X14078966Y-15216414D02*
X14078966Y-15273557D01*
X14193251Y-15216414D02*
X14193251Y-15273557D01*
X14636108Y-15630700D02*
X14621823Y-15616414D01*
X14593251Y-15573557D01*
X14578966Y-15544986D01*
X14564680Y-15502129D01*
X14550394Y-15430700D01*
X14550394Y-15373557D01*
X14564680Y-15302129D01*
X14578966Y-15259271D01*
X14593251Y-15230700D01*
X14621823Y-15187843D01*
X14636108Y-15173557D01*
X14893251Y-15216414D02*
X14750394Y-15216414D01*
X14736108Y-15359271D01*
X14750394Y-15344986D01*
X14778966Y-15330700D01*
X14850394Y-15330700D01*
X14878966Y-15344986D01*
X14893251Y-15359271D01*
X14907537Y-15387843D01*
X14907537Y-15459271D01*
X14893251Y-15487843D01*
X14878966Y-15502129D01*
X14850394Y-15516414D01*
X14778966Y-15516414D01*
X14750394Y-15502129D01*
X14736108Y-15487843D01*
X15007537Y-15216414D02*
X15193251Y-15216414D01*
X15093251Y-15330700D01*
X15136108Y-15330700D01*
X15164680Y-15344986D01*
X15178966Y-15359271D01*
X15193251Y-15387843D01*
X15193251Y-15459271D01*
X15178966Y-15487843D01*
X15164680Y-15502129D01*
X15136108Y-15516414D01*
X15050394Y-15516414D01*
X15021823Y-15502129D01*
X15007537Y-15487843D01*
X15450394Y-15216414D02*
X15393251Y-15216414D01*
X15364680Y-15230700D01*
X15350394Y-15244986D01*
X15321823Y-15287843D01*
X15307537Y-15344986D01*
X15307537Y-15459271D01*
X15321823Y-15487843D01*
X15336108Y-15502129D01*
X15364680Y-15516414D01*
X15421823Y-15516414D01*
X15450394Y-15502129D01*
X15464680Y-15487843D01*
X15478966Y-15459271D01*
X15478966Y-15387843D01*
X15464680Y-15359271D01*
X15450394Y-15344986D01*
X15421823Y-15330700D01*
X15364680Y-15330700D01*
X15336108Y-15344986D01*
X15321823Y-15359271D01*
X15307537Y-15387843D01*
X15836108Y-15516414D02*
X15836108Y-15216414D01*
X15964680Y-15516414D02*
X15964680Y-15359271D01*
X15950394Y-15330700D01*
X15921823Y-15316414D01*
X15878966Y-15316414D01*
X15850394Y-15330700D01*
X15836108Y-15344986D01*
X16150394Y-15516414D02*
X16121823Y-15502129D01*
X16107537Y-15487843D01*
X16093251Y-15459271D01*
X16093251Y-15373557D01*
X16107537Y-15344986D01*
X16121823Y-15330700D01*
X16150394Y-15316414D01*
X16193251Y-15316414D01*
X16221823Y-15330700D01*
X16236108Y-15344986D01*
X16250394Y-15373557D01*
X16250394Y-15459271D01*
X16236108Y-15487843D01*
X16221823Y-15502129D01*
X16193251Y-15516414D01*
X16150394Y-15516414D01*
X16421823Y-15516414D02*
X16393251Y-15502129D01*
X16378966Y-15473557D01*
X16378966Y-15216414D01*
X16650394Y-15502129D02*
X16621823Y-15516414D01*
X16564680Y-15516414D01*
X16536108Y-15502129D01*
X16521823Y-15473557D01*
X16521823Y-15359271D01*
X16536108Y-15330700D01*
X16564680Y-15316414D01*
X16621823Y-15316414D01*
X16650394Y-15330700D01*
X16664680Y-15359271D01*
X16664680Y-15387843D01*
X16521823Y-15416414D01*
X16778966Y-15502129D02*
X16807537Y-15516414D01*
X16864680Y-15516414D01*
X16893251Y-15502129D01*
X16907537Y-15473557D01*
X16907537Y-15459271D01*
X16893251Y-15430700D01*
X16864680Y-15416414D01*
X16821823Y-15416414D01*
X16793251Y-15402129D01*
X16778966Y-15373557D01*
X16778966Y-15359271D01*
X16793251Y-15330700D01*
X16821823Y-15316414D01*
X16864680Y-15316414D01*
X16893251Y-15330700D01*
X17007537Y-15630700D02*
X17021823Y-15616414D01*
X17050394Y-15573557D01*
X17064680Y-15544986D01*
X17078966Y-15502129D01*
X17093251Y-15430700D01*
X17093251Y-15373557D01*
X17078966Y-15302129D01*
X17064680Y-15259271D01*
X17050394Y-15230700D01*
X17021823Y-15187843D01*
X17007537Y-15173557D01*
X9949680Y-15776700D02*
G75*
G03X9949680Y-15776700I-20000J0D01*
G01*
X10293251Y-15612414D02*
X10321823Y-15612414D01*
X10350394Y-15626700D01*
X10364680Y-15640986D01*
X10378966Y-15669557D01*
X10393251Y-15726700D01*
X10393251Y-15798129D01*
X10378966Y-15855271D01*
X10364680Y-15883843D01*
X10350394Y-15898129D01*
X10321823Y-15912414D01*
X10293251Y-15912414D01*
X10264680Y-15898129D01*
X10250394Y-15883843D01*
X10236108Y-15855271D01*
X10221823Y-15798129D01*
X10221823Y-15726700D01*
X10236108Y-15669557D01*
X10250394Y-15640986D01*
X10264680Y-15626700D01*
X10293251Y-15612414D01*
X10521823Y-15883843D02*
X10536108Y-15898129D01*
X10521823Y-15912414D01*
X10507537Y-15898129D01*
X10521823Y-15883843D01*
X10521823Y-15912414D01*
X10793251Y-15712414D02*
X10793251Y-15912414D01*
X10721823Y-15598129D02*
X10650394Y-15812414D01*
X10836108Y-15812414D01*
X11007537Y-15612414D02*
X11036108Y-15612414D01*
X11064680Y-15626700D01*
X11078966Y-15640986D01*
X11093251Y-15669557D01*
X11107537Y-15726700D01*
X11107537Y-15798129D01*
X11093251Y-15855271D01*
X11078966Y-15883843D01*
X11064680Y-15898129D01*
X11036108Y-15912414D01*
X11007537Y-15912414D01*
X10978966Y-15898129D01*
X10964680Y-15883843D01*
X10950394Y-15855271D01*
X10936108Y-15798129D01*
X10936108Y-15726700D01*
X10950394Y-15669557D01*
X10964680Y-15640986D01*
X10978966Y-15626700D01*
X11007537Y-15612414D01*
X11236108Y-15912414D02*
X11236108Y-15712414D01*
X11236108Y-15740986D02*
X11250394Y-15726700D01*
X11278966Y-15712414D01*
X11321823Y-15712414D01*
X11350394Y-15726700D01*
X11364680Y-15755271D01*
X11364680Y-15912414D01*
X11364680Y-15755271D02*
X11378966Y-15726700D01*
X11407537Y-15712414D01*
X11450394Y-15712414D01*
X11478966Y-15726700D01*
X11493251Y-15755271D01*
X11493251Y-15912414D01*
X11636108Y-15912414D02*
X11636108Y-15712414D01*
X11636108Y-15740986D02*
X11650394Y-15726700D01*
X11678966Y-15712414D01*
X11721823Y-15712414D01*
X11750394Y-15726700D01*
X11764680Y-15755271D01*
X11764680Y-15912414D01*
X11764680Y-15755271D02*
X11778966Y-15726700D01*
X11807537Y-15712414D01*
X11850394Y-15712414D01*
X11878966Y-15726700D01*
X11893251Y-15755271D01*
X11893251Y-15912414D01*
X12478966Y-15598129D02*
X12221823Y-15983843D01*
X12864680Y-15612414D02*
X12893251Y-15612414D01*
X12921823Y-15626700D01*
X12936108Y-15640986D01*
X12950394Y-15669557D01*
X12964680Y-15726700D01*
X12964680Y-15798129D01*
X12950394Y-15855271D01*
X12936108Y-15883843D01*
X12921823Y-15898129D01*
X12893251Y-15912414D01*
X12864680Y-15912414D01*
X12836108Y-15898129D01*
X12821823Y-15883843D01*
X12807537Y-15855271D01*
X12793251Y-15798129D01*
X12793251Y-15726700D01*
X12807537Y-15669557D01*
X12821823Y-15640986D01*
X12836108Y-15626700D01*
X12864680Y-15612414D01*
X13093251Y-15883843D02*
X13107537Y-15898129D01*
X13093251Y-15912414D01*
X13078966Y-15898129D01*
X13093251Y-15883843D01*
X13093251Y-15912414D01*
X13293251Y-15612414D02*
X13321823Y-15612414D01*
X13350394Y-15626700D01*
X13364680Y-15640986D01*
X13378966Y-15669557D01*
X13393251Y-15726700D01*
X13393251Y-15798129D01*
X13378966Y-15855271D01*
X13364680Y-15883843D01*
X13350394Y-15898129D01*
X13321823Y-15912414D01*
X13293251Y-15912414D01*
X13264680Y-15898129D01*
X13250394Y-15883843D01*
X13236108Y-15855271D01*
X13221823Y-15798129D01*
X13221823Y-15726700D01*
X13236108Y-15669557D01*
X13250394Y-15640986D01*
X13264680Y-15626700D01*
X13293251Y-15612414D01*
X13678966Y-15912414D02*
X13507537Y-15912414D01*
X13593251Y-15912414D02*
X13593251Y-15612414D01*
X13564680Y-15655271D01*
X13536108Y-15683843D01*
X13507537Y-15698129D01*
X13936108Y-15612414D02*
X13878966Y-15612414D01*
X13850394Y-15626700D01*
X13836108Y-15640986D01*
X13807537Y-15683843D01*
X13793251Y-15740986D01*
X13793251Y-15855271D01*
X13807537Y-15883843D01*
X13821823Y-15898129D01*
X13850394Y-15912414D01*
X13907537Y-15912414D01*
X13936108Y-15898129D01*
X13950394Y-15883843D01*
X13964680Y-15855271D01*
X13964680Y-15783843D01*
X13950394Y-15755271D01*
X13936108Y-15740986D01*
X13907537Y-15726700D01*
X13850394Y-15726700D01*
X13821823Y-15740986D01*
X13807537Y-15755271D01*
X13793251Y-15783843D01*
X14078966Y-15612414D02*
X14078966Y-15669557D01*
X14193251Y-15612414D02*
X14193251Y-15669557D01*
X14636108Y-16026700D02*
X14621823Y-16012414D01*
X14593251Y-15969557D01*
X14578966Y-15940986D01*
X14564680Y-15898129D01*
X14550394Y-15826700D01*
X14550394Y-15769557D01*
X14564680Y-15698129D01*
X14578966Y-15655271D01*
X14593251Y-15626700D01*
X14621823Y-15583843D01*
X14636108Y-15569557D01*
X14721823Y-15612414D02*
X14907537Y-15612414D01*
X14807537Y-15726700D01*
X14850394Y-15726700D01*
X14878966Y-15740986D01*
X14893251Y-15755271D01*
X14907537Y-15783843D01*
X14907537Y-15855271D01*
X14893251Y-15883843D01*
X14878966Y-15898129D01*
X14850394Y-15912414D01*
X14764680Y-15912414D01*
X14736108Y-15898129D01*
X14721823Y-15883843D01*
X15078966Y-15740986D02*
X15050394Y-15726700D01*
X15036108Y-15712414D01*
X15021823Y-15683843D01*
X15021823Y-15669557D01*
X15036108Y-15640986D01*
X15050394Y-15626700D01*
X15078966Y-15612414D01*
X15136108Y-15612414D01*
X15164680Y-15626700D01*
X15178966Y-15640986D01*
X15193251Y-15669557D01*
X15193251Y-15683843D01*
X15178966Y-15712414D01*
X15164680Y-15726700D01*
X15136108Y-15740986D01*
X15078966Y-15740986D01*
X15050394Y-15755271D01*
X15036108Y-15769557D01*
X15021823Y-15798129D01*
X15021823Y-15855271D01*
X15036108Y-15883843D01*
X15050394Y-15898129D01*
X15078966Y-15912414D01*
X15136108Y-15912414D01*
X15164680Y-15898129D01*
X15178966Y-15883843D01*
X15193251Y-15855271D01*
X15193251Y-15798129D01*
X15178966Y-15769557D01*
X15164680Y-15755271D01*
X15136108Y-15740986D01*
X15550394Y-15912414D02*
X15550394Y-15612414D01*
X15678966Y-15912414D02*
X15678966Y-15755271D01*
X15664680Y-15726700D01*
X15636108Y-15712414D01*
X15593251Y-15712414D01*
X15564680Y-15726700D01*
X15550394Y-15740986D01*
X15864680Y-15912414D02*
X15836108Y-15898129D01*
X15821823Y-15883843D01*
X15807537Y-15855271D01*
X15807537Y-15769557D01*
X15821823Y-15740986D01*
X15836108Y-15726700D01*
X15864680Y-15712414D01*
X15907537Y-15712414D01*
X15936108Y-15726700D01*
X15950394Y-15740986D01*
X15964680Y-15769557D01*
X15964680Y-15855271D01*
X15950394Y-15883843D01*
X15936108Y-15898129D01*
X15907537Y-15912414D01*
X15864680Y-15912414D01*
X16136108Y-15912414D02*
X16107537Y-15898129D01*
X16093251Y-15869557D01*
X16093251Y-15612414D01*
X16364680Y-15898129D02*
X16336108Y-15912414D01*
X16278966Y-15912414D01*
X16250394Y-15898129D01*
X16236108Y-15869557D01*
X16236108Y-15755271D01*
X16250394Y-15726700D01*
X16278966Y-15712414D01*
X16336108Y-15712414D01*
X16364680Y-15726700D01*
X16378966Y-15755271D01*
X16378966Y-15783843D01*
X16236108Y-15812414D01*
X16493251Y-15898129D02*
X16521823Y-15912414D01*
X16578966Y-15912414D01*
X16607537Y-15898129D01*
X16621823Y-15869557D01*
X16621823Y-15855271D01*
X16607537Y-15826700D01*
X16578966Y-15812414D01*
X16536108Y-15812414D01*
X16507537Y-15798129D01*
X16493251Y-15769557D01*
X16493251Y-15755271D01*
X16507537Y-15726700D01*
X16536108Y-15712414D01*
X16578966Y-15712414D01*
X16607537Y-15726700D01*
X16721823Y-16026700D02*
X16736108Y-16012414D01*
X16764680Y-15969557D01*
X16778966Y-15940986D01*
X16793251Y-15898129D01*
X16807537Y-15826700D01*
X16807537Y-15769557D01*
X16793251Y-15698129D01*
X16778966Y-15655271D01*
X16764680Y-15626700D01*
X16736108Y-15583843D01*
X16721823Y-15569557D01*
X9899680Y-16122700D02*
X9899680Y-16222700D01*
X9849680Y-16172700D02*
X9949680Y-16172700D01*
X10393251Y-16308414D02*
X10221823Y-16308414D01*
X10307537Y-16308414D02*
X10307537Y-16008414D01*
X10278966Y-16051271D01*
X10250394Y-16079843D01*
X10221823Y-16094129D01*
X10521823Y-16279843D02*
X10536108Y-16294129D01*
X10521823Y-16308414D01*
X10507537Y-16294129D01*
X10521823Y-16279843D01*
X10521823Y-16308414D01*
X10721823Y-16008414D02*
X10750394Y-16008414D01*
X10778966Y-16022700D01*
X10793251Y-16036986D01*
X10807537Y-16065557D01*
X10821823Y-16122700D01*
X10821823Y-16194129D01*
X10807537Y-16251271D01*
X10793251Y-16279843D01*
X10778966Y-16294129D01*
X10750394Y-16308414D01*
X10721823Y-16308414D01*
X10693251Y-16294129D01*
X10678966Y-16279843D01*
X10664680Y-16251271D01*
X10650394Y-16194129D01*
X10650394Y-16122700D01*
X10664680Y-16065557D01*
X10678966Y-16036986D01*
X10693251Y-16022700D01*
X10721823Y-16008414D01*
X11007537Y-16008414D02*
X11036108Y-16008414D01*
X11064680Y-16022700D01*
X11078966Y-16036986D01*
X11093251Y-16065557D01*
X11107537Y-16122700D01*
X11107537Y-16194129D01*
X11093251Y-16251271D01*
X11078966Y-16279843D01*
X11064680Y-16294129D01*
X11036108Y-16308414D01*
X11007537Y-16308414D01*
X10978966Y-16294129D01*
X10964680Y-16279843D01*
X10950394Y-16251271D01*
X10936108Y-16194129D01*
X10936108Y-16122700D01*
X10950394Y-16065557D01*
X10964680Y-16036986D01*
X10978966Y-16022700D01*
X11007537Y-16008414D01*
X11236108Y-16308414D02*
X11236108Y-16108414D01*
X11236108Y-16136986D02*
X11250394Y-16122700D01*
X11278966Y-16108414D01*
X11321823Y-16108414D01*
X11350394Y-16122700D01*
X11364680Y-16151271D01*
X11364680Y-16308414D01*
X11364680Y-16151271D02*
X11378966Y-16122700D01*
X11407537Y-16108414D01*
X11450394Y-16108414D01*
X11478966Y-16122700D01*
X11493251Y-16151271D01*
X11493251Y-16308414D01*
X11636108Y-16308414D02*
X11636108Y-16108414D01*
X11636108Y-16136986D02*
X11650394Y-16122700D01*
X11678966Y-16108414D01*
X11721823Y-16108414D01*
X11750394Y-16122700D01*
X11764680Y-16151271D01*
X11764680Y-16308414D01*
X11764680Y-16151271D02*
X11778966Y-16122700D01*
X11807537Y-16108414D01*
X11850394Y-16108414D01*
X11878966Y-16122700D01*
X11893251Y-16151271D01*
X11893251Y-16308414D01*
X12478966Y-15994129D02*
X12221823Y-16379843D01*
X12864680Y-16008414D02*
X12893251Y-16008414D01*
X12921823Y-16022700D01*
X12936108Y-16036986D01*
X12950394Y-16065557D01*
X12964680Y-16122700D01*
X12964680Y-16194129D01*
X12950394Y-16251271D01*
X12936108Y-16279843D01*
X12921823Y-16294129D01*
X12893251Y-16308414D01*
X12864680Y-16308414D01*
X12836108Y-16294129D01*
X12821823Y-16279843D01*
X12807537Y-16251271D01*
X12793251Y-16194129D01*
X12793251Y-16122700D01*
X12807537Y-16065557D01*
X12821823Y-16036986D01*
X12836108Y-16022700D01*
X12864680Y-16008414D01*
X13093251Y-16279843D02*
X13107537Y-16294129D01*
X13093251Y-16308414D01*
X13078966Y-16294129D01*
X13093251Y-16279843D01*
X13093251Y-16308414D01*
X13293251Y-16008414D02*
X13321823Y-16008414D01*
X13350394Y-16022700D01*
X13364680Y-16036986D01*
X13378966Y-16065557D01*
X13393251Y-16122700D01*
X13393251Y-16194129D01*
X13378966Y-16251271D01*
X13364680Y-16279843D01*
X13350394Y-16294129D01*
X13321823Y-16308414D01*
X13293251Y-16308414D01*
X13264680Y-16294129D01*
X13250394Y-16279843D01*
X13236108Y-16251271D01*
X13221823Y-16194129D01*
X13221823Y-16122700D01*
X13236108Y-16065557D01*
X13250394Y-16036986D01*
X13264680Y-16022700D01*
X13293251Y-16008414D01*
X13493251Y-16008414D02*
X13678966Y-16008414D01*
X13578966Y-16122700D01*
X13621823Y-16122700D01*
X13650394Y-16136986D01*
X13664680Y-16151271D01*
X13678966Y-16179843D01*
X13678966Y-16251271D01*
X13664680Y-16279843D01*
X13650394Y-16294129D01*
X13621823Y-16308414D01*
X13536108Y-16308414D01*
X13507537Y-16294129D01*
X13493251Y-16279843D01*
X13821823Y-16308414D02*
X13878966Y-16308414D01*
X13907537Y-16294129D01*
X13921823Y-16279843D01*
X13950394Y-16236986D01*
X13964680Y-16179843D01*
X13964680Y-16065557D01*
X13950394Y-16036986D01*
X13936108Y-16022700D01*
X13907537Y-16008414D01*
X13850394Y-16008414D01*
X13821823Y-16022700D01*
X13807537Y-16036986D01*
X13793251Y-16065557D01*
X13793251Y-16136986D01*
X13807537Y-16165557D01*
X13821823Y-16179843D01*
X13850394Y-16194129D01*
X13907537Y-16194129D01*
X13936108Y-16179843D01*
X13950394Y-16165557D01*
X13964680Y-16136986D01*
X14078966Y-16008414D02*
X14078966Y-16065557D01*
X14193251Y-16008414D02*
X14193251Y-16065557D01*
X14636108Y-16422700D02*
X14621823Y-16408414D01*
X14593251Y-16365557D01*
X14578966Y-16336986D01*
X14564680Y-16294129D01*
X14550394Y-16222700D01*
X14550394Y-16165557D01*
X14564680Y-16094129D01*
X14578966Y-16051271D01*
X14593251Y-16022700D01*
X14621823Y-15979843D01*
X14636108Y-15965557D01*
X14736108Y-16036986D02*
X14750394Y-16022700D01*
X14778966Y-16008414D01*
X14850394Y-16008414D01*
X14878966Y-16022700D01*
X14893251Y-16036986D01*
X14907537Y-16065557D01*
X14907537Y-16094129D01*
X14893251Y-16136986D01*
X14721823Y-16308414D01*
X14907537Y-16308414D01*
X15093251Y-16008414D02*
X15121823Y-16008414D01*
X15150394Y-16022700D01*
X15164680Y-16036986D01*
X15178966Y-16065557D01*
X15193251Y-16122700D01*
X15193251Y-16194129D01*
X15178966Y-16251271D01*
X15164680Y-16279843D01*
X15150394Y-16294129D01*
X15121823Y-16308414D01*
X15093251Y-16308414D01*
X15064680Y-16294129D01*
X15050394Y-16279843D01*
X15036108Y-16251271D01*
X15021823Y-16194129D01*
X15021823Y-16122700D01*
X15036108Y-16065557D01*
X15050394Y-16036986D01*
X15064680Y-16022700D01*
X15093251Y-16008414D01*
X15550394Y-16308414D02*
X15550394Y-16008414D01*
X15678966Y-16308414D02*
X15678966Y-16151271D01*
X15664680Y-16122700D01*
X15636108Y-16108414D01*
X15593251Y-16108414D01*
X15564680Y-16122700D01*
X15550394Y-16136986D01*
X15864680Y-16308414D02*
X15836108Y-16294129D01*
X15821823Y-16279843D01*
X15807537Y-16251271D01*
X15807537Y-16165557D01*
X15821823Y-16136986D01*
X15836108Y-16122700D01*
X15864680Y-16108414D01*
X15907537Y-16108414D01*
X15936108Y-16122700D01*
X15950394Y-16136986D01*
X15964680Y-16165557D01*
X15964680Y-16251271D01*
X15950394Y-16279843D01*
X15936108Y-16294129D01*
X15907537Y-16308414D01*
X15864680Y-16308414D01*
X16136108Y-16308414D02*
X16107537Y-16294129D01*
X16093251Y-16265557D01*
X16093251Y-16008414D01*
X16364680Y-16294129D02*
X16336108Y-16308414D01*
X16278966Y-16308414D01*
X16250394Y-16294129D01*
X16236108Y-16265557D01*
X16236108Y-16151271D01*
X16250394Y-16122700D01*
X16278966Y-16108414D01*
X16336108Y-16108414D01*
X16364680Y-16122700D01*
X16378966Y-16151271D01*
X16378966Y-16179843D01*
X16236108Y-16208414D01*
X16493251Y-16294129D02*
X16521823Y-16308414D01*
X16578966Y-16308414D01*
X16607537Y-16294129D01*
X16621823Y-16265557D01*
X16621823Y-16251271D01*
X16607537Y-16222700D01*
X16578966Y-16208414D01*
X16536108Y-16208414D01*
X16507537Y-16194129D01*
X16493251Y-16165557D01*
X16493251Y-16151271D01*
X16507537Y-16122700D01*
X16536108Y-16108414D01*
X16578966Y-16108414D01*
X16607537Y-16122700D01*
X16721823Y-16422700D02*
X16736108Y-16408414D01*
X16764680Y-16365557D01*
X16778966Y-16336986D01*
X16793251Y-16294129D01*
X16807537Y-16222700D01*
X16807537Y-16165557D01*
X16793251Y-16094129D01*
X16778966Y-16051271D01*
X16764680Y-16022700D01*
X16736108Y-15979843D01*
X16721823Y-15965557D01*
X9904283Y-16678303D02*
X9904283Y-16459097D01*
X9685077Y-16459097D01*
X9685077Y-16678303D01*
X9904283Y-16678303D01*
X10207537Y-16404414D02*
X10393251Y-16404414D01*
X10293251Y-16518700D01*
X10336108Y-16518700D01*
X10364680Y-16532986D01*
X10378966Y-16547271D01*
X10393251Y-16575843D01*
X10393251Y-16647271D01*
X10378966Y-16675843D01*
X10364680Y-16690129D01*
X10336108Y-16704414D01*
X10250394Y-16704414D01*
X10221823Y-16690129D01*
X10207537Y-16675843D01*
X10521823Y-16675843D02*
X10536108Y-16690129D01*
X10521823Y-16704414D01*
X10507537Y-16690129D01*
X10521823Y-16675843D01*
X10521823Y-16704414D01*
X10821823Y-16704414D02*
X10650394Y-16704414D01*
X10736108Y-16704414D02*
X10736108Y-16404414D01*
X10707537Y-16447271D01*
X10678966Y-16475843D01*
X10650394Y-16490129D01*
X11007537Y-16404414D02*
X11036108Y-16404414D01*
X11064680Y-16418700D01*
X11078966Y-16432986D01*
X11093251Y-16461557D01*
X11107537Y-16518700D01*
X11107537Y-16590129D01*
X11093251Y-16647271D01*
X11078966Y-16675843D01*
X11064680Y-16690129D01*
X11036108Y-16704414D01*
X11007537Y-16704414D01*
X10978966Y-16690129D01*
X10964680Y-16675843D01*
X10950394Y-16647271D01*
X10936108Y-16590129D01*
X10936108Y-16518700D01*
X10950394Y-16461557D01*
X10964680Y-16432986D01*
X10978966Y-16418700D01*
X11007537Y-16404414D01*
X11236108Y-16704414D02*
X11236108Y-16504414D01*
X11236108Y-16532986D02*
X11250394Y-16518700D01*
X11278966Y-16504414D01*
X11321823Y-16504414D01*
X11350394Y-16518700D01*
X11364680Y-16547271D01*
X11364680Y-16704414D01*
X11364680Y-16547271D02*
X11378966Y-16518700D01*
X11407537Y-16504414D01*
X11450394Y-16504414D01*
X11478966Y-16518700D01*
X11493251Y-16547271D01*
X11493251Y-16704414D01*
X11636108Y-16704414D02*
X11636108Y-16504414D01*
X11636108Y-16532986D02*
X11650394Y-16518700D01*
X11678966Y-16504414D01*
X11721823Y-16504414D01*
X11750394Y-16518700D01*
X11764680Y-16547271D01*
X11764680Y-16704414D01*
X11764680Y-16547271D02*
X11778966Y-16518700D01*
X11807537Y-16504414D01*
X11850394Y-16504414D01*
X11878966Y-16518700D01*
X11893251Y-16547271D01*
X11893251Y-16704414D01*
X12478966Y-16390129D02*
X12221823Y-16775843D01*
X12864680Y-16404414D02*
X12893251Y-16404414D01*
X12921823Y-16418700D01*
X12936108Y-16432986D01*
X12950394Y-16461557D01*
X12964680Y-16518700D01*
X12964680Y-16590129D01*
X12950394Y-16647271D01*
X12936108Y-16675843D01*
X12921823Y-16690129D01*
X12893251Y-16704414D01*
X12864680Y-16704414D01*
X12836108Y-16690129D01*
X12821823Y-16675843D01*
X12807537Y-16647271D01*
X12793251Y-16590129D01*
X12793251Y-16518700D01*
X12807537Y-16461557D01*
X12821823Y-16432986D01*
X12836108Y-16418700D01*
X12864680Y-16404414D01*
X13093251Y-16675843D02*
X13107537Y-16690129D01*
X13093251Y-16704414D01*
X13078966Y-16690129D01*
X13093251Y-16675843D01*
X13093251Y-16704414D01*
X13393251Y-16704414D02*
X13221823Y-16704414D01*
X13307537Y-16704414D02*
X13307537Y-16404414D01*
X13278966Y-16447271D01*
X13250394Y-16475843D01*
X13221823Y-16490129D01*
X13507537Y-16432986D02*
X13521823Y-16418700D01*
X13550394Y-16404414D01*
X13621823Y-16404414D01*
X13650394Y-16418700D01*
X13664680Y-16432986D01*
X13678966Y-16461557D01*
X13678966Y-16490129D01*
X13664680Y-16532986D01*
X13493251Y-16704414D01*
X13678966Y-16704414D01*
X13793251Y-16432986D02*
X13807537Y-16418700D01*
X13836108Y-16404414D01*
X13907537Y-16404414D01*
X13936108Y-16418700D01*
X13950394Y-16432986D01*
X13964680Y-16461557D01*
X13964680Y-16490129D01*
X13950394Y-16532986D01*
X13778966Y-16704414D01*
X13964680Y-16704414D01*
X14078966Y-16404414D02*
X14078966Y-16461557D01*
X14193251Y-16404414D02*
X14193251Y-16461557D01*
X14636108Y-16818700D02*
X14621823Y-16804414D01*
X14593251Y-16761557D01*
X14578966Y-16732986D01*
X14564680Y-16690129D01*
X14550394Y-16618700D01*
X14550394Y-16561557D01*
X14564680Y-16490129D01*
X14578966Y-16447271D01*
X14593251Y-16418700D01*
X14621823Y-16375843D01*
X14636108Y-16361557D01*
X14878966Y-16504414D02*
X14878966Y-16704414D01*
X14807537Y-16390129D02*
X14736108Y-16604414D01*
X14921823Y-16604414D01*
X15264680Y-16704414D02*
X15264680Y-16404414D01*
X15393251Y-16704414D02*
X15393251Y-16547271D01*
X15378966Y-16518700D01*
X15350394Y-16504414D01*
X15307537Y-16504414D01*
X15278966Y-16518700D01*
X15264680Y-16532986D01*
X15578966Y-16704414D02*
X15550394Y-16690129D01*
X15536108Y-16675843D01*
X15521823Y-16647271D01*
X15521823Y-16561557D01*
X15536108Y-16532986D01*
X15550394Y-16518700D01*
X15578966Y-16504414D01*
X15621823Y-16504414D01*
X15650394Y-16518700D01*
X15664680Y-16532986D01*
X15678966Y-16561557D01*
X15678966Y-16647271D01*
X15664680Y-16675843D01*
X15650394Y-16690129D01*
X15621823Y-16704414D01*
X15578966Y-16704414D01*
X15850394Y-16704414D02*
X15821823Y-16690129D01*
X15807537Y-16661557D01*
X15807537Y-16404414D01*
X16078966Y-16690129D02*
X16050394Y-16704414D01*
X15993251Y-16704414D01*
X15964680Y-16690129D01*
X15950394Y-16661557D01*
X15950394Y-16547271D01*
X15964680Y-16518700D01*
X15993251Y-16504414D01*
X16050394Y-16504414D01*
X16078966Y-16518700D01*
X16093251Y-16547271D01*
X16093251Y-16575843D01*
X15950394Y-16604414D01*
X16207537Y-16690129D02*
X16236108Y-16704414D01*
X16293251Y-16704414D01*
X16321823Y-16690129D01*
X16336108Y-16661557D01*
X16336108Y-16647271D01*
X16321823Y-16618700D01*
X16293251Y-16604414D01*
X16250394Y-16604414D01*
X16221823Y-16590129D01*
X16207537Y-16561557D01*
X16207537Y-16547271D01*
X16221823Y-16518700D01*
X16250394Y-16504414D01*
X16293251Y-16504414D01*
X16321823Y-16518700D01*
X16436108Y-16818700D02*
X16450394Y-16804414D01*
X16478966Y-16761557D01*
X16493251Y-16732986D01*
X16507537Y-16690129D01*
X16521823Y-16618700D01*
X16521823Y-16561557D01*
X16507537Y-16490129D01*
X16493251Y-16447271D01*
X16478966Y-16418700D01*
X16450394Y-16375843D01*
X16436108Y-16361557D01*
M02*
