%TF.GenerationSoftware,KiCad,Pcbnew,5.0.2-bee76a0~70~ubuntu18.04.1*%
%TF.CreationDate,2020-06-09T17:58:42+02:00*%
%TF.ProjectId,DemoNixie,44656d6f-4e69-4786-9965-2e6b69636164,rev?*%
%TF.SameCoordinates,Original*%
%TF.FileFunction,Legend,Top*%
%TF.FilePolarity,Positive*%
%FSLAX46Y46*%
G04 Gerber Fmt 4.6, Leading zero omitted, Abs format (unit mm)*
G04 Created by KiCad (PCBNEW 5.0.2-bee76a0~70~ubuntu18.04.1) date mar. 09 juin 2020 17:58:42 CEST*
%MOMM*%
%LPD*%
G01*
G04 APERTURE LIST*
%ADD10C,0.300000*%
%ADD11C,0.400000*%
%ADD12C,0.800000*%
%ADD13C,0.150000*%
%ADD14C,0.152400*%
%ADD15C,0.120000*%
G04 APERTURE END LIST*
D10*
X203594907Y-82772336D02*
X204547288Y-82772336D01*
X203404431Y-83343764D02*
X204071097Y-81343764D01*
X204737764Y-83343764D01*
X205404431Y-83343764D02*
X205404431Y-82010431D01*
X205404431Y-82391383D02*
X205499669Y-82200907D01*
X205594907Y-82105669D01*
X205785383Y-82010431D01*
X205975859Y-82010431D01*
X206642526Y-82010431D02*
X206642526Y-83343764D01*
X206642526Y-82200907D02*
X206737764Y-82105669D01*
X206928240Y-82010431D01*
X207213955Y-82010431D01*
X207404431Y-82105669D01*
X207499669Y-82296145D01*
X207499669Y-83343764D01*
X209309193Y-83343764D02*
X209309193Y-82296145D01*
X209213955Y-82105669D01*
X209023478Y-82010431D01*
X208642526Y-82010431D01*
X208452050Y-82105669D01*
X209309193Y-83248526D02*
X209118716Y-83343764D01*
X208642526Y-83343764D01*
X208452050Y-83248526D01*
X208356812Y-83058050D01*
X208356812Y-82867574D01*
X208452050Y-82677098D01*
X208642526Y-82581860D01*
X209118716Y-82581860D01*
X209309193Y-82486622D01*
X211118716Y-82010431D02*
X211118716Y-83343764D01*
X210261574Y-82010431D02*
X210261574Y-83058050D01*
X210356812Y-83248526D01*
X210547288Y-83343764D01*
X210833002Y-83343764D01*
X211023478Y-83248526D01*
X211118716Y-83153288D01*
X212928240Y-83343764D02*
X212928240Y-81343764D01*
X212928240Y-83248526D02*
X212737764Y-83343764D01*
X212356812Y-83343764D01*
X212166335Y-83248526D01*
X212071097Y-83153288D01*
X211975859Y-82962812D01*
X211975859Y-82391383D01*
X212071097Y-82200907D01*
X212166335Y-82105669D01*
X212356812Y-82010431D01*
X212737764Y-82010431D01*
X212928240Y-82105669D01*
X215309193Y-82772336D02*
X216261574Y-82772336D01*
X215118716Y-83343764D02*
X215785383Y-81343764D01*
X216452050Y-83343764D01*
X217118716Y-82010431D02*
X217118716Y-84010431D01*
X217118716Y-82105669D02*
X217309193Y-82010431D01*
X217690145Y-82010431D01*
X217880621Y-82105669D01*
X217975859Y-82200907D01*
X218071097Y-82391383D01*
X218071097Y-82962812D01*
X217975859Y-83153288D01*
X217880621Y-83248526D01*
X217690145Y-83343764D01*
X217309193Y-83343764D01*
X217118716Y-83248526D01*
X219690145Y-83248526D02*
X219499669Y-83343764D01*
X219118716Y-83343764D01*
X218928240Y-83248526D01*
X218833002Y-83058050D01*
X218833002Y-82296145D01*
X218928240Y-82105669D01*
X219118716Y-82010431D01*
X219499669Y-82010431D01*
X219690145Y-82105669D01*
X219785383Y-82296145D01*
X219785383Y-82486622D01*
X218833002Y-82677098D01*
X220928240Y-83343764D02*
X220737764Y-83248526D01*
X220642526Y-83058050D01*
X220642526Y-81343764D01*
X221690145Y-83343764D02*
X221690145Y-81343764D01*
X221690145Y-82105669D02*
X221880621Y-82010431D01*
X222261574Y-82010431D01*
X222452050Y-82105669D01*
X222547288Y-82200907D01*
X222642526Y-82391383D01*
X222642526Y-82962812D01*
X222547288Y-83153288D01*
X222452050Y-83248526D01*
X222261574Y-83343764D01*
X221880621Y-83343764D01*
X221690145Y-83248526D01*
X224356812Y-83343764D02*
X224356812Y-82296145D01*
X224261574Y-82105669D01*
X224071097Y-82010431D01*
X223690145Y-82010431D01*
X223499669Y-82105669D01*
X224356812Y-83248526D02*
X224166335Y-83343764D01*
X223690145Y-83343764D01*
X223499669Y-83248526D01*
X223404431Y-83058050D01*
X223404431Y-82867574D01*
X223499669Y-82677098D01*
X223690145Y-82581860D01*
X224166335Y-82581860D01*
X224356812Y-82486622D01*
X226166335Y-82010431D02*
X226166335Y-83343764D01*
X225309193Y-82010431D02*
X225309193Y-83058050D01*
X225404431Y-83248526D01*
X225594907Y-83343764D01*
X225880621Y-83343764D01*
X226071097Y-83248526D01*
X226166335Y-83153288D01*
X227118716Y-83343764D02*
X227118716Y-82010431D01*
X227118716Y-82200907D02*
X227213955Y-82105669D01*
X227404431Y-82010431D01*
X227690145Y-82010431D01*
X227880621Y-82105669D01*
X227975859Y-82296145D01*
X227975859Y-83343764D01*
X227975859Y-82296145D02*
X228071097Y-82105669D01*
X228261574Y-82010431D01*
X228547288Y-82010431D01*
X228737764Y-82105669D01*
X228833002Y-82296145D01*
X228833002Y-83343764D01*
X231309193Y-82581860D02*
X232833002Y-82581860D01*
X235213955Y-82772336D02*
X236166335Y-82772336D01*
X235023478Y-83343764D02*
X235690145Y-81343764D01*
X236356812Y-83343764D01*
X237023478Y-82010431D02*
X237023478Y-83343764D01*
X237023478Y-82200907D02*
X237118716Y-82105669D01*
X237309193Y-82010431D01*
X237594907Y-82010431D01*
X237785383Y-82105669D01*
X237880621Y-82296145D01*
X237880621Y-83343764D01*
X238547288Y-82010431D02*
X239309193Y-82010431D01*
X238833002Y-81343764D02*
X238833002Y-83058050D01*
X238928240Y-83248526D01*
X239118716Y-83343764D01*
X239309193Y-83343764D01*
X240261574Y-83343764D02*
X240071097Y-83248526D01*
X239975859Y-83153288D01*
X239880621Y-82962812D01*
X239880621Y-82391383D01*
X239975859Y-82200907D01*
X240071097Y-82105669D01*
X240261574Y-82010431D01*
X240547288Y-82010431D01*
X240737764Y-82105669D01*
X240833002Y-82200907D01*
X240928240Y-82391383D01*
X240928240Y-82962812D01*
X240833002Y-83153288D01*
X240737764Y-83248526D01*
X240547288Y-83343764D01*
X240261574Y-83343764D01*
X241785383Y-83343764D02*
X241785383Y-82010431D01*
X241785383Y-81343764D02*
X241690145Y-81439003D01*
X241785383Y-81534241D01*
X241880621Y-81439003D01*
X241785383Y-81343764D01*
X241785383Y-81534241D01*
X242737764Y-82010431D02*
X242737764Y-83343764D01*
X242737764Y-82200907D02*
X242833002Y-82105669D01*
X243023478Y-82010431D01*
X243309193Y-82010431D01*
X243499669Y-82105669D01*
X243594907Y-82296145D01*
X243594907Y-83343764D01*
X245309193Y-83248526D02*
X245118716Y-83343764D01*
X244737764Y-83343764D01*
X244547288Y-83248526D01*
X244452050Y-83058050D01*
X244452050Y-82296145D01*
X244547288Y-82105669D01*
X244737764Y-82010431D01*
X245118716Y-82010431D01*
X245309193Y-82105669D01*
X245404431Y-82296145D01*
X245404431Y-82486622D01*
X244452050Y-82677098D01*
X248452050Y-82296145D02*
X248737764Y-82391383D01*
X248833002Y-82486622D01*
X248928240Y-82677098D01*
X248928240Y-82962812D01*
X248833002Y-83153288D01*
X248737764Y-83248526D01*
X248547288Y-83343764D01*
X247785383Y-83343764D01*
X247785383Y-81343764D01*
X248452050Y-81343764D01*
X248642526Y-81439003D01*
X248737764Y-81534241D01*
X248833002Y-81724717D01*
X248833002Y-81915193D01*
X248737764Y-82105669D01*
X248642526Y-82200907D01*
X248452050Y-82296145D01*
X247785383Y-82296145D01*
X250642526Y-82010431D02*
X250642526Y-83343764D01*
X249785383Y-82010431D02*
X249785383Y-83058050D01*
X249880621Y-83248526D01*
X250071097Y-83343764D01*
X250356812Y-83343764D01*
X250547288Y-83248526D01*
X250642526Y-83153288D01*
X251594907Y-83343764D02*
X251594907Y-82010431D01*
X251594907Y-82391383D02*
X251690145Y-82200907D01*
X251785383Y-82105669D01*
X251975859Y-82010431D01*
X252166335Y-82010431D01*
X253594907Y-83248526D02*
X253404431Y-83343764D01*
X253023478Y-83343764D01*
X252833002Y-83248526D01*
X252737764Y-83058050D01*
X252737764Y-82296145D01*
X252833002Y-82105669D01*
X253023478Y-82010431D01*
X253404431Y-82010431D01*
X253594907Y-82105669D01*
X253690145Y-82296145D01*
X253690145Y-82486622D01*
X252737764Y-82677098D01*
X255404431Y-83343764D02*
X255404431Y-82296145D01*
X255309193Y-82105669D01*
X255118716Y-82010431D01*
X254737764Y-82010431D01*
X254547288Y-82105669D01*
X255404431Y-83248526D02*
X255213955Y-83343764D01*
X254737764Y-83343764D01*
X254547288Y-83248526D01*
X254452050Y-83058050D01*
X254452050Y-82867574D01*
X254547288Y-82677098D01*
X254737764Y-82581860D01*
X255213955Y-82581860D01*
X255404431Y-82486622D01*
X257213955Y-82010431D02*
X257213955Y-83343764D01*
X256356812Y-82010431D02*
X256356812Y-83058050D01*
X256452050Y-83248526D01*
X256642526Y-83343764D01*
X256928240Y-83343764D01*
X257118716Y-83248526D01*
X257213955Y-83153288D01*
X259690145Y-82581860D02*
X261213955Y-82581860D01*
X263594907Y-83248526D02*
X263880621Y-83343764D01*
X264356812Y-83343764D01*
X264547288Y-83248526D01*
X264642526Y-83153288D01*
X264737764Y-82962812D01*
X264737764Y-82772336D01*
X264642526Y-82581860D01*
X264547288Y-82486622D01*
X264356812Y-82391383D01*
X263975859Y-82296145D01*
X263785383Y-82200907D01*
X263690145Y-82105669D01*
X263594907Y-81915193D01*
X263594907Y-81724717D01*
X263690145Y-81534241D01*
X263785383Y-81439003D01*
X263975859Y-81343764D01*
X264452050Y-81343764D01*
X264737764Y-81439003D01*
X265309193Y-82010431D02*
X266071097Y-82010431D01*
X265594907Y-81343764D02*
X265594907Y-83058050D01*
X265690145Y-83248526D01*
X265880621Y-83343764D01*
X266071097Y-83343764D01*
X267499669Y-83248526D02*
X267309193Y-83343764D01*
X266928240Y-83343764D01*
X266737764Y-83248526D01*
X266642526Y-83058050D01*
X266642526Y-82296145D01*
X266737764Y-82105669D01*
X266928240Y-82010431D01*
X267309193Y-82010431D01*
X267499669Y-82105669D01*
X267594907Y-82296145D01*
X267594907Y-82486622D01*
X266642526Y-82677098D01*
X267309193Y-81248526D02*
X267023478Y-81534241D01*
X268452050Y-82010431D02*
X268452050Y-84010431D01*
X268452050Y-82105669D02*
X268642526Y-82010431D01*
X269023478Y-82010431D01*
X269213955Y-82105669D01*
X269309193Y-82200907D01*
X269404431Y-82391383D01*
X269404431Y-82962812D01*
X269309193Y-83153288D01*
X269213955Y-83248526D01*
X269023478Y-83343764D01*
X268642526Y-83343764D01*
X268452050Y-83248526D01*
X270261574Y-83343764D02*
X270261574Y-81343764D01*
X271118716Y-83343764D02*
X271118716Y-82296145D01*
X271023478Y-82105669D01*
X270833002Y-82010431D01*
X270547288Y-82010431D01*
X270356812Y-82105669D01*
X270261574Y-82200907D01*
X272928240Y-83343764D02*
X272928240Y-82296145D01*
X272833002Y-82105669D01*
X272642526Y-82010431D01*
X272261574Y-82010431D01*
X272071097Y-82105669D01*
X272928240Y-83248526D02*
X272737764Y-83343764D01*
X272261574Y-83343764D01*
X272071097Y-83248526D01*
X271975859Y-83058050D01*
X271975859Y-82867574D01*
X272071097Y-82677098D01*
X272261574Y-82581860D01*
X272737764Y-82581860D01*
X272928240Y-82486622D01*
X273880621Y-82010431D02*
X273880621Y-83343764D01*
X273880621Y-82200907D02*
X273975859Y-82105669D01*
X274166335Y-82010431D01*
X274452050Y-82010431D01*
X274642526Y-82105669D01*
X274737764Y-82296145D01*
X274737764Y-83343764D01*
X276452050Y-83248526D02*
X276261574Y-83343764D01*
X275880621Y-83343764D01*
X275690145Y-83248526D01*
X275594907Y-83058050D01*
X275594907Y-82296145D01*
X275690145Y-82105669D01*
X275880621Y-82010431D01*
X276261574Y-82010431D01*
X276452050Y-82105669D01*
X276547288Y-82296145D01*
X276547288Y-82486622D01*
X275594907Y-82677098D01*
X278928240Y-83343764D02*
X278928240Y-81343764D01*
X279594907Y-82772336D01*
X280261574Y-81343764D01*
X280261574Y-83343764D01*
X282071097Y-83343764D02*
X282071097Y-82296145D01*
X281975859Y-82105669D01*
X281785383Y-82010431D01*
X281404431Y-82010431D01*
X281213955Y-82105669D01*
X282071097Y-83248526D02*
X281880621Y-83343764D01*
X281404431Y-83343764D01*
X281213955Y-83248526D01*
X281118716Y-83058050D01*
X281118716Y-82867574D01*
X281213955Y-82677098D01*
X281404431Y-82581860D01*
X281880621Y-82581860D01*
X282071097Y-82486622D01*
X283023478Y-83343764D02*
X283023478Y-82010431D01*
X283023478Y-82391383D02*
X283118716Y-82200907D01*
X283213955Y-82105669D01*
X283404431Y-82010431D01*
X283594907Y-82010431D01*
X285118716Y-82010431D02*
X285118716Y-84010431D01*
X285118716Y-83248526D02*
X284928240Y-83343764D01*
X284547288Y-83343764D01*
X284356812Y-83248526D01*
X284261574Y-83153288D01*
X284166335Y-82962812D01*
X284166335Y-82391383D01*
X284261574Y-82200907D01*
X284356812Y-82105669D01*
X284547288Y-82010431D01*
X284928240Y-82010431D01*
X285118716Y-82105669D01*
X286928240Y-82010431D02*
X286928240Y-83343764D01*
X286071097Y-82010431D02*
X286071097Y-83058050D01*
X286166335Y-83248526D01*
X286356812Y-83343764D01*
X286642526Y-83343764D01*
X286833002Y-83248526D01*
X286928240Y-83153288D01*
X288642526Y-83248526D02*
X288452050Y-83343764D01*
X288071097Y-83343764D01*
X287880621Y-83248526D01*
X287785383Y-83058050D01*
X287785383Y-82296145D01*
X287880621Y-82105669D01*
X288071097Y-82010431D01*
X288452050Y-82010431D01*
X288642526Y-82105669D01*
X288737764Y-82296145D01*
X288737764Y-82486622D01*
X287785383Y-82677098D01*
X289499669Y-83248526D02*
X289690145Y-83343764D01*
X290071097Y-83343764D01*
X290261574Y-83248526D01*
X290356812Y-83058050D01*
X290356812Y-82962812D01*
X290261574Y-82772336D01*
X290071097Y-82677098D01*
X289785383Y-82677098D01*
X289594907Y-82581860D01*
X289499669Y-82391383D01*
X289499669Y-82296145D01*
X289594907Y-82105669D01*
X289785383Y-82010431D01*
X290071097Y-82010431D01*
X290261574Y-82105669D01*
X292737764Y-82581860D02*
X294261574Y-82581860D01*
X297309193Y-81343764D02*
X297309193Y-82772336D01*
X297213954Y-83058050D01*
X297023478Y-83248526D01*
X296737764Y-83343764D01*
X296547288Y-83343764D01*
X299118716Y-82010431D02*
X299118716Y-83343764D01*
X298261574Y-82010431D02*
X298261574Y-83058050D01*
X298356812Y-83248526D01*
X298547288Y-83343764D01*
X298833002Y-83343764D01*
X299023478Y-83248526D01*
X299118716Y-83153288D01*
X300356812Y-83343764D02*
X300166335Y-83248526D01*
X300071097Y-83058050D01*
X300071097Y-81343764D01*
X301118716Y-83343764D02*
X301118716Y-82010431D01*
X301118716Y-81343764D02*
X301023478Y-81439003D01*
X301118716Y-81534241D01*
X301213954Y-81439003D01*
X301118716Y-81343764D01*
X301118716Y-81534241D01*
X302833002Y-83248526D02*
X302642526Y-83343764D01*
X302261574Y-83343764D01*
X302071097Y-83248526D01*
X301975859Y-83058050D01*
X301975859Y-82296145D01*
X302071097Y-82105669D01*
X302261574Y-82010431D01*
X302642526Y-82010431D01*
X302833002Y-82105669D01*
X302928240Y-82296145D01*
X302928240Y-82486622D01*
X301975859Y-82677098D01*
X303785383Y-82010431D02*
X303785383Y-83343764D01*
X303785383Y-82200907D02*
X303880621Y-82105669D01*
X304071097Y-82010431D01*
X304356812Y-82010431D01*
X304547288Y-82105669D01*
X304642526Y-82296145D01*
X304642526Y-83343764D01*
X308261574Y-83153288D02*
X308166335Y-83248526D01*
X307880621Y-83343764D01*
X307690145Y-83343764D01*
X307404431Y-83248526D01*
X307213954Y-83058050D01*
X307118716Y-82867574D01*
X307023478Y-82486622D01*
X307023478Y-82200907D01*
X307118716Y-81819955D01*
X307213954Y-81629479D01*
X307404431Y-81439003D01*
X307690145Y-81343764D01*
X307880621Y-81343764D01*
X308166335Y-81439003D01*
X308261574Y-81534241D01*
X309404431Y-83343764D02*
X309213954Y-83248526D01*
X309118716Y-83153288D01*
X309023478Y-82962812D01*
X309023478Y-82391383D01*
X309118716Y-82200907D01*
X309213954Y-82105669D01*
X309404431Y-82010431D01*
X309690145Y-82010431D01*
X309880621Y-82105669D01*
X309975859Y-82200907D01*
X310071097Y-82391383D01*
X310071097Y-82962812D01*
X309975859Y-83153288D01*
X309880621Y-83248526D01*
X309690145Y-83343764D01*
X309404431Y-83343764D01*
X311785383Y-82010431D02*
X311785383Y-84010431D01*
X311785383Y-83248526D02*
X311594907Y-83343764D01*
X311213954Y-83343764D01*
X311023478Y-83248526D01*
X310928240Y-83153288D01*
X310833002Y-82962812D01*
X310833002Y-82391383D01*
X310928240Y-82200907D01*
X311023478Y-82105669D01*
X311213954Y-82010431D01*
X311594907Y-82010431D01*
X311785383Y-82105669D01*
X313594907Y-82010431D02*
X313594907Y-83343764D01*
X312737764Y-82010431D02*
X312737764Y-83058050D01*
X312833002Y-83248526D01*
X313023478Y-83343764D01*
X313309193Y-83343764D01*
X313499669Y-83248526D01*
X313594907Y-83153288D01*
X315309193Y-83248526D02*
X315118716Y-83343764D01*
X314737764Y-83343764D01*
X314547288Y-83248526D01*
X314452050Y-83058050D01*
X314452050Y-82296145D01*
X314547288Y-82105669D01*
X314737764Y-82010431D01*
X315118716Y-82010431D01*
X315309193Y-82105669D01*
X315404431Y-82296145D01*
X315404431Y-82486622D01*
X314452050Y-82677098D01*
X316547288Y-83343764D02*
X316356812Y-83248526D01*
X316261574Y-83058050D01*
X316261574Y-81343764D01*
X318071097Y-83248526D02*
X317880621Y-83343764D01*
X317499669Y-83343764D01*
X317309193Y-83248526D01*
X317213954Y-83058050D01*
X317213954Y-82296145D01*
X317309193Y-82105669D01*
X317499669Y-82010431D01*
X317880621Y-82010431D01*
X318071097Y-82105669D01*
X318166335Y-82296145D01*
X318166335Y-82486622D01*
X317213954Y-82677098D01*
X318737764Y-82010431D02*
X319499669Y-82010431D01*
X319023478Y-81343764D02*
X319023478Y-83058050D01*
X319118716Y-83248526D01*
X319309193Y-83343764D01*
X319499669Y-83343764D01*
X320166335Y-82581860D02*
X321690145Y-82581860D01*
X323690145Y-81439003D02*
X323499669Y-81343764D01*
X323213954Y-81343764D01*
X322928240Y-81439003D01*
X322737764Y-81629479D01*
X322642526Y-81819955D01*
X322547288Y-82200907D01*
X322547288Y-82486622D01*
X322642526Y-82867574D01*
X322737764Y-83058050D01*
X322928240Y-83248526D01*
X323213954Y-83343764D01*
X323404431Y-83343764D01*
X323690145Y-83248526D01*
X323785383Y-83153288D01*
X323785383Y-82486622D01*
X323404431Y-82486622D01*
X325499669Y-83343764D02*
X325499669Y-82296145D01*
X325404431Y-82105669D01*
X325213954Y-82010431D01*
X324833002Y-82010431D01*
X324642526Y-82105669D01*
X325499669Y-83248526D02*
X325309193Y-83343764D01*
X324833002Y-83343764D01*
X324642526Y-83248526D01*
X324547288Y-83058050D01*
X324547288Y-82867574D01*
X324642526Y-82677098D01*
X324833002Y-82581860D01*
X325309193Y-82581860D01*
X325499669Y-82486622D01*
X327309193Y-82010431D02*
X327309193Y-83343764D01*
X326452050Y-82010431D02*
X326452050Y-83058050D01*
X326547288Y-83248526D01*
X326737764Y-83343764D01*
X327023478Y-83343764D01*
X327213954Y-83248526D01*
X327309193Y-83153288D01*
X328261574Y-83343764D02*
X328261574Y-82010431D01*
X328261574Y-82200907D02*
X328356812Y-82105669D01*
X328547288Y-82010431D01*
X328833002Y-82010431D01*
X329023478Y-82105669D01*
X329118716Y-82296145D01*
X329118716Y-83343764D01*
X329118716Y-82296145D02*
X329213954Y-82105669D01*
X329404431Y-82010431D01*
X329690145Y-82010431D01*
X329880621Y-82105669D01*
X329975859Y-82296145D01*
X329975859Y-83343764D01*
X331690145Y-83248526D02*
X331499669Y-83343764D01*
X331118716Y-83343764D01*
X330928240Y-83248526D01*
X330833002Y-83058050D01*
X330833002Y-82296145D01*
X330928240Y-82105669D01*
X331118716Y-82010431D01*
X331499669Y-82010431D01*
X331690145Y-82105669D01*
X331785383Y-82296145D01*
X331785383Y-82486622D01*
X330833002Y-82677098D01*
X334166335Y-82581860D02*
X335690145Y-82581860D01*
X339118716Y-83343764D02*
X338166335Y-83343764D01*
X338166335Y-81343764D01*
X339785383Y-83343764D02*
X339785383Y-81343764D01*
X340547288Y-81343764D01*
X340737764Y-81439003D01*
X340833002Y-81534241D01*
X340928240Y-81724717D01*
X340928240Y-82010431D01*
X340833002Y-82200907D01*
X340737764Y-82296145D01*
X340547288Y-82391383D01*
X339785383Y-82391383D01*
X342928240Y-83343764D02*
X342261574Y-82391383D01*
X341785383Y-83343764D02*
X341785383Y-81343764D01*
X342547288Y-81343764D01*
X342737764Y-81439003D01*
X342833002Y-81534241D01*
X342928240Y-81724717D01*
X342928240Y-82010431D01*
X342833002Y-82200907D01*
X342737764Y-82296145D01*
X342547288Y-82391383D01*
X341785383Y-82391383D01*
X344166335Y-81343764D02*
X344547288Y-81343764D01*
X344737764Y-81439003D01*
X344928240Y-81629479D01*
X345023478Y-82010431D01*
X345023478Y-82677098D01*
X344928240Y-83058050D01*
X344737764Y-83248526D01*
X344547288Y-83343764D01*
X344166335Y-83343764D01*
X343975859Y-83248526D01*
X343785383Y-83058050D01*
X343690145Y-82677098D01*
X343690145Y-82010431D01*
X343785383Y-81629479D01*
X343975859Y-81439003D01*
X344166335Y-81343764D01*
X347404431Y-83343764D02*
X347404431Y-81343764D01*
X348071097Y-82772336D01*
X348737764Y-81343764D01*
X348737764Y-83343764D01*
X349690145Y-82296145D02*
X350356812Y-82296145D01*
X350642526Y-83343764D02*
X349690145Y-83343764D01*
X349690145Y-81343764D01*
X350642526Y-81343764D01*
X352642526Y-83153288D02*
X352547288Y-83248526D01*
X352261574Y-83343764D01*
X352071097Y-83343764D01*
X351785383Y-83248526D01*
X351594907Y-83058050D01*
X351499669Y-82867574D01*
X351404431Y-82486622D01*
X351404431Y-82200907D01*
X351499669Y-81819955D01*
X351594907Y-81629479D01*
X351785383Y-81439003D01*
X352071097Y-81343764D01*
X352261574Y-81343764D01*
X352547288Y-81439003D01*
X352642526Y-81534241D01*
X353404431Y-83248526D02*
X353690145Y-83343764D01*
X354166335Y-83343764D01*
X354356812Y-83248526D01*
X354452050Y-83153288D01*
X354547288Y-82962812D01*
X354547288Y-82772336D01*
X354452050Y-82581860D01*
X354356812Y-82486622D01*
X354166335Y-82391383D01*
X353785383Y-82296145D01*
X353594907Y-82200907D01*
X353499669Y-82105669D01*
X353404431Y-81915193D01*
X353404431Y-81724717D01*
X353499669Y-81534241D01*
X353594907Y-81439003D01*
X353785383Y-81343764D01*
X354261574Y-81343764D01*
X354547288Y-81439003D01*
X355404431Y-82296145D02*
X356071097Y-82296145D01*
X356356812Y-83343764D02*
X355404431Y-83343764D01*
X355404431Y-81343764D01*
X356356812Y-81343764D01*
X358642526Y-81534241D02*
X358737764Y-81439003D01*
X358928240Y-81343764D01*
X359404431Y-81343764D01*
X359594907Y-81439003D01*
X359690145Y-81534241D01*
X359785383Y-81724717D01*
X359785383Y-81915193D01*
X359690145Y-82200907D01*
X358547288Y-83343764D01*
X359785383Y-83343764D01*
X361023478Y-81343764D02*
X361213955Y-81343764D01*
X361404431Y-81439003D01*
X361499669Y-81534241D01*
X361594907Y-81724717D01*
X361690145Y-82105669D01*
X361690145Y-82581860D01*
X361594907Y-82962812D01*
X361499669Y-83153288D01*
X361404431Y-83248526D01*
X361213955Y-83343764D01*
X361023478Y-83343764D01*
X360833002Y-83248526D01*
X360737764Y-83153288D01*
X360642526Y-82962812D01*
X360547288Y-82581860D01*
X360547288Y-82105669D01*
X360642526Y-81724717D01*
X360737764Y-81534241D01*
X360833002Y-81439003D01*
X361023478Y-81343764D01*
X362452050Y-81534241D02*
X362547288Y-81439003D01*
X362737764Y-81343764D01*
X363213955Y-81343764D01*
X363404431Y-81439003D01*
X363499669Y-81534241D01*
X363594907Y-81724717D01*
X363594907Y-81915193D01*
X363499669Y-82200907D01*
X362356812Y-83343764D01*
X363594907Y-83343764D01*
X364833002Y-81343764D02*
X365023478Y-81343764D01*
X365213955Y-81439003D01*
X365309193Y-81534241D01*
X365404431Y-81724717D01*
X365499669Y-82105669D01*
X365499669Y-82581860D01*
X365404431Y-82962812D01*
X365309193Y-83153288D01*
X365213955Y-83248526D01*
X365023478Y-83343764D01*
X364833002Y-83343764D01*
X364642526Y-83248526D01*
X364547288Y-83153288D01*
X364452050Y-82962812D01*
X364356812Y-82581860D01*
X364356812Y-82105669D01*
X364452050Y-81724717D01*
X364547288Y-81534241D01*
X364642526Y-81439003D01*
X364833002Y-81343764D01*
D11*
X110068669Y-89919955D02*
X108878193Y-89919955D01*
X108878193Y-87419955D01*
X110902002Y-88610431D02*
X111735335Y-88610431D01*
X112092478Y-89919955D02*
X110902002Y-89919955D01*
X110902002Y-87419955D01*
X112092478Y-87419955D01*
X113163907Y-89919955D02*
X113163907Y-87419955D01*
X113759145Y-87419955D01*
X114116288Y-87539003D01*
X114354383Y-87777098D01*
X114473431Y-88015193D01*
X114592478Y-88491383D01*
X114592478Y-88848526D01*
X114473431Y-89324717D01*
X114354383Y-89562812D01*
X114116288Y-89800907D01*
X113759145Y-89919955D01*
X113163907Y-89919955D01*
X117568669Y-89919955D02*
X117568669Y-87419955D01*
X117568669Y-88372336D02*
X117806764Y-88253288D01*
X118282955Y-88253288D01*
X118521050Y-88372336D01*
X118640097Y-88491383D01*
X118759145Y-88729479D01*
X118759145Y-89443764D01*
X118640097Y-89681860D01*
X118521050Y-89800907D01*
X118282955Y-89919955D01*
X117806764Y-89919955D01*
X117568669Y-89800907D01*
X120187716Y-89919955D02*
X119949621Y-89800907D01*
X119830574Y-89681860D01*
X119711526Y-89443764D01*
X119711526Y-88729479D01*
X119830574Y-88491383D01*
X119949621Y-88372336D01*
X120187716Y-88253288D01*
X120544859Y-88253288D01*
X120782955Y-88372336D01*
X120902002Y-88491383D01*
X121021050Y-88729479D01*
X121021050Y-89443764D01*
X120902002Y-89681860D01*
X120782955Y-89800907D01*
X120544859Y-89919955D01*
X120187716Y-89919955D01*
X123163907Y-89919955D02*
X123163907Y-88610431D01*
X123044859Y-88372336D01*
X122806764Y-88253288D01*
X122330574Y-88253288D01*
X122092478Y-88372336D01*
X123163907Y-89800907D02*
X122925812Y-89919955D01*
X122330574Y-89919955D01*
X122092478Y-89800907D01*
X121973431Y-89562812D01*
X121973431Y-89324717D01*
X122092478Y-89086622D01*
X122330574Y-88967574D01*
X122925812Y-88967574D01*
X123163907Y-88848526D01*
X124354383Y-89919955D02*
X124354383Y-88253288D01*
X124354383Y-88729479D02*
X124473431Y-88491383D01*
X124592478Y-88372336D01*
X124830574Y-88253288D01*
X125068669Y-88253288D01*
X126973431Y-89919955D02*
X126973431Y-87419955D01*
X126973431Y-89800907D02*
X126735335Y-89919955D01*
X126259145Y-89919955D01*
X126021050Y-89800907D01*
X125902002Y-89681860D01*
X125782955Y-89443764D01*
X125782955Y-88729479D01*
X125902002Y-88491383D01*
X126021050Y-88372336D01*
X126259145Y-88253288D01*
X126735335Y-88253288D01*
X126973431Y-88372336D01*
D12*
X108971431Y-85716907D02*
X108971431Y-80716907D01*
X110161907Y-80716907D01*
X110876193Y-80955003D01*
X111352383Y-81431193D01*
X111590478Y-81907383D01*
X111828574Y-82859764D01*
X111828574Y-83574050D01*
X111590478Y-84526431D01*
X111352383Y-85002622D01*
X110876193Y-85478812D01*
X110161907Y-85716907D01*
X108971431Y-85716907D01*
X115876193Y-85478812D02*
X115400002Y-85716907D01*
X114447621Y-85716907D01*
X113971431Y-85478812D01*
X113733335Y-85002622D01*
X113733335Y-83097860D01*
X113971431Y-82621669D01*
X114447621Y-82383574D01*
X115400002Y-82383574D01*
X115876193Y-82621669D01*
X116114288Y-83097860D01*
X116114288Y-83574050D01*
X113733335Y-84050241D01*
X118257145Y-85716907D02*
X118257145Y-82383574D01*
X118257145Y-82859764D02*
X118495240Y-82621669D01*
X118971431Y-82383574D01*
X119685716Y-82383574D01*
X120161907Y-82621669D01*
X120400002Y-83097860D01*
X120400002Y-85716907D01*
X120400002Y-83097860D02*
X120638097Y-82621669D01*
X121114288Y-82383574D01*
X121828574Y-82383574D01*
X122304764Y-82621669D01*
X122542859Y-83097860D01*
X122542859Y-85716907D01*
X125638097Y-85716907D02*
X125161907Y-85478812D01*
X124923812Y-85240717D01*
X124685716Y-84764526D01*
X124685716Y-83335955D01*
X124923812Y-82859764D01*
X125161907Y-82621669D01*
X125638097Y-82383574D01*
X126352383Y-82383574D01*
X126828574Y-82621669D01*
X127066669Y-82859764D01*
X127304764Y-83335955D01*
X127304764Y-84764526D01*
X127066669Y-85240717D01*
X126828574Y-85478812D01*
X126352383Y-85716907D01*
X125638097Y-85716907D01*
X129447621Y-85716907D02*
X129447621Y-80716907D01*
X132304764Y-85716907D01*
X132304764Y-80716907D01*
X134685716Y-85716907D02*
X134685716Y-82383574D01*
X134685716Y-80716907D02*
X134447621Y-80955003D01*
X134685716Y-81193098D01*
X134923812Y-80955003D01*
X134685716Y-80716907D01*
X134685716Y-81193098D01*
X136590478Y-85716907D02*
X139209526Y-82383574D01*
X136590478Y-82383574D02*
X139209526Y-85716907D01*
X141114288Y-85716907D02*
X141114288Y-82383574D01*
X141114288Y-80716907D02*
X140876193Y-80955003D01*
X141114288Y-81193098D01*
X141352383Y-80955003D01*
X141114288Y-80716907D01*
X141114288Y-81193098D01*
X145400002Y-85478812D02*
X144923812Y-85716907D01*
X143971431Y-85716907D01*
X143495240Y-85478812D01*
X143257145Y-85002622D01*
X143257145Y-83097860D01*
X143495240Y-82621669D01*
X143971431Y-82383574D01*
X144923812Y-82383574D01*
X145400002Y-82621669D01*
X145638097Y-83097860D01*
X145638097Y-83574050D01*
X143257145Y-84050241D01*
D10*
X307518371Y-136301571D02*
X306661228Y-136301571D01*
X307089800Y-136301571D02*
X307089800Y-134801571D01*
X306946942Y-135015857D01*
X306804085Y-135158714D01*
X306661228Y-135230142D01*
D13*
X176657000Y-109761201D02*
X180848000Y-109761201D01*
X176657000Y-107983201D02*
X180848000Y-107983201D01*
D14*
X154432399Y-108512000D02*
X154432399Y-108982061D01*
X154432399Y-113866000D02*
X155302459Y-113866000D01*
X163786401Y-113866000D02*
X163786401Y-113395939D01*
X163786401Y-108512000D02*
X162916341Y-108512000D01*
X155302459Y-108512000D02*
X154432399Y-108512000D01*
X154432399Y-113395939D02*
X154432399Y-113866000D01*
X162916338Y-113866000D02*
X163786401Y-113866000D01*
X163786401Y-108982061D02*
X163786401Y-108512000D01*
X159099900Y-107826200D02*
X158718900Y-107826200D01*
X158718900Y-107826200D02*
X158718900Y-108080200D01*
X158718900Y-108080200D02*
X159099900Y-108080200D01*
X159099900Y-108080200D02*
X159099900Y-107826200D01*
X154000599Y-109598500D02*
X153746599Y-109598500D01*
X153746599Y-109598500D02*
X153746599Y-109979500D01*
X153746599Y-109979500D02*
X154000599Y-109979500D01*
X154000599Y-109979500D02*
X154000599Y-109598500D01*
X156299901Y-114551800D02*
X155918901Y-114551800D01*
X155918901Y-114551800D02*
X155918901Y-114297800D01*
X155918901Y-114297800D02*
X156299901Y-114297800D01*
X156299901Y-114297800D02*
X156299901Y-114551800D01*
X160299901Y-114551800D02*
X159918901Y-114551800D01*
X159918901Y-114551800D02*
X159918901Y-114297800D01*
X159918901Y-114297800D02*
X160299901Y-114297800D01*
X160299901Y-114297800D02*
X160299901Y-114551800D01*
X164218201Y-111598499D02*
X164472201Y-111598499D01*
X164472201Y-111598499D02*
X164472201Y-111979499D01*
X164472201Y-111979499D02*
X164218201Y-111979499D01*
X164218201Y-111979499D02*
X164218201Y-111598499D01*
D13*
X167782000Y-106121201D02*
X167782000Y-107521201D01*
X172882000Y-106121201D02*
X172882000Y-101971201D01*
X167732000Y-106121201D02*
X167732000Y-101971201D01*
X172882000Y-106121201D02*
X172737000Y-106121201D01*
X172882000Y-101971201D02*
X172737000Y-101971201D01*
X167732000Y-101971201D02*
X167877000Y-101971201D01*
X167732000Y-106121201D02*
X167782000Y-106121201D01*
D15*
X221219798Y-121802998D02*
G75*
G03X221219798Y-121802998I-950000J0D01*
G01*
X215898000Y-106127733D02*
X215898000Y-106470267D01*
X216918000Y-106127733D02*
X216918000Y-106470267D01*
X215648000Y-116903468D02*
X215648000Y-116560934D01*
X214628000Y-116903468D02*
X214628000Y-116560934D01*
D13*
X226695000Y-107983201D02*
X230886000Y-107983201D01*
X226695000Y-109761201D02*
X230886000Y-109761201D01*
D15*
X218823000Y-112312267D02*
X218823000Y-111969733D01*
X217803000Y-112312267D02*
X217803000Y-111969733D01*
X151382000Y-110139267D02*
X151382000Y-109796733D01*
X152402000Y-110139267D02*
X152402000Y-109796733D01*
X216918000Y-112298267D02*
X216918000Y-111955733D01*
X215898000Y-112298267D02*
X215898000Y-111955733D01*
D13*
X217770000Y-106121201D02*
X217820000Y-106121201D01*
X217770000Y-101971201D02*
X217915000Y-101971201D01*
X222920000Y-101971201D02*
X222775000Y-101971201D01*
X222920000Y-106121201D02*
X222775000Y-106121201D01*
X217770000Y-106121201D02*
X217770000Y-101971201D01*
X222920000Y-106121201D02*
X222920000Y-101971201D01*
X217820000Y-106121201D02*
X217820000Y-107521201D01*
D15*
X171181798Y-121802998D02*
G75*
G03X171181798Y-121802998I-950000J0D01*
G01*
D13*
X170617000Y-110452201D02*
X177617000Y-110452201D01*
X170617000Y-117452201D02*
X177617000Y-117452201D01*
X177617000Y-117452201D02*
X177617000Y-110452201D01*
X170617000Y-117452201D02*
X170617000Y-110452201D01*
X177469896Y-113952201D02*
G75*
G03X177469896Y-113952201I-3352896J0D01*
G01*
D15*
X212723000Y-116541733D02*
X212723000Y-116884267D01*
X213743000Y-116541733D02*
X213743000Y-116884267D01*
X163832000Y-105746733D02*
X163832000Y-106089267D01*
X162812000Y-105746733D02*
X162812000Y-106089267D01*
X165860000Y-112298267D02*
X165860000Y-111955733D01*
X166880000Y-112298267D02*
X166880000Y-111955733D01*
X189002000Y-110591000D02*
X185152000Y-110591000D01*
X178282000Y-110591000D02*
X182132000Y-110591000D01*
X178282000Y-120246563D02*
X178282000Y-110591000D01*
X189002000Y-120246563D02*
X189002000Y-110591000D01*
X187937563Y-121311000D02*
X185152000Y-121311000D01*
X179346437Y-121311000D02*
X182132000Y-121311000D01*
X179346437Y-121311000D02*
X178282000Y-120246563D01*
X187937563Y-121311000D02*
X189002000Y-120246563D01*
X180882000Y-122801000D02*
X180882000Y-121551000D01*
X180257000Y-122176000D02*
X181507000Y-122176000D01*
X225427000Y-101296468D02*
X225427000Y-100953934D01*
X224407000Y-101296468D02*
X224407000Y-100953934D01*
X168879733Y-108870201D02*
X169222267Y-108870201D01*
X168879733Y-109890201D02*
X169222267Y-109890201D01*
X164590000Y-116903468D02*
X164590000Y-116560934D01*
X165610000Y-116903468D02*
X165610000Y-116560934D01*
D13*
X227507896Y-113952201D02*
G75*
G03X227507896Y-113952201I-3352896J0D01*
G01*
X220655000Y-117452201D02*
X220655000Y-110452201D01*
X227655000Y-117452201D02*
X227655000Y-110452201D01*
X220655000Y-117452201D02*
X227655000Y-117452201D01*
X220655000Y-110452201D02*
X227655000Y-110452201D01*
D15*
X167515000Y-116560934D02*
X167515000Y-116903468D01*
X166495000Y-116560934D02*
X166495000Y-116903468D01*
X167765000Y-112312267D02*
X167765000Y-111969733D01*
X168785000Y-112312267D02*
X168785000Y-111969733D01*
X234169000Y-107456201D02*
X234169000Y-105106201D01*
X234169000Y-100636201D02*
X234169000Y-102986201D01*
X228413437Y-100636201D02*
X234169000Y-100636201D01*
X228413437Y-107456201D02*
X234169000Y-107456201D01*
X227349000Y-106391764D02*
X227349000Y-105106201D01*
X227349000Y-101700638D02*
X227349000Y-102986201D01*
X227349000Y-101700638D02*
X228413437Y-100636201D01*
X227349000Y-106391764D02*
X228413437Y-107456201D01*
X226321500Y-102198701D02*
X227109000Y-102198701D01*
X226715250Y-101804951D02*
X226715250Y-102592451D01*
X212850000Y-105746733D02*
X212850000Y-106089267D01*
X213870000Y-105746733D02*
X213870000Y-106089267D01*
X176677250Y-101804951D02*
X176677250Y-102592451D01*
X176283500Y-102198701D02*
X177071000Y-102198701D01*
X177311000Y-106391764D02*
X178375437Y-107456201D01*
X177311000Y-101700638D02*
X178375437Y-100636201D01*
X177311000Y-101700638D02*
X177311000Y-102986201D01*
X177311000Y-106391764D02*
X177311000Y-105106201D01*
X178375437Y-107456201D02*
X184131000Y-107456201D01*
X178375437Y-100636201D02*
X184131000Y-100636201D01*
X184131000Y-100636201D02*
X184131000Y-102986201D01*
X184131000Y-107456201D02*
X184131000Y-105106201D01*
X163705000Y-116541733D02*
X163705000Y-116884267D01*
X162685000Y-116541733D02*
X162685000Y-116884267D01*
X218917733Y-109890201D02*
X219260267Y-109890201D01*
X218917733Y-108870201D02*
X219260267Y-108870201D01*
X174369000Y-101296468D02*
X174369000Y-100953934D01*
X175389000Y-101296468D02*
X175389000Y-100953934D01*
X166880000Y-106127733D02*
X166880000Y-106470267D01*
X165860000Y-106127733D02*
X165860000Y-106470267D01*
X202440000Y-110139267D02*
X202440000Y-109796733D01*
X201420000Y-110139267D02*
X201420000Y-109796733D01*
X230295000Y-122176000D02*
X231545000Y-122176000D01*
X230920000Y-122801000D02*
X230920000Y-121551000D01*
X237975563Y-121311000D02*
X239040000Y-120246563D01*
X229384437Y-121311000D02*
X228320000Y-120246563D01*
X229384437Y-121311000D02*
X232170000Y-121311000D01*
X237975563Y-121311000D02*
X235190000Y-121311000D01*
X239040000Y-120246563D02*
X239040000Y-110591000D01*
X228320000Y-120246563D02*
X228320000Y-110591000D01*
X228320000Y-110591000D02*
X232170000Y-110591000D01*
X239040000Y-110591000D02*
X235190000Y-110591000D01*
X216533000Y-116560934D02*
X216533000Y-116903468D01*
X217553000Y-116560934D02*
X217553000Y-116903468D01*
D14*
X214256201Y-111979499D02*
X214256201Y-111598499D01*
X214510201Y-111979499D02*
X214256201Y-111979499D01*
X214510201Y-111598499D02*
X214510201Y-111979499D01*
X214256201Y-111598499D02*
X214510201Y-111598499D01*
X210337901Y-114297800D02*
X210337901Y-114551800D01*
X209956901Y-114297800D02*
X210337901Y-114297800D01*
X209956901Y-114551800D02*
X209956901Y-114297800D01*
X210337901Y-114551800D02*
X209956901Y-114551800D01*
X206337901Y-114297800D02*
X206337901Y-114551800D01*
X205956901Y-114297800D02*
X206337901Y-114297800D01*
X205956901Y-114551800D02*
X205956901Y-114297800D01*
X206337901Y-114551800D02*
X205956901Y-114551800D01*
X204038599Y-109979500D02*
X204038599Y-109598500D01*
X203784599Y-109979500D02*
X204038599Y-109979500D01*
X203784599Y-109598500D02*
X203784599Y-109979500D01*
X204038599Y-109598500D02*
X203784599Y-109598500D01*
X209137900Y-108080200D02*
X209137900Y-107826200D01*
X208756900Y-108080200D02*
X209137900Y-108080200D01*
X208756900Y-107826200D02*
X208756900Y-108080200D01*
X209137900Y-107826200D02*
X208756900Y-107826200D01*
X213824401Y-108982061D02*
X213824401Y-108512000D01*
X212954338Y-113866000D02*
X213824401Y-113866000D01*
X204470399Y-113395939D02*
X204470399Y-113866000D01*
X205340459Y-108512000D02*
X204470399Y-108512000D01*
X213824401Y-108512000D02*
X212954341Y-108512000D01*
X213824401Y-113866000D02*
X213824401Y-113395939D01*
X204470399Y-113866000D02*
X205340459Y-113866000D01*
X204470399Y-108512000D02*
X204470399Y-108982061D01*
D15*
X296022798Y-121802998D02*
G75*
G03X296022798Y-121802998I-950000J0D01*
G01*
X290701000Y-106127733D02*
X290701000Y-106470267D01*
X291721000Y-106127733D02*
X291721000Y-106470267D01*
X290451000Y-116903468D02*
X290451000Y-116560934D01*
X289431000Y-116903468D02*
X289431000Y-116560934D01*
D13*
X301498000Y-107983201D02*
X305689000Y-107983201D01*
X301498000Y-109761201D02*
X305689000Y-109761201D01*
D15*
X293626000Y-112312267D02*
X293626000Y-111969733D01*
X292606000Y-112312267D02*
X292606000Y-111969733D01*
X291721000Y-112298267D02*
X291721000Y-111955733D01*
X290701000Y-112298267D02*
X290701000Y-111955733D01*
D13*
X292573000Y-106121201D02*
X292623000Y-106121201D01*
X292573000Y-101971201D02*
X292718000Y-101971201D01*
X297723000Y-101971201D02*
X297578000Y-101971201D01*
X297723000Y-106121201D02*
X297578000Y-106121201D01*
X292573000Y-106121201D02*
X292573000Y-101971201D01*
X297723000Y-106121201D02*
X297723000Y-101971201D01*
X292623000Y-106121201D02*
X292623000Y-107521201D01*
D15*
X287526000Y-116541733D02*
X287526000Y-116884267D01*
X288546000Y-116541733D02*
X288546000Y-116884267D01*
X300230000Y-101296468D02*
X300230000Y-100953934D01*
X299210000Y-101296468D02*
X299210000Y-100953934D01*
D13*
X302310896Y-113952201D02*
G75*
G03X302310896Y-113952201I-3352896J0D01*
G01*
X295458000Y-117452201D02*
X295458000Y-110452201D01*
X302458000Y-117452201D02*
X302458000Y-110452201D01*
X295458000Y-117452201D02*
X302458000Y-117452201D01*
X295458000Y-110452201D02*
X302458000Y-110452201D01*
D15*
X308972000Y-107456201D02*
X308972000Y-105106201D01*
X308972000Y-100636201D02*
X308972000Y-102986201D01*
X303216437Y-100636201D02*
X308972000Y-100636201D01*
X303216437Y-107456201D02*
X308972000Y-107456201D01*
X302152000Y-106391764D02*
X302152000Y-105106201D01*
X302152000Y-101700638D02*
X302152000Y-102986201D01*
X302152000Y-101700638D02*
X303216437Y-100636201D01*
X302152000Y-106391764D02*
X303216437Y-107456201D01*
X301124500Y-102198701D02*
X301912000Y-102198701D01*
X301518250Y-101804951D02*
X301518250Y-102592451D01*
X287653000Y-105746733D02*
X287653000Y-106089267D01*
X288673000Y-105746733D02*
X288673000Y-106089267D01*
X293720733Y-109890201D02*
X294063267Y-109890201D01*
X293720733Y-108870201D02*
X294063267Y-108870201D01*
X277243000Y-110139267D02*
X277243000Y-109796733D01*
X276223000Y-110139267D02*
X276223000Y-109796733D01*
X305098000Y-122176000D02*
X306348000Y-122176000D01*
X305723000Y-122801000D02*
X305723000Y-121551000D01*
X312778563Y-121311000D02*
X313843000Y-120246563D01*
X304187437Y-121311000D02*
X303123000Y-120246563D01*
X304187437Y-121311000D02*
X306973000Y-121311000D01*
X312778563Y-121311000D02*
X309993000Y-121311000D01*
X313843000Y-120246563D02*
X313843000Y-110591000D01*
X303123000Y-120246563D02*
X303123000Y-110591000D01*
X303123000Y-110591000D02*
X306973000Y-110591000D01*
X313843000Y-110591000D02*
X309993000Y-110591000D01*
X291336000Y-116560934D02*
X291336000Y-116903468D01*
X292356000Y-116560934D02*
X292356000Y-116903468D01*
D14*
X289059201Y-111979499D02*
X289059201Y-111598499D01*
X289313201Y-111979499D02*
X289059201Y-111979499D01*
X289313201Y-111598499D02*
X289313201Y-111979499D01*
X289059201Y-111598499D02*
X289313201Y-111598499D01*
X285140901Y-114297800D02*
X285140901Y-114551800D01*
X284759901Y-114297800D02*
X285140901Y-114297800D01*
X284759901Y-114551800D02*
X284759901Y-114297800D01*
X285140901Y-114551800D02*
X284759901Y-114551800D01*
X281140901Y-114297800D02*
X281140901Y-114551800D01*
X280759901Y-114297800D02*
X281140901Y-114297800D01*
X280759901Y-114551800D02*
X280759901Y-114297800D01*
X281140901Y-114551800D02*
X280759901Y-114551800D01*
X278841599Y-109979500D02*
X278841599Y-109598500D01*
X278587599Y-109979500D02*
X278841599Y-109979500D01*
X278587599Y-109598500D02*
X278587599Y-109979500D01*
X278841599Y-109598500D02*
X278587599Y-109598500D01*
X283940900Y-108080200D02*
X283940900Y-107826200D01*
X283559900Y-108080200D02*
X283940900Y-108080200D01*
X283559900Y-107826200D02*
X283559900Y-108080200D01*
X283940900Y-107826200D02*
X283559900Y-107826200D01*
X288627401Y-108982061D02*
X288627401Y-108512000D01*
X287757338Y-113866000D02*
X288627401Y-113866000D01*
X279273399Y-113395939D02*
X279273399Y-113866000D01*
X280143459Y-108512000D02*
X279273399Y-108512000D01*
X288627401Y-108512000D02*
X287757341Y-108512000D01*
X288627401Y-113866000D02*
X288627401Y-113395939D01*
X279273399Y-113866000D02*
X280143459Y-113866000D01*
X279273399Y-108512000D02*
X279273399Y-108982061D01*
D13*
X345496000Y-110452201D02*
X352496000Y-110452201D01*
X345496000Y-117452201D02*
X352496000Y-117452201D01*
X352496000Y-117452201D02*
X352496000Y-110452201D01*
X345496000Y-117452201D02*
X345496000Y-110452201D01*
X352348896Y-113952201D02*
G75*
G03X352348896Y-113952201I-3352896J0D01*
G01*
D14*
X329311399Y-108512000D02*
X329311399Y-108982061D01*
X329311399Y-113866000D02*
X330181459Y-113866000D01*
X338665401Y-113866000D02*
X338665401Y-113395939D01*
X338665401Y-108512000D02*
X337795341Y-108512000D01*
X330181459Y-108512000D02*
X329311399Y-108512000D01*
X329311399Y-113395939D02*
X329311399Y-113866000D01*
X337795338Y-113866000D02*
X338665401Y-113866000D01*
X338665401Y-108982061D02*
X338665401Y-108512000D01*
X333978900Y-107826200D02*
X333597900Y-107826200D01*
X333597900Y-107826200D02*
X333597900Y-108080200D01*
X333597900Y-108080200D02*
X333978900Y-108080200D01*
X333978900Y-108080200D02*
X333978900Y-107826200D01*
X328879599Y-109598500D02*
X328625599Y-109598500D01*
X328625599Y-109598500D02*
X328625599Y-109979500D01*
X328625599Y-109979500D02*
X328879599Y-109979500D01*
X328879599Y-109979500D02*
X328879599Y-109598500D01*
X331178901Y-114551800D02*
X330797901Y-114551800D01*
X330797901Y-114551800D02*
X330797901Y-114297800D01*
X330797901Y-114297800D02*
X331178901Y-114297800D01*
X331178901Y-114297800D02*
X331178901Y-114551800D01*
X335178901Y-114551800D02*
X334797901Y-114551800D01*
X334797901Y-114551800D02*
X334797901Y-114297800D01*
X334797901Y-114297800D02*
X335178901Y-114297800D01*
X335178901Y-114297800D02*
X335178901Y-114551800D01*
X339097201Y-111598499D02*
X339351201Y-111598499D01*
X339351201Y-111598499D02*
X339351201Y-111979499D01*
X339351201Y-111979499D02*
X339097201Y-111979499D01*
X339097201Y-111979499D02*
X339097201Y-111598499D01*
D15*
X351556250Y-101804951D02*
X351556250Y-102592451D01*
X351162500Y-102198701D02*
X351950000Y-102198701D01*
X352190000Y-106391764D02*
X353254437Y-107456201D01*
X352190000Y-101700638D02*
X353254437Y-100636201D01*
X352190000Y-101700638D02*
X352190000Y-102986201D01*
X352190000Y-106391764D02*
X352190000Y-105106201D01*
X353254437Y-107456201D02*
X359010000Y-107456201D01*
X353254437Y-100636201D02*
X359010000Y-100636201D01*
X359010000Y-100636201D02*
X359010000Y-102986201D01*
X359010000Y-107456201D02*
X359010000Y-105106201D01*
X363881000Y-110591000D02*
X360031000Y-110591000D01*
X353161000Y-110591000D02*
X357011000Y-110591000D01*
X353161000Y-120246563D02*
X353161000Y-110591000D01*
X363881000Y-120246563D02*
X363881000Y-110591000D01*
X362816563Y-121311000D02*
X360031000Y-121311000D01*
X354225437Y-121311000D02*
X357011000Y-121311000D01*
X354225437Y-121311000D02*
X353161000Y-120246563D01*
X362816563Y-121311000D02*
X363881000Y-120246563D01*
X355761000Y-122801000D02*
X355761000Y-121551000D01*
X355136000Y-122176000D02*
X356386000Y-122176000D01*
D13*
X351536000Y-109761201D02*
X355727000Y-109761201D01*
X351536000Y-107983201D02*
X355727000Y-107983201D01*
X342661000Y-106121201D02*
X342661000Y-107521201D01*
X347761000Y-106121201D02*
X347761000Y-101971201D01*
X342611000Y-106121201D02*
X342611000Y-101971201D01*
X347761000Y-106121201D02*
X347616000Y-106121201D01*
X347761000Y-101971201D02*
X347616000Y-101971201D01*
X342611000Y-101971201D02*
X342756000Y-101971201D01*
X342611000Y-106121201D02*
X342661000Y-106121201D01*
D15*
X341759000Y-106127733D02*
X341759000Y-106470267D01*
X340739000Y-106127733D02*
X340739000Y-106470267D01*
X340739000Y-112298267D02*
X340739000Y-111955733D01*
X341759000Y-112298267D02*
X341759000Y-111955733D01*
X343758733Y-108870201D02*
X344101267Y-108870201D01*
X343758733Y-109890201D02*
X344101267Y-109890201D01*
X342394000Y-116560934D02*
X342394000Y-116903468D01*
X341374000Y-116560934D02*
X341374000Y-116903468D01*
X339469000Y-116903468D02*
X339469000Y-116560934D01*
X340489000Y-116903468D02*
X340489000Y-116560934D01*
X338584000Y-116541733D02*
X338584000Y-116884267D01*
X337564000Y-116541733D02*
X337564000Y-116884267D01*
X342644000Y-112312267D02*
X342644000Y-111969733D01*
X343664000Y-112312267D02*
X343664000Y-111969733D01*
X338711000Y-105746733D02*
X338711000Y-106089267D01*
X337691000Y-105746733D02*
X337691000Y-106089267D01*
X326261000Y-110139267D02*
X326261000Y-109796733D01*
X327281000Y-110139267D02*
X327281000Y-109796733D01*
X308085800Y-135572000D02*
X308085800Y-128572000D01*
X308085800Y-128572000D02*
X341185800Y-128572000D01*
X341185800Y-128572000D02*
X341185800Y-136872000D01*
X341185800Y-136872000D02*
X309385800Y-136872000D01*
X349248000Y-101296468D02*
X349248000Y-100953934D01*
X350268000Y-101296468D02*
X350268000Y-100953934D01*
X346060798Y-121802998D02*
G75*
G03X346060798Y-121802998I-950000J0D01*
G01*
X350882000Y-136703048D02*
X350882000Y-134353048D01*
X350882000Y-129883048D02*
X350882000Y-132233048D01*
X345126437Y-129883048D02*
X350882000Y-129883048D01*
X345126437Y-136703048D02*
X350882000Y-136703048D01*
X344062000Y-135638611D02*
X344062000Y-134353048D01*
X344062000Y-130947485D02*
X344062000Y-132233048D01*
X344062000Y-130947485D02*
X345126437Y-129883048D01*
X344062000Y-135638611D02*
X345126437Y-136703048D01*
X343034500Y-131445548D02*
X343822000Y-131445548D01*
X343428250Y-131051798D02*
X343428250Y-131839298D01*
X339349800Y-101250267D02*
X339349800Y-100907733D01*
X338329800Y-101250267D02*
X338329800Y-100907733D01*
X340488800Y-101264267D02*
X340488800Y-100921733D01*
X341508800Y-101264267D02*
X341508800Y-100921733D01*
X288291800Y-101490267D02*
X288291800Y-101147733D01*
X289311800Y-101490267D02*
X289311800Y-101147733D01*
X291597800Y-101518267D02*
X291597800Y-101175733D01*
X290577800Y-101518267D02*
X290577800Y-101175733D01*
X213615800Y-101504267D02*
X213615800Y-101161733D01*
X214635800Y-101504267D02*
X214635800Y-101161733D01*
X216667800Y-101504267D02*
X216667800Y-101161733D01*
X215647800Y-101504267D02*
X215647800Y-101161733D01*
X163450800Y-101391267D02*
X163450800Y-101048733D01*
X164470800Y-101391267D02*
X164470800Y-101048733D01*
X166629800Y-101377267D02*
X166629800Y-101034733D01*
X165609800Y-101377267D02*
X165609800Y-101034733D01*
D13*
X174461798Y-108403664D02*
X174461798Y-107703664D01*
X174628464Y-107703664D01*
X174728464Y-107736998D01*
X174795131Y-107803664D01*
X174828464Y-107870331D01*
X174861798Y-108003664D01*
X174861798Y-108103664D01*
X174828464Y-108236998D01*
X174795131Y-108303664D01*
X174728464Y-108370331D01*
X174628464Y-108403664D01*
X174461798Y-108403664D01*
X175128464Y-108370331D02*
X175228464Y-108403664D01*
X175395131Y-108403664D01*
X175461798Y-108370331D01*
X175495131Y-108336998D01*
X175528464Y-108270331D01*
X175528464Y-108203664D01*
X175495131Y-108136998D01*
X175461798Y-108103664D01*
X175395131Y-108070331D01*
X175261798Y-108036998D01*
X175195131Y-108003664D01*
X175161798Y-107970331D01*
X175128464Y-107903664D01*
X175128464Y-107836998D01*
X175161798Y-107770331D01*
X175195131Y-107736998D01*
X175261798Y-107703664D01*
X175428464Y-107703664D01*
X175528464Y-107736998D01*
X176128464Y-107936998D02*
X176128464Y-108403664D01*
X175961798Y-107670331D02*
X175795131Y-108170331D01*
X176228464Y-108170331D01*
X155528066Y-106741666D02*
X155528066Y-107308333D01*
X155561400Y-107375000D01*
X155594733Y-107408333D01*
X155661400Y-107441666D01*
X155794733Y-107441666D01*
X155861400Y-107408333D01*
X155894733Y-107375000D01*
X155928066Y-107308333D01*
X155928066Y-106741666D01*
X156561400Y-106975000D02*
X156561400Y-107441666D01*
X156394733Y-106708333D02*
X156228066Y-107208333D01*
X156661400Y-107208333D01*
X162161780Y-107699199D02*
X162399876Y-107699199D01*
X162304638Y-107937294D02*
X162399876Y-107699199D01*
X162304638Y-107461103D01*
X162590352Y-107842056D02*
X162399876Y-107699199D01*
X162590352Y-107556341D01*
X162161780Y-107699199D02*
X162399876Y-107699199D01*
X162304638Y-107937294D02*
X162399876Y-107699199D01*
X162304638Y-107461103D01*
X162590352Y-107842056D02*
X162399876Y-107699199D01*
X162590352Y-107556341D01*
X172145333Y-99857534D02*
X172078666Y-99824201D01*
X172012000Y-99757534D01*
X171912000Y-99657534D01*
X171845333Y-99624201D01*
X171778666Y-99624201D01*
X171812000Y-99790867D02*
X171745333Y-99757534D01*
X171678666Y-99690867D01*
X171645333Y-99557534D01*
X171645333Y-99324201D01*
X171678666Y-99190867D01*
X171745333Y-99124201D01*
X171812000Y-99090867D01*
X171945333Y-99090867D01*
X172012000Y-99124201D01*
X172078666Y-99190867D01*
X172112000Y-99324201D01*
X172112000Y-99557534D01*
X172078666Y-99690867D01*
X172012000Y-99757534D01*
X171945333Y-99790867D01*
X171812000Y-99790867D01*
X172712000Y-99324201D02*
X172712000Y-99790867D01*
X172545333Y-99057534D02*
X172378666Y-99557534D01*
X172812000Y-99557534D01*
X218531702Y-119607378D02*
X219103131Y-119607378D01*
X218817417Y-120607378D02*
X218817417Y-119607378D01*
X219436464Y-120607378D02*
X219436464Y-119607378D01*
X219817417Y-119607378D01*
X219912655Y-119654998D01*
X219960274Y-119702617D01*
X220007893Y-119797855D01*
X220007893Y-119940712D01*
X219960274Y-120035950D01*
X219912655Y-120083569D01*
X219817417Y-120131188D01*
X219436464Y-120131188D01*
X220960274Y-120607378D02*
X220388845Y-120607378D01*
X220674559Y-120607378D02*
X220674559Y-119607378D01*
X220579321Y-119750236D01*
X220484083Y-119845474D01*
X220388845Y-119893093D01*
X221912655Y-120607378D02*
X221341226Y-120607378D01*
X221626940Y-120607378D02*
X221626940Y-119607378D01*
X221531702Y-119750236D01*
X221436464Y-119845474D01*
X221341226Y-119893093D01*
X215358998Y-107359000D02*
X215392331Y-107392333D01*
X215425664Y-107492333D01*
X215425664Y-107559000D01*
X215392331Y-107659000D01*
X215325664Y-107725666D01*
X215258998Y-107759000D01*
X215125664Y-107792333D01*
X215025664Y-107792333D01*
X214892331Y-107759000D01*
X214825664Y-107725666D01*
X214758998Y-107659000D01*
X214725664Y-107559000D01*
X214725664Y-107492333D01*
X214758998Y-107392333D01*
X214792331Y-107359000D01*
X215392331Y-106759000D02*
X215425664Y-106825666D01*
X215425664Y-106959000D01*
X215392331Y-107025666D01*
X215358998Y-107059000D01*
X215292331Y-107092333D01*
X215092331Y-107092333D01*
X215025664Y-107059000D01*
X214992331Y-107025666D01*
X214958998Y-106959000D01*
X214958998Y-106825666D01*
X214992331Y-106759000D01*
X215425664Y-106159000D02*
X215058998Y-106159000D01*
X214992331Y-106192333D01*
X214958998Y-106259000D01*
X214958998Y-106392333D01*
X214992331Y-106459000D01*
X215392331Y-106159000D02*
X215425664Y-106225666D01*
X215425664Y-106392333D01*
X215392331Y-106459000D01*
X215325664Y-106492333D01*
X215258998Y-106492333D01*
X215192331Y-106459000D01*
X215158998Y-106392333D01*
X215158998Y-106225666D01*
X215125664Y-106159000D01*
X214958998Y-105825666D02*
X215658998Y-105825666D01*
X214992331Y-105825666D02*
X214958998Y-105759000D01*
X214958998Y-105625666D01*
X214992331Y-105559000D01*
X215025664Y-105525666D01*
X215092331Y-105492333D01*
X215292331Y-105492333D01*
X215358998Y-105525666D01*
X215392331Y-105559000D01*
X215425664Y-105625666D01*
X215425664Y-105759000D01*
X215392331Y-105825666D01*
X214725664Y-105259000D02*
X214725664Y-104825666D01*
X214992331Y-105059000D01*
X214992331Y-104959000D01*
X215025664Y-104892333D01*
X215058998Y-104859000D01*
X215125664Y-104825666D01*
X215292331Y-104825666D01*
X215358998Y-104859000D01*
X215392331Y-104892333D01*
X215425664Y-104959000D01*
X215425664Y-105159000D01*
X215392331Y-105225666D01*
X215358998Y-105259000D01*
X215327666Y-122089534D02*
X214994333Y-122322867D01*
X215327666Y-122489534D02*
X214627666Y-122489534D01*
X214627666Y-122222867D01*
X214661000Y-122156201D01*
X214694333Y-122122867D01*
X214761000Y-122089534D01*
X214861000Y-122089534D01*
X214927666Y-122122867D01*
X214961000Y-122156201D01*
X214994333Y-122222867D01*
X214994333Y-122489534D01*
X214961000Y-121556201D02*
X214961000Y-121789534D01*
X215327666Y-121789534D02*
X214627666Y-121789534D01*
X214627666Y-121456201D01*
X214961000Y-120956201D02*
X214994333Y-120856201D01*
X215027666Y-120822867D01*
X215094333Y-120789534D01*
X215194333Y-120789534D01*
X215261000Y-120822867D01*
X215294333Y-120856201D01*
X215327666Y-120922867D01*
X215327666Y-121189534D01*
X214627666Y-121189534D01*
X214627666Y-120956201D01*
X214661000Y-120889534D01*
X214694333Y-120856201D01*
X214761000Y-120822867D01*
X214827666Y-120822867D01*
X214894333Y-120856201D01*
X214927666Y-120889534D01*
X214961000Y-120956201D01*
X214961000Y-121189534D01*
X215327666Y-120122867D02*
X215327666Y-120522867D01*
X215327666Y-120322867D02*
X214627666Y-120322867D01*
X214727666Y-120389534D01*
X214794333Y-120456201D01*
X214827666Y-120522867D01*
X215061000Y-119822867D02*
X215061000Y-119289534D01*
X214627666Y-119022867D02*
X214627666Y-118589534D01*
X214894333Y-118822867D01*
X214894333Y-118722867D01*
X214927666Y-118656201D01*
X214961000Y-118622867D01*
X215027666Y-118589534D01*
X215194333Y-118589534D01*
X215261000Y-118622867D01*
X215294333Y-118656201D01*
X215327666Y-118722867D01*
X215327666Y-118922867D01*
X215294333Y-118989534D01*
X215261000Y-119022867D01*
X224499798Y-108403664D02*
X224499798Y-107703664D01*
X224666464Y-107703664D01*
X224766464Y-107736998D01*
X224833131Y-107803664D01*
X224866464Y-107870331D01*
X224899798Y-108003664D01*
X224899798Y-108103664D01*
X224866464Y-108236998D01*
X224833131Y-108303664D01*
X224766464Y-108370331D01*
X224666464Y-108403664D01*
X224499798Y-108403664D01*
X225166464Y-108370331D02*
X225266464Y-108403664D01*
X225433131Y-108403664D01*
X225499798Y-108370331D01*
X225533131Y-108336998D01*
X225566464Y-108270331D01*
X225566464Y-108203664D01*
X225533131Y-108136998D01*
X225499798Y-108103664D01*
X225433131Y-108070331D01*
X225299798Y-108036998D01*
X225233131Y-108003664D01*
X225199798Y-107970331D01*
X225166464Y-107903664D01*
X225166464Y-107836998D01*
X225199798Y-107770331D01*
X225233131Y-107736998D01*
X225299798Y-107703664D01*
X225466464Y-107703664D01*
X225566464Y-107736998D01*
X225799798Y-107703664D02*
X226233131Y-107703664D01*
X225999798Y-107970331D01*
X226099798Y-107970331D01*
X226166464Y-108003664D01*
X226199798Y-108036998D01*
X226233131Y-108103664D01*
X226233131Y-108270331D01*
X226199798Y-108336998D01*
X226166464Y-108370331D01*
X226099798Y-108403664D01*
X225899798Y-108403664D01*
X225833131Y-108370331D01*
X225799798Y-108336998D01*
X219833000Y-113111534D02*
X219866333Y-113144867D01*
X219899666Y-113244867D01*
X219899666Y-113311534D01*
X219866333Y-113411534D01*
X219799666Y-113478201D01*
X219733000Y-113511534D01*
X219599666Y-113544867D01*
X219499666Y-113544867D01*
X219366333Y-113511534D01*
X219299666Y-113478201D01*
X219233000Y-113411534D01*
X219199666Y-113311534D01*
X219199666Y-113244867D01*
X219233000Y-113144867D01*
X219266333Y-113111534D01*
X219866333Y-112844867D02*
X219899666Y-112778201D01*
X219899666Y-112644867D01*
X219866333Y-112578201D01*
X219799666Y-112544867D01*
X219766333Y-112544867D01*
X219699666Y-112578201D01*
X219666333Y-112644867D01*
X219666333Y-112744867D01*
X219633000Y-112811534D01*
X219566333Y-112844867D01*
X219533000Y-112844867D01*
X219466333Y-112811534D01*
X219433000Y-112744867D01*
X219433000Y-112644867D01*
X219466333Y-112578201D01*
X219866333Y-112278201D02*
X219899666Y-112211534D01*
X219899666Y-112078201D01*
X219866333Y-112011534D01*
X219799666Y-111978201D01*
X219766333Y-111978201D01*
X219699666Y-112011534D01*
X219666333Y-112078201D01*
X219666333Y-112178201D01*
X219633000Y-112244867D01*
X219566333Y-112278201D01*
X219533000Y-112278201D01*
X219466333Y-112244867D01*
X219433000Y-112178201D01*
X219433000Y-112078201D01*
X219466333Y-112011534D01*
X219199666Y-111744867D02*
X219199666Y-111311534D01*
X219466333Y-111544867D01*
X219466333Y-111444867D01*
X219499666Y-111378201D01*
X219533000Y-111344867D01*
X219599666Y-111311534D01*
X219766333Y-111311534D01*
X219833000Y-111344867D01*
X219866333Y-111378201D01*
X219899666Y-111444867D01*
X219899666Y-111644867D01*
X219866333Y-111711534D01*
X219833000Y-111744867D01*
X152220140Y-112698666D02*
X152267759Y-112746285D01*
X152315378Y-112889142D01*
X152315378Y-112984380D01*
X152267759Y-113127238D01*
X152172521Y-113222476D01*
X152077283Y-113270095D01*
X151886807Y-113317714D01*
X151743950Y-113317714D01*
X151553474Y-113270095D01*
X151458236Y-113222476D01*
X151362998Y-113127238D01*
X151315378Y-112984380D01*
X151315378Y-112889142D01*
X151362998Y-112746285D01*
X151410617Y-112698666D01*
X151743950Y-112127238D02*
X151696331Y-112222476D01*
X151648712Y-112270095D01*
X151553474Y-112317714D01*
X151505855Y-112317714D01*
X151410617Y-112270095D01*
X151362998Y-112222476D01*
X151315378Y-112127238D01*
X151315378Y-111936761D01*
X151362998Y-111841523D01*
X151410617Y-111793904D01*
X151505855Y-111746285D01*
X151553474Y-111746285D01*
X151648712Y-111793904D01*
X151696331Y-111841523D01*
X151743950Y-111936761D01*
X151743950Y-112127238D01*
X151791569Y-112222476D01*
X151839188Y-112270095D01*
X151934426Y-112317714D01*
X152124902Y-112317714D01*
X152220140Y-112270095D01*
X152267759Y-112222476D01*
X152315378Y-112127238D01*
X152315378Y-111936761D01*
X152267759Y-111841523D01*
X152220140Y-111793904D01*
X152124902Y-111746285D01*
X151934426Y-111746285D01*
X151839188Y-111793904D01*
X151791569Y-111841523D01*
X151743950Y-111936761D01*
X216695664Y-114553666D02*
X216362331Y-114787000D01*
X216695664Y-114953666D02*
X215995664Y-114953666D01*
X215995664Y-114687000D01*
X216028998Y-114620333D01*
X216062331Y-114587000D01*
X216128998Y-114553666D01*
X216228998Y-114553666D01*
X216295664Y-114587000D01*
X216328998Y-114620333D01*
X216362331Y-114687000D01*
X216362331Y-114953666D01*
X216695664Y-114220333D02*
X216695664Y-114087000D01*
X216662331Y-114020333D01*
X216628998Y-113987000D01*
X216528998Y-113920333D01*
X216395664Y-113887000D01*
X216128998Y-113887000D01*
X216062331Y-113920333D01*
X216028998Y-113953666D01*
X215995664Y-114020333D01*
X215995664Y-114153666D01*
X216028998Y-114220333D01*
X216062331Y-114253666D01*
X216128998Y-114287000D01*
X216295664Y-114287000D01*
X216362331Y-114253666D01*
X216395664Y-114220333D01*
X216428998Y-114153666D01*
X216428998Y-114020333D01*
X216395664Y-113953666D01*
X216362331Y-113920333D01*
X216295664Y-113887000D01*
X222183333Y-99857534D02*
X222116666Y-99824201D01*
X222050000Y-99757534D01*
X221950000Y-99657534D01*
X221883333Y-99624201D01*
X221816666Y-99624201D01*
X221850000Y-99790867D02*
X221783333Y-99757534D01*
X221716666Y-99690867D01*
X221683333Y-99557534D01*
X221683333Y-99324201D01*
X221716666Y-99190867D01*
X221783333Y-99124201D01*
X221850000Y-99090867D01*
X221983333Y-99090867D01*
X222050000Y-99124201D01*
X222116666Y-99190867D01*
X222150000Y-99324201D01*
X222150000Y-99557534D01*
X222116666Y-99690867D01*
X222050000Y-99757534D01*
X221983333Y-99790867D01*
X221850000Y-99790867D01*
X222383333Y-99090867D02*
X222816666Y-99090867D01*
X222583333Y-99357534D01*
X222683333Y-99357534D01*
X222750000Y-99390867D01*
X222783333Y-99424201D01*
X222816666Y-99490867D01*
X222816666Y-99657534D01*
X222783333Y-99724201D01*
X222750000Y-99757534D01*
X222683333Y-99790867D01*
X222483333Y-99790867D01*
X222416666Y-99757534D01*
X222383333Y-99724201D01*
X168493702Y-119607378D02*
X169065131Y-119607378D01*
X168779417Y-120607378D02*
X168779417Y-119607378D01*
X169398464Y-120607378D02*
X169398464Y-119607378D01*
X169779417Y-119607378D01*
X169874655Y-119654998D01*
X169922274Y-119702617D01*
X169969893Y-119797855D01*
X169969893Y-119940712D01*
X169922274Y-120035950D01*
X169874655Y-120083569D01*
X169779417Y-120131188D01*
X169398464Y-120131188D01*
X170922274Y-120607378D02*
X170350845Y-120607378D01*
X170636559Y-120607378D02*
X170636559Y-119607378D01*
X170541321Y-119750236D01*
X170446083Y-119845474D01*
X170350845Y-119893093D01*
X171303226Y-119702617D02*
X171350845Y-119654998D01*
X171446083Y-119607378D01*
X171684178Y-119607378D01*
X171779417Y-119654998D01*
X171827036Y-119702617D01*
X171874655Y-119797855D01*
X171874655Y-119893093D01*
X171827036Y-120035950D01*
X171255607Y-120607378D01*
X171874655Y-120607378D01*
X171131131Y-118436664D02*
X170797798Y-118436664D01*
X170797798Y-117736664D01*
X171664464Y-117969998D02*
X171664464Y-118436664D01*
X171497798Y-117703331D02*
X171331131Y-118203331D01*
X171764464Y-118203331D01*
X213553466Y-119944000D02*
X213220133Y-120177333D01*
X213553466Y-120344000D02*
X212853466Y-120344000D01*
X212853466Y-120077333D01*
X212886800Y-120010666D01*
X212920133Y-119977333D01*
X212986800Y-119944000D01*
X213086800Y-119944000D01*
X213153466Y-119977333D01*
X213186800Y-120010666D01*
X213220133Y-120077333D01*
X213220133Y-120344000D01*
X213553466Y-119277333D02*
X213553466Y-119677333D01*
X213553466Y-119477333D02*
X212853466Y-119477333D01*
X212953466Y-119544000D01*
X213020133Y-119610666D01*
X213053466Y-119677333D01*
X212853466Y-118644000D02*
X212853466Y-118977333D01*
X213186800Y-119010666D01*
X213153466Y-118977333D01*
X213120133Y-118910666D01*
X213120133Y-118744000D01*
X213153466Y-118677333D01*
X213186800Y-118644000D01*
X213253466Y-118610666D01*
X213420133Y-118610666D01*
X213486800Y-118644000D01*
X213520133Y-118677333D01*
X213553466Y-118744000D01*
X213553466Y-118910666D01*
X213520133Y-118977333D01*
X213486800Y-119010666D01*
X162339664Y-106251000D02*
X162006331Y-106484333D01*
X162339664Y-106651000D02*
X161639664Y-106651000D01*
X161639664Y-106384333D01*
X161672998Y-106317666D01*
X161706331Y-106284333D01*
X161772998Y-106251000D01*
X161872998Y-106251000D01*
X161939664Y-106284333D01*
X161972998Y-106317666D01*
X162006331Y-106384333D01*
X162006331Y-106651000D01*
X162339664Y-105584333D02*
X162339664Y-105984333D01*
X162339664Y-105784333D02*
X161639664Y-105784333D01*
X161739664Y-105851000D01*
X161806331Y-105917666D01*
X161839664Y-105984333D01*
X161706331Y-105317666D02*
X161672998Y-105284333D01*
X161639664Y-105217666D01*
X161639664Y-105051000D01*
X161672998Y-104984333D01*
X161706331Y-104951000D01*
X161772998Y-104917666D01*
X161839664Y-104917666D01*
X161939664Y-104951000D01*
X162339664Y-105351000D01*
X162339664Y-104917666D01*
X166657664Y-114887000D02*
X166324331Y-115120333D01*
X166657664Y-115287000D02*
X165957664Y-115287000D01*
X165957664Y-115020333D01*
X165990998Y-114953666D01*
X166024331Y-114920333D01*
X166090998Y-114887000D01*
X166190998Y-114887000D01*
X166257664Y-114920333D01*
X166290998Y-114953666D01*
X166324331Y-115020333D01*
X166324331Y-115287000D01*
X166657664Y-114220333D02*
X166657664Y-114620333D01*
X166657664Y-114420333D02*
X165957664Y-114420333D01*
X166057664Y-114487000D01*
X166124331Y-114553666D01*
X166157664Y-114620333D01*
X165957664Y-113787000D02*
X165957664Y-113720333D01*
X165990998Y-113653666D01*
X166024331Y-113620333D01*
X166090998Y-113587000D01*
X166224331Y-113553666D01*
X166390998Y-113553666D01*
X166524331Y-113587000D01*
X166590998Y-113620333D01*
X166624331Y-113653666D01*
X166657664Y-113720333D01*
X166657664Y-113787000D01*
X166624331Y-113853666D01*
X166590998Y-113887000D01*
X166524331Y-113920333D01*
X166390998Y-113953666D01*
X166224331Y-113953666D01*
X166090998Y-113920333D01*
X166024331Y-113887000D01*
X165990998Y-113853666D01*
X165957664Y-113787000D01*
X185994000Y-109978000D02*
X185960666Y-110011333D01*
X185860666Y-110044666D01*
X185794000Y-110044666D01*
X185694000Y-110011333D01*
X185627333Y-109944666D01*
X185594000Y-109878000D01*
X185560666Y-109744666D01*
X185560666Y-109644666D01*
X185594000Y-109511333D01*
X185627333Y-109444666D01*
X185694000Y-109378000D01*
X185794000Y-109344666D01*
X185860666Y-109344666D01*
X185960666Y-109378000D01*
X185994000Y-109411333D01*
X186394000Y-110044666D02*
X186327333Y-110011333D01*
X186294000Y-109978000D01*
X186260666Y-109911333D01*
X186260666Y-109711333D01*
X186294000Y-109644666D01*
X186327333Y-109611333D01*
X186394000Y-109578000D01*
X186494000Y-109578000D01*
X186560666Y-109611333D01*
X186594000Y-109644666D01*
X186627333Y-109711333D01*
X186627333Y-109911333D01*
X186594000Y-109978000D01*
X186560666Y-110011333D01*
X186494000Y-110044666D01*
X186394000Y-110044666D01*
X187227333Y-109578000D02*
X187227333Y-110044666D01*
X186927333Y-109578000D02*
X186927333Y-109944666D01*
X186960666Y-110011333D01*
X187027333Y-110044666D01*
X187127333Y-110044666D01*
X187194000Y-110011333D01*
X187227333Y-109978000D01*
X187460666Y-109578000D02*
X187727333Y-109578000D01*
X187560666Y-109344666D02*
X187560666Y-109944666D01*
X187594000Y-110011333D01*
X187660666Y-110044666D01*
X187727333Y-110044666D01*
X188260666Y-109578000D02*
X188260666Y-110044666D01*
X188094000Y-109311333D02*
X187927333Y-109811333D01*
X188360666Y-109811333D01*
X225401142Y-98497867D02*
X225448761Y-98545486D01*
X225496380Y-98688343D01*
X225496380Y-98783581D01*
X225448761Y-98926439D01*
X225353523Y-99021677D01*
X225258285Y-99069296D01*
X225067809Y-99116915D01*
X224924952Y-99116915D01*
X224734476Y-99069296D01*
X224639238Y-99021677D01*
X224544000Y-98926439D01*
X224496380Y-98783581D01*
X224496380Y-98688343D01*
X224544000Y-98545486D01*
X224591619Y-98497867D01*
X224496380Y-98164534D02*
X224496380Y-97497867D01*
X225496380Y-97926439D01*
X170924798Y-109673664D02*
X170691464Y-109340331D01*
X170524798Y-109673664D02*
X170524798Y-108973664D01*
X170791464Y-108973664D01*
X170858131Y-109006998D01*
X170891464Y-109040331D01*
X170924798Y-109106998D01*
X170924798Y-109206998D01*
X170891464Y-109273664D01*
X170858131Y-109306998D01*
X170791464Y-109340331D01*
X170524798Y-109340331D01*
X171591464Y-109673664D02*
X171191464Y-109673664D01*
X171391464Y-109673664D02*
X171391464Y-108973664D01*
X171324798Y-109073664D01*
X171258131Y-109140331D01*
X171191464Y-109173664D01*
X172191464Y-109206998D02*
X172191464Y-109673664D01*
X172024798Y-108940331D02*
X171858131Y-109440331D01*
X172291464Y-109440331D01*
X165289666Y-122089534D02*
X164956333Y-122322867D01*
X165289666Y-122489534D02*
X164589666Y-122489534D01*
X164589666Y-122222867D01*
X164623000Y-122156201D01*
X164656333Y-122122867D01*
X164723000Y-122089534D01*
X164823000Y-122089534D01*
X164889666Y-122122867D01*
X164923000Y-122156201D01*
X164956333Y-122222867D01*
X164956333Y-122489534D01*
X164923000Y-121556201D02*
X164923000Y-121789534D01*
X165289666Y-121789534D02*
X164589666Y-121789534D01*
X164589666Y-121456201D01*
X164923000Y-120956201D02*
X164956333Y-120856201D01*
X164989666Y-120822867D01*
X165056333Y-120789534D01*
X165156333Y-120789534D01*
X165223000Y-120822867D01*
X165256333Y-120856201D01*
X165289666Y-120922867D01*
X165289666Y-121189534D01*
X164589666Y-121189534D01*
X164589666Y-120956201D01*
X164623000Y-120889534D01*
X164656333Y-120856201D01*
X164723000Y-120822867D01*
X164789666Y-120822867D01*
X164856333Y-120856201D01*
X164889666Y-120889534D01*
X164923000Y-120956201D01*
X164923000Y-121189534D01*
X165289666Y-120122867D02*
X165289666Y-120522867D01*
X165289666Y-120322867D02*
X164589666Y-120322867D01*
X164689666Y-120389534D01*
X164756333Y-120456201D01*
X164789666Y-120522867D01*
X165023000Y-119822867D02*
X165023000Y-119289534D01*
X164823000Y-118656201D02*
X165289666Y-118656201D01*
X164556333Y-118822867D02*
X165056333Y-118989534D01*
X165056333Y-118556201D01*
X221169131Y-118436664D02*
X220835798Y-118436664D01*
X220835798Y-117736664D01*
X221335798Y-117736664D02*
X221769131Y-117736664D01*
X221535798Y-118003331D01*
X221635798Y-118003331D01*
X221702464Y-118036664D01*
X221735798Y-118069998D01*
X221769131Y-118136664D01*
X221769131Y-118303331D01*
X221735798Y-118369998D01*
X221702464Y-118403331D01*
X221635798Y-118436664D01*
X221435798Y-118436664D01*
X221369131Y-118403331D01*
X221335798Y-118369998D01*
X167194666Y-122089534D02*
X166861333Y-122322867D01*
X167194666Y-122489534D02*
X166494666Y-122489534D01*
X166494666Y-122222867D01*
X166528000Y-122156201D01*
X166561333Y-122122867D01*
X166628000Y-122089534D01*
X166728000Y-122089534D01*
X166794666Y-122122867D01*
X166828000Y-122156201D01*
X166861333Y-122222867D01*
X166861333Y-122489534D01*
X166828000Y-121556201D02*
X166828000Y-121789534D01*
X167194666Y-121789534D02*
X166494666Y-121789534D01*
X166494666Y-121456201D01*
X166828000Y-120956201D02*
X166861333Y-120856201D01*
X166894666Y-120822867D01*
X166961333Y-120789534D01*
X167061333Y-120789534D01*
X167128000Y-120822867D01*
X167161333Y-120856201D01*
X167194666Y-120922867D01*
X167194666Y-121189534D01*
X166494666Y-121189534D01*
X166494666Y-120956201D01*
X166528000Y-120889534D01*
X166561333Y-120856201D01*
X166628000Y-120822867D01*
X166694666Y-120822867D01*
X166761333Y-120856201D01*
X166794666Y-120889534D01*
X166828000Y-120956201D01*
X166828000Y-121189534D01*
X166561333Y-120522867D02*
X166528000Y-120489534D01*
X166494666Y-120422867D01*
X166494666Y-120256201D01*
X166528000Y-120189534D01*
X166561333Y-120156201D01*
X166628000Y-120122867D01*
X166694666Y-120122867D01*
X166794666Y-120156201D01*
X167194666Y-120556201D01*
X167194666Y-120122867D01*
X166928000Y-119822867D02*
X166928000Y-119289534D01*
X166728000Y-118656201D02*
X167194666Y-118656201D01*
X166461333Y-118822867D02*
X166961333Y-118989534D01*
X166961333Y-118556201D01*
X169795000Y-113111534D02*
X169828333Y-113144867D01*
X169861666Y-113244867D01*
X169861666Y-113311534D01*
X169828333Y-113411534D01*
X169761666Y-113478201D01*
X169695000Y-113511534D01*
X169561666Y-113544867D01*
X169461666Y-113544867D01*
X169328333Y-113511534D01*
X169261666Y-113478201D01*
X169195000Y-113411534D01*
X169161666Y-113311534D01*
X169161666Y-113244867D01*
X169195000Y-113144867D01*
X169228333Y-113111534D01*
X169828333Y-112844867D02*
X169861666Y-112778201D01*
X169861666Y-112644867D01*
X169828333Y-112578201D01*
X169761666Y-112544867D01*
X169728333Y-112544867D01*
X169661666Y-112578201D01*
X169628333Y-112644867D01*
X169628333Y-112744867D01*
X169595000Y-112811534D01*
X169528333Y-112844867D01*
X169495000Y-112844867D01*
X169428333Y-112811534D01*
X169395000Y-112744867D01*
X169395000Y-112644867D01*
X169428333Y-112578201D01*
X169828333Y-112278201D02*
X169861666Y-112211534D01*
X169861666Y-112078201D01*
X169828333Y-112011534D01*
X169761666Y-111978201D01*
X169728333Y-111978201D01*
X169661666Y-112011534D01*
X169628333Y-112078201D01*
X169628333Y-112178201D01*
X169595000Y-112244867D01*
X169528333Y-112278201D01*
X169495000Y-112278201D01*
X169428333Y-112244867D01*
X169395000Y-112178201D01*
X169395000Y-112078201D01*
X169428333Y-112011534D01*
X169395000Y-111378201D02*
X169861666Y-111378201D01*
X169128333Y-111544867D02*
X169628333Y-111711534D01*
X169628333Y-111278201D01*
X230159000Y-99946201D02*
X230125666Y-99979534D01*
X230025666Y-100012867D01*
X229959000Y-100012867D01*
X229859000Y-99979534D01*
X229792333Y-99912867D01*
X229759000Y-99846201D01*
X229725666Y-99712867D01*
X229725666Y-99612867D01*
X229759000Y-99479534D01*
X229792333Y-99412867D01*
X229859000Y-99346201D01*
X229959000Y-99312867D01*
X230025666Y-99312867D01*
X230125666Y-99346201D01*
X230159000Y-99379534D01*
X230459000Y-100012867D02*
X230459000Y-99546201D01*
X230459000Y-99312867D02*
X230425666Y-99346201D01*
X230459000Y-99379534D01*
X230492333Y-99346201D01*
X230459000Y-99312867D01*
X230459000Y-99379534D01*
X230792333Y-99546201D02*
X230792333Y-100012867D01*
X230792333Y-99612867D02*
X230825666Y-99579534D01*
X230892333Y-99546201D01*
X230992333Y-99546201D01*
X231059000Y-99579534D01*
X231092333Y-99646201D01*
X231092333Y-100012867D01*
X231359000Y-99312867D02*
X231792333Y-99312867D01*
X231559000Y-99579534D01*
X231659000Y-99579534D01*
X231725666Y-99612867D01*
X231759000Y-99646201D01*
X231792333Y-99712867D01*
X231792333Y-99879534D01*
X231759000Y-99946201D01*
X231725666Y-99979534D01*
X231659000Y-100012867D01*
X231459000Y-100012867D01*
X231392333Y-99979534D01*
X231359000Y-99946201D01*
X212377664Y-106251000D02*
X212044331Y-106484333D01*
X212377664Y-106651000D02*
X211677664Y-106651000D01*
X211677664Y-106384333D01*
X211710998Y-106317666D01*
X211744331Y-106284333D01*
X211810998Y-106251000D01*
X211910998Y-106251000D01*
X211977664Y-106284333D01*
X212010998Y-106317666D01*
X212044331Y-106384333D01*
X212044331Y-106651000D01*
X212377664Y-105584333D02*
X212377664Y-105984333D01*
X212377664Y-105784333D02*
X211677664Y-105784333D01*
X211777664Y-105851000D01*
X211844331Y-105917666D01*
X211877664Y-105984333D01*
X212377664Y-104917666D02*
X212377664Y-105317666D01*
X212377664Y-105117666D02*
X211677664Y-105117666D01*
X211777664Y-105184333D01*
X211844331Y-105251000D01*
X211877664Y-105317666D01*
X180121000Y-99946201D02*
X180087666Y-99979534D01*
X179987666Y-100012867D01*
X179921000Y-100012867D01*
X179821000Y-99979534D01*
X179754333Y-99912867D01*
X179721000Y-99846201D01*
X179687666Y-99712867D01*
X179687666Y-99612867D01*
X179721000Y-99479534D01*
X179754333Y-99412867D01*
X179821000Y-99346201D01*
X179921000Y-99312867D01*
X179987666Y-99312867D01*
X180087666Y-99346201D01*
X180121000Y-99379534D01*
X180421000Y-100012867D02*
X180421000Y-99546201D01*
X180421000Y-99312867D02*
X180387666Y-99346201D01*
X180421000Y-99379534D01*
X180454333Y-99346201D01*
X180421000Y-99312867D01*
X180421000Y-99379534D01*
X180754333Y-99546201D02*
X180754333Y-100012867D01*
X180754333Y-99612867D02*
X180787666Y-99579534D01*
X180854333Y-99546201D01*
X180954333Y-99546201D01*
X181021000Y-99579534D01*
X181054333Y-99646201D01*
X181054333Y-100012867D01*
X181687666Y-99546201D02*
X181687666Y-100012867D01*
X181521000Y-99279534D02*
X181354333Y-99779534D01*
X181787666Y-99779534D01*
X163511666Y-119609201D02*
X163178333Y-119842534D01*
X163511666Y-120009201D02*
X162811666Y-120009201D01*
X162811666Y-119742534D01*
X162845000Y-119675867D01*
X162878333Y-119642534D01*
X162945000Y-119609201D01*
X163045000Y-119609201D01*
X163111666Y-119642534D01*
X163145000Y-119675867D01*
X163178333Y-119742534D01*
X163178333Y-120009201D01*
X163511666Y-118942534D02*
X163511666Y-119342534D01*
X163511666Y-119142534D02*
X162811666Y-119142534D01*
X162911666Y-119209201D01*
X162978333Y-119275867D01*
X163011666Y-119342534D01*
X162811666Y-118342534D02*
X162811666Y-118475867D01*
X162845000Y-118542534D01*
X162878333Y-118575867D01*
X162978333Y-118642534D01*
X163111666Y-118675867D01*
X163378333Y-118675867D01*
X163445000Y-118642534D01*
X163478333Y-118609201D01*
X163511666Y-118542534D01*
X163511666Y-118409201D01*
X163478333Y-118342534D01*
X163445000Y-118309201D01*
X163378333Y-118275867D01*
X163211666Y-118275867D01*
X163145000Y-118309201D01*
X163111666Y-118342534D01*
X163078333Y-118409201D01*
X163078333Y-118542534D01*
X163111666Y-118609201D01*
X163145000Y-118642534D01*
X163211666Y-118675867D01*
X220962798Y-109673664D02*
X220729464Y-109340331D01*
X220562798Y-109673664D02*
X220562798Y-108973664D01*
X220829464Y-108973664D01*
X220896131Y-109006998D01*
X220929464Y-109040331D01*
X220962798Y-109106998D01*
X220962798Y-109206998D01*
X220929464Y-109273664D01*
X220896131Y-109306998D01*
X220829464Y-109340331D01*
X220562798Y-109340331D01*
X221629464Y-109673664D02*
X221229464Y-109673664D01*
X221429464Y-109673664D02*
X221429464Y-108973664D01*
X221362798Y-109073664D01*
X221296131Y-109140331D01*
X221229464Y-109173664D01*
X221862798Y-108973664D02*
X222296131Y-108973664D01*
X222062798Y-109240331D01*
X222162798Y-109240331D01*
X222229464Y-109273664D01*
X222262798Y-109306998D01*
X222296131Y-109373664D01*
X222296131Y-109540331D01*
X222262798Y-109606998D01*
X222229464Y-109640331D01*
X222162798Y-109673664D01*
X221962798Y-109673664D01*
X221896131Y-109640331D01*
X221862798Y-109606998D01*
X175363142Y-98497867D02*
X175410761Y-98545486D01*
X175458380Y-98688343D01*
X175458380Y-98783581D01*
X175410761Y-98926439D01*
X175315523Y-99021677D01*
X175220285Y-99069296D01*
X175029809Y-99116915D01*
X174886952Y-99116915D01*
X174696476Y-99069296D01*
X174601238Y-99021677D01*
X174506000Y-98926439D01*
X174458380Y-98783581D01*
X174458380Y-98688343D01*
X174506000Y-98545486D01*
X174553619Y-98497867D01*
X175458380Y-98021677D02*
X175458380Y-97831201D01*
X175410761Y-97735962D01*
X175363142Y-97688343D01*
X175220285Y-97593105D01*
X175029809Y-97545486D01*
X174648857Y-97545486D01*
X174553619Y-97593105D01*
X174506000Y-97640724D01*
X174458380Y-97735962D01*
X174458380Y-97926439D01*
X174506000Y-98021677D01*
X174553619Y-98069296D01*
X174648857Y-98116915D01*
X174886952Y-98116915D01*
X174982190Y-98069296D01*
X175029809Y-98021677D01*
X175077428Y-97926439D01*
X175077428Y-97735962D01*
X175029809Y-97640724D01*
X174982190Y-97593105D01*
X174886952Y-97545486D01*
X165320998Y-107359000D02*
X165354331Y-107392333D01*
X165387664Y-107492333D01*
X165387664Y-107559000D01*
X165354331Y-107659000D01*
X165287664Y-107725666D01*
X165220998Y-107759000D01*
X165087664Y-107792333D01*
X164987664Y-107792333D01*
X164854331Y-107759000D01*
X164787664Y-107725666D01*
X164720998Y-107659000D01*
X164687664Y-107559000D01*
X164687664Y-107492333D01*
X164720998Y-107392333D01*
X164754331Y-107359000D01*
X165354331Y-106759000D02*
X165387664Y-106825666D01*
X165387664Y-106959000D01*
X165354331Y-107025666D01*
X165320998Y-107059000D01*
X165254331Y-107092333D01*
X165054331Y-107092333D01*
X164987664Y-107059000D01*
X164954331Y-107025666D01*
X164920998Y-106959000D01*
X164920998Y-106825666D01*
X164954331Y-106759000D01*
X165387664Y-106159000D02*
X165020998Y-106159000D01*
X164954331Y-106192333D01*
X164920998Y-106259000D01*
X164920998Y-106392333D01*
X164954331Y-106459000D01*
X165354331Y-106159000D02*
X165387664Y-106225666D01*
X165387664Y-106392333D01*
X165354331Y-106459000D01*
X165287664Y-106492333D01*
X165220998Y-106492333D01*
X165154331Y-106459000D01*
X165120998Y-106392333D01*
X165120998Y-106225666D01*
X165087664Y-106159000D01*
X164920998Y-105825666D02*
X165620998Y-105825666D01*
X164954331Y-105825666D02*
X164920998Y-105759000D01*
X164920998Y-105625666D01*
X164954331Y-105559000D01*
X164987664Y-105525666D01*
X165054331Y-105492333D01*
X165254331Y-105492333D01*
X165320998Y-105525666D01*
X165354331Y-105559000D01*
X165387664Y-105625666D01*
X165387664Y-105759000D01*
X165354331Y-105825666D01*
X164920998Y-104892333D02*
X165387664Y-104892333D01*
X164654331Y-105059000D02*
X165154331Y-105225666D01*
X165154331Y-104792333D01*
X202258140Y-112698666D02*
X202305759Y-112746285D01*
X202353378Y-112889142D01*
X202353378Y-112984380D01*
X202305759Y-113127238D01*
X202210521Y-113222476D01*
X202115283Y-113270095D01*
X201924807Y-113317714D01*
X201781950Y-113317714D01*
X201591474Y-113270095D01*
X201496236Y-113222476D01*
X201400998Y-113127238D01*
X201353378Y-112984380D01*
X201353378Y-112889142D01*
X201400998Y-112746285D01*
X201448617Y-112698666D01*
X201353378Y-111841523D02*
X201353378Y-112032000D01*
X201400998Y-112127238D01*
X201448617Y-112174857D01*
X201591474Y-112270095D01*
X201781950Y-112317714D01*
X202162902Y-112317714D01*
X202258140Y-112270095D01*
X202305759Y-112222476D01*
X202353378Y-112127238D01*
X202353378Y-111936761D01*
X202305759Y-111841523D01*
X202258140Y-111793904D01*
X202162902Y-111746285D01*
X201924807Y-111746285D01*
X201829569Y-111793904D01*
X201781950Y-111841523D01*
X201734331Y-111936761D01*
X201734331Y-112127238D01*
X201781950Y-112222476D01*
X201829569Y-112270095D01*
X201924807Y-112317714D01*
X236032000Y-109978000D02*
X235998666Y-110011333D01*
X235898666Y-110044666D01*
X235832000Y-110044666D01*
X235732000Y-110011333D01*
X235665333Y-109944666D01*
X235632000Y-109878000D01*
X235598666Y-109744666D01*
X235598666Y-109644666D01*
X235632000Y-109511333D01*
X235665333Y-109444666D01*
X235732000Y-109378000D01*
X235832000Y-109344666D01*
X235898666Y-109344666D01*
X235998666Y-109378000D01*
X236032000Y-109411333D01*
X236432000Y-110044666D02*
X236365333Y-110011333D01*
X236332000Y-109978000D01*
X236298666Y-109911333D01*
X236298666Y-109711333D01*
X236332000Y-109644666D01*
X236365333Y-109611333D01*
X236432000Y-109578000D01*
X236532000Y-109578000D01*
X236598666Y-109611333D01*
X236632000Y-109644666D01*
X236665333Y-109711333D01*
X236665333Y-109911333D01*
X236632000Y-109978000D01*
X236598666Y-110011333D01*
X236532000Y-110044666D01*
X236432000Y-110044666D01*
X237265333Y-109578000D02*
X237265333Y-110044666D01*
X236965333Y-109578000D02*
X236965333Y-109944666D01*
X236998666Y-110011333D01*
X237065333Y-110044666D01*
X237165333Y-110044666D01*
X237232000Y-110011333D01*
X237265333Y-109978000D01*
X237498666Y-109578000D02*
X237765333Y-109578000D01*
X237598666Y-109344666D02*
X237598666Y-109944666D01*
X237632000Y-110011333D01*
X237698666Y-110044666D01*
X237765333Y-110044666D01*
X237932000Y-109344666D02*
X238365333Y-109344666D01*
X238132000Y-109611333D01*
X238232000Y-109611333D01*
X238298666Y-109644666D01*
X238332000Y-109678000D01*
X238365333Y-109744666D01*
X238365333Y-109911333D01*
X238332000Y-109978000D01*
X238298666Y-110011333D01*
X238232000Y-110044666D01*
X238032000Y-110044666D01*
X237965333Y-110011333D01*
X237932000Y-109978000D01*
X217232666Y-122089534D02*
X216899333Y-122322867D01*
X217232666Y-122489534D02*
X216532666Y-122489534D01*
X216532666Y-122222867D01*
X216566000Y-122156201D01*
X216599333Y-122122867D01*
X216666000Y-122089534D01*
X216766000Y-122089534D01*
X216832666Y-122122867D01*
X216866000Y-122156201D01*
X216899333Y-122222867D01*
X216899333Y-122489534D01*
X216866000Y-121556201D02*
X216866000Y-121789534D01*
X217232666Y-121789534D02*
X216532666Y-121789534D01*
X216532666Y-121456201D01*
X216866000Y-120956201D02*
X216899333Y-120856201D01*
X216932666Y-120822867D01*
X216999333Y-120789534D01*
X217099333Y-120789534D01*
X217166000Y-120822867D01*
X217199333Y-120856201D01*
X217232666Y-120922867D01*
X217232666Y-121189534D01*
X216532666Y-121189534D01*
X216532666Y-120956201D01*
X216566000Y-120889534D01*
X216599333Y-120856201D01*
X216666000Y-120822867D01*
X216732666Y-120822867D01*
X216799333Y-120856201D01*
X216832666Y-120889534D01*
X216866000Y-120956201D01*
X216866000Y-121189534D01*
X216599333Y-120522867D02*
X216566000Y-120489534D01*
X216532666Y-120422867D01*
X216532666Y-120256201D01*
X216566000Y-120189534D01*
X216599333Y-120156201D01*
X216666000Y-120122867D01*
X216732666Y-120122867D01*
X216832666Y-120156201D01*
X217232666Y-120556201D01*
X217232666Y-120122867D01*
X216966000Y-119822867D02*
X216966000Y-119289534D01*
X216532666Y-119022867D02*
X216532666Y-118589534D01*
X216799333Y-118822867D01*
X216799333Y-118722867D01*
X216832666Y-118656201D01*
X216866000Y-118622867D01*
X216932666Y-118589534D01*
X217099333Y-118589534D01*
X217166000Y-118622867D01*
X217199333Y-118656201D01*
X217232666Y-118722867D01*
X217232666Y-118922867D01*
X217199333Y-118989534D01*
X217166000Y-119022867D01*
X205566066Y-106741666D02*
X205566066Y-107308333D01*
X205599400Y-107375000D01*
X205632733Y-107408333D01*
X205699400Y-107441666D01*
X205832733Y-107441666D01*
X205899400Y-107408333D01*
X205932733Y-107375000D01*
X205966066Y-107308333D01*
X205966066Y-106741666D01*
X206232733Y-106741666D02*
X206666066Y-106741666D01*
X206432733Y-107008333D01*
X206532733Y-107008333D01*
X206599400Y-107041666D01*
X206632733Y-107075000D01*
X206666066Y-107141666D01*
X206666066Y-107308333D01*
X206632733Y-107375000D01*
X206599400Y-107408333D01*
X206532733Y-107441666D01*
X206332733Y-107441666D01*
X206266066Y-107408333D01*
X206232733Y-107375000D01*
X212199780Y-107699199D02*
X212437876Y-107699199D01*
X212342638Y-107937294D02*
X212437876Y-107699199D01*
X212342638Y-107461103D01*
X212628352Y-107842056D02*
X212437876Y-107699199D01*
X212628352Y-107556341D01*
X212199780Y-107699199D02*
X212437876Y-107699199D01*
X212342638Y-107937294D02*
X212437876Y-107699199D01*
X212342638Y-107461103D01*
X212628352Y-107842056D02*
X212437876Y-107699199D01*
X212628352Y-107556341D01*
X293810893Y-119607378D02*
X294382321Y-119607378D01*
X294096607Y-120607378D02*
X294096607Y-119607378D01*
X294715655Y-120607378D02*
X294715655Y-119607378D01*
X295096607Y-119607378D01*
X295191845Y-119654998D01*
X295239464Y-119702617D01*
X295287083Y-119797855D01*
X295287083Y-119940712D01*
X295239464Y-120035950D01*
X295191845Y-120083569D01*
X295096607Y-120131188D01*
X294715655Y-120131188D01*
X295668036Y-119702617D02*
X295715655Y-119654998D01*
X295810893Y-119607378D01*
X296048988Y-119607378D01*
X296144226Y-119654998D01*
X296191845Y-119702617D01*
X296239464Y-119797855D01*
X296239464Y-119893093D01*
X296191845Y-120035950D01*
X295620417Y-120607378D01*
X296239464Y-120607378D01*
X290161998Y-107359000D02*
X290195331Y-107392333D01*
X290228664Y-107492333D01*
X290228664Y-107559000D01*
X290195331Y-107659000D01*
X290128664Y-107725666D01*
X290061998Y-107759000D01*
X289928664Y-107792333D01*
X289828664Y-107792333D01*
X289695331Y-107759000D01*
X289628664Y-107725666D01*
X289561998Y-107659000D01*
X289528664Y-107559000D01*
X289528664Y-107492333D01*
X289561998Y-107392333D01*
X289595331Y-107359000D01*
X290195331Y-106759000D02*
X290228664Y-106825666D01*
X290228664Y-106959000D01*
X290195331Y-107025666D01*
X290161998Y-107059000D01*
X290095331Y-107092333D01*
X289895331Y-107092333D01*
X289828664Y-107059000D01*
X289795331Y-107025666D01*
X289761998Y-106959000D01*
X289761998Y-106825666D01*
X289795331Y-106759000D01*
X290228664Y-106159000D02*
X289861998Y-106159000D01*
X289795331Y-106192333D01*
X289761998Y-106259000D01*
X289761998Y-106392333D01*
X289795331Y-106459000D01*
X290195331Y-106159000D02*
X290228664Y-106225666D01*
X290228664Y-106392333D01*
X290195331Y-106459000D01*
X290128664Y-106492333D01*
X290061998Y-106492333D01*
X289995331Y-106459000D01*
X289961998Y-106392333D01*
X289961998Y-106225666D01*
X289928664Y-106159000D01*
X289761998Y-105825666D02*
X290461998Y-105825666D01*
X289795331Y-105825666D02*
X289761998Y-105759000D01*
X289761998Y-105625666D01*
X289795331Y-105559000D01*
X289828664Y-105525666D01*
X289895331Y-105492333D01*
X290095331Y-105492333D01*
X290161998Y-105525666D01*
X290195331Y-105559000D01*
X290228664Y-105625666D01*
X290228664Y-105759000D01*
X290195331Y-105825666D01*
X289595331Y-105225666D02*
X289561998Y-105192333D01*
X289528664Y-105125666D01*
X289528664Y-104959000D01*
X289561998Y-104892333D01*
X289595331Y-104859000D01*
X289661998Y-104825666D01*
X289728664Y-104825666D01*
X289828664Y-104859000D01*
X290228664Y-105259000D01*
X290228664Y-104825666D01*
X290130666Y-122089534D02*
X289797333Y-122322867D01*
X290130666Y-122489534D02*
X289430666Y-122489534D01*
X289430666Y-122222867D01*
X289464000Y-122156201D01*
X289497333Y-122122867D01*
X289564000Y-122089534D01*
X289664000Y-122089534D01*
X289730666Y-122122867D01*
X289764000Y-122156201D01*
X289797333Y-122222867D01*
X289797333Y-122489534D01*
X289764000Y-121556201D02*
X289764000Y-121789534D01*
X290130666Y-121789534D02*
X289430666Y-121789534D01*
X289430666Y-121456201D01*
X289764000Y-120956201D02*
X289797333Y-120856201D01*
X289830666Y-120822867D01*
X289897333Y-120789534D01*
X289997333Y-120789534D01*
X290064000Y-120822867D01*
X290097333Y-120856201D01*
X290130666Y-120922867D01*
X290130666Y-121189534D01*
X289430666Y-121189534D01*
X289430666Y-120956201D01*
X289464000Y-120889534D01*
X289497333Y-120856201D01*
X289564000Y-120822867D01*
X289630666Y-120822867D01*
X289697333Y-120856201D01*
X289730666Y-120889534D01*
X289764000Y-120956201D01*
X289764000Y-121189534D01*
X290130666Y-120122867D02*
X290130666Y-120522867D01*
X290130666Y-120322867D02*
X289430666Y-120322867D01*
X289530666Y-120389534D01*
X289597333Y-120456201D01*
X289630666Y-120522867D01*
X289864000Y-119822867D02*
X289864000Y-119289534D01*
X289497333Y-118989534D02*
X289464000Y-118956201D01*
X289430666Y-118889534D01*
X289430666Y-118722867D01*
X289464000Y-118656201D01*
X289497333Y-118622867D01*
X289564000Y-118589534D01*
X289630666Y-118589534D01*
X289730666Y-118622867D01*
X290130666Y-119022867D01*
X290130666Y-118589534D01*
X299302798Y-108403664D02*
X299302798Y-107703664D01*
X299469464Y-107703664D01*
X299569464Y-107736998D01*
X299636131Y-107803664D01*
X299669464Y-107870331D01*
X299702798Y-108003664D01*
X299702798Y-108103664D01*
X299669464Y-108236998D01*
X299636131Y-108303664D01*
X299569464Y-108370331D01*
X299469464Y-108403664D01*
X299302798Y-108403664D01*
X299969464Y-108370331D02*
X300069464Y-108403664D01*
X300236131Y-108403664D01*
X300302798Y-108370331D01*
X300336131Y-108336998D01*
X300369464Y-108270331D01*
X300369464Y-108203664D01*
X300336131Y-108136998D01*
X300302798Y-108103664D01*
X300236131Y-108070331D01*
X300102798Y-108036998D01*
X300036131Y-108003664D01*
X300002798Y-107970331D01*
X299969464Y-107903664D01*
X299969464Y-107836998D01*
X300002798Y-107770331D01*
X300036131Y-107736998D01*
X300102798Y-107703664D01*
X300269464Y-107703664D01*
X300369464Y-107736998D01*
X300636131Y-107770331D02*
X300669464Y-107736998D01*
X300736131Y-107703664D01*
X300902798Y-107703664D01*
X300969464Y-107736998D01*
X301002798Y-107770331D01*
X301036131Y-107836998D01*
X301036131Y-107903664D01*
X301002798Y-108003664D01*
X300602798Y-108403664D01*
X301036131Y-108403664D01*
X294636000Y-113111534D02*
X294669333Y-113144867D01*
X294702666Y-113244867D01*
X294702666Y-113311534D01*
X294669333Y-113411534D01*
X294602666Y-113478201D01*
X294536000Y-113511534D01*
X294402666Y-113544867D01*
X294302666Y-113544867D01*
X294169333Y-113511534D01*
X294102666Y-113478201D01*
X294036000Y-113411534D01*
X294002666Y-113311534D01*
X294002666Y-113244867D01*
X294036000Y-113144867D01*
X294069333Y-113111534D01*
X294669333Y-112844867D02*
X294702666Y-112778201D01*
X294702666Y-112644867D01*
X294669333Y-112578201D01*
X294602666Y-112544867D01*
X294569333Y-112544867D01*
X294502666Y-112578201D01*
X294469333Y-112644867D01*
X294469333Y-112744867D01*
X294436000Y-112811534D01*
X294369333Y-112844867D01*
X294336000Y-112844867D01*
X294269333Y-112811534D01*
X294236000Y-112744867D01*
X294236000Y-112644867D01*
X294269333Y-112578201D01*
X294669333Y-112278201D02*
X294702666Y-112211534D01*
X294702666Y-112078201D01*
X294669333Y-112011534D01*
X294602666Y-111978201D01*
X294569333Y-111978201D01*
X294502666Y-112011534D01*
X294469333Y-112078201D01*
X294469333Y-112178201D01*
X294436000Y-112244867D01*
X294369333Y-112278201D01*
X294336000Y-112278201D01*
X294269333Y-112244867D01*
X294236000Y-112178201D01*
X294236000Y-112078201D01*
X294269333Y-112011534D01*
X294069333Y-111711534D02*
X294036000Y-111678201D01*
X294002666Y-111611534D01*
X294002666Y-111444867D01*
X294036000Y-111378201D01*
X294069333Y-111344867D01*
X294136000Y-111311534D01*
X294202666Y-111311534D01*
X294302666Y-111344867D01*
X294702666Y-111744867D01*
X294702666Y-111311534D01*
X291498664Y-114553666D02*
X291165331Y-114787000D01*
X291498664Y-114953666D02*
X290798664Y-114953666D01*
X290798664Y-114687000D01*
X290831998Y-114620333D01*
X290865331Y-114587000D01*
X290931998Y-114553666D01*
X291031998Y-114553666D01*
X291098664Y-114587000D01*
X291131998Y-114620333D01*
X291165331Y-114687000D01*
X291165331Y-114953666D01*
X290865331Y-114287000D02*
X290831998Y-114253666D01*
X290798664Y-114187000D01*
X290798664Y-114020333D01*
X290831998Y-113953666D01*
X290865331Y-113920333D01*
X290931998Y-113887000D01*
X290998664Y-113887000D01*
X291098664Y-113920333D01*
X291498664Y-114320333D01*
X291498664Y-113887000D01*
X296986333Y-99857534D02*
X296919666Y-99824201D01*
X296853000Y-99757534D01*
X296753000Y-99657534D01*
X296686333Y-99624201D01*
X296619666Y-99624201D01*
X296653000Y-99790867D02*
X296586333Y-99757534D01*
X296519666Y-99690867D01*
X296486333Y-99557534D01*
X296486333Y-99324201D01*
X296519666Y-99190867D01*
X296586333Y-99124201D01*
X296653000Y-99090867D01*
X296786333Y-99090867D01*
X296853000Y-99124201D01*
X296919666Y-99190867D01*
X296953000Y-99324201D01*
X296953000Y-99557534D01*
X296919666Y-99690867D01*
X296853000Y-99757534D01*
X296786333Y-99790867D01*
X296653000Y-99790867D01*
X297219666Y-99157534D02*
X297253000Y-99124201D01*
X297319666Y-99090867D01*
X297486333Y-99090867D01*
X297553000Y-99124201D01*
X297586333Y-99157534D01*
X297619666Y-99224201D01*
X297619666Y-99290867D01*
X297586333Y-99390867D01*
X297186333Y-99790867D01*
X297619666Y-99790867D01*
X288352666Y-119275867D02*
X288019333Y-119509201D01*
X288352666Y-119675867D02*
X287652666Y-119675867D01*
X287652666Y-119409201D01*
X287686000Y-119342534D01*
X287719333Y-119309201D01*
X287786000Y-119275867D01*
X287886000Y-119275867D01*
X287952666Y-119309201D01*
X287986000Y-119342534D01*
X288019333Y-119409201D01*
X288019333Y-119675867D01*
X287952666Y-118875867D02*
X287919333Y-118942534D01*
X287886000Y-118975867D01*
X287819333Y-119009201D01*
X287786000Y-119009201D01*
X287719333Y-118975867D01*
X287686000Y-118942534D01*
X287652666Y-118875867D01*
X287652666Y-118742534D01*
X287686000Y-118675867D01*
X287719333Y-118642534D01*
X287786000Y-118609201D01*
X287819333Y-118609201D01*
X287886000Y-118642534D01*
X287919333Y-118675867D01*
X287952666Y-118742534D01*
X287952666Y-118875867D01*
X287986000Y-118942534D01*
X288019333Y-118975867D01*
X288086000Y-119009201D01*
X288219333Y-119009201D01*
X288286000Y-118975867D01*
X288319333Y-118942534D01*
X288352666Y-118875867D01*
X288352666Y-118742534D01*
X288319333Y-118675867D01*
X288286000Y-118642534D01*
X288219333Y-118609201D01*
X288086000Y-118609201D01*
X288019333Y-118642534D01*
X287986000Y-118675867D01*
X287952666Y-118742534D01*
X300204142Y-98497867D02*
X300251761Y-98545486D01*
X300299380Y-98688343D01*
X300299380Y-98783581D01*
X300251761Y-98926439D01*
X300156523Y-99021677D01*
X300061285Y-99069296D01*
X299870809Y-99116915D01*
X299727952Y-99116915D01*
X299537476Y-99069296D01*
X299442238Y-99021677D01*
X299347000Y-98926439D01*
X299299380Y-98783581D01*
X299299380Y-98688343D01*
X299347000Y-98545486D01*
X299394619Y-98497867D01*
X299632714Y-97640724D02*
X300299380Y-97640724D01*
X299251761Y-97878820D02*
X299966047Y-98116915D01*
X299966047Y-97497867D01*
X295972131Y-118436664D02*
X295638798Y-118436664D01*
X295638798Y-117736664D01*
X296172131Y-117803331D02*
X296205464Y-117769998D01*
X296272131Y-117736664D01*
X296438798Y-117736664D01*
X296505464Y-117769998D01*
X296538798Y-117803331D01*
X296572131Y-117869998D01*
X296572131Y-117936664D01*
X296538798Y-118036664D01*
X296138798Y-118436664D01*
X296572131Y-118436664D01*
X304962000Y-99946201D02*
X304928666Y-99979534D01*
X304828666Y-100012867D01*
X304762000Y-100012867D01*
X304662000Y-99979534D01*
X304595333Y-99912867D01*
X304562000Y-99846201D01*
X304528666Y-99712867D01*
X304528666Y-99612867D01*
X304562000Y-99479534D01*
X304595333Y-99412867D01*
X304662000Y-99346201D01*
X304762000Y-99312867D01*
X304828666Y-99312867D01*
X304928666Y-99346201D01*
X304962000Y-99379534D01*
X305262000Y-100012867D02*
X305262000Y-99546201D01*
X305262000Y-99312867D02*
X305228666Y-99346201D01*
X305262000Y-99379534D01*
X305295333Y-99346201D01*
X305262000Y-99312867D01*
X305262000Y-99379534D01*
X305595333Y-99546201D02*
X305595333Y-100012867D01*
X305595333Y-99612867D02*
X305628666Y-99579534D01*
X305695333Y-99546201D01*
X305795333Y-99546201D01*
X305862000Y-99579534D01*
X305895333Y-99646201D01*
X305895333Y-100012867D01*
X306195333Y-99379534D02*
X306228666Y-99346201D01*
X306295333Y-99312867D01*
X306462000Y-99312867D01*
X306528666Y-99346201D01*
X306562000Y-99379534D01*
X306595333Y-99446201D01*
X306595333Y-99512867D01*
X306562000Y-99612867D01*
X306162000Y-100012867D01*
X306595333Y-100012867D01*
X287180664Y-105917666D02*
X286847331Y-106151000D01*
X287180664Y-106317666D02*
X286480664Y-106317666D01*
X286480664Y-106051000D01*
X286513998Y-105984333D01*
X286547331Y-105951000D01*
X286613998Y-105917666D01*
X286713998Y-105917666D01*
X286780664Y-105951000D01*
X286813998Y-105984333D01*
X286847331Y-106051000D01*
X286847331Y-106317666D01*
X286713998Y-105317666D02*
X287180664Y-105317666D01*
X286447331Y-105484333D02*
X286947331Y-105651000D01*
X286947331Y-105217666D01*
X296099131Y-109673664D02*
X295865798Y-109340331D01*
X295699131Y-109673664D02*
X295699131Y-108973664D01*
X295965798Y-108973664D01*
X296032464Y-109006998D01*
X296065798Y-109040331D01*
X296099131Y-109106998D01*
X296099131Y-109206998D01*
X296065798Y-109273664D01*
X296032464Y-109306998D01*
X295965798Y-109340331D01*
X295699131Y-109340331D01*
X296699131Y-108973664D02*
X296565798Y-108973664D01*
X296499131Y-109006998D01*
X296465798Y-109040331D01*
X296399131Y-109140331D01*
X296365798Y-109273664D01*
X296365798Y-109540331D01*
X296399131Y-109606998D01*
X296432464Y-109640331D01*
X296499131Y-109673664D01*
X296632464Y-109673664D01*
X296699131Y-109640331D01*
X296732464Y-109606998D01*
X296765798Y-109540331D01*
X296765798Y-109373664D01*
X296732464Y-109306998D01*
X296699131Y-109273664D01*
X296632464Y-109240331D01*
X296499131Y-109240331D01*
X296432464Y-109273664D01*
X296399131Y-109306998D01*
X296365798Y-109373664D01*
X277061140Y-112698666D02*
X277108759Y-112746285D01*
X277156378Y-112889142D01*
X277156378Y-112984380D01*
X277108759Y-113127238D01*
X277013521Y-113222476D01*
X276918283Y-113270095D01*
X276727807Y-113317714D01*
X276584950Y-113317714D01*
X276394474Y-113270095D01*
X276299236Y-113222476D01*
X276203998Y-113127238D01*
X276156378Y-112984380D01*
X276156378Y-112889142D01*
X276203998Y-112746285D01*
X276251617Y-112698666D01*
X276156378Y-112365333D02*
X276156378Y-111746285D01*
X276537331Y-112079619D01*
X276537331Y-111936761D01*
X276584950Y-111841523D01*
X276632569Y-111793904D01*
X276727807Y-111746285D01*
X276965902Y-111746285D01*
X277061140Y-111793904D01*
X277108759Y-111841523D01*
X277156378Y-111936761D01*
X277156378Y-112222476D01*
X277108759Y-112317714D01*
X277061140Y-112365333D01*
X310835000Y-109978000D02*
X310801666Y-110011333D01*
X310701666Y-110044666D01*
X310635000Y-110044666D01*
X310535000Y-110011333D01*
X310468333Y-109944666D01*
X310435000Y-109878000D01*
X310401666Y-109744666D01*
X310401666Y-109644666D01*
X310435000Y-109511333D01*
X310468333Y-109444666D01*
X310535000Y-109378000D01*
X310635000Y-109344666D01*
X310701666Y-109344666D01*
X310801666Y-109378000D01*
X310835000Y-109411333D01*
X311235000Y-110044666D02*
X311168333Y-110011333D01*
X311135000Y-109978000D01*
X311101666Y-109911333D01*
X311101666Y-109711333D01*
X311135000Y-109644666D01*
X311168333Y-109611333D01*
X311235000Y-109578000D01*
X311335000Y-109578000D01*
X311401666Y-109611333D01*
X311435000Y-109644666D01*
X311468333Y-109711333D01*
X311468333Y-109911333D01*
X311435000Y-109978000D01*
X311401666Y-110011333D01*
X311335000Y-110044666D01*
X311235000Y-110044666D01*
X312068333Y-109578000D02*
X312068333Y-110044666D01*
X311768333Y-109578000D02*
X311768333Y-109944666D01*
X311801666Y-110011333D01*
X311868333Y-110044666D01*
X311968333Y-110044666D01*
X312035000Y-110011333D01*
X312068333Y-109978000D01*
X312301666Y-109578000D02*
X312568333Y-109578000D01*
X312401666Y-109344666D02*
X312401666Y-109944666D01*
X312435000Y-110011333D01*
X312501666Y-110044666D01*
X312568333Y-110044666D01*
X312768333Y-109411333D02*
X312801666Y-109378000D01*
X312868333Y-109344666D01*
X313035000Y-109344666D01*
X313101666Y-109378000D01*
X313135000Y-109411333D01*
X313168333Y-109478000D01*
X313168333Y-109544666D01*
X313135000Y-109644666D01*
X312735000Y-110044666D01*
X313168333Y-110044666D01*
X292035666Y-122089534D02*
X291702333Y-122322867D01*
X292035666Y-122489534D02*
X291335666Y-122489534D01*
X291335666Y-122222867D01*
X291369000Y-122156201D01*
X291402333Y-122122867D01*
X291469000Y-122089534D01*
X291569000Y-122089534D01*
X291635666Y-122122867D01*
X291669000Y-122156201D01*
X291702333Y-122222867D01*
X291702333Y-122489534D01*
X291669000Y-121556201D02*
X291669000Y-121789534D01*
X292035666Y-121789534D02*
X291335666Y-121789534D01*
X291335666Y-121456201D01*
X291669000Y-120956201D02*
X291702333Y-120856201D01*
X291735666Y-120822867D01*
X291802333Y-120789534D01*
X291902333Y-120789534D01*
X291969000Y-120822867D01*
X292002333Y-120856201D01*
X292035666Y-120922867D01*
X292035666Y-121189534D01*
X291335666Y-121189534D01*
X291335666Y-120956201D01*
X291369000Y-120889534D01*
X291402333Y-120856201D01*
X291469000Y-120822867D01*
X291535666Y-120822867D01*
X291602333Y-120856201D01*
X291635666Y-120889534D01*
X291669000Y-120956201D01*
X291669000Y-121189534D01*
X291402333Y-120522867D02*
X291369000Y-120489534D01*
X291335666Y-120422867D01*
X291335666Y-120256201D01*
X291369000Y-120189534D01*
X291402333Y-120156201D01*
X291469000Y-120122867D01*
X291535666Y-120122867D01*
X291635666Y-120156201D01*
X292035666Y-120556201D01*
X292035666Y-120122867D01*
X291769000Y-119822867D02*
X291769000Y-119289534D01*
X291402333Y-118989534D02*
X291369000Y-118956201D01*
X291335666Y-118889534D01*
X291335666Y-118722867D01*
X291369000Y-118656201D01*
X291402333Y-118622867D01*
X291469000Y-118589534D01*
X291535666Y-118589534D01*
X291635666Y-118622867D01*
X292035666Y-119022867D01*
X292035666Y-118589534D01*
X280369066Y-106741666D02*
X280369066Y-107308333D01*
X280402400Y-107375000D01*
X280435733Y-107408333D01*
X280502400Y-107441666D01*
X280635733Y-107441666D01*
X280702400Y-107408333D01*
X280735733Y-107375000D01*
X280769066Y-107308333D01*
X280769066Y-106741666D01*
X281069066Y-106808333D02*
X281102400Y-106775000D01*
X281169066Y-106741666D01*
X281335733Y-106741666D01*
X281402400Y-106775000D01*
X281435733Y-106808333D01*
X281469066Y-106875000D01*
X281469066Y-106941666D01*
X281435733Y-107041666D01*
X281035733Y-107441666D01*
X281469066Y-107441666D01*
X287002780Y-107699199D02*
X287240876Y-107699199D01*
X287145638Y-107937294D02*
X287240876Y-107699199D01*
X287145638Y-107461103D01*
X287431352Y-107842056D02*
X287240876Y-107699199D01*
X287431352Y-107556341D01*
X287002780Y-107699199D02*
X287240876Y-107699199D01*
X287145638Y-107937294D02*
X287240876Y-107699199D01*
X287145638Y-107461103D01*
X287431352Y-107842056D02*
X287240876Y-107699199D01*
X287431352Y-107556341D01*
X346010131Y-118436664D02*
X345676798Y-118436664D01*
X345676798Y-117736664D01*
X346610131Y-118436664D02*
X346210131Y-118436664D01*
X346410131Y-118436664D02*
X346410131Y-117736664D01*
X346343464Y-117836664D01*
X346276798Y-117903331D01*
X346210131Y-117936664D01*
X330407066Y-106741666D02*
X330407066Y-107308333D01*
X330440400Y-107375000D01*
X330473733Y-107408333D01*
X330540400Y-107441666D01*
X330673733Y-107441666D01*
X330740400Y-107408333D01*
X330773733Y-107375000D01*
X330807066Y-107308333D01*
X330807066Y-106741666D01*
X331507066Y-107441666D02*
X331107066Y-107441666D01*
X331307066Y-107441666D02*
X331307066Y-106741666D01*
X331240400Y-106841666D01*
X331173733Y-106908333D01*
X331107066Y-106941666D01*
X337040780Y-107699199D02*
X337278876Y-107699199D01*
X337183638Y-107937294D02*
X337278876Y-107699199D01*
X337183638Y-107461103D01*
X337469352Y-107842056D02*
X337278876Y-107699199D01*
X337469352Y-107556341D01*
X337040780Y-107699199D02*
X337278876Y-107699199D01*
X337183638Y-107937294D02*
X337278876Y-107699199D01*
X337183638Y-107461103D01*
X337469352Y-107842056D02*
X337278876Y-107699199D01*
X337469352Y-107556341D01*
X355000000Y-99946201D02*
X354966666Y-99979534D01*
X354866666Y-100012867D01*
X354800000Y-100012867D01*
X354700000Y-99979534D01*
X354633333Y-99912867D01*
X354600000Y-99846201D01*
X354566666Y-99712867D01*
X354566666Y-99612867D01*
X354600000Y-99479534D01*
X354633333Y-99412867D01*
X354700000Y-99346201D01*
X354800000Y-99312867D01*
X354866666Y-99312867D01*
X354966666Y-99346201D01*
X355000000Y-99379534D01*
X355300000Y-100012867D02*
X355300000Y-99546201D01*
X355300000Y-99312867D02*
X355266666Y-99346201D01*
X355300000Y-99379534D01*
X355333333Y-99346201D01*
X355300000Y-99312867D01*
X355300000Y-99379534D01*
X355633333Y-99546201D02*
X355633333Y-100012867D01*
X355633333Y-99612867D02*
X355666666Y-99579534D01*
X355733333Y-99546201D01*
X355833333Y-99546201D01*
X355900000Y-99579534D01*
X355933333Y-99646201D01*
X355933333Y-100012867D01*
X356633333Y-100012867D02*
X356233333Y-100012867D01*
X356433333Y-100012867D02*
X356433333Y-99312867D01*
X356366666Y-99412867D01*
X356300000Y-99479534D01*
X356233333Y-99512867D01*
X360873000Y-109978000D02*
X360839666Y-110011333D01*
X360739666Y-110044666D01*
X360673000Y-110044666D01*
X360573000Y-110011333D01*
X360506333Y-109944666D01*
X360473000Y-109878000D01*
X360439666Y-109744666D01*
X360439666Y-109644666D01*
X360473000Y-109511333D01*
X360506333Y-109444666D01*
X360573000Y-109378000D01*
X360673000Y-109344666D01*
X360739666Y-109344666D01*
X360839666Y-109378000D01*
X360873000Y-109411333D01*
X361273000Y-110044666D02*
X361206333Y-110011333D01*
X361173000Y-109978000D01*
X361139666Y-109911333D01*
X361139666Y-109711333D01*
X361173000Y-109644666D01*
X361206333Y-109611333D01*
X361273000Y-109578000D01*
X361373000Y-109578000D01*
X361439666Y-109611333D01*
X361473000Y-109644666D01*
X361506333Y-109711333D01*
X361506333Y-109911333D01*
X361473000Y-109978000D01*
X361439666Y-110011333D01*
X361373000Y-110044666D01*
X361273000Y-110044666D01*
X362106333Y-109578000D02*
X362106333Y-110044666D01*
X361806333Y-109578000D02*
X361806333Y-109944666D01*
X361839666Y-110011333D01*
X361906333Y-110044666D01*
X362006333Y-110044666D01*
X362073000Y-110011333D01*
X362106333Y-109978000D01*
X362339666Y-109578000D02*
X362606333Y-109578000D01*
X362439666Y-109344666D02*
X362439666Y-109944666D01*
X362473000Y-110011333D01*
X362539666Y-110044666D01*
X362606333Y-110044666D01*
X363206333Y-110044666D02*
X362806333Y-110044666D01*
X363006333Y-110044666D02*
X363006333Y-109344666D01*
X362939666Y-109444666D01*
X362873000Y-109511333D01*
X362806333Y-109544666D01*
X349340798Y-108403664D02*
X349340798Y-107703664D01*
X349507464Y-107703664D01*
X349607464Y-107736998D01*
X349674131Y-107803664D01*
X349707464Y-107870331D01*
X349740798Y-108003664D01*
X349740798Y-108103664D01*
X349707464Y-108236998D01*
X349674131Y-108303664D01*
X349607464Y-108370331D01*
X349507464Y-108403664D01*
X349340798Y-108403664D01*
X350007464Y-108370331D02*
X350107464Y-108403664D01*
X350274131Y-108403664D01*
X350340798Y-108370331D01*
X350374131Y-108336998D01*
X350407464Y-108270331D01*
X350407464Y-108203664D01*
X350374131Y-108136998D01*
X350340798Y-108103664D01*
X350274131Y-108070331D01*
X350140798Y-108036998D01*
X350074131Y-108003664D01*
X350040798Y-107970331D01*
X350007464Y-107903664D01*
X350007464Y-107836998D01*
X350040798Y-107770331D01*
X350074131Y-107736998D01*
X350140798Y-107703664D01*
X350307464Y-107703664D01*
X350407464Y-107736998D01*
X351074131Y-108403664D02*
X350674131Y-108403664D01*
X350874131Y-108403664D02*
X350874131Y-107703664D01*
X350807464Y-107803664D01*
X350740798Y-107870331D01*
X350674131Y-107903664D01*
X347024333Y-99857534D02*
X346957666Y-99824201D01*
X346891000Y-99757534D01*
X346791000Y-99657534D01*
X346724333Y-99624201D01*
X346657666Y-99624201D01*
X346691000Y-99790867D02*
X346624333Y-99757534D01*
X346557666Y-99690867D01*
X346524333Y-99557534D01*
X346524333Y-99324201D01*
X346557666Y-99190867D01*
X346624333Y-99124201D01*
X346691000Y-99090867D01*
X346824333Y-99090867D01*
X346891000Y-99124201D01*
X346957666Y-99190867D01*
X346991000Y-99324201D01*
X346991000Y-99557534D01*
X346957666Y-99690867D01*
X346891000Y-99757534D01*
X346824333Y-99790867D01*
X346691000Y-99790867D01*
X347657666Y-99790867D02*
X347257666Y-99790867D01*
X347457666Y-99790867D02*
X347457666Y-99090867D01*
X347391000Y-99190867D01*
X347324333Y-99257534D01*
X347257666Y-99290867D01*
X340199998Y-107359000D02*
X340233331Y-107392333D01*
X340266664Y-107492333D01*
X340266664Y-107559000D01*
X340233331Y-107659000D01*
X340166664Y-107725666D01*
X340099998Y-107759000D01*
X339966664Y-107792333D01*
X339866664Y-107792333D01*
X339733331Y-107759000D01*
X339666664Y-107725666D01*
X339599998Y-107659000D01*
X339566664Y-107559000D01*
X339566664Y-107492333D01*
X339599998Y-107392333D01*
X339633331Y-107359000D01*
X340233331Y-106759000D02*
X340266664Y-106825666D01*
X340266664Y-106959000D01*
X340233331Y-107025666D01*
X340199998Y-107059000D01*
X340133331Y-107092333D01*
X339933331Y-107092333D01*
X339866664Y-107059000D01*
X339833331Y-107025666D01*
X339799998Y-106959000D01*
X339799998Y-106825666D01*
X339833331Y-106759000D01*
X340266664Y-106159000D02*
X339899998Y-106159000D01*
X339833331Y-106192333D01*
X339799998Y-106259000D01*
X339799998Y-106392333D01*
X339833331Y-106459000D01*
X340233331Y-106159000D02*
X340266664Y-106225666D01*
X340266664Y-106392333D01*
X340233331Y-106459000D01*
X340166664Y-106492333D01*
X340099998Y-106492333D01*
X340033331Y-106459000D01*
X339999998Y-106392333D01*
X339999998Y-106225666D01*
X339966664Y-106159000D01*
X339799998Y-105825666D02*
X340499998Y-105825666D01*
X339833331Y-105825666D02*
X339799998Y-105759000D01*
X339799998Y-105625666D01*
X339833331Y-105559000D01*
X339866664Y-105525666D01*
X339933331Y-105492333D01*
X340133331Y-105492333D01*
X340199998Y-105525666D01*
X340233331Y-105559000D01*
X340266664Y-105625666D01*
X340266664Y-105759000D01*
X340233331Y-105825666D01*
X340266664Y-104825666D02*
X340266664Y-105225666D01*
X340266664Y-105025666D02*
X339566664Y-105025666D01*
X339666664Y-105092333D01*
X339733331Y-105159000D01*
X339766664Y-105225666D01*
X341536664Y-114553666D02*
X341203331Y-114787000D01*
X341536664Y-114953666D02*
X340836664Y-114953666D01*
X340836664Y-114687000D01*
X340869998Y-114620333D01*
X340903331Y-114587000D01*
X340969998Y-114553666D01*
X341069998Y-114553666D01*
X341136664Y-114587000D01*
X341169998Y-114620333D01*
X341203331Y-114687000D01*
X341203331Y-114953666D01*
X341536664Y-113887000D02*
X341536664Y-114287000D01*
X341536664Y-114087000D02*
X340836664Y-114087000D01*
X340936664Y-114153666D01*
X341003331Y-114220333D01*
X341036664Y-114287000D01*
X346137131Y-109673664D02*
X345903798Y-109340331D01*
X345737131Y-109673664D02*
X345737131Y-108973664D01*
X346003798Y-108973664D01*
X346070464Y-109006998D01*
X346103798Y-109040331D01*
X346137131Y-109106998D01*
X346137131Y-109206998D01*
X346103798Y-109273664D01*
X346070464Y-109306998D01*
X346003798Y-109340331D01*
X345737131Y-109340331D01*
X346770464Y-108973664D02*
X346437131Y-108973664D01*
X346403798Y-109306998D01*
X346437131Y-109273664D01*
X346503798Y-109240331D01*
X346670464Y-109240331D01*
X346737131Y-109273664D01*
X346770464Y-109306998D01*
X346803798Y-109373664D01*
X346803798Y-109540331D01*
X346770464Y-109606998D01*
X346737131Y-109640331D01*
X346670464Y-109673664D01*
X346503798Y-109673664D01*
X346437131Y-109640331D01*
X346403798Y-109606998D01*
X342073666Y-122089534D02*
X341740333Y-122322867D01*
X342073666Y-122489534D02*
X341373666Y-122489534D01*
X341373666Y-122222867D01*
X341407000Y-122156201D01*
X341440333Y-122122867D01*
X341507000Y-122089534D01*
X341607000Y-122089534D01*
X341673666Y-122122867D01*
X341707000Y-122156201D01*
X341740333Y-122222867D01*
X341740333Y-122489534D01*
X341707000Y-121556201D02*
X341707000Y-121789534D01*
X342073666Y-121789534D02*
X341373666Y-121789534D01*
X341373666Y-121456201D01*
X341707000Y-120956201D02*
X341740333Y-120856201D01*
X341773666Y-120822867D01*
X341840333Y-120789534D01*
X341940333Y-120789534D01*
X342007000Y-120822867D01*
X342040333Y-120856201D01*
X342073666Y-120922867D01*
X342073666Y-121189534D01*
X341373666Y-121189534D01*
X341373666Y-120956201D01*
X341407000Y-120889534D01*
X341440333Y-120856201D01*
X341507000Y-120822867D01*
X341573666Y-120822867D01*
X341640333Y-120856201D01*
X341673666Y-120889534D01*
X341707000Y-120956201D01*
X341707000Y-121189534D01*
X341440333Y-120522867D02*
X341407000Y-120489534D01*
X341373666Y-120422867D01*
X341373666Y-120256201D01*
X341407000Y-120189534D01*
X341440333Y-120156201D01*
X341507000Y-120122867D01*
X341573666Y-120122867D01*
X341673666Y-120156201D01*
X342073666Y-120556201D01*
X342073666Y-120122867D01*
X341807000Y-119822867D02*
X341807000Y-119289534D01*
X342073666Y-118589534D02*
X342073666Y-118989534D01*
X342073666Y-118789534D02*
X341373666Y-118789534D01*
X341473666Y-118856201D01*
X341540333Y-118922867D01*
X341573666Y-118989534D01*
X340168666Y-122089534D02*
X339835333Y-122322867D01*
X340168666Y-122489534D02*
X339468666Y-122489534D01*
X339468666Y-122222867D01*
X339502000Y-122156201D01*
X339535333Y-122122867D01*
X339602000Y-122089534D01*
X339702000Y-122089534D01*
X339768666Y-122122867D01*
X339802000Y-122156201D01*
X339835333Y-122222867D01*
X339835333Y-122489534D01*
X339802000Y-121556201D02*
X339802000Y-121789534D01*
X340168666Y-121789534D02*
X339468666Y-121789534D01*
X339468666Y-121456201D01*
X339802000Y-120956201D02*
X339835333Y-120856201D01*
X339868666Y-120822867D01*
X339935333Y-120789534D01*
X340035333Y-120789534D01*
X340102000Y-120822867D01*
X340135333Y-120856201D01*
X340168666Y-120922867D01*
X340168666Y-121189534D01*
X339468666Y-121189534D01*
X339468666Y-120956201D01*
X339502000Y-120889534D01*
X339535333Y-120856201D01*
X339602000Y-120822867D01*
X339668666Y-120822867D01*
X339735333Y-120856201D01*
X339768666Y-120889534D01*
X339802000Y-120956201D01*
X339802000Y-121189534D01*
X340168666Y-120122867D02*
X340168666Y-120522867D01*
X340168666Y-120322867D02*
X339468666Y-120322867D01*
X339568666Y-120389534D01*
X339635333Y-120456201D01*
X339668666Y-120522867D01*
X339902000Y-119822867D02*
X339902000Y-119289534D01*
X340168666Y-118589534D02*
X340168666Y-118989534D01*
X340168666Y-118789534D02*
X339468666Y-118789534D01*
X339568666Y-118856201D01*
X339635333Y-118922867D01*
X339668666Y-118989534D01*
X338390666Y-119275867D02*
X338057333Y-119509201D01*
X338390666Y-119675867D02*
X337690666Y-119675867D01*
X337690666Y-119409201D01*
X337724000Y-119342534D01*
X337757333Y-119309201D01*
X337824000Y-119275867D01*
X337924000Y-119275867D01*
X337990666Y-119309201D01*
X338024000Y-119342534D01*
X338057333Y-119409201D01*
X338057333Y-119675867D01*
X337690666Y-119042534D02*
X337690666Y-118575867D01*
X338390666Y-118875867D01*
X344674000Y-113111534D02*
X344707333Y-113144867D01*
X344740666Y-113244867D01*
X344740666Y-113311534D01*
X344707333Y-113411534D01*
X344640666Y-113478201D01*
X344574000Y-113511534D01*
X344440666Y-113544867D01*
X344340666Y-113544867D01*
X344207333Y-113511534D01*
X344140666Y-113478201D01*
X344074000Y-113411534D01*
X344040666Y-113311534D01*
X344040666Y-113244867D01*
X344074000Y-113144867D01*
X344107333Y-113111534D01*
X344707333Y-112844867D02*
X344740666Y-112778201D01*
X344740666Y-112644867D01*
X344707333Y-112578201D01*
X344640666Y-112544867D01*
X344607333Y-112544867D01*
X344540666Y-112578201D01*
X344507333Y-112644867D01*
X344507333Y-112744867D01*
X344474000Y-112811534D01*
X344407333Y-112844867D01*
X344374000Y-112844867D01*
X344307333Y-112811534D01*
X344274000Y-112744867D01*
X344274000Y-112644867D01*
X344307333Y-112578201D01*
X344707333Y-112278201D02*
X344740666Y-112211534D01*
X344740666Y-112078201D01*
X344707333Y-112011534D01*
X344640666Y-111978201D01*
X344607333Y-111978201D01*
X344540666Y-112011534D01*
X344507333Y-112078201D01*
X344507333Y-112178201D01*
X344474000Y-112244867D01*
X344407333Y-112278201D01*
X344374000Y-112278201D01*
X344307333Y-112244867D01*
X344274000Y-112178201D01*
X344274000Y-112078201D01*
X344307333Y-112011534D01*
X344740666Y-111311534D02*
X344740666Y-111711534D01*
X344740666Y-111511534D02*
X344040666Y-111511534D01*
X344140666Y-111578201D01*
X344207333Y-111644867D01*
X344240666Y-111711534D01*
X337218664Y-105917666D02*
X336885331Y-106151000D01*
X337218664Y-106317666D02*
X336518664Y-106317666D01*
X336518664Y-106051000D01*
X336551998Y-105984333D01*
X336585331Y-105951000D01*
X336651998Y-105917666D01*
X336751998Y-105917666D01*
X336818664Y-105951000D01*
X336851998Y-105984333D01*
X336885331Y-106051000D01*
X336885331Y-106317666D01*
X336518664Y-105684333D02*
X336518664Y-105251000D01*
X336785331Y-105484333D01*
X336785331Y-105384333D01*
X336818664Y-105317666D01*
X336851998Y-105284333D01*
X336918664Y-105251000D01*
X337085331Y-105251000D01*
X337151998Y-105284333D01*
X337185331Y-105317666D01*
X337218664Y-105384333D01*
X337218664Y-105584333D01*
X337185331Y-105651000D01*
X337151998Y-105684333D01*
X327099140Y-112698666D02*
X327146759Y-112746285D01*
X327194378Y-112889142D01*
X327194378Y-112984380D01*
X327146759Y-113127238D01*
X327051521Y-113222476D01*
X326956283Y-113270095D01*
X326765807Y-113317714D01*
X326622950Y-113317714D01*
X326432474Y-113270095D01*
X326337236Y-113222476D01*
X326241998Y-113127238D01*
X326194378Y-112984380D01*
X326194378Y-112889142D01*
X326241998Y-112746285D01*
X326289617Y-112698666D01*
X327194378Y-111746285D02*
X327194378Y-112317714D01*
X327194378Y-112032000D02*
X326194378Y-112032000D01*
X326337236Y-112127238D01*
X326432474Y-112222476D01*
X326480093Y-112317714D01*
X308788466Y-126947380D02*
X308788466Y-127661666D01*
X308740847Y-127804523D01*
X308645609Y-127899761D01*
X308502752Y-127947380D01*
X308407514Y-127947380D01*
X309788466Y-127947380D02*
X309217038Y-127947380D01*
X309502752Y-127947380D02*
X309502752Y-126947380D01*
X309407514Y-127090238D01*
X309312276Y-127185476D01*
X309217038Y-127233095D01*
X350242142Y-98497867D02*
X350289761Y-98545486D01*
X350337380Y-98688343D01*
X350337380Y-98783581D01*
X350289761Y-98926439D01*
X350194523Y-99021677D01*
X350099285Y-99069296D01*
X349908809Y-99116915D01*
X349765952Y-99116915D01*
X349575476Y-99069296D01*
X349480238Y-99021677D01*
X349385000Y-98926439D01*
X349337380Y-98783581D01*
X349337380Y-98688343D01*
X349385000Y-98545486D01*
X349432619Y-98497867D01*
X349432619Y-98116915D02*
X349385000Y-98069296D01*
X349337380Y-97974058D01*
X349337380Y-97735962D01*
X349385000Y-97640724D01*
X349432619Y-97593105D01*
X349527857Y-97545486D01*
X349623095Y-97545486D01*
X349765952Y-97593105D01*
X350337380Y-98164534D01*
X350337380Y-97545486D01*
X343848893Y-119607378D02*
X344420321Y-119607378D01*
X344134607Y-120607378D02*
X344134607Y-119607378D01*
X344753655Y-120607378D02*
X344753655Y-119607378D01*
X345134607Y-119607378D01*
X345229845Y-119654998D01*
X345277464Y-119702617D01*
X345325083Y-119797855D01*
X345325083Y-119940712D01*
X345277464Y-120035950D01*
X345229845Y-120083569D01*
X345134607Y-120131188D01*
X344753655Y-120131188D01*
X346277464Y-120607378D02*
X345706036Y-120607378D01*
X345991750Y-120607378D02*
X345991750Y-119607378D01*
X345896512Y-119750236D01*
X345801274Y-119845474D01*
X345706036Y-119893093D01*
X347305333Y-129300190D02*
X347257714Y-129347809D01*
X347114857Y-129395428D01*
X347019619Y-129395428D01*
X346876761Y-129347809D01*
X346781523Y-129252571D01*
X346733904Y-129157333D01*
X346686285Y-128966857D01*
X346686285Y-128824000D01*
X346733904Y-128633524D01*
X346781523Y-128538286D01*
X346876761Y-128443048D01*
X347019619Y-128395428D01*
X347114857Y-128395428D01*
X347257714Y-128443048D01*
X347305333Y-128490667D01*
X348210095Y-128395428D02*
X347733904Y-128395428D01*
X347686285Y-128871619D01*
X347733904Y-128824000D01*
X347829142Y-128776381D01*
X348067238Y-128776381D01*
X348162476Y-128824000D01*
X348210095Y-128871619D01*
X348257714Y-128966857D01*
X348257714Y-129204952D01*
X348210095Y-129300190D01*
X348162476Y-129347809D01*
X348067238Y-129395428D01*
X347829142Y-129395428D01*
X347733904Y-129347809D01*
X347686285Y-129300190D01*
X339292180Y-98411809D02*
X338815990Y-98745142D01*
X339292180Y-98983238D02*
X338292180Y-98983238D01*
X338292180Y-98602285D01*
X338339800Y-98507047D01*
X338387419Y-98459428D01*
X338482657Y-98411809D01*
X338625514Y-98411809D01*
X338720752Y-98459428D01*
X338768371Y-98507047D01*
X338815990Y-98602285D01*
X338815990Y-98983238D01*
X339292180Y-97983238D02*
X338625514Y-97983238D01*
X338292180Y-97983238D02*
X338339800Y-98030857D01*
X338387419Y-97983238D01*
X338339800Y-97935619D01*
X338292180Y-97983238D01*
X338387419Y-97983238D01*
X339244561Y-97554666D02*
X339292180Y-97459428D01*
X339292180Y-97268952D01*
X339244561Y-97173714D01*
X339149323Y-97126095D01*
X339101704Y-97126095D01*
X339006466Y-97173714D01*
X338958847Y-97268952D01*
X338958847Y-97411809D01*
X338911228Y-97507047D01*
X338815990Y-97554666D01*
X338768371Y-97554666D01*
X338673133Y-97507047D01*
X338625514Y-97411809D01*
X338625514Y-97268952D01*
X338673133Y-97173714D01*
X339244561Y-96316571D02*
X339292180Y-96411809D01*
X339292180Y-96602285D01*
X339244561Y-96697523D01*
X339149323Y-96745142D01*
X338768371Y-96745142D01*
X338673133Y-96697523D01*
X338625514Y-96602285D01*
X338625514Y-96411809D01*
X338673133Y-96316571D01*
X338768371Y-96268952D01*
X338863609Y-96268952D01*
X338958847Y-96745142D01*
X338625514Y-95983238D02*
X338625514Y-95602285D01*
X338292180Y-95840380D02*
X339149323Y-95840380D01*
X339244561Y-95792761D01*
X339292180Y-95697523D01*
X339292180Y-95602285D01*
X339292180Y-94745142D02*
X339292180Y-95316571D01*
X339292180Y-95030857D02*
X338292180Y-95030857D01*
X338435038Y-95126095D01*
X338530276Y-95221333D01*
X338577895Y-95316571D01*
X341578180Y-98459428D02*
X341101990Y-98792761D01*
X341578180Y-99030857D02*
X340578180Y-99030857D01*
X340578180Y-98649904D01*
X340625800Y-98554666D01*
X340673419Y-98507047D01*
X340768657Y-98459428D01*
X340911514Y-98459428D01*
X341006752Y-98507047D01*
X341054371Y-98554666D01*
X341101990Y-98649904D01*
X341101990Y-99030857D01*
X340911514Y-98173714D02*
X340911514Y-97792761D01*
X340578180Y-98030857D02*
X341435323Y-98030857D01*
X341530561Y-97983238D01*
X341578180Y-97888000D01*
X341578180Y-97792761D01*
X341530561Y-97507047D02*
X341578180Y-97411809D01*
X341578180Y-97221333D01*
X341530561Y-97126095D01*
X341435323Y-97078476D01*
X341387704Y-97078476D01*
X341292466Y-97126095D01*
X341244847Y-97221333D01*
X341244847Y-97364190D01*
X341197228Y-97459428D01*
X341101990Y-97507047D01*
X341054371Y-97507047D01*
X340959133Y-97459428D01*
X340911514Y-97364190D01*
X340911514Y-97221333D01*
X340959133Y-97126095D01*
X341530561Y-96268952D02*
X341578180Y-96364190D01*
X341578180Y-96554666D01*
X341530561Y-96649904D01*
X341435323Y-96697523D01*
X341054371Y-96697523D01*
X340959133Y-96649904D01*
X340911514Y-96554666D01*
X340911514Y-96364190D01*
X340959133Y-96268952D01*
X341054371Y-96221333D01*
X341149609Y-96221333D01*
X341244847Y-96697523D01*
X340911514Y-95935619D02*
X340911514Y-95554666D01*
X340578180Y-95792761D02*
X341435323Y-95792761D01*
X341530561Y-95745142D01*
X341578180Y-95649904D01*
X341578180Y-95554666D01*
X341578180Y-94697523D02*
X341578180Y-95268952D01*
X341578180Y-94983238D02*
X340578180Y-94983238D01*
X340721038Y-95078476D01*
X340816276Y-95173714D01*
X340863895Y-95268952D01*
X289127180Y-98538809D02*
X288650990Y-98872142D01*
X289127180Y-99110238D02*
X288127180Y-99110238D01*
X288127180Y-98729285D01*
X288174800Y-98634047D01*
X288222419Y-98586428D01*
X288317657Y-98538809D01*
X288460514Y-98538809D01*
X288555752Y-98586428D01*
X288603371Y-98634047D01*
X288650990Y-98729285D01*
X288650990Y-99110238D01*
X289127180Y-98110238D02*
X288460514Y-98110238D01*
X288127180Y-98110238D02*
X288174800Y-98157857D01*
X288222419Y-98110238D01*
X288174800Y-98062619D01*
X288127180Y-98110238D01*
X288222419Y-98110238D01*
X289079561Y-97681666D02*
X289127180Y-97586428D01*
X289127180Y-97395952D01*
X289079561Y-97300714D01*
X288984323Y-97253095D01*
X288936704Y-97253095D01*
X288841466Y-97300714D01*
X288793847Y-97395952D01*
X288793847Y-97538809D01*
X288746228Y-97634047D01*
X288650990Y-97681666D01*
X288603371Y-97681666D01*
X288508133Y-97634047D01*
X288460514Y-97538809D01*
X288460514Y-97395952D01*
X288508133Y-97300714D01*
X289079561Y-96443571D02*
X289127180Y-96538809D01*
X289127180Y-96729285D01*
X289079561Y-96824523D01*
X288984323Y-96872142D01*
X288603371Y-96872142D01*
X288508133Y-96824523D01*
X288460514Y-96729285D01*
X288460514Y-96538809D01*
X288508133Y-96443571D01*
X288603371Y-96395952D01*
X288698609Y-96395952D01*
X288793847Y-96872142D01*
X288460514Y-96110238D02*
X288460514Y-95729285D01*
X288127180Y-95967380D02*
X288984323Y-95967380D01*
X289079561Y-95919761D01*
X289127180Y-95824523D01*
X289127180Y-95729285D01*
X288222419Y-95443571D02*
X288174800Y-95395952D01*
X288127180Y-95300714D01*
X288127180Y-95062619D01*
X288174800Y-94967380D01*
X288222419Y-94919761D01*
X288317657Y-94872142D01*
X288412895Y-94872142D01*
X288555752Y-94919761D01*
X289127180Y-95491190D01*
X289127180Y-94872142D01*
X291413180Y-98586428D02*
X290936990Y-98919761D01*
X291413180Y-99157857D02*
X290413180Y-99157857D01*
X290413180Y-98776904D01*
X290460800Y-98681666D01*
X290508419Y-98634047D01*
X290603657Y-98586428D01*
X290746514Y-98586428D01*
X290841752Y-98634047D01*
X290889371Y-98681666D01*
X290936990Y-98776904D01*
X290936990Y-99157857D01*
X290746514Y-98300714D02*
X290746514Y-97919761D01*
X290413180Y-98157857D02*
X291270323Y-98157857D01*
X291365561Y-98110238D01*
X291413180Y-98015000D01*
X291413180Y-97919761D01*
X291365561Y-97634047D02*
X291413180Y-97538809D01*
X291413180Y-97348333D01*
X291365561Y-97253095D01*
X291270323Y-97205476D01*
X291222704Y-97205476D01*
X291127466Y-97253095D01*
X291079847Y-97348333D01*
X291079847Y-97491190D01*
X291032228Y-97586428D01*
X290936990Y-97634047D01*
X290889371Y-97634047D01*
X290794133Y-97586428D01*
X290746514Y-97491190D01*
X290746514Y-97348333D01*
X290794133Y-97253095D01*
X291365561Y-96395952D02*
X291413180Y-96491190D01*
X291413180Y-96681666D01*
X291365561Y-96776904D01*
X291270323Y-96824523D01*
X290889371Y-96824523D01*
X290794133Y-96776904D01*
X290746514Y-96681666D01*
X290746514Y-96491190D01*
X290794133Y-96395952D01*
X290889371Y-96348333D01*
X290984609Y-96348333D01*
X291079847Y-96824523D01*
X290746514Y-96062619D02*
X290746514Y-95681666D01*
X290413180Y-95919761D02*
X291270323Y-95919761D01*
X291365561Y-95872142D01*
X291413180Y-95776904D01*
X291413180Y-95681666D01*
X290508419Y-95395952D02*
X290460800Y-95348333D01*
X290413180Y-95253095D01*
X290413180Y-95015000D01*
X290460800Y-94919761D01*
X290508419Y-94872142D01*
X290603657Y-94824523D01*
X290698895Y-94824523D01*
X290841752Y-94872142D01*
X291413180Y-95443571D01*
X291413180Y-94824523D01*
X214593420Y-98401649D02*
X214117230Y-98734982D01*
X214593420Y-98973078D02*
X213593420Y-98973078D01*
X213593420Y-98592125D01*
X213641040Y-98496887D01*
X213688659Y-98449268D01*
X213783897Y-98401649D01*
X213926754Y-98401649D01*
X214021992Y-98449268D01*
X214069611Y-98496887D01*
X214117230Y-98592125D01*
X214117230Y-98973078D01*
X214593420Y-97973078D02*
X213926754Y-97973078D01*
X213593420Y-97973078D02*
X213641040Y-98020697D01*
X213688659Y-97973078D01*
X213641040Y-97925459D01*
X213593420Y-97973078D01*
X213688659Y-97973078D01*
X214545801Y-97544506D02*
X214593420Y-97449268D01*
X214593420Y-97258792D01*
X214545801Y-97163554D01*
X214450563Y-97115935D01*
X214402944Y-97115935D01*
X214307706Y-97163554D01*
X214260087Y-97258792D01*
X214260087Y-97401649D01*
X214212468Y-97496887D01*
X214117230Y-97544506D01*
X214069611Y-97544506D01*
X213974373Y-97496887D01*
X213926754Y-97401649D01*
X213926754Y-97258792D01*
X213974373Y-97163554D01*
X214545801Y-96306411D02*
X214593420Y-96401649D01*
X214593420Y-96592125D01*
X214545801Y-96687363D01*
X214450563Y-96734982D01*
X214069611Y-96734982D01*
X213974373Y-96687363D01*
X213926754Y-96592125D01*
X213926754Y-96401649D01*
X213974373Y-96306411D01*
X214069611Y-96258792D01*
X214164849Y-96258792D01*
X214260087Y-96734982D01*
X213926754Y-95973078D02*
X213926754Y-95592125D01*
X213593420Y-95830220D02*
X214450563Y-95830220D01*
X214545801Y-95782601D01*
X214593420Y-95687363D01*
X214593420Y-95592125D01*
X213593420Y-95354030D02*
X213593420Y-94734982D01*
X213974373Y-95068316D01*
X213974373Y-94925459D01*
X214021992Y-94830220D01*
X214069611Y-94782601D01*
X214164849Y-94734982D01*
X214402944Y-94734982D01*
X214498182Y-94782601D01*
X214545801Y-94830220D01*
X214593420Y-94925459D01*
X214593420Y-95211173D01*
X214545801Y-95306411D01*
X214498182Y-95354030D01*
X216737180Y-98713428D02*
X216260990Y-99046761D01*
X216737180Y-99284857D02*
X215737180Y-99284857D01*
X215737180Y-98903904D01*
X215784800Y-98808666D01*
X215832419Y-98761047D01*
X215927657Y-98713428D01*
X216070514Y-98713428D01*
X216165752Y-98761047D01*
X216213371Y-98808666D01*
X216260990Y-98903904D01*
X216260990Y-99284857D01*
X216070514Y-98427714D02*
X216070514Y-98046761D01*
X215737180Y-98284857D02*
X216594323Y-98284857D01*
X216689561Y-98237238D01*
X216737180Y-98142000D01*
X216737180Y-98046761D01*
X216689561Y-97761047D02*
X216737180Y-97665809D01*
X216737180Y-97475333D01*
X216689561Y-97380095D01*
X216594323Y-97332476D01*
X216546704Y-97332476D01*
X216451466Y-97380095D01*
X216403847Y-97475333D01*
X216403847Y-97618190D01*
X216356228Y-97713428D01*
X216260990Y-97761047D01*
X216213371Y-97761047D01*
X216118133Y-97713428D01*
X216070514Y-97618190D01*
X216070514Y-97475333D01*
X216118133Y-97380095D01*
X216689561Y-96522952D02*
X216737180Y-96618190D01*
X216737180Y-96808666D01*
X216689561Y-96903904D01*
X216594323Y-96951523D01*
X216213371Y-96951523D01*
X216118133Y-96903904D01*
X216070514Y-96808666D01*
X216070514Y-96618190D01*
X216118133Y-96522952D01*
X216213371Y-96475333D01*
X216308609Y-96475333D01*
X216403847Y-96951523D01*
X216070514Y-96189619D02*
X216070514Y-95808666D01*
X215737180Y-96046761D02*
X216594323Y-96046761D01*
X216689561Y-95999142D01*
X216737180Y-95903904D01*
X216737180Y-95808666D01*
X215737180Y-95570571D02*
X215737180Y-94951523D01*
X216118133Y-95284857D01*
X216118133Y-95142000D01*
X216165752Y-95046761D01*
X216213371Y-94999142D01*
X216308609Y-94951523D01*
X216546704Y-94951523D01*
X216641942Y-94999142D01*
X216689561Y-95046761D01*
X216737180Y-95142000D01*
X216737180Y-95427714D01*
X216689561Y-95522952D01*
X216641942Y-95570571D01*
X164413180Y-98665809D02*
X163936990Y-98999142D01*
X164413180Y-99237238D02*
X163413180Y-99237238D01*
X163413180Y-98856285D01*
X163460800Y-98761047D01*
X163508419Y-98713428D01*
X163603657Y-98665809D01*
X163746514Y-98665809D01*
X163841752Y-98713428D01*
X163889371Y-98761047D01*
X163936990Y-98856285D01*
X163936990Y-99237238D01*
X164413180Y-98237238D02*
X163746514Y-98237238D01*
X163413180Y-98237238D02*
X163460800Y-98284857D01*
X163508419Y-98237238D01*
X163460800Y-98189619D01*
X163413180Y-98237238D01*
X163508419Y-98237238D01*
X164365561Y-97808666D02*
X164413180Y-97713428D01*
X164413180Y-97522952D01*
X164365561Y-97427714D01*
X164270323Y-97380095D01*
X164222704Y-97380095D01*
X164127466Y-97427714D01*
X164079847Y-97522952D01*
X164079847Y-97665809D01*
X164032228Y-97761047D01*
X163936990Y-97808666D01*
X163889371Y-97808666D01*
X163794133Y-97761047D01*
X163746514Y-97665809D01*
X163746514Y-97522952D01*
X163794133Y-97427714D01*
X164365561Y-96570571D02*
X164413180Y-96665809D01*
X164413180Y-96856285D01*
X164365561Y-96951523D01*
X164270323Y-96999142D01*
X163889371Y-96999142D01*
X163794133Y-96951523D01*
X163746514Y-96856285D01*
X163746514Y-96665809D01*
X163794133Y-96570571D01*
X163889371Y-96522952D01*
X163984609Y-96522952D01*
X164079847Y-96999142D01*
X163746514Y-96237238D02*
X163746514Y-95856285D01*
X163413180Y-96094380D02*
X164270323Y-96094380D01*
X164365561Y-96046761D01*
X164413180Y-95951523D01*
X164413180Y-95856285D01*
X163746514Y-95094380D02*
X164413180Y-95094380D01*
X163365561Y-95332476D02*
X164079847Y-95570571D01*
X164079847Y-94951523D01*
X166572180Y-98713428D02*
X166095990Y-99046761D01*
X166572180Y-99284857D02*
X165572180Y-99284857D01*
X165572180Y-98903904D01*
X165619800Y-98808666D01*
X165667419Y-98761047D01*
X165762657Y-98713428D01*
X165905514Y-98713428D01*
X166000752Y-98761047D01*
X166048371Y-98808666D01*
X166095990Y-98903904D01*
X166095990Y-99284857D01*
X165905514Y-98427714D02*
X165905514Y-98046761D01*
X165572180Y-98284857D02*
X166429323Y-98284857D01*
X166524561Y-98237238D01*
X166572180Y-98142000D01*
X166572180Y-98046761D01*
X166524561Y-97761047D02*
X166572180Y-97665809D01*
X166572180Y-97475333D01*
X166524561Y-97380095D01*
X166429323Y-97332476D01*
X166381704Y-97332476D01*
X166286466Y-97380095D01*
X166238847Y-97475333D01*
X166238847Y-97618190D01*
X166191228Y-97713428D01*
X166095990Y-97761047D01*
X166048371Y-97761047D01*
X165953133Y-97713428D01*
X165905514Y-97618190D01*
X165905514Y-97475333D01*
X165953133Y-97380095D01*
X166524561Y-96522952D02*
X166572180Y-96618190D01*
X166572180Y-96808666D01*
X166524561Y-96903904D01*
X166429323Y-96951523D01*
X166048371Y-96951523D01*
X165953133Y-96903904D01*
X165905514Y-96808666D01*
X165905514Y-96618190D01*
X165953133Y-96522952D01*
X166048371Y-96475333D01*
X166143609Y-96475333D01*
X166238847Y-96951523D01*
X165905514Y-96189619D02*
X165905514Y-95808666D01*
X165572180Y-96046761D02*
X166429323Y-96046761D01*
X166524561Y-95999142D01*
X166572180Y-95903904D01*
X166572180Y-95808666D01*
X165905514Y-95046761D02*
X166572180Y-95046761D01*
X165524561Y-95284857D02*
X166238847Y-95522952D01*
X166238847Y-94903904D01*
M02*
