M48
INCH,TZ
T1C0.0118
T2C0.0157
T3C0.0394
T4C0.1220
%
G90
G05
T1
X5.53Y-5.0378
X5.532Y-3.9054
X5.562Y-3.9354
X5.562Y-5.0106
X5.592Y-3.9654
X5.592Y-4.9806
X5.71Y-4.76
X5.7113Y-4.6588
X5.721Y-4.186
X5.723Y-4.0495
X5.73Y-4.74
X5.7455Y-4.2875
X5.7465Y-4.1175
X5.7465Y-4.6001
X5.75Y-4.72
X5.7665Y-4.311
X5.768Y-4.541
X5.775Y-4.705
X5.775Y-4.1355
X5.7885Y-4.4815
X5.79Y-4.4195
X5.7915Y-4.176
X5.8Y-4.685
X5.8104Y-4.2352
X5.8104Y-4.363
X5.8104Y-4.4382
X5.835Y-4.0952
X5.835Y-4.1545
X5.835Y-4.2145
X5.835Y-4.2745
X5.835Y-4.3315
X5.835Y-4.3905
X5.835Y-4.4496
X5.835Y-4.5095
X5.835Y-4.5695
X5.835Y-4.6267
X5.835Y-4.795
X5.86Y-4.0225
X5.8689Y-4.1272
X5.8689Y-4.2439
X5.8689Y-4.4816
X5.8855Y-4.0635
X5.9345Y-4.186
X5.9345Y-4.332
X5.9345Y-4.2731
X5.9355Y-4.3041
X5.9356Y-4.09
X5.936Y-4.362
X5.9455Y-4.1274
X5.951Y-3.9775
X5.9639Y-4.2454
X5.965Y-5.0728
X5.9735Y-3.9993
X5.987Y-5.2681
X5.9989Y-3.9454
X5.9989Y-4.2454
X6.012Y-5.2356
X6.0192Y-4.3672
X6.0339Y-3.9154
X6.0339Y-4.2454
X6.055Y-4.4728
X6.0575Y-4.2779
X6.0689Y-3.8854
X6.0689Y-4.2454
X6.075Y-5.2128
X6.0955Y-4.1731
X6.0995Y-4.5341
X6.1037Y-4.2589
X6.1155Y-4.4795
X6.1239Y-4.1676
X6.1289Y-4.2389
X6.1295Y-4.5114
X6.1295Y-4.5114
X6.1455Y-4.6836
X6.1475Y-4.1501
X6.166Y-4.5485
X6.1919Y-4.5504
X6.198Y-4.1845
X6.21Y-4.2085
X6.2105Y-4.7023
X6.2303Y-4.5598
X6.234Y-4.589
X6.2535Y-4.079
X6.2551Y-4.719
X6.2595Y-4.0445
X6.2691Y-4.16
X6.2755Y-4.5901
X6.2843Y-4.6174
X6.2848Y-4.1361
X6.3025Y-4.7401
X6.3225Y-4.6341
X6.3232Y-4.1965
X6.3305Y-4.6651
X6.3335Y-4.1165
X6.3526Y-4.0267
X6.355Y-4.7613
X6.365Y-4.002
X6.3799Y-3.9809
X6.385Y-5.1028
X6.4139Y-4.1004
X6.4639Y-4.6654
X6.475Y-4.51
X6.4989Y-3.9104
X6.5037Y-4.3241
X6.55Y-4.0913
X6.57Y-4.3213
X6.57Y-4.485
X6.58Y-4.3513
X6.625Y-4.51
X6.625Y-4.63
X6.625Y-4.73
X6.625Y-4.795
X6.6589Y-4.3804
X6.68Y-4.0913
X6.69Y-4.2713
X6.705Y-4.0563
X6.7089Y-4.3554
X6.7089Y-4.5654
X6.78Y-4.2713
X6.8539Y-4.5654
X6.855Y-4.0563
X6.885Y-3.9119
X6.915Y-4.0919
X7.0042Y-3.9922
X7.1389Y-4.2854
X7.15Y-4.73
X7.23Y-4.29
X7.2711Y-4.0504
X7.3542Y-3.9922
X7.3542Y-4.8428
X7.3551Y-5.5995
X7.53Y-4.9378
X7.532Y-3.9054
X7.562Y-3.9354
X7.562Y-4.9106
X7.59Y-4.8828
X7.592Y-3.9654
X7.68Y-4.76
X7.6813Y-4.6588
X7.691Y-4.186
X7.693Y-4.0495
X7.7Y-4.74
X7.7155Y-4.2875
X7.7165Y-4.1175
X7.7165Y-4.6001
X7.72Y-4.72
X7.7365Y-4.311
X7.738Y-4.541
X7.745Y-4.705
X7.745Y-4.1355
X7.7585Y-4.4815
X7.76Y-4.4195
X7.7615Y-4.176
X7.77Y-4.685
X7.7804Y-4.2352
X7.7804Y-4.363
X7.7804Y-4.4382
X7.805Y-4.0952
X7.805Y-4.1545
X7.805Y-4.2145
X7.805Y-4.2745
X7.805Y-4.3315
X7.805Y-4.3905
X7.805Y-4.4496
X7.805Y-4.5095
X7.805Y-4.5695
X7.805Y-4.6267
X7.805Y-4.795
X7.83Y-4.0225
X7.8389Y-4.1272
X7.8389Y-4.2439
X7.8389Y-4.4816
X7.8555Y-4.0635
X7.9045Y-4.186
X7.9045Y-4.332
X7.9045Y-4.2731
X7.9055Y-4.3041
X7.9056Y-4.09
X7.906Y-4.362
X7.9155Y-4.1274
X7.921Y-3.9775
X7.93Y-5.0728
X7.9339Y-4.2454
X7.9435Y-3.9993
X7.957Y-4.9856
X7.9689Y-3.9454
X7.9689Y-4.2454
X7.982Y-5.0156
X7.9892Y-4.3672
X8.0039Y-3.9154
X8.0039Y-4.2454
X8.025Y-4.4728
X8.0275Y-4.2779
X8.0389Y-3.8854
X8.0389Y-4.2454
X8.04Y-5.0428
X8.0655Y-4.1731
X8.0695Y-4.5341
X8.0737Y-4.2589
X8.0855Y-4.4795
X8.0939Y-4.1676
X8.0989Y-4.2389
X8.0995Y-4.5114
X8.0995Y-4.5114
X8.1155Y-4.6836
X8.1175Y-4.1501
X8.136Y-4.5485
X8.1619Y-4.5504
X8.168Y-4.1845
X8.18Y-4.2085
X8.1805Y-4.7023
X8.2003Y-4.5598
X8.204Y-4.589
X8.2235Y-4.079
X8.2251Y-4.719
X8.2295Y-4.0445
X8.2391Y-4.16
X8.2455Y-4.5901
X8.2543Y-4.6174
X8.2548Y-4.1361
X8.2725Y-4.7401
X8.2925Y-4.6341
X8.2932Y-4.1965
X8.3005Y-4.6651
X8.3035Y-4.1165
X8.3226Y-4.0267
X8.325Y-4.7613
X8.335Y-4.002
X8.3499Y-3.9809
X8.355Y-5.1028
X8.3839Y-4.1004
X8.4339Y-4.6654
X8.445Y-4.51
X8.4689Y-3.9104
X8.4737Y-4.3241
X8.52Y-4.0913
X8.54Y-4.3213
X8.54Y-4.485
X8.55Y-4.3513
X8.595Y-4.51
X8.595Y-4.63
X8.595Y-4.73
X8.595Y-4.795
X8.6289Y-4.3804
X8.65Y-4.0913
X8.66Y-4.2713
X8.675Y-4.0563
X8.6789Y-4.3554
X8.6789Y-4.5654
X8.75Y-4.2713
X8.8239Y-4.5654
X8.825Y-4.0563
X8.855Y-3.9119
X8.885Y-4.0919
X8.9742Y-3.9922
X9.1089Y-4.2854
X9.12Y-4.73
X9.2Y-4.29
X9.2411Y-4.0504
X9.3242Y-3.9922
X9.3242Y-4.8128
X9.3251Y-5.6095
X10.4901Y-5.0245
X10.4901Y-3.8995
X10.5151Y-3.9345
X10.5301Y-4.9945
X10.5451Y-3.9645
X10.5551Y-4.9695
X10.625Y-4.76
X10.6263Y-4.6588
X10.636Y-4.186
X10.638Y-4.0495
X10.645Y-4.74
X10.6605Y-4.2875
X10.6615Y-4.1175
X10.6615Y-4.6001
X10.665Y-4.72
X10.6815Y-4.311
X10.683Y-4.541
X10.69Y-4.705
X10.69Y-4.1355
X10.7035Y-4.4815
X10.705Y-4.4195
X10.7065Y-4.176
X10.715Y-4.685
X10.7254Y-4.2352
X10.7254Y-4.363
X10.7254Y-4.4382
X10.75Y-4.0952
X10.75Y-4.1545
X10.75Y-4.2145
X10.75Y-4.2745
X10.75Y-4.3315
X10.75Y-4.3905
X10.75Y-4.4496
X10.75Y-4.5095
X10.75Y-4.5695
X10.75Y-4.6267
X10.75Y-4.795
X10.775Y-4.0225
X10.7839Y-4.1272
X10.7839Y-4.2439
X10.7839Y-4.4816
X10.8005Y-4.0635
X10.8495Y-4.186
X10.8495Y-4.332
X10.8495Y-4.2731
X10.8501Y-4.0895
X10.8505Y-4.3041
X10.851Y-4.362
X10.8605Y-4.1274
X10.866Y-3.9775
X10.8789Y-4.2454
X10.88Y-5.0728
X10.8885Y-3.9993
X10.902Y-4.8806
X10.9139Y-3.9454
X10.9139Y-4.2454
X10.927Y-4.9056
X10.9342Y-4.3672
X10.9489Y-3.9154
X10.9489Y-4.2454
X10.97Y-4.4728
X10.9725Y-4.2779
X10.9839Y-3.8854
X10.9839Y-4.2454
X10.985Y-4.9378
X11.0105Y-4.1731
X11.0145Y-4.5341
X11.0187Y-4.2589
X11.0305Y-4.4795
X11.0389Y-4.1676
X11.0439Y-4.2389
X11.0445Y-4.5114
X11.0445Y-4.5114
X11.0605Y-4.6836
X11.0625Y-4.1501
X11.081Y-4.5485
X11.1069Y-4.5504
X11.113Y-4.1845
X11.125Y-4.2085
X11.1255Y-4.7023
X11.1453Y-4.5598
X11.149Y-4.589
X11.1685Y-4.079
X11.1701Y-4.719
X11.1745Y-4.0445
X11.1841Y-4.16
X11.1905Y-4.5901
X11.1993Y-4.6174
X11.1998Y-4.1361
X11.2175Y-4.7401
X11.2375Y-4.6341
X11.2382Y-4.1965
X11.2455Y-4.6651
X11.2485Y-4.1165
X11.2676Y-4.0267
X11.27Y-4.7613
X11.28Y-4.002
X11.2949Y-3.9809
X11.3Y-5.1028
X11.3289Y-4.1004
X11.3789Y-4.6654
X11.39Y-4.51
X11.4139Y-3.9104
X11.4187Y-4.3241
X11.465Y-4.0913
X11.485Y-4.3213
X11.485Y-4.485
X11.495Y-4.3513
X11.54Y-4.51
X11.54Y-4.63
X11.54Y-4.73
X11.54Y-4.795
X11.5739Y-4.3804
X11.595Y-4.0913
X11.605Y-4.2713
X11.62Y-4.0563
X11.6239Y-4.3554
X11.6239Y-4.5654
X11.695Y-4.2713
X11.7689Y-4.5654
X11.77Y-4.0563
X11.8Y-3.9119
X11.83Y-4.0919
X11.9192Y-3.9922
X11.977Y-4.8606
X11.977Y-5.2178
X12.022Y-4.9056
X12.022Y-5.2456
X12.0539Y-4.2854
X12.065Y-4.73
X12.0742Y-4.9428
X12.0742Y-5.2728
X12.145Y-4.29
X12.1751Y-5.5995
X12.1861Y-4.0504
X12.2642Y-5.2735
X12.2692Y-4.8028
X12.2692Y-3.9922
X12.395Y-3.9228
X12.4301Y-3.9476
X12.465Y-3.9728
X12.595Y-4.76
X12.5963Y-4.6588
X12.606Y-4.186
X12.608Y-4.0495
X12.615Y-4.74
X12.6192Y-4.8928
X12.6305Y-4.2875
X12.6315Y-4.1175
X12.6315Y-4.6001
X12.635Y-4.72
X12.6515Y-4.311
X12.653Y-4.541
X12.66Y-4.705
X12.66Y-4.1355
X12.6735Y-4.4815
X12.675Y-4.4195
X12.6765Y-4.176
X12.685Y-4.685
X12.6954Y-4.2352
X12.6954Y-4.363
X12.6954Y-4.4382
X12.7042Y-4.8528
X12.72Y-4.0952
X12.72Y-4.1545
X12.72Y-4.2145
X12.72Y-4.2745
X12.72Y-4.3315
X12.72Y-4.3905
X12.72Y-4.4496
X12.72Y-4.5095
X12.72Y-4.5695
X12.72Y-4.6267
X12.72Y-4.795
X12.745Y-4.0225
X12.7539Y-4.1272
X12.7539Y-4.2439
X12.7539Y-4.4816
X12.7705Y-4.0635
X12.7892Y-4.9328
X12.8195Y-4.186
X12.8195Y-4.332
X12.8195Y-4.2731
X12.8205Y-4.3041
X12.8206Y-4.09
X12.821Y-4.362
X12.8305Y-4.1274
X12.836Y-3.9775
X12.845Y-5.0728
X12.8489Y-4.2454
X12.8585Y-3.9993
X12.865Y-3.9478
X12.872Y-4.9656
X12.8839Y-4.2454
X12.897Y-4.9956
X12.9039Y-3.8966
X12.9042Y-4.3672
X12.9189Y-4.2454
X12.93Y-5.0728
X12.94Y-4.4728
X12.9425Y-4.2779
X12.945Y-3.9228
X12.95Y-5.0256
X12.9539Y-4.2454
X12.9805Y-4.1731
X12.9845Y-4.5341
X12.9887Y-4.2589
X13.0005Y-4.4795
X13.0089Y-4.1676
X13.0139Y-4.2389
X13.0145Y-4.5114
X13.0145Y-4.5114
X13.03Y-5.1028
X13.0305Y-4.6836
X13.0325Y-4.1501
X13.051Y-4.5485
X13.0769Y-4.5504
X13.083Y-4.1845
X13.095Y-4.2085
X13.0955Y-4.7023
X13.1153Y-4.5598
X13.119Y-4.589
X13.13Y-5.0478
X13.1385Y-4.079
X13.1401Y-4.719
X13.1445Y-4.0445
X13.1541Y-4.16
X13.1605Y-4.5901
X13.1693Y-4.6174
X13.1698Y-4.1361
X13.1875Y-4.7401
X13.2075Y-4.6341
X13.2082Y-4.1965
X13.2155Y-4.6651
X13.2185Y-4.1165
X13.2376Y-4.0267
X13.24Y-4.7613
X13.25Y-4.002
X13.2649Y-3.9809
X13.27Y-5.1028
X13.2989Y-4.1004
X13.3126Y-5.2478
X13.3489Y-4.6654
X13.36Y-4.51
X13.3839Y-3.9104
X13.3887Y-4.3241
X13.435Y-4.0913
X13.455Y-4.3213
X13.455Y-4.485
X13.465Y-4.3513
X13.48Y-5.2478
X13.51Y-4.51
X13.51Y-4.63
X13.51Y-4.795
X13.5101Y-4.73
X13.5439Y-4.3804
X13.565Y-4.0913
X13.575Y-4.2713
X13.59Y-4.0563
X13.5939Y-4.3554
X13.5939Y-4.5654
X13.665Y-4.2713
X13.7389Y-4.5654
X13.74Y-4.0563
X13.77Y-3.9119
X13.79Y-5.1978
X13.8Y-4.0919
X13.8892Y-3.9922
X14.0239Y-4.2854
X14.035Y-4.73
X14.115Y-4.29
X14.1561Y-4.0504
X14.2392Y-3.9922
X14.24Y-5.0478
T2
X4.0901Y-4.3595
X4.4301Y-3.4656
X4.4351Y-5.5395
X6.1901Y-4.8395
X6.6651Y-5.3645
X6.6701Y-4.8795
X6.6701Y-5.1645
X6.9301Y-4.1895
X6.9729Y-3.4656
X6.9751Y-5.5395
X7.6951Y-5.1645
X7.7001Y-5.3645
X8.1401Y-4.9995
X8.2251Y-4.8395
X8.8201Y-3.4656
X8.9001Y-4.1945
X9.3901Y-5.1645
X9.3901Y-5.3645
X9.4051Y-5.0045
X9.9601Y-3.4656
X9.9601Y-5.3645
X10.4351Y-4.9995
X10.8151Y-5.1645
X10.8151Y-5.3645
X11.1651Y-4.8395
X11.6601Y-4.8995
X11.6601Y-5.1645
X11.6601Y-5.3645
X11.6629Y-3.4656
X11.8501Y-4.1895
X12.5251Y-4.7245
X13.1151Y-4.8395
X13.1351Y-5.5795
X13.4029Y-3.4656
X13.4051Y-4.8995
X13.4051Y-5.5395
X13.8151Y-4.1845
X14.6151Y-4.3895
T3
X12.3301Y-5.1745
X12.3301Y-5.2745
X12.4301Y-5.1745
X12.4301Y-5.2745
X12.5301Y-5.1745
X12.5301Y-5.2745
X12.6301Y-5.1745
X12.6301Y-5.2745
X12.7301Y-5.1745
X12.7301Y-5.2745
X12.8301Y-5.1745
X12.8301Y-5.2745
X12.9301Y-5.1745
X12.9301Y-5.2745
X13.0301Y-5.1745
X13.0301Y-5.2745
X13.1301Y-5.1745
X13.1301Y-5.2745
X13.2301Y-5.1745
X13.2301Y-5.2745
T4
X14.5701Y-3.2745
X4.1201Y-3.2745
X4.1201Y-5.4745
X14.5701Y-5.4745
T0
M30
