%TF.GenerationSoftware,KiCad,Pcbnew,5.0.2-bee76a0~70~ubuntu18.04.1*%
%TF.CreationDate,2020-06-09T17:58:42+02:00*%
%TF.ProjectId,DemoNixie,44656d6f-4e69-4786-9965-2e6b69636164,rev?*%
%TF.SameCoordinates,Original*%
%TF.FileFunction,Legend,Bot*%
%TF.FilePolarity,Positive*%
%FSLAX46Y46*%
G04 Gerber Fmt 4.6, Leading zero omitted, Abs format (unit mm)*
G04 Created by KiCad (PCBNEW 5.0.2-bee76a0~70~ubuntu18.04.1) date mar. 09 juin 2020 17:58:42 CEST*
%MOMM*%
%LPD*%
G01*
G04 APERTURE LIST*
%ADD10C,0.200000*%
%ADD11C,0.050000*%
%ADD12C,0.100000*%
%ADD13C,0.150000*%
G04 APERTURE END LIST*
D10*
X174882800Y-103632000D02*
X174882800Y-118732000D01*
X224920800Y-103632000D02*
X224920800Y-118732000D01*
X124882800Y-103632000D02*
X124882800Y-118732000D01*
X299723800Y-103632000D02*
X299723800Y-118732000D01*
X249723800Y-103632000D02*
X249723800Y-118732000D01*
X349761800Y-103632000D02*
X349761800Y-118732000D01*
D11*
G36*
X149882800Y-110051000D02*
X149501800Y-110432000D01*
X149882800Y-110432000D01*
X149882800Y-110051000D01*
G37*
X149882800Y-110051000D02*
X149501800Y-110432000D01*
X149882800Y-110432000D01*
X149882800Y-110051000D01*
X149374800Y-110432000D02*
X150390800Y-110432000D01*
X149882800Y-110940000D02*
X149882800Y-109924000D01*
D12*
X149382800Y-110632000D02*
X149382800Y-110232000D01*
X150382800Y-110632000D02*
X150382800Y-110232000D01*
X149682800Y-109932000D02*
X150082800Y-109932000D01*
X149682800Y-110932000D02*
X150082800Y-110932000D01*
X149682800Y-112432000D02*
X150082800Y-112432000D01*
X149682800Y-111432000D02*
X150082800Y-111432000D01*
X150382800Y-112132000D02*
X150382800Y-111732000D01*
X149382800Y-112132000D02*
X149382800Y-111732000D01*
D11*
X149882800Y-112440000D02*
X149882800Y-111424000D01*
X149374800Y-111932000D02*
X150390800Y-111932000D01*
G36*
X149882800Y-111551000D02*
X149501800Y-111932000D01*
X149882800Y-111932000D01*
X149882800Y-111551000D01*
G37*
X149882800Y-111551000D02*
X149501800Y-111932000D01*
X149882800Y-111932000D01*
X149882800Y-111551000D01*
D12*
X199720800Y-116932000D02*
X200120800Y-116932000D01*
X199720800Y-115932000D02*
X200120800Y-115932000D01*
X200420800Y-116632000D02*
X200420800Y-116232000D01*
X199420800Y-116632000D02*
X199420800Y-116232000D01*
D11*
X199920800Y-116940000D02*
X199920800Y-115924000D01*
X199412800Y-116432000D02*
X200428800Y-116432000D01*
G36*
X199920800Y-116051000D02*
X199539800Y-116432000D01*
X199920800Y-116432000D01*
X199920800Y-116051000D01*
G37*
X199920800Y-116051000D02*
X199539800Y-116432000D01*
X199920800Y-116432000D01*
X199920800Y-116051000D01*
G36*
X149882800Y-104051000D02*
X149501800Y-104432000D01*
X149882800Y-104432000D01*
X149882800Y-104051000D01*
G37*
X149882800Y-104051000D02*
X149501800Y-104432000D01*
X149882800Y-104432000D01*
X149882800Y-104051000D01*
X149374800Y-104432000D02*
X150390800Y-104432000D01*
X149882800Y-104940000D02*
X149882800Y-103924000D01*
D12*
X149382800Y-104632000D02*
X149382800Y-104232000D01*
X150382800Y-104632000D02*
X150382800Y-104232000D01*
X149682800Y-103932000D02*
X150082800Y-103932000D01*
X149682800Y-104932000D02*
X150082800Y-104932000D01*
D11*
G36*
X199920800Y-108551000D02*
X199539800Y-108932000D01*
X199920800Y-108932000D01*
X199920800Y-108551000D01*
G37*
X199920800Y-108551000D02*
X199539800Y-108932000D01*
X199920800Y-108932000D01*
X199920800Y-108551000D01*
X199412800Y-108932000D02*
X200428800Y-108932000D01*
X199920800Y-109440000D02*
X199920800Y-108424000D01*
D12*
X199420800Y-109132000D02*
X199420800Y-108732000D01*
X200420800Y-109132000D02*
X200420800Y-108732000D01*
X199720800Y-108432000D02*
X200120800Y-108432000D01*
X199720800Y-109432000D02*
X200120800Y-109432000D01*
D11*
G36*
X199920800Y-105551000D02*
X199539800Y-105932000D01*
X199920800Y-105932000D01*
X199920800Y-105551000D01*
G37*
X199920800Y-105551000D02*
X199539800Y-105932000D01*
X199920800Y-105932000D01*
X199920800Y-105551000D01*
X199412800Y-105932000D02*
X200428800Y-105932000D01*
X199920800Y-106440000D02*
X199920800Y-105424000D01*
D12*
X199420800Y-106132000D02*
X199420800Y-105732000D01*
X200420800Y-106132000D02*
X200420800Y-105732000D01*
X199720800Y-105432000D02*
X200120800Y-105432000D01*
X199720800Y-106432000D02*
X200120800Y-106432000D01*
D11*
G36*
X149882800Y-113051000D02*
X149501800Y-113432000D01*
X149882800Y-113432000D01*
X149882800Y-113051000D01*
G37*
X149882800Y-113051000D02*
X149501800Y-113432000D01*
X149882800Y-113432000D01*
X149882800Y-113051000D01*
X149374800Y-113432000D02*
X150390800Y-113432000D01*
X149882800Y-113940000D02*
X149882800Y-112924000D01*
D12*
X149382800Y-113632000D02*
X149382800Y-113232000D01*
X150382800Y-113632000D02*
X150382800Y-113232000D01*
X149682800Y-112932000D02*
X150082800Y-112932000D01*
X149682800Y-113932000D02*
X150082800Y-113932000D01*
X149682800Y-118432000D02*
X150082800Y-118432000D01*
X149682800Y-117432000D02*
X150082800Y-117432000D01*
X150382800Y-118132000D02*
X150382800Y-117732000D01*
X149382800Y-118132000D02*
X149382800Y-117732000D01*
D11*
X149882800Y-118440000D02*
X149882800Y-117424000D01*
X149374800Y-117932000D02*
X150390800Y-117932000D01*
G36*
X149882800Y-117551000D02*
X149501800Y-117932000D01*
X149882800Y-117932000D01*
X149882800Y-117551000D01*
G37*
X149882800Y-117551000D02*
X149501800Y-117932000D01*
X149882800Y-117932000D01*
X149882800Y-117551000D01*
G36*
X199920800Y-114551000D02*
X199539800Y-114932000D01*
X199920800Y-114932000D01*
X199920800Y-114551000D01*
G37*
X199920800Y-114551000D02*
X199539800Y-114932000D01*
X199920800Y-114932000D01*
X199920800Y-114551000D01*
X199412800Y-114932000D02*
X200428800Y-114932000D01*
X199920800Y-115440000D02*
X199920800Y-114424000D01*
D12*
X199420800Y-115132000D02*
X199420800Y-114732000D01*
X200420800Y-115132000D02*
X200420800Y-114732000D01*
X199720800Y-114432000D02*
X200120800Y-114432000D01*
X199720800Y-115432000D02*
X200120800Y-115432000D01*
D11*
G36*
X149882800Y-116051000D02*
X149501800Y-116432000D01*
X149882800Y-116432000D01*
X149882800Y-116051000D01*
G37*
X149882800Y-116051000D02*
X149501800Y-116432000D01*
X149882800Y-116432000D01*
X149882800Y-116051000D01*
X149374800Y-116432000D02*
X150390800Y-116432000D01*
X149882800Y-116940000D02*
X149882800Y-115924000D01*
D12*
X149382800Y-116632000D02*
X149382800Y-116232000D01*
X150382800Y-116632000D02*
X150382800Y-116232000D01*
X149682800Y-115932000D02*
X150082800Y-115932000D01*
X149682800Y-116932000D02*
X150082800Y-116932000D01*
D11*
G36*
X149882800Y-107051000D02*
X149501800Y-107432000D01*
X149882800Y-107432000D01*
X149882800Y-107051000D01*
G37*
X149882800Y-107051000D02*
X149501800Y-107432000D01*
X149882800Y-107432000D01*
X149882800Y-107051000D01*
X149374800Y-107432000D02*
X150390800Y-107432000D01*
X149882800Y-107940000D02*
X149882800Y-106924000D01*
D12*
X149382800Y-107632000D02*
X149382800Y-107232000D01*
X150382800Y-107632000D02*
X150382800Y-107232000D01*
X149682800Y-106932000D02*
X150082800Y-106932000D01*
X149682800Y-107932000D02*
X150082800Y-107932000D01*
X149682800Y-109432000D02*
X150082800Y-109432000D01*
X149682800Y-108432000D02*
X150082800Y-108432000D01*
X150382800Y-109132000D02*
X150382800Y-108732000D01*
X149382800Y-109132000D02*
X149382800Y-108732000D01*
D11*
X149882800Y-109440000D02*
X149882800Y-108424000D01*
X149374800Y-108932000D02*
X150390800Y-108932000D01*
G36*
X149882800Y-108551000D02*
X149501800Y-108932000D01*
X149882800Y-108932000D01*
X149882800Y-108551000D01*
G37*
X149882800Y-108551000D02*
X149501800Y-108932000D01*
X149882800Y-108932000D01*
X149882800Y-108551000D01*
D12*
X199720800Y-113932000D02*
X200120800Y-113932000D01*
X199720800Y-112932000D02*
X200120800Y-112932000D01*
X200420800Y-113632000D02*
X200420800Y-113232000D01*
X199420800Y-113632000D02*
X199420800Y-113232000D01*
D11*
X199920800Y-113940000D02*
X199920800Y-112924000D01*
X199412800Y-113432000D02*
X200428800Y-113432000D01*
G36*
X199920800Y-113051000D02*
X199539800Y-113432000D01*
X199920800Y-113432000D01*
X199920800Y-113051000D01*
G37*
X199920800Y-113051000D02*
X199539800Y-113432000D01*
X199920800Y-113432000D01*
X199920800Y-113051000D01*
G36*
X199920800Y-117551000D02*
X199539800Y-117932000D01*
X199920800Y-117932000D01*
X199920800Y-117551000D01*
G37*
X199920800Y-117551000D02*
X199539800Y-117932000D01*
X199920800Y-117932000D01*
X199920800Y-117551000D01*
X199412800Y-117932000D02*
X200428800Y-117932000D01*
X199920800Y-118440000D02*
X199920800Y-117424000D01*
D12*
X199420800Y-118132000D02*
X199420800Y-117732000D01*
X200420800Y-118132000D02*
X200420800Y-117732000D01*
X199720800Y-117432000D02*
X200120800Y-117432000D01*
X199720800Y-118432000D02*
X200120800Y-118432000D01*
D11*
G36*
X199920800Y-111551000D02*
X199539800Y-111932000D01*
X199920800Y-111932000D01*
X199920800Y-111551000D01*
G37*
X199920800Y-111551000D02*
X199539800Y-111932000D01*
X199920800Y-111932000D01*
X199920800Y-111551000D01*
X199412800Y-111932000D02*
X200428800Y-111932000D01*
X199920800Y-112440000D02*
X199920800Y-111424000D01*
D12*
X199420800Y-112132000D02*
X199420800Y-111732000D01*
X200420800Y-112132000D02*
X200420800Y-111732000D01*
X199720800Y-111432000D02*
X200120800Y-111432000D01*
X199720800Y-112432000D02*
X200120800Y-112432000D01*
X199720800Y-107932000D02*
X200120800Y-107932000D01*
X199720800Y-106932000D02*
X200120800Y-106932000D01*
X200420800Y-107632000D02*
X200420800Y-107232000D01*
X199420800Y-107632000D02*
X199420800Y-107232000D01*
D11*
X199920800Y-107940000D02*
X199920800Y-106924000D01*
X199412800Y-107432000D02*
X200428800Y-107432000D01*
G36*
X199920800Y-107051000D02*
X199539800Y-107432000D01*
X199920800Y-107432000D01*
X199920800Y-107051000D01*
G37*
X199920800Y-107051000D02*
X199539800Y-107432000D01*
X199920800Y-107432000D01*
X199920800Y-107051000D01*
D12*
X149682800Y-115432000D02*
X150082800Y-115432000D01*
X149682800Y-114432000D02*
X150082800Y-114432000D01*
X150382800Y-115132000D02*
X150382800Y-114732000D01*
X149382800Y-115132000D02*
X149382800Y-114732000D01*
D11*
X149882800Y-115440000D02*
X149882800Y-114424000D01*
X149374800Y-114932000D02*
X150390800Y-114932000D01*
G36*
X149882800Y-114551000D02*
X149501800Y-114932000D01*
X149882800Y-114932000D01*
X149882800Y-114551000D01*
G37*
X149882800Y-114551000D02*
X149501800Y-114932000D01*
X149882800Y-114932000D01*
X149882800Y-114551000D01*
D12*
X149682800Y-106432000D02*
X150082800Y-106432000D01*
X149682800Y-105432000D02*
X150082800Y-105432000D01*
X150382800Y-106132000D02*
X150382800Y-105732000D01*
X149382800Y-106132000D02*
X149382800Y-105732000D01*
D11*
X149882800Y-106440000D02*
X149882800Y-105424000D01*
X149374800Y-105932000D02*
X150390800Y-105932000D01*
G36*
X149882800Y-105551000D02*
X149501800Y-105932000D01*
X149882800Y-105932000D01*
X149882800Y-105551000D01*
G37*
X149882800Y-105551000D02*
X149501800Y-105932000D01*
X149882800Y-105932000D01*
X149882800Y-105551000D01*
D12*
X199720800Y-104932000D02*
X200120800Y-104932000D01*
X199720800Y-103932000D02*
X200120800Y-103932000D01*
X200420800Y-104632000D02*
X200420800Y-104232000D01*
X199420800Y-104632000D02*
X199420800Y-104232000D01*
D11*
X199920800Y-104940000D02*
X199920800Y-103924000D01*
X199412800Y-104432000D02*
X200428800Y-104432000D01*
G36*
X199920800Y-104051000D02*
X199539800Y-104432000D01*
X199920800Y-104432000D01*
X199920800Y-104051000D01*
G37*
X199920800Y-104051000D02*
X199539800Y-104432000D01*
X199920800Y-104432000D01*
X199920800Y-104051000D01*
D12*
X199720800Y-110932000D02*
X200120800Y-110932000D01*
X199720800Y-109932000D02*
X200120800Y-109932000D01*
X200420800Y-110632000D02*
X200420800Y-110232000D01*
X199420800Y-110632000D02*
X199420800Y-110232000D01*
D11*
X199920800Y-110940000D02*
X199920800Y-109924000D01*
X199412800Y-110432000D02*
X200428800Y-110432000D01*
G36*
X199920800Y-110051000D02*
X199539800Y-110432000D01*
X199920800Y-110432000D01*
X199920800Y-110051000D01*
G37*
X199920800Y-110051000D02*
X199539800Y-110432000D01*
X199920800Y-110432000D01*
X199920800Y-110051000D01*
D12*
X274523800Y-116932000D02*
X274923800Y-116932000D01*
X274523800Y-115932000D02*
X274923800Y-115932000D01*
X275223800Y-116632000D02*
X275223800Y-116232000D01*
X274223800Y-116632000D02*
X274223800Y-116232000D01*
D11*
X274723800Y-116940000D02*
X274723800Y-115924000D01*
X274215800Y-116432000D02*
X275231800Y-116432000D01*
G36*
X274723800Y-116051000D02*
X274342800Y-116432000D01*
X274723800Y-116432000D01*
X274723800Y-116051000D01*
G37*
X274723800Y-116051000D02*
X274342800Y-116432000D01*
X274723800Y-116432000D01*
X274723800Y-116051000D01*
G36*
X274723800Y-108551000D02*
X274342800Y-108932000D01*
X274723800Y-108932000D01*
X274723800Y-108551000D01*
G37*
X274723800Y-108551000D02*
X274342800Y-108932000D01*
X274723800Y-108932000D01*
X274723800Y-108551000D01*
X274215800Y-108932000D02*
X275231800Y-108932000D01*
X274723800Y-109440000D02*
X274723800Y-108424000D01*
D12*
X274223800Y-109132000D02*
X274223800Y-108732000D01*
X275223800Y-109132000D02*
X275223800Y-108732000D01*
X274523800Y-108432000D02*
X274923800Y-108432000D01*
X274523800Y-109432000D02*
X274923800Y-109432000D01*
D11*
G36*
X274723800Y-105551000D02*
X274342800Y-105932000D01*
X274723800Y-105932000D01*
X274723800Y-105551000D01*
G37*
X274723800Y-105551000D02*
X274342800Y-105932000D01*
X274723800Y-105932000D01*
X274723800Y-105551000D01*
X274215800Y-105932000D02*
X275231800Y-105932000D01*
X274723800Y-106440000D02*
X274723800Y-105424000D01*
D12*
X274223800Y-106132000D02*
X274223800Y-105732000D01*
X275223800Y-106132000D02*
X275223800Y-105732000D01*
X274523800Y-105432000D02*
X274923800Y-105432000D01*
X274523800Y-106432000D02*
X274923800Y-106432000D01*
D11*
G36*
X274723800Y-114551000D02*
X274342800Y-114932000D01*
X274723800Y-114932000D01*
X274723800Y-114551000D01*
G37*
X274723800Y-114551000D02*
X274342800Y-114932000D01*
X274723800Y-114932000D01*
X274723800Y-114551000D01*
X274215800Y-114932000D02*
X275231800Y-114932000D01*
X274723800Y-115440000D02*
X274723800Y-114424000D01*
D12*
X274223800Y-115132000D02*
X274223800Y-114732000D01*
X275223800Y-115132000D02*
X275223800Y-114732000D01*
X274523800Y-114432000D02*
X274923800Y-114432000D01*
X274523800Y-115432000D02*
X274923800Y-115432000D01*
X274523800Y-113932000D02*
X274923800Y-113932000D01*
X274523800Y-112932000D02*
X274923800Y-112932000D01*
X275223800Y-113632000D02*
X275223800Y-113232000D01*
X274223800Y-113632000D02*
X274223800Y-113232000D01*
D11*
X274723800Y-113940000D02*
X274723800Y-112924000D01*
X274215800Y-113432000D02*
X275231800Y-113432000D01*
G36*
X274723800Y-113051000D02*
X274342800Y-113432000D01*
X274723800Y-113432000D01*
X274723800Y-113051000D01*
G37*
X274723800Y-113051000D02*
X274342800Y-113432000D01*
X274723800Y-113432000D01*
X274723800Y-113051000D01*
G36*
X274723800Y-117551000D02*
X274342800Y-117932000D01*
X274723800Y-117932000D01*
X274723800Y-117551000D01*
G37*
X274723800Y-117551000D02*
X274342800Y-117932000D01*
X274723800Y-117932000D01*
X274723800Y-117551000D01*
X274215800Y-117932000D02*
X275231800Y-117932000D01*
X274723800Y-118440000D02*
X274723800Y-117424000D01*
D12*
X274223800Y-118132000D02*
X274223800Y-117732000D01*
X275223800Y-118132000D02*
X275223800Y-117732000D01*
X274523800Y-117432000D02*
X274923800Y-117432000D01*
X274523800Y-118432000D02*
X274923800Y-118432000D01*
D11*
G36*
X274723800Y-111551000D02*
X274342800Y-111932000D01*
X274723800Y-111932000D01*
X274723800Y-111551000D01*
G37*
X274723800Y-111551000D02*
X274342800Y-111932000D01*
X274723800Y-111932000D01*
X274723800Y-111551000D01*
X274215800Y-111932000D02*
X275231800Y-111932000D01*
X274723800Y-112440000D02*
X274723800Y-111424000D01*
D12*
X274223800Y-112132000D02*
X274223800Y-111732000D01*
X275223800Y-112132000D02*
X275223800Y-111732000D01*
X274523800Y-111432000D02*
X274923800Y-111432000D01*
X274523800Y-112432000D02*
X274923800Y-112432000D01*
X274523800Y-107932000D02*
X274923800Y-107932000D01*
X274523800Y-106932000D02*
X274923800Y-106932000D01*
X275223800Y-107632000D02*
X275223800Y-107232000D01*
X274223800Y-107632000D02*
X274223800Y-107232000D01*
D11*
X274723800Y-107940000D02*
X274723800Y-106924000D01*
X274215800Y-107432000D02*
X275231800Y-107432000D01*
G36*
X274723800Y-107051000D02*
X274342800Y-107432000D01*
X274723800Y-107432000D01*
X274723800Y-107051000D01*
G37*
X274723800Y-107051000D02*
X274342800Y-107432000D01*
X274723800Y-107432000D01*
X274723800Y-107051000D01*
D12*
X274523800Y-104932000D02*
X274923800Y-104932000D01*
X274523800Y-103932000D02*
X274923800Y-103932000D01*
X275223800Y-104632000D02*
X275223800Y-104232000D01*
X274223800Y-104632000D02*
X274223800Y-104232000D01*
D11*
X274723800Y-104940000D02*
X274723800Y-103924000D01*
X274215800Y-104432000D02*
X275231800Y-104432000D01*
G36*
X274723800Y-104051000D02*
X274342800Y-104432000D01*
X274723800Y-104432000D01*
X274723800Y-104051000D01*
G37*
X274723800Y-104051000D02*
X274342800Y-104432000D01*
X274723800Y-104432000D01*
X274723800Y-104051000D01*
D12*
X274523800Y-110932000D02*
X274923800Y-110932000D01*
X274523800Y-109932000D02*
X274923800Y-109932000D01*
X275223800Y-110632000D02*
X275223800Y-110232000D01*
X274223800Y-110632000D02*
X274223800Y-110232000D01*
D11*
X274723800Y-110940000D02*
X274723800Y-109924000D01*
X274215800Y-110432000D02*
X275231800Y-110432000D01*
G36*
X274723800Y-110051000D02*
X274342800Y-110432000D01*
X274723800Y-110432000D01*
X274723800Y-110051000D01*
G37*
X274723800Y-110051000D02*
X274342800Y-110432000D01*
X274723800Y-110432000D01*
X274723800Y-110051000D01*
D12*
X324561800Y-118432000D02*
X324961800Y-118432000D01*
X324561800Y-117432000D02*
X324961800Y-117432000D01*
X325261800Y-118132000D02*
X325261800Y-117732000D01*
X324261800Y-118132000D02*
X324261800Y-117732000D01*
D11*
X324761800Y-118440000D02*
X324761800Y-117424000D01*
X324253800Y-117932000D02*
X325269800Y-117932000D01*
G36*
X324761800Y-117551000D02*
X324380800Y-117932000D01*
X324761800Y-117932000D01*
X324761800Y-117551000D01*
G37*
X324761800Y-117551000D02*
X324380800Y-117932000D01*
X324761800Y-117932000D01*
X324761800Y-117551000D01*
G36*
X324761800Y-116051000D02*
X324380800Y-116432000D01*
X324761800Y-116432000D01*
X324761800Y-116051000D01*
G37*
X324761800Y-116051000D02*
X324380800Y-116432000D01*
X324761800Y-116432000D01*
X324761800Y-116051000D01*
X324253800Y-116432000D02*
X325269800Y-116432000D01*
X324761800Y-116940000D02*
X324761800Y-115924000D01*
D12*
X324261800Y-116632000D02*
X324261800Y-116232000D01*
X325261800Y-116632000D02*
X325261800Y-116232000D01*
X324561800Y-115932000D02*
X324961800Y-115932000D01*
X324561800Y-116932000D02*
X324961800Y-116932000D01*
X324561800Y-115432000D02*
X324961800Y-115432000D01*
X324561800Y-114432000D02*
X324961800Y-114432000D01*
X325261800Y-115132000D02*
X325261800Y-114732000D01*
X324261800Y-115132000D02*
X324261800Y-114732000D01*
D11*
X324761800Y-115440000D02*
X324761800Y-114424000D01*
X324253800Y-114932000D02*
X325269800Y-114932000D01*
G36*
X324761800Y-114551000D02*
X324380800Y-114932000D01*
X324761800Y-114932000D01*
X324761800Y-114551000D01*
G37*
X324761800Y-114551000D02*
X324380800Y-114932000D01*
X324761800Y-114932000D01*
X324761800Y-114551000D01*
G36*
X324761800Y-113051000D02*
X324380800Y-113432000D01*
X324761800Y-113432000D01*
X324761800Y-113051000D01*
G37*
X324761800Y-113051000D02*
X324380800Y-113432000D01*
X324761800Y-113432000D01*
X324761800Y-113051000D01*
X324253800Y-113432000D02*
X325269800Y-113432000D01*
X324761800Y-113940000D02*
X324761800Y-112924000D01*
D12*
X324261800Y-113632000D02*
X324261800Y-113232000D01*
X325261800Y-113632000D02*
X325261800Y-113232000D01*
X324561800Y-112932000D02*
X324961800Y-112932000D01*
X324561800Y-113932000D02*
X324961800Y-113932000D01*
X324561800Y-112432000D02*
X324961800Y-112432000D01*
X324561800Y-111432000D02*
X324961800Y-111432000D01*
X325261800Y-112132000D02*
X325261800Y-111732000D01*
X324261800Y-112132000D02*
X324261800Y-111732000D01*
D11*
X324761800Y-112440000D02*
X324761800Y-111424000D01*
X324253800Y-111932000D02*
X325269800Y-111932000D01*
G36*
X324761800Y-111551000D02*
X324380800Y-111932000D01*
X324761800Y-111932000D01*
X324761800Y-111551000D01*
G37*
X324761800Y-111551000D02*
X324380800Y-111932000D01*
X324761800Y-111932000D01*
X324761800Y-111551000D01*
G36*
X324761800Y-110051000D02*
X324380800Y-110432000D01*
X324761800Y-110432000D01*
X324761800Y-110051000D01*
G37*
X324761800Y-110051000D02*
X324380800Y-110432000D01*
X324761800Y-110432000D01*
X324761800Y-110051000D01*
X324253800Y-110432000D02*
X325269800Y-110432000D01*
X324761800Y-110940000D02*
X324761800Y-109924000D01*
D12*
X324261800Y-110632000D02*
X324261800Y-110232000D01*
X325261800Y-110632000D02*
X325261800Y-110232000D01*
X324561800Y-109932000D02*
X324961800Y-109932000D01*
X324561800Y-110932000D02*
X324961800Y-110932000D01*
X324561800Y-109432000D02*
X324961800Y-109432000D01*
X324561800Y-108432000D02*
X324961800Y-108432000D01*
X325261800Y-109132000D02*
X325261800Y-108732000D01*
X324261800Y-109132000D02*
X324261800Y-108732000D01*
D11*
X324761800Y-109440000D02*
X324761800Y-108424000D01*
X324253800Y-108932000D02*
X325269800Y-108932000D01*
G36*
X324761800Y-108551000D02*
X324380800Y-108932000D01*
X324761800Y-108932000D01*
X324761800Y-108551000D01*
G37*
X324761800Y-108551000D02*
X324380800Y-108932000D01*
X324761800Y-108932000D01*
X324761800Y-108551000D01*
G36*
X324761800Y-107051000D02*
X324380800Y-107432000D01*
X324761800Y-107432000D01*
X324761800Y-107051000D01*
G37*
X324761800Y-107051000D02*
X324380800Y-107432000D01*
X324761800Y-107432000D01*
X324761800Y-107051000D01*
X324253800Y-107432000D02*
X325269800Y-107432000D01*
X324761800Y-107940000D02*
X324761800Y-106924000D01*
D12*
X324261800Y-107632000D02*
X324261800Y-107232000D01*
X325261800Y-107632000D02*
X325261800Y-107232000D01*
X324561800Y-106932000D02*
X324961800Y-106932000D01*
X324561800Y-107932000D02*
X324961800Y-107932000D01*
X324561800Y-106432000D02*
X324961800Y-106432000D01*
X324561800Y-105432000D02*
X324961800Y-105432000D01*
X325261800Y-106132000D02*
X325261800Y-105732000D01*
X324261800Y-106132000D02*
X324261800Y-105732000D01*
D11*
X324761800Y-106440000D02*
X324761800Y-105424000D01*
X324253800Y-105932000D02*
X325269800Y-105932000D01*
G36*
X324761800Y-105551000D02*
X324380800Y-105932000D01*
X324761800Y-105932000D01*
X324761800Y-105551000D01*
G37*
X324761800Y-105551000D02*
X324380800Y-105932000D01*
X324761800Y-105932000D01*
X324761800Y-105551000D01*
G36*
X324761800Y-104051000D02*
X324380800Y-104432000D01*
X324761800Y-104432000D01*
X324761800Y-104051000D01*
G37*
X324761800Y-104051000D02*
X324380800Y-104432000D01*
X324761800Y-104432000D01*
X324761800Y-104051000D01*
X324253800Y-104432000D02*
X325269800Y-104432000D01*
X324761800Y-104940000D02*
X324761800Y-103924000D01*
D12*
X324261800Y-104632000D02*
X324261800Y-104232000D01*
X325261800Y-104632000D02*
X325261800Y-104232000D01*
X324561800Y-103932000D02*
X324961800Y-103932000D01*
X324561800Y-104932000D02*
X324961800Y-104932000D01*
D13*
X146776800Y-110748666D02*
X146776800Y-110048666D01*
X146610133Y-110048666D01*
X146510133Y-110082000D01*
X146443466Y-110148666D01*
X146410133Y-110215333D01*
X146376800Y-110348666D01*
X146376800Y-110448666D01*
X146410133Y-110582000D01*
X146443466Y-110648666D01*
X146510133Y-110715333D01*
X146610133Y-110748666D01*
X146776800Y-110748666D01*
X146110133Y-110115333D02*
X146076800Y-110082000D01*
X146010133Y-110048666D01*
X145843466Y-110048666D01*
X145776800Y-110082000D01*
X145743466Y-110115333D01*
X145710133Y-110182000D01*
X145710133Y-110248666D01*
X145743466Y-110348666D01*
X146143466Y-110748666D01*
X145710133Y-110748666D01*
X145443466Y-110115333D02*
X145410133Y-110082000D01*
X145343466Y-110048666D01*
X145176800Y-110048666D01*
X145110133Y-110082000D01*
X145076800Y-110115333D01*
X145043466Y-110182000D01*
X145043466Y-110248666D01*
X145076800Y-110348666D01*
X145476800Y-110748666D01*
X145043466Y-110748666D01*
X146903800Y-112248666D02*
X146903800Y-111548666D01*
X146737133Y-111548666D01*
X146637133Y-111582000D01*
X146570466Y-111648666D01*
X146537133Y-111715333D01*
X146503800Y-111848666D01*
X146503800Y-111948666D01*
X146537133Y-112082000D01*
X146570466Y-112148666D01*
X146637133Y-112215333D01*
X146737133Y-112248666D01*
X146903800Y-112248666D01*
X146237133Y-111615333D02*
X146203800Y-111582000D01*
X146137133Y-111548666D01*
X145970466Y-111548666D01*
X145903800Y-111582000D01*
X145870466Y-111615333D01*
X145837133Y-111682000D01*
X145837133Y-111748666D01*
X145870466Y-111848666D01*
X146270466Y-112248666D01*
X145837133Y-112248666D01*
X145237133Y-111548666D02*
X145370466Y-111548666D01*
X145437133Y-111582000D01*
X145470466Y-111615333D01*
X145537133Y-111715333D01*
X145570466Y-111848666D01*
X145570466Y-112115333D01*
X145537133Y-112182000D01*
X145503800Y-112215333D01*
X145437133Y-112248666D01*
X145303800Y-112248666D01*
X145237133Y-112215333D01*
X145203800Y-112182000D01*
X145170466Y-112115333D01*
X145170466Y-111948666D01*
X145203800Y-111882000D01*
X145237133Y-111848666D01*
X145303800Y-111815333D01*
X145437133Y-111815333D01*
X145503800Y-111848666D01*
X145537133Y-111882000D01*
X145570466Y-111948666D01*
X196941800Y-116748666D02*
X196941800Y-116048666D01*
X196775133Y-116048666D01*
X196675133Y-116082000D01*
X196608466Y-116148666D01*
X196575133Y-116215333D01*
X196541800Y-116348666D01*
X196541800Y-116448666D01*
X196575133Y-116582000D01*
X196608466Y-116648666D01*
X196675133Y-116715333D01*
X196775133Y-116748666D01*
X196941800Y-116748666D01*
X196308466Y-116048666D02*
X195875133Y-116048666D01*
X196108466Y-116315333D01*
X196008466Y-116315333D01*
X195941800Y-116348666D01*
X195908466Y-116382000D01*
X195875133Y-116448666D01*
X195875133Y-116615333D01*
X195908466Y-116682000D01*
X195941800Y-116715333D01*
X196008466Y-116748666D01*
X196208466Y-116748666D01*
X196275133Y-116715333D01*
X196308466Y-116682000D01*
X195541800Y-116748666D02*
X195408466Y-116748666D01*
X195341800Y-116715333D01*
X195308466Y-116682000D01*
X195241800Y-116582000D01*
X195208466Y-116448666D01*
X195208466Y-116182000D01*
X195241800Y-116115333D01*
X195275133Y-116082000D01*
X195341800Y-116048666D01*
X195475133Y-116048666D01*
X195541800Y-116082000D01*
X195575133Y-116115333D01*
X195608466Y-116182000D01*
X195608466Y-116348666D01*
X195575133Y-116415333D01*
X195541800Y-116448666D01*
X195475133Y-116482000D01*
X195341800Y-116482000D01*
X195275133Y-116448666D01*
X195241800Y-116415333D01*
X195208466Y-116348666D01*
X146887966Y-104748666D02*
X146887966Y-104048666D01*
X146721300Y-104048666D01*
X146621300Y-104082000D01*
X146554633Y-104148666D01*
X146521300Y-104215333D01*
X146487966Y-104348666D01*
X146487966Y-104448666D01*
X146521300Y-104582000D01*
X146554633Y-104648666D01*
X146621300Y-104715333D01*
X146721300Y-104748666D01*
X146887966Y-104748666D01*
X145887966Y-104282000D02*
X145887966Y-104748666D01*
X146054633Y-104015333D02*
X146221300Y-104515333D01*
X145787966Y-104515333D01*
X196814800Y-109248666D02*
X196814800Y-108548666D01*
X196648133Y-108548666D01*
X196548133Y-108582000D01*
X196481466Y-108648666D01*
X196448133Y-108715333D01*
X196414800Y-108848666D01*
X196414800Y-108948666D01*
X196448133Y-109082000D01*
X196481466Y-109148666D01*
X196548133Y-109215333D01*
X196648133Y-109248666D01*
X196814800Y-109248666D01*
X195748133Y-109248666D02*
X196148133Y-109248666D01*
X195948133Y-109248666D02*
X195948133Y-108548666D01*
X196014800Y-108648666D01*
X196081466Y-108715333D01*
X196148133Y-108748666D01*
X195514800Y-108548666D02*
X195048133Y-108548666D01*
X195348133Y-109248666D01*
X196925966Y-106248666D02*
X196925966Y-105548666D01*
X196759300Y-105548666D01*
X196659300Y-105582000D01*
X196592633Y-105648666D01*
X196559300Y-105715333D01*
X196525966Y-105848666D01*
X196525966Y-105948666D01*
X196559300Y-106082000D01*
X196592633Y-106148666D01*
X196659300Y-106215333D01*
X196759300Y-106248666D01*
X196925966Y-106248666D01*
X196292633Y-105548666D02*
X195825966Y-105548666D01*
X196125966Y-106248666D01*
X146903800Y-113748666D02*
X146903800Y-113048666D01*
X146737133Y-113048666D01*
X146637133Y-113082000D01*
X146570466Y-113148666D01*
X146537133Y-113215333D01*
X146503800Y-113348666D01*
X146503800Y-113448666D01*
X146537133Y-113582000D01*
X146570466Y-113648666D01*
X146637133Y-113715333D01*
X146737133Y-113748666D01*
X146903800Y-113748666D01*
X146270466Y-113048666D02*
X145837133Y-113048666D01*
X146070466Y-113315333D01*
X145970466Y-113315333D01*
X145903800Y-113348666D01*
X145870466Y-113382000D01*
X145837133Y-113448666D01*
X145837133Y-113615333D01*
X145870466Y-113682000D01*
X145903800Y-113715333D01*
X145970466Y-113748666D01*
X146170466Y-113748666D01*
X146237133Y-113715333D01*
X146270466Y-113682000D01*
X145403800Y-113048666D02*
X145337133Y-113048666D01*
X145270466Y-113082000D01*
X145237133Y-113115333D01*
X145203800Y-113182000D01*
X145170466Y-113315333D01*
X145170466Y-113482000D01*
X145203800Y-113615333D01*
X145237133Y-113682000D01*
X145270466Y-113715333D01*
X145337133Y-113748666D01*
X145403800Y-113748666D01*
X145470466Y-113715333D01*
X145503800Y-113682000D01*
X145537133Y-113615333D01*
X145570466Y-113482000D01*
X145570466Y-113315333D01*
X145537133Y-113182000D01*
X145503800Y-113115333D01*
X145470466Y-113082000D01*
X145403800Y-113048666D01*
X146903800Y-118248666D02*
X146903800Y-117548666D01*
X146737133Y-117548666D01*
X146637133Y-117582000D01*
X146570466Y-117648666D01*
X146537133Y-117715333D01*
X146503800Y-117848666D01*
X146503800Y-117948666D01*
X146537133Y-118082000D01*
X146570466Y-118148666D01*
X146637133Y-118215333D01*
X146737133Y-118248666D01*
X146903800Y-118248666D01*
X145903800Y-117782000D02*
X145903800Y-118248666D01*
X146070466Y-117515333D02*
X146237133Y-118015333D01*
X145803800Y-118015333D01*
X145237133Y-117782000D02*
X145237133Y-118248666D01*
X145403800Y-117515333D02*
X145570466Y-118015333D01*
X145137133Y-118015333D01*
X196941800Y-115248666D02*
X196941800Y-114548666D01*
X196775133Y-114548666D01*
X196675133Y-114582000D01*
X196608466Y-114648666D01*
X196575133Y-114715333D01*
X196541800Y-114848666D01*
X196541800Y-114948666D01*
X196575133Y-115082000D01*
X196608466Y-115148666D01*
X196675133Y-115215333D01*
X196775133Y-115248666D01*
X196941800Y-115248666D01*
X196308466Y-114548666D02*
X195875133Y-114548666D01*
X196108466Y-114815333D01*
X196008466Y-114815333D01*
X195941800Y-114848666D01*
X195908466Y-114882000D01*
X195875133Y-114948666D01*
X195875133Y-115115333D01*
X195908466Y-115182000D01*
X195941800Y-115215333D01*
X196008466Y-115248666D01*
X196208466Y-115248666D01*
X196275133Y-115215333D01*
X196308466Y-115182000D01*
X195241800Y-114548666D02*
X195575133Y-114548666D01*
X195608466Y-114882000D01*
X195575133Y-114848666D01*
X195508466Y-114815333D01*
X195341800Y-114815333D01*
X195275133Y-114848666D01*
X195241800Y-114882000D01*
X195208466Y-114948666D01*
X195208466Y-115115333D01*
X195241800Y-115182000D01*
X195275133Y-115215333D01*
X195341800Y-115248666D01*
X195508466Y-115248666D01*
X195575133Y-115215333D01*
X195608466Y-115182000D01*
X146903800Y-116748666D02*
X146903800Y-116048666D01*
X146737133Y-116048666D01*
X146637133Y-116082000D01*
X146570466Y-116148666D01*
X146537133Y-116215333D01*
X146503800Y-116348666D01*
X146503800Y-116448666D01*
X146537133Y-116582000D01*
X146570466Y-116648666D01*
X146637133Y-116715333D01*
X146737133Y-116748666D01*
X146903800Y-116748666D01*
X145903800Y-116282000D02*
X145903800Y-116748666D01*
X146070466Y-116015333D02*
X146237133Y-116515333D01*
X145803800Y-116515333D01*
X145403800Y-116048666D02*
X145337133Y-116048666D01*
X145270466Y-116082000D01*
X145237133Y-116115333D01*
X145203800Y-116182000D01*
X145170466Y-116315333D01*
X145170466Y-116482000D01*
X145203800Y-116615333D01*
X145237133Y-116682000D01*
X145270466Y-116715333D01*
X145337133Y-116748666D01*
X145403800Y-116748666D01*
X145470466Y-116715333D01*
X145503800Y-116682000D01*
X145537133Y-116615333D01*
X145570466Y-116482000D01*
X145570466Y-116315333D01*
X145537133Y-116182000D01*
X145503800Y-116115333D01*
X145470466Y-116082000D01*
X145403800Y-116048666D01*
X146776800Y-107748666D02*
X146776800Y-107048666D01*
X146610133Y-107048666D01*
X146510133Y-107082000D01*
X146443466Y-107148666D01*
X146410133Y-107215333D01*
X146376800Y-107348666D01*
X146376800Y-107448666D01*
X146410133Y-107582000D01*
X146443466Y-107648666D01*
X146510133Y-107715333D01*
X146610133Y-107748666D01*
X146776800Y-107748666D01*
X145710133Y-107748666D02*
X146110133Y-107748666D01*
X145910133Y-107748666D02*
X145910133Y-107048666D01*
X145976800Y-107148666D01*
X146043466Y-107215333D01*
X146110133Y-107248666D01*
X145110133Y-107282000D02*
X145110133Y-107748666D01*
X145276800Y-107015333D02*
X145443466Y-107515333D01*
X145010133Y-107515333D01*
X146776800Y-109248666D02*
X146776800Y-108548666D01*
X146610133Y-108548666D01*
X146510133Y-108582000D01*
X146443466Y-108648666D01*
X146410133Y-108715333D01*
X146376800Y-108848666D01*
X146376800Y-108948666D01*
X146410133Y-109082000D01*
X146443466Y-109148666D01*
X146510133Y-109215333D01*
X146610133Y-109248666D01*
X146776800Y-109248666D01*
X145710133Y-109248666D02*
X146110133Y-109248666D01*
X145910133Y-109248666D02*
X145910133Y-108548666D01*
X145976800Y-108648666D01*
X146043466Y-108715333D01*
X146110133Y-108748666D01*
X145310133Y-108848666D02*
X145376800Y-108815333D01*
X145410133Y-108782000D01*
X145443466Y-108715333D01*
X145443466Y-108682000D01*
X145410133Y-108615333D01*
X145376800Y-108582000D01*
X145310133Y-108548666D01*
X145176800Y-108548666D01*
X145110133Y-108582000D01*
X145076800Y-108615333D01*
X145043466Y-108682000D01*
X145043466Y-108715333D01*
X145076800Y-108782000D01*
X145110133Y-108815333D01*
X145176800Y-108848666D01*
X145310133Y-108848666D01*
X145376800Y-108882000D01*
X145410133Y-108915333D01*
X145443466Y-108982000D01*
X145443466Y-109115333D01*
X145410133Y-109182000D01*
X145376800Y-109215333D01*
X145310133Y-109248666D01*
X145176800Y-109248666D01*
X145110133Y-109215333D01*
X145076800Y-109182000D01*
X145043466Y-109115333D01*
X145043466Y-108982000D01*
X145076800Y-108915333D01*
X145110133Y-108882000D01*
X145176800Y-108848666D01*
X196941800Y-113748666D02*
X196941800Y-113048666D01*
X196775133Y-113048666D01*
X196675133Y-113082000D01*
X196608466Y-113148666D01*
X196575133Y-113215333D01*
X196541800Y-113348666D01*
X196541800Y-113448666D01*
X196575133Y-113582000D01*
X196608466Y-113648666D01*
X196675133Y-113715333D01*
X196775133Y-113748666D01*
X196941800Y-113748666D01*
X196275133Y-113115333D02*
X196241800Y-113082000D01*
X196175133Y-113048666D01*
X196008466Y-113048666D01*
X195941800Y-113082000D01*
X195908466Y-113115333D01*
X195875133Y-113182000D01*
X195875133Y-113248666D01*
X195908466Y-113348666D01*
X196308466Y-113748666D01*
X195875133Y-113748666D01*
X195541800Y-113748666D02*
X195408466Y-113748666D01*
X195341800Y-113715333D01*
X195308466Y-113682000D01*
X195241800Y-113582000D01*
X195208466Y-113448666D01*
X195208466Y-113182000D01*
X195241800Y-113115333D01*
X195275133Y-113082000D01*
X195341800Y-113048666D01*
X195475133Y-113048666D01*
X195541800Y-113082000D01*
X195575133Y-113115333D01*
X195608466Y-113182000D01*
X195608466Y-113348666D01*
X195575133Y-113415333D01*
X195541800Y-113448666D01*
X195475133Y-113482000D01*
X195341800Y-113482000D01*
X195275133Y-113448666D01*
X195241800Y-113415333D01*
X195208466Y-113348666D01*
X196941800Y-118248666D02*
X196941800Y-117548666D01*
X196775133Y-117548666D01*
X196675133Y-117582000D01*
X196608466Y-117648666D01*
X196575133Y-117715333D01*
X196541800Y-117848666D01*
X196541800Y-117948666D01*
X196575133Y-118082000D01*
X196608466Y-118148666D01*
X196675133Y-118215333D01*
X196775133Y-118248666D01*
X196941800Y-118248666D01*
X195941800Y-117782000D02*
X195941800Y-118248666D01*
X196108466Y-117515333D02*
X196275133Y-118015333D01*
X195841800Y-118015333D01*
X195641800Y-117548666D02*
X195208466Y-117548666D01*
X195441800Y-117815333D01*
X195341800Y-117815333D01*
X195275133Y-117848666D01*
X195241800Y-117882000D01*
X195208466Y-117948666D01*
X195208466Y-118115333D01*
X195241800Y-118182000D01*
X195275133Y-118215333D01*
X195341800Y-118248666D01*
X195541800Y-118248666D01*
X195608466Y-118215333D01*
X195641800Y-118182000D01*
X196941800Y-112248666D02*
X196941800Y-111548666D01*
X196775133Y-111548666D01*
X196675133Y-111582000D01*
X196608466Y-111648666D01*
X196575133Y-111715333D01*
X196541800Y-111848666D01*
X196541800Y-111948666D01*
X196575133Y-112082000D01*
X196608466Y-112148666D01*
X196675133Y-112215333D01*
X196775133Y-112248666D01*
X196941800Y-112248666D01*
X196275133Y-111615333D02*
X196241800Y-111582000D01*
X196175133Y-111548666D01*
X196008466Y-111548666D01*
X195941800Y-111582000D01*
X195908466Y-111615333D01*
X195875133Y-111682000D01*
X195875133Y-111748666D01*
X195908466Y-111848666D01*
X196308466Y-112248666D01*
X195875133Y-112248666D01*
X195241800Y-111548666D02*
X195575133Y-111548666D01*
X195608466Y-111882000D01*
X195575133Y-111848666D01*
X195508466Y-111815333D01*
X195341800Y-111815333D01*
X195275133Y-111848666D01*
X195241800Y-111882000D01*
X195208466Y-111948666D01*
X195208466Y-112115333D01*
X195241800Y-112182000D01*
X195275133Y-112215333D01*
X195341800Y-112248666D01*
X195508466Y-112248666D01*
X195575133Y-112215333D01*
X195608466Y-112182000D01*
X196814800Y-107748666D02*
X196814800Y-107048666D01*
X196648133Y-107048666D01*
X196548133Y-107082000D01*
X196481466Y-107148666D01*
X196448133Y-107215333D01*
X196414800Y-107348666D01*
X196414800Y-107448666D01*
X196448133Y-107582000D01*
X196481466Y-107648666D01*
X196548133Y-107715333D01*
X196648133Y-107748666D01*
X196814800Y-107748666D01*
X195748133Y-107748666D02*
X196148133Y-107748666D01*
X195948133Y-107748666D02*
X195948133Y-107048666D01*
X196014800Y-107148666D01*
X196081466Y-107215333D01*
X196148133Y-107248666D01*
X195514800Y-107048666D02*
X195081466Y-107048666D01*
X195314800Y-107315333D01*
X195214800Y-107315333D01*
X195148133Y-107348666D01*
X195114800Y-107382000D01*
X195081466Y-107448666D01*
X195081466Y-107615333D01*
X195114800Y-107682000D01*
X195148133Y-107715333D01*
X195214800Y-107748666D01*
X195414800Y-107748666D01*
X195481466Y-107715333D01*
X195514800Y-107682000D01*
X146903800Y-115248666D02*
X146903800Y-114548666D01*
X146737133Y-114548666D01*
X146637133Y-114582000D01*
X146570466Y-114648666D01*
X146537133Y-114715333D01*
X146503800Y-114848666D01*
X146503800Y-114948666D01*
X146537133Y-115082000D01*
X146570466Y-115148666D01*
X146637133Y-115215333D01*
X146737133Y-115248666D01*
X146903800Y-115248666D01*
X146270466Y-114548666D02*
X145837133Y-114548666D01*
X146070466Y-114815333D01*
X145970466Y-114815333D01*
X145903800Y-114848666D01*
X145870466Y-114882000D01*
X145837133Y-114948666D01*
X145837133Y-115115333D01*
X145870466Y-115182000D01*
X145903800Y-115215333D01*
X145970466Y-115248666D01*
X146170466Y-115248666D01*
X146237133Y-115215333D01*
X146270466Y-115182000D01*
X145237133Y-114548666D02*
X145370466Y-114548666D01*
X145437133Y-114582000D01*
X145470466Y-114615333D01*
X145537133Y-114715333D01*
X145570466Y-114848666D01*
X145570466Y-115115333D01*
X145537133Y-115182000D01*
X145503800Y-115215333D01*
X145437133Y-115248666D01*
X145303800Y-115248666D01*
X145237133Y-115215333D01*
X145203800Y-115182000D01*
X145170466Y-115115333D01*
X145170466Y-114948666D01*
X145203800Y-114882000D01*
X145237133Y-114848666D01*
X145303800Y-114815333D01*
X145437133Y-114815333D01*
X145503800Y-114848666D01*
X145537133Y-114882000D01*
X145570466Y-114948666D01*
X146887966Y-106248666D02*
X146887966Y-105548666D01*
X146721300Y-105548666D01*
X146621300Y-105582000D01*
X146554633Y-105648666D01*
X146521300Y-105715333D01*
X146487966Y-105848666D01*
X146487966Y-105948666D01*
X146521300Y-106082000D01*
X146554633Y-106148666D01*
X146621300Y-106215333D01*
X146721300Y-106248666D01*
X146887966Y-106248666D01*
X146087966Y-105848666D02*
X146154633Y-105815333D01*
X146187966Y-105782000D01*
X146221300Y-105715333D01*
X146221300Y-105682000D01*
X146187966Y-105615333D01*
X146154633Y-105582000D01*
X146087966Y-105548666D01*
X145954633Y-105548666D01*
X145887966Y-105582000D01*
X145854633Y-105615333D01*
X145821300Y-105682000D01*
X145821300Y-105715333D01*
X145854633Y-105782000D01*
X145887966Y-105815333D01*
X145954633Y-105848666D01*
X146087966Y-105848666D01*
X146154633Y-105882000D01*
X146187966Y-105915333D01*
X146221300Y-105982000D01*
X146221300Y-106115333D01*
X146187966Y-106182000D01*
X146154633Y-106215333D01*
X146087966Y-106248666D01*
X145954633Y-106248666D01*
X145887966Y-106215333D01*
X145854633Y-106182000D01*
X145821300Y-106115333D01*
X145821300Y-105982000D01*
X145854633Y-105915333D01*
X145887966Y-105882000D01*
X145954633Y-105848666D01*
X196925966Y-104748666D02*
X196925966Y-104048666D01*
X196759300Y-104048666D01*
X196659300Y-104082000D01*
X196592633Y-104148666D01*
X196559300Y-104215333D01*
X196525966Y-104348666D01*
X196525966Y-104448666D01*
X196559300Y-104582000D01*
X196592633Y-104648666D01*
X196659300Y-104715333D01*
X196759300Y-104748666D01*
X196925966Y-104748666D01*
X196292633Y-104048666D02*
X195859300Y-104048666D01*
X196092633Y-104315333D01*
X195992633Y-104315333D01*
X195925966Y-104348666D01*
X195892633Y-104382000D01*
X195859300Y-104448666D01*
X195859300Y-104615333D01*
X195892633Y-104682000D01*
X195925966Y-104715333D01*
X195992633Y-104748666D01*
X196192633Y-104748666D01*
X196259300Y-104715333D01*
X196292633Y-104682000D01*
X196814800Y-110748666D02*
X196814800Y-110048666D01*
X196648133Y-110048666D01*
X196548133Y-110082000D01*
X196481466Y-110148666D01*
X196448133Y-110215333D01*
X196414800Y-110348666D01*
X196414800Y-110448666D01*
X196448133Y-110582000D01*
X196481466Y-110648666D01*
X196548133Y-110715333D01*
X196648133Y-110748666D01*
X196814800Y-110748666D01*
X196148133Y-110115333D02*
X196114800Y-110082000D01*
X196048133Y-110048666D01*
X195881466Y-110048666D01*
X195814800Y-110082000D01*
X195781466Y-110115333D01*
X195748133Y-110182000D01*
X195748133Y-110248666D01*
X195781466Y-110348666D01*
X196181466Y-110748666D01*
X195748133Y-110748666D01*
X195081466Y-110748666D02*
X195481466Y-110748666D01*
X195281466Y-110748666D02*
X195281466Y-110048666D01*
X195348133Y-110148666D01*
X195414800Y-110215333D01*
X195481466Y-110248666D01*
X271744800Y-116748666D02*
X271744800Y-116048666D01*
X271578133Y-116048666D01*
X271478133Y-116082000D01*
X271411466Y-116148666D01*
X271378133Y-116215333D01*
X271344800Y-116348666D01*
X271344800Y-116448666D01*
X271378133Y-116582000D01*
X271411466Y-116648666D01*
X271478133Y-116715333D01*
X271578133Y-116748666D01*
X271744800Y-116748666D01*
X271111466Y-116048666D02*
X270678133Y-116048666D01*
X270911466Y-116315333D01*
X270811466Y-116315333D01*
X270744800Y-116348666D01*
X270711466Y-116382000D01*
X270678133Y-116448666D01*
X270678133Y-116615333D01*
X270711466Y-116682000D01*
X270744800Y-116715333D01*
X270811466Y-116748666D01*
X271011466Y-116748666D01*
X271078133Y-116715333D01*
X271111466Y-116682000D01*
X270278133Y-116348666D02*
X270344800Y-116315333D01*
X270378133Y-116282000D01*
X270411466Y-116215333D01*
X270411466Y-116182000D01*
X270378133Y-116115333D01*
X270344800Y-116082000D01*
X270278133Y-116048666D01*
X270144800Y-116048666D01*
X270078133Y-116082000D01*
X270044800Y-116115333D01*
X270011466Y-116182000D01*
X270011466Y-116215333D01*
X270044800Y-116282000D01*
X270078133Y-116315333D01*
X270144800Y-116348666D01*
X270278133Y-116348666D01*
X270344800Y-116382000D01*
X270378133Y-116415333D01*
X270411466Y-116482000D01*
X270411466Y-116615333D01*
X270378133Y-116682000D01*
X270344800Y-116715333D01*
X270278133Y-116748666D01*
X270144800Y-116748666D01*
X270078133Y-116715333D01*
X270044800Y-116682000D01*
X270011466Y-116615333D01*
X270011466Y-116482000D01*
X270044800Y-116415333D01*
X270078133Y-116382000D01*
X270144800Y-116348666D01*
X271617800Y-109248666D02*
X271617800Y-108548666D01*
X271451133Y-108548666D01*
X271351133Y-108582000D01*
X271284466Y-108648666D01*
X271251133Y-108715333D01*
X271217800Y-108848666D01*
X271217800Y-108948666D01*
X271251133Y-109082000D01*
X271284466Y-109148666D01*
X271351133Y-109215333D01*
X271451133Y-109248666D01*
X271617800Y-109248666D01*
X270551133Y-109248666D02*
X270951133Y-109248666D01*
X270751133Y-109248666D02*
X270751133Y-108548666D01*
X270817800Y-108648666D01*
X270884466Y-108715333D01*
X270951133Y-108748666D01*
X269951133Y-108548666D02*
X270084466Y-108548666D01*
X270151133Y-108582000D01*
X270184466Y-108615333D01*
X270251133Y-108715333D01*
X270284466Y-108848666D01*
X270284466Y-109115333D01*
X270251133Y-109182000D01*
X270217800Y-109215333D01*
X270151133Y-109248666D01*
X270017800Y-109248666D01*
X269951133Y-109215333D01*
X269917800Y-109182000D01*
X269884466Y-109115333D01*
X269884466Y-108948666D01*
X269917800Y-108882000D01*
X269951133Y-108848666D01*
X270017800Y-108815333D01*
X270151133Y-108815333D01*
X270217800Y-108848666D01*
X270251133Y-108882000D01*
X270284466Y-108948666D01*
X271728966Y-106248666D02*
X271728966Y-105548666D01*
X271562300Y-105548666D01*
X271462300Y-105582000D01*
X271395633Y-105648666D01*
X271362300Y-105715333D01*
X271328966Y-105848666D01*
X271328966Y-105948666D01*
X271362300Y-106082000D01*
X271395633Y-106148666D01*
X271462300Y-106215333D01*
X271562300Y-106248666D01*
X271728966Y-106248666D01*
X270728966Y-105548666D02*
X270862300Y-105548666D01*
X270928966Y-105582000D01*
X270962300Y-105615333D01*
X271028966Y-105715333D01*
X271062300Y-105848666D01*
X271062300Y-106115333D01*
X271028966Y-106182000D01*
X270995633Y-106215333D01*
X270928966Y-106248666D01*
X270795633Y-106248666D01*
X270728966Y-106215333D01*
X270695633Y-106182000D01*
X270662300Y-106115333D01*
X270662300Y-105948666D01*
X270695633Y-105882000D01*
X270728966Y-105848666D01*
X270795633Y-105815333D01*
X270928966Y-105815333D01*
X270995633Y-105848666D01*
X271028966Y-105882000D01*
X271062300Y-105948666D01*
X271744800Y-115248666D02*
X271744800Y-114548666D01*
X271578133Y-114548666D01*
X271478133Y-114582000D01*
X271411466Y-114648666D01*
X271378133Y-114715333D01*
X271344800Y-114848666D01*
X271344800Y-114948666D01*
X271378133Y-115082000D01*
X271411466Y-115148666D01*
X271478133Y-115215333D01*
X271578133Y-115248666D01*
X271744800Y-115248666D01*
X271111466Y-114548666D02*
X270678133Y-114548666D01*
X270911466Y-114815333D01*
X270811466Y-114815333D01*
X270744800Y-114848666D01*
X270711466Y-114882000D01*
X270678133Y-114948666D01*
X270678133Y-115115333D01*
X270711466Y-115182000D01*
X270744800Y-115215333D01*
X270811466Y-115248666D01*
X271011466Y-115248666D01*
X271078133Y-115215333D01*
X271111466Y-115182000D01*
X270078133Y-114782000D02*
X270078133Y-115248666D01*
X270244800Y-114515333D02*
X270411466Y-115015333D01*
X269978133Y-115015333D01*
X271744800Y-113748666D02*
X271744800Y-113048666D01*
X271578133Y-113048666D01*
X271478133Y-113082000D01*
X271411466Y-113148666D01*
X271378133Y-113215333D01*
X271344800Y-113348666D01*
X271344800Y-113448666D01*
X271378133Y-113582000D01*
X271411466Y-113648666D01*
X271478133Y-113715333D01*
X271578133Y-113748666D01*
X271744800Y-113748666D01*
X271078133Y-113115333D02*
X271044800Y-113082000D01*
X270978133Y-113048666D01*
X270811466Y-113048666D01*
X270744800Y-113082000D01*
X270711466Y-113115333D01*
X270678133Y-113182000D01*
X270678133Y-113248666D01*
X270711466Y-113348666D01*
X271111466Y-113748666D01*
X270678133Y-113748666D01*
X270278133Y-113348666D02*
X270344800Y-113315333D01*
X270378133Y-113282000D01*
X270411466Y-113215333D01*
X270411466Y-113182000D01*
X270378133Y-113115333D01*
X270344800Y-113082000D01*
X270278133Y-113048666D01*
X270144800Y-113048666D01*
X270078133Y-113082000D01*
X270044800Y-113115333D01*
X270011466Y-113182000D01*
X270011466Y-113215333D01*
X270044800Y-113282000D01*
X270078133Y-113315333D01*
X270144800Y-113348666D01*
X270278133Y-113348666D01*
X270344800Y-113382000D01*
X270378133Y-113415333D01*
X270411466Y-113482000D01*
X270411466Y-113615333D01*
X270378133Y-113682000D01*
X270344800Y-113715333D01*
X270278133Y-113748666D01*
X270144800Y-113748666D01*
X270078133Y-113715333D01*
X270044800Y-113682000D01*
X270011466Y-113615333D01*
X270011466Y-113482000D01*
X270044800Y-113415333D01*
X270078133Y-113382000D01*
X270144800Y-113348666D01*
X271744800Y-118248666D02*
X271744800Y-117548666D01*
X271578133Y-117548666D01*
X271478133Y-117582000D01*
X271411466Y-117648666D01*
X271378133Y-117715333D01*
X271344800Y-117848666D01*
X271344800Y-117948666D01*
X271378133Y-118082000D01*
X271411466Y-118148666D01*
X271478133Y-118215333D01*
X271578133Y-118248666D01*
X271744800Y-118248666D01*
X270744800Y-117782000D02*
X270744800Y-118248666D01*
X270911466Y-117515333D02*
X271078133Y-118015333D01*
X270644800Y-118015333D01*
X270411466Y-117615333D02*
X270378133Y-117582000D01*
X270311466Y-117548666D01*
X270144800Y-117548666D01*
X270078133Y-117582000D01*
X270044800Y-117615333D01*
X270011466Y-117682000D01*
X270011466Y-117748666D01*
X270044800Y-117848666D01*
X270444800Y-118248666D01*
X270011466Y-118248666D01*
X271744800Y-112248666D02*
X271744800Y-111548666D01*
X271578133Y-111548666D01*
X271478133Y-111582000D01*
X271411466Y-111648666D01*
X271378133Y-111715333D01*
X271344800Y-111848666D01*
X271344800Y-111948666D01*
X271378133Y-112082000D01*
X271411466Y-112148666D01*
X271478133Y-112215333D01*
X271578133Y-112248666D01*
X271744800Y-112248666D01*
X271078133Y-111615333D02*
X271044800Y-111582000D01*
X270978133Y-111548666D01*
X270811466Y-111548666D01*
X270744800Y-111582000D01*
X270711466Y-111615333D01*
X270678133Y-111682000D01*
X270678133Y-111748666D01*
X270711466Y-111848666D01*
X271111466Y-112248666D01*
X270678133Y-112248666D01*
X270078133Y-111782000D02*
X270078133Y-112248666D01*
X270244800Y-111515333D02*
X270411466Y-112015333D01*
X269978133Y-112015333D01*
X271617800Y-107748666D02*
X271617800Y-107048666D01*
X271451133Y-107048666D01*
X271351133Y-107082000D01*
X271284466Y-107148666D01*
X271251133Y-107215333D01*
X271217800Y-107348666D01*
X271217800Y-107448666D01*
X271251133Y-107582000D01*
X271284466Y-107648666D01*
X271351133Y-107715333D01*
X271451133Y-107748666D01*
X271617800Y-107748666D01*
X270551133Y-107748666D02*
X270951133Y-107748666D01*
X270751133Y-107748666D02*
X270751133Y-107048666D01*
X270817800Y-107148666D01*
X270884466Y-107215333D01*
X270951133Y-107248666D01*
X270284466Y-107115333D02*
X270251133Y-107082000D01*
X270184466Y-107048666D01*
X270017800Y-107048666D01*
X269951133Y-107082000D01*
X269917800Y-107115333D01*
X269884466Y-107182000D01*
X269884466Y-107248666D01*
X269917800Y-107348666D01*
X270317800Y-107748666D01*
X269884466Y-107748666D01*
X271728966Y-104748666D02*
X271728966Y-104048666D01*
X271562300Y-104048666D01*
X271462300Y-104082000D01*
X271395633Y-104148666D01*
X271362300Y-104215333D01*
X271328966Y-104348666D01*
X271328966Y-104448666D01*
X271362300Y-104582000D01*
X271395633Y-104648666D01*
X271462300Y-104715333D01*
X271562300Y-104748666D01*
X271728966Y-104748666D01*
X271062300Y-104115333D02*
X271028966Y-104082000D01*
X270962300Y-104048666D01*
X270795633Y-104048666D01*
X270728966Y-104082000D01*
X270695633Y-104115333D01*
X270662300Y-104182000D01*
X270662300Y-104248666D01*
X270695633Y-104348666D01*
X271095633Y-104748666D01*
X270662300Y-104748666D01*
X271617800Y-110748666D02*
X271617800Y-110048666D01*
X271451133Y-110048666D01*
X271351133Y-110082000D01*
X271284466Y-110148666D01*
X271251133Y-110215333D01*
X271217800Y-110348666D01*
X271217800Y-110448666D01*
X271251133Y-110582000D01*
X271284466Y-110648666D01*
X271351133Y-110715333D01*
X271451133Y-110748666D01*
X271617800Y-110748666D01*
X270951133Y-110115333D02*
X270917800Y-110082000D01*
X270851133Y-110048666D01*
X270684466Y-110048666D01*
X270617800Y-110082000D01*
X270584466Y-110115333D01*
X270551133Y-110182000D01*
X270551133Y-110248666D01*
X270584466Y-110348666D01*
X270984466Y-110748666D01*
X270551133Y-110748666D01*
X270117800Y-110048666D02*
X270051133Y-110048666D01*
X269984466Y-110082000D01*
X269951133Y-110115333D01*
X269917800Y-110182000D01*
X269884466Y-110315333D01*
X269884466Y-110482000D01*
X269917800Y-110615333D01*
X269951133Y-110682000D01*
X269984466Y-110715333D01*
X270051133Y-110748666D01*
X270117800Y-110748666D01*
X270184466Y-110715333D01*
X270217800Y-110682000D01*
X270251133Y-110615333D01*
X270284466Y-110482000D01*
X270284466Y-110315333D01*
X270251133Y-110182000D01*
X270217800Y-110115333D01*
X270184466Y-110082000D01*
X270117800Y-110048666D01*
X321782800Y-118248666D02*
X321782800Y-117548666D01*
X321616133Y-117548666D01*
X321516133Y-117582000D01*
X321449466Y-117648666D01*
X321416133Y-117715333D01*
X321382800Y-117848666D01*
X321382800Y-117948666D01*
X321416133Y-118082000D01*
X321449466Y-118148666D01*
X321516133Y-118215333D01*
X321616133Y-118248666D01*
X321782800Y-118248666D01*
X320782800Y-117782000D02*
X320782800Y-118248666D01*
X320949466Y-117515333D02*
X321116133Y-118015333D01*
X320682800Y-118015333D01*
X320049466Y-118248666D02*
X320449466Y-118248666D01*
X320249466Y-118248666D02*
X320249466Y-117548666D01*
X320316133Y-117648666D01*
X320382800Y-117715333D01*
X320449466Y-117748666D01*
X321782800Y-116748666D02*
X321782800Y-116048666D01*
X321616133Y-116048666D01*
X321516133Y-116082000D01*
X321449466Y-116148666D01*
X321416133Y-116215333D01*
X321382800Y-116348666D01*
X321382800Y-116448666D01*
X321416133Y-116582000D01*
X321449466Y-116648666D01*
X321516133Y-116715333D01*
X321616133Y-116748666D01*
X321782800Y-116748666D01*
X321149466Y-116048666D02*
X320716133Y-116048666D01*
X320949466Y-116315333D01*
X320849466Y-116315333D01*
X320782800Y-116348666D01*
X320749466Y-116382000D01*
X320716133Y-116448666D01*
X320716133Y-116615333D01*
X320749466Y-116682000D01*
X320782800Y-116715333D01*
X320849466Y-116748666D01*
X321049466Y-116748666D01*
X321116133Y-116715333D01*
X321149466Y-116682000D01*
X320482800Y-116048666D02*
X320016133Y-116048666D01*
X320316133Y-116748666D01*
X321782800Y-115248666D02*
X321782800Y-114548666D01*
X321616133Y-114548666D01*
X321516133Y-114582000D01*
X321449466Y-114648666D01*
X321416133Y-114715333D01*
X321382800Y-114848666D01*
X321382800Y-114948666D01*
X321416133Y-115082000D01*
X321449466Y-115148666D01*
X321516133Y-115215333D01*
X321616133Y-115248666D01*
X321782800Y-115248666D01*
X321149466Y-114548666D02*
X320716133Y-114548666D01*
X320949466Y-114815333D01*
X320849466Y-114815333D01*
X320782800Y-114848666D01*
X320749466Y-114882000D01*
X320716133Y-114948666D01*
X320716133Y-115115333D01*
X320749466Y-115182000D01*
X320782800Y-115215333D01*
X320849466Y-115248666D01*
X321049466Y-115248666D01*
X321116133Y-115215333D01*
X321149466Y-115182000D01*
X320482800Y-114548666D02*
X320049466Y-114548666D01*
X320282800Y-114815333D01*
X320182800Y-114815333D01*
X320116133Y-114848666D01*
X320082800Y-114882000D01*
X320049466Y-114948666D01*
X320049466Y-115115333D01*
X320082800Y-115182000D01*
X320116133Y-115215333D01*
X320182800Y-115248666D01*
X320382800Y-115248666D01*
X320449466Y-115215333D01*
X320482800Y-115182000D01*
X321782800Y-113748666D02*
X321782800Y-113048666D01*
X321616133Y-113048666D01*
X321516133Y-113082000D01*
X321449466Y-113148666D01*
X321416133Y-113215333D01*
X321382800Y-113348666D01*
X321382800Y-113448666D01*
X321416133Y-113582000D01*
X321449466Y-113648666D01*
X321516133Y-113715333D01*
X321616133Y-113748666D01*
X321782800Y-113748666D01*
X321116133Y-113115333D02*
X321082800Y-113082000D01*
X321016133Y-113048666D01*
X320849466Y-113048666D01*
X320782800Y-113082000D01*
X320749466Y-113115333D01*
X320716133Y-113182000D01*
X320716133Y-113248666D01*
X320749466Y-113348666D01*
X321149466Y-113748666D01*
X320716133Y-113748666D01*
X320482800Y-113048666D02*
X320016133Y-113048666D01*
X320316133Y-113748666D01*
X321782800Y-112248666D02*
X321782800Y-111548666D01*
X321616133Y-111548666D01*
X321516133Y-111582000D01*
X321449466Y-111648666D01*
X321416133Y-111715333D01*
X321382800Y-111848666D01*
X321382800Y-111948666D01*
X321416133Y-112082000D01*
X321449466Y-112148666D01*
X321516133Y-112215333D01*
X321616133Y-112248666D01*
X321782800Y-112248666D01*
X321116133Y-111615333D02*
X321082800Y-111582000D01*
X321016133Y-111548666D01*
X320849466Y-111548666D01*
X320782800Y-111582000D01*
X320749466Y-111615333D01*
X320716133Y-111682000D01*
X320716133Y-111748666D01*
X320749466Y-111848666D01*
X321149466Y-112248666D01*
X320716133Y-112248666D01*
X320482800Y-111548666D02*
X320049466Y-111548666D01*
X320282800Y-111815333D01*
X320182800Y-111815333D01*
X320116133Y-111848666D01*
X320082800Y-111882000D01*
X320049466Y-111948666D01*
X320049466Y-112115333D01*
X320082800Y-112182000D01*
X320116133Y-112215333D01*
X320182800Y-112248666D01*
X320382800Y-112248666D01*
X320449466Y-112215333D01*
X320482800Y-112182000D01*
X321655800Y-110748666D02*
X321655800Y-110048666D01*
X321489133Y-110048666D01*
X321389133Y-110082000D01*
X321322466Y-110148666D01*
X321289133Y-110215333D01*
X321255800Y-110348666D01*
X321255800Y-110448666D01*
X321289133Y-110582000D01*
X321322466Y-110648666D01*
X321389133Y-110715333D01*
X321489133Y-110748666D01*
X321655800Y-110748666D01*
X320589133Y-110748666D02*
X320989133Y-110748666D01*
X320789133Y-110748666D02*
X320789133Y-110048666D01*
X320855800Y-110148666D01*
X320922466Y-110215333D01*
X320989133Y-110248666D01*
X320255800Y-110748666D02*
X320122466Y-110748666D01*
X320055800Y-110715333D01*
X320022466Y-110682000D01*
X319955800Y-110582000D01*
X319922466Y-110448666D01*
X319922466Y-110182000D01*
X319955800Y-110115333D01*
X319989133Y-110082000D01*
X320055800Y-110048666D01*
X320189133Y-110048666D01*
X320255800Y-110082000D01*
X320289133Y-110115333D01*
X320322466Y-110182000D01*
X320322466Y-110348666D01*
X320289133Y-110415333D01*
X320255800Y-110448666D01*
X320189133Y-110482000D01*
X320055800Y-110482000D01*
X319989133Y-110448666D01*
X319955800Y-110415333D01*
X319922466Y-110348666D01*
X321655800Y-109248666D02*
X321655800Y-108548666D01*
X321489133Y-108548666D01*
X321389133Y-108582000D01*
X321322466Y-108648666D01*
X321289133Y-108715333D01*
X321255800Y-108848666D01*
X321255800Y-108948666D01*
X321289133Y-109082000D01*
X321322466Y-109148666D01*
X321389133Y-109215333D01*
X321489133Y-109248666D01*
X321655800Y-109248666D01*
X320589133Y-109248666D02*
X320989133Y-109248666D01*
X320789133Y-109248666D02*
X320789133Y-108548666D01*
X320855800Y-108648666D01*
X320922466Y-108715333D01*
X320989133Y-108748666D01*
X319955800Y-108548666D02*
X320289133Y-108548666D01*
X320322466Y-108882000D01*
X320289133Y-108848666D01*
X320222466Y-108815333D01*
X320055800Y-108815333D01*
X319989133Y-108848666D01*
X319955800Y-108882000D01*
X319922466Y-108948666D01*
X319922466Y-109115333D01*
X319955800Y-109182000D01*
X319989133Y-109215333D01*
X320055800Y-109248666D01*
X320222466Y-109248666D01*
X320289133Y-109215333D01*
X320322466Y-109182000D01*
X321655800Y-107748666D02*
X321655800Y-107048666D01*
X321489133Y-107048666D01*
X321389133Y-107082000D01*
X321322466Y-107148666D01*
X321289133Y-107215333D01*
X321255800Y-107348666D01*
X321255800Y-107448666D01*
X321289133Y-107582000D01*
X321322466Y-107648666D01*
X321389133Y-107715333D01*
X321489133Y-107748666D01*
X321655800Y-107748666D01*
X320589133Y-107748666D02*
X320989133Y-107748666D01*
X320789133Y-107748666D02*
X320789133Y-107048666D01*
X320855800Y-107148666D01*
X320922466Y-107215333D01*
X320989133Y-107248666D01*
X319922466Y-107748666D02*
X320322466Y-107748666D01*
X320122466Y-107748666D02*
X320122466Y-107048666D01*
X320189133Y-107148666D01*
X320255800Y-107215333D01*
X320322466Y-107248666D01*
X321766966Y-106248666D02*
X321766966Y-105548666D01*
X321600300Y-105548666D01*
X321500300Y-105582000D01*
X321433633Y-105648666D01*
X321400300Y-105715333D01*
X321366966Y-105848666D01*
X321366966Y-105948666D01*
X321400300Y-106082000D01*
X321433633Y-106148666D01*
X321500300Y-106215333D01*
X321600300Y-106248666D01*
X321766966Y-106248666D01*
X320733633Y-105548666D02*
X321066966Y-105548666D01*
X321100300Y-105882000D01*
X321066966Y-105848666D01*
X321000300Y-105815333D01*
X320833633Y-105815333D01*
X320766966Y-105848666D01*
X320733633Y-105882000D01*
X320700300Y-105948666D01*
X320700300Y-106115333D01*
X320733633Y-106182000D01*
X320766966Y-106215333D01*
X320833633Y-106248666D01*
X321000300Y-106248666D01*
X321066966Y-106215333D01*
X321100300Y-106182000D01*
X321766966Y-104748666D02*
X321766966Y-104048666D01*
X321600300Y-104048666D01*
X321500300Y-104082000D01*
X321433633Y-104148666D01*
X321400300Y-104215333D01*
X321366966Y-104348666D01*
X321366966Y-104448666D01*
X321400300Y-104582000D01*
X321433633Y-104648666D01*
X321500300Y-104715333D01*
X321600300Y-104748666D01*
X321766966Y-104748666D01*
X320700300Y-104748666D02*
X321100300Y-104748666D01*
X320900300Y-104748666D02*
X320900300Y-104048666D01*
X320966966Y-104148666D01*
X321033633Y-104215333D01*
X321100300Y-104248666D01*
M02*
