G04 #@! TF.GenerationSoftware,KiCad,Pcbnew,5.0.2-bee76a0~70~ubuntu18.04.1*
G04 #@! TF.CreationDate,2020-06-09T18:29:45+02:00*
G04 #@! TF.ProjectId,DemoNixieControl-KiCad,44656d6f-4e69-4786-9965-436f6e74726f,rev?*
G04 #@! TF.SameCoordinates,Original*
G04 #@! TF.FileFunction,Legend,Top*
G04 #@! TF.FilePolarity,Positive*
%FSLAX46Y46*%
G04 Gerber Fmt 4.6, Leading zero omitted, Abs format (unit mm)*
G04 Created by KiCad (PCBNEW 5.0.2-bee76a0~70~ubuntu18.04.1) date mar. 09 juin 2020 18:29:45 CEST*
%MOMM*%
%LPD*%
G01*
G04 APERTURE LIST*
%ADD10C,0.150000*%
%ADD11C,0.300000*%
%ADD12C,0.200000*%
%ADD13C,0.500000*%
%ADD14C,0.120000*%
G04 APERTURE END LIST*
D10*
X236864091Y-119850996D02*
X237340281Y-119850996D01*
X236768852Y-120136710D02*
X237102186Y-119136710D01*
X237435519Y-120136710D01*
X237768852Y-120136710D02*
X237768852Y-119470044D01*
X237768852Y-119660520D02*
X237816471Y-119565282D01*
X237864091Y-119517663D01*
X237959329Y-119470044D01*
X238054567Y-119470044D01*
X238387900Y-119470044D02*
X238387900Y-120136710D01*
X238387900Y-119565282D02*
X238435519Y-119517663D01*
X238530757Y-119470044D01*
X238673614Y-119470044D01*
X238768852Y-119517663D01*
X238816471Y-119612901D01*
X238816471Y-120136710D01*
X239721233Y-120136710D02*
X239721233Y-119612901D01*
X239673614Y-119517663D01*
X239578376Y-119470044D01*
X239387900Y-119470044D01*
X239292662Y-119517663D01*
X239721233Y-120089091D02*
X239625995Y-120136710D01*
X239387900Y-120136710D01*
X239292662Y-120089091D01*
X239245043Y-119993853D01*
X239245043Y-119898615D01*
X239292662Y-119803377D01*
X239387900Y-119755758D01*
X239625995Y-119755758D01*
X239721233Y-119708139D01*
X240625995Y-119470044D02*
X240625995Y-120136710D01*
X240197424Y-119470044D02*
X240197424Y-119993853D01*
X240245043Y-120089091D01*
X240340281Y-120136710D01*
X240483138Y-120136710D01*
X240578376Y-120089091D01*
X240625995Y-120041472D01*
X241530757Y-120136710D02*
X241530757Y-119136710D01*
X241530757Y-120089091D02*
X241435519Y-120136710D01*
X241245043Y-120136710D01*
X241149805Y-120089091D01*
X241102186Y-120041472D01*
X241054567Y-119946234D01*
X241054567Y-119660520D01*
X241102186Y-119565282D01*
X241149805Y-119517663D01*
X241245043Y-119470044D01*
X241435519Y-119470044D01*
X241530757Y-119517663D01*
X242721233Y-119850996D02*
X243197424Y-119850996D01*
X242625995Y-120136710D02*
X242959329Y-119136710D01*
X243292662Y-120136710D01*
X243625995Y-120041472D02*
X243673614Y-120089091D01*
X243625995Y-120136710D01*
X243578376Y-120089091D01*
X243625995Y-120041472D01*
X243625995Y-120136710D01*
X236340281Y-121500996D02*
X236816471Y-121500996D01*
X236245043Y-121786710D02*
X236578376Y-120786710D01*
X236911710Y-121786710D01*
X237245043Y-121120044D02*
X237245043Y-121786710D01*
X237245043Y-121215282D02*
X237292662Y-121167663D01*
X237387900Y-121120044D01*
X237530757Y-121120044D01*
X237625995Y-121167663D01*
X237673614Y-121262901D01*
X237673614Y-121786710D01*
X238006948Y-121120044D02*
X238387900Y-121120044D01*
X238149805Y-120786710D02*
X238149805Y-121643853D01*
X238197424Y-121739091D01*
X238292662Y-121786710D01*
X238387900Y-121786710D01*
X238864091Y-121786710D02*
X238768852Y-121739091D01*
X238721233Y-121691472D01*
X238673614Y-121596234D01*
X238673614Y-121310520D01*
X238721233Y-121215282D01*
X238768852Y-121167663D01*
X238864091Y-121120044D01*
X239006948Y-121120044D01*
X239102186Y-121167663D01*
X239149805Y-121215282D01*
X239197424Y-121310520D01*
X239197424Y-121596234D01*
X239149805Y-121691472D01*
X239102186Y-121739091D01*
X239006948Y-121786710D01*
X238864091Y-121786710D01*
X239625995Y-121786710D02*
X239625995Y-121120044D01*
X239625995Y-120786710D02*
X239578376Y-120834330D01*
X239625995Y-120881949D01*
X239673614Y-120834330D01*
X239625995Y-120786710D01*
X239625995Y-120881949D01*
X240102186Y-121120044D02*
X240102186Y-121786710D01*
X240102186Y-121215282D02*
X240149805Y-121167663D01*
X240245043Y-121120044D01*
X240387900Y-121120044D01*
X240483138Y-121167663D01*
X240530757Y-121262901D01*
X240530757Y-121786710D01*
X241387900Y-121739091D02*
X241292662Y-121786710D01*
X241102186Y-121786710D01*
X241006948Y-121739091D01*
X240959329Y-121643853D01*
X240959329Y-121262901D01*
X241006948Y-121167663D01*
X241102186Y-121120044D01*
X241292662Y-121120044D01*
X241387900Y-121167663D01*
X241435519Y-121262901D01*
X241435519Y-121358139D01*
X240959329Y-121453377D01*
X242959329Y-121262901D02*
X243102186Y-121310520D01*
X243149805Y-121358139D01*
X243197424Y-121453377D01*
X243197424Y-121596234D01*
X243149805Y-121691472D01*
X243102186Y-121739091D01*
X243006948Y-121786710D01*
X242625995Y-121786710D01*
X242625995Y-120786710D01*
X242959329Y-120786710D01*
X243054567Y-120834330D01*
X243102186Y-120881949D01*
X243149805Y-120977187D01*
X243149805Y-121072425D01*
X243102186Y-121167663D01*
X243054567Y-121215282D01*
X242959329Y-121262901D01*
X242625995Y-121262901D01*
X243625995Y-121691472D02*
X243673614Y-121739091D01*
X243625995Y-121786710D01*
X243578376Y-121739091D01*
X243625995Y-121691472D01*
X243625995Y-121786710D01*
X234816471Y-123389091D02*
X234959329Y-123436710D01*
X235197424Y-123436710D01*
X235292662Y-123389091D01*
X235340281Y-123341472D01*
X235387900Y-123246234D01*
X235387900Y-123150996D01*
X235340281Y-123055758D01*
X235292662Y-123008139D01*
X235197424Y-122960520D01*
X235006948Y-122912901D01*
X234911710Y-122865282D01*
X234864091Y-122817663D01*
X234816471Y-122722425D01*
X234816471Y-122627187D01*
X234864091Y-122531949D01*
X234911710Y-122484330D01*
X235006948Y-122436710D01*
X235245043Y-122436710D01*
X235387900Y-122484330D01*
X235673614Y-122770044D02*
X236054567Y-122770044D01*
X235816471Y-122436710D02*
X235816471Y-123293853D01*
X235864091Y-123389091D01*
X235959329Y-123436710D01*
X236054567Y-123436710D01*
X236768852Y-123389091D02*
X236673614Y-123436710D01*
X236483138Y-123436710D01*
X236387900Y-123389091D01*
X236340281Y-123293853D01*
X236340281Y-122912901D01*
X236387900Y-122817663D01*
X236483138Y-122770044D01*
X236673614Y-122770044D01*
X236768852Y-122817663D01*
X236816471Y-122912901D01*
X236816471Y-123008139D01*
X236340281Y-123103377D01*
X236673614Y-122389091D02*
X236530757Y-122531949D01*
X237245043Y-122770044D02*
X237245043Y-123770044D01*
X237245043Y-122817663D02*
X237340281Y-122770044D01*
X237530757Y-122770044D01*
X237625995Y-122817663D01*
X237673614Y-122865282D01*
X237721233Y-122960520D01*
X237721233Y-123246234D01*
X237673614Y-123341472D01*
X237625995Y-123389091D01*
X237530757Y-123436710D01*
X237340281Y-123436710D01*
X237245043Y-123389091D01*
X238149805Y-123436710D02*
X238149805Y-122436710D01*
X238578376Y-123436710D02*
X238578376Y-122912901D01*
X238530757Y-122817663D01*
X238435519Y-122770044D01*
X238292662Y-122770044D01*
X238197424Y-122817663D01*
X238149805Y-122865282D01*
X239483138Y-123436710D02*
X239483138Y-122912901D01*
X239435519Y-122817663D01*
X239340281Y-122770044D01*
X239149805Y-122770044D01*
X239054567Y-122817663D01*
X239483138Y-123389091D02*
X239387900Y-123436710D01*
X239149805Y-123436710D01*
X239054567Y-123389091D01*
X239006948Y-123293853D01*
X239006948Y-123198615D01*
X239054567Y-123103377D01*
X239149805Y-123055758D01*
X239387900Y-123055758D01*
X239483138Y-123008139D01*
X239959329Y-122770044D02*
X239959329Y-123436710D01*
X239959329Y-122865282D02*
X240006948Y-122817663D01*
X240102186Y-122770044D01*
X240245043Y-122770044D01*
X240340281Y-122817663D01*
X240387900Y-122912901D01*
X240387900Y-123436710D01*
X241245043Y-123389091D02*
X241149805Y-123436710D01*
X240959329Y-123436710D01*
X240864091Y-123389091D01*
X240816471Y-123293853D01*
X240816471Y-122912901D01*
X240864091Y-122817663D01*
X240959329Y-122770044D01*
X241149805Y-122770044D01*
X241245043Y-122817663D01*
X241292662Y-122912901D01*
X241292662Y-123008139D01*
X240816471Y-123103377D01*
X242483138Y-123436710D02*
X242483138Y-122436710D01*
X242816471Y-123150996D01*
X243149805Y-122436710D01*
X243149805Y-123436710D01*
X243625995Y-123341472D02*
X243673614Y-123389091D01*
X243625995Y-123436710D01*
X243578376Y-123389091D01*
X243625995Y-123341472D01*
X243625995Y-123436710D01*
X235006948Y-124086710D02*
X235006948Y-124800996D01*
X234959329Y-124943853D01*
X234864091Y-125039091D01*
X234721233Y-125086710D01*
X234625995Y-125086710D01*
X235911710Y-124420044D02*
X235911710Y-125086710D01*
X235483138Y-124420044D02*
X235483138Y-124943853D01*
X235530757Y-125039091D01*
X235625995Y-125086710D01*
X235768852Y-125086710D01*
X235864091Y-125039091D01*
X235911710Y-124991472D01*
X236530757Y-125086710D02*
X236435519Y-125039091D01*
X236387900Y-124943853D01*
X236387900Y-124086710D01*
X236911710Y-125086710D02*
X236911710Y-124420044D01*
X236911710Y-124086710D02*
X236864091Y-124134330D01*
X236911710Y-124181949D01*
X236959329Y-124134330D01*
X236911710Y-124086710D01*
X236911710Y-124181949D01*
X237768852Y-125039091D02*
X237673614Y-125086710D01*
X237483138Y-125086710D01*
X237387900Y-125039091D01*
X237340281Y-124943853D01*
X237340281Y-124562901D01*
X237387900Y-124467663D01*
X237483138Y-124420044D01*
X237673614Y-124420044D01*
X237768852Y-124467663D01*
X237816471Y-124562901D01*
X237816471Y-124658139D01*
X237340281Y-124753377D01*
X238245043Y-124420044D02*
X238245043Y-125086710D01*
X238245043Y-124515282D02*
X238292662Y-124467663D01*
X238387900Y-124420044D01*
X238530757Y-124420044D01*
X238625995Y-124467663D01*
X238673614Y-124562901D01*
X238673614Y-125086710D01*
X240483138Y-124991472D02*
X240435519Y-125039091D01*
X240292662Y-125086710D01*
X240197424Y-125086710D01*
X240054567Y-125039091D01*
X239959329Y-124943853D01*
X239911710Y-124848615D01*
X239864091Y-124658139D01*
X239864091Y-124515282D01*
X239911710Y-124324806D01*
X239959329Y-124229568D01*
X240054567Y-124134330D01*
X240197424Y-124086710D01*
X240292662Y-124086710D01*
X240435519Y-124134330D01*
X240483138Y-124181949D01*
X240911710Y-124991472D02*
X240959329Y-125039091D01*
X240911710Y-125086710D01*
X240864091Y-125039091D01*
X240911710Y-124991472D01*
X240911710Y-125086710D01*
X241387900Y-124705758D02*
X242149805Y-124705758D01*
X243149805Y-124134330D02*
X243054567Y-124086710D01*
X242911710Y-124086710D01*
X242768852Y-124134330D01*
X242673614Y-124229568D01*
X242625995Y-124324806D01*
X242578376Y-124515282D01*
X242578376Y-124658139D01*
X242625995Y-124848615D01*
X242673614Y-124943853D01*
X242768852Y-125039091D01*
X242911710Y-125086710D01*
X243006948Y-125086710D01*
X243149805Y-125039091D01*
X243197424Y-124991472D01*
X243197424Y-124658139D01*
X243006948Y-124658139D01*
X243625995Y-124991472D02*
X243673614Y-125039091D01*
X243625995Y-125086710D01*
X243578376Y-125039091D01*
X243625995Y-124991472D01*
X243625995Y-125086710D01*
D11*
X174540162Y-91087901D02*
X173683019Y-91087901D01*
X174111591Y-91087901D02*
X174111591Y-89587901D01*
X173968733Y-89802187D01*
X173825876Y-89945044D01*
X173683019Y-90016472D01*
X160395686Y-78614187D02*
X161919495Y-78614187D01*
X160395686Y-84710187D02*
X161919495Y-84710187D01*
X161157591Y-85472091D02*
X161157591Y-83948282D01*
D12*
X228848591Y-82789330D02*
X240278591Y-82789330D01*
X240278591Y-80249330D02*
X228848591Y-80249330D01*
X240278591Y-80249330D02*
G75*
G02X240278591Y-82789330I0J-1270000D01*
G01*
X228848591Y-82789330D02*
G75*
G02X228848591Y-80249330I0J1270000D01*
G01*
X240278591Y-108189330D02*
G75*
G02X240278591Y-110729330I0J-1270000D01*
G01*
X228848591Y-110729330D02*
G75*
G02X228848591Y-108189330I0J1270000D01*
G01*
X240278591Y-110729330D02*
X228848591Y-110729330D01*
X228848591Y-108189330D02*
X240278591Y-108189330D01*
X155897876Y-72530044D02*
X155826448Y-72601472D01*
X155612162Y-72672901D01*
X155469305Y-72672901D01*
X155255019Y-72601472D01*
X155112162Y-72458615D01*
X155040733Y-72315758D01*
X154969305Y-72030044D01*
X154969305Y-71815758D01*
X155040733Y-71530044D01*
X155112162Y-71387187D01*
X155255019Y-71244330D01*
X155469305Y-71172901D01*
X155612162Y-71172901D01*
X155826448Y-71244330D01*
X155897876Y-71315758D01*
X156755019Y-72672901D02*
X156612162Y-72601472D01*
X156540733Y-72530044D01*
X156469305Y-72387187D01*
X156469305Y-71958615D01*
X156540733Y-71815758D01*
X156612162Y-71744330D01*
X156755019Y-71672901D01*
X156969305Y-71672901D01*
X157112162Y-71744330D01*
X157183591Y-71815758D01*
X157255019Y-71958615D01*
X157255019Y-72387187D01*
X157183591Y-72530044D01*
X157112162Y-72601472D01*
X156969305Y-72672901D01*
X156755019Y-72672901D01*
X157897876Y-71672901D02*
X157897876Y-72672901D01*
X157897876Y-71815758D02*
X157969305Y-71744330D01*
X158112162Y-71672901D01*
X158326448Y-71672901D01*
X158469305Y-71744330D01*
X158540733Y-71887187D01*
X158540733Y-72672901D01*
X159040733Y-71672901D02*
X159612162Y-71672901D01*
X159255019Y-71172901D02*
X159255019Y-72458615D01*
X159326448Y-72601472D01*
X159469305Y-72672901D01*
X159612162Y-72672901D01*
X160112162Y-72672901D02*
X160112162Y-71672901D01*
X160112162Y-71958615D02*
X160183591Y-71815758D01*
X160255019Y-71744330D01*
X160397876Y-71672901D01*
X160540733Y-71672901D01*
X161255019Y-72672901D02*
X161112162Y-72601472D01*
X161040733Y-72530044D01*
X160969305Y-72387187D01*
X160969305Y-71958615D01*
X161040733Y-71815758D01*
X161112162Y-71744330D01*
X161255019Y-71672901D01*
X161469305Y-71672901D01*
X161612162Y-71744330D01*
X161683591Y-71815758D01*
X161755019Y-71958615D01*
X161755019Y-72387187D01*
X161683591Y-72530044D01*
X161612162Y-72601472D01*
X161469305Y-72672901D01*
X161255019Y-72672901D01*
X162612162Y-72672901D02*
X162469305Y-72601472D01*
X162397876Y-72458615D01*
X162397876Y-71172901D01*
X164826448Y-71887187D02*
X165040733Y-71958615D01*
X165112162Y-72030044D01*
X165183591Y-72172901D01*
X165183591Y-72387187D01*
X165112162Y-72530044D01*
X165040733Y-72601472D01*
X164897876Y-72672901D01*
X164326448Y-72672901D01*
X164326448Y-71172901D01*
X164826448Y-71172901D01*
X164969305Y-71244330D01*
X165040733Y-71315758D01*
X165112162Y-71458615D01*
X165112162Y-71601472D01*
X165040733Y-71744330D01*
X164969305Y-71815758D01*
X164826448Y-71887187D01*
X164326448Y-71887187D01*
X166040733Y-72672901D02*
X165897876Y-72601472D01*
X165826448Y-72530044D01*
X165755019Y-72387187D01*
X165755019Y-71958615D01*
X165826448Y-71815758D01*
X165897876Y-71744330D01*
X166040733Y-71672901D01*
X166255019Y-71672901D01*
X166397876Y-71744330D01*
X166469305Y-71815758D01*
X166540733Y-71958615D01*
X166540733Y-72387187D01*
X166469305Y-72530044D01*
X166397876Y-72601472D01*
X166255019Y-72672901D01*
X166040733Y-72672901D01*
X167826448Y-72672901D02*
X167826448Y-71887187D01*
X167755019Y-71744330D01*
X167612162Y-71672901D01*
X167326448Y-71672901D01*
X167183591Y-71744330D01*
X167826448Y-72601472D02*
X167683591Y-72672901D01*
X167326448Y-72672901D01*
X167183591Y-72601472D01*
X167112162Y-72458615D01*
X167112162Y-72315758D01*
X167183591Y-72172901D01*
X167326448Y-72101472D01*
X167683591Y-72101472D01*
X167826448Y-72030044D01*
X168540733Y-72672901D02*
X168540733Y-71672901D01*
X168540733Y-71958615D02*
X168612162Y-71815758D01*
X168683591Y-71744330D01*
X168826448Y-71672901D01*
X168969305Y-71672901D01*
X170112162Y-72672901D02*
X170112162Y-71172901D01*
X170112162Y-72601472D02*
X169969305Y-72672901D01*
X169683591Y-72672901D01*
X169540733Y-72601472D01*
X169469305Y-72530044D01*
X169397876Y-72387187D01*
X169397876Y-71958615D01*
X169469305Y-71815758D01*
X169540733Y-71744330D01*
X169683591Y-71672901D01*
X169969305Y-71672901D01*
X170112162Y-71744330D01*
D13*
X154957876Y-69541472D02*
X154957876Y-66541472D01*
X155672162Y-66541472D01*
X156100733Y-66684330D01*
X156386448Y-66970044D01*
X156529305Y-67255758D01*
X156672162Y-67827187D01*
X156672162Y-68255758D01*
X156529305Y-68827187D01*
X156386448Y-69112901D01*
X156100733Y-69398615D01*
X155672162Y-69541472D01*
X154957876Y-69541472D01*
X159100733Y-69398615D02*
X158815019Y-69541472D01*
X158243591Y-69541472D01*
X157957876Y-69398615D01*
X157815019Y-69112901D01*
X157815019Y-67970044D01*
X157957876Y-67684330D01*
X158243591Y-67541472D01*
X158815019Y-67541472D01*
X159100733Y-67684330D01*
X159243591Y-67970044D01*
X159243591Y-68255758D01*
X157815019Y-68541472D01*
X160529305Y-69541472D02*
X160529305Y-67541472D01*
X160529305Y-67827187D02*
X160672162Y-67684330D01*
X160957876Y-67541472D01*
X161386448Y-67541472D01*
X161672162Y-67684330D01*
X161815019Y-67970044D01*
X161815019Y-69541472D01*
X161815019Y-67970044D02*
X161957876Y-67684330D01*
X162243591Y-67541472D01*
X162672162Y-67541472D01*
X162957876Y-67684330D01*
X163100733Y-67970044D01*
X163100733Y-69541472D01*
X164957876Y-69541472D02*
X164672162Y-69398615D01*
X164529305Y-69255758D01*
X164386448Y-68970044D01*
X164386448Y-68112901D01*
X164529305Y-67827187D01*
X164672162Y-67684330D01*
X164957876Y-67541472D01*
X165386448Y-67541472D01*
X165672162Y-67684330D01*
X165815019Y-67827187D01*
X165957876Y-68112901D01*
X165957876Y-68970044D01*
X165815019Y-69255758D01*
X165672162Y-69398615D01*
X165386448Y-69541472D01*
X164957876Y-69541472D01*
X167243591Y-69541472D02*
X167243591Y-66541472D01*
X168957876Y-69541472D01*
X168957876Y-66541472D01*
X170386448Y-69541472D02*
X170386448Y-67541472D01*
X170386448Y-66541472D02*
X170243591Y-66684330D01*
X170386448Y-66827187D01*
X170529305Y-66684330D01*
X170386448Y-66541472D01*
X170386448Y-66827187D01*
X171529305Y-69541472D02*
X173100733Y-67541472D01*
X171529305Y-67541472D02*
X173100733Y-69541472D01*
X174243591Y-69541472D02*
X174243591Y-67541472D01*
X174243591Y-66541472D02*
X174100733Y-66684330D01*
X174243591Y-66827187D01*
X174386448Y-66684330D01*
X174243591Y-66541472D01*
X174243591Y-66827187D01*
X176815019Y-69398615D02*
X176529305Y-69541472D01*
X175957876Y-69541472D01*
X175672162Y-69398615D01*
X175529305Y-69112901D01*
X175529305Y-67970044D01*
X175672162Y-67684330D01*
X175957876Y-67541472D01*
X176529305Y-67541472D01*
X176815019Y-67684330D01*
X176957876Y-67970044D01*
X176957876Y-68255758D01*
X175529305Y-68541472D01*
D12*
X187062876Y-70859330D02*
X186967638Y-70811710D01*
X186824781Y-70811710D01*
X186681924Y-70859330D01*
X186586686Y-70954568D01*
X186539067Y-71049806D01*
X186491448Y-71240282D01*
X186491448Y-71383139D01*
X186539067Y-71573615D01*
X186586686Y-71668853D01*
X186681924Y-71764091D01*
X186824781Y-71811710D01*
X186920019Y-71811710D01*
X187062876Y-71764091D01*
X187110495Y-71716472D01*
X187110495Y-71383139D01*
X186920019Y-71383139D01*
X187539067Y-71811710D02*
X187539067Y-70811710D01*
X188110495Y-71811710D01*
X188110495Y-70811710D01*
X188586686Y-71811710D02*
X188586686Y-70811710D01*
X188824781Y-70811710D01*
X188967638Y-70859330D01*
X189062876Y-70954568D01*
X189110495Y-71049806D01*
X189158114Y-71240282D01*
X189158114Y-71383139D01*
X189110495Y-71573615D01*
X189062876Y-71668853D01*
X188967638Y-71764091D01*
X188824781Y-71811710D01*
X188586686Y-71811710D01*
X238503495Y-111499330D02*
X238408257Y-111451710D01*
X238265400Y-111451710D01*
X238122543Y-111499330D01*
X238027305Y-111594568D01*
X237979686Y-111689806D01*
X237932067Y-111880282D01*
X237932067Y-112023139D01*
X237979686Y-112213615D01*
X238027305Y-112308853D01*
X238122543Y-112404091D01*
X238265400Y-112451710D01*
X238360638Y-112451710D01*
X238503495Y-112404091D01*
X238551114Y-112356472D01*
X238551114Y-112023139D01*
X238360638Y-112023139D01*
X238979686Y-112451710D02*
X238979686Y-111451710D01*
X239551114Y-112451710D01*
X239551114Y-111451710D01*
X240027305Y-112451710D02*
X240027305Y-111451710D01*
X240265400Y-111451710D01*
X240408257Y-111499330D01*
X240503495Y-111594568D01*
X240551114Y-111689806D01*
X240598733Y-111880282D01*
X240598733Y-112023139D01*
X240551114Y-112213615D01*
X240503495Y-112308853D01*
X240408257Y-112404091D01*
X240265400Y-112451710D01*
X240027305Y-112451710D01*
X236201686Y-79050758D02*
X236963591Y-79050758D01*
X236582638Y-79431710D02*
X236582638Y-78669806D01*
X237344543Y-78431710D02*
X237963591Y-78431710D01*
X237630257Y-78812663D01*
X237773114Y-78812663D01*
X237868352Y-78860282D01*
X237915971Y-78907901D01*
X237963591Y-79003139D01*
X237963591Y-79241234D01*
X237915971Y-79336472D01*
X237868352Y-79384091D01*
X237773114Y-79431710D01*
X237487400Y-79431710D01*
X237392162Y-79384091D01*
X237344543Y-79336472D01*
X238392162Y-79336472D02*
X238439781Y-79384091D01*
X238392162Y-79431710D01*
X238344543Y-79384091D01*
X238392162Y-79336472D01*
X238392162Y-79431710D01*
X238773114Y-78431710D02*
X239392162Y-78431710D01*
X239058829Y-78812663D01*
X239201686Y-78812663D01*
X239296924Y-78860282D01*
X239344543Y-78907901D01*
X239392162Y-79003139D01*
X239392162Y-79241234D01*
X239344543Y-79336472D01*
X239296924Y-79384091D01*
X239201686Y-79431710D01*
X238915971Y-79431710D01*
X238820733Y-79384091D01*
X238773114Y-79336472D01*
X239677876Y-78431710D02*
X240011210Y-79431710D01*
X240344543Y-78431710D01*
X227200495Y-70859330D02*
X227105257Y-70811710D01*
X226962400Y-70811710D01*
X226819543Y-70859330D01*
X226724305Y-70954568D01*
X226676686Y-71049806D01*
X226629067Y-71240282D01*
X226629067Y-71383139D01*
X226676686Y-71573615D01*
X226724305Y-71668853D01*
X226819543Y-71764091D01*
X226962400Y-71811710D01*
X227057638Y-71811710D01*
X227200495Y-71764091D01*
X227248114Y-71716472D01*
X227248114Y-71383139D01*
X227057638Y-71383139D01*
X227676686Y-71811710D02*
X227676686Y-70811710D01*
X228248114Y-71811710D01*
X228248114Y-70811710D01*
X228724305Y-71811710D02*
X228724305Y-70811710D01*
X228962400Y-70811710D01*
X229105257Y-70859330D01*
X229200495Y-70954568D01*
X229248114Y-71049806D01*
X229295733Y-71240282D01*
X229295733Y-71383139D01*
X229248114Y-71573615D01*
X229200495Y-71668853D01*
X229105257Y-71764091D01*
X228962400Y-71811710D01*
X228724305Y-71811710D01*
X226676686Y-73970758D02*
X227438591Y-73970758D01*
X227057638Y-74351710D02*
X227057638Y-73589806D01*
X227819543Y-73351710D02*
X228438591Y-73351710D01*
X228105257Y-73732663D01*
X228248114Y-73732663D01*
X228343352Y-73780282D01*
X228390971Y-73827901D01*
X228438591Y-73923139D01*
X228438591Y-74161234D01*
X228390971Y-74256472D01*
X228343352Y-74304091D01*
X228248114Y-74351710D01*
X227962400Y-74351710D01*
X227867162Y-74304091D01*
X227819543Y-74256472D01*
X228867162Y-74256472D02*
X228914781Y-74304091D01*
X228867162Y-74351710D01*
X228819543Y-74304091D01*
X228867162Y-74256472D01*
X228867162Y-74351710D01*
X229248114Y-73351710D02*
X229867162Y-73351710D01*
X229533829Y-73732663D01*
X229676686Y-73732663D01*
X229771924Y-73780282D01*
X229819543Y-73827901D01*
X229867162Y-73923139D01*
X229867162Y-74161234D01*
X229819543Y-74256472D01*
X229771924Y-74304091D01*
X229676686Y-74351710D01*
X229390971Y-74351710D01*
X229295733Y-74304091D01*
X229248114Y-74256472D01*
X230152876Y-73351710D02*
X230486210Y-74351710D01*
X230819543Y-73351710D01*
X226676686Y-122230758D02*
X227438591Y-122230758D01*
X227057638Y-122611710D02*
X227057638Y-121849806D01*
X227819543Y-121611710D02*
X228438591Y-121611710D01*
X228105257Y-121992663D01*
X228248114Y-121992663D01*
X228343352Y-122040282D01*
X228390971Y-122087901D01*
X228438591Y-122183139D01*
X228438591Y-122421234D01*
X228390971Y-122516472D01*
X228343352Y-122564091D01*
X228248114Y-122611710D01*
X227962400Y-122611710D01*
X227867162Y-122564091D01*
X227819543Y-122516472D01*
X228867162Y-122516472D02*
X228914781Y-122564091D01*
X228867162Y-122611710D01*
X228819543Y-122564091D01*
X228867162Y-122516472D01*
X228867162Y-122611710D01*
X229248114Y-121611710D02*
X229867162Y-121611710D01*
X229533829Y-121992663D01*
X229676686Y-121992663D01*
X229771924Y-122040282D01*
X229819543Y-122087901D01*
X229867162Y-122183139D01*
X229867162Y-122421234D01*
X229819543Y-122516472D01*
X229771924Y-122564091D01*
X229676686Y-122611710D01*
X229390971Y-122611710D01*
X229295733Y-122564091D01*
X229248114Y-122516472D01*
X230152876Y-121611710D02*
X230486210Y-122611710D01*
X230819543Y-121611710D01*
X187443876Y-119119330D02*
X187348638Y-119071710D01*
X187205781Y-119071710D01*
X187062924Y-119119330D01*
X186967686Y-119214568D01*
X186920067Y-119309806D01*
X186872448Y-119500282D01*
X186872448Y-119643139D01*
X186920067Y-119833615D01*
X186967686Y-119928853D01*
X187062924Y-120024091D01*
X187205781Y-120071710D01*
X187301019Y-120071710D01*
X187443876Y-120024091D01*
X187491495Y-119976472D01*
X187491495Y-119643139D01*
X187301019Y-119643139D01*
X187920067Y-120071710D02*
X187920067Y-119071710D01*
X188491495Y-120071710D01*
X188491495Y-119071710D01*
X188967686Y-120071710D02*
X188967686Y-119071710D01*
X189205781Y-119071710D01*
X189348638Y-119119330D01*
X189443876Y-119214568D01*
X189491495Y-119309806D01*
X189539114Y-119500282D01*
X189539114Y-119643139D01*
X189491495Y-119833615D01*
X189443876Y-119928853D01*
X189348638Y-120024091D01*
X189205781Y-120071710D01*
X188967686Y-120071710D01*
X227200495Y-119119330D02*
X227105257Y-119071710D01*
X226962400Y-119071710D01*
X226819543Y-119119330D01*
X226724305Y-119214568D01*
X226676686Y-119309806D01*
X226629067Y-119500282D01*
X226629067Y-119643139D01*
X226676686Y-119833615D01*
X226724305Y-119928853D01*
X226819543Y-120024091D01*
X226962400Y-120071710D01*
X227057638Y-120071710D01*
X227200495Y-120024091D01*
X227248114Y-119976472D01*
X227248114Y-119643139D01*
X227057638Y-119643139D01*
X227676686Y-120071710D02*
X227676686Y-119071710D01*
X228248114Y-120071710D01*
X228248114Y-119071710D01*
X228724305Y-120071710D02*
X228724305Y-119071710D01*
X228962400Y-119071710D01*
X229105257Y-119119330D01*
X229200495Y-119214568D01*
X229248114Y-119309806D01*
X229295733Y-119500282D01*
X229295733Y-119643139D01*
X229248114Y-119833615D01*
X229200495Y-119928853D01*
X229105257Y-120024091D01*
X228962400Y-120071710D01*
X228724305Y-120071710D01*
X187491495Y-97164091D02*
X187634352Y-97211710D01*
X187872448Y-97211710D01*
X187967686Y-97164091D01*
X188015305Y-97116472D01*
X188062924Y-97021234D01*
X188062924Y-96925996D01*
X188015305Y-96830758D01*
X187967686Y-96783139D01*
X187872448Y-96735520D01*
X187681971Y-96687901D01*
X187586733Y-96640282D01*
X187539114Y-96592663D01*
X187491495Y-96497425D01*
X187491495Y-96402187D01*
X187539114Y-96306949D01*
X187586733Y-96259330D01*
X187681971Y-96211710D01*
X187920067Y-96211710D01*
X188062924Y-96259330D01*
X188491495Y-97211710D02*
X188491495Y-96211710D01*
X188729591Y-96211710D01*
X188872448Y-96259330D01*
X188967686Y-96354568D01*
X189015305Y-96449806D01*
X189062924Y-96640282D01*
X189062924Y-96783139D01*
X189015305Y-96973615D01*
X188967686Y-97068853D01*
X188872448Y-97164091D01*
X188729591Y-97211710D01*
X188491495Y-97211710D01*
X189491495Y-97211710D02*
X189491495Y-96211710D01*
X186062924Y-114944091D02*
X186205781Y-114991710D01*
X186443876Y-114991710D01*
X186539114Y-114944091D01*
X186586733Y-114896472D01*
X186634352Y-114801234D01*
X186634352Y-114705996D01*
X186586733Y-114610758D01*
X186539114Y-114563139D01*
X186443876Y-114515520D01*
X186253400Y-114467901D01*
X186158162Y-114420282D01*
X186110543Y-114372663D01*
X186062924Y-114277425D01*
X186062924Y-114182187D01*
X186110543Y-114086949D01*
X186158162Y-114039330D01*
X186253400Y-113991710D01*
X186491495Y-113991710D01*
X186634352Y-114039330D01*
X187253400Y-114515520D02*
X187253400Y-114991710D01*
X186920067Y-113991710D02*
X187253400Y-114515520D01*
X187586733Y-113991710D01*
X187920067Y-114991710D02*
X187920067Y-113991710D01*
X188491495Y-114991710D01*
X188491495Y-113991710D01*
X189539114Y-114896472D02*
X189491495Y-114944091D01*
X189348638Y-114991710D01*
X189253400Y-114991710D01*
X189110543Y-114944091D01*
X189015305Y-114848853D01*
X188967686Y-114753615D01*
X188920067Y-114563139D01*
X188920067Y-114420282D01*
X188967686Y-114229806D01*
X189015305Y-114134568D01*
X189110543Y-114039330D01*
X189253400Y-113991710D01*
X189348638Y-113991710D01*
X189491495Y-114039330D01*
X189539114Y-114086949D01*
X184681971Y-112451710D02*
X184681971Y-111451710D01*
X185062924Y-111451710D01*
X185158162Y-111499330D01*
X185205781Y-111546949D01*
X185253400Y-111642187D01*
X185253400Y-111785044D01*
X185205781Y-111880282D01*
X185158162Y-111927901D01*
X185062924Y-111975520D01*
X184681971Y-111975520D01*
X185586733Y-111451710D02*
X185824829Y-112451710D01*
X186015305Y-111737425D01*
X186205781Y-112451710D01*
X186443876Y-111451710D01*
X186824829Y-112451710D02*
X186824829Y-111451710D01*
X187158162Y-112165996D01*
X187491495Y-111451710D01*
X187491495Y-112451710D01*
X188539114Y-112356472D02*
X188491495Y-112404091D01*
X188348638Y-112451710D01*
X188253400Y-112451710D01*
X188110543Y-112404091D01*
X188015305Y-112308853D01*
X187967686Y-112213615D01*
X187920067Y-112023139D01*
X187920067Y-111880282D01*
X187967686Y-111689806D01*
X188015305Y-111594568D01*
X188110543Y-111499330D01*
X188253400Y-111451710D01*
X188348638Y-111451710D01*
X188491495Y-111499330D01*
X188539114Y-111546949D01*
X188967686Y-112451710D02*
X188967686Y-111451710D01*
X189539114Y-112451710D02*
X189110543Y-111880282D01*
X189539114Y-111451710D02*
X188967686Y-112023139D01*
X187586733Y-109911710D02*
X187110543Y-109911710D01*
X187110543Y-108911710D01*
X187920067Y-109911710D02*
X187920067Y-108911710D01*
X188158162Y-108911710D01*
X188301019Y-108959330D01*
X188396257Y-109054568D01*
X188443876Y-109149806D01*
X188491495Y-109340282D01*
X188491495Y-109483139D01*
X188443876Y-109673615D01*
X188396257Y-109768853D01*
X188301019Y-109864091D01*
X188158162Y-109911710D01*
X187920067Y-109911710D01*
X189110543Y-108911710D02*
X189301019Y-108911710D01*
X189396257Y-108959330D01*
X189491495Y-109054568D01*
X189539114Y-109245044D01*
X189539114Y-109578377D01*
X189491495Y-109768853D01*
X189396257Y-109864091D01*
X189301019Y-109911710D01*
X189110543Y-109911710D01*
X189015305Y-109864091D01*
X188920067Y-109768853D01*
X188872448Y-109578377D01*
X188872448Y-109245044D01*
X188920067Y-109054568D01*
X189015305Y-108959330D01*
X189110543Y-108911710D01*
X185920067Y-107324091D02*
X186062924Y-107371710D01*
X186301019Y-107371710D01*
X186396257Y-107324091D01*
X186443876Y-107276472D01*
X186491495Y-107181234D01*
X186491495Y-107085996D01*
X186443876Y-106990758D01*
X186396257Y-106943139D01*
X186301019Y-106895520D01*
X186110543Y-106847901D01*
X186015305Y-106800282D01*
X185967686Y-106752663D01*
X185920067Y-106657425D01*
X185920067Y-106562187D01*
X185967686Y-106466949D01*
X186015305Y-106419330D01*
X186110543Y-106371710D01*
X186348638Y-106371710D01*
X186491495Y-106419330D01*
X187491495Y-107276472D02*
X187443876Y-107324091D01*
X187301019Y-107371710D01*
X187205781Y-107371710D01*
X187062924Y-107324091D01*
X186967686Y-107228853D01*
X186920067Y-107133615D01*
X186872448Y-106943139D01*
X186872448Y-106800282D01*
X186920067Y-106609806D01*
X186967686Y-106514568D01*
X187062924Y-106419330D01*
X187205781Y-106371710D01*
X187301019Y-106371710D01*
X187443876Y-106419330D01*
X187491495Y-106466949D01*
X187920067Y-107371710D02*
X187920067Y-106371710D01*
X188491495Y-107371710D02*
X188062924Y-106800282D01*
X188491495Y-106371710D02*
X187920067Y-106943139D01*
X189110543Y-106371710D02*
X189301019Y-106371710D01*
X189396257Y-106419330D01*
X189491495Y-106514568D01*
X189539114Y-106705044D01*
X189539114Y-107038377D01*
X189491495Y-107228853D01*
X189396257Y-107324091D01*
X189301019Y-107371710D01*
X189110543Y-107371710D01*
X189015305Y-107324091D01*
X188920067Y-107228853D01*
X188872448Y-107038377D01*
X188872448Y-106705044D01*
X188920067Y-106514568D01*
X189015305Y-106419330D01*
X189110543Y-106371710D01*
X187174067Y-104784091D02*
X187316924Y-104831710D01*
X187555019Y-104831710D01*
X187650257Y-104784091D01*
X187697876Y-104736472D01*
X187745495Y-104641234D01*
X187745495Y-104545996D01*
X187697876Y-104450758D01*
X187650257Y-104403139D01*
X187555019Y-104355520D01*
X187364543Y-104307901D01*
X187269305Y-104260282D01*
X187221686Y-104212663D01*
X187174067Y-104117425D01*
X187174067Y-104022187D01*
X187221686Y-103926949D01*
X187269305Y-103879330D01*
X187364543Y-103831710D01*
X187602638Y-103831710D01*
X187745495Y-103879330D01*
X188174067Y-104831710D02*
X188174067Y-103831710D01*
X188412162Y-103831710D01*
X188555019Y-103879330D01*
X188650257Y-103974568D01*
X188697876Y-104069806D01*
X188745495Y-104260282D01*
X188745495Y-104403139D01*
X188697876Y-104593615D01*
X188650257Y-104688853D01*
X188555019Y-104784091D01*
X188412162Y-104831710D01*
X188174067Y-104831710D01*
X189364543Y-103831710D02*
X189555019Y-103831710D01*
X189650257Y-103879330D01*
X189745495Y-103974568D01*
X189793114Y-104165044D01*
X189793114Y-104498377D01*
X189745495Y-104688853D01*
X189650257Y-104784091D01*
X189555019Y-104831710D01*
X189364543Y-104831710D01*
X189269305Y-104784091D01*
X189174067Y-104688853D01*
X189126448Y-104498377D01*
X189126448Y-104165044D01*
X189174067Y-103974568D01*
X189269305Y-103879330D01*
X189364543Y-103831710D01*
X188158162Y-102291710D02*
X187681971Y-102291710D01*
X187681971Y-101291710D01*
X188491495Y-102291710D02*
X188491495Y-101291710D01*
X188729591Y-101291710D01*
X188872448Y-101339330D01*
X188967686Y-101434568D01*
X189015305Y-101529806D01*
X189062924Y-101720282D01*
X189062924Y-101863139D01*
X189015305Y-102053615D01*
X188967686Y-102148853D01*
X188872448Y-102244091D01*
X188729591Y-102291710D01*
X188491495Y-102291710D01*
X189491495Y-102291710D02*
X189491495Y-101291710D01*
X186491495Y-99704091D02*
X186634352Y-99751710D01*
X186872448Y-99751710D01*
X186967686Y-99704091D01*
X187015305Y-99656472D01*
X187062924Y-99561234D01*
X187062924Y-99465996D01*
X187015305Y-99370758D01*
X186967686Y-99323139D01*
X186872448Y-99275520D01*
X186681971Y-99227901D01*
X186586733Y-99180282D01*
X186539114Y-99132663D01*
X186491495Y-99037425D01*
X186491495Y-98942187D01*
X186539114Y-98846949D01*
X186586733Y-98799330D01*
X186681971Y-98751710D01*
X186920067Y-98751710D01*
X187062924Y-98799330D01*
X188062924Y-99656472D02*
X188015305Y-99704091D01*
X187872448Y-99751710D01*
X187777210Y-99751710D01*
X187634352Y-99704091D01*
X187539114Y-99608853D01*
X187491495Y-99513615D01*
X187443876Y-99323139D01*
X187443876Y-99180282D01*
X187491495Y-98989806D01*
X187539114Y-98894568D01*
X187634352Y-98799330D01*
X187777210Y-98751710D01*
X187872448Y-98751710D01*
X188015305Y-98799330D01*
X188062924Y-98846949D01*
X188491495Y-99751710D02*
X188491495Y-98751710D01*
X189062924Y-99751710D02*
X188634352Y-99180282D01*
X189062924Y-98751710D02*
X188491495Y-99323139D01*
X189491495Y-99751710D02*
X189491495Y-98751710D01*
D11*
X151807591Y-94580472D02*
X152950448Y-94580472D01*
X152379019Y-95151901D02*
X152379019Y-94009044D01*
X153521876Y-93651901D02*
X154450448Y-93651901D01*
X153950448Y-94223330D01*
X154164733Y-94223330D01*
X154307591Y-94294758D01*
X154379019Y-94366187D01*
X154450448Y-94509044D01*
X154450448Y-94866187D01*
X154379019Y-95009044D01*
X154307591Y-95080472D01*
X154164733Y-95151901D01*
X153736162Y-95151901D01*
X153593305Y-95080472D01*
X153521876Y-95009044D01*
X155093305Y-95009044D02*
X155164733Y-95080472D01*
X155093305Y-95151901D01*
X155021876Y-95080472D01*
X155093305Y-95009044D01*
X155093305Y-95151901D01*
X155664733Y-93651901D02*
X156593305Y-93651901D01*
X156093305Y-94223330D01*
X156307591Y-94223330D01*
X156450448Y-94294758D01*
X156521876Y-94366187D01*
X156593305Y-94509044D01*
X156593305Y-94866187D01*
X156521876Y-95009044D01*
X156450448Y-95080472D01*
X156307591Y-95151901D01*
X155879019Y-95151901D01*
X155736162Y-95080472D01*
X155664733Y-95009044D01*
X157021876Y-93651901D02*
X157521876Y-95151901D01*
X158021876Y-93651901D01*
D10*
X143885591Y-64755330D02*
X244469591Y-64755330D01*
X143885591Y-131557330D02*
X143885591Y-64755330D01*
X244469591Y-131557330D02*
X143885591Y-131557330D01*
X244469591Y-64755330D02*
X244469591Y-131557330D01*
D11*
X159657733Y-90516472D02*
X160800591Y-90516472D01*
X160229162Y-91087901D02*
X160229162Y-89945044D01*
X162300591Y-91087901D02*
X161443448Y-91087901D01*
X161872019Y-91087901D02*
X161872019Y-89587901D01*
X161729162Y-89802187D01*
X161586305Y-89945044D01*
X161443448Y-90016472D01*
X163657733Y-89587901D02*
X162943448Y-89587901D01*
X162872019Y-90302187D01*
X162943448Y-90230758D01*
X163086305Y-90159330D01*
X163443448Y-90159330D01*
X163586305Y-90230758D01*
X163657733Y-90302187D01*
X163729162Y-90445044D01*
X163729162Y-90802187D01*
X163657733Y-90945044D01*
X163586305Y-91016472D01*
X163443448Y-91087901D01*
X163086305Y-91087901D01*
X162943448Y-91016472D01*
X162872019Y-90945044D01*
X164157733Y-89587901D02*
X164657733Y-91087901D01*
X165157733Y-89587901D01*
D14*
G04 #@! TO.C,C1*
X166405341Y-120543580D02*
X166405341Y-119756080D01*
X166799091Y-120149830D02*
X166011591Y-120149830D01*
X165771591Y-115956767D02*
X164707154Y-114892330D01*
X165771591Y-120647893D02*
X164707154Y-121712330D01*
X165771591Y-120647893D02*
X165771591Y-119362330D01*
X165771591Y-115956767D02*
X165771591Y-117242330D01*
X164707154Y-114892330D02*
X158951591Y-114892330D01*
X164707154Y-121712330D02*
X158951591Y-121712330D01*
X158951591Y-121712330D02*
X158951591Y-119362330D01*
X158951591Y-114892330D02*
X158951591Y-117242330D01*
G04 #@! TO.C,C2*
X163280858Y-111569330D02*
X162938324Y-111569330D01*
X163280858Y-112589330D02*
X162938324Y-112589330D01*
G04 #@! TO.C,C3*
X158714324Y-105426330D02*
X159056858Y-105426330D01*
X158714324Y-106446330D02*
X159056858Y-106446330D01*
G04 #@! TO.C,C5*
X154274591Y-123283330D02*
X154274591Y-120933330D01*
X154274591Y-116463330D02*
X154274591Y-118813330D01*
X148519028Y-116463330D02*
X154274591Y-116463330D01*
X148519028Y-123283330D02*
X154274591Y-123283330D01*
X147454591Y-122218893D02*
X147454591Y-120933330D01*
X147454591Y-117527767D02*
X147454591Y-118813330D01*
X147454591Y-117527767D02*
X148519028Y-116463330D01*
X147454591Y-122218893D02*
X148519028Y-123283330D01*
X146427091Y-118025830D02*
X147214591Y-118025830D01*
X146820841Y-117632080D02*
X146820841Y-118419580D01*
G04 #@! TO.C,J35*
X174422000Y-91674000D02*
X181422000Y-91674000D01*
X181422000Y-91674000D02*
X181422000Y-124774000D01*
X181422000Y-124774000D02*
X173122000Y-124774000D01*
X173122000Y-124774000D02*
X173122000Y-92974000D01*
D13*
G04 #@! TO.C,L1*
X155823591Y-107968330D02*
X155823591Y-113175330D01*
X148861591Y-107968330D02*
X148861591Y-113175330D01*
X155823591Y-113175330D02*
G75*
G02X154553591Y-114445330I-1270000J0D01*
G01*
X150131591Y-114445330D02*
G75*
G02X148861591Y-113175330I0J1270000D01*
G01*
X148861591Y-107991330D02*
G75*
G02X150108591Y-106698330I1270000J23000D01*
G01*
X154553591Y-106698330D02*
G75*
G02X155823591Y-107968330I0J-1270000D01*
G01*
D14*
G04 #@! TO.C,R1*
X166687324Y-105647330D02*
X167029858Y-105647330D01*
X166687324Y-106667330D02*
X167029858Y-106667330D01*
G04 #@! TO.C,R2*
X167020591Y-101654766D02*
X167020591Y-102858894D01*
X165200591Y-101654766D02*
X165200591Y-102858894D01*
G04 #@! TO.C,TP1*
X169007591Y-90409330D02*
G75*
G03X169007591Y-90409330I-1500000J0D01*
G01*
G04 #@! TO.C,TP2*
X150973591Y-94473330D02*
G75*
G03X150973591Y-94473330I-1500000J0D01*
G01*
G04 #@! TO.C,U1*
X193796591Y-131049330D02*
X221736591Y-131049330D01*
X221736591Y-131049330D02*
X221736591Y-65009330D01*
X221736591Y-65009330D02*
X193796591Y-65009330D01*
X193796591Y-65009330D02*
X193796591Y-131049330D01*
X197860591Y-69835330D02*
X194812591Y-69835330D01*
X194812591Y-70343330D02*
X194812591Y-123175330D01*
X194812591Y-123683330D02*
X197860591Y-123683330D01*
X197860591Y-123175330D02*
X197860591Y-70343330D01*
X217672591Y-70343330D02*
X217672591Y-123175330D01*
X217672591Y-123683330D02*
X220720591Y-123683330D01*
X220720591Y-123175330D02*
X220720591Y-70343330D01*
X220720591Y-69835330D02*
X217672591Y-69835330D01*
X197860591Y-123175330D02*
X197860591Y-123683330D01*
X194812591Y-123175330D02*
X194812591Y-123683330D01*
X194812591Y-69835330D02*
X194812591Y-70343330D01*
X197860591Y-69835330D02*
X197860591Y-70343330D01*
X217672591Y-123175330D02*
X217672591Y-123683330D01*
X220720591Y-123175330D02*
X220720591Y-123683330D01*
X217672591Y-70343330D02*
X217672591Y-69835330D01*
X220720591Y-69835330D02*
X220720591Y-70343330D01*
X202432591Y-72121330D02*
X200400591Y-76185330D01*
X202432590Y-72121331D02*
G75*
G02X200400592Y-76185329I-1015999J-2031999D01*
G01*
X203956591Y-76185330D02*
X205480591Y-72121330D01*
X205480591Y-72121330D02*
X207004591Y-72629330D01*
X204972591Y-73645330D02*
X206496591Y-74153330D01*
X203956591Y-76185330D02*
X205480591Y-76693330D01*
X207004591Y-76185330D02*
X208528591Y-72121330D01*
X208528591Y-72121330D02*
X209036591Y-74153330D01*
X209036591Y-74153330D02*
X210560591Y-72629330D01*
X210560591Y-72629330D02*
X209544591Y-76693330D01*
X215372436Y-74661330D02*
G75*
G03X215372436Y-74661330I-2271845J0D01*
G01*
X200400591Y-83297330D02*
X201924591Y-79233330D01*
X201924591Y-79233330D02*
X202432591Y-83297330D01*
X202432591Y-83297330D02*
X203448591Y-79741330D01*
X205480591Y-79741330D02*
X204464591Y-83297330D01*
X207004591Y-83297330D02*
X209544591Y-79233330D01*
X208020591Y-79233330D02*
X208528591Y-83297330D01*
X205988591Y-79233330D02*
G75*
G03X205988591Y-79233330I-254000J0D01*
G01*
X210560591Y-83297330D02*
X211576591Y-79741330D01*
X212084591Y-79233330D02*
G75*
G03X212084591Y-79233330I-254000J0D01*
G01*
X212338591Y-83551330D02*
X213862591Y-79487330D01*
X213862591Y-79487330D02*
X215386591Y-79995330D01*
X212338591Y-83551330D02*
X213862591Y-84059330D01*
X213354591Y-81011330D02*
X214878591Y-81519330D01*
G04 #@! TO.C,U2*
X164352591Y-108280330D02*
X164352591Y-106480330D01*
X161132591Y-106480330D02*
X161132591Y-109430330D01*
G04 #@! TO.C,C4*
X155550591Y-104901330D02*
X155550591Y-102551330D01*
X155550591Y-98081330D02*
X155550591Y-100431330D01*
X149795028Y-98081330D02*
X155550591Y-98081330D01*
X149795028Y-104901330D02*
X155550591Y-104901330D01*
X148730591Y-103836893D02*
X148730591Y-102551330D01*
X148730591Y-99145767D02*
X148730591Y-100431330D01*
X148730591Y-99145767D02*
X149795028Y-98081330D01*
X148730591Y-103836893D02*
X149795028Y-104901330D01*
X147703091Y-99643830D02*
X148490591Y-99643830D01*
X148096841Y-99250080D02*
X148096841Y-100037580D01*
D10*
G04 #@! TO.C,J36*
X178302591Y-75169330D02*
X163062591Y-75169330D01*
X163062591Y-87869330D02*
X178302591Y-87869330D01*
X178302591Y-87869330D02*
X178302591Y-75169330D01*
X163062591Y-75169330D02*
X163062591Y-87869330D01*
X171952591Y-84059330D02*
X169412591Y-84059330D01*
X169412591Y-78979330D02*
X171952591Y-78979330D01*
X163062591Y-86599330D02*
X164332591Y-86599330D01*
X164332591Y-86599330D02*
X164332591Y-82789330D01*
X164332591Y-82789330D02*
X163062591Y-82789330D01*
X163062591Y-80249330D02*
X164332591Y-80249330D01*
X164332591Y-80249330D02*
X164332591Y-76439330D01*
X164332591Y-76439330D02*
X163062591Y-76439330D01*
G04 #@! TD*
G04 #@! TO.C,C1*
X168356924Y-118833472D02*
X168309305Y-118881091D01*
X168166448Y-118928710D01*
X168071210Y-118928710D01*
X167928352Y-118881091D01*
X167833114Y-118785853D01*
X167785495Y-118690615D01*
X167737876Y-118500139D01*
X167737876Y-118357282D01*
X167785495Y-118166806D01*
X167833114Y-118071568D01*
X167928352Y-117976330D01*
X168071210Y-117928710D01*
X168166448Y-117928710D01*
X168309305Y-117976330D01*
X168356924Y-118023949D01*
X169309305Y-118928710D02*
X168737876Y-118928710D01*
X169023591Y-118928710D02*
X169023591Y-117928710D01*
X168928352Y-118071568D01*
X168833114Y-118166806D01*
X168737876Y-118214425D01*
G04 #@! TO.C,C2*
X165816924Y-112483472D02*
X165769305Y-112531091D01*
X165626448Y-112578710D01*
X165531210Y-112578710D01*
X165388352Y-112531091D01*
X165293114Y-112435853D01*
X165245495Y-112340615D01*
X165197876Y-112150139D01*
X165197876Y-112007282D01*
X165245495Y-111816806D01*
X165293114Y-111721568D01*
X165388352Y-111626330D01*
X165531210Y-111578710D01*
X165626448Y-111578710D01*
X165769305Y-111626330D01*
X165816924Y-111673949D01*
X166197876Y-111673949D02*
X166245495Y-111626330D01*
X166340733Y-111578710D01*
X166578829Y-111578710D01*
X166674067Y-111626330D01*
X166721686Y-111673949D01*
X166769305Y-111769187D01*
X166769305Y-111864425D01*
X166721686Y-112007282D01*
X166150257Y-112578710D01*
X166769305Y-112578710D01*
G04 #@! TO.C,C3*
X158718924Y-104863472D02*
X158671305Y-104911091D01*
X158528448Y-104958710D01*
X158433210Y-104958710D01*
X158290352Y-104911091D01*
X158195114Y-104815853D01*
X158147495Y-104720615D01*
X158099876Y-104530139D01*
X158099876Y-104387282D01*
X158147495Y-104196806D01*
X158195114Y-104101568D01*
X158290352Y-104006330D01*
X158433210Y-103958710D01*
X158528448Y-103958710D01*
X158671305Y-104006330D01*
X158718924Y-104053949D01*
X159052257Y-103958710D02*
X159671305Y-103958710D01*
X159337971Y-104339663D01*
X159480829Y-104339663D01*
X159576067Y-104387282D01*
X159623686Y-104434901D01*
X159671305Y-104530139D01*
X159671305Y-104768234D01*
X159623686Y-104863472D01*
X159576067Y-104911091D01*
X159480829Y-104958710D01*
X159195114Y-104958710D01*
X159099876Y-104911091D01*
X159052257Y-104863472D01*
G04 #@! TO.C,C5*
X145750924Y-122135472D02*
X145703305Y-122183091D01*
X145560448Y-122230710D01*
X145465210Y-122230710D01*
X145322352Y-122183091D01*
X145227114Y-122087853D01*
X145179495Y-121992615D01*
X145131876Y-121802139D01*
X145131876Y-121659282D01*
X145179495Y-121468806D01*
X145227114Y-121373568D01*
X145322352Y-121278330D01*
X145465210Y-121230710D01*
X145560448Y-121230710D01*
X145703305Y-121278330D01*
X145750924Y-121325949D01*
X146655686Y-121230710D02*
X146179495Y-121230710D01*
X146131876Y-121706901D01*
X146179495Y-121659282D01*
X146274733Y-121611663D01*
X146512829Y-121611663D01*
X146608067Y-121659282D01*
X146655686Y-121706901D01*
X146703305Y-121802139D01*
X146703305Y-122040234D01*
X146655686Y-122135472D01*
X146608067Y-122183091D01*
X146512829Y-122230710D01*
X146274733Y-122230710D01*
X146179495Y-122183091D01*
X146131876Y-122135472D01*
G04 #@! TO.C,J35*
X182192067Y-91639710D02*
X182192067Y-92353996D01*
X182144448Y-92496853D01*
X182049210Y-92592091D01*
X181906352Y-92639710D01*
X181811114Y-92639710D01*
X182573019Y-91639710D02*
X183192067Y-91639710D01*
X182858733Y-92020663D01*
X183001591Y-92020663D01*
X183096829Y-92068282D01*
X183144448Y-92115901D01*
X183192067Y-92211139D01*
X183192067Y-92449234D01*
X183144448Y-92544472D01*
X183096829Y-92592091D01*
X183001591Y-92639710D01*
X182715876Y-92639710D01*
X182620638Y-92592091D01*
X182573019Y-92544472D01*
X184096829Y-91639710D02*
X183620638Y-91639710D01*
X183573019Y-92115901D01*
X183620638Y-92068282D01*
X183715876Y-92020663D01*
X183953971Y-92020663D01*
X184049210Y-92068282D01*
X184096829Y-92115901D01*
X184144448Y-92211139D01*
X184144448Y-92449234D01*
X184096829Y-92544472D01*
X184049210Y-92592091D01*
X183953971Y-92639710D01*
X183715876Y-92639710D01*
X183620638Y-92592091D01*
X183573019Y-92544472D01*
G04 #@! TO.C,L1*
X146893924Y-111054710D02*
X146417733Y-111054710D01*
X146417733Y-110054710D01*
X147751067Y-111054710D02*
X147179638Y-111054710D01*
X147465352Y-111054710D02*
X147465352Y-110054710D01*
X147370114Y-110197568D01*
X147274876Y-110292806D01*
X147179638Y-110340425D01*
G04 #@! TO.C,R1*
X166451924Y-108514710D02*
X166118591Y-108038520D01*
X165880495Y-108514710D02*
X165880495Y-107514710D01*
X166261448Y-107514710D01*
X166356686Y-107562330D01*
X166404305Y-107609949D01*
X166451924Y-107705187D01*
X166451924Y-107848044D01*
X166404305Y-107943282D01*
X166356686Y-107990901D01*
X166261448Y-108038520D01*
X165880495Y-108038520D01*
X167404305Y-108514710D02*
X166832876Y-108514710D01*
X167118591Y-108514710D02*
X167118591Y-107514710D01*
X167023352Y-107657568D01*
X166928114Y-107752806D01*
X166832876Y-107800425D01*
G04 #@! TO.C,R2*
X168229924Y-101275710D02*
X167896591Y-100799520D01*
X167658495Y-101275710D02*
X167658495Y-100275710D01*
X168039448Y-100275710D01*
X168134686Y-100323330D01*
X168182305Y-100370949D01*
X168229924Y-100466187D01*
X168229924Y-100609044D01*
X168182305Y-100704282D01*
X168134686Y-100751901D01*
X168039448Y-100799520D01*
X167658495Y-100799520D01*
X168610876Y-100370949D02*
X168658495Y-100323330D01*
X168753733Y-100275710D01*
X168991829Y-100275710D01*
X169087067Y-100323330D01*
X169134686Y-100370949D01*
X169182305Y-100466187D01*
X169182305Y-100561425D01*
X169134686Y-100704282D01*
X168563257Y-101275710D01*
X169182305Y-101275710D01*
G04 #@! TO.C,TP1*
X162562686Y-91766710D02*
X163134114Y-91766710D01*
X162848400Y-92766710D02*
X162848400Y-91766710D01*
X163467448Y-92766710D02*
X163467448Y-91766710D01*
X163848400Y-91766710D01*
X163943638Y-91814330D01*
X163991257Y-91861949D01*
X164038876Y-91957187D01*
X164038876Y-92100044D01*
X163991257Y-92195282D01*
X163943638Y-92242901D01*
X163848400Y-92290520D01*
X163467448Y-92290520D01*
X164991257Y-92766710D02*
X164419829Y-92766710D01*
X164705543Y-92766710D02*
X164705543Y-91766710D01*
X164610305Y-91909568D01*
X164515067Y-92004806D01*
X164419829Y-92052425D01*
G04 #@! TO.C,TP2*
X151767686Y-95830710D02*
X152339114Y-95830710D01*
X152053400Y-96830710D02*
X152053400Y-95830710D01*
X152672448Y-96830710D02*
X152672448Y-95830710D01*
X153053400Y-95830710D01*
X153148638Y-95878330D01*
X153196257Y-95925949D01*
X153243876Y-96021187D01*
X153243876Y-96164044D01*
X153196257Y-96259282D01*
X153148638Y-96306901D01*
X153053400Y-96354520D01*
X152672448Y-96354520D01*
X153624829Y-95925949D02*
X153672448Y-95878330D01*
X153767686Y-95830710D01*
X154005781Y-95830710D01*
X154101019Y-95878330D01*
X154148638Y-95925949D01*
X154196257Y-96021187D01*
X154196257Y-96116425D01*
X154148638Y-96259282D01*
X153577210Y-96830710D01*
X154196257Y-96830710D01*
G04 #@! TO.C,U1*
X222371686Y-129739710D02*
X222371686Y-130549234D01*
X222419305Y-130644472D01*
X222466924Y-130692091D01*
X222562162Y-130739710D01*
X222752638Y-130739710D01*
X222847876Y-130692091D01*
X222895495Y-130644472D01*
X222943114Y-130549234D01*
X222943114Y-129739710D01*
X223943114Y-130739710D02*
X223371686Y-130739710D01*
X223657400Y-130739710D02*
X223657400Y-129739710D01*
X223562162Y-129882568D01*
X223466924Y-129977806D01*
X223371686Y-130025425D01*
G04 #@! TO.C,U2*
X162046686Y-103704710D02*
X162046686Y-104514234D01*
X162094305Y-104609472D01*
X162141924Y-104657091D01*
X162237162Y-104704710D01*
X162427638Y-104704710D01*
X162522876Y-104657091D01*
X162570495Y-104609472D01*
X162618114Y-104514234D01*
X162618114Y-103704710D01*
X163046686Y-103799949D02*
X163094305Y-103752330D01*
X163189543Y-103704710D01*
X163427638Y-103704710D01*
X163522876Y-103752330D01*
X163570495Y-103799949D01*
X163618114Y-103895187D01*
X163618114Y-103990425D01*
X163570495Y-104133282D01*
X162999067Y-104704710D01*
X163618114Y-104704710D01*
G04 #@! TO.C,C4*
X147020924Y-103847472D02*
X146973305Y-103895091D01*
X146830448Y-103942710D01*
X146735210Y-103942710D01*
X146592352Y-103895091D01*
X146497114Y-103799853D01*
X146449495Y-103704615D01*
X146401876Y-103514139D01*
X146401876Y-103371282D01*
X146449495Y-103180806D01*
X146497114Y-103085568D01*
X146592352Y-102990330D01*
X146735210Y-102942710D01*
X146830448Y-102942710D01*
X146973305Y-102990330D01*
X147020924Y-103037949D01*
X147878067Y-103276044D02*
X147878067Y-103942710D01*
X147639971Y-102895091D02*
X147401876Y-103609377D01*
X148020924Y-103609377D01*
G04 #@! TO.C,J36*
X179144067Y-75129710D02*
X179144067Y-75843996D01*
X179096448Y-75986853D01*
X179001210Y-76082091D01*
X178858352Y-76129710D01*
X178763114Y-76129710D01*
X179525019Y-75129710D02*
X180144067Y-75129710D01*
X179810733Y-75510663D01*
X179953591Y-75510663D01*
X180048829Y-75558282D01*
X180096448Y-75605901D01*
X180144067Y-75701139D01*
X180144067Y-75939234D01*
X180096448Y-76034472D01*
X180048829Y-76082091D01*
X179953591Y-76129710D01*
X179667876Y-76129710D01*
X179572638Y-76082091D01*
X179525019Y-76034472D01*
X181001210Y-75129710D02*
X180810733Y-75129710D01*
X180715495Y-75177330D01*
X180667876Y-75224949D01*
X180572638Y-75367806D01*
X180525019Y-75558282D01*
X180525019Y-75939234D01*
X180572638Y-76034472D01*
X180620257Y-76082091D01*
X180715495Y-76129710D01*
X180905971Y-76129710D01*
X181001210Y-76082091D01*
X181048829Y-76034472D01*
X181096448Y-75939234D01*
X181096448Y-75701139D01*
X181048829Y-75605901D01*
X181001210Y-75558282D01*
X180905971Y-75510663D01*
X180715495Y-75510663D01*
X180620257Y-75558282D01*
X180572638Y-75605901D01*
X180525019Y-75701139D01*
G04 #@! TD*
M02*
