M48
INCH,TZ
T1C0.0118
T2C0.0157
T3C0.0300
T4C0.0354
T5C0.0394
T6C0.1220
%
G90
G05
T1
X5.8248Y-4.8094
X5.8948Y-3.9344
X6.0498Y-4.6594
X6.0998Y-3.8944
X6.0998Y-4.0544
X6.2198Y-4.3557
X6.2298Y-4.4944
X6.282Y-4.6076
X6.2898Y-4.0544
X6.3348Y-4.2544
X6.3348Y-4.2807
X6.3348Y-4.3094
X6.3848Y-4.4594
X6.4048Y-4.3557
X6.4298Y-3.9944
X6.4698Y-3.9344
X6.6048Y-4.1294
X6.7048Y-4.7044
X6.8448Y-3.9094
X6.8448Y-4.0094
X6.8448Y-4.1094
X6.8448Y-4.2094
X6.8448Y-4.3094
X6.8448Y-4.4094
X6.8448Y-4.5094
T2
X6.0498Y-4.9194
X6.3298Y-3.1044
X6.4498Y-4.9194
X6.7048Y-5.0794
X6.7748Y-4.5994
X7.1298Y-3.1044
X7.8598Y-2.8094
X7.8598Y-4.7094
X7.8598Y-5.0794
X8.3948Y-2.9194
X8.3948Y-4.9094
X8.5098Y-2.8094
X8.5098Y-4.7094
X8.5098Y-5.0794
X8.9548Y-3.1094
X9.2348Y-3.1094
X9.2448Y-5.0794
X9.3348Y-2.9094
X9.5348Y-3.1094
T3
X6.6198Y-3.1094
X6.6198Y-3.3094
X6.8198Y-3.1094
X6.8198Y-3.3094
T5
X6.93Y-3.81
X6.93Y-3.91
X6.93Y-4.01
X6.93Y-4.11
X6.93Y-4.21
X6.93Y-4.31
X6.93Y-4.41
X6.93Y-4.51
X6.93Y-4.61
X6.93Y-4.71
X7.03Y-3.81
X7.03Y-3.91
X7.03Y-4.01
X7.03Y-4.11
X7.03Y-4.21
X7.03Y-4.31
X7.03Y-4.41
X7.03Y-4.51
X7.03Y-4.61
X7.03Y-4.71
X6.5948Y-3.5594
X5.8848Y-3.7194
T6
X9.4248Y-2.6694
X5.8648Y-2.6694
X5.8648Y-5.0594
X9.4248Y-5.0594
T4
X8.8289Y-2.8094G85X8.8407Y-2.8094
G05
X7.5289Y-3.1094G85X7.5407Y-3.1094
G05
X9.3289Y-3.8094G85X9.3407Y-3.8094
G05
X9.1289Y-4.2094G85X9.1407Y-4.2094
G05
X9.0289Y-3.9094G85X9.0407Y-3.9094
G05
X7.5289Y-3.0094G85X7.5407Y-3.0094
G05
X8.8289Y-4.7094G85X8.8407Y-4.7094
G05
X7.5289Y-4.7094G85X7.5407Y-4.7094
G05
X7.5289Y-4.0094G85X7.5407Y-4.0094
G05
X8.8289Y-3.0094G85X8.8407Y-3.0094
G05
X9.3289Y-3.2094G85X9.3407Y-3.2094
G05
X9.3289Y-4.2094G85X9.3407Y-4.2094
G05
X8.8289Y-3.5094G85X8.8407Y-3.5094
G05
X9.0289Y-3.4094G85X9.0407Y-3.4094
G05
X9.4289Y-3.5094G85X9.4407Y-3.5094
G05
X9.0289Y-3.8094G85X9.0407Y-3.8094
G05
X8.8289Y-4.0094G85X8.8407Y-4.0094
G05
X9.2289Y-4.1094G85X9.2407Y-4.1094
G05
X9.0289Y-3.6094G85X9.0407Y-3.6094
G05
X8.8289Y-3.3094G85X8.8407Y-3.3094
G05
X9.3289Y-4.1094G85X9.3407Y-4.1094
G05
X8.8289Y-3.1094G85X8.8407Y-3.1094
G05
X9.1289Y-4.3094G85X9.1407Y-4.3094
G05
X9.3289Y-3.9094G85X9.3407Y-3.9094
G05
X9.2289Y-3.5094G85X9.2407Y-3.5094
G05
X9.4289Y-4.1094G85X9.4407Y-4.1094
G05
X7.5289Y-3.7094G85X7.5407Y-3.7094
G05
X7.5289Y-3.3094G85X7.5407Y-3.3094
G05
X9.4289Y-3.2094G85X9.4407Y-3.2094
G05
X8.8289Y-3.7094G85X8.8407Y-3.7094
G05
X9.4289Y-3.4094G85X9.4407Y-3.4094
G05
X8.8289Y-3.9094G85X8.8407Y-3.9094
G05
X8.8289Y-4.1094G85X8.8407Y-4.1094
G05
X9.3289Y-3.6094G85X9.3407Y-3.6094
G05
X7.5289Y-4.6094G85X7.5407Y-4.6094
G05
X9.4289Y-3.9094G85X9.4407Y-3.9094
G05
X9.0289Y-3.3094G85X9.0407Y-3.3094
G05
X9.3289Y-3.7094G85X9.3407Y-3.7094
G05
X8.8289Y-3.4094G85X8.8407Y-3.4094
G05
X9.4289Y-3.8094G85X9.4407Y-3.8094
G05
X7.5289Y-4.5094G85X7.5407Y-4.5094
G05
X9.1289Y-4.0094G85X9.1407Y-4.0094
G05
X9.3289Y-4.0094G85X9.3407Y-4.0094
G05
X9.2289Y-3.6094G85X9.2407Y-3.6094
G05
X8.8289Y-3.2094G85X8.8407Y-3.2094
G05
X9.2289Y-3.3094G85X9.2407Y-3.3094
G05
X8.8289Y-4.8094G85X8.8407Y-4.8094
G05
X9.4289Y-4.0094G85X9.4407Y-4.0094
G05
X8.8289Y-4.5094G85X8.8407Y-4.5094
G05
X9.4289Y-4.3094G85X9.4407Y-4.3094
G05
X9.2289Y-3.4094G85X9.2407Y-3.4094
G05
X7.5289Y-3.6094G85X7.5407Y-3.6094
G05
X9.4289Y-3.7094G85X9.4407Y-3.7094
G05
X9.2289Y-4.2094G85X9.2407Y-4.2094
G05
X9.1289Y-3.7094G85X9.1407Y-3.7094
G05
X8.8289Y-2.9094G85X8.8407Y-2.9094
G05
X9.0289Y-4.1094G85X9.0407Y-4.1094
G05
X7.5289Y-3.9094G85X7.5407Y-3.9094
G05
X9.2289Y-3.8094G85X9.2407Y-3.8094
G05
X8.8289Y-4.2094G85X8.8407Y-4.2094
G05
X8.8289Y-4.6094G85X8.8407Y-4.6094
G05
X8.8289Y-4.4094G85X8.8407Y-4.4094
G05
X7.5289Y-3.4094G85X7.5407Y-3.4094
G05
X9.1289Y-3.4094G85X9.1407Y-3.4094
G05
X9.3289Y-4.3094G85X9.3407Y-4.3094
G05
X9.3289Y-3.3094G85X9.3407Y-3.3094
G05
X9.2289Y-3.2094G85X9.2407Y-3.2094
G05
X9.1289Y-3.8094G85X9.1407Y-3.8094
G05
X7.5289Y-2.8094G85X7.5407Y-2.8094
G05
X9.2289Y-4.3094G85X9.2407Y-4.3094
G05
X9.1289Y-3.5094G85X9.1407Y-3.5094
G05
X9.4289Y-3.6094G85X9.4407Y-3.6094
G05
X9.0289Y-4.2094G85X9.0407Y-4.2094
G05
X9.2289Y-3.7094G85X9.2407Y-3.7094
G05
X8.8289Y-4.3094G85X8.8407Y-4.3094
G05
X9.0289Y-3.2094G85X9.0407Y-3.2094
G05
X9.1289Y-4.1094G85X9.1407Y-4.1094
G05
X9.3289Y-3.5094G85X9.3407Y-3.5094
G05
X9.0289Y-4.0094G85X9.0407Y-4.0094
G05
X9.0289Y-3.5094G85X9.0407Y-3.5094
G05
X7.5289Y-4.2094G85X7.5407Y-4.2094
G05
X8.8289Y-3.8094G85X8.8407Y-3.8094
G05
X9.0289Y-3.7094G85X9.0407Y-3.7094
G05
X9.2289Y-4.0094G85X9.2407Y-4.0094
G05
X7.5289Y-4.4094G85X7.5407Y-4.4094
G05
X9.2289Y-3.9094G85X9.2407Y-3.9094
G05
X9.1289Y-3.2094G85X9.1407Y-3.2094
G05
X7.5289Y-3.5094G85X7.5407Y-3.5094
G05
X7.5289Y-3.2094G85X7.5407Y-3.2094
G05
X7.5289Y-4.1094G85X7.5407Y-4.1094
G05
X7.5289Y-4.3094G85X7.5407Y-4.3094
G05
X8.8289Y-3.6094G85X8.8407Y-3.6094
G05
X9.4289Y-3.3094G85X9.4407Y-3.3094
G05
X9.1289Y-3.6094G85X9.1407Y-3.6094
G05
X9.0289Y-4.3094G85X9.0407Y-4.3094
G05
X9.4289Y-4.2094G85X9.4407Y-4.2094
G05
X9.1289Y-3.3094G85X9.1407Y-3.3094
G05
X9.1289Y-3.9094G85X9.1407Y-3.9094
G05
X7.5289Y-3.8094G85X7.5407Y-3.8094
G05
X9.3289Y-3.4094G85X9.3407Y-3.4094
G05
T5
X7.7259Y-2.8094G85X7.7337Y-2.8094
G05
X7.7259Y-2.9094G85X7.7337Y-2.9094
G05
X7.7259Y-3.0094G85X7.7337Y-3.0094
G05
X7.7259Y-3.1094G85X7.7337Y-3.1094
G05
X7.7259Y-3.2094G85X7.7337Y-3.2094
G05
X7.7259Y-3.3094G85X7.7337Y-3.3094
G05
X7.7259Y-3.4094G85X7.7337Y-3.4094
G05
X7.7259Y-3.5094G85X7.7337Y-3.5094
G05
X7.7259Y-3.6094G85X7.7337Y-3.6094
G05
X7.7259Y-3.7094G85X7.7337Y-3.7094
G05
X7.7259Y-3.8094G85X7.7337Y-3.8094
G05
X7.7259Y-3.9094G85X7.7337Y-3.9094
G05
X7.7259Y-4.0094G85X7.7337Y-4.0094
G05
X7.7259Y-4.1094G85X7.7337Y-4.1094
G05
X7.7259Y-4.2094G85X7.7337Y-4.2094
G05
X7.7259Y-4.3094G85X7.7337Y-4.3094
G05
X7.7259Y-4.4094G85X7.7337Y-4.4094
G05
X7.7259Y-4.5094G85X7.7337Y-4.5094
G05
X7.7259Y-4.6094G85X7.7337Y-4.6094
G05
X7.7259Y-4.7094G85X7.7337Y-4.7094
G05
X7.7259Y-4.8094G85X7.7337Y-4.8094
G05
X8.6259Y-2.8094G85X8.6337Y-2.8094
G05
X8.6259Y-2.9094G85X8.6337Y-2.9094
G05
X8.6259Y-3.0094G85X8.6337Y-3.0094
G05
X8.6259Y-3.1094G85X8.6337Y-3.1094
G05
X8.6259Y-3.2094G85X8.6337Y-3.2094
G05
X8.6259Y-3.3094G85X8.6337Y-3.3094
G05
X8.6259Y-3.4094G85X8.6337Y-3.4094
G05
X8.6259Y-3.5094G85X8.6337Y-3.5094
G05
X8.6259Y-3.6094G85X8.6337Y-3.6094
G05
X8.6259Y-3.7094G85X8.6337Y-3.7094
G05
X8.6259Y-3.8094G85X8.6337Y-3.8094
G05
X8.6259Y-3.9094G85X8.6337Y-3.9094
G05
X8.6259Y-4.0094G85X8.6337Y-4.0094
G05
X8.6259Y-4.1094G85X8.6337Y-4.1094
G05
X8.6259Y-4.2094G85X8.6337Y-4.2094
G05
X8.6259Y-4.3094G85X8.6337Y-4.3094
G05
X8.6259Y-4.4094G85X8.6337Y-4.4094
G05
X8.6259Y-4.5094G85X8.6337Y-4.5094
G05
X8.6259Y-4.6094G85X8.6337Y-4.6094
G05
X8.6259Y-4.7094G85X8.6337Y-4.7094
G05
X8.6259Y-4.8094G85X8.6337Y-4.8094
G05
T0
M30
