M48
INCH
T01C.00787
T02C.03937
T03C.04
T04C.04016
;LEADER: 12 
;HEADER: CYPRESS SEMICONDUCTOR 
;CODE  : ASCII 
;FILE  : 600-60527-01_03-1-2.drl for board N:/PCB_HOME/60527-01_03-CYSTAMP-063/Artwork/#Taaaaae19008.tmp ... layers TOP and BOTTOM
;T01 Holesize 1. = 7.870000 Tolerance = +1.970000/-7.870000 PLATED MILS Quantity = 351
;T02 Holesize 2. = 39.370000 Tolerance = +3.000000/-3.000000 PLATED MILS Quantity = 44
;T03 Holesize 3. = 40.000000 Tolerance = +3.000000/-3.000000 PLATED MILS Quantity = 10
;T04 Holesize 4. = 40.160000 Tolerance = +3.000000/-3.000000 PLATED MILS Quantity = 16
%
G90
T01
X-0024600Y-0008700
X-0036600Y0000900
X-0025500Y0001100
X-0036400Y0007800
X-0028400Y0007900
X-0024100Y0016600
X-0029300Y0030800
X-0029100Y0048900
X-0036100Y0070800
X-0036200Y0077200
X-0024900Y0081800
X-0026300Y0088500
X-0016400Y0088700
X-0010600Y0075300
X-0005900Y0074000
X-0017700Y0073710
X-0003550Y0068300
X-0018200Y0058700
X-0002900Y0051100
X-0015950Y0048350
X-0000200Y0047500
X-0010756Y0045619
X-0013812
X-0000200Y0043500
X-0001200Y0039600
X-0012900Y0038150
X-0019000Y0033750
X-0015700Y0026250
X-0008388Y0023900
X-0001100Y0022250
X-0017600Y0017000
X-0000800Y0008750
X-0009000Y0007950
X-0018200Y0007800
X-0016500Y0000400
X0002100Y0004900
X0015000Y0018900
X0009000Y0022000
X0007500Y0030000
X0001200Y0036100
X0008000Y0037750
X0006300Y0042700
X0004100Y0051450
X0014600Y0059000
X0018600Y0063400
X0010500Y0063900
X0005400Y0070350
X0012900Y0071700
X0003500Y0077964
X0017500
X0036000Y0079400
X0032900Y0077964
X0033300Y0074000
X0023500Y0070200
X0025900Y0070100
X0038600Y0063400
X0028600
X0022400
X0024100Y0061500
X0034500Y0060400
X0032064Y0060136
X0026167Y0059714
X0021837Y0059637
X0037000Y0050000
X0032500
X0027500
X0020000
X0037000Y0046000
X0032500
X0027500
X0020000
X0037000Y0042000
X0027500
X0020000
X0037150Y0037900
X0027500Y0037800
X0020500
X0037000Y0029950
X0021450Y0030000
X0028800Y0029900
X0032900Y0020000
X0029700
X0024200
X0020950Y0018150
X0029100Y0015600
X0036600Y0014050
X0029400Y0012200
X0028800Y0006100
X0051000Y0001100
X0042300Y0004900
X0052700Y0006500
X0056700Y0011600
X0046100Y0011800
X0040300Y0014000
X0049950Y0026550
X0048500Y0035650
X0056300Y0037800
X0048700Y0039400
X0059700Y0043000
X0048500Y0046300
X0044500Y0055050
X0052450Y0056650
X0051000Y0062050
X0047300Y0062150
X0057500Y0068000
X0051100Y0071000
X0040000Y0071100
X0045200Y0077964
X0055307Y0077966
X0075000Y0087400
X0068800Y0086100
X0064800Y0078900
Y0073500
X0064500Y0066150
X0072800Y0064400
X0073600Y0058300
X0063200Y0057600
X0078850Y0054250
X0076000Y0049150
X0075800Y0045850
Y0042350
X0079600Y0042250
X0068600Y0040100
X0078100Y0030650
X0065500Y0027350
X0071100Y0024350
X0078500Y0023000
X0060400Y0020100
X0075500Y0019050
X0073200Y0014750
X0062600Y0014000
X0067200Y0012600
X0069500Y0008650
X0061000Y0001700
X0067400Y0001100
X0068600Y-0008300
X0076500Y-0008500
X0092700Y-0008450
X0095700Y0003200
X0081200Y0012250
X0092700Y0012150
X0083400Y0024450
X0083100Y0036150
X0085050Y0054250
X0082900Y0062100
X0095000Y0066600
X0096800Y0068900
X0093800Y0070600
X0088474Y0085500
X0082600Y0085600
X0094900Y0087000
X0114800Y0088800
X0106300Y0088600
X0106500Y0080000
X0115000Y0079600
X0114700Y0073100
X0105800Y0071900
X0113182Y0064600
X0117100Y0064400
X0115000Y0034650
X0113500Y0014200
X0106500
X0114000Y0005700
X0106500Y0005200
X0106300Y-0001100
X0114000Y-0001300
X0113900Y-0009300
X0106500Y-0009400
X0125700Y-0009700
X0120600Y-0009600
X0136100Y-0009500
X0120900Y-0001500
X0128600Y0020000
X0125864Y0026150
Y0043750
X0120200Y0046500
X0138400Y0050500
X0123200Y0062700
X0125000Y0065400
X0125817Y0072233
X0137836Y0073000
X0123900Y0080100
X0124000Y0088900
X0145700
X0158800Y0076000
X0151100Y0074500
X0143700Y0066200
X0148100Y0066100
X0142400Y0043600
X0142500Y0039610
X0148300Y0035500
X0149400Y0011600
X0145916Y0005400
X0156000Y-0000600
X0146400Y-0009600
X0165700Y-0009700
X0176500Y0001300
X0164200Y0005700
X0166800Y0005800
X0165100Y0028300
X0171400Y0031300
X0175800Y0031400
X0161100Y0032400
X0179000Y0033000
X0170950Y0036700
X0176100
X0173600Y0065800
X0166700Y0078300
X0175300Y0078500
X0165800Y0089000
X0186000
X0195500Y0078300
X0185700Y0078000
X0184150Y0071750
X0190000Y0071600
X0187100Y0061850
X0194600Y0056300
X0184700Y0052300
X0194300Y0044100
X0192600Y0037000
X0190987Y0021613
X0184100Y0012700
X0197100Y0006400
X0181700Y0005700
X0185000Y-0009400
X0205000
X0204200Y0006400
X0211200Y0006500
X0218700Y0006600
X0204700Y0020166
X0211168Y0024418
X0203600Y0035250
X0213600Y0035500
X0209200Y0042100
X0201000Y0048000
X0216300Y0048450
X0203900Y0054750
X0202500Y0059000
X0213800Y0071600
X0205200Y0073150
X0215500Y0079800
X0204900Y0089000
X0225500
X0233100Y0077500
X0222600Y0071550
X0233700Y0071200
X0225700Y0053800
X0225100Y0048250
X0234200Y0040200
X0238450Y0035250
X0225100Y0013100
X0224600Y0009000
X0225400Y-0009000
X0245100
X0257000Y0004200
X0249500Y0005900
X0241600Y0007300
X0252650Y0014500
X0253600Y0022500
X0253150Y0026650
X0256300Y0026950
X0248700Y0030500
X0254600Y0032900
X0252500Y0042800
X0253250Y0055300
X0250200Y0071300
X0240000Y0072100
X0245500Y0078800
X0256200Y0079400
X0245000Y0089200
X0274800Y0089100
X0275300Y0074900
X0268700Y0073200
X0264300Y0073000
X0278200Y0069500
X0272700Y0067500
X0271850Y0062550
X0268100Y0052450
X0269950Y0045800
X0266700Y0043450
X0270450Y0040800
X0262050Y0026200
X0261100Y0020900
X0273100Y0015500
X0260800Y0014700
X0272800Y0002600
X0265000Y-0009400
X0285100
X0295200Y0001700
X0294900Y0007400
X0298200
X0284500Y0007900
X0289150Y0008800
X0296450Y0022600
X0299700Y0022750
X0296700Y0026800
X0287700Y0044850
X0283600Y0053200
X0296800Y0055000
X0293400Y0056400
X0293350Y0059400
X0292000Y0071000
X0295500
X0299000
X0282500Y0071300
X0283400Y0077000
X0292000
R02X0003500
X0306500Y0081000
X0313000Y0077200
X0308500Y0077000
X0302000
X0319600Y0071100
X0316700Y0071000
X0314000
X0305500
X0302000
X0305400Y0058181
X0305250Y0055150
X0301200Y0055100
X0313550Y0052500
X0317300Y0050500
X0319100Y0047150
X0316700Y0046000
X0309300Y0044200
X0306750Y0044000
X0317800Y0037450
X0310200Y0037400
X0304300Y0035500
X0301800Y0027600
X0315807Y0018100
X0301500Y0018000
X0312200Y0017900
X0305400Y0009086
X0312700Y0003200
X0305300Y0001300
X0305600Y-0009000
X0325000Y-0009300
X0322900Y0002200
X0321500Y0005800
X0329950Y0018250
X0329750Y0020650
X0322725Y0043925
X0330300Y0047600
X0329500Y0058600
X0329600Y0061800
X0324600Y0070800
X0329600
Y0074000
X0325200Y0089000
T02
X0130000Y-0005000
R20X0010000
Y0085000
R19X-0010000
X0139800Y0025600
Y0015600
X0130000Y0085000
T03
X0091000Y0020000
R04Y0010000
X0111000
R04Y-0010000
T04
X0060000Y-0005000
R06X-0010000
X-0032790Y0018355
Y0060953
X0000000Y0085000
R06X0010000
M30
