G04 ================== begin FILE IDENTIFICATION RECORD ==================*
G04 Layout Name:  N:/PCB_HOME/60527-01_03-CYSTAMP-063/Artwork/600-60527-01_03.brd*
G04 Film Name:    BOTTOM*
G04 File Format:  Gerber RS274X*
G04 File Origin:  Cadence Allegro 16.6-2015-S108*
G04 Origin Date:  Mon Oct 08 10:45:40 2018*
G04 *
G04 Layer:  DRAWING FORMAT/FAB_FILM*
G04 Layer:  PACKAGE GEOMETRY/PLATING_BAR_BOTTOM*
G04 Layer:  PACKAGE GEOMETRY/SHORT_BOTTOM*
G04 Layer:  ETCH/BOTTOM*
G04 Layer:  PIN/BOTTOM*
G04 Layer:  VIA CLASS/BOTTOM*
G04 Layer:  BOARD GEOMETRY/OUTLINE*
G04 *
G04 Offset:    (0.00 0.00)*
G04 Mirror:    No*
G04 Mode:      Positive*
G04 Rotation:  0*
G04 FullContactRelief:  No*
G04 UndefLineWidth:     5.00*
G04 ================== end FILE IDENTIFICATION RECORD ====================*
%FSLAX25Y25*MOIN*%
%IR0*IPPOS*OFA0.00000B0.00000*MIA0B0*SFA1.00000B1.00000*%
%ADD27O,.03X.24*%
%ADD21C,.04*%
%ADD26C,.07*%
%ADD25R,.07X.07*%
%ADD11C,.01772*%
%ADD20R,.04331X.04331*%
%ADD29C,.05906*%
%ADD13C,.06772*%
%ADD10C,.03937*%
%ADD18C,.06378*%
%ADD31C,.06299*%
%ADD36R,.05906X.05906*%
%ADD22R,.06378X.06378*%
%ADD30R,.06299X.06299*%
%ADD28O,.03X.06*%
%ADD12O,.06102X.03543*%
%ADD23R,.04134X.04331*%
%ADD37R,.04331X.04134*%
%ADD14O,.0374X.04921*%
%ADD34R,.0315X.02756*%
%ADD35R,.04331X.0748*%
%ADD17R,.03937X.0315*%
%ADD24R,.02835X.02559*%
%ADD33R,.05709X.04528*%
%ADD16R,.02559X.02835*%
%ADD32R,.04528X.05709*%
%ADD19R,.02835X.02598*%
%ADD15R,.02598X.02835*%
%ADD38C,.02*%
%ADD39C,.015*%
%ADD40C,.025*%
%ADD41C,.005*%
%ADD42C,.00501*%
%ADD43C,.006*%
%ADD44C,.007*%
%ADD45C,.008*%
%ADD53C,.0713*%
%ADD52C,.0733*%
%ADD48C,.07602*%
%ADD50C,.08424*%
%ADD47C,.07996*%
%ADD46C,.10398*%
%ADD49R,.078X.078*%
%ADD51R,.0536X.04572*%
%ADD54R,.05952X.07132*%
%ADD56R,.05556X.05754*%
%ADD55R,.05754X.05754*%
G75*
%LPD*%
G75*
G36*
G01X-44731Y-94258D02*
X-44619D01*
X-44495Y-94242D01*
X-44383Y-94226D01*
X-44271D01*
X-44147Y-94210D01*
X-43927Y-94178D01*
X-43799Y-94162D01*
X-43359Y-94102D01*
X-43235Y-94086D01*
X-43123Y-94070D01*
X-43011Y-94038D01*
X-42903Y-94022D01*
X-42791Y-93990D01*
X-42683Y-93974D01*
X-42571Y-93942D01*
X-42463Y-93926D01*
X-42131Y-93834D01*
X-42019Y-93818D01*
X-41579Y-93690D01*
X-41471Y-93642D01*
X-41251Y-93582D01*
X-41155Y-93550D01*
X-41043Y-93502D01*
X-40823Y-93438D01*
X-40731Y-93390D01*
X-40619Y-93362D01*
X-40523Y-93314D01*
X-40415Y-93266D01*
X-40303Y-93234D01*
X-40211Y-93186D01*
X-40099Y-93138D01*
X-40003Y-93094D01*
X-39895Y-93046D01*
X-39799Y-92998D01*
X-39691Y-92950D01*
X-39503Y-92858D01*
X-39391Y-92810D01*
X-39203Y-92714D01*
X-39107Y-92650D01*
X-38999Y-92606D01*
X-38903Y-92558D01*
X-38807Y-92494D01*
X-38715Y-92446D01*
X-38619Y-92382D01*
X-38523Y-92338D01*
X-38335Y-92210D01*
X-38243Y-92162D01*
X-37863Y-91910D01*
X-37767Y-91866D01*
X-37691Y-91802D01*
X-37595Y-91738D01*
X-37503Y-91658D01*
X-37407Y-91598D01*
X-37327Y-91534D01*
X-37235Y-91470D01*
X-37155Y-91406D01*
X-37059Y-91330D01*
X-36983Y-91266D01*
X-36887Y-91202D01*
X-36807Y-91122D01*
X-36715Y-91062D01*
X-36635Y-90982D01*
X-36555Y-90918D01*
X-36463Y-90842D01*
X-36383Y-90778D01*
X-36227Y-90622D01*
X-36131Y-90558D01*
X-35579Y-90006D01*
X-55767D01*
X-55219Y-90558D01*
X-55139Y-90622D01*
X-55059Y-90698D01*
X-54967Y-90778D01*
X-54887Y-90842D01*
X-54807Y-90918D01*
X-54715Y-90982D01*
X-54635Y-91062D01*
X-54555Y-91122D01*
X-54463Y-91202D01*
X-54383Y-91266D01*
X-54287Y-91330D01*
X-54211Y-91406D01*
X-54115Y-91470D01*
X-54035Y-91534D01*
X-53847Y-91658D01*
X-53767Y-91738D01*
X-53579Y-91866D01*
X-53487Y-91910D01*
X-53295Y-92038D01*
X-53219Y-92102D01*
X-53123Y-92162D01*
X-53027Y-92210D01*
X-52839Y-92338D01*
X-52747Y-92382D01*
X-52635Y-92446D01*
X-52539Y-92494D01*
X-52447Y-92558D01*
X-52255Y-92650D01*
X-52163Y-92714D01*
X-52051Y-92762D01*
X-51863Y-92858D01*
X-51755Y-92902D01*
X-51659Y-92950D01*
X-51547Y-92998D01*
X-51359Y-93094D01*
X-51251Y-93138D01*
X-51155Y-93186D01*
X-51043Y-93234D01*
X-50935Y-93266D01*
X-50839Y-93314D01*
X-50731Y-93362D01*
X-50635Y-93390D01*
X-50523Y-93438D01*
X-50303Y-93502D01*
X-50211Y-93550D01*
X-49879Y-93642D01*
X-49767Y-93690D01*
X-49675Y-93722D01*
X-49343Y-93818D01*
X-49235Y-93834D01*
X-48903Y-93926D01*
X-48791Y-93942D01*
X-48683Y-93974D01*
X-48571Y-93990D01*
X-48463Y-94022D01*
X-48335Y-94038D01*
X-48227Y-94070D01*
X-47895Y-94118D01*
X-47767Y-94130D01*
X-47439Y-94178D01*
X-47311Y-94194D01*
X-47091Y-94226D01*
X-46967D01*
X-46855Y-94242D01*
X-46731Y-94258D01*
X-46619D01*
X-46507Y-94274D01*
X-46271D01*
X-46147Y-94290D01*
X-45203D01*
X-45091Y-94274D01*
X-44855D01*
X-44731Y-94258D01*
G37*
G36*
G01X-59691Y-81078D02*
Y-81282D01*
X-59675Y-81374D01*
Y-81470D01*
X-59659Y-81582D01*
X-59643Y-81674D01*
Y-81786D01*
X-59611Y-81974D01*
X-59595Y-82086D01*
Y-82178D01*
X-59579Y-82274D01*
X-59563Y-82382D01*
X-59515Y-82666D01*
X-59503Y-82778D01*
X-59471Y-82870D01*
X-59439Y-83062D01*
X-59423Y-83170D01*
X-59391Y-83266D01*
X-59359Y-83454D01*
X-59327Y-83550D01*
X-59311Y-83642D01*
X-59279Y-83738D01*
X-59263Y-83834D01*
X-59203Y-84022D01*
X-59187Y-84118D01*
X-58871Y-85062D01*
X-58839Y-85138D01*
X-58775Y-85330D01*
X-58731Y-85422D01*
X-58699Y-85518D01*
X-58667Y-85598D01*
X-58619Y-85690D01*
X-58587Y-85786D01*
X-58555Y-85866D01*
X-58507Y-85958D01*
X-58479Y-86054D01*
X-58431Y-86130D01*
X-58383Y-86226D01*
X-58351Y-86306D01*
X-58303Y-86398D01*
X-58255Y-86478D01*
X-58227Y-86574D01*
X-58179Y-86650D01*
X-58131Y-86746D01*
X-58083Y-86826D01*
X-58035Y-86918D01*
X-57943Y-87078D01*
X-57895Y-87170D01*
X-57799Y-87330D01*
X-57755Y-87422D01*
X-57611Y-87658D01*
X-57547Y-87738D01*
X-57503Y-87834D01*
X-57455Y-87910D01*
X-57391Y-87990D01*
X-57295Y-88146D01*
X-57235Y-88226D01*
X-57187Y-88306D01*
X-57123Y-88382D01*
X-57075Y-88462D01*
X-56951Y-88622D01*
X-56903Y-88698D01*
X-56839Y-88762D01*
X-56715Y-88918D01*
X-56667Y-88998D01*
X-56603Y-89078D01*
X-56539Y-89138D01*
X-56415Y-89298D01*
X-50351D01*
Y-88574D01*
X-48083D01*
Y-87850D01*
X-46807D01*
Y-87834D01*
X-46791D01*
Y-87818D01*
X-46747Y-87770D01*
X-46731Y-87738D01*
X-46715Y-87722D01*
X-46699Y-87690D01*
X-46667Y-87658D01*
X-46651Y-87626D01*
X-46619Y-87598D01*
X-46603Y-87566D01*
X-46571Y-87534D01*
X-46539Y-87486D01*
X-46507Y-87454D01*
X-46351Y-87218D01*
X-46303Y-87170D01*
X-46271Y-87122D01*
X-46227Y-87062D01*
X-46195Y-87014D01*
X-46147Y-86950D01*
X-46099Y-86902D01*
X-46067Y-86842D01*
X-45643Y-86274D01*
X-45595Y-86194D01*
X-45547Y-86130D01*
X-45487Y-86070D01*
X-45439Y-85990D01*
X-45343Y-85866D01*
X-45279Y-85786D01*
X-45235Y-85722D01*
X-45187Y-85642D01*
X-45123Y-85582D01*
X-45075Y-85502D01*
X-45027Y-85438D01*
X-44983Y-85362D01*
X-44919Y-85298D01*
X-44871Y-85234D01*
X-44823Y-85154D01*
X-44759Y-85094D01*
X-44715Y-85014D01*
X-44619Y-84886D01*
X-44571Y-84810D01*
X-44507Y-84746D01*
X-44415Y-84622D01*
X-44367Y-84542D01*
X-44179Y-84290D01*
X-44147Y-84242D01*
X-44003Y-84054D01*
X-43975Y-84006D01*
X-43927Y-83942D01*
X-43895Y-83894D01*
X-43847Y-83850D01*
X-43815Y-83802D01*
X-43783Y-83738D01*
X-43739Y-83690D01*
X-43707Y-83642D01*
X-43675Y-83614D01*
X-43611Y-83518D01*
X-43579Y-83486D01*
X-43563Y-83454D01*
X-43531Y-83406D01*
X-43503Y-83374D01*
X-43487Y-83346D01*
X-43439Y-83298D01*
X-43423Y-83266D01*
X-43391Y-83234D01*
Y-83218D01*
X-43359Y-83186D01*
Y-83170D01*
X-43343D01*
Y-83154D01*
X-43359D01*
Y-83138D01*
X-43375D01*
Y-83122D01*
X-43391D01*
Y-83110D01*
X-43503Y-82998D01*
X-43515Y-82966D01*
X-43531Y-82950D01*
X-43547Y-82918D01*
X-43579Y-82902D01*
X-43595Y-82870D01*
X-43627Y-82858D01*
X-43659Y-82794D01*
X-43691Y-82778D01*
X-43723Y-82746D01*
X-43739Y-82714D01*
X-43799Y-82650D01*
X-43815Y-82622D01*
X-43975Y-82462D01*
X-43991Y-82414D01*
X-44083Y-82322D01*
X-44115Y-82274D01*
X-44179Y-82210D01*
X-44211Y-82162D01*
X-44383Y-81990D01*
X-44415Y-81942D01*
X-44447Y-81910D01*
X-44479Y-81866D01*
X-44539Y-81802D01*
X-44571Y-81754D01*
X-44603Y-81722D01*
X-44635Y-81674D01*
X-44699Y-81614D01*
X-44731Y-81566D01*
X-44775Y-81534D01*
X-44807Y-81502D01*
X-44823Y-81470D01*
X-44855Y-81422D01*
X-44983Y-81298D01*
X-45011Y-81250D01*
X-45043Y-81218D01*
X-45059Y-81186D01*
X-45123Y-81122D01*
X-45155Y-81110D01*
X-45171Y-81078D01*
X-45203Y-81046D01*
X-45219Y-81014D01*
X-45311Y-80918D01*
X-45327Y-80886D01*
X-45359Y-80870D01*
X-45375Y-80842D01*
X-45407Y-80810D01*
X-45423Y-80778D01*
X-45531Y-80666D01*
Y-80650D01*
X-47595D01*
Y-79926D01*
X-45723D01*
Y-79202D01*
X-48759D01*
Y-79926D01*
X-53187D01*
Y-79202D01*
X-54195D01*
Y-78494D01*
X-56699D01*
Y-77770D01*
X-59503D01*
Y-77818D01*
X-59515Y-77850D01*
Y-77910D01*
X-59531Y-77942D01*
Y-78006D01*
X-59547Y-78038D01*
Y-78118D01*
X-59563Y-78130D01*
Y-78210D01*
X-59579Y-78226D01*
Y-78338D01*
X-59595Y-78354D01*
Y-78446D01*
X-59611Y-78478D01*
Y-78574D01*
X-59627Y-78606D01*
Y-78698D01*
X-59643Y-78714D01*
Y-78842D01*
X-59659Y-78870D01*
Y-79014D01*
X-59675Y-79046D01*
Y-79218D01*
X-59691Y-79250D01*
Y-79470D01*
X-59707Y-79486D01*
Y-79818D01*
X-59723Y-79850D01*
Y-80666D01*
X-59707Y-80762D01*
Y-80966D01*
X-59691Y-81078D01*
G37*
G36*
G01X-59107Y-76146D02*
X-59155Y-76338D01*
X-57439D01*
Y-75614D01*
X-53943D01*
Y-74886D01*
X-55831D01*
Y-74162D01*
X-52651D01*
Y-73454D01*
X-50983D01*
X-50967Y-73438D01*
Y-72730D01*
X-46619D01*
Y-73454D01*
X-42507D01*
Y-74162D01*
X-43263D01*
Y-74886D01*
X-34319D01*
Y-75614D01*
X-32431D01*
X-32479Y-75438D01*
X-32667Y-74966D01*
X-32731Y-74794D01*
X-32807Y-74634D01*
X-32871Y-74478D01*
X-32951Y-74322D01*
X-33011Y-74162D01*
X-33091Y-74022D01*
X-33251Y-73706D01*
X-33327Y-73566D01*
X-33423Y-73406D01*
X-33503Y-73266D01*
X-33579Y-73110D01*
X-33767Y-72826D01*
X-33863Y-72666D01*
X-33943Y-72526D01*
X-34035Y-72382D01*
X-34147Y-72242D01*
X-34243Y-72102D01*
X-34335Y-71974D01*
X-34447Y-71834D01*
X-34539Y-71690D01*
X-34651Y-71566D01*
X-34759Y-71422D01*
X-34871Y-71298D01*
X-34967Y-71170D01*
X-35091Y-71030D01*
X-35423Y-70650D01*
X-36147Y-69926D01*
X-36399Y-69706D01*
X-36539Y-69598D01*
X-36791Y-69374D01*
X-36935Y-69266D01*
X-37059Y-69154D01*
X-37203Y-69062D01*
X-37327Y-68950D01*
X-37611Y-68762D01*
X-37755Y-68650D01*
X-38035Y-68462D01*
X-38179Y-68382D01*
X-38319Y-68290D01*
X-38479Y-68194D01*
X-38619Y-68118D01*
X-38759Y-68022D01*
X-38919Y-67942D01*
X-39059Y-67866D01*
X-39531Y-67626D01*
X-39675Y-67550D01*
X-39831Y-67470D01*
X-39991Y-67406D01*
X-40147Y-67330D01*
X-40319Y-67266D01*
X-40791Y-67078D01*
X-40967Y-67014D01*
X-41123Y-66966D01*
X-41295Y-66902D01*
X-41455Y-66858D01*
X-41627Y-66810D01*
X-41783Y-66746D01*
X-42131Y-66650D01*
X-42303Y-66622D01*
X-42479Y-66574D01*
X-42651Y-66542D01*
X-42807Y-66494D01*
X-42999Y-66462D01*
X-43515Y-66370D01*
X-43691Y-66354D01*
X-43863Y-66322D01*
X-44051Y-66306D01*
X-44227Y-66274D01*
X-44399Y-66258D01*
X-44587Y-66242D01*
X-44759D01*
X-44951Y-66226D01*
X-45123Y-66210D01*
X-46051D01*
X-46255Y-66226D01*
X-46447D01*
X-46823Y-66258D01*
X-46999Y-66274D01*
X-47375Y-66306D01*
X-47563Y-66338D01*
X-47755Y-66354D01*
X-47927Y-66382D01*
X-48303Y-66446D01*
X-48479Y-66494D01*
X-48651Y-66526D01*
X-48839Y-66558D01*
X-49011Y-66606D01*
X-49203Y-66650D01*
X-49723Y-66794D01*
X-49895Y-66858D01*
X-50067Y-66902D01*
X-50759Y-67154D01*
X-50919Y-67218D01*
X-51091Y-67282D01*
X-51251Y-67362D01*
X-51423Y-67438D01*
X-51579Y-67502D01*
X-51755Y-67582D01*
X-52067Y-67738D01*
X-52227Y-67834D01*
X-52539Y-67990D01*
X-52855Y-68178D01*
X-52999Y-68274D01*
X-53311Y-68462D01*
X-53595Y-68650D01*
X-53755Y-68762D01*
X-53895Y-68858D01*
X-54603Y-69406D01*
X-54731Y-69518D01*
X-54871Y-69642D01*
X-54999Y-69754D01*
X-55139Y-69878D01*
X-55263Y-69990D01*
X-56019Y-70746D01*
X-56131Y-70886D01*
X-56255Y-71014D01*
X-56367Y-71154D01*
X-56479Y-71282D01*
X-56603Y-71422D01*
X-56823Y-71706D01*
X-56919Y-71850D01*
X-57139Y-72130D01*
X-57235Y-72274D01*
X-57343Y-72430D01*
X-57439Y-72574D01*
X-57531Y-72730D01*
X-57627Y-72870D01*
X-57815Y-73186D01*
X-57895Y-73346D01*
X-57991Y-73502D01*
X-58067Y-73658D01*
X-58163Y-73818D01*
X-58399Y-74290D01*
X-58479Y-74462D01*
X-58539Y-74622D01*
X-58619Y-74794D01*
X-58683Y-74950D01*
X-58747Y-75122D01*
X-58823Y-75298D01*
X-58887Y-75470D01*
X-58935Y-75626D01*
X-59059Y-75974D01*
X-59107Y-76146D01*
G37*
G36*
G01X-39251Y-81422D02*
X-39263Y-81438D01*
X-39279D01*
Y-81470D01*
X-39327Y-81518D01*
X-39359Y-81582D01*
X-39391Y-81598D01*
X-39423Y-81658D01*
X-39455Y-81690D01*
X-39471Y-81722D01*
X-39503Y-81754D01*
X-39515Y-81786D01*
X-39547Y-81818D01*
X-39579Y-81866D01*
X-39595Y-81894D01*
X-39627Y-81926D01*
X-39659Y-81974D01*
X-39691Y-82006D01*
X-39755Y-82102D01*
X-39783Y-82130D01*
X-39975Y-82414D01*
X-40019Y-82462D01*
X-40115Y-82606D01*
X-40163Y-82650D01*
X-40227Y-82746D01*
X-40271Y-82794D01*
X-40303Y-82842D01*
X-40335Y-82902D01*
X-40383Y-82950D01*
X-40447Y-83046D01*
X-40495Y-83094D01*
X-40523Y-83138D01*
X-40555Y-83202D01*
X-40603Y-83250D01*
X-40667Y-83346D01*
X-40715Y-83390D01*
X-40747Y-83438D01*
X-40775Y-83502D01*
X-40807Y-83550D01*
X-40855Y-83598D01*
X-40983Y-83786D01*
X-41027Y-83818D01*
X-41155Y-84006D01*
X-41187Y-84038D01*
X-41219Y-84086D01*
X-41235Y-84118D01*
X-41263Y-84162D01*
X-41295Y-84194D01*
X-41327Y-84242D01*
X-41359Y-84274D01*
X-41375Y-84306D01*
X-41407Y-84338D01*
X-41423Y-84370D01*
X-41455Y-84398D01*
X-41471Y-84430D01*
X-41503Y-84462D01*
X-41531Y-84526D01*
X-41547Y-84542D01*
X-41563Y-84574D01*
X-41595Y-84606D01*
X-41611Y-84634D01*
X-41643Y-84666D01*
Y-84682D01*
X-41659D01*
Y-84698D01*
X-41691Y-84730D01*
X-42271D01*
Y-84746D01*
X-42319Y-84794D01*
Y-84810D01*
X-42351Y-84842D01*
X-42367Y-84870D01*
X-42383Y-84886D01*
X-42399Y-84918D01*
X-42415Y-84934D01*
X-42431Y-84966D01*
X-42479Y-85014D01*
X-42495Y-85046D01*
X-42523Y-85078D01*
X-42539Y-85110D01*
X-42571Y-85138D01*
X-42587Y-85170D01*
X-42619Y-85218D01*
X-42651Y-85250D01*
X-42667Y-85282D01*
X-42699Y-85330D01*
X-42759Y-85390D01*
X-42823Y-85486D01*
X-42855Y-85518D01*
X-42919Y-85614D01*
X-42951Y-85642D01*
X-43043Y-85786D01*
X-43075Y-85818D01*
X-43203Y-86006D01*
X-43251Y-86054D01*
X-43375Y-86242D01*
X-43423Y-86290D01*
X-43547Y-86478D01*
X-43595Y-86526D01*
X-43691Y-86666D01*
X-43723Y-86698D01*
X-43815Y-86842D01*
X-43895Y-86918D01*
X-43991Y-87062D01*
X-44003Y-87094D01*
X-44035Y-87138D01*
X-44067Y-87170D01*
X-44099Y-87218D01*
X-44131Y-87250D01*
X-44163Y-87298D01*
X-44179Y-87330D01*
X-44243Y-87390D01*
X-44255Y-87438D01*
X-44287Y-87470D01*
X-44303Y-87502D01*
X-44351Y-87550D01*
X-44367Y-87582D01*
X-44399Y-87614D01*
X-44415Y-87642D01*
X-44431Y-87658D01*
X-44447Y-87690D01*
X-44479Y-87722D01*
X-44495Y-87754D01*
X-44523Y-87786D01*
Y-87802D01*
X-44539D01*
Y-87818D01*
X-44571Y-87850D01*
X-33879D01*
X-33831Y-87802D01*
X-33767Y-87674D01*
X-33723Y-87626D01*
X-33659Y-87502D01*
X-33627Y-87454D01*
X-33579Y-87390D01*
X-33515Y-87266D01*
X-33487Y-87218D01*
X-33391Y-87030D01*
X-33359Y-86982D01*
X-33311Y-86918D01*
X-33219Y-86730D01*
X-33187Y-86682D01*
X-33123Y-86558D01*
X-33107Y-86494D01*
X-33011Y-86306D01*
X-32983Y-86258D01*
X-32919Y-86130D01*
X-32903Y-86070D01*
X-32775Y-85818D01*
X-32759Y-85754D01*
X-32699Y-85626D01*
X-32683Y-85566D01*
X-32651Y-85502D01*
X-32635Y-85438D01*
X-32571Y-85314D01*
X-32555Y-85250D01*
X-32523Y-85186D01*
X-32507Y-85110D01*
X-32479Y-85046D01*
X-32463Y-84982D01*
X-32431Y-84918D01*
X-32415Y-84858D01*
X-32383Y-84794D01*
X-32351Y-84666D01*
X-32319Y-84590D01*
X-32287Y-84462D01*
X-32255Y-84398D01*
X-32227Y-84258D01*
X-32195Y-84194D01*
X-32147Y-84006D01*
X-32131Y-83926D01*
X-32115Y-83866D01*
X-32083Y-83802D01*
X-32067Y-83722D01*
X-32019Y-83534D01*
X-32003Y-83454D01*
X-31975Y-83330D01*
X-31959Y-83250D01*
X-31927Y-83122D01*
X-31911Y-83046D01*
Y-82982D01*
X-31895Y-82918D01*
X-31879Y-82842D01*
X-31863Y-82778D01*
X-31847Y-82698D01*
Y-82634D01*
X-31831Y-82574D01*
X-31815Y-82494D01*
X-31799Y-82430D01*
Y-82354D01*
X-31783Y-82290D01*
X-31767Y-82210D01*
Y-82146D01*
X-31755Y-82086D01*
Y-82006D01*
X-31739Y-81942D01*
Y-81866D01*
X-31723Y-81802D01*
Y-81722D01*
X-31707Y-81658D01*
Y-81582D01*
X-31691Y-81518D01*
Y-81374D01*
X-39219D01*
X-39251Y-81406D01*
Y-81422D01*
G37*
G36*
G01X-37627Y-80650D02*
X-35235D01*
Y-79926D01*
X-31643D01*
Y-79690D01*
X-31659Y-79658D01*
Y-79374D01*
X-31675Y-79346D01*
Y-79170D01*
X-31691Y-79138D01*
Y-78966D01*
X-31707Y-78934D01*
Y-78810D01*
X-31723Y-78778D01*
Y-78666D01*
X-31739Y-78634D01*
Y-78526D01*
X-31755Y-78494D01*
Y-78414D01*
X-31767Y-78382D01*
Y-78290D01*
X-31783Y-78258D01*
Y-78178D01*
X-31799Y-78146D01*
Y-78070D01*
X-31815Y-78038D01*
Y-77974D01*
X-31831Y-77958D01*
Y-77894D01*
X-31847Y-77866D01*
Y-77786D01*
X-31863Y-77754D01*
Y-77690D01*
X-31879Y-77658D01*
Y-77614D01*
X-31895Y-77582D01*
Y-77550D01*
X-31911Y-77534D01*
Y-77470D01*
X-31927Y-77438D01*
Y-77390D01*
X-31943Y-77362D01*
Y-77298D01*
X-31959Y-77266D01*
Y-77250D01*
X-31975Y-77218D01*
Y-77154D01*
X-31991Y-77138D01*
Y-77110D01*
X-32003Y-77078D01*
Y-77046D01*
X-33547D01*
Y-77770D01*
X-32999D01*
Y-78494D01*
X-33895D01*
Y-79202D01*
X-36287D01*
Y-79926D01*
X-37627D01*
Y-80650D01*
G37*
G36*
G01X-42179Y-82698D02*
X-40635Y-80650D01*
X-44099D01*
X-42319Y-82698D01*
X-42179D01*
G37*
G36*
G01X-35000Y-10740D02*
G02X-37800Y-7940I0J2800D01*
G01Y23781D01*
G02X-37137Y24082I400J0D01*
G03X-35568Y23492I1570J1793D01*
G01X-33008D01*
G03Y28258I0J2383D01*
G01X-35568D01*
G03X-37137Y27668I1J-2383D01*
G02X-37800Y27969I-263J301D01*
G01Y51340D01*
G02X-37137Y51641I400J0D01*
G03X-35568Y51051I1570J1793D01*
G01X-33008D01*
G03Y55817I0J2383D01*
G01X-35568D01*
G03X-37137Y55227I1J-2383D01*
G02X-37800Y55528I-263J301D01*
G01Y87240D01*
G02X-35000Y90040I2800J0D01*
G01X2799D01*
G02X3082Y89357I0J-400D01*
G01X1976Y88251D01*
X1844Y88324D01*
G03X-2615Y82242I-1844J-3324D01*
G02X-2890Y81552I-275J-290D01*
G01X-18660D01*
X-24452Y75760D01*
Y57040D01*
X-21360Y53948D01*
X-13774D01*
X-13756Y53950D01*
X362D01*
X2540Y56129D01*
G02X3223Y55846I283J-283D01*
G01Y55180D01*
X4648D01*
Y54741D01*
X6941Y52448D01*
X11100D01*
Y51771D01*
X11658D01*
Y50729D01*
X11100D01*
Y46671D01*
X11658D01*
Y45629D01*
X11200D01*
Y44952D01*
X6640D01*
X5802Y44114D01*
X5763Y44098D01*
G03X5591Y44019I538J-1398D01*
G02X5002Y44372I-189J352D01*
G01Y50254D01*
G03X3198I-902J1196D01*
G01Y42673D01*
X-923Y38552D01*
X-8273D01*
X-11076Y35749D01*
Y22129D01*
X-12065D01*
Y18071D01*
X-8283D01*
Y22129D01*
X-9272D01*
Y35003D01*
X-7527Y36748D01*
X-682D01*
G02X-285Y36296I1J-400D01*
G03X298Y34904I1485J-196D01*
G01Y23627D01*
X14277Y9648D01*
X19477D01*
X25482Y3643D01*
G02X25341Y3302I-141J-141D01*
G01X25173D01*
X19773Y8702D01*
X708D01*
X692Y8884D01*
G03X-681Y7257I-1492J-134D01*
G01X-589Y7264D01*
X-223Y6898D01*
X19027D01*
X24082Y1843D01*
G02X23941Y1502I-141J-141D01*
G01X23573D01*
X19273Y5802D01*
X3296D01*
G03Y3998I-1196J-902D01*
G01X18527D01*
X22827Y-302D01*
X28027D01*
X28595Y-870D01*
G02X28473Y-1519I-283J-283D01*
G03X31046Y-1346I1526J-3481D01*
G01X30902Y-1304D01*
Y-627D01*
X29459Y816D01*
G02X29742Y1498I283J282D01*
G01X37127D01*
X39098Y-473D01*
Y-1304D01*
X38954Y-1346D01*
G03X41046I1046J-3654D01*
G01X40902Y-1304D01*
Y289D01*
G02X41242Y898I340J209D01*
G01X47327D01*
X49098Y-873D01*
Y-1304D01*
X48954Y-1346D01*
G03X51046I1046J-3654D01*
G01X50902Y-1304D01*
Y-127D01*
X48073Y2702D01*
X41073D01*
X39073Y4702D01*
X30414D01*
G02X30074Y5312I0J400D01*
G03X29702Y7296I-1274J788D01*
G01Y9973D01*
X26823Y12852D01*
X18723D01*
X15902Y15673D01*
Y17704D01*
G03X16451Y19272I-902J1196D01*
G02X16839Y19771I388J99D01*
G01X19497D01*
G02X19803Y19114I0J-400D01*
G03X21069Y16657I1147J-964D01*
G01X21161Y16664D01*
X21327Y16498D01*
X24573D01*
X26902Y18827D01*
Y29927D01*
X27973Y30998D01*
X56508D01*
G02X56791Y30316I0J-400D01*
G01X47027Y20552D01*
X34298D01*
X34243Y20663D01*
G03X31488Y20502I-1343J-663D01*
G02X31112I-188J66D01*
G03X31069Y20609I-1411J-505D01*
G01X31052Y20647D01*
Y20950D01*
X32001Y21900D01*
X34029D01*
Y22458D01*
X43870D01*
X45942Y24530D01*
Y25571D01*
X46500D01*
Y26248D01*
X48340D01*
X48536Y26052D01*
X48552Y26013D01*
G03X50487Y27948I1398J537D01*
G01X50448Y27964D01*
X49460Y28952D01*
X46500D01*
Y29629D01*
X42820D01*
Y29729D01*
X38800D01*
Y25162D01*
X34029D01*
Y25580D01*
X34129D01*
Y29600D01*
X29871D01*
Y25580D01*
X29971D01*
Y23692D01*
X28348Y22070D01*
Y20647D01*
X28331Y20609D01*
G03X30963Y19194I1368J-610D01*
G02X31637I337J-215D01*
G03X33723Y18748I1263J806D01*
G01X47773D01*
X57973Y28948D01*
X70058D01*
G02X70341Y28266I0J-400D01*
G01X60027Y17952D01*
X37477D01*
X35698Y16173D01*
Y15246D01*
G03X37572Y15190I902J-1196D01*
G01X37502Y15250D01*
Y15427D01*
X38223Y16148D01*
X60773D01*
X84002Y39377D01*
Y46477D01*
X86623Y49098D01*
X86985D01*
X87024Y48950D01*
G03X94976I3976J1050D01*
G01X95015Y49098D01*
X97500D01*
Y40902D01*
X95015D01*
X94976Y41050D01*
G03Y38950I-3976J-1050D01*
G01X95015Y39098D01*
X97500D01*
Y19952D01*
X95112D01*
Y24112D01*
X86888D01*
Y20652D01*
X75500D01*
G03Y17448I0J-1602D01*
G01X86888D01*
Y15888D01*
X95112D01*
Y16748D01*
X97500D01*
Y-10740D01*
X-35000D01*
G37*
G36*
G01X-21203Y-91422D02*
X-21879Y-92746D01*
X-22335D01*
X-23011Y-91422D01*
Y-93454D01*
X-23691D01*
Y-89974D01*
X-23011D01*
X-22099Y-91866D01*
X-21203Y-89974D01*
X-20523D01*
Y-93454D01*
X-21203D01*
Y-91422D01*
G37*
G36*
G01X-26855Y-89974D02*
X-24555D01*
Y-90574D01*
X-26163D01*
Y-91390D01*
X-24791D01*
Y-92006D01*
X-26163D01*
Y-92858D01*
X-24555D01*
Y-93454D01*
X-26855D01*
Y-89974D01*
G37*
G36*
G01X-23831Y-75138D02*
X-23879Y-75154D01*
X-23911Y-75170D01*
X-23959Y-75186D01*
X-23991Y-75218D01*
X-24035Y-75234D01*
X-24067Y-75266D01*
X-24099Y-75282D01*
X-24147Y-75314D01*
X-24271Y-75438D01*
X-24319Y-75470D01*
X-24351Y-75502D01*
X-24367Y-75534D01*
X-24399Y-75582D01*
X-24463Y-75642D01*
X-24479Y-75690D01*
X-24507Y-75722D01*
X-24523Y-75770D01*
X-24539Y-75802D01*
X-24555Y-75850D01*
X-24587Y-75878D01*
X-24603Y-75926D01*
Y-75958D01*
X-24651Y-76102D01*
Y-76146D01*
X-24667Y-76178D01*
Y-76274D01*
X-24683Y-76322D01*
Y-84178D01*
X-24667Y-84226D01*
Y-84306D01*
X-24651Y-84354D01*
Y-84398D01*
X-24635Y-84430D01*
X-24603Y-84526D01*
X-24587Y-84558D01*
X-24555Y-84650D01*
X-24539Y-84682D01*
X-24523Y-84730D01*
X-24495Y-84762D01*
X-24479Y-84794D01*
X-24447Y-84842D01*
X-24431Y-84870D01*
X-24399Y-84902D01*
X-24367Y-84950D01*
X-24271Y-85046D01*
X-24243Y-85094D01*
X-24195Y-85122D01*
X-24163Y-85154D01*
X-24131Y-85170D01*
X-24099Y-85202D01*
X-24051Y-85234D01*
X-24019Y-85250D01*
X-23975Y-85282D01*
X-23943Y-85298D01*
X-23895Y-85330D01*
X-23863Y-85346D01*
X-23815Y-85362D01*
X-23783Y-85374D01*
X-23739Y-85390D01*
X-23707Y-85406D01*
X-23659Y-85422D01*
X-23611D01*
X-23563Y-85438D01*
X-23531D01*
X-23487Y-85454D01*
X-22791D01*
X-22747Y-85438D01*
X-22699D01*
X-22651Y-85422D01*
X-22619D01*
X-22523Y-85390D01*
X-22495Y-85374D01*
X-22399Y-85346D01*
X-22367Y-85330D01*
X-22319Y-85314D01*
X-22287Y-85282D01*
X-22243Y-85266D01*
X-22211Y-85234D01*
X-22179Y-85218D01*
X-22131Y-85186D01*
X-21911Y-84966D01*
X-21879Y-84918D01*
X-21847Y-84886D01*
X-21831Y-84858D01*
X-21799Y-84810D01*
X-21783Y-84778D01*
X-21755Y-84730D01*
X-21739Y-84698D01*
X-21723Y-84650D01*
X-21707Y-84622D01*
X-21691Y-84574D01*
X-21675Y-84542D01*
X-21627Y-84398D01*
Y-84370D01*
X-21611Y-84322D01*
Y-84226D01*
X-21595Y-84178D01*
Y-82666D01*
X-21579Y-82650D01*
Y-82622D01*
X-21563Y-82606D01*
Y-82590D01*
X-21547Y-82574D01*
X-21531D01*
Y-82558D01*
X-21515Y-82542D01*
X-21503D01*
X-21471Y-82510D01*
X-21391D01*
X-21375Y-82494D01*
X-19503D01*
X-19487Y-82510D01*
X-19407D01*
X-19375Y-82542D01*
X-19359D01*
X-19343Y-82558D01*
Y-82574D01*
X-19327D01*
X-19311Y-82590D01*
Y-82622D01*
X-19295Y-82634D01*
Y-82666D01*
X-19279Y-82682D01*
Y-84338D01*
X-19311Y-84590D01*
X-19327Y-84698D01*
X-19343Y-84826D01*
X-19375Y-84934D01*
X-19391Y-85062D01*
X-19439Y-85170D01*
X-19503Y-85390D01*
X-19643Y-85722D01*
X-19707Y-85834D01*
X-19755Y-85926D01*
X-19815Y-86038D01*
X-19879Y-86130D01*
X-19959Y-86226D01*
X-20019Y-86338D01*
X-20179Y-86526D01*
X-20271Y-86606D01*
X-20351Y-86698D01*
X-20447Y-86794D01*
X-20823Y-87110D01*
X-20935Y-87170D01*
X-21123Y-87298D01*
X-21235Y-87362D01*
X-21343Y-87406D01*
X-21439Y-87470D01*
X-21547Y-87518D01*
X-21659Y-87550D01*
X-21767Y-87598D01*
X-21895Y-87626D01*
X-22115Y-87690D01*
X-22243Y-87722D01*
X-22351Y-87738D01*
X-22603Y-87770D01*
X-22731D01*
X-22855Y-87786D01*
X-23423D01*
X-23547Y-87770D01*
X-23675D01*
X-23927Y-87738D01*
X-24035Y-87722D01*
X-24163Y-87690D01*
X-24383Y-87626D01*
X-24507Y-87598D01*
X-24619Y-87550D01*
X-24731Y-87518D01*
X-24839Y-87470D01*
X-24935Y-87406D01*
X-25043Y-87362D01*
X-25155Y-87298D01*
X-25251Y-87234D01*
X-25359Y-87170D01*
X-25455Y-87110D01*
X-25831Y-86794D01*
X-25927Y-86698D01*
X-26003Y-86606D01*
X-26099Y-86526D01*
X-26255Y-86338D01*
X-26319Y-86226D01*
X-26399Y-86130D01*
X-26463Y-86038D01*
X-26523Y-85926D01*
X-26571Y-85834D01*
X-26635Y-85722D01*
X-26775Y-85390D01*
X-26807Y-85282D01*
X-26855Y-85170D01*
X-26887Y-85062D01*
X-26903Y-84934D01*
X-26935Y-84826D01*
X-26951Y-84698D01*
X-26967Y-84590D01*
X-26999Y-84338D01*
Y-76162D01*
X-26967Y-75910D01*
X-26951Y-75802D01*
X-26935Y-75674D01*
X-26903Y-75566D01*
X-26887Y-75438D01*
X-26855Y-75330D01*
X-26807Y-75218D01*
X-26775Y-75110D01*
X-26635Y-74778D01*
X-26571Y-74666D01*
X-26523Y-74574D01*
X-26463Y-74462D01*
X-26399Y-74370D01*
X-26319Y-74274D01*
X-26255Y-74162D01*
X-26099Y-73974D01*
X-26003Y-73894D01*
X-25927Y-73802D01*
X-25831Y-73706D01*
X-25455Y-73390D01*
X-25359Y-73330D01*
X-25251Y-73266D01*
X-25155Y-73202D01*
X-24935Y-73078D01*
X-24839Y-73030D01*
X-24731Y-72982D01*
X-24619Y-72950D01*
X-24507Y-72902D01*
X-24383Y-72870D01*
X-24163Y-72810D01*
X-24035Y-72778D01*
X-23927Y-72762D01*
X-23675Y-72730D01*
X-23547D01*
X-23423Y-72714D01*
X-22855D01*
X-22731Y-72730D01*
X-22603D01*
X-22227Y-72778D01*
X-22115Y-72810D01*
X-21991Y-72842D01*
X-21659Y-72934D01*
X-21327Y-73078D01*
X-21219Y-73138D01*
X-21123Y-73186D01*
X-21011Y-73250D01*
X-20919Y-73314D01*
X-20807Y-73390D01*
X-20715Y-73454D01*
X-20523Y-73614D01*
X-20447Y-73706D01*
X-20351Y-73786D01*
X-20255Y-73878D01*
X-19943Y-74258D01*
X-19815Y-74446D01*
X-19691Y-74666D01*
X-19643Y-74762D01*
X-19503Y-75094D01*
X-19471Y-75202D01*
X-19423Y-75314D01*
X-19391Y-75438D01*
X-19375Y-75550D01*
X-19343Y-75674D01*
X-19327Y-75786D01*
X-19279Y-76162D01*
Y-77818D01*
X-19295Y-77834D01*
Y-77866D01*
X-19311Y-77878D01*
Y-77894D01*
X-19327Y-77910D01*
X-19343D01*
Y-77926D01*
X-19359Y-77942D01*
X-19375D01*
X-19391Y-77958D01*
X-19407D01*
X-19423Y-77974D01*
X-21455D01*
X-21471Y-77958D01*
X-21487D01*
X-21503Y-77942D01*
X-21515D01*
X-21531Y-77926D01*
Y-77910D01*
X-21547D01*
X-21563Y-77894D01*
Y-77878D01*
X-21579D01*
Y-77850D01*
X-21595Y-77834D01*
Y-76322D01*
X-21611Y-76274D01*
Y-76178D01*
X-21627Y-76146D01*
Y-76102D01*
X-21675Y-75958D01*
X-21691Y-75926D01*
X-21707Y-75878D01*
X-21723Y-75850D01*
X-21739Y-75802D01*
X-21755Y-75770D01*
X-21783Y-75722D01*
X-21799Y-75690D01*
X-21831Y-75642D01*
X-21847Y-75614D01*
X-21879Y-75582D01*
X-21911Y-75534D01*
X-22131Y-75314D01*
X-22179Y-75282D01*
X-22211Y-75266D01*
X-22243Y-75234D01*
X-22287Y-75218D01*
X-22319Y-75186D01*
X-22367Y-75170D01*
X-22399Y-75154D01*
X-22495Y-75122D01*
X-22523Y-75110D01*
X-22619Y-75078D01*
X-22651D01*
X-22699Y-75062D01*
X-22747D01*
X-22791Y-75046D01*
X-23487D01*
X-23531Y-75062D01*
X-23579D01*
X-23627Y-75078D01*
X-23675D01*
X-23707Y-75094D01*
X-23799Y-75122D01*
X-23831Y-75138D01*
G37*
G36*
G01X-17847Y-93454D02*
X-19515D01*
Y-89974D01*
X-17927D01*
X-17911Y-89990D01*
X-17815D01*
X-17799Y-90006D01*
X-17739D01*
X-17723Y-90022D01*
X-17691D01*
X-17675Y-90038D01*
X-17643D01*
X-17627Y-90054D01*
X-17611D01*
X-17595Y-90070D01*
X-17563D01*
X-17547Y-90086D01*
X-17531D01*
Y-90102D01*
X-17515D01*
X-17503Y-90118D01*
X-17487D01*
X-17471Y-90130D01*
X-17455D01*
X-17423Y-90162D01*
X-17407D01*
X-17391Y-90178D01*
X-17375D01*
Y-90194D01*
X-17359Y-90210D01*
X-17343D01*
X-17327Y-90226D01*
Y-90242D01*
X-17311D01*
X-17295Y-90258D01*
Y-90274D01*
X-17279D01*
X-17263Y-90290D01*
Y-90306D01*
X-17251D01*
X-17235Y-90322D01*
Y-90338D01*
X-17203Y-90370D01*
Y-90382D01*
X-17187Y-90398D01*
Y-90414D01*
X-17171D01*
Y-90430D01*
X-17155Y-90446D01*
Y-90462D01*
X-17139Y-90478D01*
Y-90494D01*
X-17123D01*
Y-90526D01*
X-17107Y-90542D01*
Y-90574D01*
X-17091Y-90590D01*
Y-90622D01*
X-17075Y-90634D01*
Y-90682D01*
X-17059Y-90698D01*
Y-90762D01*
X-17043Y-90778D01*
Y-91094D01*
X-17059Y-91110D01*
Y-91170D01*
X-17075D01*
Y-91218D01*
X-17091D01*
Y-91266D01*
X-17107D01*
Y-91298D01*
X-17123Y-91314D01*
Y-91330D01*
X-17139D01*
Y-91362D01*
X-17155D01*
Y-91374D01*
X-17171Y-91390D01*
Y-91406D01*
X-17187D01*
Y-91438D01*
X-17203D01*
Y-91454D01*
X-17219D01*
Y-91470D01*
X-17235D01*
Y-91486D01*
X-17251D01*
Y-91502D01*
X-17327Y-91582D01*
X-17343D01*
Y-91598D01*
X-17359D01*
Y-91614D01*
X-17375D01*
X-17391Y-91626D01*
X-17407D01*
Y-91642D01*
X-17439D01*
Y-91658D01*
X-17455D01*
X-17471Y-91674D01*
X-17455D01*
X-17439Y-91690D01*
X-17423D01*
X-17407Y-91706D01*
X-17391D01*
Y-91722D01*
X-17359D01*
Y-91738D01*
X-17343D01*
X-17327Y-91754D01*
X-17311D01*
Y-91770D01*
X-17295D01*
Y-91786D01*
X-17279D01*
Y-91802D01*
X-17263D01*
X-17187Y-91878D01*
Y-91894D01*
X-17171D01*
Y-91910D01*
X-17155D01*
Y-91926D01*
X-17139D01*
Y-91942D01*
X-17123Y-91958D01*
Y-91974D01*
X-17107D01*
Y-92006D01*
X-17091D01*
Y-92038D01*
X-17075D01*
Y-92070D01*
X-17059D01*
Y-92102D01*
X-17043Y-92118D01*
Y-92146D01*
X-17027D01*
Y-92194D01*
X-17011Y-92210D01*
Y-92258D01*
X-16999Y-92274D01*
Y-92634D01*
X-17011Y-92666D01*
Y-92730D01*
X-17027Y-92746D01*
Y-92794D01*
X-17043Y-92810D01*
Y-92842D01*
X-17059Y-92858D01*
Y-92870D01*
X-17075Y-92886D01*
Y-92918D01*
X-17091Y-92934D01*
Y-92950D01*
X-17107Y-92966D01*
Y-92982D01*
X-17123D01*
Y-92998D01*
X-17139Y-93014D01*
Y-93030D01*
X-17155Y-93046D01*
Y-93062D01*
X-17171D01*
Y-93078D01*
X-17235Y-93138D01*
Y-93154D01*
X-17251D01*
X-17263Y-93170D01*
Y-93186D01*
X-17279D01*
X-17295Y-93202D01*
Y-93218D01*
X-17311D01*
X-17359Y-93266D01*
X-17375D01*
X-17391Y-93282D01*
X-17407D01*
Y-93298D01*
X-17423D01*
X-17439Y-93314D01*
X-17455D01*
X-17471Y-93330D01*
X-17487D01*
X-17503Y-93346D01*
X-17515D01*
Y-93362D01*
X-17531D01*
X-17547Y-93374D01*
X-17579D01*
X-17595Y-93390D01*
X-17627D01*
X-17643Y-93406D01*
X-17675D01*
X-17691Y-93422D01*
X-17739D01*
X-17755Y-93438D01*
X-17831D01*
X-17847Y-93454D01*
G37*
G36*
G01X-13187Y-87550D02*
Y-87566D01*
X-13203Y-87582D01*
X-13219D01*
Y-87598D01*
X-13235D01*
Y-87614D01*
X-13263D01*
Y-87626D01*
X-13311D01*
Y-87642D01*
X-15295D01*
X-15311Y-87626D01*
X-15343D01*
X-15359Y-87614D01*
X-15375D01*
X-15423Y-87566D01*
Y-87550D01*
X-15439D01*
Y-87534D01*
X-15455Y-87518D01*
Y-87470D01*
X-15471D01*
Y-81078D01*
X-15487D01*
Y-80998D01*
X-15503D01*
Y-80934D01*
X-15515D01*
Y-80886D01*
X-15531D01*
Y-80858D01*
X-15547Y-80842D01*
Y-80810D01*
X-15563Y-80778D01*
Y-80746D01*
X-15579Y-80730D01*
Y-80698D01*
X-15595Y-80682D01*
Y-80650D01*
X-15611Y-80634D01*
Y-80606D01*
X-15627Y-80590D01*
Y-80558D01*
X-15643Y-80526D01*
Y-80510D01*
X-15659Y-80478D01*
Y-80446D01*
X-15691Y-80382D01*
Y-80354D01*
X-15707Y-80322D01*
Y-80290D01*
X-15739Y-80226D01*
Y-80194D01*
X-15755Y-80146D01*
X-15783Y-80086D01*
Y-80038D01*
X-15815Y-79974D01*
X-15831Y-79926D01*
Y-79894D01*
X-15863Y-79802D01*
X-15879Y-79770D01*
X-15895Y-79722D01*
Y-79674D01*
X-15911Y-79642D01*
X-16067Y-79170D01*
X-16083Y-79110D01*
X-16131Y-78966D01*
X-16147Y-78902D01*
X-16179Y-78810D01*
X-16195Y-78746D01*
X-16227Y-78698D01*
X-16243Y-78634D01*
X-16255Y-78590D01*
X-16271Y-78526D01*
X-16287Y-78478D01*
X-16303Y-78414D01*
X-16335Y-78370D01*
X-16383Y-78178D01*
X-16415Y-78130D01*
X-16447Y-78006D01*
X-16479Y-77942D01*
X-16495Y-77878D01*
X-16507Y-77834D01*
X-16539Y-77770D01*
X-16571Y-77642D01*
X-16603Y-77582D01*
X-16619Y-77518D01*
X-16651Y-77454D01*
X-16683Y-77330D01*
X-16715Y-77266D01*
X-16731Y-77186D01*
X-16759Y-77122D01*
X-16775Y-77062D01*
X-16807Y-76998D01*
X-16823Y-76934D01*
X-16855Y-76858D01*
X-16887Y-76794D01*
X-16903Y-76730D01*
X-16935Y-76666D01*
X-16951Y-76590D01*
X-16967D01*
Y-76542D01*
X-16983Y-76526D01*
Y-76510D01*
X-16999Y-76494D01*
Y-76478D01*
X-17011Y-76446D01*
Y-76430D01*
X-17027Y-76398D01*
Y-76382D01*
X-17059Y-76322D01*
Y-76290D01*
X-17091Y-76226D01*
Y-76194D01*
X-17107Y-76162D01*
X-17123Y-76118D01*
X-17139Y-76086D01*
X-17155Y-76038D01*
X-17171Y-76006D01*
X-17187Y-75958D01*
X-17203Y-75926D01*
X-17359Y-75454D01*
X-17391Y-75406D01*
X-17407Y-75362D01*
X-17423Y-75298D01*
X-17471Y-75154D01*
X-17503Y-75094D01*
X-17531Y-74998D01*
X-17547Y-74934D01*
X-17563Y-74886D01*
X-17595Y-74842D01*
X-17611Y-74778D01*
X-17643Y-74682D01*
X-17675Y-74622D01*
X-17707Y-74526D01*
X-17723Y-74462D01*
X-17755Y-74370D01*
X-17783Y-74322D01*
X-17799Y-74258D01*
X-17879Y-74022D01*
X-17911Y-73974D01*
X-17975Y-73786D01*
X-17991Y-73754D01*
X-18019Y-73658D01*
Y-73626D01*
X-18035Y-73582D01*
X-18067Y-73518D01*
X-18083Y-73470D01*
X-18099Y-73438D01*
Y-73406D01*
X-18147Y-73314D01*
Y-73298D01*
X-18163Y-73266D01*
Y-73234D01*
X-18179Y-73218D01*
Y-73202D01*
X-18195Y-73170D01*
Y-73154D01*
X-18211Y-73138D01*
Y-73110D01*
X-18227D01*
Y-73062D01*
X-18243Y-73046D01*
Y-72966D01*
X-18227D01*
Y-72934D01*
X-18211D01*
Y-72918D01*
X-18179Y-72886D01*
X-18163D01*
Y-72870D01*
X-18131D01*
X-18115Y-72858D01*
X-16003D01*
Y-72870D01*
X-15943D01*
Y-72886D01*
X-15911D01*
X-15895Y-72902D01*
X-15879D01*
Y-72918D01*
X-15847D01*
Y-72934D01*
X-15831D01*
Y-72950D01*
X-15815D01*
Y-72966D01*
X-15799D01*
Y-72982D01*
X-15783Y-72998D01*
Y-73014D01*
X-15767D01*
Y-73046D01*
X-15755D01*
Y-73078D01*
X-15739Y-73094D01*
Y-73122D01*
X-15723Y-73138D01*
Y-73170D01*
X-15707Y-73186D01*
Y-73218D01*
X-15691Y-73234D01*
Y-73266D01*
X-15675Y-73298D01*
Y-73330D01*
X-15627Y-73422D01*
Y-73454D01*
X-15611Y-73502D01*
X-15595Y-73534D01*
X-15563Y-73626D01*
X-15547Y-73658D01*
Y-73706D01*
X-15487Y-73894D01*
X-15455Y-73958D01*
X-15423Y-74054D01*
X-15407Y-74118D01*
X-15391Y-74162D01*
X-15375Y-74226D01*
X-15359Y-74274D01*
X-15343Y-74338D01*
X-15311Y-74382D01*
X-15279Y-74510D01*
X-15263Y-74558D01*
X-15251Y-74622D01*
X-15219Y-74682D01*
X-15187Y-74810D01*
X-15171Y-74858D01*
X-15139Y-74918D01*
X-15091Y-75110D01*
X-15059Y-75170D01*
X-15043Y-75234D01*
X-15027Y-75282D01*
X-15011Y-75346D01*
X-14983Y-75406D01*
X-14951Y-75534D01*
X-14935Y-75582D01*
X-14903Y-75642D01*
X-14871Y-75770D01*
X-14855Y-75818D01*
X-14839Y-75878D01*
X-14807Y-75942D01*
X-14791Y-75990D01*
X-14775Y-76054D01*
X-14747Y-76146D01*
X-14731Y-76210D01*
X-14587Y-76634D01*
X-14571Y-76666D01*
X-14555Y-76714D01*
X-14539Y-76746D01*
Y-76794D01*
X-14507Y-76858D01*
Y-76886D01*
X-14479Y-76950D01*
Y-76966D01*
X-14463Y-76998D01*
Y-77014D01*
X-14447Y-77046D01*
Y-77078D01*
X-14431Y-77094D01*
Y-77138D01*
X-14415D01*
Y-77154D01*
X-14367Y-77202D01*
X-14351D01*
Y-77218D01*
X-14271D01*
Y-77202D01*
X-14255D01*
X-14227Y-77170D01*
Y-77154D01*
X-14211D01*
Y-77122D01*
X-14195Y-77110D01*
Y-77078D01*
X-14179Y-77062D01*
Y-77046D01*
X-14163Y-77014D01*
Y-76998D01*
X-14147Y-76966D01*
Y-76950D01*
X-14131Y-76918D01*
Y-76886D01*
X-14099Y-76826D01*
Y-76794D01*
X-14083Y-76746D01*
X-14067Y-76714D01*
X-14051Y-76666D01*
X-14035Y-76634D01*
X-14003Y-76542D01*
Y-76494D01*
X-13943Y-76306D01*
X-13911Y-76258D01*
X-13895Y-76210D01*
X-13879Y-76146D01*
X-13847Y-76054D01*
X-13831Y-75990D01*
X-13815Y-75942D01*
X-13799Y-75878D01*
X-13767Y-75818D01*
X-13723Y-75642D01*
X-13691Y-75582D01*
X-13675Y-75534D01*
X-13643Y-75406D01*
X-13611Y-75346D01*
X-13595Y-75282D01*
X-13579Y-75234D01*
X-13563Y-75170D01*
X-13531Y-75110D01*
X-13503Y-74982D01*
X-13471Y-74918D01*
X-13455Y-74858D01*
X-13439Y-74810D01*
X-13423Y-74746D01*
X-13391Y-74682D01*
X-13359Y-74558D01*
X-13343Y-74510D01*
X-13311Y-74446D01*
X-13295Y-74382D01*
X-13279Y-74338D01*
X-13235Y-74162D01*
X-13203Y-74118D01*
X-13187Y-74054D01*
X-13155Y-73958D01*
X-13139Y-73894D01*
X-13059Y-73658D01*
X-13043Y-73626D01*
X-13011Y-73534D01*
Y-73502D01*
X-12999Y-73454D01*
X-12967Y-73390D01*
Y-73362D01*
X-12935Y-73298D01*
Y-73266D01*
X-12919Y-73234D01*
Y-73218D01*
X-12903Y-73186D01*
Y-73170D01*
X-12887Y-73154D01*
Y-73122D01*
X-12871Y-73110D01*
Y-73078D01*
X-12855Y-73062D01*
Y-73030D01*
X-12839D01*
Y-72998D01*
X-12823D01*
Y-72982D01*
X-12775Y-72934D01*
X-12759D01*
Y-72918D01*
X-12747D01*
Y-72902D01*
X-12715D01*
Y-72886D01*
X-12683D01*
Y-72870D01*
X-12635D01*
X-12619Y-72858D01*
X-10507D01*
X-10495Y-72870D01*
X-10479D01*
X-10463Y-72886D01*
X-10447D01*
Y-72902D01*
X-10431D01*
Y-72918D01*
X-10415D01*
Y-72934D01*
X-10399Y-72950D01*
Y-73094D01*
X-10415D01*
Y-73138D01*
X-10431D01*
Y-73170D01*
X-10447Y-73186D01*
Y-73234D01*
X-10463Y-73250D01*
Y-73266D01*
X-10479Y-73282D01*
Y-73314D01*
X-10495Y-73330D01*
Y-73346D01*
X-10507Y-73374D01*
Y-73406D01*
X-10523Y-73438D01*
Y-73454D01*
X-10539Y-73486D01*
X-10555Y-73502D01*
Y-73534D01*
X-10571Y-73550D01*
Y-73582D01*
X-10587Y-73614D01*
Y-73626D01*
X-10619Y-73690D01*
Y-73722D01*
X-10651Y-73786D01*
Y-73818D01*
X-10699Y-73910D01*
Y-73942D01*
X-10715Y-73990D01*
X-10747Y-74054D01*
X-10759Y-74102D01*
X-10775Y-74130D01*
Y-74178D01*
X-10791Y-74210D01*
X-10807Y-74258D01*
X-10823Y-74290D01*
X-10839Y-74338D01*
X-10855Y-74370D01*
X-10935Y-74606D01*
X-10951Y-74634D01*
X-10983Y-74730D01*
X-10999Y-74794D01*
X-11027Y-74842D01*
X-11091Y-75030D01*
X-11107Y-75094D01*
X-11139Y-75138D01*
X-11155Y-75202D01*
X-11171Y-75250D01*
X-11187Y-75314D01*
X-11219Y-75362D01*
X-11235Y-75422D01*
X-11251Y-75470D01*
X-11279Y-75534D01*
X-11295Y-75598D01*
X-11311Y-75642D01*
X-11343Y-75706D01*
X-11359Y-75770D01*
X-11391Y-75834D01*
X-11407Y-75894D01*
X-11439Y-75958D01*
X-11455Y-76022D01*
X-11487Y-76086D01*
X-11503Y-76146D01*
X-11531Y-76210D01*
X-11547Y-76274D01*
X-11579Y-76338D01*
X-11595Y-76414D01*
X-11627Y-76478D01*
X-11643Y-76542D01*
X-11675Y-76622D01*
X-11691Y-76634D01*
Y-76682D01*
X-11707Y-76698D01*
Y-76714D01*
X-11723Y-76730D01*
Y-76762D01*
X-11739Y-76794D01*
Y-76810D01*
X-11767Y-76870D01*
Y-76918D01*
X-11799Y-76982D01*
X-11815Y-77030D01*
X-11831Y-77062D01*
X-11847Y-77110D01*
Y-77154D01*
X-11927Y-77390D01*
X-11959Y-77438D01*
X-11975Y-77502D01*
X-11991Y-77550D01*
X-12003Y-77614D01*
X-12019Y-77658D01*
X-12035Y-77722D01*
X-12067Y-77786D01*
X-12083Y-77834D01*
X-12115Y-77958D01*
X-12147Y-78022D01*
X-12179Y-78146D01*
X-12211Y-78210D01*
X-12243Y-78338D01*
X-12271Y-78398D01*
X-12303Y-78526D01*
X-12335Y-78590D01*
X-12367Y-78714D01*
X-12399Y-78794D01*
X-12431Y-78918D01*
X-12463Y-78982D01*
X-12479Y-79046D01*
X-12507Y-79110D01*
X-12539Y-79234D01*
X-12571Y-79298D01*
X-12603Y-79422D01*
X-12635Y-79486D01*
X-12683Y-79674D01*
X-12715Y-79738D01*
X-12731Y-79786D01*
X-12759Y-79910D01*
X-12791Y-79958D01*
X-12807Y-80022D01*
X-12823Y-80070D01*
X-12839Y-80130D01*
X-12967Y-80510D01*
X-12983Y-80542D01*
X-12999Y-80590D01*
Y-80622D01*
X-13011Y-80650D01*
X-13027Y-80698D01*
X-13043Y-80730D01*
Y-80762D01*
X-13059Y-80778D01*
Y-80810D01*
X-13075Y-80842D01*
Y-80858D01*
X-13091Y-80870D01*
Y-80918D01*
X-13107D01*
Y-80950D01*
X-13123Y-80966D01*
Y-80998D01*
X-13139D01*
Y-87422D01*
X-13155D01*
Y-87518D01*
X-13171D01*
Y-87534D01*
X-13187Y-87550D01*
G37*
G36*
G01X-20240Y56652D02*
X-21748Y58160D01*
Y74640D01*
X-17540Y78848D01*
X34602D01*
X34657Y78737D01*
G03X36537Y80798I1343J663D01*
G01X36498Y80814D01*
X35760Y81552D01*
X32890D01*
G02X32615Y82242I0J400D01*
G03X32751Y87623I-2615J2758D01*
G02X33041Y88298I290J275D01*
G01X36959D01*
G02X37249Y87623I0J-400D01*
G03X38954Y81346I2751J-2623D01*
G01X39098Y81304D01*
Y72296D01*
G03X40902I902J-1196D01*
G01Y81304D01*
X41046Y81346D01*
G03X42751Y87623I-1046J3654D01*
G02X43041Y88298I290J275D01*
G01X46822D01*
G02X47118Y87629I0J-400D01*
G03X52882I2882J-2629D01*
G02X53178Y88298I296J269D01*
G01X56200D01*
Y81200D01*
X63800D01*
Y88298D01*
X89393D01*
X94129Y83562D01*
G02X93846Y82879I-283J-283D01*
G01X90835D01*
Y78821D01*
X91824D01*
Y77870D01*
X86823D01*
Y75625D01*
G02X86140Y75342I-400J0D01*
G01X85873Y75608D01*
X85677D01*
Y77484D01*
X80123D01*
Y71930D01*
X85198D01*
Y70784D01*
X79737D01*
Y68908D01*
X78829D01*
Y69891D01*
X74402D01*
Y72027D01*
X79378D01*
Y77781D01*
X74402D01*
Y78737D01*
X74484Y78819D01*
X79278D01*
Y79994D01*
X80123D01*
Y79016D01*
X85677D01*
Y79248D01*
X86583D01*
Y78821D01*
X90365D01*
Y82879D01*
X90076D01*
Y85500D01*
G03X86872I-1602J0D01*
G01Y82879D01*
X86583D01*
Y82452D01*
X85677D01*
Y84570D01*
X84202D01*
Y85600D01*
G03X80998I-1602J0D01*
G01Y84570D01*
X80123D01*
Y83198D01*
X79278D01*
Y84373D01*
X73922D01*
Y82786D01*
X71512Y80377D01*
G02X70829Y80659I-283J283D01*
G01Y81030D01*
X70929D01*
Y85050D01*
X66671D01*
Y80862D01*
X64497D01*
X63668Y80032D01*
G03X65812Y77658I1132J-1132D01*
G01X66771D01*
Y77350D01*
X66948D01*
Y76273D01*
X66122D01*
Y75098D01*
X64907D01*
G03X64800Y75102I-113J-1598D01*
G01X52937D01*
X50437Y72602D01*
X46887D01*
X42887Y68602D01*
X35117D01*
Y72129D01*
X34578D01*
Y73218D01*
G03X32691Y75369I-1278J782D01*
G01X32653Y75352D01*
X-5253D01*
X-5291Y75369D01*
G03Y72631I-609J-1369D01*
G01X-5253Y72648D01*
X14822D01*
Y72129D01*
X14283D01*
Y68602D01*
X12937D01*
X10500Y66165D01*
X10020Y66644D01*
X8777D01*
Y67820D01*
X3223D01*
Y66644D01*
X1981D01*
X847Y65510D01*
X629Y65600D01*
X-3629D01*
Y61412D01*
X-4013D01*
X-4863Y60562D01*
X-5496D01*
Y61146D01*
X-10656D01*
Y56654D01*
X-13906D01*
X-13924Y56652D01*
X-20240D01*
G37*
G36*
G01X-7327Y-93122D02*
X-7343D01*
Y-93138D01*
X-7359D01*
Y-93154D01*
X-7375D01*
Y-93170D01*
X-7391D01*
Y-93186D01*
X-7407D01*
X-7439Y-93218D01*
X-7455D01*
Y-93234D01*
X-7471D01*
X-7487Y-93250D01*
X-7503D01*
Y-93266D01*
X-7515D01*
X-7531Y-93282D01*
X-7547D01*
Y-93298D01*
X-7563D01*
X-7579Y-93314D01*
X-7611D01*
Y-93330D01*
X-7627D01*
X-7643Y-93346D01*
X-7675D01*
Y-93362D01*
X-7707D01*
X-7723Y-93374D01*
X-7755D01*
Y-93390D01*
X-7799D01*
X-7815Y-93406D01*
X-7863D01*
Y-93422D01*
X-7927D01*
X-7943Y-93438D01*
X-8019D01*
Y-93454D01*
X-9515D01*
Y-89974D01*
X-8051D01*
X-8035Y-89990D01*
X-7943D01*
Y-90006D01*
X-7879D01*
X-7863Y-90022D01*
X-7815D01*
Y-90038D01*
X-7767D01*
X-7755Y-90054D01*
X-7723D01*
Y-90070D01*
X-7691D01*
X-7675Y-90086D01*
X-7643D01*
Y-90102D01*
X-7611D01*
Y-90118D01*
X-7579D01*
X-7563Y-90130D01*
X-7547D01*
Y-90146D01*
X-7531D01*
X-7515Y-90162D01*
X-7503D01*
Y-90178D01*
X-7487D01*
X-7471Y-90194D01*
X-7455D01*
Y-90210D01*
X-7439D01*
Y-90226D01*
X-7423D01*
X-7407Y-90242D01*
X-7391D01*
Y-90258D01*
X-7375D01*
Y-90274D01*
X-7359Y-90290D01*
X-7343D01*
Y-90306D01*
X-7327Y-90322D01*
X-7311D01*
Y-90338D01*
X-7251Y-90398D01*
Y-90414D01*
X-7235D01*
X-7219Y-90430D01*
Y-90446D01*
X-7203Y-90462D01*
Y-90478D01*
X-7187D01*
Y-90494D01*
X-7171Y-90510D01*
Y-90526D01*
X-7139Y-90558D01*
Y-90590D01*
X-7123Y-90606D01*
Y-90622D01*
X-7107D01*
Y-90650D01*
X-7091Y-90666D01*
Y-90698D01*
X-7075D01*
Y-90730D01*
X-7059Y-90746D01*
Y-90794D01*
X-7043D01*
Y-90842D01*
X-7027Y-90858D01*
Y-90902D01*
X-7011Y-90918D01*
Y-91030D01*
X-6999D01*
Y-91218D01*
X-6983Y-91234D01*
Y-92178D01*
X-6999Y-92194D01*
Y-92382D01*
X-7011D01*
Y-92494D01*
X-7027Y-92510D01*
Y-92574D01*
X-7043D01*
Y-92622D01*
X-7059Y-92634D01*
Y-92682D01*
X-7075Y-92698D01*
Y-92714D01*
X-7091Y-92730D01*
Y-92762D01*
X-7107Y-92778D01*
Y-92794D01*
X-7123Y-92810D01*
Y-92826D01*
X-7139Y-92842D01*
Y-92870D01*
X-7155D01*
Y-92886D01*
X-7171Y-92902D01*
Y-92918D01*
X-7187Y-92934D01*
Y-92950D01*
X-7203D01*
Y-92966D01*
X-7219Y-92982D01*
Y-92998D01*
X-7235Y-93014D01*
X-7251D01*
Y-93030D01*
X-7311Y-93094D01*
Y-93110D01*
X-7327Y-93122D01*
G37*
G36*
G01X-715Y-93094D02*
X-747Y-93122D01*
X-775Y-93154D01*
X-791D01*
Y-93170D01*
X-807D01*
Y-93186D01*
X-823D01*
Y-93202D01*
X-839D01*
Y-93218D01*
X-855D01*
X-871Y-93234D01*
X-887D01*
Y-93250D01*
X-903D01*
X-919Y-93266D01*
X-935D01*
Y-93282D01*
X-967D01*
Y-93298D01*
X-983D01*
X-999Y-93314D01*
X-1011D01*
X-1027Y-93330D01*
X-1043D01*
X-1059Y-93346D01*
X-1075D01*
X-1091Y-93362D01*
X-1123D01*
Y-93374D01*
X-1171D01*
Y-93390D01*
X-1219D01*
Y-93406D01*
X-1263D01*
X-1279Y-93422D01*
X-1343D01*
Y-93438D01*
X-1423D01*
X-1439Y-93454D01*
X-2935D01*
Y-89974D01*
X-1455D01*
Y-89990D01*
X-1359D01*
X-1343Y-90006D01*
X-1279D01*
Y-90022D01*
X-1235D01*
X-1219Y-90038D01*
X-1187D01*
X-1171Y-90054D01*
X-1139D01*
X-1123Y-90070D01*
X-1091D01*
Y-90086D01*
X-1059D01*
Y-90102D01*
X-1027D01*
X-1011Y-90118D01*
X-999D01*
X-983Y-90130D01*
X-967D01*
Y-90146D01*
X-935D01*
Y-90162D01*
X-919D01*
X-903Y-90178D01*
X-887D01*
Y-90194D01*
X-871D01*
X-839Y-90226D01*
X-823D01*
Y-90242D01*
X-807D01*
Y-90258D01*
X-791D01*
Y-90274D01*
X-775D01*
Y-90290D01*
X-759D01*
X-747Y-90306D01*
Y-90322D01*
X-731D01*
X-715Y-90338D01*
Y-90354D01*
X-699Y-90370D01*
X-683D01*
Y-90382D01*
X-635Y-90430D01*
Y-90446D01*
X-587Y-90494D01*
Y-90510D01*
X-571Y-90526D01*
Y-90542D01*
X-555D01*
Y-90574D01*
X-539Y-90590D01*
Y-90606D01*
X-523Y-90622D01*
Y-90634D01*
X-507Y-90650D01*
Y-90682D01*
X-495Y-90698D01*
Y-90714D01*
X-479Y-90730D01*
Y-90762D01*
X-463Y-90778D01*
Y-90810D01*
X-447Y-90826D01*
Y-90886D01*
X-431Y-90902D01*
Y-90982D01*
X-415Y-90998D01*
Y-91122D01*
X-399Y-91138D01*
Y-92274D01*
X-415Y-92290D01*
Y-92414D01*
X-431Y-92430D01*
Y-92526D01*
X-447Y-92542D01*
Y-92590D01*
X-463Y-92606D01*
Y-92650D01*
X-479Y-92666D01*
Y-92698D01*
X-495D01*
Y-92730D01*
X-507Y-92746D01*
Y-92778D01*
X-523Y-92794D01*
Y-92810D01*
X-539Y-92826D01*
Y-92842D01*
X-555Y-92858D01*
Y-92870D01*
X-571Y-92886D01*
Y-92902D01*
X-587Y-92918D01*
Y-92934D01*
X-635Y-92982D01*
Y-92998D01*
X-683Y-93046D01*
Y-93062D01*
X-699D01*
X-715Y-93078D01*
Y-93094D01*
G37*
G36*
G01X-10715Y-93078D02*
X-10791Y-93154D01*
X-10807D01*
Y-93170D01*
X-10823D01*
Y-93186D01*
X-10839D01*
Y-93202D01*
X-10855D01*
Y-93218D01*
X-10871D01*
X-10887Y-93234D01*
X-10903D01*
Y-93250D01*
X-10919D01*
X-10935Y-93266D01*
X-10951D01*
Y-93282D01*
X-10983D01*
Y-93298D01*
X-10999D01*
X-11011Y-93314D01*
X-11027D01*
X-11043Y-93330D01*
X-11059D01*
X-11075Y-93346D01*
X-11091D01*
X-11107Y-93362D01*
X-11139D01*
Y-93374D01*
X-11171D01*
X-11187Y-93390D01*
X-11235D01*
Y-93406D01*
X-11279D01*
X-11295Y-93422D01*
X-11359D01*
Y-93438D01*
X-11439D01*
X-11455Y-93454D01*
X-12951D01*
Y-89974D01*
X-11471D01*
Y-89990D01*
X-11375D01*
X-11359Y-90006D01*
X-11295D01*
Y-90022D01*
X-11251D01*
X-11235Y-90038D01*
X-11203D01*
X-11187Y-90054D01*
X-11155D01*
X-11139Y-90070D01*
X-11107D01*
Y-90086D01*
X-11075D01*
Y-90102D01*
X-11043D01*
X-11027Y-90118D01*
X-11011D01*
X-10999Y-90130D01*
X-10983D01*
Y-90146D01*
X-10951D01*
Y-90162D01*
X-10935D01*
X-10919Y-90178D01*
X-10903D01*
Y-90194D01*
X-10887D01*
X-10855Y-90226D01*
X-10839D01*
Y-90242D01*
X-10823D01*
Y-90258D01*
X-10807D01*
Y-90274D01*
X-10791D01*
Y-90290D01*
X-10775D01*
X-10759Y-90306D01*
Y-90322D01*
X-10747D01*
X-10715Y-90354D01*
Y-90370D01*
X-10699D01*
Y-90382D01*
X-10651Y-90430D01*
Y-90446D01*
X-10603Y-90494D01*
Y-90510D01*
X-10587Y-90526D01*
Y-90542D01*
X-10571D01*
Y-90574D01*
X-10555Y-90590D01*
Y-90606D01*
X-10539Y-90622D01*
Y-90634D01*
X-10523Y-90650D01*
Y-90682D01*
X-10507Y-90698D01*
Y-90714D01*
X-10495Y-90730D01*
Y-90762D01*
X-10479Y-90778D01*
Y-90810D01*
X-10463Y-90826D01*
Y-90886D01*
X-10447Y-90902D01*
Y-90982D01*
X-10431Y-90998D01*
Y-91110D01*
X-10415Y-91122D01*
Y-92290D01*
X-10431Y-92306D01*
Y-92414D01*
X-10447Y-92430D01*
Y-92526D01*
X-10463Y-92542D01*
Y-92590D01*
X-10479Y-92606D01*
Y-92650D01*
X-10495Y-92666D01*
Y-92698D01*
X-10507D01*
Y-92730D01*
X-10523Y-92746D01*
Y-92778D01*
X-10539Y-92794D01*
Y-92810D01*
X-10555Y-92826D01*
Y-92842D01*
X-10571Y-92858D01*
Y-92870D01*
X-10587Y-92886D01*
Y-92902D01*
X-10603Y-92918D01*
Y-92934D01*
X-10651Y-92982D01*
Y-92998D01*
X-10699Y-93046D01*
Y-93062D01*
X-10715D01*
Y-93078D01*
G37*
G36*
G01X-6099Y-89974D02*
X-3799D01*
Y-90574D01*
X-5407D01*
Y-91390D01*
X-4035D01*
Y-92006D01*
X-5407D01*
Y-92858D01*
X-3799D01*
Y-93454D01*
X-6099D01*
Y-89974D01*
G37*
G36*
G01X-16115D02*
X-13815D01*
Y-90574D01*
X-15423D01*
Y-91390D01*
X-14051D01*
Y-92006D01*
X-15423D01*
Y-92858D01*
X-13815D01*
Y-93454D01*
X-16115D01*
Y-89974D01*
G37*
G36*
G01X-1187Y-78698D02*
X-1235Y-79078D01*
X-1251Y-79186D01*
X-1279Y-79314D01*
X-1295Y-79422D01*
X-1327Y-79534D01*
X-1375Y-79658D01*
X-1407Y-79770D01*
X-1503Y-79990D01*
X-1547Y-80086D01*
X-1611Y-80194D01*
X-1659Y-80306D01*
X-1723Y-80398D01*
X-1783Y-80510D01*
X-1863Y-80606D01*
X-1927Y-80698D01*
X-2083Y-80886D01*
X-2179Y-80982D01*
X-2255Y-81078D01*
X-2351Y-81154D01*
X-2447Y-81250D01*
X-2635Y-81406D01*
X-2731Y-81470D01*
X-2839Y-81550D01*
X-3027Y-81674D01*
X-3139Y-81722D01*
X-3251Y-81786D01*
X-3343Y-81834D01*
X-3563Y-81926D01*
X-3675Y-81958D01*
X-3799Y-82006D01*
X-3911Y-82038D01*
X-4019Y-82054D01*
X-4147Y-82086D01*
X-4255Y-82102D01*
X-4635Y-82146D01*
X-6399D01*
X-6415Y-82162D01*
X-6447D01*
X-6463Y-82178D01*
X-6495D01*
X-6555Y-82242D01*
Y-82258D01*
X-6571Y-82274D01*
Y-82322D01*
X-6587Y-82338D01*
Y-87470D01*
X-6603Y-87486D01*
Y-87518D01*
X-6619Y-87534D01*
Y-87550D01*
X-6651Y-87582D01*
Y-87598D01*
X-6667D01*
X-6683Y-87614D01*
X-6699D01*
X-6715Y-87626D01*
X-6731D01*
X-6747Y-87642D01*
X-8747D01*
X-8759Y-87626D01*
X-8791D01*
Y-87614D01*
X-8807D01*
X-8823Y-87598D01*
X-8839D01*
Y-87582D01*
X-8855Y-87566D01*
X-8871D01*
Y-87550D01*
X-8887Y-87534D01*
Y-87502D01*
X-8903Y-87486D01*
Y-72982D01*
X-8887Y-72966D01*
Y-72950D01*
X-8871Y-72934D01*
Y-72918D01*
X-8855Y-72902D01*
X-8839D01*
Y-72886D01*
X-8823Y-72870D01*
X-8807D01*
X-8791Y-72858D01*
X-8775D01*
X-8759Y-72842D01*
X-4635D01*
X-4131Y-72902D01*
X-4019Y-72934D01*
X-3895Y-72950D01*
X-3783Y-72982D01*
X-3675Y-73030D01*
X-3563Y-73062D01*
X-3123Y-73250D01*
X-3027Y-73314D01*
X-2919Y-73374D01*
X-2823Y-73438D01*
X-2715Y-73502D01*
X-2431Y-73738D01*
X-2255Y-73910D01*
X-2163Y-73990D01*
X-1847Y-74370D01*
X-1783Y-74478D01*
X-1723Y-74574D01*
X-1659Y-74682D01*
X-1595Y-74778D01*
X-1407Y-75218D01*
X-1375Y-75330D01*
X-1327Y-75438D01*
X-1295Y-75550D01*
X-1279Y-75674D01*
X-1251Y-75786D01*
X-1187Y-76290D01*
Y-78698D01*
G37*
G36*
G01X4245Y-91314D02*
Y-93454D01*
X3569D01*
Y-89974D01*
X4169D01*
X5553Y-92102D01*
Y-89974D01*
X6233D01*
Y-93454D01*
X5633D01*
X4245Y-91314D01*
G37*
G36*
G01X2925Y-87598D02*
Y-87614D01*
X2893D01*
Y-87626D01*
X2845D01*
Y-87642D01*
X845D01*
Y-87626D01*
X797D01*
Y-87614D01*
X765D01*
Y-87598D01*
X749D01*
Y-87582D01*
X737D01*
Y-87566D01*
X721D01*
Y-87534D01*
X705D01*
Y-87502D01*
X689Y-87486D01*
Y-72982D01*
X705D01*
Y-72950D01*
X721D01*
Y-72918D01*
X737D01*
Y-72902D01*
X749D01*
Y-72886D01*
X765D01*
Y-72870D01*
X797D01*
Y-72858D01*
X829D01*
X845Y-72842D01*
X5001D01*
X5033Y-72858D01*
X5161D01*
X5193Y-72870D01*
X5269D01*
X5301Y-72886D01*
X5397D01*
X5413Y-72902D01*
X5477D01*
X5505Y-72918D01*
X5537D01*
X5553Y-72934D01*
X5617D01*
X5649Y-72950D01*
X5681D01*
X5697Y-72966D01*
X5729D01*
X5757Y-72982D01*
X5789D01*
X5805Y-72998D01*
X5837D01*
X5869Y-73014D01*
X5885D01*
X5949Y-73046D01*
X5981D01*
X5997Y-73062D01*
X6025D01*
X6057Y-73078D01*
X6073Y-73094D01*
X6105D01*
X6137Y-73110D01*
X6153Y-73122D01*
X6185Y-73138D01*
X6217D01*
X6233Y-73154D01*
X6293Y-73186D01*
X6309D01*
X6341Y-73202D01*
X6357Y-73218D01*
X6421Y-73250D01*
X6437D01*
X6469Y-73266D01*
X6485Y-73282D01*
X6545Y-73314D01*
X6561Y-73330D01*
X6593Y-73346D01*
X6609Y-73362D01*
X6641Y-73374D01*
X6657Y-73390D01*
X6689Y-73406D01*
X6705Y-73422D01*
X6737Y-73438D01*
X6749Y-73454D01*
X6813Y-73486D01*
X6829Y-73502D01*
X6861Y-73518D01*
X6893Y-73550D01*
X6925Y-73566D01*
X6989Y-73626D01*
X7017Y-73642D01*
X7033Y-73658D01*
X7065Y-73674D01*
X7081Y-73706D01*
X7113Y-73722D01*
X7193Y-73802D01*
X7225Y-73818D01*
X7241Y-73850D01*
X7253Y-73866D01*
X7285Y-73878D01*
X7301Y-73910D01*
X7333Y-73926D01*
X7349Y-73942D01*
X7365Y-73974D01*
X7397Y-73990D01*
X7413Y-74022D01*
X7429Y-74038D01*
X7461Y-74054D01*
X7477Y-74086D01*
X7493Y-74102D01*
X7505Y-74130D01*
X7537Y-74146D01*
X7553Y-74178D01*
X7569Y-74194D01*
X7585Y-74226D01*
X7601Y-74242D01*
X7633Y-74258D01*
X7649Y-74290D01*
X7665Y-74306D01*
X7681Y-74338D01*
X7697Y-74354D01*
X7713Y-74382D01*
X7729Y-74398D01*
X7745Y-74430D01*
X7773Y-74446D01*
X7789Y-74478D01*
X7805Y-74494D01*
X7837Y-74558D01*
X7853Y-74574D01*
X7869Y-74606D01*
X7885Y-74622D01*
X7901Y-74650D01*
X7917Y-74666D01*
Y-74698D01*
X7933Y-74714D01*
X7965Y-74778D01*
X7981Y-74794D01*
X7997Y-74826D01*
X8009Y-74842D01*
X8025Y-74870D01*
Y-74902D01*
X8041Y-74918D01*
X8057Y-74950D01*
X8073Y-74966D01*
Y-74998D01*
X8089Y-75030D01*
X8105Y-75046D01*
X8121Y-75078D01*
Y-75110D01*
X8137Y-75122D01*
X8153Y-75154D01*
Y-75186D01*
X8169Y-75202D01*
X8185Y-75234D01*
Y-75266D01*
X8201Y-75298D01*
X8217Y-75314D01*
Y-75346D01*
X8233Y-75374D01*
Y-75390D01*
X8245Y-75422D01*
Y-75454D01*
X8261Y-75486D01*
Y-75502D01*
X8277Y-75534D01*
Y-75566D01*
X8293Y-75598D01*
Y-75614D01*
X8309Y-75642D01*
Y-75706D01*
X8325Y-75738D01*
Y-75754D01*
X8341Y-75786D01*
Y-75850D01*
X8357Y-75878D01*
Y-75958D01*
X8373Y-75990D01*
Y-76086D01*
X8389Y-76102D01*
Y-76226D01*
X8405Y-76258D01*
Y-78382D01*
X8389Y-78414D01*
Y-78558D01*
X8373Y-78590D01*
Y-78682D01*
X8357Y-78714D01*
Y-78778D01*
X8341Y-78810D01*
Y-78842D01*
X8325Y-78870D01*
Y-78902D01*
X8309Y-78934D01*
Y-78966D01*
X8293Y-78998D01*
Y-79030D01*
X8277Y-79062D01*
Y-79094D01*
X8261Y-79122D01*
Y-79154D01*
X8245Y-79170D01*
Y-79202D01*
X8217Y-79266D01*
Y-79298D01*
X8169Y-79390D01*
Y-79422D01*
X8121Y-79518D01*
X8105Y-79534D01*
Y-79566D01*
X8025Y-79722D01*
X8009Y-79738D01*
X7933Y-79894D01*
X7917Y-79910D01*
X7853Y-80038D01*
X7821Y-80054D01*
X7757Y-80178D01*
X7729Y-80194D01*
X7697Y-80258D01*
X7649Y-80306D01*
X7633Y-80338D01*
X7601Y-80370D01*
X7585Y-80398D01*
X7537Y-80446D01*
X7521Y-80478D01*
X7493Y-80494D01*
X7477Y-80526D01*
X7397Y-80606D01*
X7381Y-80634D01*
X7145Y-80870D01*
X7113Y-80886D01*
X7097Y-80918D01*
X7065Y-80950D01*
X7033Y-80966D01*
X6973Y-81030D01*
X6941Y-81046D01*
Y-81062D01*
X6925D01*
X6893Y-81094D01*
X6877D01*
Y-81110D01*
X6861D01*
Y-81138D01*
X6845D01*
Y-81170D01*
X6829D01*
Y-81202D01*
X6813Y-81218D01*
Y-81406D01*
X6829Y-81422D01*
Y-81470D01*
X6845Y-81486D01*
Y-81550D01*
X6861Y-81566D01*
Y-81626D01*
X6877Y-81642D01*
Y-81674D01*
X6893Y-81690D01*
Y-81738D01*
X6909Y-81754D01*
Y-81802D01*
X6925Y-81834D01*
Y-81878D01*
X6941Y-81894D01*
Y-81926D01*
X6957Y-81958D01*
Y-82006D01*
X6973Y-82038D01*
Y-82070D01*
X6989Y-82086D01*
Y-82118D01*
X7001Y-82146D01*
Y-82178D01*
X7017Y-82210D01*
Y-82242D01*
X7033Y-82274D01*
Y-82306D01*
X7049Y-82338D01*
Y-82370D01*
X7065Y-82398D01*
Y-82430D01*
X7081Y-82462D01*
X7097Y-82510D01*
Y-82542D01*
X7113Y-82574D01*
Y-82606D01*
X7129Y-82650D01*
X7145Y-82682D01*
Y-82714D01*
X7161Y-82762D01*
X7177Y-82794D01*
Y-82842D01*
X7193Y-82870D01*
X7209Y-82918D01*
Y-82950D01*
X7241Y-83046D01*
Y-83078D01*
X7269Y-83170D01*
X7285Y-83202D01*
Y-83250D01*
X7317Y-83346D01*
X7333Y-83374D01*
X7349Y-83422D01*
Y-83470D01*
X7445Y-83754D01*
Y-83802D01*
X7493Y-83942D01*
X7505Y-84006D01*
X7569Y-84194D01*
Y-84242D01*
X7585D01*
Y-84290D01*
X7601Y-84306D01*
Y-84354D01*
X7617Y-84370D01*
Y-84414D01*
X7633Y-84446D01*
Y-84478D01*
X7649Y-84510D01*
Y-84542D01*
X7665Y-84574D01*
Y-84606D01*
X7681Y-84634D01*
Y-84666D01*
X7713Y-84730D01*
Y-84778D01*
X7729Y-84810D01*
X7745Y-84858D01*
Y-84886D01*
X7773Y-84982D01*
Y-85014D01*
X7805Y-85110D01*
Y-85138D01*
X7853Y-85282D01*
Y-85330D01*
X7901Y-85470D01*
Y-85518D01*
X7949Y-85658D01*
Y-85706D01*
X8009Y-85894D01*
Y-85942D01*
X8073Y-86130D01*
Y-86178D01*
X8121Y-86322D01*
Y-86370D01*
X8153Y-86462D01*
Y-86494D01*
X8201Y-86634D01*
Y-86666D01*
X8217Y-86714D01*
X8233Y-86746D01*
Y-86794D01*
X8245Y-86826D01*
Y-86870D01*
X8277Y-86934D01*
Y-86966D01*
X8293Y-86998D01*
Y-87030D01*
X8309Y-87062D01*
Y-87094D01*
X8325Y-87122D01*
Y-87154D01*
X8341Y-87186D01*
Y-87234D01*
X8357Y-87250D01*
Y-87298D01*
X8373Y-87314D01*
Y-87362D01*
X8389D01*
Y-87422D01*
X8405D01*
Y-87534D01*
X8389D01*
Y-87566D01*
X8357Y-87598D01*
Y-87614D01*
X8325D01*
Y-87626D01*
X8293D01*
Y-87642D01*
X6309D01*
Y-87626D01*
X6261D01*
Y-87614D01*
X6233D01*
Y-87598D01*
X6217D01*
X6201Y-87582D01*
X6185D01*
Y-87566D01*
X6169D01*
Y-87550D01*
X6153Y-87534D01*
Y-87518D01*
X6137D01*
Y-87502D01*
X6121Y-87486D01*
Y-87470D01*
X6105D01*
Y-87438D01*
X6089Y-87422D01*
Y-87390D01*
X6073Y-87374D01*
Y-87330D01*
X6057Y-87298D01*
Y-87282D01*
X6041Y-87250D01*
Y-87218D01*
X6025Y-87186D01*
X6009Y-87138D01*
Y-87110D01*
X5997Y-87062D01*
X5981Y-87030D01*
Y-86982D01*
X5965Y-86934D01*
X5949Y-86870D01*
X5917Y-86778D01*
X5901Y-86714D01*
X5885Y-86666D01*
X5805Y-86354D01*
X5789Y-86274D01*
X5757Y-86210D01*
X5745Y-86130D01*
X5729Y-86070D01*
X5713Y-85990D01*
X5697Y-85926D01*
X5665Y-85850D01*
X5633Y-85690D01*
X5601Y-85614D01*
X5569Y-85454D01*
X5537Y-85374D01*
X5505Y-85218D01*
X5477Y-85138D01*
X5461Y-85062D01*
X5429Y-84966D01*
X5397Y-84810D01*
X5365Y-84730D01*
X5349Y-84634D01*
X5317Y-84558D01*
X5285Y-84398D01*
X5253Y-84306D01*
X5241Y-84226D01*
X5209Y-84146D01*
X5177Y-83990D01*
X5145Y-83910D01*
X5129Y-83834D01*
X5097Y-83754D01*
X5065Y-83598D01*
X5033Y-83518D01*
X4989Y-83282D01*
X4957Y-83218D01*
X4941Y-83138D01*
X4909Y-83014D01*
X4893Y-82934D01*
X4877Y-82870D01*
X4845Y-82810D01*
X4797Y-82622D01*
X4781Y-82574D01*
X4765Y-82510D01*
X4749Y-82462D01*
Y-82398D01*
X4689Y-82210D01*
Y-82178D01*
X4673Y-82130D01*
X4657Y-82102D01*
Y-82070D01*
X4641Y-82038D01*
Y-82006D01*
X4625Y-81990D01*
Y-81942D01*
X4609Y-81926D01*
Y-81878D01*
X4593D01*
Y-81834D01*
X4577D01*
Y-81818D01*
X4561Y-81802D01*
Y-81786D01*
X4545D01*
Y-81770D01*
X4513Y-81738D01*
Y-81722D01*
X4497D01*
Y-81706D01*
X4469D01*
Y-81690D01*
X4453D01*
X4437Y-81674D01*
X4405D01*
Y-81658D01*
X4341D01*
Y-81642D01*
X3209D01*
Y-81658D01*
X3145D01*
X3129Y-81674D01*
X3113D01*
X3097Y-81690D01*
X3081D01*
Y-81706D01*
X3065D01*
Y-81722D01*
X3049D01*
Y-81738D01*
X3033D01*
Y-81770D01*
X3017Y-81786D01*
Y-81834D01*
X3001D01*
Y-87486D01*
X2989Y-87502D01*
Y-87534D01*
X2973D01*
Y-87566D01*
X2957D01*
Y-87582D01*
X2941D01*
Y-87598D01*
X2925D01*
G37*
G36*
G01X13681Y-93202D02*
X13649Y-93218D01*
X13601Y-93250D01*
X13569Y-93266D01*
X13537Y-93298D01*
X13505Y-93314D01*
X13461Y-93346D01*
X13397Y-93374D01*
X13349Y-93390D01*
X13317Y-93406D01*
X13269Y-93422D01*
X13241Y-93438D01*
X13193Y-93454D01*
X13145D01*
X13113Y-93470D01*
X13065D01*
X13017Y-93486D01*
X12641D01*
X12593Y-93470D01*
X12545D01*
X12497Y-93454D01*
X12453D01*
X12421Y-93438D01*
X12373Y-93422D01*
X12341Y-93406D01*
X12293Y-93390D01*
X12261Y-93374D01*
X12217Y-93362D01*
X12185Y-93346D01*
X12153Y-93314D01*
X12105Y-93298D01*
X12073Y-93266D01*
X12041Y-93250D01*
X12009Y-93218D01*
X11981Y-93202D01*
X11789Y-93014D01*
X11697Y-92870D01*
X11681Y-92826D01*
X11649Y-92778D01*
X11633Y-92730D01*
X11617Y-92666D01*
X11601Y-92622D01*
X11585Y-92558D01*
X11569Y-92510D01*
Y-92446D01*
X11553Y-92382D01*
Y-92274D01*
X11537Y-92210D01*
Y-91234D01*
X11553Y-91170D01*
Y-91046D01*
X11569Y-90982D01*
Y-90918D01*
X11585Y-90870D01*
X11601Y-90810D01*
X11617Y-90762D01*
X11633Y-90698D01*
X11649Y-90650D01*
X11681Y-90606D01*
X11697Y-90558D01*
X11789Y-90414D01*
X11949Y-90258D01*
X11981Y-90242D01*
X12041Y-90178D01*
X12073Y-90162D01*
X12105Y-90130D01*
X12153Y-90118D01*
X12185Y-90102D01*
X12217Y-90070D01*
X12261Y-90054D01*
X12293Y-90038D01*
X12341Y-90022D01*
X12373Y-90006D01*
X12421Y-89990D01*
X12453D01*
X12545Y-89958D01*
X12593D01*
X12641Y-89942D01*
X13017D01*
X13065Y-89958D01*
X13113D01*
X13145Y-89974D01*
X13193Y-89990D01*
X13241D01*
X13269Y-90006D01*
X13317Y-90022D01*
X13349Y-90038D01*
X13397Y-90054D01*
X13429Y-90070D01*
X13461Y-90102D01*
X13505Y-90118D01*
X13537Y-90130D01*
X13569Y-90162D01*
X13601Y-90178D01*
X13649Y-90210D01*
X13681Y-90242D01*
X13713Y-90258D01*
X13773Y-90322D01*
X13805Y-90370D01*
X13853Y-90414D01*
X13981Y-90606D01*
X14009Y-90698D01*
X14025Y-90762D01*
X14041Y-90810D01*
X14057Y-90870D01*
X14073Y-90918D01*
X14089Y-90982D01*
Y-91046D01*
X14105Y-91110D01*
Y-91298D01*
X14121Y-91362D01*
Y-92070D01*
X14105Y-92130D01*
Y-92322D01*
X14089Y-92382D01*
Y-92446D01*
X14073Y-92510D01*
X14057Y-92558D01*
X14041Y-92622D01*
X14025Y-92666D01*
X14009Y-92730D01*
X13981Y-92826D01*
X13853Y-93014D01*
X13805Y-93062D01*
X13773Y-93110D01*
X13681Y-93202D01*
G37*
G36*
G01X9981Y-93454D02*
X9301D01*
Y-90574D01*
X8389D01*
Y-89974D01*
X10893D01*
Y-90574D01*
X9981D01*
Y-93454D01*
G37*
G36*
G01X17697Y-85470D02*
Y-87502D01*
X17681Y-87518D01*
Y-87534D01*
X17665Y-87550D01*
Y-87566D01*
X17649D01*
Y-87582D01*
X17633D01*
Y-87598D01*
X17617D01*
Y-87614D01*
X17585D01*
Y-87626D01*
X17537D01*
Y-87642D01*
X10497D01*
Y-87626D01*
X10453D01*
Y-87614D01*
X10437D01*
X10421Y-87598D01*
X10405D01*
Y-87582D01*
X10389D01*
Y-87566D01*
X10373D01*
Y-87534D01*
X10357D01*
Y-87502D01*
X10341Y-87486D01*
Y-73014D01*
X10357D01*
Y-72966D01*
X10373D01*
Y-72950D01*
X10389Y-72934D01*
Y-72918D01*
X10405D01*
Y-72902D01*
X10421D01*
Y-72886D01*
X10453D01*
X10469Y-72870D01*
X10497D01*
Y-72858D01*
X17537D01*
Y-72870D01*
X17585D01*
Y-72886D01*
X17617D01*
Y-72902D01*
X17633D01*
Y-72918D01*
X17649D01*
Y-72934D01*
X17665D01*
Y-72950D01*
X17681D01*
Y-72998D01*
X17697D01*
Y-75046D01*
X17681D01*
Y-75078D01*
X17665D01*
Y-75094D01*
X17617Y-75138D01*
X17601D01*
Y-75154D01*
X17569D01*
X17553Y-75170D01*
X12893D01*
Y-75186D01*
X12797D01*
Y-75202D01*
X12765D01*
Y-75218D01*
X12737D01*
Y-75234D01*
X12721D01*
Y-75250D01*
X12705D01*
Y-75266D01*
X12689Y-75282D01*
Y-75298D01*
X12673Y-75314D01*
Y-75362D01*
X12657D01*
Y-78918D01*
X12673D01*
Y-78966D01*
X12689D01*
Y-78998D01*
X12721Y-79030D01*
Y-79046D01*
X12737D01*
X12749Y-79062D01*
X12765D01*
Y-79078D01*
X12797D01*
X12813Y-79094D01*
X16529D01*
Y-79110D01*
X16609D01*
Y-79122D01*
X16641D01*
Y-79138D01*
X16657D01*
X16689Y-79170D01*
Y-79186D01*
X16705D01*
Y-79202D01*
X16721D01*
Y-79234D01*
X16737Y-79250D01*
Y-81266D01*
X16721Y-81282D01*
Y-81314D01*
X16705D01*
Y-81330D01*
X16673Y-81362D01*
Y-81374D01*
X16657D01*
X16641Y-81390D01*
X16625D01*
X16609Y-81406D01*
X16561D01*
Y-81422D01*
X12829D01*
Y-81438D01*
X12781D01*
X12765Y-81454D01*
X12749D01*
Y-81470D01*
X12737D01*
X12705Y-81502D01*
Y-81518D01*
X12689D01*
Y-81550D01*
X12673D01*
Y-81598D01*
X12657D01*
Y-85138D01*
X12673D01*
Y-85186D01*
X12689Y-85202D01*
Y-85234D01*
X12705D01*
Y-85250D01*
X12721D01*
Y-85266D01*
X12737D01*
Y-85282D01*
X12765D01*
Y-85298D01*
X12797D01*
Y-85314D01*
X12893D01*
Y-85330D01*
X17569D01*
Y-85346D01*
X17601D01*
Y-85362D01*
X17617D01*
X17665Y-85406D01*
Y-85422D01*
X17681D01*
Y-85454D01*
X17697Y-85470D01*
G37*
G36*
G01X22449Y18302D02*
X22416Y18460D01*
G03X20832Y19643I-1466J-310D01*
G02X20400Y20042I-32J399D01*
G01Y24029D01*
X16380D01*
Y23929D01*
X15962D01*
Y25171D01*
X16380D01*
Y25071D01*
X20400D01*
Y29329D01*
X16380D01*
Y29229D01*
X12700D01*
Y25171D01*
X13258D01*
Y23929D01*
X12700D01*
Y23252D01*
X9823D01*
G03X8391Y23369I-823J-1252D01*
G01X8353Y23352D01*
X7260D01*
X5052Y25560D01*
Y38240D01*
X7652Y40840D01*
Y42053D01*
X7669Y42091D01*
G03X7713Y42201I-1368J611D01*
G01X7760Y42248D01*
X11200D01*
Y41571D01*
X14880D01*
Y41471D01*
X18900D01*
Y45729D01*
X14880D01*
Y45629D01*
X14362D01*
Y46671D01*
X14780D01*
Y46571D01*
X18800D01*
Y50829D01*
X14780D01*
Y50729D01*
X14362D01*
Y51771D01*
X14780D01*
Y51671D01*
X18800D01*
Y55188D01*
X19571D01*
Y51000D01*
X23829D01*
Y54294D01*
G02X24512Y54577I400J0D01*
G01X25390Y53698D01*
X38800D01*
Y49071D01*
X42820D01*
Y49171D01*
X43238D01*
Y41429D01*
X42830D01*
Y41529D01*
X38810D01*
Y37271D01*
X42830D01*
Y37371D01*
X46510D01*
Y38048D01*
X48053D01*
X48091Y38031D01*
G03Y40769I609J1369D01*
G01X48053Y40752D01*
X46510D01*
Y41429D01*
X45942D01*
Y49171D01*
X46500D01*
Y53229D01*
X45942D01*
Y54642D01*
X45948Y54667D01*
G03Y55433I-1448J383D01*
G01X45942Y55458D01*
Y55520D01*
X45914Y55548D01*
X45898Y55587D01*
G03X45845Y55710I-1401J-531D01*
G01X45824Y55752D01*
Y55998D01*
X48527D01*
X63077Y41448D01*
X74604D01*
G03X75423Y40900I1196J902D01*
G02X75605Y40230I-101J-387D01*
G01X69377Y34002D01*
X49929D01*
G02X49628Y34665I0J400D01*
G03X47386Y36652I-1128J985D01*
G01X18900D01*
Y40729D01*
X14880D01*
Y40629D01*
X11200D01*
Y39952D01*
X8290D01*
X7502Y39164D01*
X7463Y39148D01*
G03Y36352I537J-1398D01*
G01X7502Y36336D01*
X9504Y34334D01*
G02X9241Y33652I-283J-283D01*
G01X7002Y31414D01*
X6963Y31398D01*
G03X8898Y29463I537J-1398D01*
G01X8914Y29502D01*
X10360Y30948D01*
X12483D01*
Y30271D01*
X16635D01*
Y30171D01*
X20617D01*
Y33948D01*
X25708D01*
G02X25991Y33266I0J-400D01*
G01X23298Y30573D01*
Y21196D01*
G03X23107Y18975I902J-1196D01*
G02X22816Y18302I-292J-273D01*
G01X22449D01*
G37*
G36*
G01X31493Y-93110D02*
X31397Y-93202D01*
X31365Y-93218D01*
X31333Y-93250D01*
X31301Y-93266D01*
X31253Y-93298D01*
X31225Y-93314D01*
X31193Y-93346D01*
X31161Y-93362D01*
X31113Y-93374D01*
X31081Y-93390D01*
X31033Y-93406D01*
X31001Y-93422D01*
X30957Y-93438D01*
X30925Y-93454D01*
X30877D01*
X30829Y-93470D01*
X30781D01*
X30737Y-93486D01*
X30357D01*
X30309Y-93470D01*
X30261D01*
X30233Y-93454D01*
X30185D01*
X30137Y-93438D01*
X30105Y-93422D01*
X30057Y-93406D01*
X30025Y-93390D01*
X29981Y-93374D01*
X29949Y-93362D01*
X29901Y-93346D01*
X29869Y-93314D01*
X29837Y-93298D01*
X29805Y-93266D01*
X29757Y-93250D01*
X29729Y-93218D01*
X29697Y-93202D01*
X29553Y-93062D01*
X29397Y-92826D01*
X29381Y-92778D01*
X29349Y-92730D01*
X29333Y-92666D01*
X29317Y-92622D01*
Y-92558D01*
X29301Y-92510D01*
X29285Y-92446D01*
Y-92382D01*
X29269Y-92322D01*
Y-92130D01*
X29253Y-92070D01*
Y-91362D01*
X29269Y-91298D01*
Y-91110D01*
X29285Y-91046D01*
Y-90982D01*
X29301Y-90918D01*
X29317Y-90870D01*
Y-90810D01*
X29333Y-90762D01*
X29349Y-90698D01*
X29381Y-90650D01*
X29397Y-90606D01*
X29553Y-90370D01*
X29665Y-90258D01*
X29697Y-90242D01*
X29757Y-90178D01*
X29805Y-90162D01*
X29837Y-90130D01*
X29901Y-90102D01*
X29949Y-90070D01*
X29981Y-90054D01*
X30025Y-90038D01*
X30057Y-90022D01*
X30105Y-90006D01*
X30137Y-89990D01*
X30185D01*
X30233Y-89974D01*
X30261Y-89958D01*
X30309D01*
X30357Y-89942D01*
X30737D01*
X30781Y-89958D01*
X30829D01*
X30925Y-89990D01*
X30957D01*
X31001Y-90006D01*
X31033Y-90022D01*
X31081Y-90038D01*
X31113Y-90054D01*
X31161Y-90070D01*
X31193Y-90102D01*
X31253Y-90130D01*
X31301Y-90162D01*
X31333Y-90178D01*
X31397Y-90242D01*
X31429Y-90258D01*
X31537Y-90370D01*
X31697Y-90606D01*
X31713Y-90650D01*
X31745Y-90698D01*
X31757Y-90762D01*
X31773Y-90810D01*
X31789Y-90870D01*
X31805Y-90918D01*
Y-90982D01*
X31821Y-91046D01*
Y-91170D01*
X31837Y-91234D01*
Y-92210D01*
X31821Y-92274D01*
Y-92382D01*
X31805Y-92446D01*
Y-92510D01*
X31789Y-92558D01*
X31773Y-92622D01*
X31757Y-92666D01*
X31745Y-92730D01*
X31713Y-92778D01*
X31697Y-92826D01*
X31537Y-93062D01*
X31493Y-93110D01*
G37*
G36*
G01X31649Y-80622D02*
X31461Y-80478D01*
X31285Y-80322D01*
X31097Y-80146D01*
X30909Y-79990D01*
X30721Y-79818D01*
X30513Y-79642D01*
X30405Y-79550D01*
X30073Y-79218D01*
X29981Y-79094D01*
X29901Y-78982D01*
X29805Y-78858D01*
X29649Y-78606D01*
X29585Y-78478D01*
X29505Y-78354D01*
X29461Y-78210D01*
X29397Y-78086D01*
X29253Y-77658D01*
X29225Y-77518D01*
X29161Y-77202D01*
X29145Y-77062D01*
X29129Y-76902D01*
X29113Y-76730D01*
X29097Y-76574D01*
Y-76290D01*
X29113Y-76162D01*
Y-76038D01*
X29145Y-75786D01*
X29161Y-75674D01*
X29193Y-75550D01*
X29253Y-75330D01*
X29285Y-75202D01*
X29333Y-75094D01*
X29365Y-74982D01*
X29413Y-74886D01*
X29461Y-74778D01*
X29521Y-74666D01*
X29585Y-74574D01*
X29649Y-74462D01*
X29713Y-74370D01*
X29773Y-74258D01*
X30089Y-73878D01*
X30185Y-73802D01*
X30357Y-73626D01*
X30545Y-73470D01*
X30657Y-73390D01*
X30845Y-73266D01*
X30957Y-73202D01*
X31049Y-73138D01*
X31161Y-73078D01*
X31381Y-72982D01*
X31493Y-72950D01*
X31601Y-72902D01*
X31821Y-72842D01*
X31949Y-72810D01*
X32057Y-72778D01*
X32185Y-72762D01*
X32293Y-72746D01*
X32421Y-72730D01*
X32545D01*
X32673Y-72714D01*
X33253D01*
X33381Y-72730D01*
X33505D01*
X33633Y-72746D01*
X33745Y-72762D01*
X33869Y-72778D01*
X33997Y-72810D01*
X34217Y-72870D01*
X34341Y-72902D01*
X34453Y-72934D01*
X34781Y-73078D01*
X34877Y-73138D01*
X34989Y-73186D01*
X35081Y-73250D01*
X35193Y-73314D01*
X35285Y-73390D01*
X35381Y-73454D01*
X35569Y-73614D01*
X35665Y-73706D01*
X35757Y-73786D01*
X35917Y-73974D01*
X36009Y-74070D01*
X36073Y-74162D01*
X36153Y-74258D01*
X36277Y-74446D01*
X36405Y-74666D01*
X36453Y-74762D01*
X36513Y-74870D01*
X36561Y-74982D01*
X36593Y-75094D01*
X36641Y-75202D01*
X36673Y-75314D01*
X36705Y-75438D01*
X36737Y-75550D01*
X36749Y-75674D01*
X36781Y-75786D01*
X36797Y-75910D01*
Y-76038D01*
X36813Y-76162D01*
Y-76290D01*
X36829Y-76414D01*
Y-77502D01*
X36813Y-77518D01*
Y-77598D01*
X36797Y-77614D01*
Y-77626D01*
X36765Y-77658D01*
Y-77674D01*
X36749Y-77690D01*
X36737D01*
Y-77706D01*
X36721D01*
X36705Y-77722D01*
X36673D01*
X36657Y-77738D01*
X34673D01*
X34657Y-77722D01*
X34625D01*
X34609Y-77706D01*
X34593D01*
X34545Y-77658D01*
Y-77642D01*
X34529D01*
Y-77626D01*
X34513Y-77614D01*
Y-77566D01*
X34497Y-77534D01*
Y-76274D01*
X34485Y-76226D01*
Y-76146D01*
X34453Y-76054D01*
Y-76006D01*
X34437Y-75958D01*
X34421Y-75926D01*
X34405Y-75878D01*
X34389Y-75850D01*
X34373Y-75802D01*
X34341Y-75770D01*
X34325Y-75722D01*
X34293Y-75690D01*
X34277Y-75642D01*
X34245Y-75614D01*
X34233Y-75582D01*
X34201Y-75534D01*
X34073Y-75406D01*
X34025Y-75374D01*
X33933Y-75282D01*
X33885Y-75266D01*
X33853Y-75234D01*
X33821Y-75218D01*
X33773Y-75186D01*
X33745Y-75170D01*
X33697Y-75154D01*
X33665Y-75138D01*
X33569Y-75110D01*
X33537Y-75094D01*
X33493Y-75078D01*
X33445D01*
X33397Y-75062D01*
X33349D01*
X33301Y-75046D01*
X32609D01*
X32561Y-75062D01*
X32513D01*
X32485Y-75078D01*
X32437D01*
X32341Y-75110D01*
X32309Y-75122D01*
X32261Y-75138D01*
X32233Y-75154D01*
X32185Y-75170D01*
X32153Y-75186D01*
X32105Y-75218D01*
X32073Y-75234D01*
X32025Y-75266D01*
X31997Y-75282D01*
X31965Y-75314D01*
X31917Y-75346D01*
X31729Y-75534D01*
X31697Y-75582D01*
X31665Y-75614D01*
X31649Y-75642D01*
X31617Y-75690D01*
X31601Y-75722D01*
X31569Y-75770D01*
X31553Y-75802D01*
X31537Y-75850D01*
X31521Y-75878D01*
X31505Y-75926D01*
X31493Y-75958D01*
X31461Y-76054D01*
Y-76102D01*
X31445Y-76146D01*
Y-76178D01*
X31429Y-76226D01*
Y-76650D01*
X31445Y-76714D01*
Y-76794D01*
X31461Y-76858D01*
X31477Y-76934D01*
X31505Y-77062D01*
X31521Y-77138D01*
X31553Y-77202D01*
X31569Y-77266D01*
X31601Y-77314D01*
X31697Y-77502D01*
X31729Y-77550D01*
X31773Y-77598D01*
X31805Y-77658D01*
X32105Y-77958D01*
X32185Y-78022D01*
X32293Y-78118D01*
X32421Y-78226D01*
X32561Y-78354D01*
X32737Y-78494D01*
X32909Y-78650D01*
X33097Y-78826D01*
X33505Y-79170D01*
X33729Y-79362D01*
X33933Y-79550D01*
X34341Y-79894D01*
X34529Y-80070D01*
X34705Y-80226D01*
X34877Y-80370D01*
X35017Y-80494D01*
X35161Y-80606D01*
X35253Y-80698D01*
X35333Y-80762D01*
X35397Y-80826D01*
X35521Y-80918D01*
X35633Y-81030D01*
X35729Y-81138D01*
X35837Y-81250D01*
X35933Y-81374D01*
X36025Y-81486D01*
X36341Y-81990D01*
X36405Y-82118D01*
X36529Y-82398D01*
X36577Y-82526D01*
X36625Y-82682D01*
X36673Y-82826D01*
X36705Y-82966D01*
X36737Y-83122D01*
X36765Y-83266D01*
X36797Y-83582D01*
X36813Y-83754D01*
Y-83910D01*
X36829Y-84086D01*
X36813Y-84210D01*
Y-84338D01*
X36797Y-84462D01*
Y-84590D01*
X36781Y-84698D01*
X36749Y-84826D01*
X36737Y-84934D01*
X36705Y-85062D01*
X36641Y-85282D01*
X36405Y-85834D01*
X36341Y-85926D01*
X36277Y-86038D01*
X36153Y-86226D01*
X36073Y-86338D01*
X35917Y-86526D01*
X35649Y-86794D01*
X35269Y-87110D01*
X35177Y-87170D01*
X35065Y-87234D01*
X34973Y-87298D01*
X34861Y-87362D01*
X34765Y-87406D01*
X34657Y-87470D01*
X34545Y-87518D01*
X34437Y-87550D01*
X34325Y-87598D01*
X34217Y-87626D01*
X34089Y-87658D01*
X33869Y-87722D01*
X33617Y-87754D01*
X33505Y-87770D01*
X33381D01*
X33253Y-87786D01*
X32673D01*
X32545Y-87770D01*
X32421D01*
X32293Y-87754D01*
X32185Y-87738D01*
X32057Y-87722D01*
X31949Y-87690D01*
X31821Y-87658D01*
X31601Y-87598D01*
X31493Y-87550D01*
X31381Y-87518D01*
X31269Y-87470D01*
X31161Y-87406D01*
X31049Y-87362D01*
X30957Y-87298D01*
X30845Y-87234D01*
X30657Y-87110D01*
X30545Y-87030D01*
X30357Y-86870D01*
X30009Y-86526D01*
X29853Y-86338D01*
X29773Y-86226D01*
X29649Y-86038D01*
X29585Y-85926D01*
X29521Y-85834D01*
X29461Y-85722D01*
X29365Y-85502D01*
X29333Y-85390D01*
X29285Y-85282D01*
X29225Y-85062D01*
X29193Y-84934D01*
X29161Y-84826D01*
X29145Y-84698D01*
X29129Y-84590D01*
X29113Y-84462D01*
Y-84338D01*
X29097Y-84210D01*
Y-82998D01*
X29113Y-82982D01*
Y-82934D01*
X29129Y-82918D01*
Y-82902D01*
X29145Y-82886D01*
Y-82870D01*
X29161D01*
X29177Y-82858D01*
Y-82842D01*
X29193D01*
X29209Y-82826D01*
X29225D01*
X29241Y-82810D01*
X29301D01*
X29317Y-82794D01*
X31209D01*
X31225Y-82810D01*
X31285D01*
X31301Y-82826D01*
X31317D01*
X31381Y-82886D01*
Y-82902D01*
X31397Y-82918D01*
Y-82934D01*
X31413Y-82950D01*
Y-83014D01*
X31429Y-83046D01*
Y-84258D01*
X31445Y-84306D01*
Y-84354D01*
X31461Y-84398D01*
Y-84430D01*
X31493Y-84526D01*
X31505Y-84558D01*
X31537Y-84650D01*
X31553Y-84682D01*
X31585Y-84730D01*
X31601Y-84762D01*
X31633Y-84794D01*
X31649Y-84842D01*
X31713Y-84902D01*
X31729Y-84950D01*
X31789Y-85014D01*
X31837Y-85046D01*
X31869Y-85094D01*
X31933Y-85154D01*
X31981Y-85170D01*
X32041Y-85234D01*
X32089Y-85250D01*
X32121Y-85282D01*
X32153Y-85298D01*
X32201Y-85330D01*
X32233Y-85346D01*
X32325Y-85374D01*
X32357Y-85390D01*
X32453Y-85422D01*
X32485D01*
X32529Y-85438D01*
X32577D01*
X32625Y-85454D01*
X33301D01*
X33349Y-85438D01*
X33397D01*
X33445Y-85422D01*
X33493D01*
X33537Y-85406D01*
X33569Y-85390D01*
X33665Y-85362D01*
X33697Y-85346D01*
X33745Y-85330D01*
X33773Y-85298D01*
X33821Y-85282D01*
X33853Y-85266D01*
X33885Y-85234D01*
X33933Y-85202D01*
X33965Y-85186D01*
X34025Y-85122D01*
X34073Y-85094D01*
X34169Y-84998D01*
X34201Y-84950D01*
X34233Y-84918D01*
X34245Y-84886D01*
X34277Y-84842D01*
X34293Y-84810D01*
X34325Y-84778D01*
X34341Y-84730D01*
X34373Y-84698D01*
X34405Y-84606D01*
X34421Y-84574D01*
X34453Y-84478D01*
Y-84446D01*
X34485Y-84354D01*
Y-84258D01*
X34497Y-84210D01*
Y-83834D01*
X34485Y-83754D01*
Y-83674D01*
X34469Y-83614D01*
X34453Y-83534D01*
X34437Y-83470D01*
X34421Y-83390D01*
X34405Y-83330D01*
X34373Y-83266D01*
X34357Y-83202D01*
X34261Y-83014D01*
X34233Y-82966D01*
X34201Y-82902D01*
X34169Y-82858D01*
X34121Y-82794D01*
X34089Y-82746D01*
X33901Y-82558D01*
X33821Y-82494D01*
X33537Y-82258D01*
X33445Y-82162D01*
X33333Y-82086D01*
X33225Y-81990D01*
X33097Y-81878D01*
X32989Y-81770D01*
X32845Y-81658D01*
X32721Y-81550D01*
X32577Y-81438D01*
X32293Y-81186D01*
X31981Y-80902D01*
X31805Y-80762D01*
X31649Y-80622D01*
G37*
G36*
G01X28405Y-91438D02*
X28389Y-91454D01*
Y-91470D01*
X28373Y-91486D01*
Y-91502D01*
X28357Y-91518D01*
Y-91534D01*
X28341D01*
Y-91566D01*
X28325D01*
Y-91582D01*
X28309D01*
Y-91614D01*
X28293D01*
Y-91626D01*
X28277D01*
Y-91642D01*
X28261Y-91658D01*
Y-91674D01*
X28245D01*
Y-91690D01*
X28233D01*
Y-91706D01*
X28217D01*
Y-91722D01*
X28201D01*
Y-91738D01*
X28185D01*
Y-91754D01*
X28169D01*
X28105Y-91818D01*
X28089D01*
X28057Y-91850D01*
X28041D01*
X28025Y-91866D01*
X28009D01*
Y-91878D01*
X27997D01*
X27981Y-91894D01*
X27965D01*
Y-91910D01*
X27933D01*
X27917Y-91926D01*
X27901D01*
X27885Y-91942D01*
X27853D01*
Y-91958D01*
X27837D01*
Y-91974D01*
X27853D01*
Y-92006D01*
X27869D01*
Y-92022D01*
X27885Y-92038D01*
Y-92054D01*
X27901Y-92070D01*
Y-92086D01*
X27917Y-92102D01*
Y-92118D01*
X27933Y-92130D01*
Y-92146D01*
X27949Y-92162D01*
Y-92178D01*
X27965Y-92194D01*
Y-92210D01*
X27981Y-92226D01*
Y-92242D01*
X28009Y-92274D01*
Y-92306D01*
X28041Y-92338D01*
Y-92354D01*
X28057Y-92382D01*
X28073Y-92398D01*
Y-92414D01*
X28089Y-92446D01*
X28105Y-92462D01*
Y-92478D01*
X28121Y-92510D01*
X28137Y-92526D01*
X28153Y-92558D01*
Y-92574D01*
X28169Y-92590D01*
X28185Y-92622D01*
X28201Y-92634D01*
Y-92666D01*
X28217Y-92682D01*
X28233Y-92714D01*
X28245Y-92730D01*
Y-92762D01*
X28277Y-92794D01*
Y-92826D01*
X28293Y-92842D01*
X28309Y-92870D01*
X28325Y-92886D01*
Y-92902D01*
X28341Y-92934D01*
X28357Y-92950D01*
X28373Y-92982D01*
Y-92998D01*
X28389Y-93014D01*
X28405Y-93046D01*
Y-93062D01*
X28437Y-93094D01*
Y-93122D01*
X28453Y-93138D01*
Y-93154D01*
X28485Y-93186D01*
Y-93202D01*
X28497Y-93234D01*
Y-93250D01*
X28513Y-93266D01*
Y-93282D01*
X28529Y-93298D01*
Y-93314D01*
X28545D01*
Y-93330D01*
X28561Y-93346D01*
Y-93362D01*
X28577Y-93374D01*
Y-93390D01*
X28593Y-93406D01*
Y-93422D01*
X28609Y-93438D01*
Y-93454D01*
X27821D01*
Y-93438D01*
X27805Y-93422D01*
Y-93406D01*
X27789Y-93390D01*
Y-93374D01*
X27773Y-93362D01*
Y-93346D01*
X27757Y-93330D01*
Y-93314D01*
X27745Y-93298D01*
Y-93282D01*
X27729Y-93266D01*
Y-93250D01*
X27713Y-93234D01*
Y-93218D01*
X27697Y-93202D01*
Y-93170D01*
X27665Y-93138D01*
Y-93122D01*
X27649Y-93110D01*
Y-93094D01*
X27633Y-93078D01*
Y-93046D01*
X27601Y-93014D01*
Y-92998D01*
X27585Y-92966D01*
Y-92950D01*
X27569Y-92934D01*
X27553Y-92902D01*
Y-92886D01*
X27521Y-92858D01*
Y-92826D01*
X27493Y-92794D01*
Y-92762D01*
X27461Y-92730D01*
Y-92698D01*
X27445Y-92682D01*
Y-92666D01*
X27429Y-92634D01*
X27413Y-92622D01*
Y-92606D01*
X27397Y-92574D01*
X27381Y-92558D01*
Y-92542D01*
X27365Y-92526D01*
X27349Y-92494D01*
Y-92478D01*
X27333Y-92462D01*
Y-92446D01*
X27317Y-92430D01*
Y-92398D01*
X27285Y-92370D01*
Y-92354D01*
X27269Y-92338D01*
Y-92322D01*
X27253Y-92306D01*
Y-92290D01*
X27241Y-92274D01*
Y-92258D01*
X27225Y-92242D01*
Y-92210D01*
X27193Y-92178D01*
Y-92146D01*
X27177D01*
Y-92118D01*
X27161Y-92102D01*
Y-92086D01*
X27145D01*
Y-92070D01*
X26657D01*
Y-93454D01*
X25981D01*
Y-89974D01*
X27521D01*
X27553Y-89990D01*
X27617D01*
X27649Y-90006D01*
X27697D01*
X27713Y-90022D01*
X27757D01*
X27773Y-90038D01*
X27789D01*
X27805Y-90054D01*
X27837D01*
X27853Y-90070D01*
X27869D01*
X27885Y-90086D01*
X27901D01*
X27917Y-90102D01*
X27933D01*
X27949Y-90118D01*
X27965D01*
X27981Y-90130D01*
X27997D01*
X28025Y-90162D01*
X28041D01*
Y-90178D01*
X28057D01*
X28089Y-90210D01*
X28105D01*
X28121Y-90226D01*
Y-90242D01*
X28137Y-90258D01*
X28153D01*
X28169Y-90274D01*
Y-90290D01*
X28185D01*
X28217Y-90322D01*
Y-90338D01*
X28233Y-90354D01*
X28245D01*
Y-90370D01*
X28277Y-90398D01*
Y-90414D01*
X28293D01*
Y-90430D01*
X28325Y-90462D01*
Y-90478D01*
X28341Y-90494D01*
Y-90510D01*
X28357Y-90526D01*
Y-90542D01*
X28373Y-90558D01*
Y-90574D01*
X28389Y-90590D01*
Y-90606D01*
X28405Y-90622D01*
Y-90650D01*
X28421Y-90666D01*
Y-90698D01*
X28437Y-90714D01*
Y-90746D01*
X28453Y-90762D01*
Y-90842D01*
X28469Y-90858D01*
Y-90998D01*
X28485Y-91014D01*
Y-91062D01*
X28469Y-91078D01*
Y-91218D01*
X28453Y-91234D01*
Y-91298D01*
X28437Y-91314D01*
Y-91346D01*
X28421Y-91362D01*
Y-91390D01*
X28405Y-91406D01*
Y-91438D01*
G37*
G36*
G01X24973Y-90622D02*
X24989Y-90634D01*
Y-90650D01*
X25001Y-90666D01*
Y-90714D01*
X25017Y-90730D01*
Y-90762D01*
X25033Y-90778D01*
Y-90858D01*
X25049Y-90870D01*
Y-91202D01*
X25033Y-91218D01*
Y-91282D01*
X25017Y-91298D01*
Y-91330D01*
X25001Y-91346D01*
Y-91374D01*
X24989Y-91390D01*
Y-91422D01*
X24973Y-91438D01*
Y-91470D01*
X24957D01*
Y-91502D01*
X24941D01*
Y-91534D01*
X24925D01*
Y-91550D01*
X24909Y-91566D01*
Y-91582D01*
X24893D01*
Y-91598D01*
X24877Y-91614D01*
Y-91626D01*
X24861D01*
Y-91642D01*
X24705Y-91802D01*
X24689D01*
Y-91818D01*
X24673D01*
X24641Y-91850D01*
X24625D01*
X24609Y-91866D01*
X24593D01*
X24561Y-91894D01*
X24545D01*
X24529Y-91910D01*
X24513D01*
X24497Y-91926D01*
X24485D01*
X24469Y-91942D01*
X24437D01*
X24421Y-91958D01*
Y-91974D01*
X24437Y-91990D01*
Y-92006D01*
X24453Y-92022D01*
Y-92038D01*
X24485Y-92070D01*
Y-92102D01*
X24497Y-92118D01*
Y-92130D01*
X24513Y-92146D01*
Y-92162D01*
X24545Y-92194D01*
Y-92210D01*
X24561Y-92226D01*
Y-92242D01*
X24577Y-92258D01*
Y-92274D01*
X24593Y-92306D01*
X24609Y-92322D01*
Y-92338D01*
X24625Y-92354D01*
X24641Y-92382D01*
Y-92398D01*
X24657Y-92414D01*
X24673Y-92446D01*
X24689Y-92462D01*
Y-92478D01*
X24705Y-92510D01*
X24721Y-92526D01*
Y-92558D01*
X24749Y-92590D01*
X24765Y-92622D01*
Y-92634D01*
X24781Y-92666D01*
X24797Y-92682D01*
X24813Y-92714D01*
Y-92730D01*
X24829Y-92762D01*
X24861Y-92794D01*
Y-92826D01*
X24877Y-92842D01*
X24893Y-92870D01*
Y-92886D01*
X24909Y-92902D01*
X24925Y-92934D01*
X24941Y-92950D01*
Y-92982D01*
X24973Y-93014D01*
Y-93046D01*
X25001Y-93078D01*
Y-93094D01*
X25017Y-93122D01*
X25033Y-93138D01*
Y-93154D01*
X25049Y-93170D01*
Y-93186D01*
X25065Y-93202D01*
X25081Y-93234D01*
Y-93250D01*
X25097Y-93266D01*
Y-93282D01*
X25113Y-93298D01*
Y-93314D01*
X25129D01*
Y-93330D01*
X25145Y-93346D01*
Y-93374D01*
X25161D01*
Y-93406D01*
X25177D01*
Y-93438D01*
X25193D01*
Y-93454D01*
X24405D01*
Y-93438D01*
X24389D01*
Y-93406D01*
X24373D01*
Y-93374D01*
X24341Y-93346D01*
Y-93314D01*
X24309Y-93282D01*
Y-93266D01*
X24293Y-93250D01*
Y-93234D01*
X24277Y-93218D01*
Y-93202D01*
X24261Y-93170D01*
Y-93154D01*
X24245Y-93138D01*
Y-93122D01*
X24233Y-93110D01*
Y-93094D01*
X24217Y-93078D01*
X24201Y-93046D01*
Y-93030D01*
X24185Y-93014D01*
Y-92998D01*
X24169Y-92966D01*
X24153Y-92950D01*
Y-92934D01*
X24137Y-92902D01*
X24121Y-92886D01*
Y-92870D01*
X24105Y-92858D01*
X24089Y-92826D01*
Y-92810D01*
X24073Y-92794D01*
Y-92762D01*
X24041Y-92730D01*
Y-92698D01*
X24009Y-92666D01*
Y-92634D01*
X23981Y-92606D01*
Y-92574D01*
X23949Y-92542D01*
Y-92526D01*
X23933Y-92494D01*
Y-92478D01*
X23901Y-92446D01*
Y-92430D01*
X23885Y-92398D01*
Y-92382D01*
X23869Y-92370D01*
Y-92354D01*
X23853Y-92338D01*
Y-92322D01*
X23837Y-92306D01*
Y-92290D01*
X23821Y-92274D01*
Y-92258D01*
X23805Y-92242D01*
Y-92226D01*
X23789Y-92210D01*
Y-92194D01*
X23773Y-92178D01*
Y-92146D01*
X23757D01*
Y-92130D01*
X23745Y-92118D01*
Y-92102D01*
X23729Y-92086D01*
Y-92070D01*
X23241D01*
Y-93454D01*
X22545D01*
Y-89974D01*
X24105D01*
X24121Y-89990D01*
X24201D01*
X24217Y-90006D01*
X24277D01*
X24293Y-90022D01*
X24325D01*
X24341Y-90038D01*
X24357D01*
X24389Y-90054D01*
X24421D01*
X24437Y-90070D01*
X24453D01*
X24469Y-90086D01*
X24485D01*
X24497Y-90102D01*
X24513D01*
X24529Y-90118D01*
X24545D01*
X24561Y-90130D01*
X24577D01*
Y-90146D01*
X24593Y-90162D01*
X24609D01*
X24625Y-90178D01*
X24641D01*
X24673Y-90210D01*
X24689D01*
Y-90226D01*
X24721Y-90258D01*
X24737D01*
X24749Y-90274D01*
Y-90290D01*
X24765D01*
X24781Y-90306D01*
Y-90322D01*
X24845Y-90382D01*
Y-90398D01*
X24861Y-90414D01*
X24877D01*
Y-90430D01*
X24893Y-90446D01*
Y-90462D01*
X24909Y-90478D01*
Y-90494D01*
X24925Y-90510D01*
Y-90526D01*
X24941Y-90542D01*
Y-90558D01*
X24957D01*
Y-90574D01*
X24973Y-90590D01*
Y-90622D01*
G37*
G36*
G01X21397Y-93014D02*
X21301Y-93110D01*
X21209Y-93202D01*
X21177Y-93218D01*
X21145Y-93250D01*
X21113Y-93266D01*
X21081Y-93298D01*
X21049Y-93314D01*
X21001Y-93346D01*
X20941Y-93374D01*
X20893Y-93390D01*
X20861Y-93406D01*
X20813Y-93422D01*
X20781Y-93438D01*
X20737Y-93454D01*
X20689D01*
X20641Y-93470D01*
X20609D01*
X20561Y-93486D01*
X20169D01*
X20137Y-93470D01*
X20089D01*
X20041Y-93454D01*
X19997D01*
X19965Y-93438D01*
X19869Y-93406D01*
X19837Y-93390D01*
X19789Y-93374D01*
X19729Y-93346D01*
X19681Y-93314D01*
X19649Y-93298D01*
X19617Y-93266D01*
X19585Y-93250D01*
X19553Y-93218D01*
X19521Y-93202D01*
X19477Y-93170D01*
X19413Y-93110D01*
X19381Y-93062D01*
X19333Y-93014D01*
X19241Y-92870D01*
X19225Y-92826D01*
X19193Y-92778D01*
X19177Y-92730D01*
X19161Y-92666D01*
X19145Y-92622D01*
X19129Y-92558D01*
X19113Y-92510D01*
Y-92446D01*
X19097Y-92382D01*
Y-92322D01*
X19081Y-92274D01*
Y-91170D01*
X19097Y-91110D01*
Y-91046D01*
X19113Y-90982D01*
Y-90918D01*
X19129Y-90870D01*
X19145Y-90810D01*
X19161Y-90762D01*
X19177Y-90698D01*
X19193Y-90650D01*
X19225Y-90606D01*
X19241Y-90558D01*
X19333Y-90414D01*
X19381Y-90370D01*
X19413Y-90322D01*
X19477Y-90258D01*
X19521Y-90242D01*
X19585Y-90178D01*
X19617Y-90162D01*
X19649Y-90130D01*
X19681Y-90118D01*
X19729Y-90102D01*
X19757Y-90070D01*
X19789Y-90054D01*
X19837Y-90038D01*
X19869Y-90022D01*
X19965Y-89990D01*
X19997D01*
X20089Y-89958D01*
X20137D01*
X20169Y-89942D01*
X20561D01*
X20609Y-89958D01*
X20641D01*
X20737Y-89990D01*
X20781D01*
X20813Y-90006D01*
X20861Y-90022D01*
X20893Y-90038D01*
X20941Y-90054D01*
X20973Y-90070D01*
X21001Y-90102D01*
X21049Y-90118D01*
X21081Y-90130D01*
X21113Y-90162D01*
X21145Y-90178D01*
X21209Y-90242D01*
X21241Y-90258D01*
X21397Y-90414D01*
X21493Y-90558D01*
X21505Y-90606D01*
X21537Y-90650D01*
X21553Y-90698D01*
X21569Y-90762D01*
X21585Y-90810D01*
X21601Y-90870D01*
X21617Y-90918D01*
X21633Y-90982D01*
Y-91110D01*
X21649Y-91170D01*
Y-91422D01*
X21665Y-91502D01*
Y-91926D01*
X21649Y-92006D01*
Y-92274D01*
X21633Y-92322D01*
Y-92446D01*
X21617Y-92510D01*
X21601Y-92558D01*
X21585Y-92622D01*
X21569Y-92666D01*
X21553Y-92730D01*
X21537Y-92778D01*
X21505Y-92826D01*
X21493Y-92870D01*
X21397Y-93014D01*
G37*
G36*
G01X17493Y-91422D02*
X16829Y-92746D01*
X16373D01*
X15697Y-91422D01*
Y-93454D01*
X15017D01*
Y-89974D01*
X15681D01*
X16593Y-91866D01*
X17505Y-89974D01*
X18185D01*
Y-93454D01*
X17493D01*
Y-91422D01*
G37*
G36*
G01X22389Y-80902D02*
X21869Y-80478D01*
X21697Y-80322D01*
X21505Y-80146D01*
X21317Y-79990D01*
X21129Y-79818D01*
X20925Y-79642D01*
X20797Y-79550D01*
X20689Y-79438D01*
X20593Y-79330D01*
X20485Y-79218D01*
X20389Y-79094D01*
X20309Y-78982D01*
X20217Y-78858D01*
X20057Y-78606D01*
X19997Y-78478D01*
X19917Y-78354D01*
X19869Y-78210D01*
X19805Y-78086D01*
X19665Y-77658D01*
X19633Y-77518D01*
X19569Y-77202D01*
X19553Y-77062D01*
X19521Y-76902D01*
Y-76730D01*
X19505Y-76574D01*
Y-76290D01*
X19521Y-76162D01*
Y-76038D01*
X19553Y-75786D01*
X19569Y-75674D01*
X19601Y-75550D01*
X19665Y-75330D01*
X19697Y-75202D01*
X19745Y-75094D01*
X19773Y-74982D01*
X19821Y-74886D01*
X19869Y-74778D01*
X19933Y-74666D01*
X19997Y-74574D01*
X20057Y-74462D01*
X20121Y-74370D01*
X20185Y-74258D01*
X20497Y-73878D01*
X20593Y-73802D01*
X20673Y-73706D01*
X20957Y-73470D01*
X21065Y-73390D01*
X21253Y-73266D01*
X21365Y-73202D01*
X21461Y-73138D01*
X21569Y-73078D01*
X21789Y-72982D01*
X21901Y-72950D01*
X22009Y-72902D01*
X22233Y-72842D01*
X22357Y-72810D01*
X22469Y-72778D01*
X22593Y-72762D01*
X22705Y-72746D01*
X22829Y-72730D01*
X22957D01*
X23081Y-72714D01*
X23665D01*
X23789Y-72730D01*
X23917D01*
X24041Y-72746D01*
X24153Y-72762D01*
X24277Y-72778D01*
X24405Y-72810D01*
X24625Y-72870D01*
X24749Y-72902D01*
X24861Y-72934D01*
X25081Y-73030D01*
X25177Y-73078D01*
X25285Y-73138D01*
X25397Y-73186D01*
X25493Y-73250D01*
X25601Y-73314D01*
X25697Y-73390D01*
X25789Y-73454D01*
X25981Y-73614D01*
X26073Y-73706D01*
X26169Y-73786D01*
X26561Y-74258D01*
X26689Y-74446D01*
X26813Y-74666D01*
X26861Y-74762D01*
X26925Y-74870D01*
X26973Y-74982D01*
X27001Y-75094D01*
X27049Y-75202D01*
X27081Y-75314D01*
X27113Y-75438D01*
X27145Y-75550D01*
X27161Y-75674D01*
X27193Y-75786D01*
X27209Y-75910D01*
Y-76038D01*
X27225Y-76162D01*
Y-76290D01*
X27241Y-76414D01*
Y-77486D01*
X27225Y-77502D01*
Y-77598D01*
X27209Y-77614D01*
Y-77626D01*
X27177Y-77658D01*
Y-77674D01*
X27161Y-77690D01*
X27145D01*
Y-77706D01*
X27129D01*
X27113Y-77722D01*
X27081D01*
X27065Y-77738D01*
X25081D01*
X25065Y-77722D01*
X25033D01*
X25017Y-77706D01*
X25001D01*
X24957Y-77658D01*
Y-77642D01*
X24941D01*
Y-77626D01*
X24925Y-77614D01*
Y-77566D01*
X24909Y-77534D01*
Y-76274D01*
X24893Y-76226D01*
Y-76146D01*
X24861Y-76054D01*
Y-76006D01*
X24845Y-75958D01*
X24829Y-75926D01*
X24813Y-75878D01*
X24797Y-75850D01*
X24765Y-75802D01*
X24749Y-75770D01*
X24737Y-75722D01*
X24705Y-75690D01*
X24689Y-75642D01*
X24625Y-75582D01*
X24609Y-75534D01*
X24485Y-75406D01*
X24437Y-75374D01*
X24341Y-75282D01*
X24293Y-75266D01*
X24261Y-75234D01*
X24233Y-75218D01*
X24185Y-75186D01*
X24153Y-75170D01*
X24057Y-75138D01*
X24025Y-75122D01*
X23933Y-75094D01*
X23901Y-75078D01*
X23853D01*
X23805Y-75062D01*
X23757D01*
X23713Y-75046D01*
X23017D01*
X22973Y-75062D01*
X22925D01*
X22893Y-75078D01*
X22845D01*
X22749Y-75110D01*
X22721Y-75122D01*
X22673Y-75138D01*
X22641Y-75154D01*
X22593Y-75170D01*
X22561Y-75186D01*
X22513Y-75218D01*
X22485Y-75234D01*
X22437Y-75266D01*
X22405Y-75282D01*
X22373Y-75314D01*
X22325Y-75346D01*
X22137Y-75534D01*
X22105Y-75582D01*
X22073Y-75614D01*
X22057Y-75642D01*
X22025Y-75690D01*
X22009Y-75722D01*
X21981Y-75770D01*
X21965Y-75802D01*
X21949Y-75850D01*
X21933Y-75878D01*
X21917Y-75926D01*
X21901Y-75958D01*
X21869Y-76054D01*
Y-76102D01*
X21853Y-76146D01*
Y-76178D01*
X21837Y-76226D01*
Y-76370D01*
X21821Y-76414D01*
X21837Y-76494D01*
Y-76650D01*
X21853Y-76714D01*
Y-76794D01*
X21869Y-76858D01*
X21885Y-76934D01*
X21917Y-77062D01*
X21933Y-77138D01*
X21965Y-77202D01*
X21981Y-77266D01*
X22009Y-77314D01*
X22105Y-77502D01*
X22137Y-77550D01*
X22185Y-77598D01*
X22217Y-77658D01*
X22513Y-77958D01*
X22593Y-78022D01*
X22705Y-78118D01*
X22829Y-78226D01*
X22973Y-78354D01*
X23145Y-78494D01*
X23317Y-78650D01*
X23505Y-78826D01*
X23917Y-79170D01*
X24137Y-79362D01*
X24341Y-79550D01*
X24749Y-79894D01*
X24941Y-80070D01*
X25113Y-80226D01*
X25285Y-80370D01*
X25429Y-80494D01*
X25553Y-80606D01*
X25665Y-80698D01*
X25745Y-80762D01*
X25805Y-80826D01*
X25933Y-80918D01*
X26041Y-81030D01*
X26137Y-81138D01*
X26245Y-81250D01*
X26341Y-81374D01*
X26437Y-81486D01*
X26749Y-81990D01*
X26813Y-82118D01*
X26941Y-82398D01*
X26989Y-82526D01*
X27033Y-82682D01*
X27065Y-82826D01*
X27113Y-82966D01*
X27145Y-83122D01*
X27177Y-83266D01*
X27209Y-83582D01*
X27225Y-83754D01*
Y-83910D01*
X27241Y-84086D01*
X27225Y-84210D01*
Y-84338D01*
X27209Y-84462D01*
Y-84590D01*
X27193Y-84698D01*
X27161Y-84826D01*
X27145Y-84934D01*
X27113Y-85062D01*
X27049Y-85282D01*
X26813Y-85834D01*
X26749Y-85926D01*
X26689Y-86038D01*
X26561Y-86226D01*
X26485Y-86338D01*
X26325Y-86526D01*
X26057Y-86794D01*
X25681Y-87110D01*
X25585Y-87170D01*
X25477Y-87234D01*
X25381Y-87298D01*
X25269Y-87362D01*
X25177Y-87406D01*
X25065Y-87470D01*
X24957Y-87518D01*
X24845Y-87550D01*
X24737Y-87598D01*
X24497Y-87658D01*
X24277Y-87722D01*
X23901Y-87770D01*
X23789D01*
X23665Y-87786D01*
X23081D01*
X22957Y-87770D01*
X22829D01*
X22705Y-87754D01*
X22593Y-87738D01*
X22469Y-87722D01*
X22357Y-87690D01*
X22233Y-87658D01*
X22009Y-87598D01*
X21901Y-87550D01*
X21789Y-87518D01*
X21681Y-87470D01*
X21569Y-87406D01*
X21461Y-87362D01*
X21365Y-87298D01*
X21253Y-87234D01*
X21065Y-87110D01*
X20957Y-87030D01*
X20673Y-86794D01*
X20593Y-86698D01*
X20421Y-86526D01*
X20261Y-86338D01*
X20185Y-86226D01*
X20057Y-86038D01*
X19997Y-85926D01*
X19933Y-85834D01*
X19869Y-85722D01*
X19773Y-85502D01*
X19745Y-85390D01*
X19697Y-85282D01*
X19633Y-85062D01*
X19601Y-84934D01*
X19569Y-84826D01*
X19553Y-84698D01*
X19537Y-84590D01*
X19521Y-84462D01*
Y-84338D01*
X19505Y-84210D01*
Y-82998D01*
X19521Y-82982D01*
Y-82934D01*
X19537Y-82918D01*
Y-82902D01*
X19553Y-82886D01*
Y-82870D01*
X19569D01*
X19585Y-82858D01*
Y-82842D01*
X19601D01*
X19617Y-82826D01*
X19633D01*
X19649Y-82810D01*
X19713D01*
X19729Y-82794D01*
X21601D01*
X21633Y-82810D01*
X21697D01*
X21713Y-82826D01*
X21729D01*
X21789Y-82886D01*
Y-82902D01*
X21805Y-82918D01*
Y-82934D01*
X21821Y-82950D01*
Y-84086D01*
X21837Y-84130D01*
Y-84258D01*
X21853Y-84306D01*
Y-84354D01*
X21869Y-84398D01*
Y-84430D01*
X21901Y-84526D01*
X21917Y-84558D01*
X21949Y-84650D01*
X21965Y-84682D01*
X21997Y-84730D01*
X22009Y-84762D01*
X22041Y-84794D01*
X22057Y-84842D01*
X22121Y-84902D01*
X22137Y-84950D01*
X22201Y-85014D01*
X22245Y-85046D01*
X22277Y-85094D01*
X22341Y-85154D01*
X22373Y-85170D01*
X22421Y-85202D01*
X22453Y-85234D01*
X22497Y-85250D01*
X22529Y-85282D01*
X22561Y-85298D01*
X22609Y-85330D01*
X22641Y-85346D01*
X22737Y-85374D01*
X22765Y-85390D01*
X22813Y-85406D01*
X22845Y-85422D01*
X22893D01*
X22941Y-85438D01*
X22989D01*
X23033Y-85454D01*
X23713D01*
X23757Y-85438D01*
X23805D01*
X23853Y-85422D01*
X23901D01*
X23933Y-85406D01*
X24025Y-85374D01*
X24057Y-85362D01*
X24153Y-85330D01*
X24185Y-85298D01*
X24233Y-85282D01*
X24261Y-85266D01*
X24293Y-85234D01*
X24341Y-85202D01*
X24373Y-85186D01*
X24437Y-85122D01*
X24485Y-85094D01*
X24577Y-84998D01*
X24609Y-84950D01*
X24625Y-84918D01*
X24657Y-84886D01*
X24689Y-84842D01*
X24705Y-84810D01*
X24737Y-84778D01*
X24749Y-84730D01*
X24765Y-84698D01*
X24797Y-84650D01*
X24813Y-84606D01*
X24829Y-84574D01*
X24861Y-84478D01*
Y-84446D01*
X24893Y-84354D01*
Y-84258D01*
X24909Y-84210D01*
Y-83834D01*
X24877Y-83674D01*
Y-83614D01*
X24861Y-83534D01*
X24845Y-83470D01*
X24829Y-83390D01*
X24797Y-83330D01*
X24765Y-83202D01*
X24673Y-83014D01*
X24641Y-82966D01*
X24609Y-82902D01*
X24577Y-82858D01*
X24529Y-82794D01*
X24497Y-82746D01*
X24309Y-82558D01*
X24233Y-82494D01*
X23949Y-82258D01*
X23853Y-82162D01*
X23745Y-82086D01*
X23633Y-81990D01*
X23505Y-81878D01*
X23397Y-81770D01*
X23253Y-81658D01*
X23129Y-81550D01*
X22989Y-81438D01*
X22705Y-81186D01*
X22389Y-80902D01*
G37*
G36*
G01X35145Y-93454D02*
X34497Y-91346D01*
X33869Y-93454D01*
X33285D01*
X32357Y-89974D01*
X33065D01*
X33617Y-92178D01*
X34245Y-89974D01*
X34765D01*
X35397Y-92178D01*
X35949Y-89974D01*
X36657D01*
X35713Y-93454D01*
X35145D01*
G37*
G36*
G01X80598Y49742D02*
G02X79916Y49459I-400J0D01*
G01X77523Y51852D01*
X63223D01*
X53973Y61102D01*
X40938D01*
G02X40628Y61754I0J400D01*
G03X40814Y64786I-2028J1646D01*
G02X41153Y65398I339J212D01*
G01X44213D01*
X48213Y69398D01*
X51100D01*
G03X52232Y69868I-1J1601D01*
G01X54263Y71898D01*
X64137D01*
X64141Y71894D01*
X66122D01*
Y70719D01*
X71198D01*
Y69681D01*
X66022D01*
Y63927D01*
X71198D01*
Y63263D01*
X70722Y62786D01*
X60978D01*
X59102Y64663D01*
Y68000D01*
G03X55898I-1602J0D01*
G01Y63337D01*
X59652Y59584D01*
X72048D01*
X74524Y62059D01*
X74771Y61957D01*
Y61857D01*
X78829D01*
Y65639D01*
X77174D01*
X77045Y65768D01*
G02X77187Y66109I142J141D01*
G01X78829D01*
Y67106D01*
X79737D01*
Y65230D01*
X85291D01*
Y67475D01*
G02X85974Y67758I400J0D01*
G01X86627Y67106D01*
X86823D01*
Y65230D01*
X92377D01*
Y67106D01*
X93105D01*
G02X93504Y66683I0J-400D01*
G03X95393Y65155I1496J-83D01*
G02X95898Y64769I105J-386D01*
G01Y64027D01*
X97500Y62425D01*
Y60902D01*
X95015D01*
X94976Y61050D01*
G03X87024I-3976J-1050D01*
G01X86985Y60902D01*
X85327D01*
X80598Y56173D01*
Y49742D01*
G37*
G36*
G01X82402Y48392D02*
Y55427D01*
X86073Y59098D01*
X86985D01*
X87024Y58950D01*
G03X94976I3976J1050D01*
G01X95015Y59098D01*
X97500D01*
Y50902D01*
X95015D01*
X94976Y51050D01*
G03X87024I-3976J-1050D01*
G01X86985Y50902D01*
X85877D01*
X83084Y48109D01*
G02X82402Y48392I-282J283D01*
G37*
G36*
G01X308648Y-660D02*
Y-1701D01*
G03X311352I1352J-3299D01*
G01Y460D01*
X309352Y2460D01*
Y12060D01*
X302912Y18500D01*
X302897Y18539D01*
G03X301107Y19445I-1397J-539D01*
G02X300602Y19831I-105J386D01*
G01Y21554D01*
G03X300338Y24105I-902J1196D01*
G02X300225Y24750I170J362D01*
G01X301589Y26114D01*
X301681Y26107D01*
G03X300307Y27481I119J1493D01*
G01X300314Y27389D01*
X298527Y25602D01*
X298421D01*
G02X298059Y26170I1J400D01*
G03X297442Y28102I-1359J631D01*
G02X297357Y28732I198J347D01*
G01X303148Y34523D01*
X303289Y34394D01*
G03X304671Y36951I1011J1106D01*
G02X304487Y37622I98J388D01*
G01X306563Y39698D01*
X320537D01*
X322637Y37598D01*
X325537D01*
X326198Y36937D01*
Y23114D01*
X320452Y17368D01*
Y13278D01*
X319277D01*
Y7922D01*
X320452D01*
Y7017D01*
X320368Y6932D01*
G03X322632Y4668I1132J-1132D01*
G01X323656Y5691D01*
Y7922D01*
X324831D01*
Y13278D01*
X323656D01*
Y16042D01*
X329402Y21788D01*
Y44463D01*
X326002Y47863D01*
Y66387D01*
X328702Y69087D01*
Y77237D01*
X330517Y79052D01*
G02X331200Y78770I283J-283D01*
G01Y13378D01*
X325869D01*
Y7822D01*
X331200D01*
Y-1436D01*
X326436D01*
Y-8564D01*
X331200D01*
Y-10740D01*
X105000D01*
Y16748D01*
X106888D01*
Y15888D01*
X115098D01*
Y11527D01*
X127987Y-1362D01*
G02X127930Y-1975I-283J-283D01*
G03X132372Y-2206I2070J-3025D01*
G02X132631Y-1502I259J304D01*
G01X137526D01*
G02X137776Y-2214I0J-400D01*
G03X142224I2224J-2786D01*
G02X142474Y-1502I250J312D01*
G01X147526D01*
G02X147776Y-2214I0J-400D01*
G03X152224I2224J-2786D01*
G02X152474Y-1502I250J312D01*
G01X154804D01*
G03X157445Y-207I1196J902D01*
G02X157831Y298I386J105D01*
G01X169658D01*
G02X169941Y-384I0J-400D01*
G01X169098Y-1227D01*
Y-1548D01*
X168957Y-1591D01*
G03X171720Y-1878I1042J-3409D01*
G02X171631Y-1244I193J350D01*
G01X180373Y7498D01*
X183073D01*
X198317Y22742D01*
X200102D01*
G02X200385Y22060I0J-400D01*
G01X189098Y10773D01*
Y-1548D01*
X188957Y-1591D01*
G03X191043I1043J-3409D01*
G01X190902Y-1548D01*
Y10027D01*
X202273Y21398D01*
X202880D01*
G02X203244Y20832I0J-400D01*
G03X203568Y19034I1456J-666D01*
G01X207003Y15598D01*
X263363D01*
X264363Y16598D01*
X281708D01*
G02X281991Y15916I0J-400D01*
G01X279677Y13602D01*
X234027D01*
X224404Y3978D01*
X203704D01*
X199098Y-627D01*
Y-1548D01*
X198957Y-1591D01*
G03X201356Y-1703I1043J-3409D01*
G02X201225Y-1050I152J370D01*
G01X204450Y2176D01*
X214935D01*
G02X215218Y1493I0J-400D01*
G01X211804Y-1921D01*
X211673Y-1852D01*
G03X213148Y-3327I-1673J-3148D01*
G01X213079Y-3196D01*
X217173Y898D01*
X219904D01*
G02X220187Y216I0J-400D01*
G01X219098Y-873D01*
Y-1548D01*
X218957Y-1591D01*
G03X221509Y-1770I1043J-3409D01*
G02X221396Y-1125I170J362D01*
G01X222219Y-302D01*
X226073D01*
X227450Y1076D01*
X230081D01*
G02X230364Y393I0J-400D01*
G01X229098Y-873D01*
Y-1548D01*
X228957Y-1591D01*
G03X231509Y-1770I1043J-3409D01*
G02X231396Y-1125I170J362D01*
G01X232396Y-124D01*
X232548D01*
X240871Y8198D01*
X247032D01*
G02X247315Y7516I0J-400D01*
G01X239098Y-701D01*
Y-1548D01*
X238957Y-1591D01*
G03X241402Y-1722I1043J-3409D01*
G02X241277Y-1072I158J367D01*
G01X249347Y6998D01*
X255032D01*
G02X255315Y6316I0J-400D01*
G01X249098Y99D01*
Y-1548D01*
X248957Y-1591D01*
G03X251043I1043J-3409D01*
G01X250902Y-1548D01*
Y-647D01*
X256747Y5198D01*
X262658D01*
G02X262941Y4516I0J-400D01*
G01X259098Y673D01*
Y-1548D01*
X258957Y-1591D01*
G03X261043I1043J-3409D01*
G01X260902Y-1548D01*
Y-73D01*
X264973Y3998D01*
X286558D01*
G02X286841Y3316I0J-400D01*
G01X284698Y1173D01*
Y-3127D01*
X283727Y-4098D01*
X283452D01*
X283409Y-3957D01*
G03Y-6043I-3409J-1043D01*
G01X283452Y-5902D01*
X284473D01*
X285753Y-4622D01*
G02X286436Y-4914I283J-282D01*
G03X291043Y-1591I3564J-86D01*
G01X290902Y-1548D01*
Y1927D01*
X294875Y5900D01*
X294954Y5903D01*
G03X296202Y6660I-54J1497D01*
G02X296898I348J-198D01*
G03X298235Y5902I1303J740D01*
G01X298321Y5904D01*
X299098Y5127D01*
Y-1548D01*
X298957Y-1591D01*
G03X301043I1043J-3409D01*
G01X300902Y-1548D01*
Y5873D01*
X299672Y7103D01*
X299685Y7201D01*
G03X299645Y7793I-1485J197D01*
G02X300031Y8298I386J105D01*
G01X304126D01*
G03X306070Y7746I1274J788D01*
G02X306648Y7388I178J-358D01*
G01Y1340D01*
X308648Y-660D01*
G37*
G36*
G01X115709Y35969D02*
G03X114910Y33155I-710J-1319D01*
G02X115098Y32955I-12J-200D01*
G01Y32755D01*
G02X114378Y32516I-400J0D01*
G03Y27484I-3378J-2516D01*
G02X115098Y27245I320J-239D01*
G01Y24112D01*
X106888D01*
Y19952D01*
X105000D01*
Y39098D01*
X106985D01*
X107024Y38950D01*
G03X114720Y38248I3976J1050D01*
G02X115365Y38360I362J-170D01*
G01X116298Y37427D01*
Y36322D01*
G02X115709Y35969I-400J-1D01*
G37*
G36*
G01X134773Y9902D02*
X124902Y19773D01*
Y57873D01*
X118586Y64189D01*
X118593Y64281D01*
G03X115602Y64416I-1493J120D01*
G02X114919Y64138I-400J4D01*
G01X114668Y64389D01*
X114675Y64481D01*
G03X111986Y65502I-1493J119D01*
G01X107027D01*
X105683Y64158D01*
G02X105000Y64441I-283J283D01*
G01Y90040D01*
X331200D01*
Y88564D01*
X326436D01*
Y81436D01*
X327405D01*
G02X327688Y80753I0J-400D01*
G01X325498Y78563D01*
Y76292D01*
G02X324816Y76009I-400J0D01*
G01X320150Y80675D01*
G02X320390Y81356I282J283D01*
G03X317738Y82116I-391J3644D01*
G02X317491Y81402I-247J-314D01*
G01X312343D01*
G02X312107Y82124I0J400D01*
G03X306980Y83105I-2107J2876D01*
G02X306612Y82494I-339J-212D01*
G03X306619Y79507I-112J-1494D01*
G01X306711Y79514D01*
X308027Y78198D01*
X311199D01*
G02X311578Y77672I0J-400D01*
G03X313913Y76012I1422J-472D01*
G01X318223Y71702D01*
X318182Y71584D01*
G03X321070Y70814I1418J-484D01*
G01X321082Y70874D01*
X321267Y71058D01*
X321598Y70727D01*
Y44912D01*
G03X321310Y43433I1127J-987D01*
G02X320932Y42902I-378J-131D01*
G01X310972D01*
G02X310619Y43491I-1J400D01*
G03X310233Y45372I-1319J709D01*
G02X310483Y46084I250J312D01*
G01X315193D01*
X315205Y45898D01*
G03X318109Y45491I1495J102D01*
G02X318614Y45733I376J-137D01*
G03X318981Y48643I486J1417D01*
G01X318889Y48636D01*
X318222Y49303D01*
X318363Y49444D01*
G03X315899Y51031I-1063J1056D01*
G01X315850Y50902D01*
X315022D01*
G02X314712Y51554I0J400D01*
G03X312941Y53869I-1162J946D01*
G01X312903Y53852D01*
X302390D01*
X278504Y29966D01*
X258006D01*
G02X257723Y30648I0J400D01*
G01X268273Y41198D01*
G02X268955Y40891I283J-283D01*
G03X271412Y39652I1495J-91D01*
G01X271468Y39698D01*
X272038D01*
Y37134D01*
X277790D01*
Y44066D01*
X272038D01*
Y42280D01*
G02X271388Y41968I-400J0D01*
G03X270359Y42295I-938J-1168D01*
G02X270052Y42977I-24J399D01*
G01X270852Y43777D01*
Y44604D01*
G03X270492Y47196I-902J1196D01*
G01X270453Y47212D01*
X270282Y47383D01*
X270497Y47598D01*
X272038D01*
Y45034D01*
X277790D01*
Y51966D01*
X273381D01*
G02X273098Y52649I0J400D01*
G01X278251Y57802D01*
G02X278934Y57519I283J-283D01*
G01Y54024D01*
X286066D01*
Y59976D01*
X279102D01*
Y61210D01*
X285966D01*
Y66962D01*
X283402D01*
Y70104D01*
G03X281598I-902J1196D01*
G01Y66962D01*
X279102D01*
Y68304D01*
G03X277298I-902J1196D01*
G01Y59399D01*
X271753Y53854D01*
G02X271070Y54137I-283J283D01*
G01Y58827D01*
X265516D01*
Y53273D01*
X266250D01*
G02X266640Y52784I0J-400D01*
G03X267939Y50961I1460J-334D01*
G02X268179Y50280I-43J-398D01*
G01X249604Y31705D01*
X249470Y31785D01*
G03X248947Y31978I-771J-1284D01*
G02X248730Y32655I66J394D01*
G01X262102Y46027D01*
Y53273D01*
X263984D01*
Y58827D01*
X258702D01*
Y59773D01*
X263984D01*
Y65327D01*
X259169D01*
G02X258886Y66010I0J400D01*
G01X259474Y66598D01*
X271504D01*
G03Y68402I1196J902D01*
G01X258728D01*
X254498Y64172D01*
Y56998D01*
G02X253920Y56640I-400J0D01*
G03X252916Y56760I-669J-1340D01*
G02X252427Y57150I-89J390D01*
G01Y58070D01*
X246873D01*
Y56194D01*
X245927D01*
Y58070D01*
X240373D01*
Y52516D01*
X245927D01*
Y54392D01*
X246873D01*
Y52516D01*
X252427D01*
Y53450D01*
G02X252916Y53840I400J0D01*
G03X253920Y53960I335J1460D01*
G02X254498Y53602I178J-358D01*
G01Y48726D01*
X253210Y47438D01*
G02X252527Y47721I-283J283D01*
G01Y51084D01*
X246773D01*
Y45330D01*
X250136D01*
G02X250419Y44647I0J-400D01*
G01X239674Y33902D01*
X187627D01*
X166227Y12502D01*
X150596D01*
G03X148307Y10575I-1195J-903D01*
G02X148016Y9902I-292J-273D01*
G01X134773D01*
G37*
G36*
G01X167895Y4502D02*
Y4775D01*
X167942Y4831D01*
G03X166765Y7298I-1142J969D01*
G01X166679Y7296D01*
X164073Y9902D01*
X150784D01*
G02X150493Y10575I1J400D01*
G03X150596Y10698I-1095J1022D01*
G01X166973D01*
X188373Y32098D01*
X240420D01*
X256302Y47980D01*
Y63426D01*
X257747Y64871D01*
G02X258430Y64588I283J-283D01*
G01Y63505D01*
X256898Y61973D01*
Y45073D01*
X242727Y30902D01*
X194727D01*
X194523Y30698D01*
X192097D01*
X184972Y23573D01*
G03X185054Y22945I283J-282D01*
G02X185769Y21944I-754J-1294D01*
G01X168327Y4502D01*
X167895D01*
G37*
G36*
G01X213359Y23502D02*
X212654Y24207D01*
X212661Y24299D01*
G03X212533Y25034I-1493J119D01*
G02X212898Y25598I365J164D01*
G01X248773D01*
X251023Y27848D01*
X254469D01*
G02X254855Y27343I0J-400D01*
G03X255189Y25946I1445J-393D01*
G02X254892Y25278I-297J-268D01*
G01X251303D01*
X249527Y23502D01*
X213359D01*
G37*
%LPC*%
G75*
G36*
G01X-12246Y42848D02*
X-13541Y44143D01*
X-13637Y44131D01*
G02X-12606Y46508I-175J1488D01*
G03X-11962I322J237D01*
G02X-9524Y46472I1206J-889D01*
G01X-9017D01*
Y50029D01*
X-8900D01*
Y50100D01*
X-1100D01*
Y50029D01*
X-983D01*
Y48902D01*
X-730D01*
X-698Y48913D01*
G02X-714Y46093I498J-1413D01*
G01X-748Y46105D01*
X-983D01*
Y45971D01*
X-1100D01*
Y45331D01*
G03X-595Y44945I400J0D01*
G02X-319Y42007I395J-1445D01*
G01X-411Y42014D01*
X-827Y41598D01*
X-983D01*
Y40471D01*
X-4765D01*
Y40700D01*
X-5235D01*
Y40471D01*
X-9017D01*
Y41648D01*
X-9253D01*
X-10453Y42848D01*
X-12246D01*
G37*
G36*
G01X-24506Y46574D02*
X-24626Y46618D01*
X-25538Y45705D01*
Y44029D01*
X-25120D01*
Y44129D01*
X-21100D01*
Y39871D01*
X-25120D01*
Y39971D01*
X-28800D01*
Y44029D01*
X-28242D01*
Y46825D01*
X-26140Y48927D01*
Y50088D01*
G02X-21176I2482J0D01*
G01Y48906D01*
G02X-24506Y46574I-2482J0D01*
G37*
G36*
G01X-15825Y18071D02*
G03X-16199Y17530I0J-400D01*
G02X-18502Y18196I-1401J-530D01*
G01Y19573D01*
X-17073Y21002D01*
X-16317D01*
Y22129D01*
X-12535D01*
Y18071D01*
X-15825D01*
G37*
G36*
G01X61404Y13098D02*
X41496D01*
G02Y14902I-1196J902D01*
G01X61404D01*
G02Y13098I1196J-902D01*
G37*
G36*
G01X-21176Y29222D02*
G02X-26140I-2482J0D01*
G01Y30382D01*
X-28478Y32720D01*
Y34971D01*
X-29017D01*
Y39029D01*
X-24865D01*
Y39129D01*
X-20883D01*
Y34871D01*
X-24865D01*
Y34971D01*
X-25774D01*
Y33840D01*
X-24626Y32691D01*
X-24506Y32735D01*
G02X-21176Y30402I848J-2332D01*
G01Y29222D01*
G37*
G36*
G01X-18839Y-91990D02*
Y-92858D01*
X-18051D01*
X-18035Y-92842D01*
X-17975D01*
X-17959Y-92826D01*
X-17927D01*
Y-92810D01*
X-17879D01*
Y-92794D01*
X-17863D01*
Y-92778D01*
X-17831D01*
Y-92762D01*
X-17815D01*
Y-92746D01*
X-17799D01*
Y-92730D01*
X-17783D01*
Y-92714D01*
X-17767D01*
Y-92698D01*
X-17755D01*
Y-92682D01*
X-17739D01*
Y-92650D01*
X-17723D01*
Y-92622D01*
X-17707D01*
Y-92590D01*
X-17691D01*
Y-92526D01*
X-17675D01*
Y-92322D01*
X-17691Y-92306D01*
Y-92258D01*
X-17707D01*
Y-92226D01*
X-17723D01*
Y-92194D01*
X-17739D01*
Y-92162D01*
X-17755D01*
Y-92146D01*
X-17767D01*
Y-92130D01*
X-17783D01*
Y-92118D01*
X-17799D01*
Y-92102D01*
X-17815D01*
Y-92086D01*
X-17831D01*
Y-92070D01*
X-17863D01*
Y-92054D01*
X-17879D01*
X-17895Y-92038D01*
X-17927D01*
Y-92022D01*
X-17975D01*
Y-92006D01*
X-18051D01*
X-18067Y-91990D01*
X-18839D01*
G37*
G36*
G01Y-90574D02*
Y-91374D01*
X-18035D01*
X-18019Y-91362D01*
X-17975D01*
Y-91346D01*
X-17943D01*
Y-91330D01*
X-17911D01*
Y-91314D01*
X-17879D01*
Y-91298D01*
X-17863D01*
Y-91282D01*
X-17847D01*
X-17831Y-91266D01*
Y-91250D01*
X-17815D01*
X-17799Y-91234D01*
Y-91218D01*
X-17783D01*
Y-91202D01*
X-17767Y-91186D01*
Y-91170D01*
X-17755D01*
Y-91138D01*
X-17739Y-91122D01*
Y-91078D01*
X-17723D01*
Y-90886D01*
X-17739D01*
Y-90842D01*
X-17755Y-90826D01*
Y-90794D01*
X-17767D01*
Y-90762D01*
X-17783D01*
Y-90746D01*
X-17799D01*
Y-90714D01*
X-17815D01*
Y-90698D01*
X-17831D01*
Y-90682D01*
X-17847D01*
X-17863Y-90666D01*
X-17879D01*
Y-90650D01*
X-17895D01*
Y-90634D01*
X-17927D01*
Y-90622D01*
X-17959D01*
X-17975Y-90606D01*
X-18003D01*
X-18019Y-90590D01*
X-18099D01*
Y-90574D01*
X-18839D01*
G37*
G36*
G01X-15922Y58713D02*
X-17068Y57568D01*
G02X-19332Y59832I-1132J1132D01*
G01X-19126Y60039D01*
Y60514D01*
X-20104D01*
Y64886D01*
X-14944D01*
Y60514D01*
X-15922D01*
Y58713D01*
G37*
G36*
G01X-7815Y-90794D02*
Y-90778D01*
X-7831D01*
Y-90762D01*
X-7847D01*
Y-90746D01*
X-7863D01*
Y-90730D01*
X-7879D01*
X-7911Y-90698D01*
X-7927D01*
Y-90682D01*
X-7943D01*
Y-90666D01*
X-7975D01*
Y-90650D01*
X-7991D01*
X-8003Y-90634D01*
X-8035D01*
Y-90622D01*
X-8067D01*
X-8083Y-90606D01*
X-8131D01*
X-8147Y-90590D01*
X-8243D01*
Y-90574D01*
X-8839D01*
Y-92858D01*
X-8227D01*
Y-92842D01*
X-8131D01*
X-8115Y-92826D01*
X-8067D01*
Y-92810D01*
X-8035D01*
X-8019Y-92794D01*
X-8003D01*
X-7991Y-92778D01*
X-7975D01*
X-7959Y-92762D01*
X-7943D01*
Y-92746D01*
X-7927D01*
Y-92730D01*
X-7911D01*
X-7895Y-92714D01*
X-7879D01*
Y-92698D01*
X-7863Y-92682D01*
X-7847D01*
Y-92666D01*
X-7831D01*
Y-92650D01*
X-7815D01*
Y-92634D01*
X-7799D01*
Y-92606D01*
X-7783D01*
Y-92590D01*
X-7767Y-92574D01*
Y-92558D01*
X-7755Y-92542D01*
Y-92526D01*
X-7739Y-92510D01*
Y-92478D01*
X-7723Y-92462D01*
Y-92414D01*
X-7707D01*
Y-92338D01*
X-7691Y-92322D01*
Y-92210D01*
X-7675Y-92194D01*
Y-91218D01*
X-7691Y-91202D01*
Y-91094D01*
X-7707Y-91078D01*
Y-91014D01*
X-7723D01*
Y-90950D01*
X-7739D01*
Y-90918D01*
X-7755Y-90902D01*
Y-90870D01*
X-7767D01*
Y-90858D01*
X-7783Y-90842D01*
Y-90826D01*
X-7799D01*
Y-90810D01*
X-7815Y-90794D01*
G37*
G36*
G01X-1235D02*
Y-90778D01*
X-1251D01*
Y-90762D01*
X-1263Y-90746D01*
X-1279D01*
Y-90730D01*
X-1295D01*
Y-90714D01*
X-1311D01*
Y-90698D01*
X-1327D01*
X-1343Y-90682D01*
X-1359D01*
Y-90666D01*
X-1375D01*
X-1391Y-90650D01*
X-1407D01*
Y-90634D01*
X-1439D01*
X-1455Y-90622D01*
X-1487D01*
Y-90606D01*
X-1547D01*
Y-90590D01*
X-1643D01*
X-1659Y-90574D01*
X-2255D01*
Y-92858D01*
X-1643D01*
X-1627Y-92842D01*
X-1531D01*
Y-92826D01*
X-1487D01*
Y-92810D01*
X-1439D01*
Y-92794D01*
X-1407D01*
Y-92778D01*
X-1375D01*
Y-92762D01*
X-1359D01*
Y-92746D01*
X-1343D01*
X-1327Y-92730D01*
X-1311D01*
Y-92714D01*
X-1295D01*
Y-92698D01*
X-1279D01*
Y-92682D01*
X-1263D01*
Y-92666D01*
X-1251D01*
Y-92650D01*
X-1235D01*
Y-92634D01*
X-1219D01*
Y-92622D01*
X-1203D01*
Y-92590D01*
X-1187D01*
Y-92574D01*
X-1171Y-92558D01*
Y-92526D01*
X-1155D01*
Y-92494D01*
X-1139D01*
Y-92446D01*
X-1123Y-92430D01*
Y-92370D01*
X-1107D01*
Y-92258D01*
X-1091D01*
Y-92022D01*
X-1075Y-92006D01*
Y-91390D01*
X-1091Y-91374D01*
Y-91154D01*
X-1107D01*
Y-91062D01*
X-1123Y-91046D01*
Y-90982D01*
X-1139D01*
Y-90934D01*
X-1155D01*
Y-90902D01*
X-1171D01*
Y-90870D01*
X-1187Y-90858D01*
Y-90842D01*
X-1203D01*
Y-90826D01*
X-1219Y-90810D01*
Y-90794D01*
X-1235D01*
G37*
G36*
G01X-11251D02*
Y-90778D01*
X-11263D01*
Y-90762D01*
X-11279Y-90746D01*
X-11295D01*
Y-90730D01*
X-11311D01*
Y-90714D01*
X-11327D01*
Y-90698D01*
X-11343D01*
Y-90682D01*
X-11375D01*
Y-90666D01*
X-11391D01*
X-11407Y-90650D01*
X-11423D01*
Y-90634D01*
X-11455D01*
X-11471Y-90622D01*
X-11503D01*
Y-90606D01*
X-11563D01*
Y-90590D01*
X-11659D01*
X-11675Y-90574D01*
X-12271D01*
Y-92858D01*
X-11659D01*
X-11643Y-92842D01*
X-11547D01*
Y-92826D01*
X-11503D01*
Y-92810D01*
X-11455D01*
Y-92794D01*
X-11423D01*
Y-92778D01*
X-11391D01*
Y-92762D01*
X-11375D01*
Y-92746D01*
X-11343D01*
Y-92730D01*
X-11327D01*
Y-92714D01*
X-11311D01*
Y-92698D01*
X-11295D01*
Y-92682D01*
X-11279D01*
Y-92666D01*
X-11263D01*
Y-92650D01*
X-11251D01*
Y-92634D01*
X-11235D01*
Y-92622D01*
X-11219D01*
Y-92590D01*
X-11203D01*
Y-92574D01*
X-11187Y-92558D01*
Y-92542D01*
X-11171Y-92526D01*
Y-92494D01*
X-11155D01*
Y-92446D01*
X-11139Y-92430D01*
Y-92382D01*
X-11123Y-92370D01*
Y-92258D01*
X-11107D01*
Y-92022D01*
X-11091Y-92006D01*
Y-91390D01*
X-11107Y-91374D01*
Y-91154D01*
X-11123D01*
Y-91046D01*
X-11139D01*
Y-90982D01*
X-11155D01*
Y-90934D01*
X-11171D01*
Y-90902D01*
X-11187Y-90886D01*
Y-90870D01*
X-11203Y-90858D01*
Y-90842D01*
X-11219D01*
Y-90826D01*
X-11235Y-90810D01*
Y-90794D01*
X-11251D01*
G37*
G36*
G01X-3503Y-76446D02*
X-3515Y-76398D01*
Y-76306D01*
X-3531Y-76258D01*
Y-76210D01*
X-3547Y-76178D01*
X-3595Y-76038D01*
X-3611Y-76006D01*
X-3627Y-75958D01*
X-3643Y-75926D01*
X-3659Y-75878D01*
X-3675Y-75850D01*
X-3707Y-75802D01*
X-3723Y-75770D01*
X-3755Y-75738D01*
X-3783Y-75690D01*
X-4035Y-75438D01*
X-4083Y-75406D01*
X-4115Y-75374D01*
X-4147Y-75362D01*
X-4195Y-75330D01*
X-4227Y-75314D01*
X-4271Y-75298D01*
X-4303Y-75282D01*
X-4351Y-75250D01*
X-4383Y-75234D01*
X-4431D01*
X-4523Y-75202D01*
X-4555Y-75186D01*
X-4603D01*
X-4651Y-75170D01*
X-4747D01*
X-4791Y-75154D01*
X-6399D01*
X-6415Y-75170D01*
X-6447D01*
X-6463Y-75186D01*
X-6495D01*
X-6507Y-75202D01*
Y-75218D01*
X-6523D01*
X-6539Y-75234D01*
Y-75250D01*
X-6555Y-75266D01*
Y-75282D01*
X-6571D01*
Y-75346D01*
X-6587Y-75362D01*
Y-79626D01*
X-6571Y-79642D01*
Y-79706D01*
X-6539Y-79738D01*
Y-79754D01*
X-6523Y-79770D01*
X-6507D01*
Y-79786D01*
X-6495Y-79802D01*
X-6463D01*
X-6447Y-79818D01*
X-6415D01*
X-6399Y-79834D01*
X-4791D01*
X-4747Y-79818D01*
X-4651D01*
X-4603Y-79802D01*
X-4555D01*
X-4523Y-79786D01*
X-4431Y-79754D01*
X-4383D01*
X-4351Y-79738D01*
X-4303Y-79706D01*
X-4271Y-79690D01*
X-4227Y-79674D01*
X-4195Y-79658D01*
X-4147Y-79626D01*
X-4115Y-79614D01*
X-4083Y-79582D01*
X-4035Y-79550D01*
X-4003Y-79518D01*
X-3975Y-79502D01*
X-3943Y-79470D01*
X-3911Y-79422D01*
X-3783Y-79298D01*
X-3755Y-79250D01*
X-3723Y-79218D01*
X-3707Y-79186D01*
X-3675Y-79138D01*
X-3659Y-79110D01*
X-3643Y-79062D01*
X-3627Y-79030D01*
X-3611Y-78982D01*
X-3595Y-78950D01*
X-3563Y-78858D01*
X-3547Y-78826D01*
X-3531Y-78778D01*
Y-78730D01*
X-3515Y-78682D01*
Y-78590D01*
X-3503Y-78542D01*
Y-76446D01*
G37*
G36*
G01X6121Y-76354D02*
X6105Y-76306D01*
Y-76210D01*
X6073Y-76118D01*
Y-76086D01*
X6041Y-75990D01*
X6025Y-75958D01*
X5997Y-75866D01*
X5965Y-75834D01*
X5949Y-75786D01*
X5917Y-75754D01*
X5901Y-75722D01*
X5869Y-75674D01*
X5837Y-75642D01*
X5821Y-75614D01*
X5789Y-75582D01*
X5757Y-75534D01*
X5697Y-75470D01*
X5649Y-75438D01*
X5585Y-75374D01*
X5553Y-75362D01*
X5505Y-75330D01*
X5477Y-75298D01*
X5445Y-75282D01*
X5397Y-75266D01*
X5365Y-75234D01*
X5269Y-75202D01*
X5241Y-75186D01*
X5193Y-75170D01*
X5161Y-75154D01*
X5113Y-75138D01*
X5065D01*
X5017Y-75122D01*
X4973D01*
X4925Y-75110D01*
X3177D01*
X3145Y-75122D01*
X3129D01*
X3113Y-75138D01*
X3097D01*
X3081Y-75154D01*
X3065D01*
Y-75170D01*
X3049Y-75186D01*
Y-75202D01*
X3033D01*
Y-75218D01*
X3017Y-75234D01*
Y-75266D01*
X3001Y-75282D01*
Y-79314D01*
X3017Y-79330D01*
Y-79362D01*
X3033Y-79374D01*
Y-79390D01*
X3049Y-79406D01*
Y-79422D01*
X3065D01*
Y-79438D01*
X3081Y-79454D01*
X3097D01*
X3113Y-79470D01*
X3129D01*
Y-79486D01*
X3145D01*
X3177Y-79502D01*
X4925D01*
X4973Y-79486D01*
X5017D01*
X5113Y-79454D01*
X5161D01*
X5193Y-79438D01*
X5241Y-79422D01*
X5269Y-79406D01*
X5365Y-79374D01*
X5397Y-79346D01*
X5445Y-79330D01*
X5477Y-79298D01*
X5505Y-79282D01*
X5553Y-79250D01*
X5585Y-79234D01*
X5649Y-79170D01*
X5697Y-79138D01*
X5757Y-79078D01*
X5789Y-79030D01*
X5821Y-78998D01*
X5837Y-78966D01*
X5869Y-78934D01*
X5901Y-78886D01*
X5917Y-78858D01*
X5949Y-78810D01*
X5965Y-78778D01*
X5997Y-78746D01*
X6025Y-78650D01*
X6041Y-78622D01*
X6073Y-78526D01*
Y-78494D01*
X6105Y-78398D01*
Y-78306D01*
X6121Y-78258D01*
Y-76354D01*
G37*
G36*
G01X13253Y-90730D02*
Y-90714D01*
X13241D01*
X13177Y-90650D01*
X13161D01*
X13129Y-90622D01*
X13113D01*
X13097Y-90606D01*
X13081D01*
X13065Y-90590D01*
X13033D01*
X13017Y-90574D01*
X12989D01*
X12957Y-90558D01*
X12877D01*
X12845Y-90542D01*
X12797D01*
X12781Y-90558D01*
X12689D01*
X12673Y-90574D01*
X12625D01*
X12609Y-90590D01*
X12593D01*
X12577Y-90606D01*
X12545D01*
X12529Y-90622D01*
X12513D01*
X12485Y-90650D01*
X12469D01*
X12373Y-90746D01*
X12357Y-90778D01*
X12309Y-90826D01*
Y-90858D01*
X12293Y-90870D01*
X12277Y-90902D01*
Y-90934D01*
X12261Y-90966D01*
Y-90998D01*
X12245Y-91030D01*
Y-91110D01*
X12233Y-91154D01*
Y-91298D01*
X12217Y-91362D01*
Y-92070D01*
X12233Y-92130D01*
Y-92290D01*
X12245Y-92322D01*
Y-92398D01*
X12261Y-92430D01*
Y-92462D01*
X12277Y-92494D01*
Y-92526D01*
X12293Y-92558D01*
X12309Y-92574D01*
Y-92606D01*
X12357Y-92650D01*
X12373Y-92682D01*
X12405Y-92714D01*
Y-92730D01*
X12421D01*
X12469Y-92778D01*
X12485D01*
X12513Y-92810D01*
X12529D01*
X12545Y-92826D01*
X12577D01*
X12593Y-92842D01*
X12609D01*
X12625Y-92858D01*
X12657D01*
X12673Y-92870D01*
X12749D01*
X12781Y-92886D01*
X12877D01*
X12893Y-92870D01*
X12989D01*
X13001Y-92858D01*
X13017D01*
X13033Y-92842D01*
X13065D01*
X13081Y-92826D01*
X13097D01*
X13113Y-92810D01*
X13129D01*
X13161Y-92778D01*
X13177D01*
X13225Y-92730D01*
X13241D01*
X13253Y-92714D01*
Y-92698D01*
X13285Y-92682D01*
Y-92650D01*
X13333Y-92606D01*
X13349Y-92574D01*
Y-92558D01*
X13381Y-92494D01*
Y-92462D01*
X13397Y-92430D01*
Y-92398D01*
X13413Y-92370D01*
Y-92242D01*
X13429Y-92178D01*
Y-91250D01*
X13413Y-91202D01*
Y-91062D01*
X13397Y-91030D01*
Y-90998D01*
X13381Y-90966D01*
Y-90934D01*
X13349Y-90870D01*
Y-90858D01*
X13333Y-90826D01*
X13285Y-90778D01*
Y-90746D01*
X13253Y-90730D01*
G37*
G36*
G01X30973Y-90714D02*
X30957D01*
X30941Y-90698D01*
Y-90682D01*
X30909Y-90650D01*
X30893D01*
X30861Y-90622D01*
X30829D01*
X30813Y-90606D01*
X30797D01*
X30781Y-90590D01*
X30765D01*
X30749Y-90574D01*
X30705D01*
X30689Y-90558D01*
X30593D01*
X30577Y-90542D01*
X30529D01*
X30497Y-90558D01*
X30421D01*
X30389Y-90574D01*
X30357D01*
X30341Y-90590D01*
X30309D01*
X30293Y-90606D01*
X30277D01*
X30261Y-90622D01*
X30245D01*
X30217Y-90650D01*
X30201D01*
X30137Y-90714D01*
X30121D01*
X30089Y-90746D01*
X30073Y-90778D01*
X30041Y-90810D01*
Y-90826D01*
X30025Y-90858D01*
X30009Y-90870D01*
Y-90902D01*
X29997Y-90934D01*
Y-90966D01*
X29981Y-90998D01*
Y-91030D01*
X29965Y-91062D01*
Y-91154D01*
X29949Y-91202D01*
Y-92242D01*
X29965Y-92290D01*
Y-92370D01*
X29981Y-92398D01*
Y-92430D01*
X29997Y-92462D01*
Y-92494D01*
X30009Y-92526D01*
Y-92558D01*
X30025Y-92574D01*
X30041Y-92606D01*
Y-92622D01*
X30073Y-92650D01*
X30089Y-92682D01*
X30137Y-92730D01*
X30153D01*
X30201Y-92778D01*
X30217D01*
X30245Y-92810D01*
X30261D01*
X30277Y-92826D01*
X30293D01*
X30309Y-92842D01*
X30341D01*
X30357Y-92858D01*
X30373D01*
X30389Y-92870D01*
X30485D01*
X30497Y-92886D01*
X30593D01*
X30625Y-92870D01*
X30705D01*
X30721Y-92858D01*
X30749D01*
X30765Y-92842D01*
X30781D01*
X30797Y-92826D01*
X30813D01*
X30829Y-92810D01*
X30861D01*
X30893Y-92778D01*
X30909D01*
X30941Y-92746D01*
Y-92730D01*
X30957D01*
X31001Y-92682D01*
X31017Y-92650D01*
X31049Y-92622D01*
Y-92606D01*
X31065Y-92574D01*
X31081Y-92558D01*
X31097Y-92526D01*
Y-92494D01*
X31113Y-92462D01*
Y-92430D01*
X31129Y-92398D01*
Y-92322D01*
X31145Y-92290D01*
Y-92130D01*
X31161Y-92070D01*
Y-91362D01*
X31145Y-91298D01*
Y-91154D01*
X31129Y-91110D01*
Y-91030D01*
X31113Y-90998D01*
Y-90966D01*
X31097Y-90934D01*
Y-90902D01*
X31081Y-90870D01*
X31065Y-90858D01*
X31049Y-90826D01*
Y-90810D01*
X31017Y-90778D01*
X31001Y-90746D01*
X30973Y-90714D01*
G37*
G36*
G01X26657Y-90574D02*
Y-91502D01*
X27381D01*
Y-91486D01*
X27461D01*
Y-91470D01*
X27505D01*
X27521Y-91454D01*
X27537D01*
X27553Y-91438D01*
X27569D01*
Y-91422D01*
X27601D01*
Y-91406D01*
X27617D01*
X27633Y-91390D01*
X27649D01*
Y-91374D01*
X27665D01*
Y-91362D01*
X27681D01*
Y-91346D01*
X27713Y-91314D01*
Y-91298D01*
X27729D01*
Y-91282D01*
X27745Y-91266D01*
Y-91250D01*
X27757Y-91234D01*
Y-91202D01*
X27773D01*
Y-91154D01*
X27789Y-91138D01*
Y-90934D01*
X27773Y-90918D01*
Y-90870D01*
X27757D01*
Y-90842D01*
X27745Y-90826D01*
Y-90810D01*
X27729Y-90794D01*
Y-90778D01*
X27713D01*
Y-90762D01*
X27681Y-90730D01*
Y-90714D01*
X27665D01*
Y-90698D01*
X27649D01*
X27617Y-90666D01*
X27601D01*
Y-90650D01*
X27569D01*
Y-90634D01*
X27537D01*
Y-90622D01*
X27505D01*
Y-90606D01*
X27461D01*
X27445Y-90590D01*
X27365D01*
Y-90574D01*
X26657D01*
G37*
G36*
G01X23241D02*
Y-91502D01*
X23949D01*
X23965Y-91486D01*
X24041D01*
Y-91470D01*
X24089D01*
Y-91454D01*
X24121D01*
X24137Y-91438D01*
X24153D01*
Y-91422D01*
X24169D01*
X24185Y-91406D01*
X24201D01*
Y-91390D01*
X24217D01*
X24277Y-91330D01*
Y-91314D01*
X24293D01*
Y-91298D01*
X24309Y-91282D01*
Y-91266D01*
X24325D01*
Y-91234D01*
X24341D01*
Y-91202D01*
X24357Y-91186D01*
Y-91138D01*
X24373Y-91122D01*
Y-90950D01*
X24357D01*
Y-90886D01*
X24341Y-90870D01*
Y-90842D01*
X24325D01*
Y-90810D01*
X24309D01*
Y-90794D01*
X24293Y-90778D01*
Y-90762D01*
X24277D01*
Y-90746D01*
X24233Y-90698D01*
X24217D01*
Y-90682D01*
X24201D01*
Y-90666D01*
X24185D01*
X24169Y-90650D01*
X24153D01*
Y-90634D01*
X24121D01*
Y-90622D01*
X24089D01*
X24073Y-90606D01*
X24041D01*
X24025Y-90590D01*
X23949D01*
X23933Y-90574D01*
X23241D01*
G37*
G36*
G01X20797Y-90730D02*
Y-90714D01*
X20781D01*
X20721Y-90650D01*
X20705D01*
X20673Y-90622D01*
X20657D01*
X20641Y-90606D01*
X20625D01*
X20593Y-90590D01*
X20577D01*
X20561Y-90574D01*
X20513D01*
X20497Y-90558D01*
X20421D01*
X20389Y-90542D01*
X20341D01*
X20325Y-90558D01*
X20233D01*
X20217Y-90574D01*
X20169D01*
X20153Y-90590D01*
X20137D01*
X20121Y-90606D01*
X20089D01*
X20073Y-90622D01*
X20057D01*
X20025Y-90650D01*
X20009D01*
X19949Y-90714D01*
X19933D01*
Y-90730D01*
X19917Y-90746D01*
X19901Y-90778D01*
X19853Y-90826D01*
X19837Y-90858D01*
Y-90870D01*
X19821Y-90902D01*
Y-90934D01*
X19805Y-90966D01*
Y-90998D01*
X19789Y-91030D01*
Y-91062D01*
X19773Y-91110D01*
Y-91250D01*
X19757Y-91298D01*
Y-92130D01*
X19773Y-92178D01*
Y-92322D01*
X19789Y-92370D01*
Y-92398D01*
X19805Y-92430D01*
Y-92462D01*
X19821Y-92494D01*
Y-92526D01*
X19837Y-92558D01*
Y-92574D01*
X19853Y-92606D01*
X19901Y-92650D01*
X19917Y-92682D01*
X19933Y-92698D01*
Y-92714D01*
X19949Y-92730D01*
X19965D01*
X20009Y-92778D01*
X20025D01*
X20057Y-92810D01*
X20073D01*
X20089Y-92826D01*
X20121D01*
X20137Y-92842D01*
X20153D01*
X20169Y-92858D01*
X20185D01*
X20217Y-92870D01*
X20293D01*
X20325Y-92886D01*
X20421D01*
X20437Y-92870D01*
X20513D01*
X20545Y-92858D01*
X20561D01*
X20577Y-92842D01*
X20593D01*
X20625Y-92826D01*
X20641D01*
X20657Y-92810D01*
X20673D01*
X20705Y-92778D01*
X20721D01*
X20765Y-92730D01*
X20781D01*
X20797Y-92714D01*
Y-92698D01*
X20813Y-92682D01*
X20829Y-92650D01*
X20877Y-92606D01*
X20893Y-92574D01*
Y-92558D01*
X20925Y-92494D01*
Y-92462D01*
X20941Y-92430D01*
Y-92370D01*
X20957Y-92322D01*
Y-92242D01*
X20973Y-92178D01*
Y-91250D01*
X20957Y-91202D01*
Y-91110D01*
X20941Y-91062D01*
Y-90998D01*
X20925Y-90966D01*
Y-90934D01*
X20893Y-90870D01*
Y-90858D01*
X20877Y-90826D01*
X20829Y-90778D01*
X20813Y-90746D01*
X20797Y-90730D01*
G37*
G36*
G01X311298Y20328D02*
X309478Y22149D01*
Y22598D01*
X307602D01*
Y31302D01*
X309478D01*
Y31653D01*
G03X309180Y32321I-297J268D01*
G01X306900D01*
Y36579D01*
X310920D01*
Y36479D01*
X314600D01*
Y32421D01*
X313496D01*
X313059Y31984D01*
G03X313156Y31347I283J-283D01*
G01Y22598D01*
X312543D01*
G03X312260Y21916I0J-400D01*
G01X313102Y21074D01*
Y19096D01*
G02X311298I-902J-1196D01*
G01Y20328D01*
G37*
G36*
G01X314906Y20180D02*
X317327Y22602D01*
X317444D01*
Y31391D01*
X316414Y32421D01*
X315500D01*
Y36479D01*
X319180D01*
Y36579D01*
X323200D01*
Y32321D01*
X321420D01*
G03X321122Y31653I-1J-400D01*
G01Y31302D01*
X322998D01*
Y22598D01*
X321122D01*
Y21927D01*
X319994Y20798D01*
X318073D01*
X316931Y19656D01*
G03X316918Y19105I283J-282D01*
G02X314906Y19296I-1110J-1005D01*
G01Y20180D01*
G37*
G36*
G01X240902Y81548D02*
Y73296D01*
G02X239098I-902J-1196D01*
G01Y81548D01*
X238957Y81591D01*
G02X241043I1043J3409D01*
G01X240902Y81548D01*
G37*
G36*
G01X251058Y81596D02*
Y72528D01*
G02X249256Y72463I-858J-1228D01*
G01Y81510D01*
X249106Y81549D01*
G02X251058Y81596I893J3451D01*
G37*
G36*
G01X189098Y72796D02*
Y81548D01*
X188957Y81591D01*
G02X191043I1043J3409D01*
G01X190902Y81548D01*
Y72796D01*
G02X191422Y71128I-902J-1196D01*
G03X191801Y70602I379J-126D01*
G01X211527D01*
X212314Y71389D01*
X212307Y71481D01*
G02X213681Y70107I1493J119D01*
G01X213589Y70114D01*
X212273Y68798D01*
X176727D01*
X169098Y76427D01*
Y81548D01*
X168957Y81591D01*
G02X171043I1043J3409D01*
G01X170902Y81548D01*
Y77173D01*
X177473Y70602D01*
X180358D01*
G03X180641Y71284I0J400D01*
G01X179098Y72827D01*
Y81548D01*
X178957Y81591D01*
G02X181043I1043J3409D01*
G01X180902Y81548D01*
Y73573D01*
X181823Y72652D01*
X182954D01*
G02X185527Y71159I1197J-902D01*
G03X185894Y70602I367J-157D01*
G01X188199D01*
G03X188578Y71128I0J400D01*
G02X189098Y72796I1422J472D01*
G37*
G36*
G01X271070Y60690D02*
Y59773D01*
X265516D01*
Y65327D01*
X271070D01*
Y64410D01*
G03X271550Y64018I400J0D01*
G02Y61082I300J-1468D01*
G03X271070Y60690I-80J-392D01*
G37*
G36*
G01X313598Y66927D02*
X302327Y78198D01*
X300427D01*
X299098Y79527D01*
Y81548D01*
X298957Y81591D01*
G02X301043I1043J3409D01*
G01X300902Y81548D01*
Y80273D01*
X301173Y80002D01*
X303073D01*
X315402Y67673D01*
Y59527D01*
X312781Y56906D01*
X312178D01*
Y55031D01*
X306822D01*
Y56804D01*
X306489Y57136D01*
X306349Y57022D01*
G02X304804Y56806I-950J1159D01*
G03X304246Y56439I-158J-367D01*
G01Y56192D01*
X299872D01*
Y60030D01*
X299772D01*
Y64208D01*
X304346D01*
Y60030D01*
X304246D01*
Y59585D01*
G03X304558Y59420I200J0D01*
G02X306206Y59444I842J-1239D01*
G03X306822Y59781I216J337D01*
G01Y60585D01*
X312178D01*
Y59819D01*
G03X312861Y59536I400J0D01*
G01X313598Y60273D01*
Y66927D01*
G37*
G36*
G01X292278Y57625D02*
Y53123D01*
X286722D01*
Y58877D01*
X291456D01*
G03X291855Y59303I0J400D01*
G02Y59491I1495J94D01*
G03X291456Y59915I-399J24D01*
G01X286822D01*
Y65469D01*
X288598D01*
Y78773D01*
X289098Y79273D01*
Y81548D01*
X288957Y81591D01*
G02X291043I1043J3409D01*
G01X290902Y81548D01*
Y78527D01*
X290402Y78027D01*
Y65469D01*
X292178D01*
Y63594D01*
X292968D01*
X293541Y63020D01*
X294754D01*
Y64108D01*
X299128D01*
Y60270D01*
X299228D01*
Y56092D01*
X294654D01*
Y57731D01*
G03X294064Y58083I-400J0D01*
G02X292820Y57999I-714J1317D01*
G03X292278Y57625I-142J-374D01*
G37*
G36*
G01X232334Y51027D02*
Y45473D01*
X226780D01*
Y47348D01*
X226300D01*
X226240Y47278D01*
G02Y49222I-1140J972D01*
G01X226300Y49152D01*
X226780D01*
Y51027D01*
X228606D01*
Y51973D01*
X226730D01*
Y57527D01*
X232284D01*
Y51973D01*
X230408D01*
Y51027D01*
X232334D01*
G37*
G36*
G01X212177Y52302D02*
X228177Y68302D01*
X251527D01*
X262127Y78902D01*
X277527D01*
X279098Y80473D01*
Y81548D01*
X278957Y81591D01*
G02X281043I1043J3409D01*
G01X280902Y81548D01*
Y79727D01*
X278273Y77098D01*
X262873D01*
X252273Y66498D01*
X228923D01*
X212923Y50498D01*
X199673D01*
X195573Y46398D01*
X182820D01*
Y44523D01*
X180944D01*
Y43677D01*
X182734D01*
Y38123D01*
X177180D01*
Y43677D01*
X179142D01*
Y44523D01*
X177266D01*
Y50077D01*
X182820D01*
Y48202D01*
X194827D01*
X198927Y52302D01*
X212177D01*
G37*
G36*
G01X234698Y38786D02*
X233360Y37448D01*
X197277D01*
X195177Y39548D01*
X189820D01*
Y38123D01*
X184266D01*
Y43677D01*
X189820D01*
Y42252D01*
X196297D01*
X198397Y40152D01*
X232240D01*
X232786Y40698D01*
X232802Y40737D01*
G02X234809Y41569I1398J-537D01*
G01X234847Y41552D01*
X240840D01*
X241798Y42510D01*
Y45430D01*
X240373D01*
Y46898D01*
X239420D01*
Y45473D01*
X233866D01*
Y51027D01*
X239420D01*
Y49602D01*
X240373D01*
Y50984D01*
X245927D01*
Y45430D01*
X244502D01*
Y41390D01*
X241960Y38848D01*
X234847D01*
X234809Y38831D01*
G02X234737Y38802I-595J1375D01*
G01X234698Y38786D01*
G37*
G36*
G01X126132Y66532D02*
X132602Y60063D01*
Y31263D01*
X135356Y28509D01*
G03X136039Y28791I283J283D01*
G01Y29361D01*
X143561D01*
Y21839D01*
X137145D01*
G03X136862Y21156I0J-400D01*
G01X138793Y19225D01*
X138902Y19252D01*
G02X136148Y16498I898J-3652D01*
G01X136175Y16607D01*
X134633Y18148D01*
X128600D01*
G02Y21852I0J1852D01*
G01X136039D01*
Y23998D01*
X135337D01*
X129398Y29937D01*
Y58737D01*
X123868Y64268D01*
G02X126132Y66532I1132J1132D01*
G37*
G36*
G01X143696Y38708D02*
G02Y40512I-1196J902D01*
G01X167938D01*
X171266Y43840D01*
G03X170983Y44523I-283J283D01*
G01X170180D01*
Y50077D01*
X172056D01*
Y51223D01*
X170180D01*
Y57148D01*
X146960D01*
X139814Y50002D01*
X139798Y49963D01*
G02X137863Y51898I-1398J537D01*
G01X137902Y51914D01*
X145840Y59852D01*
X179102D01*
X181394Y57559D01*
Y56777D01*
X182820D01*
Y51223D01*
X177266D01*
Y57148D01*
X175734D01*
Y51223D01*
X173858D01*
Y50077D01*
X175734D01*
Y44523D01*
X173858D01*
Y43883D01*
X168684Y38708D01*
X143696D01*
G37*
G54D53*
X270000Y-5000D03*
X180000D03*
X160000D03*
X140000Y85000D03*
X150000D03*
X160000D03*
X200000D03*
X210000D03*
X220000D03*
X230000D03*
X260000D03*
X270000D03*
G54D52*
X320000Y-5000D03*
X130000Y85000D03*
G54D48*
X0Y-5000D03*
X10000D03*
X20000D03*
G54D50*
X91000Y30000D03*
G54D47*
X-32790Y18355D03*
Y60953D03*
G54D46*
X-31200Y-4400D03*
X-32000Y84300D03*
G54D49*
X60000Y-5000D03*
G54D51*
X-8076Y66440D03*
G54D54*
X282000Y40600D03*
Y48500D03*
G54D56*
X309500Y64500D03*
G54D55*
X236593Y54750D03*
%LPD*%
G75*
G36*
G01X1885Y-93454D02*
Y-89974D01*
X2577D01*
Y-93454D01*
X1885D01*
G37*
G54D10*
X-31200Y-4400D03*
X-32000Y84300D03*
X347800Y1700D03*
G54D20*
X6000Y57957D03*
Y65043D03*
X89600Y68007D03*
X82514D03*
X89600D03*
X82900Y81793D03*
Y74707D03*
X89600Y75093D03*
X172957Y47300D03*
Y54000D03*
X187043Y40900D03*
X179957D03*
X180043Y47300D03*
Y54000D03*
X236643Y48250D03*
X229557D03*
X229507Y54750D03*
X236593D03*
X249650Y48207D03*
Y55293D03*
X243150D03*
Y48207D03*
X261207Y56050D03*
Y62550D03*
X268293Y56050D03*
Y62550D03*
G54D11*
X-36600Y900D03*
X-36400Y7800D03*
X-36100Y70800D03*
X-36200Y77200D03*
X-24600Y-8700D03*
X-25500Y1100D03*
X-18200Y7800D03*
X-28400Y7900D03*
X-17600Y17000D03*
X-24100Y16600D03*
X-19000Y33750D03*
X-29300Y30800D03*
X-29100Y48900D03*
X-18200Y58700D03*
X-26300Y88500D03*
X-24900Y81800D03*
X-17700Y73710D03*
X-16500Y400D03*
X-9000Y7950D03*
X-1100Y22250D03*
X-8388Y23900D03*
X-12900Y38150D03*
X-15700Y26250D03*
X-1200Y39600D03*
X-13812Y45619D03*
X-10756D03*
X-15950Y48350D03*
X-2900Y51100D03*
X-3550Y68300D03*
X-5900Y74000D03*
X-16400Y88700D03*
X-10600Y75300D03*
X2100Y4900D03*
X-800Y8750D03*
X9000Y22000D03*
X7500Y30000D03*
X8000Y37750D03*
X1200Y36100D03*
X4100Y51450D03*
X6300Y42700D03*
X-200Y43500D03*
Y47500D03*
X14600Y59000D03*
X10500Y63900D03*
X5400Y70350D03*
X12900Y71700D03*
X3500Y77964D03*
X28800Y6100D03*
X24200Y20000D03*
X29700D03*
X15000Y18900D03*
X20950Y18150D03*
X29400Y12200D03*
X29100Y15600D03*
X21450Y30000D03*
X27500Y37800D03*
X20500D03*
X28800Y29900D03*
X27500Y42000D03*
Y46000D03*
X20000D03*
X27500Y50000D03*
X20000D03*
Y42000D03*
X23500Y70200D03*
X21837Y59637D03*
X22400Y63400D03*
X18600D03*
X25900Y70100D03*
X26167Y59714D03*
X28600Y63400D03*
X24100Y61500D03*
X17500Y77964D03*
X42300Y4900D03*
X40300Y14000D03*
X32900Y20000D03*
X36600Y14050D03*
X46100Y11800D03*
X37150Y37900D03*
X37000Y29950D03*
X44500Y55050D03*
X37000Y42000D03*
X32500Y46000D03*
Y50000D03*
X37000D03*
Y46000D03*
X32064Y60136D03*
X34500Y60400D03*
X40000Y71100D03*
X38600Y63400D03*
X36000Y79400D03*
X33300Y74000D03*
X32900Y77964D03*
X45200D03*
X52700Y6500D03*
X61000Y1700D03*
X51000Y1100D03*
X60400Y20100D03*
X56700Y11600D03*
X48500Y35650D03*
X48700Y39400D03*
X49950Y26550D03*
X56300Y37800D03*
X52450Y56650D03*
X59700Y43000D03*
X48500Y46300D03*
X57500Y68000D03*
X51100Y71000D03*
X51000Y62050D03*
X47300Y62150D03*
X55307Y77966D03*
X76500Y-8500D03*
X68600Y-8300D03*
X67400Y1100D03*
X69500Y8650D03*
X62600Y14000D03*
X75500Y19050D03*
X67200Y12600D03*
X73200Y14750D03*
X71100Y24350D03*
X68600Y40100D03*
X65500Y27350D03*
X76000Y49150D03*
X75800Y42350D03*
Y45850D03*
X72800Y64400D03*
X63200Y57600D03*
X73600Y58300D03*
X64500Y66150D03*
X64800Y73500D03*
Y78900D03*
X68800Y86100D03*
X75000Y87400D03*
X92700Y-8450D03*
X81200Y12250D03*
X92700Y12150D03*
X83400Y24450D03*
X78500Y23000D03*
X78100Y30650D03*
X83100Y36150D03*
X79600Y42250D03*
X78850Y54250D03*
X85050D03*
X82900Y62100D03*
X88474Y85500D03*
X82600Y85600D03*
X106500Y-9400D03*
X95700Y3200D03*
X106500Y5200D03*
X106300Y-1100D03*
X106500Y14200D03*
X93800Y70600D03*
X95000Y66600D03*
X96800Y68900D03*
X105800Y71900D03*
X94900Y87000D03*
X106500Y80000D03*
X106300Y88600D03*
X120600Y-9600D03*
X113900Y-9300D03*
X120900Y-1500D03*
X114000Y5700D03*
Y-1300D03*
X113500Y14200D03*
X115000Y34650D03*
X120200Y46500D03*
X125000Y65400D03*
X117100Y64400D03*
X113182Y64600D03*
X123200Y62700D03*
X114700Y73100D03*
X123900Y80100D03*
X115000Y79600D03*
X124000Y88900D03*
X114800Y88800D03*
X136100Y-9500D03*
X125700Y-9700D03*
X128600Y20000D03*
X125864Y26150D03*
Y43750D03*
X138400Y50500D03*
X125817Y72233D03*
X137836Y73000D03*
X146400Y-9600D03*
X145916Y5400D03*
X156000Y-600D03*
X149400Y11600D03*
X148300Y35500D03*
X142500Y39610D03*
X142400Y43600D03*
X148100Y66100D03*
X143700Y66200D03*
X145700Y88900D03*
X151100Y74500D03*
X165700Y-9700D03*
X166800Y5800D03*
X164200Y5700D03*
X171400Y31300D03*
X170950Y36700D03*
X161100Y32400D03*
X165100Y28300D03*
X166700Y78300D03*
X158800Y76000D03*
X165800Y89000D03*
X185000Y-9400D03*
X181700Y5700D03*
X176500Y1300D03*
X184100Y12700D03*
X175800Y31400D03*
X179000Y33000D03*
X176100Y36700D03*
X184700Y52300D03*
X184150Y71750D03*
X173600Y65800D03*
X187100Y61850D03*
X185700Y78000D03*
X175300Y78500D03*
X186000Y89000D03*
X197100Y6400D03*
X190987Y21613D03*
X192600Y37000D03*
X203600Y35250D03*
X203900Y54750D03*
X194600Y56300D03*
X201000Y48000D03*
X194300Y44100D03*
X190000Y71600D03*
X202500Y59000D03*
X195500Y78300D03*
X205000Y-9400D03*
X218700Y6600D03*
X211200Y6500D03*
X204200Y6400D03*
X204700Y20166D03*
X211168Y24418D03*
X213600Y35500D03*
X216300Y48450D03*
X209200Y42100D03*
X213800Y71600D03*
X205200Y73150D03*
X215500Y79800D03*
X204900Y89000D03*
X225400Y-9000D03*
X224600Y9000D03*
X225100Y13100D03*
X234200Y40200D03*
X225100Y48250D03*
X225700Y53800D03*
X222600Y71550D03*
X233700Y71200D03*
X233100Y77500D03*
X225500Y89000D03*
X245100Y-9000D03*
X241600Y7300D03*
X249500Y5900D03*
X248700Y30500D03*
X238450Y35250D03*
X250200Y71300D03*
X240000Y72100D03*
X245500Y78800D03*
X245000Y89200D03*
X265000Y-9400D03*
X257000Y4200D03*
X260800Y14700D03*
X252650Y14500D03*
X253600Y22500D03*
X261100Y20900D03*
X262050Y26200D03*
X256300Y26950D03*
X254600Y32900D03*
X253150Y26650D03*
X266700Y43450D03*
X253250Y55300D03*
X252500Y42800D03*
X264300Y73000D03*
X256200Y79400D03*
X272800Y2600D03*
X273100Y15500D03*
X270450Y40800D03*
X268100Y52450D03*
X269950Y45800D03*
X282500Y71300D03*
X278200Y69500D03*
X268700Y73200D03*
X271850Y62550D03*
X272700Y67500D03*
X275300Y74900D03*
X274800Y89100D03*
X285100Y-9400D03*
X289150Y8800D03*
X294900Y7400D03*
X298200D03*
X284500Y7900D03*
X295200Y1700D03*
X296450Y22600D03*
X296700Y26800D03*
X296800Y55000D03*
X287700Y44850D03*
X283600Y53200D03*
X293400Y56400D03*
X293350Y59400D03*
X292000Y71000D03*
X295500D03*
X283400Y77000D03*
X292000D03*
X295500D03*
X305600Y-9000D03*
X305400Y9086D03*
X312700Y3200D03*
X305300Y1300D03*
X301500Y18000D03*
X299700Y22750D03*
X312200Y17900D03*
X301800Y27600D03*
X304300Y35500D03*
X310200Y37400D03*
X306750Y44000D03*
X313550Y52500D03*
X301200Y55100D03*
X305250Y55150D03*
X309300Y44200D03*
X305400Y58181D03*
X299000Y71000D03*
X302000D03*
X305500D03*
X314000D03*
X313000Y77200D03*
X306500Y81000D03*
X299000Y77000D03*
X308500D03*
X302000D03*
X325000Y-9300D03*
X321500Y5800D03*
X322900Y2200D03*
X315807Y18100D03*
X329750Y20650D03*
X329950Y18250D03*
X317800Y37450D03*
X317300Y50500D03*
X322725Y43925D03*
X330300Y47600D03*
X319100Y47150D03*
X316700Y46000D03*
X319600Y71100D03*
X329500Y58600D03*
X329600Y61800D03*
Y70800D03*
X316700Y71000D03*
X324600Y70800D03*
X329600Y74000D03*
X325200Y89000D03*
G54D12*
X-34288Y25875D03*
Y53434D03*
G54D30*
X139800Y25600D03*
G54D21*
X18600Y63400D03*
X28600D03*
X38600D03*
G54D40*
G01X68800Y73496D02*
Y79260D01*
G01X128600Y20000D02*
X135400D01*
X139800Y15600D01*
G54D22*
X60000Y-5000D03*
Y85000D03*
G54D31*
X139800Y15600D03*
G54D13*
X-32790Y18355D03*
Y60953D03*
G54D41*
G01X362500Y-7940D02*
Y87240D01*
G03X357500Y92240I-5000J0D01*
G01X-35000D01*
G03X-40000Y87240I0J-5000D01*
G01Y-7940D01*
G03X-35000Y-12940I5000J0D01*
G01X357500D01*
G03X362500Y-7940I0J5000D01*
G01X-56904Y-109616D02*
X-56397Y-110033D01*
X-55827Y-110283D01*
X-55321D01*
X-54814Y-110033D01*
X-54434Y-109616D01*
X-54244Y-109033D01*
X-54371Y-108450D01*
X-54687Y-107950D01*
X-55257Y-107616D01*
X-56017Y-107450D01*
X-56461Y-107116D01*
X-56651Y-106533D01*
X-56524Y-105950D01*
X-56207Y-105533D01*
X-55764Y-105283D01*
X-55321D01*
X-54877Y-105450D01*
X-54497Y-105866D01*
G01X-52057Y-110283D02*
X-50474Y-105283D01*
X-48891Y-110283D01*
G01X-49461Y-108533D02*
X-51487D01*
G01X-46831Y-110283D02*
Y-105283D01*
X-43917Y-110283D01*
Y-105283D01*
G01X-36441Y-109283D02*
X-36124Y-109783D01*
X-35744Y-110116D01*
X-35301Y-110283D01*
X-34794Y-110116D01*
X-34414Y-109783D01*
X-34034Y-109283D01*
X-33907Y-108616D01*
Y-105283D01*
G01X-30074Y-110283D02*
X-30581Y-110200D01*
X-31024Y-109866D01*
X-31404Y-109366D01*
X-31657Y-108783D01*
X-31784Y-108116D01*
Y-107450D01*
X-31657Y-106783D01*
X-31404Y-106200D01*
X-31024Y-105700D01*
X-30581Y-105366D01*
X-30074Y-105283D01*
X-29567Y-105366D01*
X-29124Y-105700D01*
X-28744Y-106200D01*
X-28491Y-106783D01*
X-28364Y-107450D01*
Y-108116D01*
X-28491Y-108783D01*
X-28744Y-109366D01*
X-29124Y-109866D01*
X-29567Y-110200D01*
X-30074Y-110283D01*
G01X-26304Y-109616D02*
X-25797Y-110033D01*
X-25227Y-110283D01*
X-24721D01*
X-24214Y-110033D01*
X-23834Y-109616D01*
X-23644Y-109033D01*
X-23771Y-108450D01*
X-24087Y-107950D01*
X-24657Y-107616D01*
X-25417Y-107450D01*
X-25861Y-107116D01*
X-26051Y-106533D01*
X-25924Y-105950D01*
X-25607Y-105533D01*
X-25164Y-105283D01*
X-24721D01*
X-24277Y-105450D01*
X-23897Y-105866D01*
G01X-18607Y-110283D02*
X-21141D01*
Y-105283D01*
X-18607D01*
G01X-19621Y-107700D02*
X-21141D01*
G01X-14901Y-111200D02*
X-14647Y-110116D01*
G01X-3181Y-105700D02*
X-3561Y-105450D01*
X-4004Y-105283D01*
X-4511D01*
X-5081Y-105533D01*
X-5524Y-105950D01*
X-5841Y-106450D01*
X-6094Y-107283D01*
X-6157Y-108033D01*
X-6031Y-108783D01*
X-5841Y-109283D01*
X-5461Y-109783D01*
X-5017Y-110116D01*
X-4574Y-110283D01*
X-4131D01*
X-3687Y-110116D01*
X-3307Y-109866D01*
X-2991Y-109533D01*
G01X-1057Y-110283D02*
X526Y-105283D01*
X2109Y-110283D01*
G01X1539Y-108533D02*
X-487D01*
G01X9649Y-109700D02*
X10093Y-110116D01*
X10599Y-110283D01*
X11106Y-110116D01*
X11549Y-109616D01*
X11866Y-108866D01*
X11993Y-108116D01*
Y-107200D01*
X11866Y-106450D01*
X11549Y-105783D01*
X11169Y-105450D01*
X10726Y-105283D01*
X10219Y-105450D01*
X9839Y-105783D01*
X9586Y-106283D01*
X9459Y-106950D01*
X9586Y-107533D01*
X9903Y-108116D01*
X10283Y-108450D01*
X10726Y-108533D01*
X11233Y-108366D01*
X11613Y-107950D01*
X11993Y-107200D01*
G01X14433Y-109533D02*
X14813Y-109950D01*
X15256Y-110200D01*
X15826Y-110283D01*
X16396Y-110116D01*
X16839Y-109783D01*
X17156Y-109200D01*
X17219Y-108533D01*
X17093Y-107866D01*
X16776Y-107450D01*
X16333Y-107116D01*
X15889Y-107033D01*
X15446Y-107116D01*
X14876Y-107450D01*
X15066Y-105283D01*
X16776D01*
G01X20926Y-110283D02*
Y-105283D01*
X20166Y-106283D01*
G01Y-110283D02*
X21686D01*
G01X24633Y-109283D02*
X25013Y-109866D01*
X25519Y-110200D01*
X26089Y-110283D01*
X26596Y-110200D01*
X27103Y-109783D01*
X27419Y-109283D01*
X27483Y-108783D01*
X27356Y-108200D01*
X26913Y-107783D01*
X26469Y-107616D01*
X25899D01*
G01X26469D02*
X26849Y-107366D01*
X27166Y-106950D01*
X27293Y-106450D01*
X27166Y-105950D01*
X26849Y-105533D01*
X26279Y-105283D01*
X25709Y-105366D01*
X25139Y-105700D01*
G01X31886Y-110283D02*
Y-105283D01*
X29543Y-108866D01*
X32709D01*
G01X-45691Y-120450D02*
X-46324Y-119616D01*
X-46641Y-118783D01*
Y-115450D01*
X-46324Y-114616D01*
X-45691Y-113783D01*
G01X-39514Y-118783D02*
Y-113783D01*
X-41857Y-117366D01*
X-38691D01*
G01X-35174Y-113783D02*
X-35681Y-113950D01*
X-36061Y-114366D01*
X-36314Y-114866D01*
X-36504Y-115533D01*
X-36567Y-116283D01*
X-36504Y-117033D01*
X-36314Y-117700D01*
X-36061Y-118200D01*
X-35681Y-118616D01*
X-35174Y-118783D01*
X-34667Y-118616D01*
X-34287Y-118200D01*
X-34034Y-117700D01*
X-33844Y-117033D01*
X-33781Y-116283D01*
X-33844Y-115533D01*
X-34034Y-114866D01*
X-34287Y-114366D01*
X-34667Y-113950D01*
X-35174Y-113783D01*
G01X-30074Y-118783D02*
X-29631Y-118700D01*
X-29124Y-118450D01*
X-28807Y-118033D01*
X-28681Y-117450D01*
X-28807Y-116866D01*
X-29187Y-116366D01*
X-29757Y-116116D01*
X-30391D01*
X-30771Y-115950D01*
X-31087Y-115533D01*
X-31214Y-114950D01*
X-31024Y-114366D01*
X-30581Y-113950D01*
X-30074Y-113783D01*
X-29567Y-113950D01*
X-29124Y-114366D01*
X-28934Y-114950D01*
X-29061Y-115533D01*
X-29377Y-115950D01*
X-29757Y-116116D01*
X-30391D01*
X-30961Y-116366D01*
X-31341Y-116866D01*
X-31467Y-117450D01*
X-31341Y-118033D01*
X-31024Y-118450D01*
X-30517Y-118700D01*
X-30074Y-118783D01*
G01X-24657Y-120450D02*
X-24024Y-119616D01*
X-23707Y-118783D01*
Y-115450D01*
X-24024Y-114616D01*
X-24657Y-113783D01*
G01X-15851Y-118200D02*
X-15407Y-118616D01*
X-14901Y-118783D01*
X-14394Y-118616D01*
X-13951Y-118116D01*
X-13634Y-117366D01*
X-13507Y-116616D01*
Y-115700D01*
X-13634Y-114950D01*
X-13951Y-114283D01*
X-14331Y-113950D01*
X-14774Y-113783D01*
X-15281Y-113950D01*
X-15661Y-114283D01*
X-15914Y-114783D01*
X-16041Y-115450D01*
X-15914Y-116033D01*
X-15597Y-116616D01*
X-15217Y-116950D01*
X-14774Y-117033D01*
X-14267Y-116866D01*
X-13887Y-116450D01*
X-13507Y-115700D01*
G01X-8914Y-118783D02*
Y-113783D01*
X-11257Y-117366D01*
X-8091D01*
G01X-5967Y-117783D02*
X-5587Y-118366D01*
X-5081Y-118700D01*
X-4511Y-118783D01*
X-4004Y-118700D01*
X-3497Y-118283D01*
X-3181Y-117783D01*
X-3117Y-117283D01*
X-3244Y-116700D01*
X-3687Y-116283D01*
X-4131Y-116116D01*
X-4701D01*
G01X-4131D02*
X-3751Y-115866D01*
X-3434Y-115450D01*
X-3307Y-114950D01*
X-3434Y-114450D01*
X-3751Y-114033D01*
X-4321Y-113783D01*
X-4891Y-113866D01*
X-5461Y-114200D01*
G01X-297Y-117116D02*
X1349D01*
G01X4423Y-114616D02*
X4803Y-114116D01*
X5246Y-113866D01*
X5753Y-113783D01*
X6386Y-113950D01*
X6829Y-114366D01*
X6956Y-114866D01*
X6893Y-115366D01*
X6639Y-115783D01*
X5373Y-116616D01*
X4803Y-117200D01*
X4423Y-118033D01*
X4296Y-118783D01*
X6956D01*
G01X9523Y-116700D02*
X9966Y-116116D01*
X10346Y-115783D01*
X10853Y-115616D01*
X11296Y-115783D01*
X11613Y-116116D01*
X11866Y-116616D01*
X11929Y-117200D01*
X11866Y-117700D01*
X11613Y-118200D01*
X11233Y-118616D01*
X10789Y-118783D01*
X10283Y-118616D01*
X9839Y-118116D01*
X9586Y-117366D01*
X9523Y-116533D01*
X9649Y-115450D01*
X9839Y-114866D01*
X10156Y-114283D01*
X10599Y-113866D01*
X11043Y-113783D01*
X11486Y-113950D01*
X11803Y-114366D01*
G01X15826Y-113783D02*
X15319Y-113950D01*
X14939Y-114366D01*
X14686Y-114866D01*
X14496Y-115533D01*
X14433Y-116283D01*
X14496Y-117033D01*
X14686Y-117700D01*
X14939Y-118200D01*
X15319Y-118616D01*
X15826Y-118783D01*
X16333Y-118616D01*
X16713Y-118200D01*
X16966Y-117700D01*
X17156Y-117033D01*
X17219Y-116283D01*
X17156Y-115533D01*
X16966Y-114866D01*
X16713Y-114366D01*
X16333Y-113950D01*
X15826Y-113783D01*
G01X20926D02*
X20419Y-113950D01*
X20039Y-114366D01*
X19786Y-114866D01*
X19596Y-115533D01*
X19533Y-116283D01*
X19596Y-117033D01*
X19786Y-117700D01*
X20039Y-118200D01*
X20419Y-118616D01*
X20926Y-118783D01*
X21433Y-118616D01*
X21813Y-118200D01*
X22066Y-117700D01*
X22256Y-117033D01*
X22319Y-116283D01*
X22256Y-115533D01*
X22066Y-114866D01*
X21813Y-114366D01*
X21433Y-113950D01*
X20926Y-113783D01*
G01X65307Y-112550D02*
Y-109450D01*
X66073D01*
X66380Y-109605D01*
X66610Y-109812D01*
X66802Y-110122D01*
X66955Y-110483D01*
X66993Y-111000D01*
X66955Y-111517D01*
X66802Y-111878D01*
X66610Y-112188D01*
X66380Y-112395D01*
X66073Y-112550D01*
X65307D01*
G01X68100Y-109450D02*
X68637Y-112550D01*
X69250Y-109450D01*
X69863Y-112550D01*
X70400Y-109450D01*
G01X72580Y-111000D02*
X73347D01*
Y-111930D01*
X73117Y-112240D01*
X72848Y-112447D01*
X72465Y-112550D01*
X72082Y-112447D01*
X71813Y-112240D01*
X71583Y-111930D01*
X71430Y-111568D01*
X71353Y-111155D01*
Y-110793D01*
X71430Y-110483D01*
X71583Y-110122D01*
X71813Y-109812D01*
X72043Y-109605D01*
X72350Y-109450D01*
X72618D01*
X72925Y-109553D01*
X73155Y-109760D01*
G01X77668Y-112550D02*
Y-109450D01*
X79432Y-112550D01*
Y-109450D01*
G01X81650Y-112550D02*
X81343Y-112498D01*
X81075Y-112292D01*
X80845Y-111982D01*
X80692Y-111620D01*
X80615Y-111207D01*
Y-110793D01*
X80692Y-110380D01*
X80845Y-110018D01*
X81075Y-109708D01*
X81343Y-109502D01*
X81650Y-109450D01*
X81957Y-109502D01*
X82225Y-109708D01*
X82455Y-110018D01*
X82608Y-110380D01*
X82685Y-110793D01*
Y-111207D01*
X82608Y-111620D01*
X82455Y-111982D01*
X82225Y-112292D01*
X81957Y-112498D01*
X81650Y-112550D01*
G01X84750Y-112653D02*
X84673Y-112602D01*
Y-112498D01*
X84750Y-112447D01*
X84827Y-112498D01*
Y-112602D01*
X84750Y-112653D01*
G01Y-111258D02*
X84673Y-111207D01*
Y-111103D01*
X84750Y-111052D01*
X84827Y-111103D01*
Y-111207D01*
X84750Y-111258D01*
G01X65383Y-94450D02*
Y-97550D01*
X66917D01*
G01X68292D02*
X69250Y-94450D01*
X70208Y-97550D01*
G01X69863Y-96465D02*
X68637D01*
G01X72350Y-97550D02*
Y-96155D01*
X71583Y-94450D01*
G01X73117D02*
X72350Y-96155D01*
G01X76217Y-97550D02*
X74683D01*
Y-94450D01*
X76217D01*
G01X75603Y-95948D02*
X74683D01*
G01X77783Y-97550D02*
Y-94450D01*
X78742D01*
X79048Y-94605D01*
X79240Y-94812D01*
X79317Y-95225D01*
X79240Y-95638D01*
X79010Y-95897D01*
X78742Y-96052D01*
X77783D01*
G01X78742D02*
X79317Y-97550D01*
G01X81650Y-97653D02*
X81573Y-97602D01*
Y-97498D01*
X81650Y-97447D01*
X81727Y-97498D01*
Y-97602D01*
X81650Y-97653D01*
G01Y-96258D02*
X81573Y-96207D01*
Y-96103D01*
X81650Y-96052D01*
X81727Y-96103D01*
Y-96207D01*
X81650Y-96258D01*
G01X65307Y-82550D02*
Y-79450D01*
X66073D01*
X66380Y-79605D01*
X66610Y-79812D01*
X66802Y-80122D01*
X66955Y-80483D01*
X66993Y-81000D01*
X66955Y-81517D01*
X66802Y-81878D01*
X66610Y-82188D01*
X66380Y-82395D01*
X66073Y-82550D01*
X65307D01*
G01X68483D02*
Y-79450D01*
X69442D01*
X69748Y-79605D01*
X69940Y-79812D01*
X70017Y-80225D01*
X69940Y-80638D01*
X69710Y-80897D01*
X69442Y-81052D01*
X68483D01*
G01X69442D02*
X70017Y-82550D01*
G01X71392D02*
X72350Y-79450D01*
X73308Y-82550D01*
G01X72963Y-81465D02*
X71737D01*
G01X74300Y-79450D02*
X74837Y-82550D01*
X75450Y-79450D01*
X76063Y-82550D01*
X76600Y-79450D01*
G01X77668Y-82550D02*
Y-79450D01*
X79432Y-82550D01*
Y-79450D01*
G01X85057Y-80897D02*
X85210Y-80742D01*
X85325Y-80483D01*
X85402Y-80122D01*
X85325Y-79812D01*
X85172Y-79605D01*
X84903Y-79450D01*
X83868D01*
Y-82550D01*
X85133D01*
X85402Y-82343D01*
X85555Y-82033D01*
X85632Y-81672D01*
X85555Y-81310D01*
X85325Y-81000D01*
X85057Y-80897D01*
X83868D01*
G01X87850Y-82550D02*
Y-81155D01*
X87083Y-79450D01*
G01X88617D02*
X87850Y-81155D01*
G01X90950Y-82653D02*
X90873Y-82602D01*
Y-82498D01*
X90950Y-82447D01*
X91027Y-82498D01*
Y-82602D01*
X90950Y-82653D01*
G01Y-81258D02*
X90873Y-81207D01*
Y-81103D01*
X90950Y-81052D01*
X91027Y-81103D01*
Y-81207D01*
X90950Y-81258D01*
G01X65383Y-67550D02*
Y-64450D01*
X66303D01*
X66610Y-64605D01*
X66840Y-64967D01*
X66917Y-65380D01*
X66840Y-65793D01*
X66648Y-66103D01*
X66303Y-66258D01*
X65383D01*
G01X68483Y-67550D02*
Y-64450D01*
X69442D01*
X69748Y-64605D01*
X69940Y-64812D01*
X70017Y-65225D01*
X69940Y-65638D01*
X69710Y-65897D01*
X69442Y-66052D01*
X68483D01*
G01X69442D02*
X70017Y-67550D01*
G01X72350D02*
X72043Y-67498D01*
X71775Y-67292D01*
X71545Y-66982D01*
X71392Y-66620D01*
X71315Y-66207D01*
Y-65793D01*
X71392Y-65380D01*
X71545Y-65018D01*
X71775Y-64708D01*
X72043Y-64502D01*
X72350Y-64450D01*
X72657Y-64502D01*
X72925Y-64708D01*
X73155Y-65018D01*
X73308Y-65380D01*
X73385Y-65793D01*
Y-66207D01*
X73308Y-66620D01*
X73155Y-66982D01*
X72925Y-67292D01*
X72657Y-67498D01*
X72350Y-67550D01*
G01X74683Y-66930D02*
X74875Y-67240D01*
X75105Y-67447D01*
X75373Y-67550D01*
X75680Y-67447D01*
X75910Y-67240D01*
X76140Y-66930D01*
X76217Y-66517D01*
Y-64450D01*
G01X79317Y-67550D02*
X77783D01*
Y-64450D01*
X79317D01*
G01X78703Y-65948D02*
X77783D01*
G01X82493Y-64708D02*
X82263Y-64553D01*
X81995Y-64450D01*
X81688D01*
X81343Y-64605D01*
X81075Y-64863D01*
X80883Y-65173D01*
X80730Y-65690D01*
X80692Y-66155D01*
X80768Y-66620D01*
X80883Y-66930D01*
X81113Y-67240D01*
X81382Y-67447D01*
X81650Y-67550D01*
X81918D01*
X82187Y-67447D01*
X82417Y-67292D01*
X82608Y-67085D01*
G01X84750Y-64450D02*
Y-67550D01*
G01X83868Y-64450D02*
X85632D01*
G01X87850Y-67653D02*
X87773Y-67602D01*
Y-67498D01*
X87850Y-67447D01*
X87927Y-67498D01*
Y-67602D01*
X87850Y-67653D01*
G01Y-66258D02*
X87773Y-66207D01*
Y-66103D01*
X87850Y-66052D01*
X87927Y-66103D01*
Y-66207D01*
X87850Y-66258D01*
G01X260383Y-112550D02*
Y-109450D01*
X261342D01*
X261648Y-109605D01*
X261840Y-109812D01*
X261917Y-110225D01*
X261840Y-110638D01*
X261610Y-110897D01*
X261342Y-111052D01*
X260383D01*
G01X261342D02*
X261917Y-112550D01*
G01X265017D02*
X263483D01*
Y-109450D01*
X265017D01*
G01X264403Y-110948D02*
X263483D01*
G01X266392Y-109450D02*
X267350Y-112550D01*
X268308Y-109450D01*
G01X270450Y-112653D02*
X270373Y-112602D01*
Y-112498D01*
X270450Y-112447D01*
X270527Y-112498D01*
Y-112602D01*
X270450Y-112653D01*
G01Y-111258D02*
X270373Y-111207D01*
Y-111103D01*
X270450Y-111052D01*
X270527Y-111103D01*
Y-111207D01*
X270450Y-111258D01*
G01X299307Y-112550D02*
Y-109450D01*
X300073D01*
X300380Y-109605D01*
X300610Y-109812D01*
X300802Y-110122D01*
X300955Y-110483D01*
X300993Y-111000D01*
X300955Y-111517D01*
X300802Y-111878D01*
X300610Y-112188D01*
X300380Y-112395D01*
X300073Y-112550D01*
X299307D01*
G01X302292D02*
X303250Y-109450D01*
X304208Y-112550D01*
G01X303863Y-111465D02*
X302637D01*
G01X306350Y-109450D02*
Y-112550D01*
G01X305468Y-109450D02*
X307232D01*
G01X310217Y-112550D02*
X308683D01*
Y-109450D01*
X310217D01*
G01X309603Y-110948D02*
X308683D01*
G01X312550Y-112653D02*
X312473Y-112602D01*
Y-112498D01*
X312550Y-112447D01*
X312627Y-112498D01*
Y-112602D01*
X312550Y-112653D01*
G01Y-111258D02*
X312473Y-111207D01*
Y-111103D01*
X312550Y-111052D01*
X312627Y-111103D01*
Y-111207D01*
X312550Y-111258D01*
G54D32*
X274914Y40600D03*
X282000D03*
X274914Y48500D03*
X282000D03*
G54D14*
X-23658Y29812D03*
Y49497D03*
G54D23*
X68800Y73496D03*
Y66804D03*
X76600Y81596D03*
Y74904D03*
X289500Y56000D03*
Y62692D03*
X309500Y57808D03*
Y64500D03*
G54D42*
G01X-7126Y42500D02*
X-8900D01*
X-10100Y43700D01*
X-11893D01*
X-13812Y45619D01*
G01X-7126Y48000D02*
Y46121D01*
X-7628Y45619D01*
X-10756D01*
G54D15*
X-26890Y42000D03*
X-23110D03*
X14610Y21900D03*
X13110Y38600D03*
X14610Y27200D03*
X13010Y48700D03*
X13110Y43600D03*
X13010Y53800D03*
X18390Y21900D03*
X16890Y38600D03*
X18390Y27200D03*
X16790Y48700D03*
X16890Y43600D03*
X16790Y53800D03*
X44590Y27600D03*
X40810D03*
X44600Y39400D03*
X40820D03*
X44590Y51200D03*
X40810D03*
X312690Y34450D03*
X308910D03*
X317410D03*
X321190D03*
G54D33*
X282500Y57000D03*
Y64086D03*
G54D24*
X76800Y63748D03*
Y68000D03*
G54D43*
G01X-17600Y17000D02*
Y19200D01*
X-16700Y20100D01*
X-14426D01*
G01X-10174D02*
Y35376D01*
X-7900Y37650D01*
X-550D01*
X4100Y42300D01*
Y51450D01*
G01X-2874Y42500D02*
X-1200D01*
X-200Y43500D01*
G01X-2874Y48000D02*
X-700D01*
X-200Y47500D01*
G01X2100Y4900D02*
X18900D01*
X23200Y600D01*
X28400D01*
X30000Y-1000D01*
Y-5000D01*
G01X40000D02*
Y-100D01*
X37500Y2400D01*
X24800D01*
X19400Y7800D01*
X150D01*
X-800Y8750D01*
G01X1200Y36100D02*
Y24000D01*
X14650Y10550D01*
X19850D01*
X26600Y3800D01*
X38700D01*
X40700Y1800D01*
X47700D01*
X50000Y-500D01*
Y-5000D01*
G01X96800Y68900D02*
Y82166D01*
X89766Y89200D01*
X4200D01*
X0Y85000D01*
G01X15000Y18900D02*
Y15300D01*
X18350Y11950D01*
X26450D01*
X28800Y9600D01*
Y6100D01*
G01X24200Y20000D02*
Y30200D01*
X27100Y33100D01*
X69750D01*
X77800Y41150D01*
Y47350D01*
X76000Y49150D01*
G01X79600Y42250D02*
Y40950D01*
X70550Y31900D01*
X27600D01*
X26000Y30300D01*
Y19200D01*
X24200Y17400D01*
X21700D01*
X20950Y18150D01*
G01X20426Y70100D02*
X23300D01*
X23400Y70200D01*
X23500D01*
G01X21837Y59637D02*
X23718D01*
X26455Y56900D01*
X48900D01*
X63450Y42350D01*
X75800D01*
G01X18600Y63400D02*
X22400D01*
G01X28974Y70100D02*
X25900D01*
G01X26167Y59714D02*
X29114D01*
X32800Y63400D01*
X38600D01*
G01X28600D02*
X26000D01*
X24100Y61500D01*
G01X62600Y14000D02*
X40300D01*
G01X91000Y60000D02*
X85700D01*
X81500Y55800D01*
Y40950D01*
X70400Y29850D01*
X57600D01*
X47400Y19650D01*
X33250D01*
X32900Y20000D01*
G01X36600Y14050D02*
Y15800D01*
X37850Y17050D01*
X60400D01*
X83100Y39750D01*
Y46850D01*
X86250Y50000D01*
X91000D01*
G01X32064Y60136D02*
X33600Y58600D01*
X53500D01*
X62950Y49150D01*
X76000D01*
G01X79600Y42250D02*
Y48500D01*
X77150Y50950D01*
X62850D01*
X53600Y60200D01*
X34700D01*
X34500Y60400D01*
G01X40000Y85000D02*
Y71100D01*
G01X52450Y56650D02*
X63250Y45850D01*
X75800D01*
G01X82514Y68007D02*
X76807D01*
X76800Y68000D01*
G01X91000Y40000D02*
X111000D01*
G01X91000Y50000D02*
X111000D01*
G01Y60000D02*
X91000D01*
G01X93800Y70600D02*
Y68900D01*
X92907Y68007D01*
X89600D01*
G01X82900Y74707D02*
X85500D01*
X86100Y74107D01*
Y68907D01*
X87000Y68007D01*
X89600D01*
G01X92726Y80850D02*
Y75693D01*
X92126Y75093D01*
X89600D01*
G01X113182Y64600D02*
X107400D01*
X105250Y62450D01*
X98750D01*
X96800Y64400D01*
Y68900D01*
G01X261207Y62550D02*
X258750D01*
X257800Y61600D01*
Y44700D01*
X243100Y30000D01*
X195100D01*
X168700Y3600D01*
X129400D01*
X119600Y13400D01*
Y43300D01*
X117600Y45300D01*
Y57600D01*
X115200Y60000D01*
X111000D01*
G01Y50000D02*
X115200D01*
X116300Y48900D01*
Y44700D01*
X118400Y42600D01*
Y12900D01*
X128900Y2400D01*
X169200D01*
X194900Y28100D01*
X242900D01*
X261200Y46400D01*
Y53700D01*
X261207Y53707D01*
Y56050D01*
G01X156000Y-600D02*
X128500D01*
X116000Y11900D01*
Y33650D01*
X115000Y34650D01*
G01X190987Y21613D02*
X190413D01*
X170000Y1200D01*
X128400D01*
X117200Y12400D01*
Y37800D01*
X115000Y40000D01*
X111000D01*
G01X145916Y5400D02*
X132000D01*
X121100Y16300D01*
Y45600D01*
X120200Y46500D01*
G01X166800Y5800D02*
Y5900D01*
X163700Y9000D01*
X134400D01*
X124000Y19400D01*
Y57500D01*
X117100Y64400D01*
G01X164200Y5700D02*
X162100Y7800D01*
X133000D01*
X122600Y18200D01*
Y55182D01*
X113182Y64600D01*
G01X149400Y11600D02*
X166600D01*
X188000Y33000D01*
X240047D01*
X255400Y48353D01*
Y63799D01*
X259101Y67500D01*
X272700D01*
G01X142500Y39610D02*
X168311D01*
X172957Y44256D01*
Y47300D01*
G01X170000Y-5000D02*
Y-1600D01*
X180000Y8400D01*
X182700D01*
X197944Y23644D01*
X207156D01*
X209400Y21400D01*
X252500D01*
X253600Y22500D01*
G01X213800Y71600D02*
X211900Y69700D01*
X177100D01*
X170000Y76800D01*
Y85000D01*
G01X269950Y45800D02*
Y44150D01*
X254550Y28750D01*
X250650D01*
X248400Y26500D01*
X198700D01*
X184900Y12700D01*
X184100D01*
G01X180043Y47300D02*
Y40986D01*
X179957Y40900D01*
G01X280000Y85000D02*
Y80100D01*
X277900Y78000D01*
X262500D01*
X251900Y67400D01*
X228550D01*
X212550Y51400D01*
X199300D01*
X195200Y47300D01*
X180043D01*
G01X172957D02*
Y54000D01*
G01X180000Y85000D02*
Y73200D01*
X181450Y71750D01*
X184150D01*
G01X304300Y35500D02*
X302850D01*
X280050Y12700D01*
X234400D01*
X224777Y3077D01*
X204077D01*
X200000Y-1000D01*
Y-5000D01*
G01X306750Y44000D02*
X305400D01*
X281600Y20200D01*
X262926D01*
X261840Y19114D01*
X209686D01*
X206500Y22300D01*
X201900D01*
X190000Y10400D01*
Y-5000D01*
G01Y71600D02*
Y85000D01*
G01X210000Y-5000D02*
X216800Y1800D01*
X225200D01*
X234900Y11500D01*
X281100D01*
X296400Y26800D01*
X296700D01*
G01X211168Y24418D02*
X212986Y22600D01*
X249900D01*
X251676Y24376D01*
X280026D01*
X303836Y48186D01*
X318064D01*
X319100Y47150D01*
G01X301800Y27600D02*
X298900Y24700D01*
X296000D01*
X281600Y10300D01*
X240000D01*
X231677Y1977D01*
X227077D01*
X225700Y600D01*
X221846D01*
X220000Y-1246D01*
Y-5000D01*
G01X296450Y22600D02*
X282950Y9100D01*
X240498D01*
X232175Y777D01*
X232023D01*
X230000Y-1246D01*
Y-5000D01*
G01X225100Y48250D02*
X229557D01*
G01X229507Y54750D02*
Y48300D01*
X229557Y48250D01*
G01X289150Y8800D02*
X288950D01*
X286250Y6100D01*
X256374D01*
X250000Y-274D01*
Y-5000D01*
G01X284500Y7900D02*
X248974D01*
X240000Y-1074D01*
Y-5000D01*
G01X248700Y30500D02*
X249674D01*
X278200Y59026D01*
Y69500D01*
G01X243150Y55293D02*
X249650D01*
G01D02*
X253243D01*
X253250Y55300D01*
G01X250200Y71300D02*
X250157Y71343D01*
Y84843D01*
X250000Y85000D01*
G01X240000D02*
Y72100D01*
G01X260000Y-5000D02*
Y300D01*
X264600Y4900D01*
X288000D01*
X292000Y8900D01*
Y12000D01*
X299700Y19700D01*
Y22750D01*
G01X253600Y22500D02*
X254200Y23100D01*
X280850D01*
X304736Y46986D01*
X315714D01*
X316700Y46000D01*
G01X309300Y44200D02*
X307714Y45786D01*
X305436D01*
X281050Y21400D01*
X261600D01*
X261100Y20900D01*
G01X317300Y50500D02*
X316800Y50000D01*
X303300D01*
X279462Y26162D01*
X262088D01*
X262050Y26200D01*
G01X254600Y32900D02*
X265150Y43450D01*
X266700D01*
G01X280000Y-5000D02*
X284100D01*
X285600Y-3500D01*
Y800D01*
X294000Y9200D01*
X305286D01*
X305400Y9086D01*
G01X274914Y40600D02*
X270650D01*
X270450Y40800D01*
G01X266700Y43450D02*
Y45076D01*
X270124Y48500D01*
X274914D01*
G01X268293Y56050D02*
Y52693D01*
X268100Y52500D01*
Y52450D01*
G01X268293Y62550D02*
X271850D01*
G01X294900Y7400D02*
Y7200D01*
X290000Y2300D01*
Y-5000D01*
G01X282500Y71300D02*
Y64086D01*
G01X293350Y61518D02*
Y61937D01*
X293168Y62119D01*
G01X296941D02*
X293951D01*
G01X293350Y61518D02*
Y59400D01*
G01X293951Y62119D02*
X293350Y61518D01*
G01X293168Y62119D02*
X292595Y62692D01*
X289500D01*
G01X293951Y62119D02*
X293168D01*
G01X290000Y85000D02*
Y78900D01*
X289500Y78400D01*
Y62692D01*
G01X298200Y7400D02*
Y7300D01*
X300000Y5500D01*
Y-5000D01*
G01X312200Y17900D02*
Y20701D01*
X310379Y22522D01*
Y26950D01*
G01X312690Y34450D02*
Y32890D01*
X311800Y32000D01*
X311100D01*
X310379Y31279D01*
Y26950D01*
G01X302059Y58181D02*
X305400D01*
G01D02*
X306719D01*
X307092Y57808D01*
X309500D01*
G01X300000Y85000D02*
Y79900D01*
X300800Y79100D01*
X302700D01*
X314500Y67300D01*
Y59900D01*
X312408Y57808D01*
X309500D01*
G01X319600Y71100D02*
Y71600D01*
X313925Y77275D01*
X313075D01*
X313000Y77200D01*
G01X322725Y43925D02*
Y43975D01*
X322500Y44200D01*
Y71100D01*
X314500Y79100D01*
X308400D01*
X306500Y81000D01*
G01X310000Y85000D02*
Y81300D01*
X310800Y80500D01*
X319050D01*
X324600Y74950D01*
Y70800D01*
G01X315807Y18100D02*
Y19807D01*
X317700Y21700D01*
X319621D01*
X320221Y22300D01*
Y26950D01*
G01D02*
Y31279D01*
X319400Y32100D01*
X318010D01*
X317410Y32700D01*
Y34450D01*
G54D16*
X-22874Y37000D03*
X-27126D03*
X-14426Y20100D03*
X-10174D03*
X-2874Y48000D03*
X-7126D03*
X-2874Y42500D03*
X-7126D03*
X14374Y32300D03*
X18626D03*
X16174Y70100D03*
X20426D03*
X28974D03*
X33226D03*
X88474Y80850D03*
X92726D03*
G54D34*
X296941Y58181D03*
Y62119D03*
X302059Y58181D03*
Y62119D03*
G54D25*
X91000Y20000D03*
X111000D03*
G54D44*
G01X-82000Y-63550D02*
X64000D01*
Y-123550D01*
X-82000D01*
Y-63550D01*
G01X64000Y-123550D02*
X399161D01*
Y-63550D01*
X64000D01*
G01Y-108550D02*
X399000D01*
G01X64000Y-93550D02*
X399000D01*
G01X64000Y-78550D02*
X399000D01*
G01X259000Y-123550D02*
Y-108550D01*
G01X298000Y-123550D02*
Y-108550D01*
G54D17*
X-17524Y62700D03*
X-8076Y58960D03*
Y66440D03*
G54D35*
X310379Y26950D03*
X320221D03*
G54D26*
X91000Y30000D03*
Y40000D03*
Y50000D03*
Y60000D03*
X111000Y30000D03*
Y40000D03*
Y50000D03*
Y60000D03*
G54D45*
G01X93100Y-116217D02*
X93800Y-115283D01*
X94400Y-114750D01*
X95200Y-114483D01*
X95900Y-114750D01*
X96400Y-115283D01*
X96800Y-116083D01*
X96900Y-117017D01*
X96800Y-117817D01*
X96400Y-118617D01*
X95800Y-119283D01*
X95100Y-119550D01*
X94300Y-119283D01*
X93600Y-118484D01*
X93200Y-117283D01*
X93100Y-115950D01*
X93300Y-114217D01*
X93600Y-113283D01*
X94100Y-112350D01*
X94800Y-111683D01*
X95500Y-111550D01*
X96200Y-111817D01*
X96700Y-112483D01*
G01X103000Y-119550D02*
Y-111550D01*
X101800Y-113150D01*
G01Y-119550D02*
X104200D01*
G01X111000Y-111550D02*
X110200Y-111817D01*
X109600Y-112483D01*
X109200Y-113283D01*
X108900Y-114350D01*
X108800Y-115550D01*
X108900Y-116750D01*
X109200Y-117817D01*
X109600Y-118617D01*
X110200Y-119283D01*
X111000Y-119550D01*
X111800Y-119283D01*
X112400Y-118617D01*
X112800Y-117817D01*
X113100Y-116750D01*
X113200Y-115550D01*
X113100Y-114350D01*
X112800Y-113283D01*
X112400Y-112483D01*
X111800Y-111817D01*
X111000Y-111550D01*
G01X117700Y-116883D02*
X120300D01*
G01X125100Y-116217D02*
X125800Y-115283D01*
X126400Y-114750D01*
X127200Y-114483D01*
X127900Y-114750D01*
X128400Y-115283D01*
X128800Y-116083D01*
X128900Y-117017D01*
X128800Y-117817D01*
X128400Y-118617D01*
X127800Y-119283D01*
X127100Y-119550D01*
X126300Y-119283D01*
X125600Y-118484D01*
X125200Y-117283D01*
X125100Y-115950D01*
X125300Y-114217D01*
X125600Y-113283D01*
X126100Y-112350D01*
X126800Y-111683D01*
X127500Y-111550D01*
X128200Y-111817D01*
X128700Y-112483D01*
G01X135000Y-111550D02*
X134200Y-111817D01*
X133600Y-112483D01*
X133200Y-113283D01*
X132900Y-114350D01*
X132800Y-115550D01*
X132900Y-116750D01*
X133200Y-117817D01*
X133600Y-118617D01*
X134200Y-119283D01*
X135000Y-119550D01*
X135800Y-119283D01*
X136400Y-118617D01*
X136800Y-117817D01*
X137100Y-116750D01*
X137200Y-115550D01*
X137100Y-114350D01*
X136800Y-113283D01*
X136400Y-112483D01*
X135800Y-111817D01*
X135000Y-111550D01*
G01X140800Y-118350D02*
X141400Y-119017D01*
X142100Y-119417D01*
X143000Y-119550D01*
X143900Y-119283D01*
X144600Y-118750D01*
X145100Y-117817D01*
X145200Y-116750D01*
X145000Y-115683D01*
X144500Y-115017D01*
X143800Y-114483D01*
X143100Y-114350D01*
X142400Y-114483D01*
X141500Y-115017D01*
X141800Y-111550D01*
X144500D01*
G01X149100Y-112883D02*
X149700Y-112083D01*
X150400Y-111683D01*
X151200Y-111550D01*
X152200Y-111817D01*
X152900Y-112483D01*
X153100Y-113283D01*
X153000Y-114084D01*
X152600Y-114750D01*
X150600Y-116083D01*
X149700Y-117017D01*
X149100Y-118350D01*
X148900Y-119550D01*
X153100D01*
G01X158800D02*
X159000Y-117817D01*
X159300Y-116350D01*
X159700Y-115017D01*
X160200Y-113550D01*
X161000Y-111550D01*
X157000D01*
G01X165700Y-116883D02*
X168300D01*
G01X175000Y-111550D02*
X174200Y-111817D01*
X173600Y-112483D01*
X173200Y-113283D01*
X172900Y-114350D01*
X172800Y-115550D01*
X172900Y-116750D01*
X173200Y-117817D01*
X173600Y-118617D01*
X174200Y-119283D01*
X175000Y-119550D01*
X175800Y-119283D01*
X176400Y-118617D01*
X176800Y-117817D01*
X177100Y-116750D01*
X177200Y-115550D01*
X177100Y-114350D01*
X176800Y-113283D01*
X176400Y-112483D01*
X175800Y-111817D01*
X175000Y-111550D01*
G01X183000Y-119550D02*
Y-111550D01*
X181800Y-113150D01*
G01Y-119550D02*
X184200D01*
G01X95800Y-100783D02*
X96200Y-100383D01*
X96500Y-99717D01*
X96700Y-98783D01*
X96500Y-97983D01*
X96100Y-97450D01*
X95400Y-97050D01*
X92700D01*
Y-105050D01*
X96000D01*
X96700Y-104517D01*
X97100Y-103717D01*
X97300Y-102783D01*
X97100Y-101850D01*
X96500Y-101050D01*
X95800Y-100783D01*
X92700D01*
G01X103000Y-105050D02*
X102200Y-104917D01*
X101500Y-104383D01*
X100900Y-103583D01*
X100500Y-102650D01*
X100300Y-101583D01*
Y-100517D01*
X100500Y-99450D01*
X100900Y-98517D01*
X101500Y-97717D01*
X102200Y-97183D01*
X103000Y-97050D01*
X103800Y-97183D01*
X104500Y-97717D01*
X105100Y-98517D01*
X105500Y-99450D01*
X105700Y-100517D01*
Y-101583D01*
X105500Y-102650D01*
X105100Y-103583D01*
X104500Y-104383D01*
X103800Y-104917D01*
X103000Y-105050D01*
G01X111000Y-97050D02*
Y-105050D01*
G01X108700Y-97050D02*
X113300D01*
G01X119000D02*
Y-105050D01*
G01X116700Y-97050D02*
X121300D01*
G01X127000Y-105050D02*
X126200Y-104917D01*
X125500Y-104383D01*
X124900Y-103583D01*
X124500Y-102650D01*
X124300Y-101583D01*
Y-100517D01*
X124500Y-99450D01*
X124900Y-98517D01*
X125500Y-97717D01*
X126200Y-97183D01*
X127000Y-97050D01*
X127800Y-97183D01*
X128500Y-97717D01*
X129100Y-98517D01*
X129500Y-99450D01*
X129700Y-100517D01*
Y-101583D01*
X129500Y-102650D01*
X129100Y-103583D01*
X128500Y-104383D01*
X127800Y-104917D01*
X127000Y-105050D01*
G01X132400D02*
Y-97050D01*
X135000Y-103717D01*
X137600Y-97050D01*
Y-105050D01*
G01X148900Y-103984D02*
X149700Y-104650D01*
X150600Y-105050D01*
X151400D01*
X152200Y-104650D01*
X152800Y-103984D01*
X153100Y-103050D01*
X152900Y-102117D01*
X152400Y-101317D01*
X151500Y-100783D01*
X150300Y-100517D01*
X149600Y-99983D01*
X149300Y-99050D01*
X149500Y-98117D01*
X150000Y-97450D01*
X150700Y-97050D01*
X151400D01*
X152100Y-97317D01*
X152700Y-97983D01*
G01X157800Y-97050D02*
X160200D01*
G01X159000D02*
Y-105050D01*
G01X157800D02*
X160200D01*
G01X164800D02*
Y-97050D01*
X166800D01*
X167600Y-97450D01*
X168200Y-97983D01*
X168700Y-98783D01*
X169100Y-99717D01*
X169200Y-101050D01*
X169100Y-102383D01*
X168700Y-103317D01*
X168200Y-104117D01*
X167600Y-104650D01*
X166800Y-105050D01*
X164800D01*
G01X177000D02*
X173000D01*
Y-97050D01*
X177000D01*
G01X175400Y-100917D02*
X173000D01*
G01X93000Y-89550D02*
Y-81550D01*
X95400D01*
X96200Y-81950D01*
X96800Y-82883D01*
X97000Y-83950D01*
X96800Y-85017D01*
X96300Y-85817D01*
X95400Y-86217D01*
X93000D01*
G01X101000Y-89550D02*
Y-81550D01*
X103500D01*
X104300Y-81950D01*
X104800Y-82483D01*
X105000Y-83550D01*
X104800Y-84617D01*
X104200Y-85283D01*
X103500Y-85683D01*
X101000D01*
G01X103500D02*
X105000Y-89550D01*
G01X108500D02*
X111000Y-81550D01*
X113500Y-89550D01*
G01X112600Y-86750D02*
X109400D01*
G01X119000Y-89550D02*
X118200Y-89417D01*
X117500Y-88883D01*
X116900Y-88083D01*
X116500Y-87150D01*
X116300Y-86083D01*
Y-85017D01*
X116500Y-83950D01*
X116900Y-83017D01*
X117500Y-82217D01*
X118200Y-81683D01*
X119000Y-81550D01*
X119800Y-81683D01*
X120500Y-82217D01*
X121100Y-83017D01*
X121500Y-83950D01*
X121700Y-85017D01*
Y-86083D01*
X121500Y-87150D01*
X121100Y-88083D01*
X120500Y-88883D01*
X119800Y-89417D01*
X119000Y-89550D01*
G01X97200Y-67217D02*
X96600Y-66817D01*
X95900Y-66550D01*
X95100D01*
X94200Y-66950D01*
X93500Y-67617D01*
X93000Y-68417D01*
X92600Y-69750D01*
X92500Y-70950D01*
X92700Y-72150D01*
X93000Y-72950D01*
X93600Y-73750D01*
X94300Y-74283D01*
X95000Y-74550D01*
X95700D01*
X96400Y-74283D01*
X97000Y-73883D01*
X97500Y-73350D01*
G01X103000Y-74550D02*
Y-70950D01*
X101000Y-66550D01*
G01X105000D02*
X103000Y-70950D01*
G01X111000Y-74550D02*
X111700Y-74417D01*
X112500Y-74017D01*
X113000Y-73350D01*
X113200Y-72417D01*
X113000Y-71484D01*
X112400Y-70683D01*
X111500Y-70283D01*
X110500D01*
X109900Y-70017D01*
X109400Y-69350D01*
X109200Y-68417D01*
X109500Y-67483D01*
X110200Y-66817D01*
X111000Y-66550D01*
X111800Y-66817D01*
X112500Y-67483D01*
X112800Y-68417D01*
X112600Y-69350D01*
X112100Y-70017D01*
X111500Y-70283D01*
X110500D01*
X109600Y-70683D01*
X109000Y-71484D01*
X108800Y-72417D01*
X109000Y-73350D01*
X109500Y-74017D01*
X110300Y-74417D01*
X111000Y-74550D01*
G01X121200Y-67217D02*
X120600Y-66817D01*
X119900Y-66550D01*
X119100D01*
X118200Y-66950D01*
X117500Y-67617D01*
X117000Y-68417D01*
X116600Y-69750D01*
X116500Y-70950D01*
X116700Y-72150D01*
X117000Y-72950D01*
X117600Y-73750D01*
X118300Y-74283D01*
X119000Y-74550D01*
X119700D01*
X120400Y-74283D01*
X121000Y-73883D01*
X121500Y-73350D01*
G01X125000Y-74550D02*
Y-66550D01*
X127400D01*
X128200Y-66950D01*
X128800Y-67883D01*
X129000Y-68950D01*
X128800Y-70017D01*
X128300Y-70817D01*
X127400Y-71217D01*
X125000D01*
G01X133000Y-74550D02*
Y-66550D01*
X135500D01*
X136300Y-66950D01*
X136800Y-67483D01*
X137000Y-68550D01*
X136800Y-69617D01*
X136200Y-70283D01*
X135500Y-70683D01*
X133000D01*
G01X135500D02*
X137000Y-74550D01*
G01X143000D02*
X142200Y-74417D01*
X141500Y-73883D01*
X140900Y-73083D01*
X140500Y-72150D01*
X140300Y-71083D01*
Y-70017D01*
X140500Y-68950D01*
X140900Y-68017D01*
X141500Y-67217D01*
X142200Y-66683D01*
X143000Y-66550D01*
X143800Y-66683D01*
X144500Y-67217D01*
X145100Y-68017D01*
X145500Y-68950D01*
X145700Y-70017D01*
Y-71083D01*
X145500Y-72150D01*
X145100Y-73083D01*
X144500Y-73883D01*
X143800Y-74417D01*
X143000Y-74550D01*
G01X151000Y-66550D02*
Y-74550D01*
G01X148700Y-66550D02*
X153300D01*
G01X159000Y-74550D02*
X158200Y-74417D01*
X157500Y-73883D01*
X156900Y-73083D01*
X156500Y-72150D01*
X156300Y-71083D01*
Y-70017D01*
X156500Y-68950D01*
X156900Y-68017D01*
X157500Y-67217D01*
X158200Y-66683D01*
X159000Y-66550D01*
X159800Y-66683D01*
X160500Y-67217D01*
X161100Y-68017D01*
X161500Y-68950D01*
X161700Y-70017D01*
Y-71083D01*
X161500Y-72150D01*
X161100Y-73083D01*
X160500Y-73883D01*
X159800Y-74417D01*
X159000Y-74550D01*
G01X165700Y-71883D02*
X168300D01*
G01X175000Y-66550D02*
X174200Y-66817D01*
X173600Y-67483D01*
X173200Y-68283D01*
X172900Y-69350D01*
X172800Y-70550D01*
X172900Y-71750D01*
X173200Y-72817D01*
X173600Y-73617D01*
X174200Y-74283D01*
X175000Y-74550D01*
X175800Y-74283D01*
X176400Y-73617D01*
X176800Y-72817D01*
X177100Y-71750D01*
X177200Y-70550D01*
X177100Y-69350D01*
X176800Y-68283D01*
X176400Y-67483D01*
X175800Y-66817D01*
X175000Y-66550D01*
G01X181100Y-71217D02*
X181800Y-70283D01*
X182400Y-69750D01*
X183200Y-69483D01*
X183900Y-69750D01*
X184400Y-70283D01*
X184800Y-71083D01*
X184900Y-72017D01*
X184800Y-72817D01*
X184400Y-73617D01*
X183800Y-74283D01*
X183100Y-74550D01*
X182300Y-74283D01*
X181600Y-73484D01*
X181200Y-72283D01*
X181100Y-70950D01*
X181300Y-69217D01*
X181600Y-68283D01*
X182100Y-67350D01*
X182800Y-66683D01*
X183500Y-66550D01*
X184200Y-66817D01*
X184700Y-67483D01*
G01X188800Y-72950D02*
X189400Y-73883D01*
X190200Y-74417D01*
X191100Y-74550D01*
X191900Y-74417D01*
X192700Y-73750D01*
X193200Y-72950D01*
X193300Y-72150D01*
X193100Y-71217D01*
X192400Y-70550D01*
X191700Y-70283D01*
X190800D01*
G01X191700D02*
X192300Y-69883D01*
X192800Y-69217D01*
X193000Y-68417D01*
X192800Y-67617D01*
X192300Y-66950D01*
X191400Y-66550D01*
X190500Y-66683D01*
X189600Y-67217D01*
G01X197700Y-71883D02*
X200300D01*
G01X207800Y-70283D02*
X208200Y-69883D01*
X208500Y-69217D01*
X208700Y-68283D01*
X208500Y-67483D01*
X208100Y-66950D01*
X207400Y-66550D01*
X204700D01*
Y-74550D01*
X208000D01*
X208700Y-74017D01*
X209100Y-73217D01*
X209300Y-72283D01*
X209100Y-71350D01*
X208500Y-70550D01*
X207800Y-70283D01*
X204700D01*
G01X213000Y-66550D02*
Y-74550D01*
X217000D01*
G01X225000D02*
X221000D01*
Y-66550D01*
X225000D01*
G01X223400Y-70417D02*
X221000D01*
G01X237000Y-74550D02*
Y-66550D01*
X239400D01*
X240200Y-66950D01*
X240800Y-67883D01*
X241000Y-68950D01*
X240800Y-70017D01*
X240300Y-70817D01*
X239400Y-71217D01*
X237000D01*
G01X244900Y-73484D02*
X245700Y-74150D01*
X246600Y-74550D01*
X247400D01*
X248200Y-74150D01*
X248800Y-73484D01*
X249100Y-72550D01*
X248900Y-71617D01*
X248400Y-70817D01*
X247500Y-70283D01*
X246300Y-70017D01*
X245600Y-69483D01*
X245300Y-68550D01*
X245500Y-67617D01*
X246000Y-66950D01*
X246700Y-66550D01*
X247400D01*
X248100Y-66817D01*
X248700Y-67483D01*
G01X255000Y-74550D02*
X254400Y-74417D01*
X253800Y-73883D01*
X253400Y-72950D01*
X253200Y-71883D01*
X253400Y-70817D01*
X253800Y-69883D01*
X254400Y-69350D01*
X255000Y-69217D01*
X255600Y-69350D01*
X256200Y-69883D01*
X256600Y-70817D01*
X256700Y-71883D01*
X256600Y-72950D01*
X256200Y-73883D01*
X255600Y-74417D01*
X255000Y-74550D01*
G01X265200Y-67217D02*
X264600Y-66817D01*
X263900Y-66550D01*
X263100D01*
X262200Y-66950D01*
X261500Y-67617D01*
X261000Y-68417D01*
X260600Y-69750D01*
X260500Y-70950D01*
X260700Y-72150D01*
X261000Y-72950D01*
X261600Y-73750D01*
X262300Y-74283D01*
X263000Y-74550D01*
X263700D01*
X264400Y-74283D01*
X265000Y-73883D01*
X265500Y-73350D01*
G01X277100Y-71217D02*
X277800Y-70283D01*
X278400Y-69750D01*
X279200Y-69483D01*
X279900Y-69750D01*
X280400Y-70283D01*
X280800Y-71083D01*
X280900Y-72017D01*
X280800Y-72817D01*
X280400Y-73617D01*
X279800Y-74283D01*
X279100Y-74550D01*
X278300Y-74283D01*
X277600Y-73484D01*
X277200Y-72283D01*
X277100Y-70950D01*
X277300Y-69217D01*
X277600Y-68283D01*
X278100Y-67350D01*
X278800Y-66683D01*
X279500Y-66550D01*
X280200Y-66817D01*
X280700Y-67483D01*
G01X295800Y-70283D02*
X296200Y-69883D01*
X296500Y-69217D01*
X296700Y-68283D01*
X296500Y-67483D01*
X296100Y-66950D01*
X295400Y-66550D01*
X292700D01*
Y-74550D01*
X296000D01*
X296700Y-74017D01*
X297100Y-73217D01*
X297300Y-72283D01*
X297100Y-71350D01*
X296500Y-70550D01*
X295800Y-70283D01*
X292700D01*
G01X301000Y-66550D02*
Y-74550D01*
X305000D01*
G01X313000D02*
X309000D01*
Y-66550D01*
X313000D01*
G01X311400Y-70417D02*
X309000D01*
G01X325000Y-74550D02*
Y-66550D01*
X327400D01*
X328200Y-66950D01*
X328800Y-67883D01*
X329000Y-68950D01*
X328800Y-70017D01*
X328300Y-70817D01*
X327400Y-71217D01*
X325000D01*
G01X333000Y-74550D02*
Y-66550D01*
X335500D01*
X336300Y-66950D01*
X336800Y-67483D01*
X337000Y-68550D01*
X336800Y-69617D01*
X336200Y-70283D01*
X335500Y-70683D01*
X333000D01*
G01X335500D02*
X337000Y-74550D01*
G01X343000D02*
X342200Y-74417D01*
X341500Y-73883D01*
X340900Y-73083D01*
X340500Y-72150D01*
X340300Y-71083D01*
Y-70017D01*
X340500Y-68950D01*
X340900Y-68017D01*
X341500Y-67217D01*
X342200Y-66683D01*
X343000Y-66550D01*
X343800Y-66683D01*
X344500Y-67217D01*
X345100Y-68017D01*
X345500Y-68950D01*
X345700Y-70017D01*
Y-71083D01*
X345500Y-72150D01*
X345100Y-73083D01*
X344500Y-73883D01*
X343800Y-74417D01*
X343000Y-74550D01*
G01X351000Y-66550D02*
Y-74550D01*
G01X348700Y-66550D02*
X353300D01*
G01X359000D02*
X358200Y-66817D01*
X357600Y-67483D01*
X357200Y-68283D01*
X356900Y-69350D01*
X356800Y-70550D01*
X356900Y-71750D01*
X357200Y-72817D01*
X357600Y-73617D01*
X358200Y-74283D01*
X359000Y-74550D01*
X359800Y-74283D01*
X360400Y-73617D01*
X360800Y-72817D01*
X361100Y-71750D01*
X361200Y-70550D01*
X361100Y-69350D01*
X360800Y-68283D01*
X360400Y-67483D01*
X359800Y-66817D01*
X359000Y-66550D01*
G01X372800Y-74550D02*
Y-66550D01*
G01X376600D02*
X372800Y-71484D01*
G01X377200Y-74550D02*
X374500Y-69217D01*
G01X381800Y-66550D02*
X384200D01*
G01X383000D02*
Y-74550D01*
G01X381800D02*
X384200D01*
G01X391000Y-66550D02*
Y-74550D01*
G01X388700Y-66550D02*
X393300D01*
G01X276000Y-111550D02*
X275200Y-111817D01*
X274600Y-112483D01*
X274200Y-113283D01*
X273900Y-114350D01*
X273800Y-115550D01*
X273900Y-116750D01*
X274200Y-117817D01*
X274600Y-118617D01*
X275200Y-119283D01*
X276000Y-119550D01*
X276800Y-119283D01*
X277400Y-118617D01*
X277800Y-117817D01*
X278100Y-116750D01*
X278200Y-115550D01*
X278100Y-114350D01*
X277800Y-113283D01*
X277400Y-112483D01*
X276800Y-111817D01*
X276000Y-111550D01*
G01X281800Y-117950D02*
X282400Y-118883D01*
X283200Y-119417D01*
X284100Y-119550D01*
X284900Y-119417D01*
X285700Y-118750D01*
X286200Y-117950D01*
X286300Y-117150D01*
X286100Y-116217D01*
X285400Y-115550D01*
X284700Y-115283D01*
X283800D01*
G01X284700D02*
X285300Y-114883D01*
X285800Y-114217D01*
X286000Y-113417D01*
X285800Y-112617D01*
X285300Y-111950D01*
X284400Y-111550D01*
X283500Y-111683D01*
X282600Y-112217D01*
G01X318000Y-111550D02*
X317200Y-111817D01*
X316600Y-112483D01*
X316200Y-113283D01*
X315900Y-114350D01*
X315800Y-115550D01*
X315900Y-116750D01*
X316200Y-117817D01*
X316600Y-118617D01*
X317200Y-119283D01*
X318000Y-119550D01*
X318800Y-119283D01*
X319400Y-118617D01*
X319800Y-117817D01*
X320100Y-116750D01*
X320200Y-115550D01*
X320100Y-114350D01*
X319800Y-113283D01*
X319400Y-112483D01*
X318800Y-111817D01*
X318000Y-111550D01*
G01X324300Y-118617D02*
X325000Y-119283D01*
X325800Y-119550D01*
X326600Y-119283D01*
X327300Y-118484D01*
X327800Y-117283D01*
X328000Y-116083D01*
Y-114617D01*
X327800Y-113417D01*
X327300Y-112350D01*
X326700Y-111817D01*
X326000Y-111550D01*
X325200Y-111817D01*
X324600Y-112350D01*
X324200Y-113150D01*
X324000Y-114217D01*
X324200Y-115150D01*
X324700Y-116083D01*
X325300Y-116617D01*
X326000Y-116750D01*
X326800Y-116484D01*
X327400Y-115817D01*
X328000Y-114617D01*
G01X332200Y-119817D02*
X335800Y-111550D01*
G01X342000Y-119550D02*
Y-111550D01*
X340800Y-113150D01*
G01Y-119550D02*
X343200D01*
G01X350000D02*
X350700Y-119417D01*
X351500Y-119017D01*
X352000Y-118350D01*
X352200Y-117417D01*
X352000Y-116484D01*
X351400Y-115683D01*
X350500Y-115283D01*
X349500D01*
X348900Y-115017D01*
X348400Y-114350D01*
X348200Y-113417D01*
X348500Y-112483D01*
X349200Y-111817D01*
X350000Y-111550D01*
X350800Y-111817D01*
X351500Y-112483D01*
X351800Y-113417D01*
X351600Y-114350D01*
X351100Y-115017D01*
X350500Y-115283D01*
X349500D01*
X348600Y-115683D01*
X348000Y-116484D01*
X347800Y-117417D01*
X348000Y-118350D01*
X348500Y-119017D01*
X349300Y-119417D01*
X350000Y-119550D01*
G01X356200Y-119817D02*
X359800Y-111550D01*
G01X366000Y-119550D02*
Y-111550D01*
X364800Y-113150D01*
G01Y-119550D02*
X367200D01*
G01X374000D02*
X374700Y-119417D01*
X375500Y-119017D01*
X376000Y-118350D01*
X376200Y-117417D01*
X376000Y-116484D01*
X375400Y-115683D01*
X374500Y-115283D01*
X373500D01*
X372900Y-115017D01*
X372400Y-114350D01*
X372200Y-113417D01*
X372500Y-112483D01*
X373200Y-111817D01*
X374000Y-111550D01*
X374800Y-111817D01*
X375500Y-112483D01*
X375800Y-113417D01*
X375600Y-114350D01*
X375100Y-115017D01*
X374500Y-115283D01*
X373500D01*
X372600Y-115683D01*
X372000Y-116484D01*
X371800Y-117417D01*
X372000Y-118350D01*
X372500Y-119017D01*
X373300Y-119417D01*
X374000Y-119550D01*
G54D36*
X330000Y-5000D03*
Y85000D03*
G54D18*
X0Y-5000D03*
Y85000D03*
X10000Y-5000D03*
Y85000D03*
X20000Y-5000D03*
X30000D03*
X20000Y85000D03*
X30000D03*
X40000Y-5000D03*
Y85000D03*
X50000Y-5000D03*
Y85000D03*
G54D27*
X101200Y3400D03*
Y-1600D03*
Y75900D03*
Y80900D03*
G54D19*
X-1500Y59810D03*
Y63590D03*
X21700Y56790D03*
Y53010D03*
X32000Y23810D03*
Y27590D03*
X68800Y79260D03*
Y83040D03*
G54D37*
X322054Y10600D03*
X328746D03*
G54D28*
X101200Y24000D03*
Y34800D03*
Y55400D03*
Y44900D03*
G54D38*
G01X-17524Y62700D02*
Y59376D01*
X-18200Y58700D01*
G01X-1500Y59810D02*
X-190D01*
X1600Y61600D01*
Y63999D01*
X2644Y65043D01*
X6000D01*
G01X-1500Y59810D02*
X-3350D01*
X-4200Y58960D01*
X-8076D01*
G01X14600Y59000D02*
X10199D01*
X9156Y57957D01*
X6000D01*
G01X14600Y59000D02*
X16600D01*
X18810Y56790D01*
X21700D01*
G01X6000Y65043D02*
X9357D01*
X10500Y63900D01*
G01D02*
X13600Y67000D01*
X43550D01*
X47550Y71000D01*
X51100D01*
G01X57500Y68000D02*
Y64000D01*
X60315Y61185D01*
X71385D01*
X72800Y62600D01*
Y64400D01*
G01X64800Y73500D02*
X53600D01*
X51100Y71000D01*
G01X75500Y19050D02*
X90050D01*
X91000Y20000D01*
G01X72800Y64400D02*
Y79400D01*
X74996Y81596D01*
X76600D01*
G01X76800Y63748D02*
X76148Y64400D01*
X72800D01*
G01X68800Y73496D02*
X64804D01*
X64800Y73500D01*
G01X82900Y81793D02*
X82703Y81596D01*
X76600D01*
G01X68800Y79260D02*
X65160D01*
X64800Y78900D01*
G01X68800Y83040D02*
Y86100D01*
G01X91000Y20000D02*
X92650Y18350D01*
X109350D01*
X111000Y20000D01*
G01X91000Y30000D02*
X91600Y29400D01*
X110400D01*
X111000Y30000D01*
G01X88474Y80850D02*
X83843D01*
X82900Y81793D01*
G01X88474Y80850D02*
Y85500D01*
G01X82900Y81793D02*
X82600Y82093D01*
Y85600D01*
G01X125000Y65400D02*
X131000Y59400D01*
Y30600D01*
X136000Y25600D01*
X139800D01*
G01X204700Y20166D02*
X207666Y17200D01*
X262700D01*
X263700Y18200D01*
X282800D01*
X305900Y41300D01*
X321200D01*
X323300Y39200D01*
X326200D01*
G01X322054Y10600D02*
Y6354D01*
X321500Y5800D01*
G01X322054Y10600D02*
Y16705D01*
X327800Y22451D01*
Y37600D01*
G01X330000Y85000D02*
Y80800D01*
X327100Y77900D01*
Y69750D01*
X324400Y67050D01*
Y47200D01*
X327800Y43800D01*
Y40800D01*
G01Y39200D02*
X326200D01*
G01D02*
X327800Y40800D01*
G01X326200Y39200D02*
X327800Y37600D01*
G01Y40800D02*
Y39200D01*
G01Y37600D02*
Y39200D01*
G54D29*
X130000Y-5000D03*
X140000D03*
X130000Y85000D03*
X140000D03*
X150000Y-5000D03*
X160000D03*
X150000Y85000D03*
X160000D03*
X170000Y-5000D03*
Y85000D03*
X180000Y-5000D03*
X190000D03*
X180000Y85000D03*
X190000D03*
X200000Y-5000D03*
Y85000D03*
X210000Y-5000D03*
X220000D03*
X210000Y85000D03*
X220000D03*
X230000Y-5000D03*
Y85000D03*
X240000Y-5000D03*
X250000D03*
X240000Y85000D03*
X250000D03*
X260000Y-5000D03*
X270000D03*
X260000Y85000D03*
X270000D03*
X280000Y-5000D03*
Y85000D03*
X290000Y-5000D03*
X300000D03*
X290000Y85000D03*
X300000D03*
X310000Y-5000D03*
Y85000D03*
X320000Y-5000D03*
Y85000D03*
G54D39*
G01X-27126Y37000D02*
Y33280D01*
X-23658Y29812D01*
G01X-22874Y34670D02*
Y37000D01*
G01D02*
Y39330D01*
G01Y37000D02*
X-20682D01*
G01X-23110Y39670D02*
Y42000D01*
G01X6000Y57957D02*
X2457D01*
X-198Y55302D01*
X-13831D01*
X-13849Y55300D01*
X-20800D01*
X-23100Y57600D01*
Y75200D01*
X-18100Y80200D01*
X35200D01*
X36000Y79400D01*
G01X-26890Y42000D02*
Y46265D01*
X-23658Y49497D01*
G01X-23110Y42000D02*
Y44330D01*
G01Y42000D02*
X-20899D01*
G01X-8076Y63953D02*
Y66440D01*
G01D02*
Y68927D01*
G01X-10957Y66440D02*
X-8076D01*
G01D02*
X-5195D01*
G01X-1500Y63590D02*
Y65801D01*
G01X-3830Y63590D02*
X-1500D01*
G01X-5900Y74000D02*
X15500D01*
G01X14610Y21900D02*
X9100D01*
X9000Y22000D01*
G01D02*
X6700D01*
X3700Y25000D01*
Y38800D01*
X6300Y41400D01*
Y42700D01*
G01X14374Y32300D02*
X9800D01*
X7500Y30000D01*
G01X13110Y38600D02*
X8850D01*
X8000Y37750D01*
G01D02*
X10450Y35300D01*
X48150D01*
X48500Y35650D01*
G01X13010Y53800D02*
Y57410D01*
X14600Y59000D01*
G01X13110Y43600D02*
X7200D01*
X6300Y42700D01*
G01X13010Y48700D02*
Y43700D01*
X13110Y43600D01*
G01X13010Y53800D02*
Y48700D01*
G01Y53800D02*
X7501D01*
X6000Y55301D01*
Y57957D01*
G01X29700Y20000D02*
Y21510D01*
X32000Y23810D01*
G01X14610Y27200D02*
Y21900D01*
G01X18390Y24870D02*
Y27200D01*
G01Y19570D02*
Y21900D01*
G01D02*
Y24230D01*
G01Y21900D02*
X20601D01*
G01X29670Y27590D02*
X32000D01*
G01X16890Y41270D02*
Y43600D01*
G01X18626Y29970D02*
Y32300D01*
G01D02*
X20818D01*
G01X18390Y27200D02*
Y29530D01*
G01Y27200D02*
X20601D01*
G01X16890Y38600D02*
Y40930D01*
G01Y38600D02*
X19101D01*
G01X21700Y56790D02*
X24210D01*
X25950Y55050D01*
X44500D01*
G01X16790Y51470D02*
Y53800D01*
G01D02*
X19001D01*
G01X16890Y43600D02*
Y45930D01*
G01Y43600D02*
X19101D01*
G01X16790Y46370D02*
Y48700D01*
G01D02*
Y51030D01*
G01Y48700D02*
X19001D01*
G01X21700Y50799D02*
Y53010D01*
G01X19370D02*
X21700D01*
G01D02*
X24030D01*
G01X16174Y73174D02*
X17000Y74000D01*
G01X16174Y73174D02*
Y70100D01*
G01X17000Y74000D02*
X33300D01*
G01X16174Y73174D02*
Y73326D01*
X15500Y74000D01*
G01D02*
X17000D01*
G01X44590Y27600D02*
Y25090D01*
X43310Y23810D01*
X32000D01*
G01X49950Y26550D02*
X48900Y27600D01*
X44590D01*
G01Y51200D02*
Y39410D01*
X44600Y39400D01*
G01D02*
X48700D01*
G01X40820D02*
Y41730D01*
G01X38609Y39400D02*
X40820D01*
G01X32000Y27590D02*
Y29801D01*
G01Y27590D02*
X34330D01*
G01X40810Y27600D02*
Y29930D01*
G01X38599Y27600D02*
X40810D01*
G01X44590Y51200D02*
Y54960D01*
X44500Y55050D01*
G01X40810Y51200D02*
X38200D01*
G01D02*
X37000Y50000D01*
G01X40810Y48870D02*
Y51200D01*
G01X33226Y70100D02*
Y73926D01*
X33300Y74000D01*
G01X55899Y-9101D02*
X60000Y-5000D01*
G01D02*
X64101Y-9101D01*
G01X60000Y-5000D02*
X64101Y-899D01*
G01X55899D02*
X60000Y-5000D01*
G01X46900Y81900D02*
X50000Y85000D01*
G01D02*
X53100Y81900D01*
G01X68800Y66804D02*
X65154D01*
G01D02*
X64500Y66150D01*
G01X76600Y71826D02*
Y74904D01*
G01X68800Y63726D02*
Y66804D01*
G01D02*
Y69882D01*
G01X66470Y83040D02*
X68800D01*
G01D02*
X71130D01*
G01X76600Y74904D02*
Y77982D01*
G01X87680Y26680D02*
X91000Y30000D01*
G01D02*
X94320Y33320D01*
G01X87680D02*
X91000Y30000D01*
G01X107000Y26500D02*
X110500Y30000D01*
X111000D01*
G01X107680Y33320D02*
X111000Y30000D01*
G01D02*
X114320Y26680D01*
G01X127067Y-7933D02*
X130000Y-5000D01*
G01D02*
X132933Y-7933D01*
G01X127067Y-2067D02*
X130000Y-5000D01*
G01X138400Y50500D02*
X146400Y58500D01*
X178542D01*
X180043Y56999D01*
Y54000D01*
G01X127067Y82067D02*
X130000Y85000D01*
G01D02*
X132933Y87933D01*
G01X127067D02*
X130000Y85000D01*
G01D02*
X132933Y82067D01*
G01X234200Y40200D02*
X232800Y38800D01*
X197837D01*
X195737Y40900D01*
X187043D01*
G01X234200Y40200D02*
X241400D01*
X243150Y41950D01*
Y48207D01*
G01X233515Y54750D02*
X236593D01*
G01X243150Y48207D02*
X243107Y48250D01*
X236643D01*
G01X249650Y45129D02*
Y48207D01*
G01D02*
Y51285D01*
G01Y48207D02*
X252728D01*
G01X236593Y54750D02*
Y57828D01*
G01X256300Y26950D02*
X257964Y28614D01*
X279064D01*
X302950Y52500D01*
X313550D01*
G01X282000Y36833D02*
Y40600D01*
G01D02*
Y44367D01*
G01X278824Y40600D02*
X282000D01*
G01D02*
X285176D01*
G01X282000Y44733D02*
Y48500D01*
G01D02*
Y52267D01*
G01X278824Y48500D02*
X282000D01*
G01D02*
X285176D01*
G01X282500Y53824D02*
Y57000D01*
G01D02*
Y60176D01*
G01X278733Y57000D02*
X282500D01*
G01X296941Y55891D02*
Y58181D01*
G01X289500Y52922D02*
Y56000D01*
G01D02*
Y59078D01*
G01Y56000D02*
X292479D01*
G01X301500Y18000D02*
X308000Y11500D01*
Y1900D01*
X310000Y-100D01*
Y-5000D01*
G01X308910Y32120D02*
Y34450D01*
G01D02*
Y36780D01*
G01X306699Y34450D02*
X308910D01*
G01X302059Y62119D02*
Y64409D01*
G01Y62119D02*
X304546D01*
G01X309500Y61422D02*
Y64500D01*
G01D02*
Y67578D01*
G01X306521Y64500D02*
X309500D01*
G01D02*
X312479D01*
G01X317067Y-7933D02*
X320000Y-5000D01*
G01D02*
X322933Y-7933D01*
G01X328746Y7621D02*
Y10600D01*
G01X320000Y-5000D02*
X322933Y-2067D01*
G01X317067D02*
X320000Y-5000D01*
G01X328746Y10600D02*
Y13579D01*
G01X325668Y10600D02*
X328746D01*
G01X321190Y34450D02*
Y36780D01*
G01Y34450D02*
X323401D01*
G01X320000Y85000D02*
X322933Y87933D01*
G01X317067D02*
X320000Y85000D01*
G01D02*
X322933Y82067D01*
M02*
