G04 ================== begin FILE IDENTIFICATION RECORD ==================*
G04 Layout Name:  N:/PCB_HOME/60527-01_03-CYSTAMP-063/Artwork/600-60527-01_03.brd*
G04 Film Name:    TOP*
G04 File Format:  Gerber RS274X*
G04 File Origin:  Cadence Allegro 16.6-2015-S108*
G04 Origin Date:  Mon Oct 08 10:45:40 2018*
G04 *
G04 Layer:  DRAWING FORMAT/FAB_FILM*
G04 Layer:  PACKAGE GEOMETRY/PLATING_BAR_TOP*
G04 Layer:  PACKAGE GEOMETRY/SHORT_TOP*
G04 Layer:  ETCH/TOP*
G04 Layer:  PIN/TOP*
G04 Layer:  VIA CLASS/TOP*
G04 Layer:  BOARD GEOMETRY/OUTLINE*
G04 *
G04 Offset:    (0.00 0.00)*
G04 Mirror:    No*
G04 Mode:      Positive*
G04 Rotation:  0*
G04 FullContactRelief:  No*
G04 UndefLineWidth:     5.00*
G04 ================== end FILE IDENTIFICATION RECORD ====================*
%FSLAX25Y25*MOIN*%
%IR0*IPPOS*OFA0.00000B0.00000*MIA0B0*SFA1.00000B1.00000*%
%ADD36O,.03X.24*%
%ADD35C,.07*%
%AMMACRO15*
4,1,24,-.03051,-.03238,
-.03051,.01269,
-.030212,.016108,
-.029325,.019423,
-.027876,.022533,
-.025908,.025344,
-.023483,.027771,
-.020672,.02974,
-.017563,.031191,
-.014249,.03208,
-.010831,.03238,
-.01083,.03238,
.01083,.03238,
.014248,.03208,
.017562,.031191,
.020672,.029741,
.023482,.027772,
.025908,.025345,
.027875,.022534,
.029324,.019424,
.030212,.016109,
.03051,.012691,
.03051,.01269,
.03051,-.03238,
-.03051,-.03238,
0.0*
%
%ADD15MACRO15*%
%ADD34R,.07X.07*%
%ADD19R,.0315X.0315*%
%ADD11C,.01772*%
%ADD42R,.04331X.04331*%
%ADD38C,.05906*%
%ADD13C,.06772*%
%ADD10C,.03937*%
%ADD25O,.00787X.0374*%
%ADD18C,.06378*%
%ADD24O,.0374X.00787*%
%ADD40C,.06299*%
%ADD47R,.05906X.05906*%
%ADD29R,.06378X.06378*%
%ADD39R,.06299X.06299*%
%ADD37O,.03X.06*%
%ADD45R,.05X.024*%
%ADD46R,.024X.05*%
%ADD22R,.01181X.0315*%
%ADD30R,.0315X.01181*%
%AMMACRO12*
4,1,24,.03051,.03238,
.03051,-.01269,
.030212,-.016108,
.029325,-.019423,
.027876,-.022533,
.025908,-.025344,
.023483,-.027771,
.020672,-.02974,
.017563,-.031191,
.014249,-.03208,
.010831,-.03238,
.01083,-.03238,
-.01083,-.03238,
-.014248,-.03208,
-.017562,-.031191,
-.020672,-.029741,
-.023482,-.027772,
-.025908,-.025345,
-.027875,-.022534,
-.029324,-.019424,
-.030212,-.016109,
-.03051,-.012691,
-.03051,-.01269,
-.03051,.03238,
.03051,.03238,
0.0*
%
%ADD12MACRO12*%
%ADD43R,.04134X.04331*%
%ADD41R,.04331X.04134*%
%ADD17O,.0374X.04921*%
%ADD14R,.06102X.05906*%
%ADD33R,.02165X.03543*%
%ADD16R,.05315X.01575*%
%ADD31R,.04134X.02559*%
%ADD26R,.22835X.22835*%
%ADD32R,.05118X.02559*%
%ADD23R,.06299X.01181*%
%ADD27R,.02835X.02559*%
%ADD21R,.02559X.02835*%
%ADD28R,.02835X.02598*%
%ADD44R,.03937X.02756*%
%ADD20R,.02598X.02835*%
%ADD48C,.01*%
%ADD49C,.011*%
%ADD50C,.02*%
%ADD51C,.012*%
%ADD52C,.015*%
%ADD53C,.025*%
%ADD54C,.005*%
%ADD55C,.00501*%
%ADD56C,.006*%
%ADD57C,.007*%
%ADD58C,.008*%
%ADD65C,.0713*%
%ADD66C,.0733*%
%ADD61C,.07602*%
%ADD64C,.08224*%
%ADD59C,.10398*%
%ADD62R,.078X.078*%
%ADD60R,.04574X.04572*%
%ADD63R,.05558X.03982*%
G75*
%LPD*%
G75*
G36*
G01X-44731Y-94258D02*
X-44619D01*
X-44495Y-94242D01*
X-44383Y-94226D01*
X-44271D01*
X-44147Y-94210D01*
X-43927Y-94178D01*
X-43799Y-94162D01*
X-43359Y-94102D01*
X-43235Y-94086D01*
X-43123Y-94070D01*
X-43011Y-94038D01*
X-42903Y-94022D01*
X-42791Y-93990D01*
X-42683Y-93974D01*
X-42571Y-93942D01*
X-42463Y-93926D01*
X-42131Y-93834D01*
X-42019Y-93818D01*
X-41579Y-93690D01*
X-41471Y-93642D01*
X-41251Y-93582D01*
X-41155Y-93550D01*
X-41043Y-93502D01*
X-40823Y-93438D01*
X-40731Y-93390D01*
X-40619Y-93362D01*
X-40523Y-93314D01*
X-40415Y-93266D01*
X-40303Y-93234D01*
X-40211Y-93186D01*
X-40099Y-93138D01*
X-40003Y-93094D01*
X-39895Y-93046D01*
X-39799Y-92998D01*
X-39691Y-92950D01*
X-39503Y-92858D01*
X-39391Y-92810D01*
X-39203Y-92714D01*
X-39107Y-92650D01*
X-38999Y-92606D01*
X-38903Y-92558D01*
X-38807Y-92494D01*
X-38715Y-92446D01*
X-38619Y-92382D01*
X-38523Y-92338D01*
X-38335Y-92210D01*
X-38243Y-92162D01*
X-37863Y-91910D01*
X-37767Y-91866D01*
X-37691Y-91802D01*
X-37595Y-91738D01*
X-37503Y-91658D01*
X-37407Y-91598D01*
X-37327Y-91534D01*
X-37235Y-91470D01*
X-37155Y-91406D01*
X-37059Y-91330D01*
X-36983Y-91266D01*
X-36887Y-91202D01*
X-36807Y-91122D01*
X-36715Y-91062D01*
X-36635Y-90982D01*
X-36555Y-90918D01*
X-36463Y-90842D01*
X-36383Y-90778D01*
X-36227Y-90622D01*
X-36131Y-90558D01*
X-35579Y-90006D01*
X-55767D01*
X-55219Y-90558D01*
X-55139Y-90622D01*
X-55059Y-90698D01*
X-54967Y-90778D01*
X-54887Y-90842D01*
X-54807Y-90918D01*
X-54715Y-90982D01*
X-54635Y-91062D01*
X-54555Y-91122D01*
X-54463Y-91202D01*
X-54383Y-91266D01*
X-54287Y-91330D01*
X-54211Y-91406D01*
X-54115Y-91470D01*
X-54035Y-91534D01*
X-53847Y-91658D01*
X-53767Y-91738D01*
X-53579Y-91866D01*
X-53487Y-91910D01*
X-53295Y-92038D01*
X-53219Y-92102D01*
X-53123Y-92162D01*
X-53027Y-92210D01*
X-52839Y-92338D01*
X-52747Y-92382D01*
X-52635Y-92446D01*
X-52539Y-92494D01*
X-52447Y-92558D01*
X-52255Y-92650D01*
X-52163Y-92714D01*
X-52051Y-92762D01*
X-51863Y-92858D01*
X-51755Y-92902D01*
X-51659Y-92950D01*
X-51547Y-92998D01*
X-51359Y-93094D01*
X-51251Y-93138D01*
X-51155Y-93186D01*
X-51043Y-93234D01*
X-50935Y-93266D01*
X-50839Y-93314D01*
X-50731Y-93362D01*
X-50635Y-93390D01*
X-50523Y-93438D01*
X-50303Y-93502D01*
X-50211Y-93550D01*
X-49879Y-93642D01*
X-49767Y-93690D01*
X-49675Y-93722D01*
X-49343Y-93818D01*
X-49235Y-93834D01*
X-48903Y-93926D01*
X-48791Y-93942D01*
X-48683Y-93974D01*
X-48571Y-93990D01*
X-48463Y-94022D01*
X-48335Y-94038D01*
X-48227Y-94070D01*
X-47895Y-94118D01*
X-47767Y-94130D01*
X-47439Y-94178D01*
X-47311Y-94194D01*
X-47091Y-94226D01*
X-46967D01*
X-46855Y-94242D01*
X-46731Y-94258D01*
X-46619D01*
X-46507Y-94274D01*
X-46271D01*
X-46147Y-94290D01*
X-45203D01*
X-45091Y-94274D01*
X-44855D01*
X-44731Y-94258D01*
G37*
G36*
G01X-59691Y-81078D02*
Y-81282D01*
X-59675Y-81374D01*
Y-81470D01*
X-59659Y-81582D01*
X-59643Y-81674D01*
Y-81786D01*
X-59611Y-81974D01*
X-59595Y-82086D01*
Y-82178D01*
X-59579Y-82274D01*
X-59563Y-82382D01*
X-59515Y-82666D01*
X-59503Y-82778D01*
X-59471Y-82870D01*
X-59439Y-83062D01*
X-59423Y-83170D01*
X-59391Y-83266D01*
X-59359Y-83454D01*
X-59327Y-83550D01*
X-59311Y-83642D01*
X-59279Y-83738D01*
X-59263Y-83834D01*
X-59203Y-84022D01*
X-59187Y-84118D01*
X-58871Y-85062D01*
X-58839Y-85138D01*
X-58775Y-85330D01*
X-58731Y-85422D01*
X-58699Y-85518D01*
X-58667Y-85598D01*
X-58619Y-85690D01*
X-58587Y-85786D01*
X-58555Y-85866D01*
X-58507Y-85958D01*
X-58479Y-86054D01*
X-58431Y-86130D01*
X-58383Y-86226D01*
X-58351Y-86306D01*
X-58303Y-86398D01*
X-58255Y-86478D01*
X-58227Y-86574D01*
X-58179Y-86650D01*
X-58131Y-86746D01*
X-58083Y-86826D01*
X-58035Y-86918D01*
X-57943Y-87078D01*
X-57895Y-87170D01*
X-57799Y-87330D01*
X-57755Y-87422D01*
X-57611Y-87658D01*
X-57547Y-87738D01*
X-57503Y-87834D01*
X-57455Y-87910D01*
X-57391Y-87990D01*
X-57295Y-88146D01*
X-57235Y-88226D01*
X-57187Y-88306D01*
X-57123Y-88382D01*
X-57075Y-88462D01*
X-56951Y-88622D01*
X-56903Y-88698D01*
X-56839Y-88762D01*
X-56715Y-88918D01*
X-56667Y-88998D01*
X-56603Y-89078D01*
X-56539Y-89138D01*
X-56415Y-89298D01*
X-50351D01*
Y-88574D01*
X-48083D01*
Y-87850D01*
X-46807D01*
Y-87834D01*
X-46791D01*
Y-87818D01*
X-46747Y-87770D01*
X-46731Y-87738D01*
X-46715Y-87722D01*
X-46699Y-87690D01*
X-46667Y-87658D01*
X-46651Y-87626D01*
X-46619Y-87598D01*
X-46603Y-87566D01*
X-46571Y-87534D01*
X-46539Y-87486D01*
X-46507Y-87454D01*
X-46351Y-87218D01*
X-46303Y-87170D01*
X-46271Y-87122D01*
X-46227Y-87062D01*
X-46195Y-87014D01*
X-46147Y-86950D01*
X-46099Y-86902D01*
X-46067Y-86842D01*
X-45643Y-86274D01*
X-45595Y-86194D01*
X-45547Y-86130D01*
X-45487Y-86070D01*
X-45439Y-85990D01*
X-45343Y-85866D01*
X-45279Y-85786D01*
X-45235Y-85722D01*
X-45187Y-85642D01*
X-45123Y-85582D01*
X-45075Y-85502D01*
X-45027Y-85438D01*
X-44983Y-85362D01*
X-44919Y-85298D01*
X-44871Y-85234D01*
X-44823Y-85154D01*
X-44759Y-85094D01*
X-44715Y-85014D01*
X-44619Y-84886D01*
X-44571Y-84810D01*
X-44507Y-84746D01*
X-44415Y-84622D01*
X-44367Y-84542D01*
X-44179Y-84290D01*
X-44147Y-84242D01*
X-44003Y-84054D01*
X-43975Y-84006D01*
X-43927Y-83942D01*
X-43895Y-83894D01*
X-43847Y-83850D01*
X-43815Y-83802D01*
X-43783Y-83738D01*
X-43739Y-83690D01*
X-43707Y-83642D01*
X-43675Y-83614D01*
X-43611Y-83518D01*
X-43579Y-83486D01*
X-43563Y-83454D01*
X-43531Y-83406D01*
X-43503Y-83374D01*
X-43487Y-83346D01*
X-43439Y-83298D01*
X-43423Y-83266D01*
X-43391Y-83234D01*
Y-83218D01*
X-43359Y-83186D01*
Y-83170D01*
X-43343D01*
Y-83154D01*
X-43359D01*
Y-83138D01*
X-43375D01*
Y-83122D01*
X-43391D01*
Y-83110D01*
X-43503Y-82998D01*
X-43515Y-82966D01*
X-43531Y-82950D01*
X-43547Y-82918D01*
X-43579Y-82902D01*
X-43595Y-82870D01*
X-43627Y-82858D01*
X-43659Y-82794D01*
X-43691Y-82778D01*
X-43723Y-82746D01*
X-43739Y-82714D01*
X-43799Y-82650D01*
X-43815Y-82622D01*
X-43975Y-82462D01*
X-43991Y-82414D01*
X-44083Y-82322D01*
X-44115Y-82274D01*
X-44179Y-82210D01*
X-44211Y-82162D01*
X-44383Y-81990D01*
X-44415Y-81942D01*
X-44447Y-81910D01*
X-44479Y-81866D01*
X-44539Y-81802D01*
X-44571Y-81754D01*
X-44603Y-81722D01*
X-44635Y-81674D01*
X-44699Y-81614D01*
X-44731Y-81566D01*
X-44775Y-81534D01*
X-44807Y-81502D01*
X-44823Y-81470D01*
X-44855Y-81422D01*
X-44983Y-81298D01*
X-45011Y-81250D01*
X-45043Y-81218D01*
X-45059Y-81186D01*
X-45123Y-81122D01*
X-45155Y-81110D01*
X-45171Y-81078D01*
X-45203Y-81046D01*
X-45219Y-81014D01*
X-45311Y-80918D01*
X-45327Y-80886D01*
X-45359Y-80870D01*
X-45375Y-80842D01*
X-45407Y-80810D01*
X-45423Y-80778D01*
X-45531Y-80666D01*
Y-80650D01*
X-47595D01*
Y-79926D01*
X-45723D01*
Y-79202D01*
X-48759D01*
Y-79926D01*
X-53187D01*
Y-79202D01*
X-54195D01*
Y-78494D01*
X-56699D01*
Y-77770D01*
X-59503D01*
Y-77818D01*
X-59515Y-77850D01*
Y-77910D01*
X-59531Y-77942D01*
Y-78006D01*
X-59547Y-78038D01*
Y-78118D01*
X-59563Y-78130D01*
Y-78210D01*
X-59579Y-78226D01*
Y-78338D01*
X-59595Y-78354D01*
Y-78446D01*
X-59611Y-78478D01*
Y-78574D01*
X-59627Y-78606D01*
Y-78698D01*
X-59643Y-78714D01*
Y-78842D01*
X-59659Y-78870D01*
Y-79014D01*
X-59675Y-79046D01*
Y-79218D01*
X-59691Y-79250D01*
Y-79470D01*
X-59707Y-79486D01*
Y-79818D01*
X-59723Y-79850D01*
Y-80666D01*
X-59707Y-80762D01*
Y-80966D01*
X-59691Y-81078D01*
G37*
G36*
G01X-59107Y-76146D02*
X-59155Y-76338D01*
X-57439D01*
Y-75614D01*
X-53943D01*
Y-74886D01*
X-55831D01*
Y-74162D01*
X-52651D01*
Y-73454D01*
X-50983D01*
X-50967Y-73438D01*
Y-72730D01*
X-46619D01*
Y-73454D01*
X-42507D01*
Y-74162D01*
X-43263D01*
Y-74886D01*
X-34319D01*
Y-75614D01*
X-32431D01*
X-32479Y-75438D01*
X-32667Y-74966D01*
X-32731Y-74794D01*
X-32807Y-74634D01*
X-32871Y-74478D01*
X-32951Y-74322D01*
X-33011Y-74162D01*
X-33091Y-74022D01*
X-33251Y-73706D01*
X-33327Y-73566D01*
X-33423Y-73406D01*
X-33503Y-73266D01*
X-33579Y-73110D01*
X-33767Y-72826D01*
X-33863Y-72666D01*
X-33943Y-72526D01*
X-34035Y-72382D01*
X-34147Y-72242D01*
X-34243Y-72102D01*
X-34335Y-71974D01*
X-34447Y-71834D01*
X-34539Y-71690D01*
X-34651Y-71566D01*
X-34759Y-71422D01*
X-34871Y-71298D01*
X-34967Y-71170D01*
X-35091Y-71030D01*
X-35423Y-70650D01*
X-36147Y-69926D01*
X-36399Y-69706D01*
X-36539Y-69598D01*
X-36791Y-69374D01*
X-36935Y-69266D01*
X-37059Y-69154D01*
X-37203Y-69062D01*
X-37327Y-68950D01*
X-37611Y-68762D01*
X-37755Y-68650D01*
X-38035Y-68462D01*
X-38179Y-68382D01*
X-38319Y-68290D01*
X-38479Y-68194D01*
X-38619Y-68118D01*
X-38759Y-68022D01*
X-38919Y-67942D01*
X-39059Y-67866D01*
X-39531Y-67626D01*
X-39675Y-67550D01*
X-39831Y-67470D01*
X-39991Y-67406D01*
X-40147Y-67330D01*
X-40319Y-67266D01*
X-40791Y-67078D01*
X-40967Y-67014D01*
X-41123Y-66966D01*
X-41295Y-66902D01*
X-41455Y-66858D01*
X-41627Y-66810D01*
X-41783Y-66746D01*
X-42131Y-66650D01*
X-42303Y-66622D01*
X-42479Y-66574D01*
X-42651Y-66542D01*
X-42807Y-66494D01*
X-42999Y-66462D01*
X-43515Y-66370D01*
X-43691Y-66354D01*
X-43863Y-66322D01*
X-44051Y-66306D01*
X-44227Y-66274D01*
X-44399Y-66258D01*
X-44587Y-66242D01*
X-44759D01*
X-44951Y-66226D01*
X-45123Y-66210D01*
X-46051D01*
X-46255Y-66226D01*
X-46447D01*
X-46823Y-66258D01*
X-46999Y-66274D01*
X-47375Y-66306D01*
X-47563Y-66338D01*
X-47755Y-66354D01*
X-47927Y-66382D01*
X-48303Y-66446D01*
X-48479Y-66494D01*
X-48651Y-66526D01*
X-48839Y-66558D01*
X-49011Y-66606D01*
X-49203Y-66650D01*
X-49723Y-66794D01*
X-49895Y-66858D01*
X-50067Y-66902D01*
X-50759Y-67154D01*
X-50919Y-67218D01*
X-51091Y-67282D01*
X-51251Y-67362D01*
X-51423Y-67438D01*
X-51579Y-67502D01*
X-51755Y-67582D01*
X-52067Y-67738D01*
X-52227Y-67834D01*
X-52539Y-67990D01*
X-52855Y-68178D01*
X-52999Y-68274D01*
X-53311Y-68462D01*
X-53595Y-68650D01*
X-53755Y-68762D01*
X-53895Y-68858D01*
X-54603Y-69406D01*
X-54731Y-69518D01*
X-54871Y-69642D01*
X-54999Y-69754D01*
X-55139Y-69878D01*
X-55263Y-69990D01*
X-56019Y-70746D01*
X-56131Y-70886D01*
X-56255Y-71014D01*
X-56367Y-71154D01*
X-56479Y-71282D01*
X-56603Y-71422D01*
X-56823Y-71706D01*
X-56919Y-71850D01*
X-57139Y-72130D01*
X-57235Y-72274D01*
X-57343Y-72430D01*
X-57439Y-72574D01*
X-57531Y-72730D01*
X-57627Y-72870D01*
X-57815Y-73186D01*
X-57895Y-73346D01*
X-57991Y-73502D01*
X-58067Y-73658D01*
X-58163Y-73818D01*
X-58399Y-74290D01*
X-58479Y-74462D01*
X-58539Y-74622D01*
X-58619Y-74794D01*
X-58683Y-74950D01*
X-58747Y-75122D01*
X-58823Y-75298D01*
X-58887Y-75470D01*
X-58935Y-75626D01*
X-59059Y-75974D01*
X-59107Y-76146D01*
G37*
G36*
G01X-39251Y-81422D02*
X-39263Y-81438D01*
X-39279D01*
Y-81470D01*
X-39327Y-81518D01*
X-39359Y-81582D01*
X-39391Y-81598D01*
X-39423Y-81658D01*
X-39455Y-81690D01*
X-39471Y-81722D01*
X-39503Y-81754D01*
X-39515Y-81786D01*
X-39547Y-81818D01*
X-39579Y-81866D01*
X-39595Y-81894D01*
X-39627Y-81926D01*
X-39659Y-81974D01*
X-39691Y-82006D01*
X-39755Y-82102D01*
X-39783Y-82130D01*
X-39975Y-82414D01*
X-40019Y-82462D01*
X-40115Y-82606D01*
X-40163Y-82650D01*
X-40227Y-82746D01*
X-40271Y-82794D01*
X-40303Y-82842D01*
X-40335Y-82902D01*
X-40383Y-82950D01*
X-40447Y-83046D01*
X-40495Y-83094D01*
X-40523Y-83138D01*
X-40555Y-83202D01*
X-40603Y-83250D01*
X-40667Y-83346D01*
X-40715Y-83390D01*
X-40747Y-83438D01*
X-40775Y-83502D01*
X-40807Y-83550D01*
X-40855Y-83598D01*
X-40983Y-83786D01*
X-41027Y-83818D01*
X-41155Y-84006D01*
X-41187Y-84038D01*
X-41219Y-84086D01*
X-41235Y-84118D01*
X-41263Y-84162D01*
X-41295Y-84194D01*
X-41327Y-84242D01*
X-41359Y-84274D01*
X-41375Y-84306D01*
X-41407Y-84338D01*
X-41423Y-84370D01*
X-41455Y-84398D01*
X-41471Y-84430D01*
X-41503Y-84462D01*
X-41531Y-84526D01*
X-41547Y-84542D01*
X-41563Y-84574D01*
X-41595Y-84606D01*
X-41611Y-84634D01*
X-41643Y-84666D01*
Y-84682D01*
X-41659D01*
Y-84698D01*
X-41691Y-84730D01*
X-42271D01*
Y-84746D01*
X-42319Y-84794D01*
Y-84810D01*
X-42351Y-84842D01*
X-42367Y-84870D01*
X-42383Y-84886D01*
X-42399Y-84918D01*
X-42415Y-84934D01*
X-42431Y-84966D01*
X-42479Y-85014D01*
X-42495Y-85046D01*
X-42523Y-85078D01*
X-42539Y-85110D01*
X-42571Y-85138D01*
X-42587Y-85170D01*
X-42619Y-85218D01*
X-42651Y-85250D01*
X-42667Y-85282D01*
X-42699Y-85330D01*
X-42759Y-85390D01*
X-42823Y-85486D01*
X-42855Y-85518D01*
X-42919Y-85614D01*
X-42951Y-85642D01*
X-43043Y-85786D01*
X-43075Y-85818D01*
X-43203Y-86006D01*
X-43251Y-86054D01*
X-43375Y-86242D01*
X-43423Y-86290D01*
X-43547Y-86478D01*
X-43595Y-86526D01*
X-43691Y-86666D01*
X-43723Y-86698D01*
X-43815Y-86842D01*
X-43895Y-86918D01*
X-43991Y-87062D01*
X-44003Y-87094D01*
X-44035Y-87138D01*
X-44067Y-87170D01*
X-44099Y-87218D01*
X-44131Y-87250D01*
X-44163Y-87298D01*
X-44179Y-87330D01*
X-44243Y-87390D01*
X-44255Y-87438D01*
X-44287Y-87470D01*
X-44303Y-87502D01*
X-44351Y-87550D01*
X-44367Y-87582D01*
X-44399Y-87614D01*
X-44415Y-87642D01*
X-44431Y-87658D01*
X-44447Y-87690D01*
X-44479Y-87722D01*
X-44495Y-87754D01*
X-44523Y-87786D01*
Y-87802D01*
X-44539D01*
Y-87818D01*
X-44571Y-87850D01*
X-33879D01*
X-33831Y-87802D01*
X-33767Y-87674D01*
X-33723Y-87626D01*
X-33659Y-87502D01*
X-33627Y-87454D01*
X-33579Y-87390D01*
X-33515Y-87266D01*
X-33487Y-87218D01*
X-33391Y-87030D01*
X-33359Y-86982D01*
X-33311Y-86918D01*
X-33219Y-86730D01*
X-33187Y-86682D01*
X-33123Y-86558D01*
X-33107Y-86494D01*
X-33011Y-86306D01*
X-32983Y-86258D01*
X-32919Y-86130D01*
X-32903Y-86070D01*
X-32775Y-85818D01*
X-32759Y-85754D01*
X-32699Y-85626D01*
X-32683Y-85566D01*
X-32651Y-85502D01*
X-32635Y-85438D01*
X-32571Y-85314D01*
X-32555Y-85250D01*
X-32523Y-85186D01*
X-32507Y-85110D01*
X-32479Y-85046D01*
X-32463Y-84982D01*
X-32431Y-84918D01*
X-32415Y-84858D01*
X-32383Y-84794D01*
X-32351Y-84666D01*
X-32319Y-84590D01*
X-32287Y-84462D01*
X-32255Y-84398D01*
X-32227Y-84258D01*
X-32195Y-84194D01*
X-32147Y-84006D01*
X-32131Y-83926D01*
X-32115Y-83866D01*
X-32083Y-83802D01*
X-32067Y-83722D01*
X-32019Y-83534D01*
X-32003Y-83454D01*
X-31975Y-83330D01*
X-31959Y-83250D01*
X-31927Y-83122D01*
X-31911Y-83046D01*
Y-82982D01*
X-31895Y-82918D01*
X-31879Y-82842D01*
X-31863Y-82778D01*
X-31847Y-82698D01*
Y-82634D01*
X-31831Y-82574D01*
X-31815Y-82494D01*
X-31799Y-82430D01*
Y-82354D01*
X-31783Y-82290D01*
X-31767Y-82210D01*
Y-82146D01*
X-31755Y-82086D01*
Y-82006D01*
X-31739Y-81942D01*
Y-81866D01*
X-31723Y-81802D01*
Y-81722D01*
X-31707Y-81658D01*
Y-81582D01*
X-31691Y-81518D01*
Y-81374D01*
X-39219D01*
X-39251Y-81406D01*
Y-81422D01*
G37*
G36*
G01X-37627Y-80650D02*
X-35235D01*
Y-79926D01*
X-31643D01*
Y-79690D01*
X-31659Y-79658D01*
Y-79374D01*
X-31675Y-79346D01*
Y-79170D01*
X-31691Y-79138D01*
Y-78966D01*
X-31707Y-78934D01*
Y-78810D01*
X-31723Y-78778D01*
Y-78666D01*
X-31739Y-78634D01*
Y-78526D01*
X-31755Y-78494D01*
Y-78414D01*
X-31767Y-78382D01*
Y-78290D01*
X-31783Y-78258D01*
Y-78178D01*
X-31799Y-78146D01*
Y-78070D01*
X-31815Y-78038D01*
Y-77974D01*
X-31831Y-77958D01*
Y-77894D01*
X-31847Y-77866D01*
Y-77786D01*
X-31863Y-77754D01*
Y-77690D01*
X-31879Y-77658D01*
Y-77614D01*
X-31895Y-77582D01*
Y-77550D01*
X-31911Y-77534D01*
Y-77470D01*
X-31927Y-77438D01*
Y-77390D01*
X-31943Y-77362D01*
Y-77298D01*
X-31959Y-77266D01*
Y-77250D01*
X-31975Y-77218D01*
Y-77154D01*
X-31991Y-77138D01*
Y-77110D01*
X-32003Y-77078D01*
Y-77046D01*
X-33547D01*
Y-77770D01*
X-32999D01*
Y-78494D01*
X-33895D01*
Y-79202D01*
X-36287D01*
Y-79926D01*
X-37627D01*
Y-80650D01*
G37*
G36*
G01X-42179Y-82698D02*
X-40635Y-80650D01*
X-44099D01*
X-42319Y-82698D01*
X-42179D01*
G37*
G36*
G01X-8128Y46670D02*
Y51098D01*
X-7439D01*
Y51800D01*
G02X-6756Y52083I400J0D01*
G01X-6524Y51850D01*
Y44738D01*
X-10752Y40510D01*
Y31514D01*
G03Y31486I1352J-14D01*
G01Y30940D01*
X-10367Y30555D01*
G03X-10356Y30544I961J950D01*
G01X-8856Y29044D01*
G03X-8845Y29033I961J950D01*
G01X-8460Y28648D01*
X-8017D01*
Y27971D01*
X-4235D01*
Y32029D01*
X-8017D01*
X-8048Y32060D01*
Y32871D01*
X-3880D01*
Y32971D01*
X-200D01*
Y33142D01*
G02X142Y33283I200J0D01*
G01X1391Y32034D01*
G02X1108Y31352I-283J-282D01*
G01X17D01*
Y32029D01*
X-3765D01*
Y27971D01*
X17D01*
Y28648D01*
X6853D01*
X6891Y28631D01*
G03X7187Y28535I608J1369D01*
G02X7386Y27861I-84J-391D01*
G01X4498Y24973D01*
Y20673D01*
X-1702Y14473D01*
Y9946D01*
G03X102I902J-1196D01*
G01Y13727D01*
X5616Y19241D01*
G02X6298Y18958I282J-283D01*
G01Y15773D01*
X1198Y10673D01*
Y6096D01*
G03X3002I902J-1196D01*
G01Y9927D01*
X8102Y15027D01*
Y20169D01*
G02X8607Y20555I400J0D01*
G03X10114Y20998I394J1445D01*
G01X15487D01*
X15862Y21373D01*
G02X16544Y21091I282J-283D01*
G01Y20319D01*
X16128Y19903D01*
X15987Y20027D01*
G03X13669Y18213I-987J-1127D01*
G02X13314Y17629I-355J-184D01*
G01X11100D01*
Y13371D01*
X15120D01*
Y13471D01*
X18800D01*
Y14598D01*
X24672D01*
X27796Y17723D01*
Y21296D01*
G02X28269Y21689I400J0D01*
G03X28786Y21717I200J1087D01*
G01X28814Y21725D01*
X29044D01*
Y21346D01*
G03X28331Y19391I656J-1347D01*
G01X28348Y19353D01*
Y18930D01*
X30971Y16308D01*
Y14420D01*
X30871D01*
Y10652D01*
X22277D01*
X12327Y702D01*
X4427D01*
X1976Y-1749D01*
X1844Y-1676D01*
G03X3324Y-3156I-1844J-3324D01*
G01X3251Y-3024D01*
X5173Y-1102D01*
X7674D01*
G02X7896Y-1835I1J-400D01*
G03X13324Y-3156I2104J-3165D01*
G01X13251Y-3024D01*
X23923Y7648D01*
X27768D01*
X27890Y7290D01*
G03X27604Y7002I910J-1190D01*
G01X24877D01*
X19098Y1223D01*
Y-1304D01*
X18954Y-1346D01*
G03X21046I1046J-3654D01*
G01X20902Y-1304D01*
Y477D01*
X25623Y5198D01*
X27604D01*
G03X29993Y7006I1196J902D01*
G02X30311Y7648I318J242D01*
G01X40073D01*
X44502Y12077D01*
Y17050D01*
X53652D01*
X54454Y16248D01*
X62256D01*
X63902Y17894D01*
Y34956D01*
X62256Y36602D01*
X54916D01*
X53512Y38006D01*
Y39271D01*
X54180D01*
Y39171D01*
X58200D01*
Y43429D01*
X54180D01*
Y43329D01*
X50843D01*
G02X50561Y44012I1J400D01*
G01X51420Y44871D01*
X54435D01*
Y44771D01*
X58417D01*
Y49029D01*
X54435D01*
Y48929D01*
X50283D01*
Y46284D01*
X47389Y43390D01*
G02X46731Y43534I-283J283D01*
G03X46470Y43937I-1036J-385D01*
G03X46520Y45458I-776J787D01*
G02X46508Y45709I150J133D01*
G03X46455Y46956I-814J590D01*
G01X46407Y47086D01*
X46455Y47217D01*
G03Y48531I-761J657D01*
G01X46407Y48662D01*
X46455Y48792D01*
G03X46692Y49573I-760J657D01*
G02X47088Y50022I397J49D01*
G01X50349D01*
X51697Y51371D01*
X54080D01*
Y51271D01*
X58100D01*
Y54723D01*
G02X58783Y55005I400J-1D01*
G01X70824Y42964D01*
Y38429D01*
X70285D01*
Y34371D01*
X73664D01*
X73798Y34237D01*
Y33629D01*
X70185D01*
Y33529D01*
X68826D01*
Y34371D01*
X69815D01*
Y38429D01*
X66033D01*
Y34371D01*
X67022D01*
Y33529D01*
X66033D01*
Y29471D01*
X67022D01*
Y18247D01*
X63752Y14977D01*
X63611Y15106D01*
G03X63796Y13098I-1011J-1106D01*
G01X64423D01*
X68826Y17501D01*
Y29471D01*
X70185D01*
Y29371D01*
X73798D01*
Y18487D01*
X74368Y17918D01*
G03X77013Y19576I1132J1132D01*
G01X77002Y19608D01*
Y35563D01*
X74563Y38002D01*
X74067D01*
Y38429D01*
X73528D01*
Y44084D01*
X54852Y62760D01*
Y63752D01*
X55064Y63964D01*
X62706D01*
Y63667D01*
X66294D01*
Y63964D01*
X70230D01*
Y64064D01*
X71333D01*
X71378Y63928D01*
G03X72932Y65892I1422J472D01*
G01X72859Y65899D01*
X72490Y66268D01*
X70330D01*
Y68148D01*
X92177D01*
X93514Y66811D01*
X93507Y66719D01*
G03X94098Y65404I1493J-119D01*
G01Y63327D01*
X96727Y60698D01*
X97500D01*
Y50025D01*
X92877Y45402D01*
X84173D01*
X79523Y50052D01*
X77196D01*
G03X75186Y47892I-1196J-902D01*
G02X75144Y47197I-217J-336D01*
G03X76996Y44948I656J-1347D01*
G01X79577D01*
X80108Y44417D01*
G02X79777Y43737I-283J-283D01*
G03X80539Y41083I-177J-1487D01*
G01X80679Y41196D01*
X87427Y34448D01*
X87950D01*
Y32905D01*
G03X93319Y33516I3050J-2905D01*
G02X93539Y34250I220J334D01*
G01X97500D01*
Y19952D01*
X95112D01*
Y24112D01*
X86888D01*
Y15888D01*
X95112D01*
Y16748D01*
X97500D01*
Y-10740D01*
X-35000D01*
G02X-37800Y-7940I0J2800D01*
G01Y23909D01*
G02X-37128Y24202I400J0D01*
G03X-35806Y23548I1757J1889D01*
G01X-35640Y23520D01*
Y21159D01*
G03X-32739Y22353I2850J-2804D01*
G01X-32936Y22552D01*
Y23520D01*
X-32770Y23548D01*
G03X-31157Y24524I-437J2543D01*
G01X-27035D01*
X-24626Y26933D01*
X-24506Y26889D01*
G03X-21176Y29221I848J2332D01*
G01Y30403D01*
G03X-22092Y32328I-2482J-1D01*
G02X-21840Y33038I252J310D01*
G01X-20289D01*
Y36036D01*
X-20389D01*
Y38802D01*
X-20043D01*
X-19264Y39582D01*
X-13448D01*
X-10932Y42098D01*
Y43921D01*
G02X-10734Y44121I200J0D01*
G03X-9349Y46133I-22J1498D01*
G02X-8973Y46670I376J137D01*
G01X-8128D01*
G37*
G36*
G01X4545Y43822D02*
G02X4915Y43270I0J-400D01*
G03X7643Y42037I1385J-570D01*
G01X7698Y42148D01*
X9751D01*
G02X10148Y41702I0J-400D01*
G03X10187Y41259I1098J-127D01*
G01X10195Y41231D01*
Y41002D01*
X9835D01*
X8082Y39248D01*
X7999D01*
G03X6820Y36828I1J-1498D01*
G02X6504Y36182I-315J-246D01*
G01X2705D01*
X2677Y36348D01*
G03X25Y37029I-1477J-248D01*
G01X-3880D01*
Y37129D01*
X-8048D01*
Y39390D01*
X-3820Y43618D01*
Y52970D01*
X-4648Y53798D01*
Y73177D01*
G03X-7298Y74537I-1252J823D01*
G01X-7314Y74498D01*
X-7352Y74460D01*
Y74371D01*
X-7357Y74348D01*
G03Y73652I1457J-348D01*
G01X-7352Y73629D01*
Y63629D01*
X-11620D01*
Y63529D01*
X-15300D01*
Y63102D01*
X-16863D01*
X-19802Y60163D01*
Y58700D01*
G03X-19552Y57841I1601J0D01*
G01Y46660D01*
X-20110Y46102D01*
X-20221D01*
X-20389Y46171D01*
Y46172D01*
X-21969D01*
G02X-22203Y46896I0J400D01*
G03X-21176Y48906I-1455J2011D01*
G01Y50088D01*
G03X-24506Y52420I-2482J0D01*
G01X-24626Y52376D01*
X-27035Y54786D01*
X-31157D01*
G03X-32770Y55761I-2049J-1568D01*
G01X-32936Y55789D01*
Y56756D01*
X-32739Y56955D01*
G03X-35640Y58149I-51J3998D01*
G01Y55789D01*
X-35806Y55761D01*
G03X-37128Y55107I435J-2543D01*
G02X-37800Y55400I-272J293D01*
G01Y87240D01*
G02X-35000Y90040I2800J0D01*
G01X-5200D01*
G02X-4918Y89357I-1J-400D01*
G01X-5202Y89073D01*
Y81327D01*
X-2552Y78677D01*
Y52127D01*
X-97Y49672D01*
G02X-342Y48991I-283J-283D01*
G03X-81Y46007I142J-1491D01*
G01X11Y46014D01*
X525Y45500D01*
X11Y44986D01*
X-81Y44993D01*
G03X1297Y43439I-119J-1493D01*
G02X1696Y43822I399J-17D01*
G01X4545D01*
G37*
G36*
G01X-21203Y-91422D02*
X-21879Y-92746D01*
X-22335D01*
X-23011Y-91422D01*
Y-93454D01*
X-23691D01*
Y-89974D01*
X-23011D01*
X-22099Y-91866D01*
X-21203Y-89974D01*
X-20523D01*
Y-93454D01*
X-21203D01*
Y-91422D01*
G37*
G36*
G01X-26855Y-89974D02*
X-24555D01*
Y-90574D01*
X-26163D01*
Y-91390D01*
X-24791D01*
Y-92006D01*
X-26163D01*
Y-92858D01*
X-24555D01*
Y-93454D01*
X-26855D01*
Y-89974D01*
G37*
G36*
G01X-23831Y-75138D02*
X-23879Y-75154D01*
X-23911Y-75170D01*
X-23959Y-75186D01*
X-23991Y-75218D01*
X-24035Y-75234D01*
X-24067Y-75266D01*
X-24099Y-75282D01*
X-24147Y-75314D01*
X-24271Y-75438D01*
X-24319Y-75470D01*
X-24351Y-75502D01*
X-24367Y-75534D01*
X-24399Y-75582D01*
X-24463Y-75642D01*
X-24479Y-75690D01*
X-24507Y-75722D01*
X-24523Y-75770D01*
X-24539Y-75802D01*
X-24555Y-75850D01*
X-24587Y-75878D01*
X-24603Y-75926D01*
Y-75958D01*
X-24651Y-76102D01*
Y-76146D01*
X-24667Y-76178D01*
Y-76274D01*
X-24683Y-76322D01*
Y-84178D01*
X-24667Y-84226D01*
Y-84306D01*
X-24651Y-84354D01*
Y-84398D01*
X-24635Y-84430D01*
X-24603Y-84526D01*
X-24587Y-84558D01*
X-24555Y-84650D01*
X-24539Y-84682D01*
X-24523Y-84730D01*
X-24495Y-84762D01*
X-24479Y-84794D01*
X-24447Y-84842D01*
X-24431Y-84870D01*
X-24399Y-84902D01*
X-24367Y-84950D01*
X-24271Y-85046D01*
X-24243Y-85094D01*
X-24195Y-85122D01*
X-24163Y-85154D01*
X-24131Y-85170D01*
X-24099Y-85202D01*
X-24051Y-85234D01*
X-24019Y-85250D01*
X-23975Y-85282D01*
X-23943Y-85298D01*
X-23895Y-85330D01*
X-23863Y-85346D01*
X-23815Y-85362D01*
X-23783Y-85374D01*
X-23739Y-85390D01*
X-23707Y-85406D01*
X-23659Y-85422D01*
X-23611D01*
X-23563Y-85438D01*
X-23531D01*
X-23487Y-85454D01*
X-22791D01*
X-22747Y-85438D01*
X-22699D01*
X-22651Y-85422D01*
X-22619D01*
X-22523Y-85390D01*
X-22495Y-85374D01*
X-22399Y-85346D01*
X-22367Y-85330D01*
X-22319Y-85314D01*
X-22287Y-85282D01*
X-22243Y-85266D01*
X-22211Y-85234D01*
X-22179Y-85218D01*
X-22131Y-85186D01*
X-21911Y-84966D01*
X-21879Y-84918D01*
X-21847Y-84886D01*
X-21831Y-84858D01*
X-21799Y-84810D01*
X-21783Y-84778D01*
X-21755Y-84730D01*
X-21739Y-84698D01*
X-21723Y-84650D01*
X-21707Y-84622D01*
X-21691Y-84574D01*
X-21675Y-84542D01*
X-21627Y-84398D01*
Y-84370D01*
X-21611Y-84322D01*
Y-84226D01*
X-21595Y-84178D01*
Y-82666D01*
X-21579Y-82650D01*
Y-82622D01*
X-21563Y-82606D01*
Y-82590D01*
X-21547Y-82574D01*
X-21531D01*
Y-82558D01*
X-21515Y-82542D01*
X-21503D01*
X-21471Y-82510D01*
X-21391D01*
X-21375Y-82494D01*
X-19503D01*
X-19487Y-82510D01*
X-19407D01*
X-19375Y-82542D01*
X-19359D01*
X-19343Y-82558D01*
Y-82574D01*
X-19327D01*
X-19311Y-82590D01*
Y-82622D01*
X-19295Y-82634D01*
Y-82666D01*
X-19279Y-82682D01*
Y-84338D01*
X-19311Y-84590D01*
X-19327Y-84698D01*
X-19343Y-84826D01*
X-19375Y-84934D01*
X-19391Y-85062D01*
X-19439Y-85170D01*
X-19503Y-85390D01*
X-19643Y-85722D01*
X-19707Y-85834D01*
X-19755Y-85926D01*
X-19815Y-86038D01*
X-19879Y-86130D01*
X-19959Y-86226D01*
X-20019Y-86338D01*
X-20179Y-86526D01*
X-20271Y-86606D01*
X-20351Y-86698D01*
X-20447Y-86794D01*
X-20823Y-87110D01*
X-20935Y-87170D01*
X-21123Y-87298D01*
X-21235Y-87362D01*
X-21343Y-87406D01*
X-21439Y-87470D01*
X-21547Y-87518D01*
X-21659Y-87550D01*
X-21767Y-87598D01*
X-21895Y-87626D01*
X-22115Y-87690D01*
X-22243Y-87722D01*
X-22351Y-87738D01*
X-22603Y-87770D01*
X-22731D01*
X-22855Y-87786D01*
X-23423D01*
X-23547Y-87770D01*
X-23675D01*
X-23927Y-87738D01*
X-24035Y-87722D01*
X-24163Y-87690D01*
X-24383Y-87626D01*
X-24507Y-87598D01*
X-24619Y-87550D01*
X-24731Y-87518D01*
X-24839Y-87470D01*
X-24935Y-87406D01*
X-25043Y-87362D01*
X-25155Y-87298D01*
X-25251Y-87234D01*
X-25359Y-87170D01*
X-25455Y-87110D01*
X-25831Y-86794D01*
X-25927Y-86698D01*
X-26003Y-86606D01*
X-26099Y-86526D01*
X-26255Y-86338D01*
X-26319Y-86226D01*
X-26399Y-86130D01*
X-26463Y-86038D01*
X-26523Y-85926D01*
X-26571Y-85834D01*
X-26635Y-85722D01*
X-26775Y-85390D01*
X-26807Y-85282D01*
X-26855Y-85170D01*
X-26887Y-85062D01*
X-26903Y-84934D01*
X-26935Y-84826D01*
X-26951Y-84698D01*
X-26967Y-84590D01*
X-26999Y-84338D01*
Y-76162D01*
X-26967Y-75910D01*
X-26951Y-75802D01*
X-26935Y-75674D01*
X-26903Y-75566D01*
X-26887Y-75438D01*
X-26855Y-75330D01*
X-26807Y-75218D01*
X-26775Y-75110D01*
X-26635Y-74778D01*
X-26571Y-74666D01*
X-26523Y-74574D01*
X-26463Y-74462D01*
X-26399Y-74370D01*
X-26319Y-74274D01*
X-26255Y-74162D01*
X-26099Y-73974D01*
X-26003Y-73894D01*
X-25927Y-73802D01*
X-25831Y-73706D01*
X-25455Y-73390D01*
X-25359Y-73330D01*
X-25251Y-73266D01*
X-25155Y-73202D01*
X-24935Y-73078D01*
X-24839Y-73030D01*
X-24731Y-72982D01*
X-24619Y-72950D01*
X-24507Y-72902D01*
X-24383Y-72870D01*
X-24163Y-72810D01*
X-24035Y-72778D01*
X-23927Y-72762D01*
X-23675Y-72730D01*
X-23547D01*
X-23423Y-72714D01*
X-22855D01*
X-22731Y-72730D01*
X-22603D01*
X-22227Y-72778D01*
X-22115Y-72810D01*
X-21991Y-72842D01*
X-21659Y-72934D01*
X-21327Y-73078D01*
X-21219Y-73138D01*
X-21123Y-73186D01*
X-21011Y-73250D01*
X-20919Y-73314D01*
X-20807Y-73390D01*
X-20715Y-73454D01*
X-20523Y-73614D01*
X-20447Y-73706D01*
X-20351Y-73786D01*
X-20255Y-73878D01*
X-19943Y-74258D01*
X-19815Y-74446D01*
X-19691Y-74666D01*
X-19643Y-74762D01*
X-19503Y-75094D01*
X-19471Y-75202D01*
X-19423Y-75314D01*
X-19391Y-75438D01*
X-19375Y-75550D01*
X-19343Y-75674D01*
X-19327Y-75786D01*
X-19279Y-76162D01*
Y-77818D01*
X-19295Y-77834D01*
Y-77866D01*
X-19311Y-77878D01*
Y-77894D01*
X-19327Y-77910D01*
X-19343D01*
Y-77926D01*
X-19359Y-77942D01*
X-19375D01*
X-19391Y-77958D01*
X-19407D01*
X-19423Y-77974D01*
X-21455D01*
X-21471Y-77958D01*
X-21487D01*
X-21503Y-77942D01*
X-21515D01*
X-21531Y-77926D01*
Y-77910D01*
X-21547D01*
X-21563Y-77894D01*
Y-77878D01*
X-21579D01*
Y-77850D01*
X-21595Y-77834D01*
Y-76322D01*
X-21611Y-76274D01*
Y-76178D01*
X-21627Y-76146D01*
Y-76102D01*
X-21675Y-75958D01*
X-21691Y-75926D01*
X-21707Y-75878D01*
X-21723Y-75850D01*
X-21739Y-75802D01*
X-21755Y-75770D01*
X-21783Y-75722D01*
X-21799Y-75690D01*
X-21831Y-75642D01*
X-21847Y-75614D01*
X-21879Y-75582D01*
X-21911Y-75534D01*
X-22131Y-75314D01*
X-22179Y-75282D01*
X-22211Y-75266D01*
X-22243Y-75234D01*
X-22287Y-75218D01*
X-22319Y-75186D01*
X-22367Y-75170D01*
X-22399Y-75154D01*
X-22495Y-75122D01*
X-22523Y-75110D01*
X-22619Y-75078D01*
X-22651D01*
X-22699Y-75062D01*
X-22747D01*
X-22791Y-75046D01*
X-23487D01*
X-23531Y-75062D01*
X-23579D01*
X-23627Y-75078D01*
X-23675D01*
X-23707Y-75094D01*
X-23799Y-75122D01*
X-23831Y-75138D01*
G37*
G36*
G01X-17847Y-93454D02*
X-19515D01*
Y-89974D01*
X-17927D01*
X-17911Y-89990D01*
X-17815D01*
X-17799Y-90006D01*
X-17739D01*
X-17723Y-90022D01*
X-17691D01*
X-17675Y-90038D01*
X-17643D01*
X-17627Y-90054D01*
X-17611D01*
X-17595Y-90070D01*
X-17563D01*
X-17547Y-90086D01*
X-17531D01*
Y-90102D01*
X-17515D01*
X-17503Y-90118D01*
X-17487D01*
X-17471Y-90130D01*
X-17455D01*
X-17423Y-90162D01*
X-17407D01*
X-17391Y-90178D01*
X-17375D01*
Y-90194D01*
X-17359Y-90210D01*
X-17343D01*
X-17327Y-90226D01*
Y-90242D01*
X-17311D01*
X-17295Y-90258D01*
Y-90274D01*
X-17279D01*
X-17263Y-90290D01*
Y-90306D01*
X-17251D01*
X-17235Y-90322D01*
Y-90338D01*
X-17203Y-90370D01*
Y-90382D01*
X-17187Y-90398D01*
Y-90414D01*
X-17171D01*
Y-90430D01*
X-17155Y-90446D01*
Y-90462D01*
X-17139Y-90478D01*
Y-90494D01*
X-17123D01*
Y-90526D01*
X-17107Y-90542D01*
Y-90574D01*
X-17091Y-90590D01*
Y-90622D01*
X-17075Y-90634D01*
Y-90682D01*
X-17059Y-90698D01*
Y-90762D01*
X-17043Y-90778D01*
Y-91094D01*
X-17059Y-91110D01*
Y-91170D01*
X-17075D01*
Y-91218D01*
X-17091D01*
Y-91266D01*
X-17107D01*
Y-91298D01*
X-17123Y-91314D01*
Y-91330D01*
X-17139D01*
Y-91362D01*
X-17155D01*
Y-91374D01*
X-17171Y-91390D01*
Y-91406D01*
X-17187D01*
Y-91438D01*
X-17203D01*
Y-91454D01*
X-17219D01*
Y-91470D01*
X-17235D01*
Y-91486D01*
X-17251D01*
Y-91502D01*
X-17327Y-91582D01*
X-17343D01*
Y-91598D01*
X-17359D01*
Y-91614D01*
X-17375D01*
X-17391Y-91626D01*
X-17407D01*
Y-91642D01*
X-17439D01*
Y-91658D01*
X-17455D01*
X-17471Y-91674D01*
X-17455D01*
X-17439Y-91690D01*
X-17423D01*
X-17407Y-91706D01*
X-17391D01*
Y-91722D01*
X-17359D01*
Y-91738D01*
X-17343D01*
X-17327Y-91754D01*
X-17311D01*
Y-91770D01*
X-17295D01*
Y-91786D01*
X-17279D01*
Y-91802D01*
X-17263D01*
X-17187Y-91878D01*
Y-91894D01*
X-17171D01*
Y-91910D01*
X-17155D01*
Y-91926D01*
X-17139D01*
Y-91942D01*
X-17123Y-91958D01*
Y-91974D01*
X-17107D01*
Y-92006D01*
X-17091D01*
Y-92038D01*
X-17075D01*
Y-92070D01*
X-17059D01*
Y-92102D01*
X-17043Y-92118D01*
Y-92146D01*
X-17027D01*
Y-92194D01*
X-17011Y-92210D01*
Y-92258D01*
X-16999Y-92274D01*
Y-92634D01*
X-17011Y-92666D01*
Y-92730D01*
X-17027Y-92746D01*
Y-92794D01*
X-17043Y-92810D01*
Y-92842D01*
X-17059Y-92858D01*
Y-92870D01*
X-17075Y-92886D01*
Y-92918D01*
X-17091Y-92934D01*
Y-92950D01*
X-17107Y-92966D01*
Y-92982D01*
X-17123D01*
Y-92998D01*
X-17139Y-93014D01*
Y-93030D01*
X-17155Y-93046D01*
Y-93062D01*
X-17171D01*
Y-93078D01*
X-17235Y-93138D01*
Y-93154D01*
X-17251D01*
X-17263Y-93170D01*
Y-93186D01*
X-17279D01*
X-17295Y-93202D01*
Y-93218D01*
X-17311D01*
X-17359Y-93266D01*
X-17375D01*
X-17391Y-93282D01*
X-17407D01*
Y-93298D01*
X-17423D01*
X-17439Y-93314D01*
X-17455D01*
X-17471Y-93330D01*
X-17487D01*
X-17503Y-93346D01*
X-17515D01*
Y-93362D01*
X-17531D01*
X-17547Y-93374D01*
X-17579D01*
X-17595Y-93390D01*
X-17627D01*
X-17643Y-93406D01*
X-17675D01*
X-17691Y-93422D01*
X-17739D01*
X-17755Y-93438D01*
X-17831D01*
X-17847Y-93454D01*
G37*
G36*
G01X-13187Y-87550D02*
Y-87566D01*
X-13203Y-87582D01*
X-13219D01*
Y-87598D01*
X-13235D01*
Y-87614D01*
X-13263D01*
Y-87626D01*
X-13311D01*
Y-87642D01*
X-15295D01*
X-15311Y-87626D01*
X-15343D01*
X-15359Y-87614D01*
X-15375D01*
X-15423Y-87566D01*
Y-87550D01*
X-15439D01*
Y-87534D01*
X-15455Y-87518D01*
Y-87470D01*
X-15471D01*
Y-81078D01*
X-15487D01*
Y-80998D01*
X-15503D01*
Y-80934D01*
X-15515D01*
Y-80886D01*
X-15531D01*
Y-80858D01*
X-15547Y-80842D01*
Y-80810D01*
X-15563Y-80778D01*
Y-80746D01*
X-15579Y-80730D01*
Y-80698D01*
X-15595Y-80682D01*
Y-80650D01*
X-15611Y-80634D01*
Y-80606D01*
X-15627Y-80590D01*
Y-80558D01*
X-15643Y-80526D01*
Y-80510D01*
X-15659Y-80478D01*
Y-80446D01*
X-15691Y-80382D01*
Y-80354D01*
X-15707Y-80322D01*
Y-80290D01*
X-15739Y-80226D01*
Y-80194D01*
X-15755Y-80146D01*
X-15783Y-80086D01*
Y-80038D01*
X-15815Y-79974D01*
X-15831Y-79926D01*
Y-79894D01*
X-15863Y-79802D01*
X-15879Y-79770D01*
X-15895Y-79722D01*
Y-79674D01*
X-15911Y-79642D01*
X-16067Y-79170D01*
X-16083Y-79110D01*
X-16131Y-78966D01*
X-16147Y-78902D01*
X-16179Y-78810D01*
X-16195Y-78746D01*
X-16227Y-78698D01*
X-16243Y-78634D01*
X-16255Y-78590D01*
X-16271Y-78526D01*
X-16287Y-78478D01*
X-16303Y-78414D01*
X-16335Y-78370D01*
X-16383Y-78178D01*
X-16415Y-78130D01*
X-16447Y-78006D01*
X-16479Y-77942D01*
X-16495Y-77878D01*
X-16507Y-77834D01*
X-16539Y-77770D01*
X-16571Y-77642D01*
X-16603Y-77582D01*
X-16619Y-77518D01*
X-16651Y-77454D01*
X-16683Y-77330D01*
X-16715Y-77266D01*
X-16731Y-77186D01*
X-16759Y-77122D01*
X-16775Y-77062D01*
X-16807Y-76998D01*
X-16823Y-76934D01*
X-16855Y-76858D01*
X-16887Y-76794D01*
X-16903Y-76730D01*
X-16935Y-76666D01*
X-16951Y-76590D01*
X-16967D01*
Y-76542D01*
X-16983Y-76526D01*
Y-76510D01*
X-16999Y-76494D01*
Y-76478D01*
X-17011Y-76446D01*
Y-76430D01*
X-17027Y-76398D01*
Y-76382D01*
X-17059Y-76322D01*
Y-76290D01*
X-17091Y-76226D01*
Y-76194D01*
X-17107Y-76162D01*
X-17123Y-76118D01*
X-17139Y-76086D01*
X-17155Y-76038D01*
X-17171Y-76006D01*
X-17187Y-75958D01*
X-17203Y-75926D01*
X-17359Y-75454D01*
X-17391Y-75406D01*
X-17407Y-75362D01*
X-17423Y-75298D01*
X-17471Y-75154D01*
X-17503Y-75094D01*
X-17531Y-74998D01*
X-17547Y-74934D01*
X-17563Y-74886D01*
X-17595Y-74842D01*
X-17611Y-74778D01*
X-17643Y-74682D01*
X-17675Y-74622D01*
X-17707Y-74526D01*
X-17723Y-74462D01*
X-17755Y-74370D01*
X-17783Y-74322D01*
X-17799Y-74258D01*
X-17879Y-74022D01*
X-17911Y-73974D01*
X-17975Y-73786D01*
X-17991Y-73754D01*
X-18019Y-73658D01*
Y-73626D01*
X-18035Y-73582D01*
X-18067Y-73518D01*
X-18083Y-73470D01*
X-18099Y-73438D01*
Y-73406D01*
X-18147Y-73314D01*
Y-73298D01*
X-18163Y-73266D01*
Y-73234D01*
X-18179Y-73218D01*
Y-73202D01*
X-18195Y-73170D01*
Y-73154D01*
X-18211Y-73138D01*
Y-73110D01*
X-18227D01*
Y-73062D01*
X-18243Y-73046D01*
Y-72966D01*
X-18227D01*
Y-72934D01*
X-18211D01*
Y-72918D01*
X-18179Y-72886D01*
X-18163D01*
Y-72870D01*
X-18131D01*
X-18115Y-72858D01*
X-16003D01*
Y-72870D01*
X-15943D01*
Y-72886D01*
X-15911D01*
X-15895Y-72902D01*
X-15879D01*
Y-72918D01*
X-15847D01*
Y-72934D01*
X-15831D01*
Y-72950D01*
X-15815D01*
Y-72966D01*
X-15799D01*
Y-72982D01*
X-15783Y-72998D01*
Y-73014D01*
X-15767D01*
Y-73046D01*
X-15755D01*
Y-73078D01*
X-15739Y-73094D01*
Y-73122D01*
X-15723Y-73138D01*
Y-73170D01*
X-15707Y-73186D01*
Y-73218D01*
X-15691Y-73234D01*
Y-73266D01*
X-15675Y-73298D01*
Y-73330D01*
X-15627Y-73422D01*
Y-73454D01*
X-15611Y-73502D01*
X-15595Y-73534D01*
X-15563Y-73626D01*
X-15547Y-73658D01*
Y-73706D01*
X-15487Y-73894D01*
X-15455Y-73958D01*
X-15423Y-74054D01*
X-15407Y-74118D01*
X-15391Y-74162D01*
X-15375Y-74226D01*
X-15359Y-74274D01*
X-15343Y-74338D01*
X-15311Y-74382D01*
X-15279Y-74510D01*
X-15263Y-74558D01*
X-15251Y-74622D01*
X-15219Y-74682D01*
X-15187Y-74810D01*
X-15171Y-74858D01*
X-15139Y-74918D01*
X-15091Y-75110D01*
X-15059Y-75170D01*
X-15043Y-75234D01*
X-15027Y-75282D01*
X-15011Y-75346D01*
X-14983Y-75406D01*
X-14951Y-75534D01*
X-14935Y-75582D01*
X-14903Y-75642D01*
X-14871Y-75770D01*
X-14855Y-75818D01*
X-14839Y-75878D01*
X-14807Y-75942D01*
X-14791Y-75990D01*
X-14775Y-76054D01*
X-14747Y-76146D01*
X-14731Y-76210D01*
X-14587Y-76634D01*
X-14571Y-76666D01*
X-14555Y-76714D01*
X-14539Y-76746D01*
Y-76794D01*
X-14507Y-76858D01*
Y-76886D01*
X-14479Y-76950D01*
Y-76966D01*
X-14463Y-76998D01*
Y-77014D01*
X-14447Y-77046D01*
Y-77078D01*
X-14431Y-77094D01*
Y-77138D01*
X-14415D01*
Y-77154D01*
X-14367Y-77202D01*
X-14351D01*
Y-77218D01*
X-14271D01*
Y-77202D01*
X-14255D01*
X-14227Y-77170D01*
Y-77154D01*
X-14211D01*
Y-77122D01*
X-14195Y-77110D01*
Y-77078D01*
X-14179Y-77062D01*
Y-77046D01*
X-14163Y-77014D01*
Y-76998D01*
X-14147Y-76966D01*
Y-76950D01*
X-14131Y-76918D01*
Y-76886D01*
X-14099Y-76826D01*
Y-76794D01*
X-14083Y-76746D01*
X-14067Y-76714D01*
X-14051Y-76666D01*
X-14035Y-76634D01*
X-14003Y-76542D01*
Y-76494D01*
X-13943Y-76306D01*
X-13911Y-76258D01*
X-13895Y-76210D01*
X-13879Y-76146D01*
X-13847Y-76054D01*
X-13831Y-75990D01*
X-13815Y-75942D01*
X-13799Y-75878D01*
X-13767Y-75818D01*
X-13723Y-75642D01*
X-13691Y-75582D01*
X-13675Y-75534D01*
X-13643Y-75406D01*
X-13611Y-75346D01*
X-13595Y-75282D01*
X-13579Y-75234D01*
X-13563Y-75170D01*
X-13531Y-75110D01*
X-13503Y-74982D01*
X-13471Y-74918D01*
X-13455Y-74858D01*
X-13439Y-74810D01*
X-13423Y-74746D01*
X-13391Y-74682D01*
X-13359Y-74558D01*
X-13343Y-74510D01*
X-13311Y-74446D01*
X-13295Y-74382D01*
X-13279Y-74338D01*
X-13235Y-74162D01*
X-13203Y-74118D01*
X-13187Y-74054D01*
X-13155Y-73958D01*
X-13139Y-73894D01*
X-13059Y-73658D01*
X-13043Y-73626D01*
X-13011Y-73534D01*
Y-73502D01*
X-12999Y-73454D01*
X-12967Y-73390D01*
Y-73362D01*
X-12935Y-73298D01*
Y-73266D01*
X-12919Y-73234D01*
Y-73218D01*
X-12903Y-73186D01*
Y-73170D01*
X-12887Y-73154D01*
Y-73122D01*
X-12871Y-73110D01*
Y-73078D01*
X-12855Y-73062D01*
Y-73030D01*
X-12839D01*
Y-72998D01*
X-12823D01*
Y-72982D01*
X-12775Y-72934D01*
X-12759D01*
Y-72918D01*
X-12747D01*
Y-72902D01*
X-12715D01*
Y-72886D01*
X-12683D01*
Y-72870D01*
X-12635D01*
X-12619Y-72858D01*
X-10507D01*
X-10495Y-72870D01*
X-10479D01*
X-10463Y-72886D01*
X-10447D01*
Y-72902D01*
X-10431D01*
Y-72918D01*
X-10415D01*
Y-72934D01*
X-10399Y-72950D01*
Y-73094D01*
X-10415D01*
Y-73138D01*
X-10431D01*
Y-73170D01*
X-10447Y-73186D01*
Y-73234D01*
X-10463Y-73250D01*
Y-73266D01*
X-10479Y-73282D01*
Y-73314D01*
X-10495Y-73330D01*
Y-73346D01*
X-10507Y-73374D01*
Y-73406D01*
X-10523Y-73438D01*
Y-73454D01*
X-10539Y-73486D01*
X-10555Y-73502D01*
Y-73534D01*
X-10571Y-73550D01*
Y-73582D01*
X-10587Y-73614D01*
Y-73626D01*
X-10619Y-73690D01*
Y-73722D01*
X-10651Y-73786D01*
Y-73818D01*
X-10699Y-73910D01*
Y-73942D01*
X-10715Y-73990D01*
X-10747Y-74054D01*
X-10759Y-74102D01*
X-10775Y-74130D01*
Y-74178D01*
X-10791Y-74210D01*
X-10807Y-74258D01*
X-10823Y-74290D01*
X-10839Y-74338D01*
X-10855Y-74370D01*
X-10935Y-74606D01*
X-10951Y-74634D01*
X-10983Y-74730D01*
X-10999Y-74794D01*
X-11027Y-74842D01*
X-11091Y-75030D01*
X-11107Y-75094D01*
X-11139Y-75138D01*
X-11155Y-75202D01*
X-11171Y-75250D01*
X-11187Y-75314D01*
X-11219Y-75362D01*
X-11235Y-75422D01*
X-11251Y-75470D01*
X-11279Y-75534D01*
X-11295Y-75598D01*
X-11311Y-75642D01*
X-11343Y-75706D01*
X-11359Y-75770D01*
X-11391Y-75834D01*
X-11407Y-75894D01*
X-11439Y-75958D01*
X-11455Y-76022D01*
X-11487Y-76086D01*
X-11503Y-76146D01*
X-11531Y-76210D01*
X-11547Y-76274D01*
X-11579Y-76338D01*
X-11595Y-76414D01*
X-11627Y-76478D01*
X-11643Y-76542D01*
X-11675Y-76622D01*
X-11691Y-76634D01*
Y-76682D01*
X-11707Y-76698D01*
Y-76714D01*
X-11723Y-76730D01*
Y-76762D01*
X-11739Y-76794D01*
Y-76810D01*
X-11767Y-76870D01*
Y-76918D01*
X-11799Y-76982D01*
X-11815Y-77030D01*
X-11831Y-77062D01*
X-11847Y-77110D01*
Y-77154D01*
X-11927Y-77390D01*
X-11959Y-77438D01*
X-11975Y-77502D01*
X-11991Y-77550D01*
X-12003Y-77614D01*
X-12019Y-77658D01*
X-12035Y-77722D01*
X-12067Y-77786D01*
X-12083Y-77834D01*
X-12115Y-77958D01*
X-12147Y-78022D01*
X-12179Y-78146D01*
X-12211Y-78210D01*
X-12243Y-78338D01*
X-12271Y-78398D01*
X-12303Y-78526D01*
X-12335Y-78590D01*
X-12367Y-78714D01*
X-12399Y-78794D01*
X-12431Y-78918D01*
X-12463Y-78982D01*
X-12479Y-79046D01*
X-12507Y-79110D01*
X-12539Y-79234D01*
X-12571Y-79298D01*
X-12603Y-79422D01*
X-12635Y-79486D01*
X-12683Y-79674D01*
X-12715Y-79738D01*
X-12731Y-79786D01*
X-12759Y-79910D01*
X-12791Y-79958D01*
X-12807Y-80022D01*
X-12823Y-80070D01*
X-12839Y-80130D01*
X-12967Y-80510D01*
X-12983Y-80542D01*
X-12999Y-80590D01*
Y-80622D01*
X-13011Y-80650D01*
X-13027Y-80698D01*
X-13043Y-80730D01*
Y-80762D01*
X-13059Y-80778D01*
Y-80810D01*
X-13075Y-80842D01*
Y-80858D01*
X-13091Y-80870D01*
Y-80918D01*
X-13107D01*
Y-80950D01*
X-13123Y-80966D01*
Y-80998D01*
X-13139D01*
Y-87422D01*
X-13155D01*
Y-87518D01*
X-13171D01*
Y-87534D01*
X-13187Y-87550D01*
G37*
G36*
G01X-30626Y27226D02*
Y31210D01*
X-32936D01*
Y32154D01*
X-30626D01*
Y39282D01*
X-32936D01*
Y40028D01*
X-30626D01*
Y47156D01*
X-32936D01*
Y48098D01*
X-30626D01*
Y52082D01*
X-28155D01*
X-26140Y50067D01*
Y48906D01*
G03X-25113Y46896I2482J1D01*
G02X-25347Y46172I-234J-324D01*
G01X-26927D01*
Y36036D01*
X-27027D01*
Y33038D01*
X-25476D01*
G02X-25224Y32328I0J-400D01*
G03X-26140Y30402I1566J-1926D01*
G01Y29242D01*
X-28155Y27226D01*
X-30626D01*
G37*
G36*
G01X-7327Y-93122D02*
X-7343D01*
Y-93138D01*
X-7359D01*
Y-93154D01*
X-7375D01*
Y-93170D01*
X-7391D01*
Y-93186D01*
X-7407D01*
X-7439Y-93218D01*
X-7455D01*
Y-93234D01*
X-7471D01*
X-7487Y-93250D01*
X-7503D01*
Y-93266D01*
X-7515D01*
X-7531Y-93282D01*
X-7547D01*
Y-93298D01*
X-7563D01*
X-7579Y-93314D01*
X-7611D01*
Y-93330D01*
X-7627D01*
X-7643Y-93346D01*
X-7675D01*
Y-93362D01*
X-7707D01*
X-7723Y-93374D01*
X-7755D01*
Y-93390D01*
X-7799D01*
X-7815Y-93406D01*
X-7863D01*
Y-93422D01*
X-7927D01*
X-7943Y-93438D01*
X-8019D01*
Y-93454D01*
X-9515D01*
Y-89974D01*
X-8051D01*
X-8035Y-89990D01*
X-7943D01*
Y-90006D01*
X-7879D01*
X-7863Y-90022D01*
X-7815D01*
Y-90038D01*
X-7767D01*
X-7755Y-90054D01*
X-7723D01*
Y-90070D01*
X-7691D01*
X-7675Y-90086D01*
X-7643D01*
Y-90102D01*
X-7611D01*
Y-90118D01*
X-7579D01*
X-7563Y-90130D01*
X-7547D01*
Y-90146D01*
X-7531D01*
X-7515Y-90162D01*
X-7503D01*
Y-90178D01*
X-7487D01*
X-7471Y-90194D01*
X-7455D01*
Y-90210D01*
X-7439D01*
Y-90226D01*
X-7423D01*
X-7407Y-90242D01*
X-7391D01*
Y-90258D01*
X-7375D01*
Y-90274D01*
X-7359Y-90290D01*
X-7343D01*
Y-90306D01*
X-7327Y-90322D01*
X-7311D01*
Y-90338D01*
X-7251Y-90398D01*
Y-90414D01*
X-7235D01*
X-7219Y-90430D01*
Y-90446D01*
X-7203Y-90462D01*
Y-90478D01*
X-7187D01*
Y-90494D01*
X-7171Y-90510D01*
Y-90526D01*
X-7139Y-90558D01*
Y-90590D01*
X-7123Y-90606D01*
Y-90622D01*
X-7107D01*
Y-90650D01*
X-7091Y-90666D01*
Y-90698D01*
X-7075D01*
Y-90730D01*
X-7059Y-90746D01*
Y-90794D01*
X-7043D01*
Y-90842D01*
X-7027Y-90858D01*
Y-90902D01*
X-7011Y-90918D01*
Y-91030D01*
X-6999D01*
Y-91218D01*
X-6983Y-91234D01*
Y-92178D01*
X-6999Y-92194D01*
Y-92382D01*
X-7011D01*
Y-92494D01*
X-7027Y-92510D01*
Y-92574D01*
X-7043D01*
Y-92622D01*
X-7059Y-92634D01*
Y-92682D01*
X-7075Y-92698D01*
Y-92714D01*
X-7091Y-92730D01*
Y-92762D01*
X-7107Y-92778D01*
Y-92794D01*
X-7123Y-92810D01*
Y-92826D01*
X-7139Y-92842D01*
Y-92870D01*
X-7155D01*
Y-92886D01*
X-7171Y-92902D01*
Y-92918D01*
X-7187Y-92934D01*
Y-92950D01*
X-7203D01*
Y-92966D01*
X-7219Y-92982D01*
Y-92998D01*
X-7235Y-93014D01*
X-7251D01*
Y-93030D01*
X-7311Y-93094D01*
Y-93110D01*
X-7327Y-93122D01*
G37*
G36*
G01X-715Y-93094D02*
X-747Y-93122D01*
X-775Y-93154D01*
X-791D01*
Y-93170D01*
X-807D01*
Y-93186D01*
X-823D01*
Y-93202D01*
X-839D01*
Y-93218D01*
X-855D01*
X-871Y-93234D01*
X-887D01*
Y-93250D01*
X-903D01*
X-919Y-93266D01*
X-935D01*
Y-93282D01*
X-967D01*
Y-93298D01*
X-983D01*
X-999Y-93314D01*
X-1011D01*
X-1027Y-93330D01*
X-1043D01*
X-1059Y-93346D01*
X-1075D01*
X-1091Y-93362D01*
X-1123D01*
Y-93374D01*
X-1171D01*
Y-93390D01*
X-1219D01*
Y-93406D01*
X-1263D01*
X-1279Y-93422D01*
X-1343D01*
Y-93438D01*
X-1423D01*
X-1439Y-93454D01*
X-2935D01*
Y-89974D01*
X-1455D01*
Y-89990D01*
X-1359D01*
X-1343Y-90006D01*
X-1279D01*
Y-90022D01*
X-1235D01*
X-1219Y-90038D01*
X-1187D01*
X-1171Y-90054D01*
X-1139D01*
X-1123Y-90070D01*
X-1091D01*
Y-90086D01*
X-1059D01*
Y-90102D01*
X-1027D01*
X-1011Y-90118D01*
X-999D01*
X-983Y-90130D01*
X-967D01*
Y-90146D01*
X-935D01*
Y-90162D01*
X-919D01*
X-903Y-90178D01*
X-887D01*
Y-90194D01*
X-871D01*
X-839Y-90226D01*
X-823D01*
Y-90242D01*
X-807D01*
Y-90258D01*
X-791D01*
Y-90274D01*
X-775D01*
Y-90290D01*
X-759D01*
X-747Y-90306D01*
Y-90322D01*
X-731D01*
X-715Y-90338D01*
Y-90354D01*
X-699Y-90370D01*
X-683D01*
Y-90382D01*
X-635Y-90430D01*
Y-90446D01*
X-587Y-90494D01*
Y-90510D01*
X-571Y-90526D01*
Y-90542D01*
X-555D01*
Y-90574D01*
X-539Y-90590D01*
Y-90606D01*
X-523Y-90622D01*
Y-90634D01*
X-507Y-90650D01*
Y-90682D01*
X-495Y-90698D01*
Y-90714D01*
X-479Y-90730D01*
Y-90762D01*
X-463Y-90778D01*
Y-90810D01*
X-447Y-90826D01*
Y-90886D01*
X-431Y-90902D01*
Y-90982D01*
X-415Y-90998D01*
Y-91122D01*
X-399Y-91138D01*
Y-92274D01*
X-415Y-92290D01*
Y-92414D01*
X-431Y-92430D01*
Y-92526D01*
X-447Y-92542D01*
Y-92590D01*
X-463Y-92606D01*
Y-92650D01*
X-479Y-92666D01*
Y-92698D01*
X-495D01*
Y-92730D01*
X-507Y-92746D01*
Y-92778D01*
X-523Y-92794D01*
Y-92810D01*
X-539Y-92826D01*
Y-92842D01*
X-555Y-92858D01*
Y-92870D01*
X-571Y-92886D01*
Y-92902D01*
X-587Y-92918D01*
Y-92934D01*
X-635Y-92982D01*
Y-92998D01*
X-683Y-93046D01*
Y-93062D01*
X-699D01*
X-715Y-93078D01*
Y-93094D01*
G37*
G36*
G01X-10715Y-93078D02*
X-10791Y-93154D01*
X-10807D01*
Y-93170D01*
X-10823D01*
Y-93186D01*
X-10839D01*
Y-93202D01*
X-10855D01*
Y-93218D01*
X-10871D01*
X-10887Y-93234D01*
X-10903D01*
Y-93250D01*
X-10919D01*
X-10935Y-93266D01*
X-10951D01*
Y-93282D01*
X-10983D01*
Y-93298D01*
X-10999D01*
X-11011Y-93314D01*
X-11027D01*
X-11043Y-93330D01*
X-11059D01*
X-11075Y-93346D01*
X-11091D01*
X-11107Y-93362D01*
X-11139D01*
Y-93374D01*
X-11171D01*
X-11187Y-93390D01*
X-11235D01*
Y-93406D01*
X-11279D01*
X-11295Y-93422D01*
X-11359D01*
Y-93438D01*
X-11439D01*
X-11455Y-93454D01*
X-12951D01*
Y-89974D01*
X-11471D01*
Y-89990D01*
X-11375D01*
X-11359Y-90006D01*
X-11295D01*
Y-90022D01*
X-11251D01*
X-11235Y-90038D01*
X-11203D01*
X-11187Y-90054D01*
X-11155D01*
X-11139Y-90070D01*
X-11107D01*
Y-90086D01*
X-11075D01*
Y-90102D01*
X-11043D01*
X-11027Y-90118D01*
X-11011D01*
X-10999Y-90130D01*
X-10983D01*
Y-90146D01*
X-10951D01*
Y-90162D01*
X-10935D01*
X-10919Y-90178D01*
X-10903D01*
Y-90194D01*
X-10887D01*
X-10855Y-90226D01*
X-10839D01*
Y-90242D01*
X-10823D01*
Y-90258D01*
X-10807D01*
Y-90274D01*
X-10791D01*
Y-90290D01*
X-10775D01*
X-10759Y-90306D01*
Y-90322D01*
X-10747D01*
X-10715Y-90354D01*
Y-90370D01*
X-10699D01*
Y-90382D01*
X-10651Y-90430D01*
Y-90446D01*
X-10603Y-90494D01*
Y-90510D01*
X-10587Y-90526D01*
Y-90542D01*
X-10571D01*
Y-90574D01*
X-10555Y-90590D01*
Y-90606D01*
X-10539Y-90622D01*
Y-90634D01*
X-10523Y-90650D01*
Y-90682D01*
X-10507Y-90698D01*
Y-90714D01*
X-10495Y-90730D01*
Y-90762D01*
X-10479Y-90778D01*
Y-90810D01*
X-10463Y-90826D01*
Y-90886D01*
X-10447Y-90902D01*
Y-90982D01*
X-10431Y-90998D01*
Y-91110D01*
X-10415Y-91122D01*
Y-92290D01*
X-10431Y-92306D01*
Y-92414D01*
X-10447Y-92430D01*
Y-92526D01*
X-10463Y-92542D01*
Y-92590D01*
X-10479Y-92606D01*
Y-92650D01*
X-10495Y-92666D01*
Y-92698D01*
X-10507D01*
Y-92730D01*
X-10523Y-92746D01*
Y-92778D01*
X-10539Y-92794D01*
Y-92810D01*
X-10555Y-92826D01*
Y-92842D01*
X-10571Y-92858D01*
Y-92870D01*
X-10587Y-92886D01*
Y-92902D01*
X-10603Y-92918D01*
Y-92934D01*
X-10651Y-92982D01*
Y-92998D01*
X-10699Y-93046D01*
Y-93062D01*
X-10715D01*
Y-93078D01*
G37*
G36*
G01X-6099Y-89974D02*
X-3799D01*
Y-90574D01*
X-5407D01*
Y-91390D01*
X-4035D01*
Y-92006D01*
X-5407D01*
Y-92858D01*
X-3799D01*
Y-93454D01*
X-6099D01*
Y-89974D01*
G37*
G36*
G01X-16115D02*
X-13815D01*
Y-90574D01*
X-15423D01*
Y-91390D01*
X-14051D01*
Y-92006D01*
X-15423D01*
Y-92858D01*
X-13815D01*
Y-93454D01*
X-16115D01*
Y-89974D01*
G37*
G36*
G01X-1187Y-78698D02*
X-1235Y-79078D01*
X-1251Y-79186D01*
X-1279Y-79314D01*
X-1295Y-79422D01*
X-1327Y-79534D01*
X-1375Y-79658D01*
X-1407Y-79770D01*
X-1503Y-79990D01*
X-1547Y-80086D01*
X-1611Y-80194D01*
X-1659Y-80306D01*
X-1723Y-80398D01*
X-1783Y-80510D01*
X-1863Y-80606D01*
X-1927Y-80698D01*
X-2083Y-80886D01*
X-2179Y-80982D01*
X-2255Y-81078D01*
X-2351Y-81154D01*
X-2447Y-81250D01*
X-2635Y-81406D01*
X-2731Y-81470D01*
X-2839Y-81550D01*
X-3027Y-81674D01*
X-3139Y-81722D01*
X-3251Y-81786D01*
X-3343Y-81834D01*
X-3563Y-81926D01*
X-3675Y-81958D01*
X-3799Y-82006D01*
X-3911Y-82038D01*
X-4019Y-82054D01*
X-4147Y-82086D01*
X-4255Y-82102D01*
X-4635Y-82146D01*
X-6399D01*
X-6415Y-82162D01*
X-6447D01*
X-6463Y-82178D01*
X-6495D01*
X-6555Y-82242D01*
Y-82258D01*
X-6571Y-82274D01*
Y-82322D01*
X-6587Y-82338D01*
Y-87470D01*
X-6603Y-87486D01*
Y-87518D01*
X-6619Y-87534D01*
Y-87550D01*
X-6651Y-87582D01*
Y-87598D01*
X-6667D01*
X-6683Y-87614D01*
X-6699D01*
X-6715Y-87626D01*
X-6731D01*
X-6747Y-87642D01*
X-8747D01*
X-8759Y-87626D01*
X-8791D01*
Y-87614D01*
X-8807D01*
X-8823Y-87598D01*
X-8839D01*
Y-87582D01*
X-8855Y-87566D01*
X-8871D01*
Y-87550D01*
X-8887Y-87534D01*
Y-87502D01*
X-8903Y-87486D01*
Y-72982D01*
X-8887Y-72966D01*
Y-72950D01*
X-8871Y-72934D01*
Y-72918D01*
X-8855Y-72902D01*
X-8839D01*
Y-72886D01*
X-8823Y-72870D01*
X-8807D01*
X-8791Y-72858D01*
X-8775D01*
X-8759Y-72842D01*
X-4635D01*
X-4131Y-72902D01*
X-4019Y-72934D01*
X-3895Y-72950D01*
X-3783Y-72982D01*
X-3675Y-73030D01*
X-3563Y-73062D01*
X-3123Y-73250D01*
X-3027Y-73314D01*
X-2919Y-73374D01*
X-2823Y-73438D01*
X-2715Y-73502D01*
X-2431Y-73738D01*
X-2255Y-73910D01*
X-2163Y-73990D01*
X-1847Y-74370D01*
X-1783Y-74478D01*
X-1723Y-74574D01*
X-1659Y-74682D01*
X-1595Y-74778D01*
X-1407Y-75218D01*
X-1375Y-75330D01*
X-1327Y-75438D01*
X-1295Y-75550D01*
X-1279Y-75674D01*
X-1251Y-75786D01*
X-1187Y-76290D01*
Y-78698D01*
G37*
G36*
G01X4245Y-91314D02*
Y-93454D01*
X3569D01*
Y-89974D01*
X4169D01*
X5553Y-92102D01*
Y-89974D01*
X6233D01*
Y-93454D01*
X5633D01*
X4245Y-91314D01*
G37*
G36*
G01X2925Y-87598D02*
Y-87614D01*
X2893D01*
Y-87626D01*
X2845D01*
Y-87642D01*
X845D01*
Y-87626D01*
X797D01*
Y-87614D01*
X765D01*
Y-87598D01*
X749D01*
Y-87582D01*
X737D01*
Y-87566D01*
X721D01*
Y-87534D01*
X705D01*
Y-87502D01*
X689Y-87486D01*
Y-72982D01*
X705D01*
Y-72950D01*
X721D01*
Y-72918D01*
X737D01*
Y-72902D01*
X749D01*
Y-72886D01*
X765D01*
Y-72870D01*
X797D01*
Y-72858D01*
X829D01*
X845Y-72842D01*
X5001D01*
X5033Y-72858D01*
X5161D01*
X5193Y-72870D01*
X5269D01*
X5301Y-72886D01*
X5397D01*
X5413Y-72902D01*
X5477D01*
X5505Y-72918D01*
X5537D01*
X5553Y-72934D01*
X5617D01*
X5649Y-72950D01*
X5681D01*
X5697Y-72966D01*
X5729D01*
X5757Y-72982D01*
X5789D01*
X5805Y-72998D01*
X5837D01*
X5869Y-73014D01*
X5885D01*
X5949Y-73046D01*
X5981D01*
X5997Y-73062D01*
X6025D01*
X6057Y-73078D01*
X6073Y-73094D01*
X6105D01*
X6137Y-73110D01*
X6153Y-73122D01*
X6185Y-73138D01*
X6217D01*
X6233Y-73154D01*
X6293Y-73186D01*
X6309D01*
X6341Y-73202D01*
X6357Y-73218D01*
X6421Y-73250D01*
X6437D01*
X6469Y-73266D01*
X6485Y-73282D01*
X6545Y-73314D01*
X6561Y-73330D01*
X6593Y-73346D01*
X6609Y-73362D01*
X6641Y-73374D01*
X6657Y-73390D01*
X6689Y-73406D01*
X6705Y-73422D01*
X6737Y-73438D01*
X6749Y-73454D01*
X6813Y-73486D01*
X6829Y-73502D01*
X6861Y-73518D01*
X6893Y-73550D01*
X6925Y-73566D01*
X6989Y-73626D01*
X7017Y-73642D01*
X7033Y-73658D01*
X7065Y-73674D01*
X7081Y-73706D01*
X7113Y-73722D01*
X7193Y-73802D01*
X7225Y-73818D01*
X7241Y-73850D01*
X7253Y-73866D01*
X7285Y-73878D01*
X7301Y-73910D01*
X7333Y-73926D01*
X7349Y-73942D01*
X7365Y-73974D01*
X7397Y-73990D01*
X7413Y-74022D01*
X7429Y-74038D01*
X7461Y-74054D01*
X7477Y-74086D01*
X7493Y-74102D01*
X7505Y-74130D01*
X7537Y-74146D01*
X7553Y-74178D01*
X7569Y-74194D01*
X7585Y-74226D01*
X7601Y-74242D01*
X7633Y-74258D01*
X7649Y-74290D01*
X7665Y-74306D01*
X7681Y-74338D01*
X7697Y-74354D01*
X7713Y-74382D01*
X7729Y-74398D01*
X7745Y-74430D01*
X7773Y-74446D01*
X7789Y-74478D01*
X7805Y-74494D01*
X7837Y-74558D01*
X7853Y-74574D01*
X7869Y-74606D01*
X7885Y-74622D01*
X7901Y-74650D01*
X7917Y-74666D01*
Y-74698D01*
X7933Y-74714D01*
X7965Y-74778D01*
X7981Y-74794D01*
X7997Y-74826D01*
X8009Y-74842D01*
X8025Y-74870D01*
Y-74902D01*
X8041Y-74918D01*
X8057Y-74950D01*
X8073Y-74966D01*
Y-74998D01*
X8089Y-75030D01*
X8105Y-75046D01*
X8121Y-75078D01*
Y-75110D01*
X8137Y-75122D01*
X8153Y-75154D01*
Y-75186D01*
X8169Y-75202D01*
X8185Y-75234D01*
Y-75266D01*
X8201Y-75298D01*
X8217Y-75314D01*
Y-75346D01*
X8233Y-75374D01*
Y-75390D01*
X8245Y-75422D01*
Y-75454D01*
X8261Y-75486D01*
Y-75502D01*
X8277Y-75534D01*
Y-75566D01*
X8293Y-75598D01*
Y-75614D01*
X8309Y-75642D01*
Y-75706D01*
X8325Y-75738D01*
Y-75754D01*
X8341Y-75786D01*
Y-75850D01*
X8357Y-75878D01*
Y-75958D01*
X8373Y-75990D01*
Y-76086D01*
X8389Y-76102D01*
Y-76226D01*
X8405Y-76258D01*
Y-78382D01*
X8389Y-78414D01*
Y-78558D01*
X8373Y-78590D01*
Y-78682D01*
X8357Y-78714D01*
Y-78778D01*
X8341Y-78810D01*
Y-78842D01*
X8325Y-78870D01*
Y-78902D01*
X8309Y-78934D01*
Y-78966D01*
X8293Y-78998D01*
Y-79030D01*
X8277Y-79062D01*
Y-79094D01*
X8261Y-79122D01*
Y-79154D01*
X8245Y-79170D01*
Y-79202D01*
X8217Y-79266D01*
Y-79298D01*
X8169Y-79390D01*
Y-79422D01*
X8121Y-79518D01*
X8105Y-79534D01*
Y-79566D01*
X8025Y-79722D01*
X8009Y-79738D01*
X7933Y-79894D01*
X7917Y-79910D01*
X7853Y-80038D01*
X7821Y-80054D01*
X7757Y-80178D01*
X7729Y-80194D01*
X7697Y-80258D01*
X7649Y-80306D01*
X7633Y-80338D01*
X7601Y-80370D01*
X7585Y-80398D01*
X7537Y-80446D01*
X7521Y-80478D01*
X7493Y-80494D01*
X7477Y-80526D01*
X7397Y-80606D01*
X7381Y-80634D01*
X7145Y-80870D01*
X7113Y-80886D01*
X7097Y-80918D01*
X7065Y-80950D01*
X7033Y-80966D01*
X6973Y-81030D01*
X6941Y-81046D01*
Y-81062D01*
X6925D01*
X6893Y-81094D01*
X6877D01*
Y-81110D01*
X6861D01*
Y-81138D01*
X6845D01*
Y-81170D01*
X6829D01*
Y-81202D01*
X6813Y-81218D01*
Y-81406D01*
X6829Y-81422D01*
Y-81470D01*
X6845Y-81486D01*
Y-81550D01*
X6861Y-81566D01*
Y-81626D01*
X6877Y-81642D01*
Y-81674D01*
X6893Y-81690D01*
Y-81738D01*
X6909Y-81754D01*
Y-81802D01*
X6925Y-81834D01*
Y-81878D01*
X6941Y-81894D01*
Y-81926D01*
X6957Y-81958D01*
Y-82006D01*
X6973Y-82038D01*
Y-82070D01*
X6989Y-82086D01*
Y-82118D01*
X7001Y-82146D01*
Y-82178D01*
X7017Y-82210D01*
Y-82242D01*
X7033Y-82274D01*
Y-82306D01*
X7049Y-82338D01*
Y-82370D01*
X7065Y-82398D01*
Y-82430D01*
X7081Y-82462D01*
X7097Y-82510D01*
Y-82542D01*
X7113Y-82574D01*
Y-82606D01*
X7129Y-82650D01*
X7145Y-82682D01*
Y-82714D01*
X7161Y-82762D01*
X7177Y-82794D01*
Y-82842D01*
X7193Y-82870D01*
X7209Y-82918D01*
Y-82950D01*
X7241Y-83046D01*
Y-83078D01*
X7269Y-83170D01*
X7285Y-83202D01*
Y-83250D01*
X7317Y-83346D01*
X7333Y-83374D01*
X7349Y-83422D01*
Y-83470D01*
X7445Y-83754D01*
Y-83802D01*
X7493Y-83942D01*
X7505Y-84006D01*
X7569Y-84194D01*
Y-84242D01*
X7585D01*
Y-84290D01*
X7601Y-84306D01*
Y-84354D01*
X7617Y-84370D01*
Y-84414D01*
X7633Y-84446D01*
Y-84478D01*
X7649Y-84510D01*
Y-84542D01*
X7665Y-84574D01*
Y-84606D01*
X7681Y-84634D01*
Y-84666D01*
X7713Y-84730D01*
Y-84778D01*
X7729Y-84810D01*
X7745Y-84858D01*
Y-84886D01*
X7773Y-84982D01*
Y-85014D01*
X7805Y-85110D01*
Y-85138D01*
X7853Y-85282D01*
Y-85330D01*
X7901Y-85470D01*
Y-85518D01*
X7949Y-85658D01*
Y-85706D01*
X8009Y-85894D01*
Y-85942D01*
X8073Y-86130D01*
Y-86178D01*
X8121Y-86322D01*
Y-86370D01*
X8153Y-86462D01*
Y-86494D01*
X8201Y-86634D01*
Y-86666D01*
X8217Y-86714D01*
X8233Y-86746D01*
Y-86794D01*
X8245Y-86826D01*
Y-86870D01*
X8277Y-86934D01*
Y-86966D01*
X8293Y-86998D01*
Y-87030D01*
X8309Y-87062D01*
Y-87094D01*
X8325Y-87122D01*
Y-87154D01*
X8341Y-87186D01*
Y-87234D01*
X8357Y-87250D01*
Y-87298D01*
X8373Y-87314D01*
Y-87362D01*
X8389D01*
Y-87422D01*
X8405D01*
Y-87534D01*
X8389D01*
Y-87566D01*
X8357Y-87598D01*
Y-87614D01*
X8325D01*
Y-87626D01*
X8293D01*
Y-87642D01*
X6309D01*
Y-87626D01*
X6261D01*
Y-87614D01*
X6233D01*
Y-87598D01*
X6217D01*
X6201Y-87582D01*
X6185D01*
Y-87566D01*
X6169D01*
Y-87550D01*
X6153Y-87534D01*
Y-87518D01*
X6137D01*
Y-87502D01*
X6121Y-87486D01*
Y-87470D01*
X6105D01*
Y-87438D01*
X6089Y-87422D01*
Y-87390D01*
X6073Y-87374D01*
Y-87330D01*
X6057Y-87298D01*
Y-87282D01*
X6041Y-87250D01*
Y-87218D01*
X6025Y-87186D01*
X6009Y-87138D01*
Y-87110D01*
X5997Y-87062D01*
X5981Y-87030D01*
Y-86982D01*
X5965Y-86934D01*
X5949Y-86870D01*
X5917Y-86778D01*
X5901Y-86714D01*
X5885Y-86666D01*
X5805Y-86354D01*
X5789Y-86274D01*
X5757Y-86210D01*
X5745Y-86130D01*
X5729Y-86070D01*
X5713Y-85990D01*
X5697Y-85926D01*
X5665Y-85850D01*
X5633Y-85690D01*
X5601Y-85614D01*
X5569Y-85454D01*
X5537Y-85374D01*
X5505Y-85218D01*
X5477Y-85138D01*
X5461Y-85062D01*
X5429Y-84966D01*
X5397Y-84810D01*
X5365Y-84730D01*
X5349Y-84634D01*
X5317Y-84558D01*
X5285Y-84398D01*
X5253Y-84306D01*
X5241Y-84226D01*
X5209Y-84146D01*
X5177Y-83990D01*
X5145Y-83910D01*
X5129Y-83834D01*
X5097Y-83754D01*
X5065Y-83598D01*
X5033Y-83518D01*
X4989Y-83282D01*
X4957Y-83218D01*
X4941Y-83138D01*
X4909Y-83014D01*
X4893Y-82934D01*
X4877Y-82870D01*
X4845Y-82810D01*
X4797Y-82622D01*
X4781Y-82574D01*
X4765Y-82510D01*
X4749Y-82462D01*
Y-82398D01*
X4689Y-82210D01*
Y-82178D01*
X4673Y-82130D01*
X4657Y-82102D01*
Y-82070D01*
X4641Y-82038D01*
Y-82006D01*
X4625Y-81990D01*
Y-81942D01*
X4609Y-81926D01*
Y-81878D01*
X4593D01*
Y-81834D01*
X4577D01*
Y-81818D01*
X4561Y-81802D01*
Y-81786D01*
X4545D01*
Y-81770D01*
X4513Y-81738D01*
Y-81722D01*
X4497D01*
Y-81706D01*
X4469D01*
Y-81690D01*
X4453D01*
X4437Y-81674D01*
X4405D01*
Y-81658D01*
X4341D01*
Y-81642D01*
X3209D01*
Y-81658D01*
X3145D01*
X3129Y-81674D01*
X3113D01*
X3097Y-81690D01*
X3081D01*
Y-81706D01*
X3065D01*
Y-81722D01*
X3049D01*
Y-81738D01*
X3033D01*
Y-81770D01*
X3017Y-81786D01*
Y-81834D01*
X3001D01*
Y-87486D01*
X2989Y-87502D01*
Y-87534D01*
X2973D01*
Y-87566D01*
X2957D01*
Y-87582D01*
X2941D01*
Y-87598D01*
X2925D01*
G37*
G36*
G01X13681Y-93202D02*
X13649Y-93218D01*
X13601Y-93250D01*
X13569Y-93266D01*
X13537Y-93298D01*
X13505Y-93314D01*
X13461Y-93346D01*
X13397Y-93374D01*
X13349Y-93390D01*
X13317Y-93406D01*
X13269Y-93422D01*
X13241Y-93438D01*
X13193Y-93454D01*
X13145D01*
X13113Y-93470D01*
X13065D01*
X13017Y-93486D01*
X12641D01*
X12593Y-93470D01*
X12545D01*
X12497Y-93454D01*
X12453D01*
X12421Y-93438D01*
X12373Y-93422D01*
X12341Y-93406D01*
X12293Y-93390D01*
X12261Y-93374D01*
X12217Y-93362D01*
X12185Y-93346D01*
X12153Y-93314D01*
X12105Y-93298D01*
X12073Y-93266D01*
X12041Y-93250D01*
X12009Y-93218D01*
X11981Y-93202D01*
X11789Y-93014D01*
X11697Y-92870D01*
X11681Y-92826D01*
X11649Y-92778D01*
X11633Y-92730D01*
X11617Y-92666D01*
X11601Y-92622D01*
X11585Y-92558D01*
X11569Y-92510D01*
Y-92446D01*
X11553Y-92382D01*
Y-92274D01*
X11537Y-92210D01*
Y-91234D01*
X11553Y-91170D01*
Y-91046D01*
X11569Y-90982D01*
Y-90918D01*
X11585Y-90870D01*
X11601Y-90810D01*
X11617Y-90762D01*
X11633Y-90698D01*
X11649Y-90650D01*
X11681Y-90606D01*
X11697Y-90558D01*
X11789Y-90414D01*
X11949Y-90258D01*
X11981Y-90242D01*
X12041Y-90178D01*
X12073Y-90162D01*
X12105Y-90130D01*
X12153Y-90118D01*
X12185Y-90102D01*
X12217Y-90070D01*
X12261Y-90054D01*
X12293Y-90038D01*
X12341Y-90022D01*
X12373Y-90006D01*
X12421Y-89990D01*
X12453D01*
X12545Y-89958D01*
X12593D01*
X12641Y-89942D01*
X13017D01*
X13065Y-89958D01*
X13113D01*
X13145Y-89974D01*
X13193Y-89990D01*
X13241D01*
X13269Y-90006D01*
X13317Y-90022D01*
X13349Y-90038D01*
X13397Y-90054D01*
X13429Y-90070D01*
X13461Y-90102D01*
X13505Y-90118D01*
X13537Y-90130D01*
X13569Y-90162D01*
X13601Y-90178D01*
X13649Y-90210D01*
X13681Y-90242D01*
X13713Y-90258D01*
X13773Y-90322D01*
X13805Y-90370D01*
X13853Y-90414D01*
X13981Y-90606D01*
X14009Y-90698D01*
X14025Y-90762D01*
X14041Y-90810D01*
X14057Y-90870D01*
X14073Y-90918D01*
X14089Y-90982D01*
Y-91046D01*
X14105Y-91110D01*
Y-91298D01*
X14121Y-91362D01*
Y-92070D01*
X14105Y-92130D01*
Y-92322D01*
X14089Y-92382D01*
Y-92446D01*
X14073Y-92510D01*
X14057Y-92558D01*
X14041Y-92622D01*
X14025Y-92666D01*
X14009Y-92730D01*
X13981Y-92826D01*
X13853Y-93014D01*
X13805Y-93062D01*
X13773Y-93110D01*
X13681Y-93202D01*
G37*
G36*
G01X9981Y-93454D02*
X9301D01*
Y-90574D01*
X8389D01*
Y-89974D01*
X10893D01*
Y-90574D01*
X9981D01*
Y-93454D01*
G37*
G36*
G01X17697Y-85470D02*
Y-87502D01*
X17681Y-87518D01*
Y-87534D01*
X17665Y-87550D01*
Y-87566D01*
X17649D01*
Y-87582D01*
X17633D01*
Y-87598D01*
X17617D01*
Y-87614D01*
X17585D01*
Y-87626D01*
X17537D01*
Y-87642D01*
X10497D01*
Y-87626D01*
X10453D01*
Y-87614D01*
X10437D01*
X10421Y-87598D01*
X10405D01*
Y-87582D01*
X10389D01*
Y-87566D01*
X10373D01*
Y-87534D01*
X10357D01*
Y-87502D01*
X10341Y-87486D01*
Y-73014D01*
X10357D01*
Y-72966D01*
X10373D01*
Y-72950D01*
X10389Y-72934D01*
Y-72918D01*
X10405D01*
Y-72902D01*
X10421D01*
Y-72886D01*
X10453D01*
X10469Y-72870D01*
X10497D01*
Y-72858D01*
X17537D01*
Y-72870D01*
X17585D01*
Y-72886D01*
X17617D01*
Y-72902D01*
X17633D01*
Y-72918D01*
X17649D01*
Y-72934D01*
X17665D01*
Y-72950D01*
X17681D01*
Y-72998D01*
X17697D01*
Y-75046D01*
X17681D01*
Y-75078D01*
X17665D01*
Y-75094D01*
X17617Y-75138D01*
X17601D01*
Y-75154D01*
X17569D01*
X17553Y-75170D01*
X12893D01*
Y-75186D01*
X12797D01*
Y-75202D01*
X12765D01*
Y-75218D01*
X12737D01*
Y-75234D01*
X12721D01*
Y-75250D01*
X12705D01*
Y-75266D01*
X12689Y-75282D01*
Y-75298D01*
X12673Y-75314D01*
Y-75362D01*
X12657D01*
Y-78918D01*
X12673D01*
Y-78966D01*
X12689D01*
Y-78998D01*
X12721Y-79030D01*
Y-79046D01*
X12737D01*
X12749Y-79062D01*
X12765D01*
Y-79078D01*
X12797D01*
X12813Y-79094D01*
X16529D01*
Y-79110D01*
X16609D01*
Y-79122D01*
X16641D01*
Y-79138D01*
X16657D01*
X16689Y-79170D01*
Y-79186D01*
X16705D01*
Y-79202D01*
X16721D01*
Y-79234D01*
X16737Y-79250D01*
Y-81266D01*
X16721Y-81282D01*
Y-81314D01*
X16705D01*
Y-81330D01*
X16673Y-81362D01*
Y-81374D01*
X16657D01*
X16641Y-81390D01*
X16625D01*
X16609Y-81406D01*
X16561D01*
Y-81422D01*
X12829D01*
Y-81438D01*
X12781D01*
X12765Y-81454D01*
X12749D01*
Y-81470D01*
X12737D01*
X12705Y-81502D01*
Y-81518D01*
X12689D01*
Y-81550D01*
X12673D01*
Y-81598D01*
X12657D01*
Y-85138D01*
X12673D01*
Y-85186D01*
X12689Y-85202D01*
Y-85234D01*
X12705D01*
Y-85250D01*
X12721D01*
Y-85266D01*
X12737D01*
Y-85282D01*
X12765D01*
Y-85298D01*
X12797D01*
Y-85314D01*
X12893D01*
Y-85330D01*
X17569D01*
Y-85346D01*
X17601D01*
Y-85362D01*
X17617D01*
X17665Y-85406D01*
Y-85422D01*
X17681D01*
Y-85454D01*
X17697Y-85470D01*
G37*
G36*
G01X607Y53268D02*
X452Y53423D01*
Y77527D01*
X454Y77529D01*
Y77620D01*
X811Y77877D01*
X902Y78328D01*
Y81304D01*
X1046Y81346D01*
G03X1961Y88256I-1046J3654D01*
G02X2168Y88998I207J342D01*
G01X4727D01*
X6749Y86976D01*
X6676Y86844D01*
G03X13324I3324J-1844D01*
G01X13251Y86976D01*
X15273Y88998D01*
X17832D01*
G02X18039Y88256I0J-400D01*
G03X18954Y81346I1961J-3256D01*
G01X19098Y81304D01*
Y78827D01*
X22598Y75327D01*
Y71396D01*
G03Y69004I902J-1196D01*
G01Y68427D01*
X24942Y66083D01*
G02X24659Y65400I-283J-283D01*
G01X21502D01*
Y67873D01*
X18723Y70652D01*
X12523D01*
X8773Y74402D01*
X3627D01*
X948Y71723D01*
Y53409D01*
G02X607Y53268I-200J0D01*
G37*
G36*
G01X31493Y-93110D02*
X31397Y-93202D01*
X31365Y-93218D01*
X31333Y-93250D01*
X31301Y-93266D01*
X31253Y-93298D01*
X31225Y-93314D01*
X31193Y-93346D01*
X31161Y-93362D01*
X31113Y-93374D01*
X31081Y-93390D01*
X31033Y-93406D01*
X31001Y-93422D01*
X30957Y-93438D01*
X30925Y-93454D01*
X30877D01*
X30829Y-93470D01*
X30781D01*
X30737Y-93486D01*
X30357D01*
X30309Y-93470D01*
X30261D01*
X30233Y-93454D01*
X30185D01*
X30137Y-93438D01*
X30105Y-93422D01*
X30057Y-93406D01*
X30025Y-93390D01*
X29981Y-93374D01*
X29949Y-93362D01*
X29901Y-93346D01*
X29869Y-93314D01*
X29837Y-93298D01*
X29805Y-93266D01*
X29757Y-93250D01*
X29729Y-93218D01*
X29697Y-93202D01*
X29553Y-93062D01*
X29397Y-92826D01*
X29381Y-92778D01*
X29349Y-92730D01*
X29333Y-92666D01*
X29317Y-92622D01*
Y-92558D01*
X29301Y-92510D01*
X29285Y-92446D01*
Y-92382D01*
X29269Y-92322D01*
Y-92130D01*
X29253Y-92070D01*
Y-91362D01*
X29269Y-91298D01*
Y-91110D01*
X29285Y-91046D01*
Y-90982D01*
X29301Y-90918D01*
X29317Y-90870D01*
Y-90810D01*
X29333Y-90762D01*
X29349Y-90698D01*
X29381Y-90650D01*
X29397Y-90606D01*
X29553Y-90370D01*
X29665Y-90258D01*
X29697Y-90242D01*
X29757Y-90178D01*
X29805Y-90162D01*
X29837Y-90130D01*
X29901Y-90102D01*
X29949Y-90070D01*
X29981Y-90054D01*
X30025Y-90038D01*
X30057Y-90022D01*
X30105Y-90006D01*
X30137Y-89990D01*
X30185D01*
X30233Y-89974D01*
X30261Y-89958D01*
X30309D01*
X30357Y-89942D01*
X30737D01*
X30781Y-89958D01*
X30829D01*
X30925Y-89990D01*
X30957D01*
X31001Y-90006D01*
X31033Y-90022D01*
X31081Y-90038D01*
X31113Y-90054D01*
X31161Y-90070D01*
X31193Y-90102D01*
X31253Y-90130D01*
X31301Y-90162D01*
X31333Y-90178D01*
X31397Y-90242D01*
X31429Y-90258D01*
X31537Y-90370D01*
X31697Y-90606D01*
X31713Y-90650D01*
X31745Y-90698D01*
X31757Y-90762D01*
X31773Y-90810D01*
X31789Y-90870D01*
X31805Y-90918D01*
Y-90982D01*
X31821Y-91046D01*
Y-91170D01*
X31837Y-91234D01*
Y-92210D01*
X31821Y-92274D01*
Y-92382D01*
X31805Y-92446D01*
Y-92510D01*
X31789Y-92558D01*
X31773Y-92622D01*
X31757Y-92666D01*
X31745Y-92730D01*
X31713Y-92778D01*
X31697Y-92826D01*
X31537Y-93062D01*
X31493Y-93110D01*
G37*
G36*
G01X31649Y-80622D02*
X31461Y-80478D01*
X31285Y-80322D01*
X31097Y-80146D01*
X30909Y-79990D01*
X30721Y-79818D01*
X30513Y-79642D01*
X30405Y-79550D01*
X30073Y-79218D01*
X29981Y-79094D01*
X29901Y-78982D01*
X29805Y-78858D01*
X29649Y-78606D01*
X29585Y-78478D01*
X29505Y-78354D01*
X29461Y-78210D01*
X29397Y-78086D01*
X29253Y-77658D01*
X29225Y-77518D01*
X29161Y-77202D01*
X29145Y-77062D01*
X29129Y-76902D01*
X29113Y-76730D01*
X29097Y-76574D01*
Y-76290D01*
X29113Y-76162D01*
Y-76038D01*
X29145Y-75786D01*
X29161Y-75674D01*
X29193Y-75550D01*
X29253Y-75330D01*
X29285Y-75202D01*
X29333Y-75094D01*
X29365Y-74982D01*
X29413Y-74886D01*
X29461Y-74778D01*
X29521Y-74666D01*
X29585Y-74574D01*
X29649Y-74462D01*
X29713Y-74370D01*
X29773Y-74258D01*
X30089Y-73878D01*
X30185Y-73802D01*
X30357Y-73626D01*
X30545Y-73470D01*
X30657Y-73390D01*
X30845Y-73266D01*
X30957Y-73202D01*
X31049Y-73138D01*
X31161Y-73078D01*
X31381Y-72982D01*
X31493Y-72950D01*
X31601Y-72902D01*
X31821Y-72842D01*
X31949Y-72810D01*
X32057Y-72778D01*
X32185Y-72762D01*
X32293Y-72746D01*
X32421Y-72730D01*
X32545D01*
X32673Y-72714D01*
X33253D01*
X33381Y-72730D01*
X33505D01*
X33633Y-72746D01*
X33745Y-72762D01*
X33869Y-72778D01*
X33997Y-72810D01*
X34217Y-72870D01*
X34341Y-72902D01*
X34453Y-72934D01*
X34781Y-73078D01*
X34877Y-73138D01*
X34989Y-73186D01*
X35081Y-73250D01*
X35193Y-73314D01*
X35285Y-73390D01*
X35381Y-73454D01*
X35569Y-73614D01*
X35665Y-73706D01*
X35757Y-73786D01*
X35917Y-73974D01*
X36009Y-74070D01*
X36073Y-74162D01*
X36153Y-74258D01*
X36277Y-74446D01*
X36405Y-74666D01*
X36453Y-74762D01*
X36513Y-74870D01*
X36561Y-74982D01*
X36593Y-75094D01*
X36641Y-75202D01*
X36673Y-75314D01*
X36705Y-75438D01*
X36737Y-75550D01*
X36749Y-75674D01*
X36781Y-75786D01*
X36797Y-75910D01*
Y-76038D01*
X36813Y-76162D01*
Y-76290D01*
X36829Y-76414D01*
Y-77502D01*
X36813Y-77518D01*
Y-77598D01*
X36797Y-77614D01*
Y-77626D01*
X36765Y-77658D01*
Y-77674D01*
X36749Y-77690D01*
X36737D01*
Y-77706D01*
X36721D01*
X36705Y-77722D01*
X36673D01*
X36657Y-77738D01*
X34673D01*
X34657Y-77722D01*
X34625D01*
X34609Y-77706D01*
X34593D01*
X34545Y-77658D01*
Y-77642D01*
X34529D01*
Y-77626D01*
X34513Y-77614D01*
Y-77566D01*
X34497Y-77534D01*
Y-76274D01*
X34485Y-76226D01*
Y-76146D01*
X34453Y-76054D01*
Y-76006D01*
X34437Y-75958D01*
X34421Y-75926D01*
X34405Y-75878D01*
X34389Y-75850D01*
X34373Y-75802D01*
X34341Y-75770D01*
X34325Y-75722D01*
X34293Y-75690D01*
X34277Y-75642D01*
X34245Y-75614D01*
X34233Y-75582D01*
X34201Y-75534D01*
X34073Y-75406D01*
X34025Y-75374D01*
X33933Y-75282D01*
X33885Y-75266D01*
X33853Y-75234D01*
X33821Y-75218D01*
X33773Y-75186D01*
X33745Y-75170D01*
X33697Y-75154D01*
X33665Y-75138D01*
X33569Y-75110D01*
X33537Y-75094D01*
X33493Y-75078D01*
X33445D01*
X33397Y-75062D01*
X33349D01*
X33301Y-75046D01*
X32609D01*
X32561Y-75062D01*
X32513D01*
X32485Y-75078D01*
X32437D01*
X32341Y-75110D01*
X32309Y-75122D01*
X32261Y-75138D01*
X32233Y-75154D01*
X32185Y-75170D01*
X32153Y-75186D01*
X32105Y-75218D01*
X32073Y-75234D01*
X32025Y-75266D01*
X31997Y-75282D01*
X31965Y-75314D01*
X31917Y-75346D01*
X31729Y-75534D01*
X31697Y-75582D01*
X31665Y-75614D01*
X31649Y-75642D01*
X31617Y-75690D01*
X31601Y-75722D01*
X31569Y-75770D01*
X31553Y-75802D01*
X31537Y-75850D01*
X31521Y-75878D01*
X31505Y-75926D01*
X31493Y-75958D01*
X31461Y-76054D01*
Y-76102D01*
X31445Y-76146D01*
Y-76178D01*
X31429Y-76226D01*
Y-76650D01*
X31445Y-76714D01*
Y-76794D01*
X31461Y-76858D01*
X31477Y-76934D01*
X31505Y-77062D01*
X31521Y-77138D01*
X31553Y-77202D01*
X31569Y-77266D01*
X31601Y-77314D01*
X31697Y-77502D01*
X31729Y-77550D01*
X31773Y-77598D01*
X31805Y-77658D01*
X32105Y-77958D01*
X32185Y-78022D01*
X32293Y-78118D01*
X32421Y-78226D01*
X32561Y-78354D01*
X32737Y-78494D01*
X32909Y-78650D01*
X33097Y-78826D01*
X33505Y-79170D01*
X33729Y-79362D01*
X33933Y-79550D01*
X34341Y-79894D01*
X34529Y-80070D01*
X34705Y-80226D01*
X34877Y-80370D01*
X35017Y-80494D01*
X35161Y-80606D01*
X35253Y-80698D01*
X35333Y-80762D01*
X35397Y-80826D01*
X35521Y-80918D01*
X35633Y-81030D01*
X35729Y-81138D01*
X35837Y-81250D01*
X35933Y-81374D01*
X36025Y-81486D01*
X36341Y-81990D01*
X36405Y-82118D01*
X36529Y-82398D01*
X36577Y-82526D01*
X36625Y-82682D01*
X36673Y-82826D01*
X36705Y-82966D01*
X36737Y-83122D01*
X36765Y-83266D01*
X36797Y-83582D01*
X36813Y-83754D01*
Y-83910D01*
X36829Y-84086D01*
X36813Y-84210D01*
Y-84338D01*
X36797Y-84462D01*
Y-84590D01*
X36781Y-84698D01*
X36749Y-84826D01*
X36737Y-84934D01*
X36705Y-85062D01*
X36641Y-85282D01*
X36405Y-85834D01*
X36341Y-85926D01*
X36277Y-86038D01*
X36153Y-86226D01*
X36073Y-86338D01*
X35917Y-86526D01*
X35649Y-86794D01*
X35269Y-87110D01*
X35177Y-87170D01*
X35065Y-87234D01*
X34973Y-87298D01*
X34861Y-87362D01*
X34765Y-87406D01*
X34657Y-87470D01*
X34545Y-87518D01*
X34437Y-87550D01*
X34325Y-87598D01*
X34217Y-87626D01*
X34089Y-87658D01*
X33869Y-87722D01*
X33617Y-87754D01*
X33505Y-87770D01*
X33381D01*
X33253Y-87786D01*
X32673D01*
X32545Y-87770D01*
X32421D01*
X32293Y-87754D01*
X32185Y-87738D01*
X32057Y-87722D01*
X31949Y-87690D01*
X31821Y-87658D01*
X31601Y-87598D01*
X31493Y-87550D01*
X31381Y-87518D01*
X31269Y-87470D01*
X31161Y-87406D01*
X31049Y-87362D01*
X30957Y-87298D01*
X30845Y-87234D01*
X30657Y-87110D01*
X30545Y-87030D01*
X30357Y-86870D01*
X30009Y-86526D01*
X29853Y-86338D01*
X29773Y-86226D01*
X29649Y-86038D01*
X29585Y-85926D01*
X29521Y-85834D01*
X29461Y-85722D01*
X29365Y-85502D01*
X29333Y-85390D01*
X29285Y-85282D01*
X29225Y-85062D01*
X29193Y-84934D01*
X29161Y-84826D01*
X29145Y-84698D01*
X29129Y-84590D01*
X29113Y-84462D01*
Y-84338D01*
X29097Y-84210D01*
Y-82998D01*
X29113Y-82982D01*
Y-82934D01*
X29129Y-82918D01*
Y-82902D01*
X29145Y-82886D01*
Y-82870D01*
X29161D01*
X29177Y-82858D01*
Y-82842D01*
X29193D01*
X29209Y-82826D01*
X29225D01*
X29241Y-82810D01*
X29301D01*
X29317Y-82794D01*
X31209D01*
X31225Y-82810D01*
X31285D01*
X31301Y-82826D01*
X31317D01*
X31381Y-82886D01*
Y-82902D01*
X31397Y-82918D01*
Y-82934D01*
X31413Y-82950D01*
Y-83014D01*
X31429Y-83046D01*
Y-84258D01*
X31445Y-84306D01*
Y-84354D01*
X31461Y-84398D01*
Y-84430D01*
X31493Y-84526D01*
X31505Y-84558D01*
X31537Y-84650D01*
X31553Y-84682D01*
X31585Y-84730D01*
X31601Y-84762D01*
X31633Y-84794D01*
X31649Y-84842D01*
X31713Y-84902D01*
X31729Y-84950D01*
X31789Y-85014D01*
X31837Y-85046D01*
X31869Y-85094D01*
X31933Y-85154D01*
X31981Y-85170D01*
X32041Y-85234D01*
X32089Y-85250D01*
X32121Y-85282D01*
X32153Y-85298D01*
X32201Y-85330D01*
X32233Y-85346D01*
X32325Y-85374D01*
X32357Y-85390D01*
X32453Y-85422D01*
X32485D01*
X32529Y-85438D01*
X32577D01*
X32625Y-85454D01*
X33301D01*
X33349Y-85438D01*
X33397D01*
X33445Y-85422D01*
X33493D01*
X33537Y-85406D01*
X33569Y-85390D01*
X33665Y-85362D01*
X33697Y-85346D01*
X33745Y-85330D01*
X33773Y-85298D01*
X33821Y-85282D01*
X33853Y-85266D01*
X33885Y-85234D01*
X33933Y-85202D01*
X33965Y-85186D01*
X34025Y-85122D01*
X34073Y-85094D01*
X34169Y-84998D01*
X34201Y-84950D01*
X34233Y-84918D01*
X34245Y-84886D01*
X34277Y-84842D01*
X34293Y-84810D01*
X34325Y-84778D01*
X34341Y-84730D01*
X34373Y-84698D01*
X34405Y-84606D01*
X34421Y-84574D01*
X34453Y-84478D01*
Y-84446D01*
X34485Y-84354D01*
Y-84258D01*
X34497Y-84210D01*
Y-83834D01*
X34485Y-83754D01*
Y-83674D01*
X34469Y-83614D01*
X34453Y-83534D01*
X34437Y-83470D01*
X34421Y-83390D01*
X34405Y-83330D01*
X34373Y-83266D01*
X34357Y-83202D01*
X34261Y-83014D01*
X34233Y-82966D01*
X34201Y-82902D01*
X34169Y-82858D01*
X34121Y-82794D01*
X34089Y-82746D01*
X33901Y-82558D01*
X33821Y-82494D01*
X33537Y-82258D01*
X33445Y-82162D01*
X33333Y-82086D01*
X33225Y-81990D01*
X33097Y-81878D01*
X32989Y-81770D01*
X32845Y-81658D01*
X32721Y-81550D01*
X32577Y-81438D01*
X32293Y-81186D01*
X31981Y-80902D01*
X31805Y-80762D01*
X31649Y-80622D01*
G37*
G36*
G01X28405Y-91438D02*
X28389Y-91454D01*
Y-91470D01*
X28373Y-91486D01*
Y-91502D01*
X28357Y-91518D01*
Y-91534D01*
X28341D01*
Y-91566D01*
X28325D01*
Y-91582D01*
X28309D01*
Y-91614D01*
X28293D01*
Y-91626D01*
X28277D01*
Y-91642D01*
X28261Y-91658D01*
Y-91674D01*
X28245D01*
Y-91690D01*
X28233D01*
Y-91706D01*
X28217D01*
Y-91722D01*
X28201D01*
Y-91738D01*
X28185D01*
Y-91754D01*
X28169D01*
X28105Y-91818D01*
X28089D01*
X28057Y-91850D01*
X28041D01*
X28025Y-91866D01*
X28009D01*
Y-91878D01*
X27997D01*
X27981Y-91894D01*
X27965D01*
Y-91910D01*
X27933D01*
X27917Y-91926D01*
X27901D01*
X27885Y-91942D01*
X27853D01*
Y-91958D01*
X27837D01*
Y-91974D01*
X27853D01*
Y-92006D01*
X27869D01*
Y-92022D01*
X27885Y-92038D01*
Y-92054D01*
X27901Y-92070D01*
Y-92086D01*
X27917Y-92102D01*
Y-92118D01*
X27933Y-92130D01*
Y-92146D01*
X27949Y-92162D01*
Y-92178D01*
X27965Y-92194D01*
Y-92210D01*
X27981Y-92226D01*
Y-92242D01*
X28009Y-92274D01*
Y-92306D01*
X28041Y-92338D01*
Y-92354D01*
X28057Y-92382D01*
X28073Y-92398D01*
Y-92414D01*
X28089Y-92446D01*
X28105Y-92462D01*
Y-92478D01*
X28121Y-92510D01*
X28137Y-92526D01*
X28153Y-92558D01*
Y-92574D01*
X28169Y-92590D01*
X28185Y-92622D01*
X28201Y-92634D01*
Y-92666D01*
X28217Y-92682D01*
X28233Y-92714D01*
X28245Y-92730D01*
Y-92762D01*
X28277Y-92794D01*
Y-92826D01*
X28293Y-92842D01*
X28309Y-92870D01*
X28325Y-92886D01*
Y-92902D01*
X28341Y-92934D01*
X28357Y-92950D01*
X28373Y-92982D01*
Y-92998D01*
X28389Y-93014D01*
X28405Y-93046D01*
Y-93062D01*
X28437Y-93094D01*
Y-93122D01*
X28453Y-93138D01*
Y-93154D01*
X28485Y-93186D01*
Y-93202D01*
X28497Y-93234D01*
Y-93250D01*
X28513Y-93266D01*
Y-93282D01*
X28529Y-93298D01*
Y-93314D01*
X28545D01*
Y-93330D01*
X28561Y-93346D01*
Y-93362D01*
X28577Y-93374D01*
Y-93390D01*
X28593Y-93406D01*
Y-93422D01*
X28609Y-93438D01*
Y-93454D01*
X27821D01*
Y-93438D01*
X27805Y-93422D01*
Y-93406D01*
X27789Y-93390D01*
Y-93374D01*
X27773Y-93362D01*
Y-93346D01*
X27757Y-93330D01*
Y-93314D01*
X27745Y-93298D01*
Y-93282D01*
X27729Y-93266D01*
Y-93250D01*
X27713Y-93234D01*
Y-93218D01*
X27697Y-93202D01*
Y-93170D01*
X27665Y-93138D01*
Y-93122D01*
X27649Y-93110D01*
Y-93094D01*
X27633Y-93078D01*
Y-93046D01*
X27601Y-93014D01*
Y-92998D01*
X27585Y-92966D01*
Y-92950D01*
X27569Y-92934D01*
X27553Y-92902D01*
Y-92886D01*
X27521Y-92858D01*
Y-92826D01*
X27493Y-92794D01*
Y-92762D01*
X27461Y-92730D01*
Y-92698D01*
X27445Y-92682D01*
Y-92666D01*
X27429Y-92634D01*
X27413Y-92622D01*
Y-92606D01*
X27397Y-92574D01*
X27381Y-92558D01*
Y-92542D01*
X27365Y-92526D01*
X27349Y-92494D01*
Y-92478D01*
X27333Y-92462D01*
Y-92446D01*
X27317Y-92430D01*
Y-92398D01*
X27285Y-92370D01*
Y-92354D01*
X27269Y-92338D01*
Y-92322D01*
X27253Y-92306D01*
Y-92290D01*
X27241Y-92274D01*
Y-92258D01*
X27225Y-92242D01*
Y-92210D01*
X27193Y-92178D01*
Y-92146D01*
X27177D01*
Y-92118D01*
X27161Y-92102D01*
Y-92086D01*
X27145D01*
Y-92070D01*
X26657D01*
Y-93454D01*
X25981D01*
Y-89974D01*
X27521D01*
X27553Y-89990D01*
X27617D01*
X27649Y-90006D01*
X27697D01*
X27713Y-90022D01*
X27757D01*
X27773Y-90038D01*
X27789D01*
X27805Y-90054D01*
X27837D01*
X27853Y-90070D01*
X27869D01*
X27885Y-90086D01*
X27901D01*
X27917Y-90102D01*
X27933D01*
X27949Y-90118D01*
X27965D01*
X27981Y-90130D01*
X27997D01*
X28025Y-90162D01*
X28041D01*
Y-90178D01*
X28057D01*
X28089Y-90210D01*
X28105D01*
X28121Y-90226D01*
Y-90242D01*
X28137Y-90258D01*
X28153D01*
X28169Y-90274D01*
Y-90290D01*
X28185D01*
X28217Y-90322D01*
Y-90338D01*
X28233Y-90354D01*
X28245D01*
Y-90370D01*
X28277Y-90398D01*
Y-90414D01*
X28293D01*
Y-90430D01*
X28325Y-90462D01*
Y-90478D01*
X28341Y-90494D01*
Y-90510D01*
X28357Y-90526D01*
Y-90542D01*
X28373Y-90558D01*
Y-90574D01*
X28389Y-90590D01*
Y-90606D01*
X28405Y-90622D01*
Y-90650D01*
X28421Y-90666D01*
Y-90698D01*
X28437Y-90714D01*
Y-90746D01*
X28453Y-90762D01*
Y-90842D01*
X28469Y-90858D01*
Y-90998D01*
X28485Y-91014D01*
Y-91062D01*
X28469Y-91078D01*
Y-91218D01*
X28453Y-91234D01*
Y-91298D01*
X28437Y-91314D01*
Y-91346D01*
X28421Y-91362D01*
Y-91390D01*
X28405Y-91406D01*
Y-91438D01*
G37*
G36*
G01X24973Y-90622D02*
X24989Y-90634D01*
Y-90650D01*
X25001Y-90666D01*
Y-90714D01*
X25017Y-90730D01*
Y-90762D01*
X25033Y-90778D01*
Y-90858D01*
X25049Y-90870D01*
Y-91202D01*
X25033Y-91218D01*
Y-91282D01*
X25017Y-91298D01*
Y-91330D01*
X25001Y-91346D01*
Y-91374D01*
X24989Y-91390D01*
Y-91422D01*
X24973Y-91438D01*
Y-91470D01*
X24957D01*
Y-91502D01*
X24941D01*
Y-91534D01*
X24925D01*
Y-91550D01*
X24909Y-91566D01*
Y-91582D01*
X24893D01*
Y-91598D01*
X24877Y-91614D01*
Y-91626D01*
X24861D01*
Y-91642D01*
X24705Y-91802D01*
X24689D01*
Y-91818D01*
X24673D01*
X24641Y-91850D01*
X24625D01*
X24609Y-91866D01*
X24593D01*
X24561Y-91894D01*
X24545D01*
X24529Y-91910D01*
X24513D01*
X24497Y-91926D01*
X24485D01*
X24469Y-91942D01*
X24437D01*
X24421Y-91958D01*
Y-91974D01*
X24437Y-91990D01*
Y-92006D01*
X24453Y-92022D01*
Y-92038D01*
X24485Y-92070D01*
Y-92102D01*
X24497Y-92118D01*
Y-92130D01*
X24513Y-92146D01*
Y-92162D01*
X24545Y-92194D01*
Y-92210D01*
X24561Y-92226D01*
Y-92242D01*
X24577Y-92258D01*
Y-92274D01*
X24593Y-92306D01*
X24609Y-92322D01*
Y-92338D01*
X24625Y-92354D01*
X24641Y-92382D01*
Y-92398D01*
X24657Y-92414D01*
X24673Y-92446D01*
X24689Y-92462D01*
Y-92478D01*
X24705Y-92510D01*
X24721Y-92526D01*
Y-92558D01*
X24749Y-92590D01*
X24765Y-92622D01*
Y-92634D01*
X24781Y-92666D01*
X24797Y-92682D01*
X24813Y-92714D01*
Y-92730D01*
X24829Y-92762D01*
X24861Y-92794D01*
Y-92826D01*
X24877Y-92842D01*
X24893Y-92870D01*
Y-92886D01*
X24909Y-92902D01*
X24925Y-92934D01*
X24941Y-92950D01*
Y-92982D01*
X24973Y-93014D01*
Y-93046D01*
X25001Y-93078D01*
Y-93094D01*
X25017Y-93122D01*
X25033Y-93138D01*
Y-93154D01*
X25049Y-93170D01*
Y-93186D01*
X25065Y-93202D01*
X25081Y-93234D01*
Y-93250D01*
X25097Y-93266D01*
Y-93282D01*
X25113Y-93298D01*
Y-93314D01*
X25129D01*
Y-93330D01*
X25145Y-93346D01*
Y-93374D01*
X25161D01*
Y-93406D01*
X25177D01*
Y-93438D01*
X25193D01*
Y-93454D01*
X24405D01*
Y-93438D01*
X24389D01*
Y-93406D01*
X24373D01*
Y-93374D01*
X24341Y-93346D01*
Y-93314D01*
X24309Y-93282D01*
Y-93266D01*
X24293Y-93250D01*
Y-93234D01*
X24277Y-93218D01*
Y-93202D01*
X24261Y-93170D01*
Y-93154D01*
X24245Y-93138D01*
Y-93122D01*
X24233Y-93110D01*
Y-93094D01*
X24217Y-93078D01*
X24201Y-93046D01*
Y-93030D01*
X24185Y-93014D01*
Y-92998D01*
X24169Y-92966D01*
X24153Y-92950D01*
Y-92934D01*
X24137Y-92902D01*
X24121Y-92886D01*
Y-92870D01*
X24105Y-92858D01*
X24089Y-92826D01*
Y-92810D01*
X24073Y-92794D01*
Y-92762D01*
X24041Y-92730D01*
Y-92698D01*
X24009Y-92666D01*
Y-92634D01*
X23981Y-92606D01*
Y-92574D01*
X23949Y-92542D01*
Y-92526D01*
X23933Y-92494D01*
Y-92478D01*
X23901Y-92446D01*
Y-92430D01*
X23885Y-92398D01*
Y-92382D01*
X23869Y-92370D01*
Y-92354D01*
X23853Y-92338D01*
Y-92322D01*
X23837Y-92306D01*
Y-92290D01*
X23821Y-92274D01*
Y-92258D01*
X23805Y-92242D01*
Y-92226D01*
X23789Y-92210D01*
Y-92194D01*
X23773Y-92178D01*
Y-92146D01*
X23757D01*
Y-92130D01*
X23745Y-92118D01*
Y-92102D01*
X23729Y-92086D01*
Y-92070D01*
X23241D01*
Y-93454D01*
X22545D01*
Y-89974D01*
X24105D01*
X24121Y-89990D01*
X24201D01*
X24217Y-90006D01*
X24277D01*
X24293Y-90022D01*
X24325D01*
X24341Y-90038D01*
X24357D01*
X24389Y-90054D01*
X24421D01*
X24437Y-90070D01*
X24453D01*
X24469Y-90086D01*
X24485D01*
X24497Y-90102D01*
X24513D01*
X24529Y-90118D01*
X24545D01*
X24561Y-90130D01*
X24577D01*
Y-90146D01*
X24593Y-90162D01*
X24609D01*
X24625Y-90178D01*
X24641D01*
X24673Y-90210D01*
X24689D01*
Y-90226D01*
X24721Y-90258D01*
X24737D01*
X24749Y-90274D01*
Y-90290D01*
X24765D01*
X24781Y-90306D01*
Y-90322D01*
X24845Y-90382D01*
Y-90398D01*
X24861Y-90414D01*
X24877D01*
Y-90430D01*
X24893Y-90446D01*
Y-90462D01*
X24909Y-90478D01*
Y-90494D01*
X24925Y-90510D01*
Y-90526D01*
X24941Y-90542D01*
Y-90558D01*
X24957D01*
Y-90574D01*
X24973Y-90590D01*
Y-90622D01*
G37*
G36*
G01X21397Y-93014D02*
X21301Y-93110D01*
X21209Y-93202D01*
X21177Y-93218D01*
X21145Y-93250D01*
X21113Y-93266D01*
X21081Y-93298D01*
X21049Y-93314D01*
X21001Y-93346D01*
X20941Y-93374D01*
X20893Y-93390D01*
X20861Y-93406D01*
X20813Y-93422D01*
X20781Y-93438D01*
X20737Y-93454D01*
X20689D01*
X20641Y-93470D01*
X20609D01*
X20561Y-93486D01*
X20169D01*
X20137Y-93470D01*
X20089D01*
X20041Y-93454D01*
X19997D01*
X19965Y-93438D01*
X19869Y-93406D01*
X19837Y-93390D01*
X19789Y-93374D01*
X19729Y-93346D01*
X19681Y-93314D01*
X19649Y-93298D01*
X19617Y-93266D01*
X19585Y-93250D01*
X19553Y-93218D01*
X19521Y-93202D01*
X19477Y-93170D01*
X19413Y-93110D01*
X19381Y-93062D01*
X19333Y-93014D01*
X19241Y-92870D01*
X19225Y-92826D01*
X19193Y-92778D01*
X19177Y-92730D01*
X19161Y-92666D01*
X19145Y-92622D01*
X19129Y-92558D01*
X19113Y-92510D01*
Y-92446D01*
X19097Y-92382D01*
Y-92322D01*
X19081Y-92274D01*
Y-91170D01*
X19097Y-91110D01*
Y-91046D01*
X19113Y-90982D01*
Y-90918D01*
X19129Y-90870D01*
X19145Y-90810D01*
X19161Y-90762D01*
X19177Y-90698D01*
X19193Y-90650D01*
X19225Y-90606D01*
X19241Y-90558D01*
X19333Y-90414D01*
X19381Y-90370D01*
X19413Y-90322D01*
X19477Y-90258D01*
X19521Y-90242D01*
X19585Y-90178D01*
X19617Y-90162D01*
X19649Y-90130D01*
X19681Y-90118D01*
X19729Y-90102D01*
X19757Y-90070D01*
X19789Y-90054D01*
X19837Y-90038D01*
X19869Y-90022D01*
X19965Y-89990D01*
X19997D01*
X20089Y-89958D01*
X20137D01*
X20169Y-89942D01*
X20561D01*
X20609Y-89958D01*
X20641D01*
X20737Y-89990D01*
X20781D01*
X20813Y-90006D01*
X20861Y-90022D01*
X20893Y-90038D01*
X20941Y-90054D01*
X20973Y-90070D01*
X21001Y-90102D01*
X21049Y-90118D01*
X21081Y-90130D01*
X21113Y-90162D01*
X21145Y-90178D01*
X21209Y-90242D01*
X21241Y-90258D01*
X21397Y-90414D01*
X21493Y-90558D01*
X21505Y-90606D01*
X21537Y-90650D01*
X21553Y-90698D01*
X21569Y-90762D01*
X21585Y-90810D01*
X21601Y-90870D01*
X21617Y-90918D01*
X21633Y-90982D01*
Y-91110D01*
X21649Y-91170D01*
Y-91422D01*
X21665Y-91502D01*
Y-91926D01*
X21649Y-92006D01*
Y-92274D01*
X21633Y-92322D01*
Y-92446D01*
X21617Y-92510D01*
X21601Y-92558D01*
X21585Y-92622D01*
X21569Y-92666D01*
X21553Y-92730D01*
X21537Y-92778D01*
X21505Y-92826D01*
X21493Y-92870D01*
X21397Y-93014D01*
G37*
G36*
G01X17493Y-91422D02*
X16829Y-92746D01*
X16373D01*
X15697Y-91422D01*
Y-93454D01*
X15017D01*
Y-89974D01*
X15681D01*
X16593Y-91866D01*
X17505Y-89974D01*
X18185D01*
Y-93454D01*
X17493D01*
Y-91422D01*
G37*
G36*
G01X22389Y-80902D02*
X21869Y-80478D01*
X21697Y-80322D01*
X21505Y-80146D01*
X21317Y-79990D01*
X21129Y-79818D01*
X20925Y-79642D01*
X20797Y-79550D01*
X20689Y-79438D01*
X20593Y-79330D01*
X20485Y-79218D01*
X20389Y-79094D01*
X20309Y-78982D01*
X20217Y-78858D01*
X20057Y-78606D01*
X19997Y-78478D01*
X19917Y-78354D01*
X19869Y-78210D01*
X19805Y-78086D01*
X19665Y-77658D01*
X19633Y-77518D01*
X19569Y-77202D01*
X19553Y-77062D01*
X19521Y-76902D01*
Y-76730D01*
X19505Y-76574D01*
Y-76290D01*
X19521Y-76162D01*
Y-76038D01*
X19553Y-75786D01*
X19569Y-75674D01*
X19601Y-75550D01*
X19665Y-75330D01*
X19697Y-75202D01*
X19745Y-75094D01*
X19773Y-74982D01*
X19821Y-74886D01*
X19869Y-74778D01*
X19933Y-74666D01*
X19997Y-74574D01*
X20057Y-74462D01*
X20121Y-74370D01*
X20185Y-74258D01*
X20497Y-73878D01*
X20593Y-73802D01*
X20673Y-73706D01*
X20957Y-73470D01*
X21065Y-73390D01*
X21253Y-73266D01*
X21365Y-73202D01*
X21461Y-73138D01*
X21569Y-73078D01*
X21789Y-72982D01*
X21901Y-72950D01*
X22009Y-72902D01*
X22233Y-72842D01*
X22357Y-72810D01*
X22469Y-72778D01*
X22593Y-72762D01*
X22705Y-72746D01*
X22829Y-72730D01*
X22957D01*
X23081Y-72714D01*
X23665D01*
X23789Y-72730D01*
X23917D01*
X24041Y-72746D01*
X24153Y-72762D01*
X24277Y-72778D01*
X24405Y-72810D01*
X24625Y-72870D01*
X24749Y-72902D01*
X24861Y-72934D01*
X25081Y-73030D01*
X25177Y-73078D01*
X25285Y-73138D01*
X25397Y-73186D01*
X25493Y-73250D01*
X25601Y-73314D01*
X25697Y-73390D01*
X25789Y-73454D01*
X25981Y-73614D01*
X26073Y-73706D01*
X26169Y-73786D01*
X26561Y-74258D01*
X26689Y-74446D01*
X26813Y-74666D01*
X26861Y-74762D01*
X26925Y-74870D01*
X26973Y-74982D01*
X27001Y-75094D01*
X27049Y-75202D01*
X27081Y-75314D01*
X27113Y-75438D01*
X27145Y-75550D01*
X27161Y-75674D01*
X27193Y-75786D01*
X27209Y-75910D01*
Y-76038D01*
X27225Y-76162D01*
Y-76290D01*
X27241Y-76414D01*
Y-77486D01*
X27225Y-77502D01*
Y-77598D01*
X27209Y-77614D01*
Y-77626D01*
X27177Y-77658D01*
Y-77674D01*
X27161Y-77690D01*
X27145D01*
Y-77706D01*
X27129D01*
X27113Y-77722D01*
X27081D01*
X27065Y-77738D01*
X25081D01*
X25065Y-77722D01*
X25033D01*
X25017Y-77706D01*
X25001D01*
X24957Y-77658D01*
Y-77642D01*
X24941D01*
Y-77626D01*
X24925Y-77614D01*
Y-77566D01*
X24909Y-77534D01*
Y-76274D01*
X24893Y-76226D01*
Y-76146D01*
X24861Y-76054D01*
Y-76006D01*
X24845Y-75958D01*
X24829Y-75926D01*
X24813Y-75878D01*
X24797Y-75850D01*
X24765Y-75802D01*
X24749Y-75770D01*
X24737Y-75722D01*
X24705Y-75690D01*
X24689Y-75642D01*
X24625Y-75582D01*
X24609Y-75534D01*
X24485Y-75406D01*
X24437Y-75374D01*
X24341Y-75282D01*
X24293Y-75266D01*
X24261Y-75234D01*
X24233Y-75218D01*
X24185Y-75186D01*
X24153Y-75170D01*
X24057Y-75138D01*
X24025Y-75122D01*
X23933Y-75094D01*
X23901Y-75078D01*
X23853D01*
X23805Y-75062D01*
X23757D01*
X23713Y-75046D01*
X23017D01*
X22973Y-75062D01*
X22925D01*
X22893Y-75078D01*
X22845D01*
X22749Y-75110D01*
X22721Y-75122D01*
X22673Y-75138D01*
X22641Y-75154D01*
X22593Y-75170D01*
X22561Y-75186D01*
X22513Y-75218D01*
X22485Y-75234D01*
X22437Y-75266D01*
X22405Y-75282D01*
X22373Y-75314D01*
X22325Y-75346D01*
X22137Y-75534D01*
X22105Y-75582D01*
X22073Y-75614D01*
X22057Y-75642D01*
X22025Y-75690D01*
X22009Y-75722D01*
X21981Y-75770D01*
X21965Y-75802D01*
X21949Y-75850D01*
X21933Y-75878D01*
X21917Y-75926D01*
X21901Y-75958D01*
X21869Y-76054D01*
Y-76102D01*
X21853Y-76146D01*
Y-76178D01*
X21837Y-76226D01*
Y-76370D01*
X21821Y-76414D01*
X21837Y-76494D01*
Y-76650D01*
X21853Y-76714D01*
Y-76794D01*
X21869Y-76858D01*
X21885Y-76934D01*
X21917Y-77062D01*
X21933Y-77138D01*
X21965Y-77202D01*
X21981Y-77266D01*
X22009Y-77314D01*
X22105Y-77502D01*
X22137Y-77550D01*
X22185Y-77598D01*
X22217Y-77658D01*
X22513Y-77958D01*
X22593Y-78022D01*
X22705Y-78118D01*
X22829Y-78226D01*
X22973Y-78354D01*
X23145Y-78494D01*
X23317Y-78650D01*
X23505Y-78826D01*
X23917Y-79170D01*
X24137Y-79362D01*
X24341Y-79550D01*
X24749Y-79894D01*
X24941Y-80070D01*
X25113Y-80226D01*
X25285Y-80370D01*
X25429Y-80494D01*
X25553Y-80606D01*
X25665Y-80698D01*
X25745Y-80762D01*
X25805Y-80826D01*
X25933Y-80918D01*
X26041Y-81030D01*
X26137Y-81138D01*
X26245Y-81250D01*
X26341Y-81374D01*
X26437Y-81486D01*
X26749Y-81990D01*
X26813Y-82118D01*
X26941Y-82398D01*
X26989Y-82526D01*
X27033Y-82682D01*
X27065Y-82826D01*
X27113Y-82966D01*
X27145Y-83122D01*
X27177Y-83266D01*
X27209Y-83582D01*
X27225Y-83754D01*
Y-83910D01*
X27241Y-84086D01*
X27225Y-84210D01*
Y-84338D01*
X27209Y-84462D01*
Y-84590D01*
X27193Y-84698D01*
X27161Y-84826D01*
X27145Y-84934D01*
X27113Y-85062D01*
X27049Y-85282D01*
X26813Y-85834D01*
X26749Y-85926D01*
X26689Y-86038D01*
X26561Y-86226D01*
X26485Y-86338D01*
X26325Y-86526D01*
X26057Y-86794D01*
X25681Y-87110D01*
X25585Y-87170D01*
X25477Y-87234D01*
X25381Y-87298D01*
X25269Y-87362D01*
X25177Y-87406D01*
X25065Y-87470D01*
X24957Y-87518D01*
X24845Y-87550D01*
X24737Y-87598D01*
X24497Y-87658D01*
X24277Y-87722D01*
X23901Y-87770D01*
X23789D01*
X23665Y-87786D01*
X23081D01*
X22957Y-87770D01*
X22829D01*
X22705Y-87754D01*
X22593Y-87738D01*
X22469Y-87722D01*
X22357Y-87690D01*
X22233Y-87658D01*
X22009Y-87598D01*
X21901Y-87550D01*
X21789Y-87518D01*
X21681Y-87470D01*
X21569Y-87406D01*
X21461Y-87362D01*
X21365Y-87298D01*
X21253Y-87234D01*
X21065Y-87110D01*
X20957Y-87030D01*
X20673Y-86794D01*
X20593Y-86698D01*
X20421Y-86526D01*
X20261Y-86338D01*
X20185Y-86226D01*
X20057Y-86038D01*
X19997Y-85926D01*
X19933Y-85834D01*
X19869Y-85722D01*
X19773Y-85502D01*
X19745Y-85390D01*
X19697Y-85282D01*
X19633Y-85062D01*
X19601Y-84934D01*
X19569Y-84826D01*
X19553Y-84698D01*
X19537Y-84590D01*
X19521Y-84462D01*
Y-84338D01*
X19505Y-84210D01*
Y-82998D01*
X19521Y-82982D01*
Y-82934D01*
X19537Y-82918D01*
Y-82902D01*
X19553Y-82886D01*
Y-82870D01*
X19569D01*
X19585Y-82858D01*
Y-82842D01*
X19601D01*
X19617Y-82826D01*
X19633D01*
X19649Y-82810D01*
X19713D01*
X19729Y-82794D01*
X21601D01*
X21633Y-82810D01*
X21697D01*
X21713Y-82826D01*
X21729D01*
X21789Y-82886D01*
Y-82902D01*
X21805Y-82918D01*
Y-82934D01*
X21821Y-82950D01*
Y-84086D01*
X21837Y-84130D01*
Y-84258D01*
X21853Y-84306D01*
Y-84354D01*
X21869Y-84398D01*
Y-84430D01*
X21901Y-84526D01*
X21917Y-84558D01*
X21949Y-84650D01*
X21965Y-84682D01*
X21997Y-84730D01*
X22009Y-84762D01*
X22041Y-84794D01*
X22057Y-84842D01*
X22121Y-84902D01*
X22137Y-84950D01*
X22201Y-85014D01*
X22245Y-85046D01*
X22277Y-85094D01*
X22341Y-85154D01*
X22373Y-85170D01*
X22421Y-85202D01*
X22453Y-85234D01*
X22497Y-85250D01*
X22529Y-85282D01*
X22561Y-85298D01*
X22609Y-85330D01*
X22641Y-85346D01*
X22737Y-85374D01*
X22765Y-85390D01*
X22813Y-85406D01*
X22845Y-85422D01*
X22893D01*
X22941Y-85438D01*
X22989D01*
X23033Y-85454D01*
X23713D01*
X23757Y-85438D01*
X23805D01*
X23853Y-85422D01*
X23901D01*
X23933Y-85406D01*
X24025Y-85374D01*
X24057Y-85362D01*
X24153Y-85330D01*
X24185Y-85298D01*
X24233Y-85282D01*
X24261Y-85266D01*
X24293Y-85234D01*
X24341Y-85202D01*
X24373Y-85186D01*
X24437Y-85122D01*
X24485Y-85094D01*
X24577Y-84998D01*
X24609Y-84950D01*
X24625Y-84918D01*
X24657Y-84886D01*
X24689Y-84842D01*
X24705Y-84810D01*
X24737Y-84778D01*
X24749Y-84730D01*
X24765Y-84698D01*
X24797Y-84650D01*
X24813Y-84606D01*
X24829Y-84574D01*
X24861Y-84478D01*
Y-84446D01*
X24893Y-84354D01*
Y-84258D01*
X24909Y-84210D01*
Y-83834D01*
X24877Y-83674D01*
Y-83614D01*
X24861Y-83534D01*
X24845Y-83470D01*
X24829Y-83390D01*
X24797Y-83330D01*
X24765Y-83202D01*
X24673Y-83014D01*
X24641Y-82966D01*
X24609Y-82902D01*
X24577Y-82858D01*
X24529Y-82794D01*
X24497Y-82746D01*
X24309Y-82558D01*
X24233Y-82494D01*
X23949Y-82258D01*
X23853Y-82162D01*
X23745Y-82086D01*
X23633Y-81990D01*
X23505Y-81878D01*
X23397Y-81770D01*
X23253Y-81658D01*
X23129Y-81550D01*
X22989Y-81438D01*
X22705Y-81186D01*
X22389Y-80902D01*
G37*
G36*
G01X34598Y64142D02*
G02X33916Y63859I-400J0D01*
G01X29773Y68002D01*
X27473D01*
X26802Y68673D01*
Y68900D01*
X26872Y68960D01*
G03X26801Y71296I-972J1140D01*
G01Y75527D01*
X30902Y79627D01*
Y81304D01*
X31046Y81346D01*
G03X31961Y88256I-1046J3654D01*
G02X32168Y88998I207J342D01*
G01X37832D01*
G02X38039Y88256I0J-400D01*
G03X37293Y82332I1961J-3256D01*
G02X37008Y81652I-285J-280D01*
G01X36340D01*
X35502Y80814D01*
X35463Y80798D01*
G03X37413Y78901I537J-1398D01*
G01X37460Y78948D01*
X58560D01*
X60811Y81200D01*
X62059D01*
G02X62342Y80517I0J-400D01*
G01X61298Y79473D01*
Y70227D01*
X61700Y69825D01*
Y69300D01*
X62225D01*
X62706Y68819D01*
Y68336D01*
X58967D01*
X58921Y68473D01*
G03X56361Y67027I-1421J-473D01*
G02X56057Y66368I-304J-259D01*
G01X55132D01*
X54851Y66648D01*
Y73060D01*
X52560Y75352D01*
X33947D01*
X33909Y75369D01*
G03Y72631I-609J-1369D01*
G01X33947Y72648D01*
X38968D01*
X39090Y72290D01*
G03X38804Y72002I910J-1190D01*
G01X38027D01*
X34598Y68573D01*
Y64142D01*
G37*
G36*
G01X35145Y-93454D02*
X34497Y-91346D01*
X33869Y-93454D01*
X33285D01*
X32357Y-89974D01*
X33065D01*
X33617Y-92178D01*
X34245Y-89974D01*
X34765D01*
X35397Y-92178D01*
X35949Y-89974D01*
X36657D01*
X35713Y-93454D01*
X35145D01*
G37*
G36*
G01X53607Y55429D02*
Y55696D01*
X53647Y55749D01*
G03X53352Y57846I-1197J901D01*
G01Y58623D01*
X51673Y60302D01*
X38446D01*
X37928Y59784D01*
G02X37246Y60067I-282J283D01*
G01Y61760D01*
G02X37847Y62105I400J0D01*
G03X37114Y63211I753J1295D01*
G01X37126Y63114D01*
X36916Y62903D01*
X36402Y63417D01*
Y67827D01*
X38501Y69926D01*
G02X39040Y69950I283J-283D01*
G03X40934Y69929I960J1150D01*
G02X41583Y69616I249J-313D01*
G01Y68971D01*
X42572D01*
Y67986D01*
X40960D01*
Y63614D01*
X45334D01*
Y67986D01*
X44376D01*
Y68971D01*
X45365D01*
Y72648D01*
X45835D01*
Y68971D01*
X49617D01*
Y69398D01*
X51100D01*
G03X51619Y69485I0J1592D01*
G02X52148Y69107I129J-378D01*
G01Y61640D01*
X57577Y56212D01*
G02X57294Y55529I-283J-283D01*
G01X54080D01*
Y55429D01*
X53607D01*
G37*
G36*
G01X53000Y28429D02*
Y28358D01*
G02X52658Y28217I-200J0D01*
G01X50997Y29878D01*
X47073D01*
G02X46680Y30355I-1J400D01*
G03X46455Y31208I-986J196D01*
G02Y31469I152J131D01*
G03Y32783I-761J657D01*
G02Y33044I152J131D01*
G03X46692Y33825I-760J657D01*
G02X47089Y34274I397J49D01*
G01X47905D01*
X47941Y34260D01*
G03X49109Y34281I559J1390D01*
G01X49147Y34298D01*
X49850D01*
X50000Y34149D01*
Y30371D01*
X53680D01*
Y30271D01*
X57700D01*
Y34398D01*
X61344D01*
X61698Y34044D01*
Y18806D01*
X61344Y18452D01*
X59700D01*
Y22229D01*
X55680D01*
Y22129D01*
X54912D01*
Y23005D01*
X54228Y23688D01*
G02X54511Y24371I283J283D01*
G01X56680D01*
Y24271D01*
X60700D01*
Y28529D01*
X56680D01*
Y28429D01*
X53000D01*
G37*
G36*
G01X79758Y69952D02*
Y73759D01*
X79858D01*
Y77741D01*
X79758D01*
Y81381D01*
X73418D01*
Y81092D01*
X66432D01*
G02X66149Y81774I0J400D01*
G01X66202Y81827D01*
Y87873D01*
X64718Y89357D01*
G02X65001Y90040I283J283D01*
G01X97500D01*
Y71650D01*
X95829D01*
Y75735D01*
X95929D01*
Y79717D01*
X91671D01*
Y75735D01*
X91771D01*
Y74376D01*
X91551D01*
X90990Y73815D01*
X90782Y73901D01*
X84442D01*
Y69952D01*
X79758D01*
G37*
G36*
G01X105000Y-10740D02*
Y16748D01*
X106888D01*
Y15888D01*
X115112D01*
Y18148D01*
X128600D01*
G03X129421Y18341I-2J1852D01*
G02X129998Y17982I177J-359D01*
G01Y-1335D01*
G03X133246Y-6702I2J-3665D01*
G01X136867D01*
G03X143133I3133J1702D01*
G01X145702D01*
Y3702D01*
G02X145903Y3902I200J0D01*
G03X146818Y6596I13J1498D01*
G01Y8800D01*
X152498D01*
Y3073D01*
X149098Y-327D01*
Y-1548D01*
X148957Y-1591D01*
G03X151043I1043J-3409D01*
G01X150902Y-1548D01*
Y-1073D01*
X154302Y2327D01*
Y8800D01*
X159459D01*
G02X159742Y8117I0J-400D01*
G01X155098Y3473D01*
Y596D01*
G03X156902I902J-1196D01*
G01Y2727D01*
X158416Y4241D01*
G02X159098Y3958I282J-283D01*
G01Y-1548D01*
X158957Y-1591D01*
G03X161043I1043J-3409D01*
G01X160902Y-1548D01*
Y4427D01*
X162061Y5586D01*
G02X162735Y5387I283J-283D01*
G03X164319Y4207I1465J313D01*
G01X164411Y4214D01*
X165626Y3000D01*
X243174D01*
X250958Y10784D01*
Y16823D01*
X252834D01*
Y17000D01*
X254366D01*
Y16823D01*
X256242D01*
Y9516D01*
X248277Y1552D01*
X180777D01*
X179098Y-127D01*
Y-1548D01*
X178957Y-1591D01*
G03X181043I1043J-3409D01*
G01X180902Y-1548D01*
Y-873D01*
X181523Y-252D01*
X249023D01*
X258044Y8770D01*
Y16823D01*
X259920D01*
Y18698D01*
X260173D01*
X260889Y19414D01*
X260981Y19407D01*
G03X262554Y20541I119J1493D01*
G01X262592Y20693D01*
X262948D01*
Y20127D01*
X272727Y10348D01*
X272753D01*
X278413Y4688D01*
X274998Y1273D01*
Y-3227D01*
X274127Y-4098D01*
X273452D01*
X273409Y-3957D01*
G03Y-6043I-3409J-1043D01*
G01X273452Y-5902D01*
X274873D01*
X275763Y-5012D01*
G02X276445Y-5265I283J-283D01*
G03X277484Y-2475I3555J265D01*
G02X276802Y-2191I-282J284D01*
G01Y527D01*
X279173Y2898D01*
X305223D01*
X309608Y7284D01*
Y10817D01*
X317756D01*
Y7280D01*
X320368Y4668D01*
G03X322632Y6932I1132J1132D01*
G01X320958Y8606D01*
Y10817D01*
X321556D01*
Y9533D01*
X328648Y2440D01*
Y-1436D01*
X326436D01*
Y-8564D01*
X331200D01*
Y-10740D01*
X105000D01*
G37*
G36*
G01X211880Y11702D02*
Y13098D01*
X211800D01*
Y15535D01*
X212213Y15948D01*
X212263D01*
X216013Y19698D01*
X226260D01*
Y19114D01*
X230634D01*
Y23486D01*
X230048D01*
Y25814D01*
X230634D01*
Y30186D01*
X226260D01*
Y25814D01*
X226846D01*
Y23486D01*
X226260D01*
Y22902D01*
X216482D01*
G02X216199Y23584I0J400D01*
G01X217866Y25251D01*
Y33801D01*
X218863Y34798D01*
X224480D01*
Y33623D01*
X230034D01*
Y39177D01*
X224480D01*
Y38002D01*
X217537D01*
X214662Y35127D01*
Y26577D01*
X213121Y25036D01*
G02X212486Y25129I-283J283D01*
G03X209972Y25320I-1318J-711D01*
G01X202848D01*
Y26309D01*
X197490D01*
Y25320D01*
X186510D01*
Y26309D01*
X181202D01*
Y27074D01*
X179874Y28402D01*
X179620D01*
Y30277D01*
X174066D01*
Y29200D01*
X172534D01*
Y30277D01*
X166980D01*
Y25302D01*
X166263D01*
X157420Y34144D01*
X156177D01*
Y35320D01*
X150623D01*
Y34394D01*
X148977D01*
X143808Y29225D01*
X143561Y29327D01*
Y29361D01*
X138702D01*
Y35448D01*
X139998D01*
X141202Y36652D01*
Y37938D01*
G02X141791Y38291I400J1D01*
G03Y40929I709J1319D01*
G02X141202Y41282I-189J352D01*
G01Y51322D01*
X143857D01*
G02X144140Y50639I0J-400D01*
G01X143298Y49798D01*
Y43602D01*
X144202Y42698D01*
X155223D01*
Y41852D01*
X153230D01*
X152340Y40962D01*
X151682D01*
Y41501D01*
X145342D01*
Y37719D01*
X151682D01*
Y38258D01*
X153460D01*
X154350Y39148D01*
X155223D01*
Y37723D01*
X160777D01*
Y39148D01*
X161780D01*
Y37723D01*
X167334D01*
Y42698D01*
X168766D01*
Y37623D01*
X174520D01*
Y43377D01*
X170459D01*
G02X170318Y43718I0J200D01*
G01X170502Y43902D01*
Y44322D01*
X175223D01*
Y49878D01*
X170502D01*
Y51102D01*
X172455Y53056D01*
G02X173138Y52773I283J-283D01*
G01Y51770D01*
X178498D01*
Y54598D01*
X179998D01*
X181502Y56102D01*
Y63998D01*
X180098Y65402D01*
X169102D01*
X168350Y64649D01*
X167798Y65202D01*
X158252D01*
Y67067D01*
X153467Y71852D01*
X132182D01*
G02X131899Y72534I0J400D01*
G01X133563Y74198D01*
X138563D01*
X141602Y77237D01*
Y81815D01*
G03X138398I-1602J3185D01*
G01Y78563D01*
X137237Y77402D01*
X132237D01*
X123398Y68563D01*
Y65400D01*
G03X126079Y64217I1602J0D01*
G02X126748Y63921I269J-296D01*
G01Y21852D01*
X115112D01*
Y24112D01*
X106888D01*
Y19952D01*
X105000D01*
Y34350D01*
X106925D01*
X106927Y34348D01*
X108617D01*
G02X108824Y33606I0J-400D01*
G03X113912Y33043I2176J-3606D01*
G01X113850Y33103D01*
Y33443D01*
X114111D01*
X114162Y33408D01*
G03X114881Y36143I838J1242D01*
G01X114789Y36136D01*
X114773Y36152D01*
X113910D01*
G02X113652Y36857I0J400D01*
G03X113146Y43507I-2652J3142D01*
G02X113355Y44248I209J341D01*
G01X119223D01*
X119989Y45014D01*
X120081Y45007D01*
G03X118707Y46381I119J1493D01*
G01X118714Y46289D01*
X118477Y46052D01*
X113787D01*
G02X113540Y46766I0J400D01*
G03X106938Y49362I-2540J3234D01*
G02X106543Y48900I-395J-62D01*
G01X105000D01*
Y60698D01*
X105873D01*
X106281Y61106D01*
G02X106957Y60750I283J-283D01*
G03X114013Y62798I4043J-750D01*
G02X114069Y63393I293J273D01*
G03X114680Y64584I-887J1207D01*
G02X115363Y64862I400J-4D01*
G01X115614Y64611D01*
X115607Y64519D01*
G03X116981Y65893I1493J-119D01*
G01X116889Y65886D01*
X115487Y67288D01*
X109913D01*
X105683Y63058D01*
G02X105000Y63341I-283J283D01*
G01Y90040D01*
X331200D01*
Y88564D01*
X326436D01*
Y81436D01*
X331200D01*
Y69234D01*
X328096D01*
Y69134D01*
X327358D01*
Y69316D01*
X326086Y70589D01*
X326093Y70681D01*
G03X323142Y71145I-1493J119D01*
G02X322470Y70955I-389J93D01*
G01X321673Y71752D01*
X320949D01*
G03X320507Y69908I-1349J-652D01*
G01X320561Y69948D01*
X320927D01*
X321058Y69817D01*
G02X320775Y69134I-283J-283D01*
G01X288308D01*
Y70816D01*
X286923Y72202D01*
X283696D01*
G03X281364Y72276I-1196J-902D01*
G01X276498D01*
X271509Y77266D01*
G02X271792Y77948I283J282D01*
G01X310977D01*
X311514Y77411D01*
X311507Y77319D01*
G03X312881Y78693I1493J-119D01*
G01X312789Y78686D01*
X311723Y79752D01*
X308198D01*
G02X307840Y80330I0J400D01*
G03X307966Y81309I-1340J670D01*
G02X308523Y81755I391J82D01*
G03X306980Y83105I1477J3245D01*
G02X306612Y82494I-339J-212D01*
G03X305099Y81531I-112J-1494D01*
G01X305050Y81402D01*
X302343D01*
G02X302107Y82124I0J400D01*
G03X297893I-2107J2876D01*
G02X297657Y81402I-236J-322D01*
G01X292343D01*
G02X292107Y82124I0J400D01*
G03X287893I-2107J2876D01*
G02X287657Y81402I-236J-322D01*
G01X282343D01*
G02X282107Y82124I0J400D01*
G03X278957Y81591I-2107J2876D01*
G01X279098Y81548D01*
Y80727D01*
X279391Y80434D01*
G02X279108Y79752I-283J-282D01*
G01X272023D01*
X270902Y80873D01*
Y81548D01*
X271043Y81591D01*
G03X268957I-1043J3409D01*
G01X269098Y81548D01*
Y80642D01*
G02X268416Y80359I-400J0D01*
G01X268173Y80602D01*
X261861D01*
X261360Y81112D01*
G02X261479Y81756I285J280D01*
G03X258924Y81601I-1479J3244D01*
G01X259065Y81557D01*
X259059Y80883D01*
X261103Y78798D01*
X261700D01*
Y77602D01*
X238673D01*
X233079Y83196D01*
X233148Y83327D01*
G03X231673Y81852I-3148J1673D01*
G01X231804Y81921D01*
X237927Y75798D01*
X267649D01*
X274849Y68598D01*
X277004D01*
G03X279396I1196J902D01*
G01X282045D01*
Y62910D01*
X289069D01*
G02X289352Y62227I0J-400D01*
G01X288198Y61073D01*
Y53827D01*
X289802Y52223D01*
G02X289519Y51540I-283J-283D01*
G01X281228D01*
Y66650D01*
X275006D01*
Y66635D01*
G02X274323Y66352I-400J0D01*
G01X273975Y66700D01*
X274039Y66829D01*
G03X271384Y68216I-1340J670D01*
G02X270750Y68125I-351J192D01*
G01X269273Y69602D01*
X265573D01*
X259873Y75302D01*
X230973D01*
X223079Y83196D01*
X223148Y83327D01*
G03X221673Y81852I-3148J1673D01*
G01X221804Y81921D01*
X230227Y73498D01*
X238386D01*
G02X238726Y72888I0J-400D01*
G03X238987Y70996I1274J-788D01*
G02X238717Y70302I-270J-294D01*
G01X215073D01*
X214854Y70521D01*
X214967Y70661D01*
G03X212303Y71649I-1167J939D01*
G02X211620Y71379I-400J13D01*
G01X210902Y72097D01*
Y81548D01*
X211043Y81591D01*
G03X208957I-1043J3409D01*
G01X209098Y81548D01*
Y71346D01*
G02X208783Y70700I-315J-246D01*
G01X207000D01*
Y70582D01*
G02X206659Y70440I-200J0D01*
G01X200902Y76197D01*
Y81548D01*
X201043Y81591D01*
G03X198957I-1043J3409D01*
G01X199098Y81548D01*
Y75300D01*
X198000D01*
Y73641D01*
G02X197317Y73358I-400J0D01*
G01X194273Y76402D01*
X164573D01*
X160902Y80073D01*
Y81548D01*
X161043Y81591D01*
G03X158957I-1043J3409D01*
G01X159098Y81548D01*
Y79327D01*
X163241Y75184D01*
G02X162958Y74502I-283J-282D01*
G01X156673D01*
X150902Y80273D01*
Y81548D01*
X151043Y81591D01*
G03X148957I-1043J3409D01*
G01X149098Y81548D01*
Y79527D01*
X155927Y72698D01*
X182333D01*
G02X182716Y72183I0J-400D01*
G03X184269Y70257I1434J-433D01*
G01X184361Y70264D01*
X193427Y61198D01*
X250227D01*
X254648Y56777D01*
Y56303D01*
X254366D01*
X254307Y56361D01*
G03X253131Y56793I-1057J-1061D01*
G01X253039Y56786D01*
X250041Y59784D01*
X249848D01*
Y60773D01*
X244490D01*
Y59784D01*
X233510D01*
Y60773D01*
X228152D01*
Y56991D01*
X233510D01*
Y57980D01*
X244490D01*
Y56991D01*
X249848D01*
Y57079D01*
X250094Y57181D01*
X251764Y55511D01*
X251757Y55419D01*
G03X254038Y54026I1493J-119D01*
G02X254648Y53686I210J-340D01*
G01Y49692D01*
G02X253966Y49409I-400J0D01*
G01X252055Y51320D01*
X249848D01*
Y52309D01*
X244490D01*
Y51320D01*
X233510D01*
Y52309D01*
X228152D01*
Y51320D01*
X226895D01*
X225311Y49736D01*
X225219Y49743D01*
G03X226593Y48369I-119J-1493D01*
G01X226586Y48461D01*
X227641Y49516D01*
X228152D01*
Y48527D01*
X233510D01*
Y49516D01*
X244490D01*
Y48527D01*
X249848D01*
Y49516D01*
X251309D01*
X253398Y47427D01*
Y40178D01*
G02X252716Y39896I-400J1D01*
G01X251252Y41360D01*
Y44960D01*
X249060Y47152D01*
X236340D01*
X232848Y43660D01*
Y40847D01*
X232831Y40809D01*
G03X232785Y39708I1369J-609D01*
G02X232407Y39177I-378J-131D01*
G01X231566D01*
Y33623D01*
X237120D01*
Y39177D01*
X235694D01*
Y40097D01*
X235695Y40104D01*
G03Y40296I-1495J96D01*
G01X235694Y40303D01*
Y40617D01*
X235614Y40698D01*
X235598Y40737D01*
G03X235569Y40809I-1404J-523D01*
G01X235552Y40847D01*
Y42540D01*
X237460Y44448D01*
X240723D01*
Y38766D01*
X246277D01*
Y38982D01*
G02X246960Y39265I400J0D01*
G01X253114Y33111D01*
X253107Y33019D01*
G03X254982Y31452I1493J-119D01*
G02X255484Y31065I102J-387D01*
G01Y28207D01*
G03X257698Y26413I816J-1257D01*
G01X257714Y26452D01*
X258188Y26926D01*
Y32622D01*
G02X258870Y32905I400J0D01*
G01X261148Y30627D01*
Y27396D01*
G03X262443Y24755I902J-1196D01*
G02X262948Y24369I105J-386D01*
G01Y22126D01*
G02X262243Y21868I-400J0D01*
G03X260235Y22123I-1143J-968D01*
G02X259920Y22287I-115J164D01*
G01Y22377D01*
X255105D01*
X255096Y22568D01*
G03X253481Y23993I-1496J-68D01*
G01X253389Y23986D01*
X252973Y24402D01*
X247428D01*
X246618Y23592D01*
G02X246277Y23734I-141J142D01*
G01X240723D01*
Y21858D01*
X239716D01*
X239373Y22202D01*
X236540D01*
Y23486D01*
X232166D01*
Y19114D01*
X236100D01*
Y16877D01*
X230680D01*
Y11702D01*
X211880D01*
G37*
G36*
G01X133564Y-5090D02*
G03X131200Y-1643I-3564J90D01*
G01Y62650D01*
X139000D01*
X140000Y61650D01*
Y45242D01*
X134317D01*
Y37718D01*
X140000D01*
Y37150D01*
X139500Y36650D01*
X138000D01*
X137500Y36150D01*
Y29361D01*
X136039D01*
Y21839D01*
X137500D01*
Y18576D01*
G03X143074Y13748I2301J-2976D01*
G01X143604D01*
X143807Y13966D01*
G02X144500Y13694I293J-272D01*
G01Y5890D01*
X144490Y5860D01*
G03Y4940I1426J-460D01*
G01X144500Y4910D01*
Y-5500D01*
X144064D01*
G02X143664Y-5090I0J400D01*
G03X136336I-3664J90D01*
G02X135936Y-5500I-400J-10D01*
G01X133964D01*
G02X133564Y-5090I0J400D01*
G37*
G36*
G01X132367Y68148D02*
X151933D01*
X154548Y65533D01*
Y65202D01*
X153402D01*
X151970Y63769D01*
X146922D01*
Y58602D01*
X146402D01*
X146364Y58564D01*
G02X146023Y58705I-141J141D01*
G01Y63178D01*
X140269D01*
X140199Y63150D01*
X139498Y63852D01*
X130452D01*
Y66233D01*
X132367Y68148D01*
G37*
G36*
G01X168800Y43900D02*
X144700D01*
X144500Y44100D01*
Y49300D01*
X146200Y51000D01*
Y56700D01*
X146900Y57400D01*
X159300D01*
X161100Y55600D01*
X168100D01*
X168110Y55610D01*
X168162D01*
Y55662D01*
X168600Y56100D01*
Y63200D01*
X169600Y64200D01*
X179600D01*
X180300Y63500D01*
Y56600D01*
X179500Y55800D01*
X178398D01*
Y55850D01*
X173238D01*
Y55538D01*
X169300Y51600D01*
Y44400D01*
X168800Y43900D01*
G37*
G36*
G01X167398Y56802D02*
X161598D01*
X159798Y58602D01*
X152998D01*
X152900Y58700D01*
Y63000D01*
X153900Y64000D01*
X167300D01*
X167500Y63800D01*
Y63799D01*
X167398Y63698D01*
Y56802D01*
G37*
G36*
G01X249156Y16823D02*
Y11530D01*
X242428Y4802D01*
X180043D01*
G02X179760Y5485I0J400D01*
G01X180873Y6598D01*
X184573D01*
X187873Y9898D01*
X233373D01*
X234358Y10884D01*
Y11323D01*
X236234D01*
Y16600D01*
X237766D01*
Y11323D01*
X243320D01*
Y13198D01*
X244473D01*
X247602Y16327D01*
Y16823D01*
X249156D01*
G37*
G36*
G01X265952Y21397D02*
Y24597D01*
G02X266634Y24880I400J0D01*
G01X270177Y21338D01*
X275006D01*
Y17050D01*
X274906D01*
Y13228D01*
X281328D01*
Y17338D01*
X282045D01*
Y10817D01*
X282956D01*
Y10330D01*
X282427Y9802D01*
X277547D01*
X265952Y21397D01*
G37*
G36*
G01X303314Y17041D02*
G02X302932Y17559I0J400D01*
G03X302037Y19398I-1432J440D01*
G01X301998Y19414D01*
X301371Y20040D01*
X281228D01*
Y49738D01*
X290588D01*
X296398Y43927D01*
Y28275D01*
X296258Y28231D01*
G03X297316Y25435I442J-1431D01*
G01X297355Y25452D01*
X297598D01*
Y25023D01*
X296661Y24086D01*
X296569Y24093D01*
G03X297768Y21888I-119J-1493D01*
G02X298453Y21920I352J-190D01*
G03X300602Y23946I1247J830D01*
G01Y25878D01*
G02X301170Y26241I400J0D01*
G03X302702Y28796I630J1359D01*
G01Y34028D01*
G02X303354Y34338I400J0D01*
G03X305202Y36696I946J1162D01*
G01Y42489D01*
G02X305844Y42807I400J0D01*
G03X307843Y42975I906J1193D01*
G02X308380Y43018I292J-273D01*
G03X310745Y44595I920J1182D01*
G02X311131Y45100I386J105D01*
G01X312198D01*
Y45090D01*
X323248Y34040D01*
Y20960D01*
X321556Y19267D01*
Y17041D01*
X317587D01*
G02X317212Y17580I0J400D01*
G03X314402I-1405J520D01*
G02X314027Y17041I-375J-139D01*
G01X313565D01*
Y17281D01*
X313581Y17319D01*
G03X310746Y17538I-1381J581D01*
G02X310358Y17041I-388J-97D01*
G01X303314D01*
G37*
G36*
G01X296875Y50400D02*
X291502Y55773D01*
Y58174D01*
G02X292207Y58432I400J0D01*
G03X294781Y58958I1143J968D01*
G01X294825Y59098D01*
X296630D01*
X298958Y61427D01*
Y62910D01*
X300706D01*
Y60919D01*
X302126Y59498D01*
X303781D01*
X304195Y59084D01*
X304115Y58950D01*
G03X305793Y56736I1285J-769D01*
G02X306298Y56350I105J-386D01*
G01Y54873D01*
X301825Y50400D01*
X296875D01*
G37*
G36*
G01X320002Y48346D02*
Y54928D01*
X327358Y62285D01*
Y62910D01*
X328096D01*
Y62810D01*
X331200D01*
Y17140D01*
X328096D01*
Y17041D01*
X327358D01*
Y40566D01*
X324211Y43714D01*
X324218Y43806D01*
G03X322705Y45423I-1493J119D01*
G02X322300Y45823I-5J400D01*
G01Y46000D01*
X320843D01*
G02X320476Y46558I0J400D01*
G03X320002Y48346I-1376J592D01*
G37*
%LPC*%
G75*
G36*
G01X-16105Y16910D02*
G03X-15705Y16486I400J-24D01*
G01X-12966D01*
Y12114D01*
X-17340D01*
Y13865D01*
X-18502Y15027D01*
Y15804D01*
G02X-16105Y16910I902J1196D01*
G37*
G36*
G01X76772Y41210D02*
X76702Y41150D01*
Y40973D01*
X81402Y36273D01*
Y17576D01*
X75932Y12107D01*
Y9223D01*
X77710D01*
Y8234D01*
X88690D01*
Y9223D01*
X94048D01*
Y5441D01*
X88690D01*
Y6430D01*
X77710D01*
Y5441D01*
X72352D01*
Y9223D01*
X74130D01*
Y12853D01*
X79598Y18322D01*
Y35527D01*
X74898Y40227D01*
Y41154D01*
G02X76772Y41210I902J1196D01*
G37*
G36*
G01X-18839Y-91990D02*
Y-92858D01*
X-18051D01*
X-18035Y-92842D01*
X-17975D01*
X-17959Y-92826D01*
X-17927D01*
Y-92810D01*
X-17879D01*
Y-92794D01*
X-17863D01*
Y-92778D01*
X-17831D01*
Y-92762D01*
X-17815D01*
Y-92746D01*
X-17799D01*
Y-92730D01*
X-17783D01*
Y-92714D01*
X-17767D01*
Y-92698D01*
X-17755D01*
Y-92682D01*
X-17739D01*
Y-92650D01*
X-17723D01*
Y-92622D01*
X-17707D01*
Y-92590D01*
X-17691D01*
Y-92526D01*
X-17675D01*
Y-92322D01*
X-17691Y-92306D01*
Y-92258D01*
X-17707D01*
Y-92226D01*
X-17723D01*
Y-92194D01*
X-17739D01*
Y-92162D01*
X-17755D01*
Y-92146D01*
X-17767D01*
Y-92130D01*
X-17783D01*
Y-92118D01*
X-17799D01*
Y-92102D01*
X-17815D01*
Y-92086D01*
X-17831D01*
Y-92070D01*
X-17863D01*
Y-92054D01*
X-17879D01*
X-17895Y-92038D01*
X-17927D01*
Y-92022D01*
X-17975D01*
Y-92006D01*
X-18051D01*
X-18067Y-91990D01*
X-18839D01*
G37*
G36*
G01Y-90574D02*
Y-91374D01*
X-18035D01*
X-18019Y-91362D01*
X-17975D01*
Y-91346D01*
X-17943D01*
Y-91330D01*
X-17911D01*
Y-91314D01*
X-17879D01*
Y-91298D01*
X-17863D01*
Y-91282D01*
X-17847D01*
X-17831Y-91266D01*
Y-91250D01*
X-17815D01*
X-17799Y-91234D01*
Y-91218D01*
X-17783D01*
Y-91202D01*
X-17767Y-91186D01*
Y-91170D01*
X-17755D01*
Y-91138D01*
X-17739Y-91122D01*
Y-91078D01*
X-17723D01*
Y-90886D01*
X-17739D01*
Y-90842D01*
X-17755Y-90826D01*
Y-90794D01*
X-17767D01*
Y-90762D01*
X-17783D01*
Y-90746D01*
X-17799D01*
Y-90714D01*
X-17815D01*
Y-90698D01*
X-17831D01*
Y-90682D01*
X-17847D01*
X-17863Y-90666D01*
X-17879D01*
Y-90650D01*
X-17895D01*
Y-90634D01*
X-17927D01*
Y-90622D01*
X-17959D01*
X-17975Y-90606D01*
X-18003D01*
X-18019Y-90590D01*
X-18099D01*
Y-90574D01*
X-18839D01*
G37*
G36*
G01X-7815Y-90794D02*
Y-90778D01*
X-7831D01*
Y-90762D01*
X-7847D01*
Y-90746D01*
X-7863D01*
Y-90730D01*
X-7879D01*
X-7911Y-90698D01*
X-7927D01*
Y-90682D01*
X-7943D01*
Y-90666D01*
X-7975D01*
Y-90650D01*
X-7991D01*
X-8003Y-90634D01*
X-8035D01*
Y-90622D01*
X-8067D01*
X-8083Y-90606D01*
X-8131D01*
X-8147Y-90590D01*
X-8243D01*
Y-90574D01*
X-8839D01*
Y-92858D01*
X-8227D01*
Y-92842D01*
X-8131D01*
X-8115Y-92826D01*
X-8067D01*
Y-92810D01*
X-8035D01*
X-8019Y-92794D01*
X-8003D01*
X-7991Y-92778D01*
X-7975D01*
X-7959Y-92762D01*
X-7943D01*
Y-92746D01*
X-7927D01*
Y-92730D01*
X-7911D01*
X-7895Y-92714D01*
X-7879D01*
Y-92698D01*
X-7863Y-92682D01*
X-7847D01*
Y-92666D01*
X-7831D01*
Y-92650D01*
X-7815D01*
Y-92634D01*
X-7799D01*
Y-92606D01*
X-7783D01*
Y-92590D01*
X-7767Y-92574D01*
Y-92558D01*
X-7755Y-92542D01*
Y-92526D01*
X-7739Y-92510D01*
Y-92478D01*
X-7723Y-92462D01*
Y-92414D01*
X-7707D01*
Y-92338D01*
X-7691Y-92322D01*
Y-92210D01*
X-7675Y-92194D01*
Y-91218D01*
X-7691Y-91202D01*
Y-91094D01*
X-7707Y-91078D01*
Y-91014D01*
X-7723D01*
Y-90950D01*
X-7739D01*
Y-90918D01*
X-7755Y-90902D01*
Y-90870D01*
X-7767D01*
Y-90858D01*
X-7783Y-90842D01*
Y-90826D01*
X-7799D01*
Y-90810D01*
X-7815Y-90794D01*
G37*
G36*
G01X-1235D02*
Y-90778D01*
X-1251D01*
Y-90762D01*
X-1263Y-90746D01*
X-1279D01*
Y-90730D01*
X-1295D01*
Y-90714D01*
X-1311D01*
Y-90698D01*
X-1327D01*
X-1343Y-90682D01*
X-1359D01*
Y-90666D01*
X-1375D01*
X-1391Y-90650D01*
X-1407D01*
Y-90634D01*
X-1439D01*
X-1455Y-90622D01*
X-1487D01*
Y-90606D01*
X-1547D01*
Y-90590D01*
X-1643D01*
X-1659Y-90574D01*
X-2255D01*
Y-92858D01*
X-1643D01*
X-1627Y-92842D01*
X-1531D01*
Y-92826D01*
X-1487D01*
Y-92810D01*
X-1439D01*
Y-92794D01*
X-1407D01*
Y-92778D01*
X-1375D01*
Y-92762D01*
X-1359D01*
Y-92746D01*
X-1343D01*
X-1327Y-92730D01*
X-1311D01*
Y-92714D01*
X-1295D01*
Y-92698D01*
X-1279D01*
Y-92682D01*
X-1263D01*
Y-92666D01*
X-1251D01*
Y-92650D01*
X-1235D01*
Y-92634D01*
X-1219D01*
Y-92622D01*
X-1203D01*
Y-92590D01*
X-1187D01*
Y-92574D01*
X-1171Y-92558D01*
Y-92526D01*
X-1155D01*
Y-92494D01*
X-1139D01*
Y-92446D01*
X-1123Y-92430D01*
Y-92370D01*
X-1107D01*
Y-92258D01*
X-1091D01*
Y-92022D01*
X-1075Y-92006D01*
Y-91390D01*
X-1091Y-91374D01*
Y-91154D01*
X-1107D01*
Y-91062D01*
X-1123Y-91046D01*
Y-90982D01*
X-1139D01*
Y-90934D01*
X-1155D01*
Y-90902D01*
X-1171D01*
Y-90870D01*
X-1187Y-90858D01*
Y-90842D01*
X-1203D01*
Y-90826D01*
X-1219Y-90810D01*
Y-90794D01*
X-1235D01*
G37*
G36*
G01X-11251D02*
Y-90778D01*
X-11263D01*
Y-90762D01*
X-11279Y-90746D01*
X-11295D01*
Y-90730D01*
X-11311D01*
Y-90714D01*
X-11327D01*
Y-90698D01*
X-11343D01*
Y-90682D01*
X-11375D01*
Y-90666D01*
X-11391D01*
X-11407Y-90650D01*
X-11423D01*
Y-90634D01*
X-11455D01*
X-11471Y-90622D01*
X-11503D01*
Y-90606D01*
X-11563D01*
Y-90590D01*
X-11659D01*
X-11675Y-90574D01*
X-12271D01*
Y-92858D01*
X-11659D01*
X-11643Y-92842D01*
X-11547D01*
Y-92826D01*
X-11503D01*
Y-92810D01*
X-11455D01*
Y-92794D01*
X-11423D01*
Y-92778D01*
X-11391D01*
Y-92762D01*
X-11375D01*
Y-92746D01*
X-11343D01*
Y-92730D01*
X-11327D01*
Y-92714D01*
X-11311D01*
Y-92698D01*
X-11295D01*
Y-92682D01*
X-11279D01*
Y-92666D01*
X-11263D01*
Y-92650D01*
X-11251D01*
Y-92634D01*
X-11235D01*
Y-92622D01*
X-11219D01*
Y-92590D01*
X-11203D01*
Y-92574D01*
X-11187Y-92558D01*
Y-92542D01*
X-11171Y-92526D01*
Y-92494D01*
X-11155D01*
Y-92446D01*
X-11139Y-92430D01*
Y-92382D01*
X-11123Y-92370D01*
Y-92258D01*
X-11107D01*
Y-92022D01*
X-11091Y-92006D01*
Y-91390D01*
X-11107Y-91374D01*
Y-91154D01*
X-11123D01*
Y-91046D01*
X-11139D01*
Y-90982D01*
X-11155D01*
Y-90934D01*
X-11171D01*
Y-90902D01*
X-11187Y-90886D01*
Y-90870D01*
X-11203Y-90858D01*
Y-90842D01*
X-11219D01*
Y-90826D01*
X-11235Y-90810D01*
Y-90794D01*
X-11251D01*
G37*
G36*
G01X-3503Y-76446D02*
X-3515Y-76398D01*
Y-76306D01*
X-3531Y-76258D01*
Y-76210D01*
X-3547Y-76178D01*
X-3595Y-76038D01*
X-3611Y-76006D01*
X-3627Y-75958D01*
X-3643Y-75926D01*
X-3659Y-75878D01*
X-3675Y-75850D01*
X-3707Y-75802D01*
X-3723Y-75770D01*
X-3755Y-75738D01*
X-3783Y-75690D01*
X-4035Y-75438D01*
X-4083Y-75406D01*
X-4115Y-75374D01*
X-4147Y-75362D01*
X-4195Y-75330D01*
X-4227Y-75314D01*
X-4271Y-75298D01*
X-4303Y-75282D01*
X-4351Y-75250D01*
X-4383Y-75234D01*
X-4431D01*
X-4523Y-75202D01*
X-4555Y-75186D01*
X-4603D01*
X-4651Y-75170D01*
X-4747D01*
X-4791Y-75154D01*
X-6399D01*
X-6415Y-75170D01*
X-6447D01*
X-6463Y-75186D01*
X-6495D01*
X-6507Y-75202D01*
Y-75218D01*
X-6523D01*
X-6539Y-75234D01*
Y-75250D01*
X-6555Y-75266D01*
Y-75282D01*
X-6571D01*
Y-75346D01*
X-6587Y-75362D01*
Y-79626D01*
X-6571Y-79642D01*
Y-79706D01*
X-6539Y-79738D01*
Y-79754D01*
X-6523Y-79770D01*
X-6507D01*
Y-79786D01*
X-6495Y-79802D01*
X-6463D01*
X-6447Y-79818D01*
X-6415D01*
X-6399Y-79834D01*
X-4791D01*
X-4747Y-79818D01*
X-4651D01*
X-4603Y-79802D01*
X-4555D01*
X-4523Y-79786D01*
X-4431Y-79754D01*
X-4383D01*
X-4351Y-79738D01*
X-4303Y-79706D01*
X-4271Y-79690D01*
X-4227Y-79674D01*
X-4195Y-79658D01*
X-4147Y-79626D01*
X-4115Y-79614D01*
X-4083Y-79582D01*
X-4035Y-79550D01*
X-4003Y-79518D01*
X-3975Y-79502D01*
X-3943Y-79470D01*
X-3911Y-79422D01*
X-3783Y-79298D01*
X-3755Y-79250D01*
X-3723Y-79218D01*
X-3707Y-79186D01*
X-3675Y-79138D01*
X-3659Y-79110D01*
X-3643Y-79062D01*
X-3627Y-79030D01*
X-3611Y-78982D01*
X-3595Y-78950D01*
X-3563Y-78858D01*
X-3547Y-78826D01*
X-3531Y-78778D01*
Y-78730D01*
X-3515Y-78682D01*
Y-78590D01*
X-3503Y-78542D01*
Y-76446D01*
G37*
G36*
G01X6121Y-76354D02*
X6105Y-76306D01*
Y-76210D01*
X6073Y-76118D01*
Y-76086D01*
X6041Y-75990D01*
X6025Y-75958D01*
X5997Y-75866D01*
X5965Y-75834D01*
X5949Y-75786D01*
X5917Y-75754D01*
X5901Y-75722D01*
X5869Y-75674D01*
X5837Y-75642D01*
X5821Y-75614D01*
X5789Y-75582D01*
X5757Y-75534D01*
X5697Y-75470D01*
X5649Y-75438D01*
X5585Y-75374D01*
X5553Y-75362D01*
X5505Y-75330D01*
X5477Y-75298D01*
X5445Y-75282D01*
X5397Y-75266D01*
X5365Y-75234D01*
X5269Y-75202D01*
X5241Y-75186D01*
X5193Y-75170D01*
X5161Y-75154D01*
X5113Y-75138D01*
X5065D01*
X5017Y-75122D01*
X4973D01*
X4925Y-75110D01*
X3177D01*
X3145Y-75122D01*
X3129D01*
X3113Y-75138D01*
X3097D01*
X3081Y-75154D01*
X3065D01*
Y-75170D01*
X3049Y-75186D01*
Y-75202D01*
X3033D01*
Y-75218D01*
X3017Y-75234D01*
Y-75266D01*
X3001Y-75282D01*
Y-79314D01*
X3017Y-79330D01*
Y-79362D01*
X3033Y-79374D01*
Y-79390D01*
X3049Y-79406D01*
Y-79422D01*
X3065D01*
Y-79438D01*
X3081Y-79454D01*
X3097D01*
X3113Y-79470D01*
X3129D01*
Y-79486D01*
X3145D01*
X3177Y-79502D01*
X4925D01*
X4973Y-79486D01*
X5017D01*
X5113Y-79454D01*
X5161D01*
X5193Y-79438D01*
X5241Y-79422D01*
X5269Y-79406D01*
X5365Y-79374D01*
X5397Y-79346D01*
X5445Y-79330D01*
X5477Y-79298D01*
X5505Y-79282D01*
X5553Y-79250D01*
X5585Y-79234D01*
X5649Y-79170D01*
X5697Y-79138D01*
X5757Y-79078D01*
X5789Y-79030D01*
X5821Y-78998D01*
X5837Y-78966D01*
X5869Y-78934D01*
X5901Y-78886D01*
X5917Y-78858D01*
X5949Y-78810D01*
X5965Y-78778D01*
X5997Y-78746D01*
X6025Y-78650D01*
X6041Y-78622D01*
X6073Y-78526D01*
Y-78494D01*
X6105Y-78398D01*
Y-78306D01*
X6121Y-78258D01*
Y-76354D01*
G37*
G36*
G01X13253Y-90730D02*
Y-90714D01*
X13241D01*
X13177Y-90650D01*
X13161D01*
X13129Y-90622D01*
X13113D01*
X13097Y-90606D01*
X13081D01*
X13065Y-90590D01*
X13033D01*
X13017Y-90574D01*
X12989D01*
X12957Y-90558D01*
X12877D01*
X12845Y-90542D01*
X12797D01*
X12781Y-90558D01*
X12689D01*
X12673Y-90574D01*
X12625D01*
X12609Y-90590D01*
X12593D01*
X12577Y-90606D01*
X12545D01*
X12529Y-90622D01*
X12513D01*
X12485Y-90650D01*
X12469D01*
X12373Y-90746D01*
X12357Y-90778D01*
X12309Y-90826D01*
Y-90858D01*
X12293Y-90870D01*
X12277Y-90902D01*
Y-90934D01*
X12261Y-90966D01*
Y-90998D01*
X12245Y-91030D01*
Y-91110D01*
X12233Y-91154D01*
Y-91298D01*
X12217Y-91362D01*
Y-92070D01*
X12233Y-92130D01*
Y-92290D01*
X12245Y-92322D01*
Y-92398D01*
X12261Y-92430D01*
Y-92462D01*
X12277Y-92494D01*
Y-92526D01*
X12293Y-92558D01*
X12309Y-92574D01*
Y-92606D01*
X12357Y-92650D01*
X12373Y-92682D01*
X12405Y-92714D01*
Y-92730D01*
X12421D01*
X12469Y-92778D01*
X12485D01*
X12513Y-92810D01*
X12529D01*
X12545Y-92826D01*
X12577D01*
X12593Y-92842D01*
X12609D01*
X12625Y-92858D01*
X12657D01*
X12673Y-92870D01*
X12749D01*
X12781Y-92886D01*
X12877D01*
X12893Y-92870D01*
X12989D01*
X13001Y-92858D01*
X13017D01*
X13033Y-92842D01*
X13065D01*
X13081Y-92826D01*
X13097D01*
X13113Y-92810D01*
X13129D01*
X13161Y-92778D01*
X13177D01*
X13225Y-92730D01*
X13241D01*
X13253Y-92714D01*
Y-92698D01*
X13285Y-92682D01*
Y-92650D01*
X13333Y-92606D01*
X13349Y-92574D01*
Y-92558D01*
X13381Y-92494D01*
Y-92462D01*
X13397Y-92430D01*
Y-92398D01*
X13413Y-92370D01*
Y-92242D01*
X13429Y-92178D01*
Y-91250D01*
X13413Y-91202D01*
Y-91062D01*
X13397Y-91030D01*
Y-90998D01*
X13381Y-90966D01*
Y-90934D01*
X13349Y-90870D01*
Y-90858D01*
X13333Y-90826D01*
X13285Y-90778D01*
Y-90746D01*
X13253Y-90730D01*
G37*
G36*
G01X30973Y-90714D02*
X30957D01*
X30941Y-90698D01*
Y-90682D01*
X30909Y-90650D01*
X30893D01*
X30861Y-90622D01*
X30829D01*
X30813Y-90606D01*
X30797D01*
X30781Y-90590D01*
X30765D01*
X30749Y-90574D01*
X30705D01*
X30689Y-90558D01*
X30593D01*
X30577Y-90542D01*
X30529D01*
X30497Y-90558D01*
X30421D01*
X30389Y-90574D01*
X30357D01*
X30341Y-90590D01*
X30309D01*
X30293Y-90606D01*
X30277D01*
X30261Y-90622D01*
X30245D01*
X30217Y-90650D01*
X30201D01*
X30137Y-90714D01*
X30121D01*
X30089Y-90746D01*
X30073Y-90778D01*
X30041Y-90810D01*
Y-90826D01*
X30025Y-90858D01*
X30009Y-90870D01*
Y-90902D01*
X29997Y-90934D01*
Y-90966D01*
X29981Y-90998D01*
Y-91030D01*
X29965Y-91062D01*
Y-91154D01*
X29949Y-91202D01*
Y-92242D01*
X29965Y-92290D01*
Y-92370D01*
X29981Y-92398D01*
Y-92430D01*
X29997Y-92462D01*
Y-92494D01*
X30009Y-92526D01*
Y-92558D01*
X30025Y-92574D01*
X30041Y-92606D01*
Y-92622D01*
X30073Y-92650D01*
X30089Y-92682D01*
X30137Y-92730D01*
X30153D01*
X30201Y-92778D01*
X30217D01*
X30245Y-92810D01*
X30261D01*
X30277Y-92826D01*
X30293D01*
X30309Y-92842D01*
X30341D01*
X30357Y-92858D01*
X30373D01*
X30389Y-92870D01*
X30485D01*
X30497Y-92886D01*
X30593D01*
X30625Y-92870D01*
X30705D01*
X30721Y-92858D01*
X30749D01*
X30765Y-92842D01*
X30781D01*
X30797Y-92826D01*
X30813D01*
X30829Y-92810D01*
X30861D01*
X30893Y-92778D01*
X30909D01*
X30941Y-92746D01*
Y-92730D01*
X30957D01*
X31001Y-92682D01*
X31017Y-92650D01*
X31049Y-92622D01*
Y-92606D01*
X31065Y-92574D01*
X31081Y-92558D01*
X31097Y-92526D01*
Y-92494D01*
X31113Y-92462D01*
Y-92430D01*
X31129Y-92398D01*
Y-92322D01*
X31145Y-92290D01*
Y-92130D01*
X31161Y-92070D01*
Y-91362D01*
X31145Y-91298D01*
Y-91154D01*
X31129Y-91110D01*
Y-91030D01*
X31113Y-90998D01*
Y-90966D01*
X31097Y-90934D01*
Y-90902D01*
X31081Y-90870D01*
X31065Y-90858D01*
X31049Y-90826D01*
Y-90810D01*
X31017Y-90778D01*
X31001Y-90746D01*
X30973Y-90714D01*
G37*
G36*
G01X26657Y-90574D02*
Y-91502D01*
X27381D01*
Y-91486D01*
X27461D01*
Y-91470D01*
X27505D01*
X27521Y-91454D01*
X27537D01*
X27553Y-91438D01*
X27569D01*
Y-91422D01*
X27601D01*
Y-91406D01*
X27617D01*
X27633Y-91390D01*
X27649D01*
Y-91374D01*
X27665D01*
Y-91362D01*
X27681D01*
Y-91346D01*
X27713Y-91314D01*
Y-91298D01*
X27729D01*
Y-91282D01*
X27745Y-91266D01*
Y-91250D01*
X27757Y-91234D01*
Y-91202D01*
X27773D01*
Y-91154D01*
X27789Y-91138D01*
Y-90934D01*
X27773Y-90918D01*
Y-90870D01*
X27757D01*
Y-90842D01*
X27745Y-90826D01*
Y-90810D01*
X27729Y-90794D01*
Y-90778D01*
X27713D01*
Y-90762D01*
X27681Y-90730D01*
Y-90714D01*
X27665D01*
Y-90698D01*
X27649D01*
X27617Y-90666D01*
X27601D01*
Y-90650D01*
X27569D01*
Y-90634D01*
X27537D01*
Y-90622D01*
X27505D01*
Y-90606D01*
X27461D01*
X27445Y-90590D01*
X27365D01*
Y-90574D01*
X26657D01*
G37*
G36*
G01X23241D02*
Y-91502D01*
X23949D01*
X23965Y-91486D01*
X24041D01*
Y-91470D01*
X24089D01*
Y-91454D01*
X24121D01*
X24137Y-91438D01*
X24153D01*
Y-91422D01*
X24169D01*
X24185Y-91406D01*
X24201D01*
Y-91390D01*
X24217D01*
X24277Y-91330D01*
Y-91314D01*
X24293D01*
Y-91298D01*
X24309Y-91282D01*
Y-91266D01*
X24325D01*
Y-91234D01*
X24341D01*
Y-91202D01*
X24357Y-91186D01*
Y-91138D01*
X24373Y-91122D01*
Y-90950D01*
X24357D01*
Y-90886D01*
X24341Y-90870D01*
Y-90842D01*
X24325D01*
Y-90810D01*
X24309D01*
Y-90794D01*
X24293Y-90778D01*
Y-90762D01*
X24277D01*
Y-90746D01*
X24233Y-90698D01*
X24217D01*
Y-90682D01*
X24201D01*
Y-90666D01*
X24185D01*
X24169Y-90650D01*
X24153D01*
Y-90634D01*
X24121D01*
Y-90622D01*
X24089D01*
X24073Y-90606D01*
X24041D01*
X24025Y-90590D01*
X23949D01*
X23933Y-90574D01*
X23241D01*
G37*
G36*
G01X20797Y-90730D02*
Y-90714D01*
X20781D01*
X20721Y-90650D01*
X20705D01*
X20673Y-90622D01*
X20657D01*
X20641Y-90606D01*
X20625D01*
X20593Y-90590D01*
X20577D01*
X20561Y-90574D01*
X20513D01*
X20497Y-90558D01*
X20421D01*
X20389Y-90542D01*
X20341D01*
X20325Y-90558D01*
X20233D01*
X20217Y-90574D01*
X20169D01*
X20153Y-90590D01*
X20137D01*
X20121Y-90606D01*
X20089D01*
X20073Y-90622D01*
X20057D01*
X20025Y-90650D01*
X20009D01*
X19949Y-90714D01*
X19933D01*
Y-90730D01*
X19917Y-90746D01*
X19901Y-90778D01*
X19853Y-90826D01*
X19837Y-90858D01*
Y-90870D01*
X19821Y-90902D01*
Y-90934D01*
X19805Y-90966D01*
Y-90998D01*
X19789Y-91030D01*
Y-91062D01*
X19773Y-91110D01*
Y-91250D01*
X19757Y-91298D01*
Y-92130D01*
X19773Y-92178D01*
Y-92322D01*
X19789Y-92370D01*
Y-92398D01*
X19805Y-92430D01*
Y-92462D01*
X19821Y-92494D01*
Y-92526D01*
X19837Y-92558D01*
Y-92574D01*
X19853Y-92606D01*
X19901Y-92650D01*
X19917Y-92682D01*
X19933Y-92698D01*
Y-92714D01*
X19949Y-92730D01*
X19965D01*
X20009Y-92778D01*
X20025D01*
X20057Y-92810D01*
X20073D01*
X20089Y-92826D01*
X20121D01*
X20137Y-92842D01*
X20153D01*
X20169Y-92858D01*
X20185D01*
X20217Y-92870D01*
X20293D01*
X20325Y-92886D01*
X20421D01*
X20437Y-92870D01*
X20513D01*
X20545Y-92858D01*
X20561D01*
X20577Y-92842D01*
X20593D01*
X20625Y-92826D01*
X20641D01*
X20657Y-92810D01*
X20673D01*
X20705Y-92778D01*
X20721D01*
X20765Y-92730D01*
X20781D01*
X20797Y-92714D01*
Y-92698D01*
X20813Y-92682D01*
X20829Y-92650D01*
X20877Y-92606D01*
X20893Y-92574D01*
Y-92558D01*
X20925Y-92494D01*
Y-92462D01*
X20941Y-92430D01*
Y-92370D01*
X20957Y-92322D01*
Y-92242D01*
X20973Y-92178D01*
Y-91250D01*
X20957Y-91202D01*
Y-91110D01*
X20941Y-91062D01*
Y-90998D01*
X20925Y-90966D01*
Y-90934D01*
X20893Y-90870D01*
Y-90858D01*
X20877Y-90826D01*
X20829Y-90778D01*
X20813Y-90746D01*
X20797Y-90730D01*
G37*
G36*
G01X90782Y81381D02*
Y77599D01*
X84442D01*
Y77888D01*
X83937D01*
X80998Y80827D01*
Y85600D01*
G02X84202I1602J0D01*
G01Y82153D01*
X84974Y81381D01*
X86872D01*
Y85500D01*
G02X90076I1602J0D01*
G01Y81381D01*
X90782D01*
G37*
G36*
G01X236540Y27098D02*
Y25814D01*
X232166D01*
Y30186D01*
X236540D01*
Y28902D01*
X236827D01*
X238198Y30273D01*
Y33473D01*
X240084Y35358D01*
X240723D01*
Y37234D01*
X246277D01*
Y31680D01*
X240723D01*
Y32965D01*
G03X240382Y33107I-200J0D01*
G01X240002Y32727D01*
Y29527D01*
X237573Y27098D01*
X236540D01*
G37*
G36*
G01X246277Y27142D02*
Y25266D01*
X240723D01*
Y30820D01*
X246277D01*
Y30318D01*
G03X246960Y30035I400J0D01*
G01X247214Y30289D01*
X247207Y30381D01*
G02X248581Y29007I1493J119D01*
G01X248489Y29014D01*
X246616Y27142D01*
X246277D01*
G37*
G54D65*
X170000Y-5000D03*
X190000D03*
X200000D03*
X210000D03*
X220000D03*
X230000D03*
X240000D03*
X250000D03*
X260000D03*
X290000D03*
X300000D03*
X310000D03*
X170000Y85000D03*
X180000D03*
X190000D03*
X240000D03*
X250000D03*
G54D66*
X320000Y-5000D03*
X130000Y85000D03*
X320000D03*
G54D61*
X30000Y-5000D03*
X40000D03*
X50000D03*
G54D64*
X91000Y50000D03*
Y60000D03*
G54D59*
X-31200Y-4400D03*
X-32000Y84300D03*
G54D62*
X60000Y-5000D03*
G54D60*
X-9247Y14300D03*
X49053Y65800D03*
G54D63*
X75031Y-1132D03*
X91369D03*
X183831Y32882D03*
X200169D03*
%LPD*%
G75*
G36*
G01X1885Y-93454D02*
Y-89974D01*
X2577D01*
Y-93454D01*
X1885D01*
G37*
G54D10*
X-31200Y-4400D03*
X-32000Y84300D03*
X9535Y58935D03*
X47405Y21065D03*
X347800Y1700D03*
G54D20*
X-2110Y35000D03*
X-5890D03*
X-13390Y61500D03*
X-9610D03*
X13110Y15500D03*
X16890D03*
X53910Y20100D03*
X57690D03*
X51910Y32400D03*
X55690D03*
X52410Y41300D03*
X56190D03*
X54910Y26400D03*
X58690D03*
X52310Y53400D03*
X56090D03*
G54D11*
X-36600Y900D03*
X-36400Y7800D03*
X-36100Y70800D03*
X-36200Y77200D03*
X-24600Y-8700D03*
X-25500Y1100D03*
X-18200Y7800D03*
X-28400Y7900D03*
X-17600Y17000D03*
X-24100Y16600D03*
X-19000Y33750D03*
X-29300Y30800D03*
X-29100Y48900D03*
X-18200Y58700D03*
X-26300Y88500D03*
X-24900Y81800D03*
X-17700Y73710D03*
X-16500Y400D03*
X-9000Y7950D03*
X-1100Y22250D03*
X-8388Y23900D03*
X-12900Y38150D03*
X-15700Y26250D03*
X-1200Y39600D03*
X-13812Y45619D03*
X-10756D03*
X-15950Y48350D03*
X-2900Y51100D03*
X-3550Y68300D03*
X-5900Y74000D03*
X-16400Y88700D03*
X-10600Y75300D03*
X2100Y4900D03*
X-800Y8750D03*
X9000Y22000D03*
X7500Y30000D03*
X8000Y37750D03*
X1200Y36100D03*
X4100Y51450D03*
X6300Y42700D03*
X-200Y43500D03*
Y47500D03*
X14600Y59000D03*
X10500Y63900D03*
X5400Y70350D03*
X12900Y71700D03*
X3500Y77964D03*
X28800Y6100D03*
X24200Y20000D03*
X29700D03*
X15000Y18900D03*
X20950Y18150D03*
X29400Y12200D03*
X29100Y15600D03*
X21450Y30000D03*
X27500Y37800D03*
X20500D03*
X28800Y29900D03*
X27500Y42000D03*
Y46000D03*
X20000D03*
X27500Y50000D03*
X20000D03*
Y42000D03*
X23500Y70200D03*
X21837Y59637D03*
X22400Y63400D03*
X18600D03*
X25900Y70100D03*
X26167Y59714D03*
X28600Y63400D03*
X24100Y61500D03*
X17500Y77964D03*
X42300Y4900D03*
X40300Y14000D03*
X32900Y20000D03*
X36600Y14050D03*
X46100Y11800D03*
X37150Y37900D03*
X37000Y29950D03*
X44500Y55050D03*
X37000Y42000D03*
X32500Y46000D03*
Y50000D03*
X37000D03*
Y46000D03*
X32064Y60136D03*
X34500Y60400D03*
X40000Y71100D03*
X38600Y63400D03*
X36000Y79400D03*
X33300Y74000D03*
X32900Y77964D03*
X45200D03*
X52700Y6500D03*
X61000Y1700D03*
X51000Y1100D03*
X60400Y20100D03*
X56700Y11600D03*
X48500Y35650D03*
X48700Y39400D03*
X49950Y26550D03*
X56300Y37800D03*
X52450Y56650D03*
X59700Y43000D03*
X48500Y46300D03*
X57500Y68000D03*
X51100Y71000D03*
X51000Y62050D03*
X47300Y62150D03*
X55307Y77966D03*
X76500Y-8500D03*
X68600Y-8300D03*
X67400Y1100D03*
X69500Y8650D03*
X62600Y14000D03*
X75500Y19050D03*
X67200Y12600D03*
X73200Y14750D03*
X71100Y24350D03*
X68600Y40100D03*
X65500Y27350D03*
X76000Y49150D03*
X75800Y42350D03*
Y45850D03*
X72800Y64400D03*
X63200Y57600D03*
X73600Y58300D03*
X64500Y66150D03*
X64800Y73500D03*
Y78900D03*
X68800Y86100D03*
X75000Y87400D03*
X92700Y-8450D03*
X81200Y12250D03*
X92700Y12150D03*
X83400Y24450D03*
X78500Y23000D03*
X78100Y30650D03*
X83100Y36150D03*
X79600Y42250D03*
X78850Y54250D03*
X85050D03*
X82900Y62100D03*
X88474Y85500D03*
X82600Y85600D03*
X106500Y-9400D03*
X95700Y3200D03*
X106500Y5200D03*
X106300Y-1100D03*
X106500Y14200D03*
X93800Y70600D03*
X95000Y66600D03*
X96800Y68900D03*
X105800Y71900D03*
X94900Y87000D03*
X106500Y80000D03*
X106300Y88600D03*
X120600Y-9600D03*
X113900Y-9300D03*
X120900Y-1500D03*
X114000Y5700D03*
Y-1300D03*
X113500Y14200D03*
X115000Y34650D03*
X120200Y46500D03*
X125000Y65400D03*
X117100Y64400D03*
X113182Y64600D03*
X123200Y62700D03*
X114700Y73100D03*
X123900Y80100D03*
X115000Y79600D03*
X124000Y88900D03*
X114800Y88800D03*
X136100Y-9500D03*
X125700Y-9700D03*
X128600Y20000D03*
X125864Y26150D03*
Y43750D03*
X138400Y50500D03*
X125817Y72233D03*
X137836Y73000D03*
X146400Y-9600D03*
X145916Y5400D03*
X156000Y-600D03*
X149400Y11600D03*
X148300Y35500D03*
X142500Y39610D03*
X142400Y43600D03*
X148100Y66100D03*
X143700Y66200D03*
X145700Y88900D03*
X151100Y74500D03*
X165700Y-9700D03*
X166800Y5800D03*
X164200Y5700D03*
X171400Y31300D03*
X170950Y36700D03*
X161100Y32400D03*
X165100Y28300D03*
X166700Y78300D03*
X158800Y76000D03*
X165800Y89000D03*
X185000Y-9400D03*
X181700Y5700D03*
X176500Y1300D03*
X184100Y12700D03*
X175800Y31400D03*
X179000Y33000D03*
X176100Y36700D03*
X184700Y52300D03*
X184150Y71750D03*
X173600Y65800D03*
X187100Y61850D03*
X185700Y78000D03*
X175300Y78500D03*
X186000Y89000D03*
X197100Y6400D03*
X190987Y21613D03*
X192600Y37000D03*
X203600Y35250D03*
X203900Y54750D03*
X194600Y56300D03*
X201000Y48000D03*
X194300Y44100D03*
X190000Y71600D03*
X202500Y59000D03*
X195500Y78300D03*
X205000Y-9400D03*
X218700Y6600D03*
X211200Y6500D03*
X204200Y6400D03*
X204700Y20166D03*
X211168Y24418D03*
X213600Y35500D03*
X216300Y48450D03*
X209200Y42100D03*
X213800Y71600D03*
X205200Y73150D03*
X215500Y79800D03*
X204900Y89000D03*
X225400Y-9000D03*
X224600Y9000D03*
X225100Y13100D03*
X234200Y40200D03*
X225100Y48250D03*
X225700Y53800D03*
X222600Y71550D03*
X233700Y71200D03*
X233100Y77500D03*
X225500Y89000D03*
X245100Y-9000D03*
X241600Y7300D03*
X249500Y5900D03*
X248700Y30500D03*
X238450Y35250D03*
X250200Y71300D03*
X240000Y72100D03*
X245500Y78800D03*
X245000Y89200D03*
X265000Y-9400D03*
X257000Y4200D03*
X260800Y14700D03*
X252650Y14500D03*
X253600Y22500D03*
X261100Y20900D03*
X262050Y26200D03*
X256300Y26950D03*
X254600Y32900D03*
X253150Y26650D03*
X266700Y43450D03*
X253250Y55300D03*
X252500Y42800D03*
X264300Y73000D03*
X256200Y79400D03*
X272800Y2600D03*
X273100Y15500D03*
X270450Y40800D03*
X268100Y52450D03*
X269950Y45800D03*
X282500Y71300D03*
X278200Y69500D03*
X268700Y73200D03*
X271850Y62550D03*
X272700Y67500D03*
X275300Y74900D03*
X274800Y89100D03*
X285100Y-9400D03*
X289150Y8800D03*
X294900Y7400D03*
X298200D03*
X284500Y7900D03*
X295200Y1700D03*
X296450Y22600D03*
X296700Y26800D03*
X296800Y55000D03*
X287700Y44850D03*
X283600Y53200D03*
X293400Y56400D03*
X293350Y59400D03*
X292000Y71000D03*
X295500D03*
X283400Y77000D03*
X292000D03*
X295500D03*
X305600Y-9000D03*
X305400Y9086D03*
X312700Y3200D03*
X305300Y1300D03*
X301500Y18000D03*
X299700Y22750D03*
X312200Y17900D03*
X301800Y27600D03*
X304300Y35500D03*
X310200Y37400D03*
X306750Y44000D03*
X313550Y52500D03*
X301200Y55100D03*
X305250Y55150D03*
X309300Y44200D03*
X305400Y58181D03*
X299000Y71000D03*
X302000D03*
X305500D03*
X314000D03*
X313000Y77200D03*
X306500Y81000D03*
X299000Y77000D03*
X308500D03*
X302000D03*
X325000Y-9300D03*
X321500Y5800D03*
X322900Y2200D03*
X315807Y18100D03*
X329750Y20650D03*
X329950Y18250D03*
X317800Y37450D03*
X317300Y50500D03*
X322725Y43925D03*
X330300Y47600D03*
X319100Y47150D03*
X316700Y46000D03*
X319600Y71100D03*
X329500Y58600D03*
X329600Y61800D03*
Y70800D03*
X316700Y71000D03*
X324600Y70800D03*
X329600Y74000D03*
X325200Y89000D03*
G54D21*
X-1874Y30000D03*
X-6126D03*
X9626Y67150D03*
X5374D03*
X43474Y71000D03*
X52174Y46900D03*
X56426D03*
X47726Y71000D03*
X67924Y36400D03*
X72176D03*
X67924Y31500D03*
X72176D03*
G54D12*
X-34288Y27361D03*
G54D30*
X60957Y65166D03*
Y67134D03*
X68043Y65166D03*
Y67134D03*
G54D31*
X75031Y7332D03*
Y-1132D03*
X91369Y7332D03*
Y-1132D03*
X183831Y24418D03*
Y32882D03*
X200169Y24418D03*
Y32882D03*
X230831Y50418D03*
Y58882D03*
X247169Y50418D03*
Y58882D03*
G54D22*
X-13269Y48857D03*
Y55943D03*
X-11300Y48857D03*
Y55943D03*
X-9331Y48857D03*
Y55943D03*
G54D40*
X139800Y15600D03*
G54D13*
X-32790Y18355D03*
Y60953D03*
G54D50*
G01X-18200Y58700D02*
Y59500D01*
X-16200Y61500D01*
X-13390D01*
G01X47726Y71000D02*
X51100D01*
G01X75500Y19050D02*
X75400Y19150D01*
Y34900D01*
X73900Y36400D01*
X72176D01*
G01X76588Y72010D02*
X66290D01*
X64800Y73500D01*
G01X76588Y79490D02*
X65390D01*
X64800Y78900D01*
G01X91000Y20000D02*
X92650Y18350D01*
X109350D01*
X111000Y20000D01*
G01X91000Y30000D02*
X91600Y29400D01*
X110400D01*
X111000Y30000D01*
G01X85400Y27300D02*
X88300D01*
X91000Y30000D01*
G01X85200Y31900D02*
X89100D01*
X91000Y30000D01*
G01X87612Y79490D02*
X88474Y80352D01*
Y85500D01*
G01X82600Y85600D02*
Y81490D01*
X84600Y79490D01*
X87612D01*
G01X116800Y27200D02*
X113800D01*
G01X116700Y32100D02*
X113100D01*
X111000Y30000D01*
G01X113800Y27200D02*
X111000Y30000D01*
G01X140000Y85000D02*
Y77900D01*
X137900Y75800D01*
X132900D01*
X125000Y67900D01*
Y65400D01*
G01X153400Y25457D02*
X153408Y25465D01*
X158335D01*
X159750Y24050D01*
Y19893D01*
G01X153400Y32543D02*
X156757D01*
X165600Y23700D01*
X168999D01*
X173799Y18900D01*
X203434D01*
X204700Y20166D01*
G01X166150Y19893D02*
X168807D01*
X172500Y16200D01*
X210200D01*
X211550Y17550D01*
X211600D01*
X215350Y21300D01*
X228447D01*
G01X166150Y19893D02*
X159750D01*
G01X204700Y20166D02*
X210516D01*
X216264Y25914D01*
Y34464D01*
X218200Y36400D01*
X227257D01*
G01X228447Y28000D02*
Y21300D01*
G01X319357Y13929D02*
Y7943D01*
X321500Y5800D01*
G54D23*
X-11300Y52400D03*
G54D32*
X76588Y72010D03*
Y75750D03*
Y79490D03*
X87612Y72010D03*
Y79490D03*
X137488Y39610D03*
Y43350D03*
Y47090D03*
X148512Y39610D03*
Y47090D03*
G54D14*
X-34288Y35718D03*
Y43592D03*
G54D41*
X136454Y54100D03*
Y60400D03*
X143146Y54100D03*
Y60400D03*
X165654Y47100D03*
X172346D03*
G54D51*
G01X60957Y65166D02*
X54634D01*
G01D02*
X54566D01*
G01X54634D02*
X53500Y66300D01*
G01X54566Y65166D02*
X53666D01*
X53500Y65000D01*
G01X54566Y65166D02*
X53500Y64100D01*
G54D33*
X64500Y66150D03*
G54D24*
X12722Y27402D03*
Y28976D03*
Y30551D03*
Y32126D03*
Y33701D03*
Y35276D03*
Y36850D03*
Y38425D03*
Y40000D03*
Y41575D03*
Y43150D03*
Y44724D03*
Y46299D03*
Y47874D03*
Y49449D03*
Y51024D03*
Y52598D03*
X44218Y40000D03*
Y38425D03*
Y36850D03*
Y35276D03*
Y33701D03*
Y32126D03*
Y30551D03*
Y28976D03*
Y27402D03*
Y52598D03*
Y51024D03*
Y49449D03*
Y47874D03*
Y46299D03*
Y44724D03*
Y43150D03*
Y41575D03*
G54D42*
X153400Y25457D03*
Y11657D03*
Y18743D03*
Y32543D03*
X156500Y53900D03*
Y60986D03*
X172557Y12400D03*
X166150Y19893D03*
Y12807D03*
X159750Y19893D03*
Y12807D03*
X158000Y40500D03*
X169757Y27500D03*
X171643Y40500D03*
X164557D03*
X158000Y47586D03*
X179643Y12400D03*
X176843Y27500D03*
X233457Y14100D03*
X227257Y36400D03*
X234343D03*
X250057Y19600D03*
X240543Y14100D03*
X243500Y20957D03*
Y41543D03*
Y34457D03*
Y28043D03*
X257143Y19600D03*
G54D15*
X-34288Y51948D03*
G54D52*
G01Y25875D02*
Y19853D01*
X-32790Y18355D01*
G01X-34288Y25875D02*
Y35718D01*
G01X-23658Y29812D02*
X-27595Y25875D01*
X-34288D01*
G01Y35718D02*
Y43592D01*
G01Y53434D02*
Y59455D01*
X-32790Y60953D01*
G01X-23658Y49497D02*
X-27595Y53434D01*
X-34288D01*
G01Y43592D02*
Y53434D01*
G01X-27228Y34537D02*
X-23658D01*
G01D02*
X-20088D01*
G01X-23658Y44773D02*
X-21773D01*
X-21750Y44750D01*
X-19550D01*
X-18200Y46100D01*
Y58700D01*
G01X-9247Y11813D02*
Y14300D01*
G01D02*
Y16787D01*
G01X-11734Y14300D02*
X-9247D01*
G01D02*
X-6760D01*
G01X-1874Y30000D02*
X7500D01*
G01X-6126D02*
X-7900D01*
X-9400Y31500D01*
Y39950D01*
X-5172Y44178D01*
Y52410D01*
X-6000Y53238D01*
Y73900D01*
X-5900Y74000D01*
G01X-5890Y35000D02*
Y37330D01*
G01X-9610Y61500D02*
Y63830D01*
G01X13110Y13170D02*
Y15500D01*
G01X10899D02*
X13110D01*
G01X15400Y63274D02*
X13226D01*
X12600Y63900D01*
X10500D01*
G01X5374Y67150D02*
Y70324D01*
X5400Y70350D01*
G01X29700Y20000D02*
Y19490D01*
X33000Y16190D01*
G01X30670Y12410D02*
X33000D01*
G01X60000Y85000D02*
Y82300D01*
X58000Y80300D01*
X36900D01*
X36000Y79400D01*
G01X33300Y74000D02*
X52000D01*
X53500Y72500D01*
Y66300D01*
G01X55899Y-9101D02*
X60000Y-5000D01*
G01D02*
X64101Y-9101D01*
G01X60000Y-5000D02*
X64101Y-899D01*
G01X55899D02*
X60000Y-5000D01*
G01X58690Y24070D02*
Y26400D01*
G01X57690Y20100D02*
Y22430D01*
G01X51910Y32400D02*
Y34150D01*
X50410Y35650D01*
X48500D01*
G01X52410Y41300D02*
X50600D01*
X48700Y39400D01*
G01X58690Y26400D02*
Y28730D01*
G01Y26400D02*
X60901D01*
G01X56190Y38970D02*
Y41300D01*
G01D02*
Y43630D01*
G01Y41300D02*
X58401D01*
G01X55690Y30070D02*
Y32400D01*
G01D02*
X57901D01*
G01X72176Y36400D02*
Y43524D01*
X53500Y62200D01*
Y64100D01*
G01X56426Y44570D02*
Y46900D01*
G01D02*
Y49230D01*
G01Y46900D02*
X58618D01*
G01X56090Y51070D02*
Y53400D01*
G01D02*
Y55730D01*
G01Y53400D02*
X58301D01*
G01X53500Y65000D02*
Y64100D01*
G01Y66300D02*
Y65000D01*
G01X49053Y63313D02*
Y65800D01*
G01X46566D02*
X49053D01*
G01X75031Y-3324D02*
Y-1132D01*
G01D02*
Y1060D01*
G01X72052Y-1132D02*
X75031D01*
G01D02*
X78010D01*
G01X72176Y29170D02*
Y31500D01*
G01X68043Y67134D02*
X70530D01*
G01X64500Y63466D02*
Y66150D01*
G01X76588Y75750D02*
X80059D01*
G01X91369Y-3324D02*
Y-1132D01*
G01D02*
Y1060D01*
G01X88390Y-1132D02*
X91369D01*
G01D02*
X94348D01*
G01X91000Y30000D02*
X94320Y33320D01*
G01X91470Y77726D02*
X93800D01*
G01X107680Y33320D02*
X111000Y30000D01*
G01X93800Y77726D02*
Y79918D01*
G01Y77726D02*
X96130D01*
G01X114320Y26680D02*
X113800Y27200D01*
G01X127067Y-7933D02*
X130000Y-5000D01*
G01D02*
X132933Y-7933D01*
G01X127067Y-2067D02*
X130000Y-5000D01*
G01X140000D02*
X142933Y-2067D01*
G01X137067D02*
X140000Y-5000D01*
G01X137488Y43350D02*
X142150D01*
G01X127067Y82067D02*
X130000Y85000D01*
G01D02*
X132933Y87933D01*
G01X127067D02*
X130000Y85000D01*
G01D02*
X132933Y82067D01*
G01X158000Y40500D02*
X153790D01*
X152900Y39610D01*
X148512D01*
G01X142150Y43350D02*
X142400Y43600D01*
G01X143146Y51121D02*
Y54100D01*
G01Y60400D02*
Y63379D01*
G01Y60400D02*
X146224D01*
G01X149700Y60892D02*
Y63970D01*
G01X146721Y60892D02*
X149700D01*
G01X171643Y37422D02*
Y40500D01*
G01D02*
Y43578D01*
G01X168565Y40500D02*
X171643D01*
G01D02*
X174721D01*
G01X164557D02*
X158000D01*
G01X183831Y30690D02*
Y32882D01*
G01D02*
Y35074D01*
G01X180852Y32882D02*
X183831D01*
G01D02*
X186810D01*
G01X175818Y51570D02*
Y53860D01*
G01D02*
X178699D01*
G01X172346Y44121D02*
Y47100D01*
G01D02*
Y50079D01*
G01Y47100D02*
X175424D01*
G01X200169Y30690D02*
Y32882D01*
G01D02*
Y35074D01*
G01X197190Y32882D02*
X200169D01*
G01D02*
X203148D01*
G01X234343Y36400D02*
Y40057D01*
X234200Y40200D01*
G01X256300Y26950D02*
X256836Y27486D01*
Y33827D01*
X256650Y34013D01*
Y34050D01*
X249900Y40800D01*
Y44400D01*
X248500Y45800D01*
X236900D01*
X234200Y43100D01*
Y40200D01*
G01X278117Y18689D02*
X300811D01*
X301500Y18000D01*
G01X278117Y13027D02*
Y15139D01*
G01X274705D02*
X278117D01*
G01X322907Y13929D02*
Y18707D01*
X324600Y20400D01*
Y34600D01*
X313550Y45650D01*
Y52500D01*
G01X317067Y-7933D02*
X320000Y-5000D01*
G01D02*
X322933Y-7933D01*
G01X330000Y-5000D02*
Y3000D01*
X322907Y10093D01*
Y13929D01*
G01X320000Y-5000D02*
X322933Y-2067D01*
G01X317067D02*
X320000Y-5000D01*
G01X317067Y82067D02*
X320000Y85000D01*
G01D02*
X322933Y87933D01*
G01X317067D02*
X320000Y85000D01*
G01D02*
X322933Y82067D01*
G01X330007Y13929D02*
Y17341D01*
G01Y62610D02*
Y66022D01*
G01D02*
Y69434D01*
G54D16*
X-23658Y39655D03*
Y37096D03*
Y34537D03*
Y44773D03*
Y42214D03*
G54D43*
X149700Y54200D03*
Y60892D03*
G54D25*
X28470Y24252D03*
X26895D03*
X25320D03*
X23746D03*
X22171D03*
X20596D03*
X19021D03*
X17446D03*
X15872D03*
Y55748D03*
X17446D03*
X19021D03*
X20596D03*
X22171D03*
X23746D03*
X25320D03*
X26895D03*
X28470D03*
X41068Y24252D03*
X39494D03*
X37919D03*
X36344D03*
X34769D03*
X33194D03*
X31620D03*
X30045D03*
Y55748D03*
X31620D03*
X33194D03*
X34769D03*
X36344D03*
X37919D03*
X39494D03*
X41068D03*
G54D34*
X91000Y20000D03*
X111000D03*
G54D53*
G01D02*
X128600D01*
G01X139800Y25600D02*
X142801D01*
X149744Y32543D01*
X153400D01*
G01Y25457D02*
X151935Y25405D01*
X142799Y15600D01*
X139800D01*
G01X156400Y61086D02*
Y66300D01*
X152700Y70000D01*
X131600D01*
X128600Y67000D01*
Y20000D01*
G01X156500Y60986D02*
X156400Y61086D01*
G54D44*
X165582Y57600D03*
Y53860D03*
Y61340D03*
X175818Y57600D03*
Y53860D03*
Y61340D03*
G54D26*
X28470Y40000D03*
G54D17*
X-23658Y29812D03*
Y49497D03*
G54D35*
X91000Y30000D03*
Y40000D03*
Y50000D03*
Y60000D03*
X111000Y30000D03*
Y40000D03*
Y50000D03*
Y60000D03*
G54D54*
G01X362500Y-7940D02*
Y87240D01*
G03X357500Y92240I-5000J0D01*
G01X-35000D01*
G03X-40000Y87240I0J-5000D01*
G01Y-7940D01*
G03X-35000Y-12940I5000J0D01*
G01X357500D01*
G03X362500Y-7940I0J5000D01*
G01X-56904Y-109616D02*
X-56397Y-110033D01*
X-55827Y-110283D01*
X-55321D01*
X-54814Y-110033D01*
X-54434Y-109616D01*
X-54244Y-109033D01*
X-54371Y-108450D01*
X-54687Y-107950D01*
X-55257Y-107616D01*
X-56017Y-107450D01*
X-56461Y-107116D01*
X-56651Y-106533D01*
X-56524Y-105950D01*
X-56207Y-105533D01*
X-55764Y-105283D01*
X-55321D01*
X-54877Y-105450D01*
X-54497Y-105866D01*
G01X-52057Y-110283D02*
X-50474Y-105283D01*
X-48891Y-110283D01*
G01X-49461Y-108533D02*
X-51487D01*
G01X-46831Y-110283D02*
Y-105283D01*
X-43917Y-110283D01*
Y-105283D01*
G01X-36441Y-109283D02*
X-36124Y-109783D01*
X-35744Y-110116D01*
X-35301Y-110283D01*
X-34794Y-110116D01*
X-34414Y-109783D01*
X-34034Y-109283D01*
X-33907Y-108616D01*
Y-105283D01*
G01X-30074Y-110283D02*
X-30581Y-110200D01*
X-31024Y-109866D01*
X-31404Y-109366D01*
X-31657Y-108783D01*
X-31784Y-108116D01*
Y-107450D01*
X-31657Y-106783D01*
X-31404Y-106200D01*
X-31024Y-105700D01*
X-30581Y-105366D01*
X-30074Y-105283D01*
X-29567Y-105366D01*
X-29124Y-105700D01*
X-28744Y-106200D01*
X-28491Y-106783D01*
X-28364Y-107450D01*
Y-108116D01*
X-28491Y-108783D01*
X-28744Y-109366D01*
X-29124Y-109866D01*
X-29567Y-110200D01*
X-30074Y-110283D01*
G01X-26304Y-109616D02*
X-25797Y-110033D01*
X-25227Y-110283D01*
X-24721D01*
X-24214Y-110033D01*
X-23834Y-109616D01*
X-23644Y-109033D01*
X-23771Y-108450D01*
X-24087Y-107950D01*
X-24657Y-107616D01*
X-25417Y-107450D01*
X-25861Y-107116D01*
X-26051Y-106533D01*
X-25924Y-105950D01*
X-25607Y-105533D01*
X-25164Y-105283D01*
X-24721D01*
X-24277Y-105450D01*
X-23897Y-105866D01*
G01X-18607Y-110283D02*
X-21141D01*
Y-105283D01*
X-18607D01*
G01X-19621Y-107700D02*
X-21141D01*
G01X-14901Y-111200D02*
X-14647Y-110116D01*
G01X-3181Y-105700D02*
X-3561Y-105450D01*
X-4004Y-105283D01*
X-4511D01*
X-5081Y-105533D01*
X-5524Y-105950D01*
X-5841Y-106450D01*
X-6094Y-107283D01*
X-6157Y-108033D01*
X-6031Y-108783D01*
X-5841Y-109283D01*
X-5461Y-109783D01*
X-5017Y-110116D01*
X-4574Y-110283D01*
X-4131D01*
X-3687Y-110116D01*
X-3307Y-109866D01*
X-2991Y-109533D01*
G01X-1057Y-110283D02*
X526Y-105283D01*
X2109Y-110283D01*
G01X1539Y-108533D02*
X-487D01*
G01X9649Y-109700D02*
X10093Y-110116D01*
X10599Y-110283D01*
X11106Y-110116D01*
X11549Y-109616D01*
X11866Y-108866D01*
X11993Y-108116D01*
Y-107200D01*
X11866Y-106450D01*
X11549Y-105783D01*
X11169Y-105450D01*
X10726Y-105283D01*
X10219Y-105450D01*
X9839Y-105783D01*
X9586Y-106283D01*
X9459Y-106950D01*
X9586Y-107533D01*
X9903Y-108116D01*
X10283Y-108450D01*
X10726Y-108533D01*
X11233Y-108366D01*
X11613Y-107950D01*
X11993Y-107200D01*
G01X14433Y-109533D02*
X14813Y-109950D01*
X15256Y-110200D01*
X15826Y-110283D01*
X16396Y-110116D01*
X16839Y-109783D01*
X17156Y-109200D01*
X17219Y-108533D01*
X17093Y-107866D01*
X16776Y-107450D01*
X16333Y-107116D01*
X15889Y-107033D01*
X15446Y-107116D01*
X14876Y-107450D01*
X15066Y-105283D01*
X16776D01*
G01X20926Y-110283D02*
Y-105283D01*
X20166Y-106283D01*
G01Y-110283D02*
X21686D01*
G01X24633Y-109283D02*
X25013Y-109866D01*
X25519Y-110200D01*
X26089Y-110283D01*
X26596Y-110200D01*
X27103Y-109783D01*
X27419Y-109283D01*
X27483Y-108783D01*
X27356Y-108200D01*
X26913Y-107783D01*
X26469Y-107616D01*
X25899D01*
G01X26469D02*
X26849Y-107366D01*
X27166Y-106950D01*
X27293Y-106450D01*
X27166Y-105950D01*
X26849Y-105533D01*
X26279Y-105283D01*
X25709Y-105366D01*
X25139Y-105700D01*
G01X31886Y-110283D02*
Y-105283D01*
X29543Y-108866D01*
X32709D01*
G01X-45691Y-120450D02*
X-46324Y-119616D01*
X-46641Y-118783D01*
Y-115450D01*
X-46324Y-114616D01*
X-45691Y-113783D01*
G01X-39514Y-118783D02*
Y-113783D01*
X-41857Y-117366D01*
X-38691D01*
G01X-35174Y-113783D02*
X-35681Y-113950D01*
X-36061Y-114366D01*
X-36314Y-114866D01*
X-36504Y-115533D01*
X-36567Y-116283D01*
X-36504Y-117033D01*
X-36314Y-117700D01*
X-36061Y-118200D01*
X-35681Y-118616D01*
X-35174Y-118783D01*
X-34667Y-118616D01*
X-34287Y-118200D01*
X-34034Y-117700D01*
X-33844Y-117033D01*
X-33781Y-116283D01*
X-33844Y-115533D01*
X-34034Y-114866D01*
X-34287Y-114366D01*
X-34667Y-113950D01*
X-35174Y-113783D01*
G01X-30074Y-118783D02*
X-29631Y-118700D01*
X-29124Y-118450D01*
X-28807Y-118033D01*
X-28681Y-117450D01*
X-28807Y-116866D01*
X-29187Y-116366D01*
X-29757Y-116116D01*
X-30391D01*
X-30771Y-115950D01*
X-31087Y-115533D01*
X-31214Y-114950D01*
X-31024Y-114366D01*
X-30581Y-113950D01*
X-30074Y-113783D01*
X-29567Y-113950D01*
X-29124Y-114366D01*
X-28934Y-114950D01*
X-29061Y-115533D01*
X-29377Y-115950D01*
X-29757Y-116116D01*
X-30391D01*
X-30961Y-116366D01*
X-31341Y-116866D01*
X-31467Y-117450D01*
X-31341Y-118033D01*
X-31024Y-118450D01*
X-30517Y-118700D01*
X-30074Y-118783D01*
G01X-24657Y-120450D02*
X-24024Y-119616D01*
X-23707Y-118783D01*
Y-115450D01*
X-24024Y-114616D01*
X-24657Y-113783D01*
G01X-15851Y-118200D02*
X-15407Y-118616D01*
X-14901Y-118783D01*
X-14394Y-118616D01*
X-13951Y-118116D01*
X-13634Y-117366D01*
X-13507Y-116616D01*
Y-115700D01*
X-13634Y-114950D01*
X-13951Y-114283D01*
X-14331Y-113950D01*
X-14774Y-113783D01*
X-15281Y-113950D01*
X-15661Y-114283D01*
X-15914Y-114783D01*
X-16041Y-115450D01*
X-15914Y-116033D01*
X-15597Y-116616D01*
X-15217Y-116950D01*
X-14774Y-117033D01*
X-14267Y-116866D01*
X-13887Y-116450D01*
X-13507Y-115700D01*
G01X-8914Y-118783D02*
Y-113783D01*
X-11257Y-117366D01*
X-8091D01*
G01X-5967Y-117783D02*
X-5587Y-118366D01*
X-5081Y-118700D01*
X-4511Y-118783D01*
X-4004Y-118700D01*
X-3497Y-118283D01*
X-3181Y-117783D01*
X-3117Y-117283D01*
X-3244Y-116700D01*
X-3687Y-116283D01*
X-4131Y-116116D01*
X-4701D01*
G01X-4131D02*
X-3751Y-115866D01*
X-3434Y-115450D01*
X-3307Y-114950D01*
X-3434Y-114450D01*
X-3751Y-114033D01*
X-4321Y-113783D01*
X-4891Y-113866D01*
X-5461Y-114200D01*
G01X-297Y-117116D02*
X1349D01*
G01X4423Y-114616D02*
X4803Y-114116D01*
X5246Y-113866D01*
X5753Y-113783D01*
X6386Y-113950D01*
X6829Y-114366D01*
X6956Y-114866D01*
X6893Y-115366D01*
X6639Y-115783D01*
X5373Y-116616D01*
X4803Y-117200D01*
X4423Y-118033D01*
X4296Y-118783D01*
X6956D01*
G01X9523Y-116700D02*
X9966Y-116116D01*
X10346Y-115783D01*
X10853Y-115616D01*
X11296Y-115783D01*
X11613Y-116116D01*
X11866Y-116616D01*
X11929Y-117200D01*
X11866Y-117700D01*
X11613Y-118200D01*
X11233Y-118616D01*
X10789Y-118783D01*
X10283Y-118616D01*
X9839Y-118116D01*
X9586Y-117366D01*
X9523Y-116533D01*
X9649Y-115450D01*
X9839Y-114866D01*
X10156Y-114283D01*
X10599Y-113866D01*
X11043Y-113783D01*
X11486Y-113950D01*
X11803Y-114366D01*
G01X15826Y-113783D02*
X15319Y-113950D01*
X14939Y-114366D01*
X14686Y-114866D01*
X14496Y-115533D01*
X14433Y-116283D01*
X14496Y-117033D01*
X14686Y-117700D01*
X14939Y-118200D01*
X15319Y-118616D01*
X15826Y-118783D01*
X16333Y-118616D01*
X16713Y-118200D01*
X16966Y-117700D01*
X17156Y-117033D01*
X17219Y-116283D01*
X17156Y-115533D01*
X16966Y-114866D01*
X16713Y-114366D01*
X16333Y-113950D01*
X15826Y-113783D01*
G01X20926D02*
X20419Y-113950D01*
X20039Y-114366D01*
X19786Y-114866D01*
X19596Y-115533D01*
X19533Y-116283D01*
X19596Y-117033D01*
X19786Y-117700D01*
X20039Y-118200D01*
X20419Y-118616D01*
X20926Y-118783D01*
X21433Y-118616D01*
X21813Y-118200D01*
X22066Y-117700D01*
X22256Y-117033D01*
X22319Y-116283D01*
X22256Y-115533D01*
X22066Y-114866D01*
X21813Y-114366D01*
X21433Y-113950D01*
X20926Y-113783D01*
G01X65307Y-112550D02*
Y-109450D01*
X66073D01*
X66380Y-109605D01*
X66610Y-109812D01*
X66802Y-110122D01*
X66955Y-110483D01*
X66993Y-111000D01*
X66955Y-111517D01*
X66802Y-111878D01*
X66610Y-112188D01*
X66380Y-112395D01*
X66073Y-112550D01*
X65307D01*
G01X68100Y-109450D02*
X68637Y-112550D01*
X69250Y-109450D01*
X69863Y-112550D01*
X70400Y-109450D01*
G01X72580Y-111000D02*
X73347D01*
Y-111930D01*
X73117Y-112240D01*
X72848Y-112447D01*
X72465Y-112550D01*
X72082Y-112447D01*
X71813Y-112240D01*
X71583Y-111930D01*
X71430Y-111568D01*
X71353Y-111155D01*
Y-110793D01*
X71430Y-110483D01*
X71583Y-110122D01*
X71813Y-109812D01*
X72043Y-109605D01*
X72350Y-109450D01*
X72618D01*
X72925Y-109553D01*
X73155Y-109760D01*
G01X77668Y-112550D02*
Y-109450D01*
X79432Y-112550D01*
Y-109450D01*
G01X81650Y-112550D02*
X81343Y-112498D01*
X81075Y-112292D01*
X80845Y-111982D01*
X80692Y-111620D01*
X80615Y-111207D01*
Y-110793D01*
X80692Y-110380D01*
X80845Y-110018D01*
X81075Y-109708D01*
X81343Y-109502D01*
X81650Y-109450D01*
X81957Y-109502D01*
X82225Y-109708D01*
X82455Y-110018D01*
X82608Y-110380D01*
X82685Y-110793D01*
Y-111207D01*
X82608Y-111620D01*
X82455Y-111982D01*
X82225Y-112292D01*
X81957Y-112498D01*
X81650Y-112550D01*
G01X84750Y-112653D02*
X84673Y-112602D01*
Y-112498D01*
X84750Y-112447D01*
X84827Y-112498D01*
Y-112602D01*
X84750Y-112653D01*
G01Y-111258D02*
X84673Y-111207D01*
Y-111103D01*
X84750Y-111052D01*
X84827Y-111103D01*
Y-111207D01*
X84750Y-111258D01*
G01X65383Y-94450D02*
Y-97550D01*
X66917D01*
G01X68292D02*
X69250Y-94450D01*
X70208Y-97550D01*
G01X69863Y-96465D02*
X68637D01*
G01X72350Y-97550D02*
Y-96155D01*
X71583Y-94450D01*
G01X73117D02*
X72350Y-96155D01*
G01X76217Y-97550D02*
X74683D01*
Y-94450D01*
X76217D01*
G01X75603Y-95948D02*
X74683D01*
G01X77783Y-97550D02*
Y-94450D01*
X78742D01*
X79048Y-94605D01*
X79240Y-94812D01*
X79317Y-95225D01*
X79240Y-95638D01*
X79010Y-95897D01*
X78742Y-96052D01*
X77783D01*
G01X78742D02*
X79317Y-97550D01*
G01X81650Y-97653D02*
X81573Y-97602D01*
Y-97498D01*
X81650Y-97447D01*
X81727Y-97498D01*
Y-97602D01*
X81650Y-97653D01*
G01Y-96258D02*
X81573Y-96207D01*
Y-96103D01*
X81650Y-96052D01*
X81727Y-96103D01*
Y-96207D01*
X81650Y-96258D01*
G01X65307Y-82550D02*
Y-79450D01*
X66073D01*
X66380Y-79605D01*
X66610Y-79812D01*
X66802Y-80122D01*
X66955Y-80483D01*
X66993Y-81000D01*
X66955Y-81517D01*
X66802Y-81878D01*
X66610Y-82188D01*
X66380Y-82395D01*
X66073Y-82550D01*
X65307D01*
G01X68483D02*
Y-79450D01*
X69442D01*
X69748Y-79605D01*
X69940Y-79812D01*
X70017Y-80225D01*
X69940Y-80638D01*
X69710Y-80897D01*
X69442Y-81052D01*
X68483D01*
G01X69442D02*
X70017Y-82550D01*
G01X71392D02*
X72350Y-79450D01*
X73308Y-82550D01*
G01X72963Y-81465D02*
X71737D01*
G01X74300Y-79450D02*
X74837Y-82550D01*
X75450Y-79450D01*
X76063Y-82550D01*
X76600Y-79450D01*
G01X77668Y-82550D02*
Y-79450D01*
X79432Y-82550D01*
Y-79450D01*
G01X85057Y-80897D02*
X85210Y-80742D01*
X85325Y-80483D01*
X85402Y-80122D01*
X85325Y-79812D01*
X85172Y-79605D01*
X84903Y-79450D01*
X83868D01*
Y-82550D01*
X85133D01*
X85402Y-82343D01*
X85555Y-82033D01*
X85632Y-81672D01*
X85555Y-81310D01*
X85325Y-81000D01*
X85057Y-80897D01*
X83868D01*
G01X87850Y-82550D02*
Y-81155D01*
X87083Y-79450D01*
G01X88617D02*
X87850Y-81155D01*
G01X90950Y-82653D02*
X90873Y-82602D01*
Y-82498D01*
X90950Y-82447D01*
X91027Y-82498D01*
Y-82602D01*
X90950Y-82653D01*
G01Y-81258D02*
X90873Y-81207D01*
Y-81103D01*
X90950Y-81052D01*
X91027Y-81103D01*
Y-81207D01*
X90950Y-81258D01*
G01X65383Y-67550D02*
Y-64450D01*
X66303D01*
X66610Y-64605D01*
X66840Y-64967D01*
X66917Y-65380D01*
X66840Y-65793D01*
X66648Y-66103D01*
X66303Y-66258D01*
X65383D01*
G01X68483Y-67550D02*
Y-64450D01*
X69442D01*
X69748Y-64605D01*
X69940Y-64812D01*
X70017Y-65225D01*
X69940Y-65638D01*
X69710Y-65897D01*
X69442Y-66052D01*
X68483D01*
G01X69442D02*
X70017Y-67550D01*
G01X72350D02*
X72043Y-67498D01*
X71775Y-67292D01*
X71545Y-66982D01*
X71392Y-66620D01*
X71315Y-66207D01*
Y-65793D01*
X71392Y-65380D01*
X71545Y-65018D01*
X71775Y-64708D01*
X72043Y-64502D01*
X72350Y-64450D01*
X72657Y-64502D01*
X72925Y-64708D01*
X73155Y-65018D01*
X73308Y-65380D01*
X73385Y-65793D01*
Y-66207D01*
X73308Y-66620D01*
X73155Y-66982D01*
X72925Y-67292D01*
X72657Y-67498D01*
X72350Y-67550D01*
G01X74683Y-66930D02*
X74875Y-67240D01*
X75105Y-67447D01*
X75373Y-67550D01*
X75680Y-67447D01*
X75910Y-67240D01*
X76140Y-66930D01*
X76217Y-66517D01*
Y-64450D01*
G01X79317Y-67550D02*
X77783D01*
Y-64450D01*
X79317D01*
G01X78703Y-65948D02*
X77783D01*
G01X82493Y-64708D02*
X82263Y-64553D01*
X81995Y-64450D01*
X81688D01*
X81343Y-64605D01*
X81075Y-64863D01*
X80883Y-65173D01*
X80730Y-65690D01*
X80692Y-66155D01*
X80768Y-66620D01*
X80883Y-66930D01*
X81113Y-67240D01*
X81382Y-67447D01*
X81650Y-67550D01*
X81918D01*
X82187Y-67447D01*
X82417Y-67292D01*
X82608Y-67085D01*
G01X84750Y-64450D02*
Y-67550D01*
G01X83868Y-64450D02*
X85632D01*
G01X87850Y-67653D02*
X87773Y-67602D01*
Y-67498D01*
X87850Y-67447D01*
X87927Y-67498D01*
Y-67602D01*
X87850Y-67653D01*
G01Y-66258D02*
X87773Y-66207D01*
Y-66103D01*
X87850Y-66052D01*
X87927Y-66103D01*
Y-66207D01*
X87850Y-66258D01*
G01X260383Y-112550D02*
Y-109450D01*
X261342D01*
X261648Y-109605D01*
X261840Y-109812D01*
X261917Y-110225D01*
X261840Y-110638D01*
X261610Y-110897D01*
X261342Y-111052D01*
X260383D01*
G01X261342D02*
X261917Y-112550D01*
G01X265017D02*
X263483D01*
Y-109450D01*
X265017D01*
G01X264403Y-110948D02*
X263483D01*
G01X266392Y-109450D02*
X267350Y-112550D01*
X268308Y-109450D01*
G01X270450Y-112653D02*
X270373Y-112602D01*
Y-112498D01*
X270450Y-112447D01*
X270527Y-112498D01*
Y-112602D01*
X270450Y-112653D01*
G01Y-111258D02*
X270373Y-111207D01*
Y-111103D01*
X270450Y-111052D01*
X270527Y-111103D01*
Y-111207D01*
X270450Y-111258D01*
G01X299307Y-112550D02*
Y-109450D01*
X300073D01*
X300380Y-109605D01*
X300610Y-109812D01*
X300802Y-110122D01*
X300955Y-110483D01*
X300993Y-111000D01*
X300955Y-111517D01*
X300802Y-111878D01*
X300610Y-112188D01*
X300380Y-112395D01*
X300073Y-112550D01*
X299307D01*
G01X302292D02*
X303250Y-109450D01*
X304208Y-112550D01*
G01X303863Y-111465D02*
X302637D01*
G01X306350Y-109450D02*
Y-112550D01*
G01X305468Y-109450D02*
X307232D01*
G01X310217Y-112550D02*
X308683D01*
Y-109450D01*
X310217D01*
G01X309603Y-110948D02*
X308683D01*
G01X312550Y-112653D02*
X312473Y-112602D01*
Y-112498D01*
X312550Y-112447D01*
X312627Y-112498D01*
Y-112602D01*
X312550Y-112653D01*
G01Y-111258D02*
X312473Y-111207D01*
Y-111103D01*
X312550Y-111052D01*
X312627Y-111103D01*
Y-111207D01*
X312550Y-111258D01*
G54D27*
X15400Y67526D03*
Y63274D03*
X93800Y77726D03*
Y73474D03*
G54D45*
X278117Y15139D03*
Y18689D03*
Y22239D03*
Y25789D03*
Y29339D03*
Y32889D03*
Y36439D03*
Y39989D03*
Y43539D03*
Y47089D03*
Y50639D03*
Y54189D03*
Y57739D03*
Y61289D03*
Y64839D03*
G54D18*
X0Y-5000D03*
Y85000D03*
X10000Y-5000D03*
Y85000D03*
X20000Y-5000D03*
X30000D03*
X20000Y85000D03*
X30000D03*
X40000Y-5000D03*
Y85000D03*
X50000Y-5000D03*
Y85000D03*
G54D36*
X101200Y3400D03*
Y-1600D03*
Y75900D03*
Y80900D03*
G54D55*
G01X-23658Y39655D02*
X-20396D01*
X-19617Y40434D01*
X-13801D01*
X-11784Y42451D01*
Y44591D01*
X-10756Y45619D01*
G01X-23658Y42214D02*
X-20397D01*
X-19617Y41434D01*
X-14216D01*
X-12784Y42866D01*
Y44591D01*
X-13812Y45619D01*
G01X-13269Y48857D02*
Y46162D01*
X-13812Y45619D01*
G01X-11300Y48857D02*
Y46163D01*
X-10756Y45619D01*
G54D28*
X33000Y16190D03*
Y12410D03*
G54D46*
X298057Y13929D03*
X294507D03*
X290957D03*
X287407D03*
X283857D03*
Y66022D03*
X287407D03*
X290957D03*
X294507D03*
X298057D03*
X312257Y13929D03*
X308707D03*
X305157D03*
X301607D03*
Y66022D03*
X305157D03*
X308707D03*
X312257D03*
X330007Y13929D03*
X326457D03*
X322907D03*
X319357D03*
X315807D03*
Y66022D03*
X319357D03*
X322907D03*
X326457D03*
X330007D03*
G54D37*
X101200Y24000D03*
Y34800D03*
Y55400D03*
Y44900D03*
G54D19*
X-15153Y14300D03*
X-9247D03*
X43147Y65800D03*
X49053D03*
X228447Y21300D03*
X234353D03*
X228447Y28000D03*
X234353D03*
G54D56*
G01X-17600Y17000D02*
Y15400D01*
X-16500Y14300D01*
X-15153D01*
G01X12722Y32126D02*
X2574D01*
X-300Y35000D01*
X-2110D01*
G01X12722Y47874D02*
X2976D01*
X-1650Y52500D01*
Y79050D01*
X-4300Y81700D01*
Y88700D01*
X-3100Y89900D01*
X5100D01*
X10000Y85000D01*
G01X12722Y27402D02*
X10302D01*
X7200Y24300D01*
Y15400D01*
X2100Y10300D01*
Y4900D01*
G01X12722Y28976D02*
X9776D01*
X5400Y24600D01*
Y20300D01*
X-800Y14100D01*
Y8750D01*
G01X0Y-5000D02*
X4800Y-200D01*
X12700D01*
X22650Y9750D01*
X39200D01*
X42200Y12750D01*
Y16400D01*
X37919Y20681D01*
Y24252D01*
G01X10000Y-5000D02*
X23550Y8550D01*
X39700D01*
X43600Y12450D01*
Y17100D01*
X39494Y21206D01*
Y24252D01*
G01X1200Y36100D02*
X2020Y35280D01*
X12718D01*
X12722Y35276D01*
G01X19021Y55748D02*
Y60721D01*
X20600Y62300D01*
Y67500D01*
X18350Y69750D01*
X12150D01*
X8400Y73500D01*
X4000D01*
X1850Y71350D01*
Y53700D01*
X4100Y51450D01*
G01X9626Y67150D02*
Y70574D01*
X7900Y72300D01*
X4600D01*
X3050Y70750D01*
Y55900D01*
X7926Y51024D01*
X12722D01*
G01X0Y85000D02*
Y78417D01*
X-3Y78402D01*
X-448Y78082D01*
Y77902D01*
X-450Y77900D01*
Y53050D01*
X3151Y49449D01*
X12722D01*
G01X-200Y43500D02*
X1024Y44724D01*
X12722D01*
G01X-200Y47500D02*
X1001Y46299D01*
X12722D01*
G01X15400Y67526D02*
X12476D01*
X12100Y67150D01*
X9626D01*
G01X95000Y66600D02*
X92550Y69050D01*
X63850D01*
X63700Y69200D01*
X63600D01*
X62200Y70600D01*
Y79100D01*
X65300Y82200D01*
Y87500D01*
X62900Y89900D01*
X14900D01*
X10000Y85000D01*
G01X28800Y6100D02*
X25250D01*
X20000Y850D01*
Y-5000D01*
G01X22171Y24252D02*
Y21129D01*
X23300Y20000D01*
X24200D01*
G01X15000Y18900D02*
X16400D01*
X17446Y19946D01*
Y24252D01*
G01X20596D02*
Y18504D01*
X20950Y18150D01*
G01X16890Y15500D02*
X24299D01*
X26895Y18096D01*
Y24252D01*
G01X21837Y59637D02*
X22171Y59303D01*
Y55748D01*
G01X22400Y63400D02*
X25600D01*
X28100Y60900D01*
Y59100D01*
X26895Y57895D01*
Y55748D01*
G01X25320D02*
Y58834D01*
X26167Y59681D01*
Y59714D01*
G01X23746Y55748D02*
Y61146D01*
X24100Y61500D01*
G01X23500Y70200D02*
Y75700D01*
X20000Y79200D01*
Y85000D01*
G01X32064Y60136D02*
Y62636D01*
X29000Y65700D01*
X26600D01*
X23500Y68800D01*
Y70200D01*
G01X25900Y70100D02*
Y75900D01*
X30000Y80000D01*
Y85000D01*
G01X34500Y60400D02*
Y62000D01*
X29400Y67100D01*
X27100D01*
X25900Y68300D01*
Y70100D01*
G01X40300Y14000D02*
Y16200D01*
X36344Y20156D01*
Y24252D01*
G01X33194D02*
Y20294D01*
X32900Y20000D01*
G01X34769Y24252D02*
Y19431D01*
X36600Y17600D01*
Y14050D01*
G01X44218Y28976D02*
X50624D01*
X53200Y26400D01*
X54910D01*
G01X37919Y55748D02*
Y58500D01*
X38819Y59400D01*
X51300D01*
X52450Y58250D01*
Y56650D01*
G01X44218Y41575D02*
X46849D01*
X52174Y46900D01*
G01X40000Y71100D02*
X38400D01*
X35500Y68200D01*
Y63044D01*
X36344Y62200D01*
Y55748D01*
G01X43474Y71000D02*
Y66127D01*
X43147Y65800D01*
G01X75800Y42350D02*
Y40600D01*
X80500Y35900D01*
Y17949D01*
X75031Y12480D01*
Y7332D01*
G01X91369D02*
X75031D01*
G01X67924Y31500D02*
Y17874D01*
X64050Y14000D01*
X62600D01*
G01X67924Y36400D02*
Y31500D01*
G01X76000Y49150D02*
X79150D01*
X83800Y44500D01*
X93250D01*
X98800Y50050D01*
X102500D01*
X107400Y45150D01*
X118850D01*
X120200Y46500D01*
G01X75800Y45850D02*
X79950D01*
X85800Y40000D01*
X91000D01*
G01X79600Y42250D02*
X80900D01*
X87800Y35350D01*
X93400D01*
X98000Y39950D01*
X102600D01*
X107300Y35250D01*
X114400D01*
X115000Y34650D01*
G01X93800Y73474D02*
X91924D01*
X90460Y72010D01*
X87612D01*
G01X93800Y73474D02*
Y70600D01*
G01X95000Y66600D02*
Y63700D01*
X97100Y61600D01*
X105500D01*
X110286Y66386D01*
X115114D01*
X117100Y64400D01*
G01X137488Y39610D02*
X142500D01*
G01X145916Y5400D02*
Y14316D01*
X150343Y18743D01*
X153400D01*
G01X166150Y12807D02*
Y10000D01*
X165550Y9400D01*
X162300D01*
X156000Y3100D01*
Y-600D01*
G01X150000Y-5000D02*
Y-700D01*
X153400Y2700D01*
Y11657D01*
G01X159750Y12807D02*
X156994D01*
X156500Y13301D01*
Y14600D01*
X155900Y15200D01*
X154100D01*
X153400Y15900D01*
Y18743D01*
G01X149400Y11600D02*
X153343D01*
X153400Y11657D01*
G01X278117Y22239D02*
X270550D01*
X266251Y26538D01*
Y30951D01*
X266300Y31000D01*
Y31900D01*
X258400Y39800D01*
Y42650D01*
X258450Y42700D01*
Y57650D01*
X251500Y64600D01*
X200399D01*
X191399Y73600D01*
X156300D01*
X150000Y79900D01*
Y85000D01*
G01X166800Y5800D02*
X178800D01*
X180500Y7500D01*
X184200D01*
X187500Y10800D01*
X233000D01*
X233457Y11257D01*
Y14100D01*
G01X164150Y5750D02*
X164200Y5700D01*
G01X250057Y19600D02*
Y11157D01*
X242801Y3901D01*
X165999D01*
X164200Y5700D01*
G01X160000Y-5000D02*
Y4800D01*
X162800Y7600D01*
X177699D01*
X179643Y9544D01*
Y12400D01*
G01X172557D02*
X172150Y12807D01*
X166150D01*
G01X190987Y21613D02*
X174688D01*
X173400Y22901D01*
Y26801D01*
X172701Y27500D01*
X169757D01*
G01X278117Y25789D02*
X270201D01*
X267500Y28490D01*
Y32400D01*
X259650Y40250D01*
Y42150D01*
X259700Y42200D01*
Y58100D01*
X252000Y65800D01*
X203600D01*
X193900Y75500D01*
X164200D01*
X160000Y79700D01*
Y85000D01*
G01X180000Y-5000D02*
Y-500D01*
X181150Y650D01*
X248650D01*
X257143Y9143D01*
Y19600D01*
G01X176843Y27500D02*
X179501D01*
X180300Y26701D01*
Y24800D01*
X180682Y24418D01*
X183831D01*
G01D02*
X200169D01*
G01X179643Y12400D02*
X179943Y12700D01*
X184100D01*
G01X184150Y71750D02*
X193800Y62100D01*
X250600D01*
X255550Y57150D01*
Y39200D01*
X263850Y30900D01*
Y20500D01*
X273100Y11250D01*
X273126D01*
X278776Y5600D01*
X299026D01*
X301607Y8181D01*
Y13929D01*
G01X211168Y24418D02*
X200169D01*
G01X283857Y13929D02*
Y9957D01*
X282800Y8900D01*
X277174D01*
X265050Y21024D01*
Y31450D01*
X256800Y39700D01*
Y57600D01*
X251000Y63400D01*
X198200D01*
X190000Y71600D01*
G01X200000Y85000D02*
Y75824D01*
X208824Y67000D01*
X252600D01*
X260900Y58700D01*
Y40700D01*
X268700Y32900D01*
Y30450D01*
X269811Y29339D01*
X278117D01*
G01X210000Y85000D02*
Y71724D01*
X213524Y68200D01*
X253100D01*
X262300Y59000D01*
Y41039D01*
X270450Y32889D01*
X278117D01*
G01Y36439D02*
X269461D01*
X263500Y42400D01*
Y59600D01*
X253700Y69400D01*
X214700D01*
X213800Y70300D01*
Y71600D01*
G01X243500Y20957D02*
X239343D01*
X239000Y21300D01*
X234353D01*
G01X243500Y34457D02*
X240457D01*
X239100Y33100D01*
Y29900D01*
X237200Y28000D01*
X234353D01*
G01X230831Y50418D02*
X227268D01*
X225100Y48250D01*
G01X230831Y50418D02*
X247169D01*
G01Y58882D02*
X230831D01*
G01X230000Y85000D02*
X238300Y76700D01*
X268022D01*
X275222Y69500D01*
X278200D01*
G01X220000Y85000D02*
X230600Y74400D01*
X259500D01*
X265200Y68700D01*
X268900D01*
X273650Y63950D01*
Y62401D01*
X274762Y61289D01*
X278117D01*
G01X253600Y22500D02*
X252600Y23500D01*
X247801D01*
X246700Y22399D01*
Y16700D01*
X244100Y14100D01*
X240543D01*
G01X243500Y28043D02*
X246243D01*
X248700Y30500D01*
G01X254600Y32900D02*
X245957Y41543D01*
X243500D01*
G01X247169Y50418D02*
X251682D01*
X254300Y47800D01*
Y38750D01*
X262050Y31000D01*
Y26200D01*
G01X250200Y71300D02*
X258001D01*
X264700Y64601D01*
Y42900D01*
X266800Y40800D01*
X270450D01*
G01X266700Y43450D02*
X266100Y44050D01*
Y65501D01*
X258501Y73100D01*
X241000D01*
X240000Y72100D01*
G01X247169Y58882D02*
X249668D01*
X253250Y55300D01*
G01X257143Y19600D02*
X259800D01*
X261100Y20900D01*
G01X282500Y71300D02*
X282425Y71375D01*
X276125D01*
X267800Y79700D01*
X261482D01*
X259964Y81248D01*
X260000Y85000D01*
G01X270000Y-5000D02*
X274500D01*
X275900Y-3600D01*
Y900D01*
X278800Y3800D01*
X304850D01*
X308707Y7657D01*
Y13929D01*
G01X270450Y40800D02*
Y40750D01*
X271211Y39989D01*
X278117D01*
G01X296700Y26800D02*
X297300Y27400D01*
Y44300D01*
X290961Y50639D01*
X278117D01*
G01X266700Y43450D02*
X278028D01*
X278117Y43539D01*
G01X268100Y52450D02*
X268300D01*
X268726Y52024D01*
X271324D01*
X273489Y54189D01*
X278117D01*
G01X269950Y45800D02*
X271239Y47089D01*
X278117D01*
G01X278200Y69500D02*
X283257D01*
X283857Y68900D01*
Y66022D01*
G01X278117Y57739D02*
X273712D01*
X271800Y59651D01*
Y62500D01*
X271850Y62550D01*
G01X278117Y64839D02*
X274561D01*
X272700Y66700D01*
Y67500D01*
G01X313000Y77200D02*
X311350Y78850D01*
X271650D01*
X270000Y80500D01*
Y85000D01*
G01X280000D02*
Y81100D01*
X280600Y80500D01*
X306000D01*
X306500Y81000D01*
G01X289150Y8800D02*
X289950D01*
X290957Y9807D01*
Y13929D01*
G01X294900Y7400D02*
X294400Y7900D01*
Y13822D01*
X294507Y13929D01*
G01X284500Y7900D02*
X286000D01*
X287407Y9307D01*
Y13929D01*
G01X296450Y22600D02*
X298500Y24650D01*
Y44800D01*
X289100Y54200D01*
Y60700D01*
X290957Y62557D01*
Y66022D01*
G01X294507D02*
Y63201D01*
X293706Y62400D01*
X292500D01*
X290600Y60500D01*
Y55400D01*
X299700Y46300D01*
Y22750D01*
G01X287407Y66022D02*
Y70443D01*
X286550Y71300D01*
X282500D01*
G01X293350Y59400D02*
X293950Y60000D01*
X296257D01*
X298057Y61800D01*
Y66022D01*
G01X305400Y9086D02*
X305157Y9329D01*
Y13929D01*
G01X298200Y7400D02*
X298057Y7543D01*
Y13929D01*
G01X312257D02*
Y17843D01*
X312200Y17900D01*
G01X301800Y27600D02*
Y49100D01*
X307200Y54500D01*
Y59750D01*
X305157Y61793D01*
Y66022D01*
G01X304300Y35500D02*
Y49401D01*
X308450Y53551D01*
Y60549D01*
X308707Y60806D01*
Y66022D01*
G01X306750Y44000D02*
Y49600D01*
X310200Y53050D01*
Y59501D01*
X312257Y61558D01*
Y66022D01*
G01X315807D02*
Y62408D01*
X311650Y58251D01*
Y52750D01*
X309300Y50400D01*
Y44200D01*
G01X301607Y66022D02*
Y61292D01*
X302499Y60400D01*
X304154D01*
X305400Y59154D01*
Y58181D01*
G01X315807Y13929D02*
Y18100D01*
G01X322725Y43925D02*
X326457Y40193D01*
Y13929D01*
G01X317300Y50500D02*
Y56699D01*
X322907Y62306D01*
Y66022D01*
G01X319100Y47150D02*
Y55301D01*
X326457Y62658D01*
Y66022D01*
G01X316700Y46000D02*
X315500Y47200D01*
Y58450D01*
X319357Y62307D01*
Y66022D01*
G01X319600Y71100D02*
X319850Y70850D01*
X321300D01*
X322907Y69243D01*
Y66022D01*
G01X324600Y70800D02*
X326457Y68943D01*
Y66022D01*
G54D29*
X60000Y-5000D03*
Y85000D03*
G54D47*
X330000Y-5000D03*
Y85000D03*
G54D38*
X130000Y-5000D03*
X140000D03*
X130000Y85000D03*
X140000D03*
X150000Y-5000D03*
X160000D03*
X150000Y85000D03*
X160000D03*
X170000Y-5000D03*
Y85000D03*
X180000Y-5000D03*
X190000D03*
X180000Y85000D03*
X190000D03*
X200000Y-5000D03*
Y85000D03*
X210000Y-5000D03*
X220000D03*
X210000Y85000D03*
X220000D03*
X230000Y-5000D03*
Y85000D03*
X240000Y-5000D03*
X250000D03*
X240000Y85000D03*
X250000D03*
X260000Y-5000D03*
X270000D03*
X260000Y85000D03*
X270000D03*
X280000Y-5000D03*
Y85000D03*
X290000Y-5000D03*
X300000D03*
X290000Y85000D03*
X300000D03*
X310000Y-5000D03*
Y85000D03*
X320000Y-5000D03*
Y85000D03*
G54D57*
G01X-82000Y-63550D02*
X64000D01*
Y-123550D01*
X-82000D01*
Y-63550D01*
G01X64000Y-123550D02*
X399161D01*
Y-63550D01*
X64000D01*
G01Y-108550D02*
X399000D01*
G01X64000Y-93550D02*
X399000D01*
G01X64000Y-78550D02*
X399000D01*
G01X259000Y-123550D02*
Y-108550D01*
G01X298000Y-123550D02*
Y-108550D01*
G54D48*
G01X-13269Y55943D02*
Y61379D01*
X-13390Y61500D01*
G01X44500Y55050D02*
X50660D01*
X52310Y53400D01*
G01X53910Y20100D02*
Y18350D01*
X54910Y17350D01*
X61800D01*
X62800Y18350D01*
Y34500D01*
X61800Y35500D01*
X54460D01*
X52410Y37550D01*
Y41300D01*
G01X57690Y20100D02*
X60400D01*
G01X60957Y67134D02*
X58366D01*
X57500Y68000D01*
G01X72800Y64400D02*
X72034Y65166D01*
X68043D01*
G01X64500Y66150D02*
X65484Y67134D01*
X68043D01*
G54D39*
X139800Y25600D03*
G54D58*
G01X15872Y24252D02*
Y22800D01*
X15072Y22000D01*
X9000D01*
G01X12722Y30551D02*
X8051D01*
X7500Y30000D01*
G01X12722Y40000D02*
X10250D01*
X8000Y37750D01*
G01X12722Y43150D02*
X6750D01*
X6300Y42700D01*
G01X12722Y41575D02*
X19575D01*
X20000Y42000D01*
G01X30045Y24252D02*
Y20345D01*
X29700Y20000D01*
G01X28470Y24252D02*
Y29570D01*
X28800Y29900D01*
G01X31620Y24252D02*
Y33680D01*
X27500Y37800D01*
G01X14600Y59000D02*
X15272D01*
X15872Y58400D01*
Y55748D01*
G01X28470D02*
Y50970D01*
X27500Y50000D01*
G01X30045Y55748D02*
Y48545D01*
X27500Y46000D01*
G01X44218Y35276D02*
X48126D01*
X48500Y35650D01*
G01X49950Y26550D02*
X49098Y27402D01*
X44218D01*
G01Y38425D02*
X47725D01*
X48700Y39400D01*
G01X44218Y36850D02*
X38200D01*
X37150Y37900D01*
G01X44218Y51024D02*
X49934D01*
X52310Y53400D01*
G01X31620Y55748D02*
Y50880D01*
X32500Y50000D01*
G01X47250Y44050D02*
X46350Y43150D01*
X44218D01*
G01Y44724D02*
X38276D01*
X37000Y46000D01*
G01X44218Y43150D02*
X38150D01*
X37000Y42000D01*
G01X34769Y55748D02*
Y52231D01*
X37000Y50000D01*
G01X53910Y20100D02*
Y22590D01*
X49950Y26550D01*
G01X93100Y-116217D02*
X93800Y-115283D01*
X94400Y-114750D01*
X95200Y-114483D01*
X95900Y-114750D01*
X96400Y-115283D01*
X96800Y-116083D01*
X96900Y-117017D01*
X96800Y-117817D01*
X96400Y-118617D01*
X95800Y-119283D01*
X95100Y-119550D01*
X94300Y-119283D01*
X93600Y-118484D01*
X93200Y-117283D01*
X93100Y-115950D01*
X93300Y-114217D01*
X93600Y-113283D01*
X94100Y-112350D01*
X94800Y-111683D01*
X95500Y-111550D01*
X96200Y-111817D01*
X96700Y-112483D01*
G01X103000Y-119550D02*
Y-111550D01*
X101800Y-113150D01*
G01Y-119550D02*
X104200D01*
G01X111000Y-111550D02*
X110200Y-111817D01*
X109600Y-112483D01*
X109200Y-113283D01*
X108900Y-114350D01*
X108800Y-115550D01*
X108900Y-116750D01*
X109200Y-117817D01*
X109600Y-118617D01*
X110200Y-119283D01*
X111000Y-119550D01*
X111800Y-119283D01*
X112400Y-118617D01*
X112800Y-117817D01*
X113100Y-116750D01*
X113200Y-115550D01*
X113100Y-114350D01*
X112800Y-113283D01*
X112400Y-112483D01*
X111800Y-111817D01*
X111000Y-111550D01*
G01X117700Y-116883D02*
X120300D01*
G01X125100Y-116217D02*
X125800Y-115283D01*
X126400Y-114750D01*
X127200Y-114483D01*
X127900Y-114750D01*
X128400Y-115283D01*
X128800Y-116083D01*
X128900Y-117017D01*
X128800Y-117817D01*
X128400Y-118617D01*
X127800Y-119283D01*
X127100Y-119550D01*
X126300Y-119283D01*
X125600Y-118484D01*
X125200Y-117283D01*
X125100Y-115950D01*
X125300Y-114217D01*
X125600Y-113283D01*
X126100Y-112350D01*
X126800Y-111683D01*
X127500Y-111550D01*
X128200Y-111817D01*
X128700Y-112483D01*
G01X135000Y-111550D02*
X134200Y-111817D01*
X133600Y-112483D01*
X133200Y-113283D01*
X132900Y-114350D01*
X132800Y-115550D01*
X132900Y-116750D01*
X133200Y-117817D01*
X133600Y-118617D01*
X134200Y-119283D01*
X135000Y-119550D01*
X135800Y-119283D01*
X136400Y-118617D01*
X136800Y-117817D01*
X137100Y-116750D01*
X137200Y-115550D01*
X137100Y-114350D01*
X136800Y-113283D01*
X136400Y-112483D01*
X135800Y-111817D01*
X135000Y-111550D01*
G01X140800Y-118350D02*
X141400Y-119017D01*
X142100Y-119417D01*
X143000Y-119550D01*
X143900Y-119283D01*
X144600Y-118750D01*
X145100Y-117817D01*
X145200Y-116750D01*
X145000Y-115683D01*
X144500Y-115017D01*
X143800Y-114483D01*
X143100Y-114350D01*
X142400Y-114483D01*
X141500Y-115017D01*
X141800Y-111550D01*
X144500D01*
G01X149100Y-112883D02*
X149700Y-112083D01*
X150400Y-111683D01*
X151200Y-111550D01*
X152200Y-111817D01*
X152900Y-112483D01*
X153100Y-113283D01*
X153000Y-114084D01*
X152600Y-114750D01*
X150600Y-116083D01*
X149700Y-117017D01*
X149100Y-118350D01*
X148900Y-119550D01*
X153100D01*
G01X158800D02*
X159000Y-117817D01*
X159300Y-116350D01*
X159700Y-115017D01*
X160200Y-113550D01*
X161000Y-111550D01*
X157000D01*
G01X165700Y-116883D02*
X168300D01*
G01X175000Y-111550D02*
X174200Y-111817D01*
X173600Y-112483D01*
X173200Y-113283D01*
X172900Y-114350D01*
X172800Y-115550D01*
X172900Y-116750D01*
X173200Y-117817D01*
X173600Y-118617D01*
X174200Y-119283D01*
X175000Y-119550D01*
X175800Y-119283D01*
X176400Y-118617D01*
X176800Y-117817D01*
X177100Y-116750D01*
X177200Y-115550D01*
X177100Y-114350D01*
X176800Y-113283D01*
X176400Y-112483D01*
X175800Y-111817D01*
X175000Y-111550D01*
G01X183000Y-119550D02*
Y-111550D01*
X181800Y-113150D01*
G01Y-119550D02*
X184200D01*
G01X95000Y-97050D02*
Y-105050D01*
G01X92700Y-97050D02*
X97300D01*
G01X103000Y-105050D02*
X102200Y-104917D01*
X101500Y-104383D01*
X100900Y-103583D01*
X100500Y-102650D01*
X100300Y-101583D01*
Y-100517D01*
X100500Y-99450D01*
X100900Y-98517D01*
X101500Y-97717D01*
X102200Y-97183D01*
X103000Y-97050D01*
X103800Y-97183D01*
X104500Y-97717D01*
X105100Y-98517D01*
X105500Y-99450D01*
X105700Y-100517D01*
Y-101583D01*
X105500Y-102650D01*
X105100Y-103583D01*
X104500Y-104383D01*
X103800Y-104917D01*
X103000Y-105050D01*
G01X109000D02*
Y-97050D01*
X111400D01*
X112200Y-97450D01*
X112800Y-98383D01*
X113000Y-99450D01*
X112800Y-100517D01*
X112300Y-101317D01*
X111400Y-101717D01*
X109000D01*
G01X124900Y-103984D02*
X125700Y-104650D01*
X126600Y-105050D01*
X127400D01*
X128200Y-104650D01*
X128800Y-103984D01*
X129100Y-103050D01*
X128900Y-102117D01*
X128400Y-101317D01*
X127500Y-100783D01*
X126300Y-100517D01*
X125600Y-99983D01*
X125300Y-99050D01*
X125500Y-98117D01*
X126000Y-97450D01*
X126700Y-97050D01*
X127400D01*
X128100Y-97317D01*
X128700Y-97983D01*
G01X133800Y-97050D02*
X136200D01*
G01X135000D02*
Y-105050D01*
G01X133800D02*
X136200D01*
G01X140800D02*
Y-97050D01*
X142800D01*
X143600Y-97450D01*
X144200Y-97983D01*
X144700Y-98783D01*
X145100Y-99717D01*
X145200Y-101050D01*
X145100Y-102383D01*
X144700Y-103317D01*
X144200Y-104117D01*
X143600Y-104650D01*
X142800Y-105050D01*
X140800D01*
G01X153000D02*
X149000D01*
Y-97050D01*
X153000D01*
G01X151400Y-100917D02*
X149000D01*
G01X93000Y-89550D02*
Y-81550D01*
X95400D01*
X96200Y-81950D01*
X96800Y-82883D01*
X97000Y-83950D01*
X96800Y-85017D01*
X96300Y-85817D01*
X95400Y-86217D01*
X93000D01*
G01X101000Y-89550D02*
Y-81550D01*
X103500D01*
X104300Y-81950D01*
X104800Y-82483D01*
X105000Y-83550D01*
X104800Y-84617D01*
X104200Y-85283D01*
X103500Y-85683D01*
X101000D01*
G01X103500D02*
X105000Y-89550D01*
G01X108500D02*
X111000Y-81550D01*
X113500Y-89550D01*
G01X112600Y-86750D02*
X109400D01*
G01X119000Y-89550D02*
X118200Y-89417D01*
X117500Y-88883D01*
X116900Y-88083D01*
X116500Y-87150D01*
X116300Y-86083D01*
Y-85017D01*
X116500Y-83950D01*
X116900Y-83017D01*
X117500Y-82217D01*
X118200Y-81683D01*
X119000Y-81550D01*
X119800Y-81683D01*
X120500Y-82217D01*
X121100Y-83017D01*
X121500Y-83950D01*
X121700Y-85017D01*
Y-86083D01*
X121500Y-87150D01*
X121100Y-88083D01*
X120500Y-88883D01*
X119800Y-89417D01*
X119000Y-89550D01*
G01X97200Y-67217D02*
X96600Y-66817D01*
X95900Y-66550D01*
X95100D01*
X94200Y-66950D01*
X93500Y-67617D01*
X93000Y-68417D01*
X92600Y-69750D01*
X92500Y-70950D01*
X92700Y-72150D01*
X93000Y-72950D01*
X93600Y-73750D01*
X94300Y-74283D01*
X95000Y-74550D01*
X95700D01*
X96400Y-74283D01*
X97000Y-73883D01*
X97500Y-73350D01*
G01X103000Y-74550D02*
Y-70950D01*
X101000Y-66550D01*
G01X105000D02*
X103000Y-70950D01*
G01X111000Y-74550D02*
X111700Y-74417D01*
X112500Y-74017D01*
X113000Y-73350D01*
X113200Y-72417D01*
X113000Y-71484D01*
X112400Y-70683D01*
X111500Y-70283D01*
X110500D01*
X109900Y-70017D01*
X109400Y-69350D01*
X109200Y-68417D01*
X109500Y-67483D01*
X110200Y-66817D01*
X111000Y-66550D01*
X111800Y-66817D01*
X112500Y-67483D01*
X112800Y-68417D01*
X112600Y-69350D01*
X112100Y-70017D01*
X111500Y-70283D01*
X110500D01*
X109600Y-70683D01*
X109000Y-71484D01*
X108800Y-72417D01*
X109000Y-73350D01*
X109500Y-74017D01*
X110300Y-74417D01*
X111000Y-74550D01*
G01X121200Y-67217D02*
X120600Y-66817D01*
X119900Y-66550D01*
X119100D01*
X118200Y-66950D01*
X117500Y-67617D01*
X117000Y-68417D01*
X116600Y-69750D01*
X116500Y-70950D01*
X116700Y-72150D01*
X117000Y-72950D01*
X117600Y-73750D01*
X118300Y-74283D01*
X119000Y-74550D01*
X119700D01*
X120400Y-74283D01*
X121000Y-73883D01*
X121500Y-73350D01*
G01X125000Y-74550D02*
Y-66550D01*
X127400D01*
X128200Y-66950D01*
X128800Y-67883D01*
X129000Y-68950D01*
X128800Y-70017D01*
X128300Y-70817D01*
X127400Y-71217D01*
X125000D01*
G01X133000Y-74550D02*
Y-66550D01*
X135500D01*
X136300Y-66950D01*
X136800Y-67483D01*
X137000Y-68550D01*
X136800Y-69617D01*
X136200Y-70283D01*
X135500Y-70683D01*
X133000D01*
G01X135500D02*
X137000Y-74550D01*
G01X143000D02*
X142200Y-74417D01*
X141500Y-73883D01*
X140900Y-73083D01*
X140500Y-72150D01*
X140300Y-71083D01*
Y-70017D01*
X140500Y-68950D01*
X140900Y-68017D01*
X141500Y-67217D01*
X142200Y-66683D01*
X143000Y-66550D01*
X143800Y-66683D01*
X144500Y-67217D01*
X145100Y-68017D01*
X145500Y-68950D01*
X145700Y-70017D01*
Y-71083D01*
X145500Y-72150D01*
X145100Y-73083D01*
X144500Y-73883D01*
X143800Y-74417D01*
X143000Y-74550D01*
G01X151000Y-66550D02*
Y-74550D01*
G01X148700Y-66550D02*
X153300D01*
G01X159000Y-74550D02*
X158200Y-74417D01*
X157500Y-73883D01*
X156900Y-73083D01*
X156500Y-72150D01*
X156300Y-71083D01*
Y-70017D01*
X156500Y-68950D01*
X156900Y-68017D01*
X157500Y-67217D01*
X158200Y-66683D01*
X159000Y-66550D01*
X159800Y-66683D01*
X160500Y-67217D01*
X161100Y-68017D01*
X161500Y-68950D01*
X161700Y-70017D01*
Y-71083D01*
X161500Y-72150D01*
X161100Y-73083D01*
X160500Y-73883D01*
X159800Y-74417D01*
X159000Y-74550D01*
G01X165700Y-71883D02*
X168300D01*
G01X175000Y-66550D02*
X174200Y-66817D01*
X173600Y-67483D01*
X173200Y-68283D01*
X172900Y-69350D01*
X172800Y-70550D01*
X172900Y-71750D01*
X173200Y-72817D01*
X173600Y-73617D01*
X174200Y-74283D01*
X175000Y-74550D01*
X175800Y-74283D01*
X176400Y-73617D01*
X176800Y-72817D01*
X177100Y-71750D01*
X177200Y-70550D01*
X177100Y-69350D01*
X176800Y-68283D01*
X176400Y-67483D01*
X175800Y-66817D01*
X175000Y-66550D01*
G01X181100Y-71217D02*
X181800Y-70283D01*
X182400Y-69750D01*
X183200Y-69483D01*
X183900Y-69750D01*
X184400Y-70283D01*
X184800Y-71083D01*
X184900Y-72017D01*
X184800Y-72817D01*
X184400Y-73617D01*
X183800Y-74283D01*
X183100Y-74550D01*
X182300Y-74283D01*
X181600Y-73484D01*
X181200Y-72283D01*
X181100Y-70950D01*
X181300Y-69217D01*
X181600Y-68283D01*
X182100Y-67350D01*
X182800Y-66683D01*
X183500Y-66550D01*
X184200Y-66817D01*
X184700Y-67483D01*
G01X188800Y-72950D02*
X189400Y-73883D01*
X190200Y-74417D01*
X191100Y-74550D01*
X191900Y-74417D01*
X192700Y-73750D01*
X193200Y-72950D01*
X193300Y-72150D01*
X193100Y-71217D01*
X192400Y-70550D01*
X191700Y-70283D01*
X190800D01*
G01X191700D02*
X192300Y-69883D01*
X192800Y-69217D01*
X193000Y-68417D01*
X192800Y-67617D01*
X192300Y-66950D01*
X191400Y-66550D01*
X190500Y-66683D01*
X189600Y-67217D01*
G01X197700Y-71883D02*
X200300D01*
G01X207800Y-70283D02*
X208200Y-69883D01*
X208500Y-69217D01*
X208700Y-68283D01*
X208500Y-67483D01*
X208100Y-66950D01*
X207400Y-66550D01*
X204700D01*
Y-74550D01*
X208000D01*
X208700Y-74017D01*
X209100Y-73217D01*
X209300Y-72283D01*
X209100Y-71350D01*
X208500Y-70550D01*
X207800Y-70283D01*
X204700D01*
G01X213000Y-66550D02*
Y-74550D01*
X217000D01*
G01X225000D02*
X221000D01*
Y-66550D01*
X225000D01*
G01X223400Y-70417D02*
X221000D01*
G01X237000Y-74550D02*
Y-66550D01*
X239400D01*
X240200Y-66950D01*
X240800Y-67883D01*
X241000Y-68950D01*
X240800Y-70017D01*
X240300Y-70817D01*
X239400Y-71217D01*
X237000D01*
G01X244900Y-73484D02*
X245700Y-74150D01*
X246600Y-74550D01*
X247400D01*
X248200Y-74150D01*
X248800Y-73484D01*
X249100Y-72550D01*
X248900Y-71617D01*
X248400Y-70817D01*
X247500Y-70283D01*
X246300Y-70017D01*
X245600Y-69483D01*
X245300Y-68550D01*
X245500Y-67617D01*
X246000Y-66950D01*
X246700Y-66550D01*
X247400D01*
X248100Y-66817D01*
X248700Y-67483D01*
G01X255000Y-74550D02*
X254400Y-74417D01*
X253800Y-73883D01*
X253400Y-72950D01*
X253200Y-71883D01*
X253400Y-70817D01*
X253800Y-69883D01*
X254400Y-69350D01*
X255000Y-69217D01*
X255600Y-69350D01*
X256200Y-69883D01*
X256600Y-70817D01*
X256700Y-71883D01*
X256600Y-72950D01*
X256200Y-73883D01*
X255600Y-74417D01*
X255000Y-74550D01*
G01X265200Y-67217D02*
X264600Y-66817D01*
X263900Y-66550D01*
X263100D01*
X262200Y-66950D01*
X261500Y-67617D01*
X261000Y-68417D01*
X260600Y-69750D01*
X260500Y-70950D01*
X260700Y-72150D01*
X261000Y-72950D01*
X261600Y-73750D01*
X262300Y-74283D01*
X263000Y-74550D01*
X263700D01*
X264400Y-74283D01*
X265000Y-73883D01*
X265500Y-73350D01*
G01X277100Y-71217D02*
X277800Y-70283D01*
X278400Y-69750D01*
X279200Y-69483D01*
X279900Y-69750D01*
X280400Y-70283D01*
X280800Y-71083D01*
X280900Y-72017D01*
X280800Y-72817D01*
X280400Y-73617D01*
X279800Y-74283D01*
X279100Y-74550D01*
X278300Y-74283D01*
X277600Y-73484D01*
X277200Y-72283D01*
X277100Y-70950D01*
X277300Y-69217D01*
X277600Y-68283D01*
X278100Y-67350D01*
X278800Y-66683D01*
X279500Y-66550D01*
X280200Y-66817D01*
X280700Y-67483D01*
G01X295800Y-70283D02*
X296200Y-69883D01*
X296500Y-69217D01*
X296700Y-68283D01*
X296500Y-67483D01*
X296100Y-66950D01*
X295400Y-66550D01*
X292700D01*
Y-74550D01*
X296000D01*
X296700Y-74017D01*
X297100Y-73217D01*
X297300Y-72283D01*
X297100Y-71350D01*
X296500Y-70550D01*
X295800Y-70283D01*
X292700D01*
G01X301000Y-66550D02*
Y-74550D01*
X305000D01*
G01X313000D02*
X309000D01*
Y-66550D01*
X313000D01*
G01X311400Y-70417D02*
X309000D01*
G01X325000Y-74550D02*
Y-66550D01*
X327400D01*
X328200Y-66950D01*
X328800Y-67883D01*
X329000Y-68950D01*
X328800Y-70017D01*
X328300Y-70817D01*
X327400Y-71217D01*
X325000D01*
G01X333000Y-74550D02*
Y-66550D01*
X335500D01*
X336300Y-66950D01*
X336800Y-67483D01*
X337000Y-68550D01*
X336800Y-69617D01*
X336200Y-70283D01*
X335500Y-70683D01*
X333000D01*
G01X335500D02*
X337000Y-74550D01*
G01X343000D02*
X342200Y-74417D01*
X341500Y-73883D01*
X340900Y-73083D01*
X340500Y-72150D01*
X340300Y-71083D01*
Y-70017D01*
X340500Y-68950D01*
X340900Y-68017D01*
X341500Y-67217D01*
X342200Y-66683D01*
X343000Y-66550D01*
X343800Y-66683D01*
X344500Y-67217D01*
X345100Y-68017D01*
X345500Y-68950D01*
X345700Y-70017D01*
Y-71083D01*
X345500Y-72150D01*
X345100Y-73083D01*
X344500Y-73883D01*
X343800Y-74417D01*
X343000Y-74550D01*
G01X351000Y-66550D02*
Y-74550D01*
G01X348700Y-66550D02*
X353300D01*
G01X359000D02*
X358200Y-66817D01*
X357600Y-67483D01*
X357200Y-68283D01*
X356900Y-69350D01*
X356800Y-70550D01*
X356900Y-71750D01*
X357200Y-72817D01*
X357600Y-73617D01*
X358200Y-74283D01*
X359000Y-74550D01*
X359800Y-74283D01*
X360400Y-73617D01*
X360800Y-72817D01*
X361100Y-71750D01*
X361200Y-70550D01*
X361100Y-69350D01*
X360800Y-68283D01*
X360400Y-67483D01*
X359800Y-66817D01*
X359000Y-66550D01*
G01X372800Y-74550D02*
Y-66550D01*
G01X376600D02*
X372800Y-71484D01*
G01X377200Y-74550D02*
X374500Y-69217D01*
G01X381800Y-66550D02*
X384200D01*
G01X383000D02*
Y-74550D01*
G01X381800D02*
X384200D01*
G01X391000Y-66550D02*
Y-74550D01*
G01X388700Y-66550D02*
X393300D01*
G01X276000Y-111550D02*
X275200Y-111817D01*
X274600Y-112483D01*
X274200Y-113283D01*
X273900Y-114350D01*
X273800Y-115550D01*
X273900Y-116750D01*
X274200Y-117817D01*
X274600Y-118617D01*
X275200Y-119283D01*
X276000Y-119550D01*
X276800Y-119283D01*
X277400Y-118617D01*
X277800Y-117817D01*
X278100Y-116750D01*
X278200Y-115550D01*
X278100Y-114350D01*
X277800Y-113283D01*
X277400Y-112483D01*
X276800Y-111817D01*
X276000Y-111550D01*
G01X281800Y-117950D02*
X282400Y-118883D01*
X283200Y-119417D01*
X284100Y-119550D01*
X284900Y-119417D01*
X285700Y-118750D01*
X286200Y-117950D01*
X286300Y-117150D01*
X286100Y-116217D01*
X285400Y-115550D01*
X284700Y-115283D01*
X283800D01*
G01X284700D02*
X285300Y-114883D01*
X285800Y-114217D01*
X286000Y-113417D01*
X285800Y-112617D01*
X285300Y-111950D01*
X284400Y-111550D01*
X283500Y-111683D01*
X282600Y-112217D01*
G01X318000Y-111550D02*
X317200Y-111817D01*
X316600Y-112483D01*
X316200Y-113283D01*
X315900Y-114350D01*
X315800Y-115550D01*
X315900Y-116750D01*
X316200Y-117817D01*
X316600Y-118617D01*
X317200Y-119283D01*
X318000Y-119550D01*
X318800Y-119283D01*
X319400Y-118617D01*
X319800Y-117817D01*
X320100Y-116750D01*
X320200Y-115550D01*
X320100Y-114350D01*
X319800Y-113283D01*
X319400Y-112483D01*
X318800Y-111817D01*
X318000Y-111550D01*
G01X324300Y-118617D02*
X325000Y-119283D01*
X325800Y-119550D01*
X326600Y-119283D01*
X327300Y-118484D01*
X327800Y-117283D01*
X328000Y-116083D01*
Y-114617D01*
X327800Y-113417D01*
X327300Y-112350D01*
X326700Y-111817D01*
X326000Y-111550D01*
X325200Y-111817D01*
X324600Y-112350D01*
X324200Y-113150D01*
X324000Y-114217D01*
X324200Y-115150D01*
X324700Y-116083D01*
X325300Y-116617D01*
X326000Y-116750D01*
X326800Y-116484D01*
X327400Y-115817D01*
X328000Y-114617D01*
G01X332200Y-119817D02*
X335800Y-111550D01*
G01X342000Y-119550D02*
Y-111550D01*
X340800Y-113150D01*
G01Y-119550D02*
X343200D01*
G01X350000D02*
X350700Y-119417D01*
X351500Y-119017D01*
X352000Y-118350D01*
X352200Y-117417D01*
X352000Y-116484D01*
X351400Y-115683D01*
X350500Y-115283D01*
X349500D01*
X348900Y-115017D01*
X348400Y-114350D01*
X348200Y-113417D01*
X348500Y-112483D01*
X349200Y-111817D01*
X350000Y-111550D01*
X350800Y-111817D01*
X351500Y-112483D01*
X351800Y-113417D01*
X351600Y-114350D01*
X351100Y-115017D01*
X350500Y-115283D01*
X349500D01*
X348600Y-115683D01*
X348000Y-116484D01*
X347800Y-117417D01*
X348000Y-118350D01*
X348500Y-119017D01*
X349300Y-119417D01*
X350000Y-119550D01*
G01X356200Y-119817D02*
X359800Y-111550D01*
G01X366000Y-119550D02*
Y-111550D01*
X364800Y-113150D01*
G01Y-119550D02*
X367200D01*
G01X374000D02*
X374700Y-119417D01*
X375500Y-119017D01*
X376000Y-118350D01*
X376200Y-117417D01*
X376000Y-116484D01*
X375400Y-115683D01*
X374500Y-115283D01*
X373500D01*
X372900Y-115017D01*
X372400Y-114350D01*
X372200Y-113417D01*
X372500Y-112483D01*
X373200Y-111817D01*
X374000Y-111550D01*
X374800Y-111817D01*
X375500Y-112483D01*
X375800Y-113417D01*
X375600Y-114350D01*
X375100Y-115017D01*
X374500Y-115283D01*
X373500D01*
X372600Y-115683D01*
X372000Y-116484D01*
X371800Y-117417D01*
X372000Y-118350D01*
X372500Y-119017D01*
X373300Y-119417D01*
X374000Y-119550D01*
G54D49*
G01X-15950Y48350D02*
X-16000Y48400D01*
Y51550D01*
X-15150Y52400D01*
X-11300D01*
G01X-7072Y45728D02*
Y51622D01*
G01D02*
X-7850Y52400D01*
X-11300D01*
M02*
